<?xml version="1.0" encoding="UTF-8"?>
<!--Generator: Apple Native CoreSVG 175-->
<!DOCTYPE svg
PUBLIC "-//W3C//DTD SVG 1.1//EN"
       "http://www.w3.org/Graphics/SVG/1.1/DTD/svg11.dtd">
<svg version="1.1" xmlns="http://www.w3.org/2000/svg" xmlns:xlink="http://www.w3.org/1999/xlink" width="3300" height="2200">
 <!--glyph: "uni100FE8.medium", point size: 100.0, font version: "17.3d3e1", template writer version: "65.1"-->
 <g id="Notes">
  <rect height="2200" id="artboard" style="fill:white;opacity:1" width="3300" x="0" y="0"/>
  <line style="fill:none;stroke:black;opacity:1;stroke-width:0.5;" x1="263" x2="3036" y1="292" y2="292"/>
  <text style="stroke:none;fill:black;font-family:sans-serif;font-size:13;font-weight:bold;" transform="matrix(1 0 0 1 263 322)">Weight/Scale Variations</text>
  <text style="stroke:none;fill:black;font-family:sans-serif;font-size:13;text-anchor:middle;" transform="matrix(1 0 0 1 559.711 322)">Ultralight</text>
  <text style="stroke:none;fill:black;font-family:sans-serif;font-size:13;text-anchor:middle;" transform="matrix(1 0 0 1 856.422 322)">Thin</text>
  <text style="stroke:none;fill:black;font-family:sans-serif;font-size:13;text-anchor:middle;" transform="matrix(1 0 0 1 1153.13 322)">Light</text>
  <text style="stroke:none;fill:black;font-family:sans-serif;font-size:13;text-anchor:middle;" transform="matrix(1 0 0 1 1449.84 322)">Regular</text>
  <text style="stroke:none;fill:black;font-family:sans-serif;font-size:13;text-anchor:middle;" transform="matrix(1 0 0 1 1746.56 322)">Medium</text>
  <text style="stroke:none;fill:black;font-family:sans-serif;font-size:13;text-anchor:middle;" transform="matrix(1 0 0 1 2043.27 322)">Semibold</text>
  <text style="stroke:none;fill:black;font-family:sans-serif;font-size:13;text-anchor:middle;" transform="matrix(1 0 0 1 2339.98 322)">Bold</text>
  <text style="stroke:none;fill:black;font-family:sans-serif;font-size:13;text-anchor:middle;" transform="matrix(1 0 0 1 2636.69 322)">Heavy</text>
  <text style="stroke:none;fill:black;font-family:sans-serif;font-size:13;text-anchor:middle;" transform="matrix(1 0 0 1 2933.4 322)">Black</text>
  <line style="fill:none;stroke:black;opacity:1;stroke-width:0.5;" x1="263" x2="3036" y1="1903" y2="1903"/>
  <g transform="matrix(1 0 0 1 263 1933)">
   <path d="M9.24805 0.830078Q10.8691 0.830078 12.2949 0.214844Q13.7207-0.400391 14.8096-1.49414Q15.8984-2.58789 16.5186-4.01367Q17.1387-5.43945 17.1387-7.05078Q17.1387-8.66211 16.5186-10.0879Q15.8984-11.5137 14.8047-12.6074Q13.7109-13.7012 12.2852-14.3164Q10.8594-14.9316 9.23828-14.9316Q7.62695-14.9316 6.20117-14.3164Q4.77539-13.7012 3.69141-12.6074Q2.60742-11.5137 1.9873-10.0879Q1.36719-8.66211 1.36719-7.05078Q1.36719-5.43945 1.9873-4.01367Q2.60742-2.58789 3.69629-1.49414Q4.78516-0.400391 6.21094 0.214844Q7.63672 0.830078 9.24805 0.830078ZM9.24805-0.654297Q7.91992-0.654297 6.7627-1.14746Q5.60547-1.64062 4.73145-2.51953Q3.85742-3.39844 3.36426-4.56055Q2.87109-5.72266 2.87109-7.05078Q2.87109-8.37891 3.35938-9.54102Q3.84766-10.7031 4.72168-11.582Q5.5957-12.4609 6.75293-12.9541Q7.91016-13.4473 9.23828-13.4473Q10.5762-13.4473 11.7334-12.9541Q12.8906-12.4609 13.7695-11.582Q14.6484-10.7031 15.1465-9.54102Q15.6445-8.37891 15.6445-7.05078Q15.6445-5.72266 15.1514-4.56055Q14.6582-3.39844 13.7842-2.51953Q12.9102-1.64062 11.748-1.14746Q10.5859-0.654297 9.24805-0.654297ZM5.6543-7.05078Q5.6543-6.72852 5.85938-6.52832Q6.06445-6.32812 6.40625-6.32812L8.51562-6.32812L8.51562-4.20898Q8.51562-3.88672 8.71094-3.67676Q8.90625-3.4668 9.23828-3.4668Q9.56055-3.4668 9.77051-3.67676Q9.98047-3.88672 9.98047-4.20898L9.98047-6.32812L12.0898-6.32812Q12.4219-6.32812 12.627-6.52832Q12.832-6.72852 12.832-7.05078Q12.832-7.38281 12.627-7.58789Q12.4219-7.79297 12.0898-7.79297L9.98047-7.79297L9.98047-9.90234Q9.98047-10.2344 9.77051-10.4443Q9.56055-10.6543 9.23828-10.6543Q8.90625-10.6543 8.71094-10.4443Q8.51562-10.2344 8.51562-9.90234L8.51562-7.79297L6.40625-7.79297Q6.06445-7.79297 5.85938-7.58789Q5.6543-7.38281 5.6543-7.05078Z"/>
  </g>
  <g transform="matrix(1 0 0 1 281.867 1933)">
   <path d="M11.709 2.91016Q13.75 2.91016 15.5518 2.12891Q17.3535 1.34766 18.7305-0.0292969Q20.1074-1.40625 20.8887-3.20801Q21.6699-5.00977 21.6699-7.05078Q21.6699-9.0918 20.8887-10.8936Q20.1074-12.6953 18.7305-14.0723Q17.3535-15.4492 15.5469-16.2305Q13.7402-17.0117 11.6992-17.0117Q9.6582-17.0117 7.85645-16.2305Q6.05469-15.4492 4.68262-14.0723Q3.31055-12.6953 2.5293-10.8936Q1.74805-9.0918 1.74805-7.05078Q1.74805-5.00977 2.5293-3.20801Q3.31055-1.40625 4.6875-0.0292969Q6.06445 1.34766 7.86621 2.12891Q9.66797 2.91016 11.709 2.91016ZM11.709 1.25Q9.98047 1.25 8.47656 0.605469Q6.97266-0.0390625 5.83496-1.17676Q4.69727-2.31445 4.05762-3.81836Q3.41797-5.32227 3.41797-7.05078Q3.41797-8.7793 4.05762-10.2832Q4.69727-11.7871 5.83008-12.9297Q6.96289-14.0723 8.4668-14.7119Q9.9707-15.3516 11.6992-15.3516Q13.4277-15.3516 14.9316-14.7119Q16.4355-14.0723 17.5781-12.9297Q18.7207-11.7871 19.3652-10.2832Q20.0098-8.7793 20.0098-7.05078Q20.0098-5.32227 19.3701-3.81836Q18.7305-2.31445 17.5928-1.17676Q16.4551-0.0390625 14.9463 0.605469Q13.4375 1.25 11.709 1.25ZM7.17773-7.05078Q7.17773-6.69922 7.41211-6.47461Q7.64648-6.25 8.01758-6.25L10.8887-6.25L10.8887-3.36914Q10.8887-2.99805 11.1133-2.76855Q11.3379-2.53906 11.6895-2.53906Q12.0605-2.53906 12.29-2.76855Q12.5195-2.99805 12.5195-3.36914L12.5195-6.25L15.4004-6.25Q15.7715-6.25 16.001-6.47461Q16.2305-6.69922 16.2305-7.05078Q16.2305-7.42188 16.001-7.65137Q15.7715-7.88086 15.4004-7.88086L12.5195-7.88086L12.5195-10.752Q12.5195-11.1328 12.29-11.3623Q12.0605-11.5918 11.6895-11.5918Q11.3379-11.5918 11.1133-11.3574Q10.8887-11.123 10.8887-10.752L10.8887-7.88086L8.01758-7.88086Q7.63672-7.88086 7.40723-7.65137Q7.17773-7.42188 7.17773-7.05078Z"/>
  </g>
  <g transform="matrix(1 0 0 1 305.646 1933)">
   <path d="M14.9707 5.66406Q17.0605 5.66406 18.96 5.01465Q20.8594 4.36523 22.4512 3.19336Q24.043 2.02148 25.2197 0.429688Q26.3965-1.16211 27.0459-3.06641Q27.6953-4.9707 27.6953-7.05078Q27.6953-9.14062 27.0459-11.04Q26.3965-12.9395 25.2197-14.5312Q24.043-16.123 22.4512-17.2998Q20.8594-18.4766 18.9551-19.126Q17.0508-19.7754 14.9609-19.7754Q12.8711-19.7754 10.9717-19.126Q9.07227-18.4766 7.48535-17.2998Q5.89844-16.123 4.72168-14.5312Q3.54492-12.9395 2.90039-11.04Q2.25586-9.14062 2.25586-7.05078Q2.25586-4.9707 2.90527-3.06641Q3.55469-1.16211 4.72656 0.429688Q5.89844 2.02148 7.49023 3.19336Q9.08203 4.36523 10.9814 5.01465Q12.8809 5.66406 14.9707 5.66406ZM14.9707 3.84766Q13.1641 3.84766 11.5283 3.2959Q9.89258 2.74414 8.53516 1.74805Q7.17773 0.751953 6.17676-0.610352Q5.17578-1.97266 4.62891-3.6084Q4.08203-5.24414 4.08203-7.05078Q4.08203-8.86719 4.62891-10.5029Q5.17578-12.1387 6.17188-13.501Q7.16797-14.8633 8.52539-15.8594Q9.88281-16.8555 11.5186-17.4023Q13.1543-17.9492 14.9609-17.9492Q16.7773-17.9492 18.4131-17.4023Q20.0488-16.8555 21.4111-15.8594Q22.7734-14.8633 23.7695-13.501Q24.7656-12.1387 25.3174-10.5029Q25.8691-8.86719 25.8691-7.05078Q25.8789-5.24414 25.332-3.6084Q24.7852-1.97266 23.7842-0.610352Q22.7832 0.751953 21.4209 1.74805Q20.0586 2.74414 18.4229 3.2959Q16.7871 3.84766 14.9707 3.84766ZM9.19922-7.05078Q9.19922-6.66992 9.45801-6.4209Q9.7168-6.17188 10.1172-6.17188L14.0625-6.17188L14.0625-2.2168Q14.0625-1.81641 14.3115-1.55762Q14.5605-1.29883 14.9512-1.29883Q15.3516-1.29883 15.6104-1.55273Q15.8691-1.80664 15.8691-2.2168L15.8691-6.17188L19.8242-6.17188Q20.2246-6.17188 20.4785-6.4209Q20.7324-6.66992 20.7324-7.05078Q20.7324-7.46094 20.4785-7.71484Q20.2246-7.96875 19.8242-7.96875L15.8691-7.96875L15.8691-11.9141Q15.8691-12.3242 15.6104-12.583Q15.3516-12.8418 14.9512-12.8418Q14.5605-12.8418 14.3115-12.583Q14.0625-12.3242 14.0625-11.9141L14.0625-7.96875L10.1172-7.96875Q9.70703-7.96875 9.45312-7.71484Q9.19922-7.46094 9.19922-7.05078Z"/>
  </g>
  <text style="stroke:none;fill:black;font-family:sans-serif;font-size:13;font-weight:bold;" transform="matrix(1 0 0 1 263 1953)">Design Variations</text>
  <text style="stroke:none;fill:black;font-family:sans-serif;font-size:13;" transform="matrix(1 0 0 1 263 1971)">Symbols are supported in up to nine weights and three scales.</text>
  <text style="stroke:none;fill:black;font-family:sans-serif;font-size:13;" transform="matrix(1 0 0 1 263 1989)">For optimal layout with text and other symbols, vertically align</text>
  <text style="stroke:none;fill:black;font-family:sans-serif;font-size:13;" transform="matrix(1 0 0 1 263 2007)">symbols with the adjacent text.</text>
  <line style="fill:none;stroke:#00AEEF;stroke-width:0.5;opacity:1.0;" x1="776" x2="776" y1="1919" y2="1933"/>
  <g transform="matrix(1 0 0 1 776 1933)">
   <path d="M3.31055 0.15625Q3.70117 0.15625 3.91602-0.00976562Q4.13086-0.175781 4.26758-0.585938L5.52734-4.0332L11.2891-4.0332L12.5488-0.585938Q12.6855-0.175781 12.9004-0.00976562Q13.1152 0.15625 13.4961 0.15625Q13.8867 0.15625 14.1162-0.0585938Q14.3457-0.273438 14.3457-0.644531Q14.3457-0.869141 14.2383-1.17188L9.6582-13.3691Q9.48242-13.8184 9.17969-14.043Q8.87695-14.2676 8.4082-14.2676Q7.5-14.2676 7.17773-13.3789L2.59766-1.16211Q2.49023-0.859375 2.49023-0.634766Q2.49023-0.263672 2.70996-0.0537109Q2.92969 0.15625 3.31055 0.15625ZM6.00586-5.51758L8.37891-12.0898L8.42773-12.0898L10.8008-5.51758Z"/>
  </g>
  <line style="fill:none;stroke:#00AEEF;stroke-width:0.5;opacity:1.0;" x1="793.197" x2="793.197" y1="1919" y2="1933"/>
  <text style="stroke:none;fill:black;font-family:sans-serif;font-size:13;font-weight:bold;" transform="matrix(1 0 0 1 776 1953)">Margins</text>
  <text style="stroke:none;fill:black;font-family:sans-serif;font-size:13;" transform="matrix(1 0 0 1 776 1971)">Leading and trailing margins on the left and right side of each symbol</text>
  <text style="stroke:none;fill:black;font-family:sans-serif;font-size:13;" transform="matrix(1 0 0 1 776 1989)">can be adjusted by modifying the x-location of the margin guidelines.</text>
  <text style="stroke:none;fill:black;font-family:sans-serif;font-size:13;" transform="matrix(1 0 0 1 776 2007)">Modifications are automatically applied proportionally to all</text>
  <text style="stroke:none;fill:black;font-family:sans-serif;font-size:13;" transform="matrix(1 0 0 1 776 2025)">scales and weights.</text>
  <g transform="matrix(1 0 0 1 1289 1933)">
   <path d="M2.8418 1.86523L4.54102 3.57422Q5.18555 4.22852 5.90332 4.17969Q6.62109 4.13086 7.31445 3.35938L18.0078-8.42773L17.041-9.4043L6.42578 2.27539Q6.16211 2.57812 5.89355 2.61719Q5.625 2.65625 5.27344 2.30469L4.10156 1.14258Q3.75 0.791016 3.79395 0.522461Q3.83789 0.253906 4.14062-0.0195312L15.6152-10.8203L14.6387-11.7871L3.04688-0.898438Q2.30469-0.214844 2.25098 0.498047Q2.19727 1.21094 2.8418 1.86523ZM9.25781-16.3281Q8.94531-16.0254 8.90625-15.6348Q8.86719-15.2441 9.04297-14.9512Q9.21875-14.6777 9.55566-14.541Q9.89258-14.4043 10.3809-14.5215Q11.4746-14.7754 12.5977-14.7314Q13.7207-14.6875 14.7949-13.9844L14.209-12.5293Q13.9551-11.9043 14.0674-11.4404Q14.1797-10.9766 14.5801-10.5664L16.875-8.25195Q17.2363-7.88086 17.5781-7.82227Q17.9199-7.76367 18.3398-7.8418L19.4043-8.03711L20.0684-7.36328L20.0293-6.80664Q20-6.43555 20.1221-6.12305Q20.2441-5.81055 20.6055-5.44922L21.3672-4.70703Q21.7285-4.3457 22.1533-4.33105Q22.5781-4.31641 22.9297-4.66797L25.8398-7.58789Q26.1914-7.93945 26.1816-8.35449Q26.1719-8.76953 25.8105-9.13086L25.0391-9.89258Q24.6875-10.2539 24.3799-10.3857Q24.0723-10.5176 23.7109-10.4883L23.1348-10.4395L22.4902-11.0742L22.7344-12.1973Q22.832-12.6172 22.6953-12.9834Q22.5586-13.3496 22.1191-13.7891L19.9219-15.9766Q18.6719-17.2168 17.2607-17.8369Q15.8496-18.457 14.4189-18.4814Q12.9883-18.5059 11.665-17.959Q10.3418-17.4121 9.25781-16.3281ZM10.752-15.957Q11.6602-16.6211 12.7002-16.9043Q13.7402-17.1875 14.8047-17.085Q15.8691-16.9824 16.8701-16.5137Q17.8711-16.0449 18.7012-15.2051L21.1328-12.793Q21.3086-12.6172 21.3525-12.4512Q21.3965-12.2852 21.3379-12.0312L21.0156-10.5469L22.5195-9.0625L23.5059-9.12109Q23.6914-9.13086 23.7891-9.09668Q23.8867-9.0625 24.0332-8.91602L24.6094-8.33984L22.168-5.89844L21.5918-6.47461Q21.4453-6.62109 21.4062-6.71875Q21.3672-6.81641 21.377-7.01172L21.4453-7.98828L19.9512-9.47266L18.4277-9.21875Q18.1836-9.16992 18.042-9.2041Q17.9004-9.23828 17.7148-9.41406L15.7129-11.416Q15.5176-11.5918 15.4932-11.7529Q15.4688-11.9141 15.5859-12.1875L16.4648-14.2773Q15.293-15.3711 13.8281-15.791Q12.3633-16.2109 10.8398-15.7617Q10.7227-15.7324 10.6885-15.8057Q10.6543-15.8789 10.752-15.957Z"/>
  </g>
  <text style="stroke:none;fill:black;font-family:sans-serif;font-size:13;font-weight:bold;" transform="matrix(1 0 0 1 1289 1953)">Exporting</text>
  <text style="stroke:none;fill:black;font-family:sans-serif;font-size:13;" transform="matrix(1 0 0 1 1289 1971)">Symbols should be outlined when exporting to ensure the</text>
  <text style="stroke:none;fill:black;font-family:sans-serif;font-size:13;" transform="matrix(1 0 0 1 1289 1989)">design is preserved when submitting to Xcode.</text>
  <text id="template-version" style="stroke:none;fill:black;font-family:sans-serif;font-size:13;text-anchor:end;" transform="matrix(1 0 0 1 3036 1933)">Template v.3.0</text>
  <text style="stroke:none;fill:black;font-family:sans-serif;font-size:13;text-anchor:end;" transform="matrix(1 0 0 1 3036 1951)">Requires Xcode 13 or greater</text>
  <text id="descriptive-name" style="stroke:none;fill:black;font-family:sans-serif;font-size:13;text-anchor:end;" transform="matrix(1 0 0 1 3036 1969)">Generated from questionmark.app</text>
  <text style="stroke:none;fill:black;font-family:sans-serif;font-size:13;text-anchor:end;" transform="matrix(1 0 0 1 3036 1987)">Typeset at 100 points</text>
  <text style="stroke:none;fill:black;font-family:sans-serif;font-size:13;" transform="matrix(1 0 0 1 263 726)">Small</text>
  <text style="stroke:none;fill:black;font-family:sans-serif;font-size:13;" transform="matrix(1 0 0 1 263 1156)">Medium</text>
  <text style="stroke:none;fill:black;font-family:sans-serif;font-size:13;" transform="matrix(1 0 0 1 263 1586)">Large</text>
 </g>
 <g id="Guides">
  <g id="H-reference" style="fill:#27AAE1;stroke:none;" transform="matrix(1 0 0 1 339 696)">
   <path d="M0.993347 0L3.6377 0L29.3282-67.1326L30.0301-67.1326L30.0301-70.459L28.1227-70.459ZM11.6882-24.4797L46.9818-24.4797L46.2311-26.7288L12.4382-26.7288ZM55.1193 0L57.7637 0L30.6381-70.459L29.4327-70.459L29.4327-67.1326Z"/>
  </g>
  <line id="Baseline-S" style="fill:none;stroke:#27AAE1;opacity:1;stroke-width:0.5;" x1="263" x2="3036" y1="696" y2="696"/>
  <line id="Capline-S" style="fill:none;stroke:#27AAE1;opacity:1;stroke-width:0.5;" x1="263" x2="3036" y1="625.541" y2="625.541"/>
  <g id="H-reference" style="fill:#27AAE1;stroke:none;" transform="matrix(1 0 0 1 339 1126)">
   <path d="M0.993347 0L3.6377 0L29.3282-67.1326L30.0301-67.1326L30.0301-70.459L28.1227-70.459ZM11.6882-24.4797L46.9818-24.4797L46.2311-26.7288L12.4382-26.7288ZM55.1193 0L57.7637 0L30.6381-70.459L29.4327-70.459L29.4327-67.1326Z"/>
  </g>
  <line id="Baseline-M" style="fill:none;stroke:#27AAE1;opacity:1;stroke-width:0.5;" x1="263" x2="3036" y1="1126" y2="1126"/>
  <line id="Capline-M" style="fill:none;stroke:#27AAE1;opacity:1;stroke-width:0.5;" x1="263" x2="3036" y1="1055.54" y2="1055.54"/>
  <g id="H-reference" style="fill:#27AAE1;stroke:none;" transform="matrix(1 0 0 1 339 1556)">
   <path d="M0.993347 0L3.6377 0L29.3282-67.1326L30.0301-67.1326L30.0301-70.459L28.1227-70.459ZM11.6882-24.4797L46.9818-24.4797L46.2311-26.7288L12.4382-26.7288ZM55.1193 0L57.7637 0L30.6381-70.459L29.4327-70.459L29.4327-67.1326Z"/>
  </g>
  <line id="Baseline-L" style="fill:none;stroke:#27AAE1;opacity:1;stroke-width:0.5;" x1="263" x2="3036" y1="1556" y2="1556"/>
  <line id="Capline-L" style="fill:none;stroke:#27AAE1;opacity:1;stroke-width:0.5;" x1="263" x2="3036" y1="1485.54" y2="1485.54"/>
  <line id="left-margin-Regular-M" style="fill:none;stroke:#00AEEF;stroke-width:0.5;opacity:1.0;" x1="1392.38" x2="1392.38" y1="1030.79" y2="1150.12"/>
  <line id="right-margin-Regular-M" style="fill:none;stroke:#00AEEF;stroke-width:0.5;opacity:1.0;" x1="1507.31" x2="1507.31" y1="1030.79" y2="1150.12"/>
 </g>
 <g id="Symbols">
  <g id="Black-L" transform="matrix(1 0 0 1 2856.24 1556)">
   <path d="M129.587-87.4505Q124.523-92.4341 117.562-94.3081Q110.602-96.1821 100.284-96.1821L54.0257-96.1821Q43.7188-96.1821 36.7298-94.3075Q29.7408-92.4329 24.7365-87.4493Q19.7529-82.4436 17.9184-75.5643Q16.084-68.6849 16.084-58.2599L16.084-12.1484Q16.084-1.6924 17.9178 5.19927Q19.7516 12.0909 24.7352 17.0745Q29.7992 22.0582 36.7596 23.9322Q43.7201 25.8062 54.0386 25.8062L100.284 25.8062Q110.602 25.8062 117.592 23.9322Q124.581 22.0582 129.587 17.0745Q134.571 12.0897 136.404 5.19863Q138.238-1.6924 138.238-12.1484L138.238-58.2275Q138.238-68.6836 136.404-75.6045Q134.571-82.5253 129.587-87.4505ZM118.258-59.9942L118.258-10.3818Q118.258-5.39314 117.503-2.43166Q116.749 0.529831 114.925 2.4126Q113.023 4.23695 110.03 5.03068Q107.038 5.8244 102.05 5.8244L52.2719 5.8244Q47.2846 5.8244 44.2816 5.03068Q41.2786 4.23695 39.3958 2.4126Q37.5728 0.529831 36.8186-2.43166Q36.0645-5.39314 36.0645-10.3818L36.0645-59.9619Q36.0645-65.0361 36.8186-67.9716Q37.5728-70.9071 39.3946-72.7899Q41.2773-74.6142 44.2835-75.4073Q47.2897-76.2004 52.3042-76.2004L102.05-76.2004Q107.038-76.2004 110.03-75.4067Q113.023-74.6129 114.925-72.7886Q116.749-70.9071 117.503-67.9742Q118.258-65.0413 118.258-59.9942ZM75.4109-24.2522Q78.7568-24.2522 81.0273-25.6667Q83.2979-27.0813 83.8235-29.2685Q83.882-29.4163 83.9112-29.631Q83.9404-29.8456 83.9988-29.9558Q84.5828-31.7556 86.4528-33.2704Q88.3227-34.7851 90.6517-36.2413Q95.6302-39.3206 97.9023-42.392Q100.174-45.4634 100.174-50.4542Q100.174-58.403 93.6256-63.2896Q87.0769-68.1763 77.4877-68.1763Q69.4548-68.1763 63.7829-65.2827Q58.111-62.3891 56.0338-57.7272Q55.1645-55.7995 55.1645-53.7848Q55.1645-51.0059 57.1248-48.954Q59.0851-46.902 62.2394-46.902Q64.3644-46.902 66.0276-47.6206Q67.6909-48.3392 68.8949-49.9103L69.4237-50.5713Q70.8777-52.5034 72.3707-53.2279Q73.8636-53.9524 75.5709-53.9524Q77.7901-53.9524 79.3032-52.569Q80.8162-51.1856 80.8162-49.3695Q80.8162-47.0275 78.9153-45.5161Q77.0145-44.0047 73.4505-41.5547Q70.2208-39.2732 68.2098-36.9466Q66.1988-34.6199 66.1988-31.4481Q66.1988-31.3574 66.1988-31.3173Q66.1988-31.2772 66.1988-31.1878Q66.1988-24.2522 75.4109-24.2522ZM75.4266-3.18581Q79.4926-3.18581 82.1261-5.36967Q84.7596-7.55353 84.7596-11.3846Q84.7596-15.178 82.1261-17.38Q79.4926-19.5821 75.4266-19.5821Q71.419-19.5821 68.6979-17.3989Q65.9768-15.2156 65.9768-11.3846Q65.9768-7.57426 68.6979-5.38003Q71.419-3.18581 75.4266-3.18581Z"/>
  </g>
  <g id="Heavy-L" transform="matrix(1 0 0 1 2560.32 1556)">
   <path d="M128.337-86.9488Q123.349-91.8559 116.488-93.604Q109.627-95.352 99.8108-95.352L52.8724-95.352Q43.1102-95.352 36.23-93.6009Q29.3497-91.8499 24.4128-86.9427Q19.5057-81.9998 17.7948-75.2223Q16.084-68.4448 16.084-58.5873L16.084-11.8633Q16.084-1.92777 17.7918 4.87367Q19.4996 11.6751 24.4068 16.5823Q29.3944 21.4894 36.2553 23.2375Q43.1163 24.9855 52.9327 24.9855L99.8108 24.9855Q109.627 24.9855 116.511 23.2375Q123.394 21.4894 128.337 16.5823Q133.244 11.6691 134.952 4.87065Q136.66-1.92777 136.66-11.8633L136.66-58.5032Q136.66-68.4387 134.952-75.2625Q133.244-82.0862 128.337-86.9488ZM119.162-60.2604L119.162-10.1061Q119.162-5.0943 118.363-1.73285Q117.564 1.62861 115.496 3.74141Q113.359 5.8096 109.967 6.6456Q106.574 7.4816 101.568 7.4816L51.1756 7.4816Q46.1698 7.4816 42.7621 6.6456Q39.3544 5.8096 37.2416 3.74141Q35.1795 1.62861 34.3807-1.73285Q33.5818-5.0943 33.5818-10.1061L33.5818-60.1763Q33.5818-65.2927 34.3807-68.6469Q35.1795-72.0011 37.2356-74.1139Q39.3484-76.1821 42.7712-77.0151Q46.194-77.8481 51.2597-77.8481L101.568-77.8481Q106.574-77.8481 109.967-77.0121Q113.359-76.1761 115.496-74.1079Q117.564-72.0011 118.363-68.659Q119.162-65.3168 119.162-60.2604ZM74.7462-23.7802Q77.8265-23.7802 79.8561-25.1539Q81.8857-26.5276 82.2873-28.6112Q82.3319-28.7785 82.3542-28.9963Q82.3765-29.214 82.4211-29.3664Q82.8674-31.3602 84.6705-32.9811Q86.4737-34.6021 89.0336-36.2384Q93.9304-39.3096 96.3382-42.4311Q98.7461-45.5527 98.7461-50.6691Q98.7461-58.53 92.3591-63.232Q85.9721-67.9341 76.7707-67.9341Q68.7444-67.9341 63.2191-64.9383Q57.6937-61.9426 55.8157-57.3434Q55.03-55.5188 55.03-53.6101Q55.03-51.0175 56.8321-49.2036Q58.6342-47.3897 61.3959-47.3897Q63.3902-47.3897 64.9052-48.0894Q66.4202-48.789 67.5211-50.2626L68.167-51.0967Q69.631-53.2522 71.3725-54.2154Q73.114-55.1786 75.2265-55.1786Q77.9733-55.1786 79.7548-53.5732Q81.5363-51.9679 81.5363-49.7226Q81.5363-47.1691 79.6152-45.5166Q77.6942-43.8641 73.9819-41.3167Q70.7047-38.9929 68.6514-36.5517Q66.598-34.1105 66.598-30.6192Q66.598-30.4905 66.598-30.4036Q66.598-30.3167 66.598-30.194Q66.598-23.7802 74.7462-23.7802ZM74.7252-3.30731Q78.4581-3.30731 80.9288-5.40922Q83.3996-7.51113 83.3996-11.0594Q83.3996-14.5929 80.9288-16.6992Q78.4581-18.8055 74.7252-18.8055Q71.037-18.8055 68.4993-16.7066Q65.9616-14.6078 65.9616-11.0594Q65.9616-7.5409 68.4993-5.42411Q71.037-3.30731 74.7252-3.30731Z"/>
  </g>
  <g id="Bold-L" transform="matrix(1 0 0 1 2264.64 1556)">
   <path d="M126.673-86.2838Q121.826-91.0508 115.133-92.6651Q108.439-94.2794 99.1208-94.2794L51.4095-94.2794Q42.2193-94.2794 35.5183-92.658Q28.8173-91.0366 24.0134-86.2696Q19.2464-81.4514 17.6652-74.8455Q16.084-68.2395 16.084-58.9766L16.084-11.5385Q16.084-2.12487 17.6581 4.52095Q19.2322 11.1668 23.9992 15.9337Q28.8465 20.7007 35.54 22.315Q42.2336 23.9293 51.5518 23.9293L99.1208 23.9293Q108.439 23.9293 115.147 22.315Q121.855 20.7007 126.673 15.9337Q131.44 11.1525 133.015 4.51383Q134.589-2.12487 134.589-11.5385L134.589-58.8116Q134.589-68.2252 133.015-74.8857Q131.44-81.5461 126.673-86.2838ZM120.153-60.5524L120.153-9.79771Q120.153-4.67078 119.285-0.857589Q118.418 2.9556 116.071 5.3315Q113.673 7.67819 109.823 8.57876Q105.974 9.47932 100.862 9.47932L49.811 9.47932Q44.6983 9.47932 40.8307 8.57876Q36.963 7.67819 34.5871 5.3315Q32.2547 2.9556 31.3872-0.857589Q30.5198-4.67078 30.5198-9.79771L30.5198-60.3874Q30.5198-65.6516 31.3872-69.4858Q32.2547-73.3199 34.5729-75.6958Q36.9488-78.0425 40.852-78.936Q44.7552-79.8294 49.976-79.8294L100.862-79.8294Q105.974-79.8294 109.823-78.9289Q113.673-78.0283 116.071-75.6816Q118.418-73.3199 119.285-69.5142Q120.153-65.7085 120.153-60.5524ZM73.8586-23.2752Q76.5727-23.2752 78.2954-24.5701Q80.0181-25.8651 80.2809-27.7868Q80.3101-27.996 80.3247-28.2316Q80.3393-28.4671 80.3685-28.6841Q80.6606-30.9121 82.3862-32.6619Q84.1117-34.4117 86.9531-36.2668Q91.7756-39.3491 94.2965-42.5195Q96.8173-45.69 96.8173-50.8893Q96.8173-58.5571 90.6717-63.0367Q84.5261-67.5163 75.7931-67.5163Q67.8116-67.5163 62.4848-64.3862Q57.1579-61.256 55.5314-56.6983Q54.8566-55.0264 54.8566-53.242Q54.8566-50.9038 56.4443-49.3836Q58.0319-47.8634 60.3171-47.8634Q62.1278-47.8634 63.454-48.5303Q64.7801-49.1972 65.7282-50.5446L66.4589-51.5434Q67.8651-54.0005 69.935-55.3128Q72.0048-56.6251 74.6744-56.6251Q78.0803-56.6251 80.1996-54.7456Q82.3188-52.8661 82.3188-50.1062Q82.3188-47.3132 80.3838-45.4841Q78.4488-43.655 74.5476-40.9813Q71.1885-38.593 69.1123-36.0294Q67.0361-33.4658 67.0361-29.6574Q67.0361-29.4632 67.0361-29.3081Q67.0361-29.1531 67.0361-28.9731Q67.0361-23.2752 73.8586-23.2752ZM73.7996-3.56699Q77.1167-3.56699 79.3694-5.54845Q81.6221-7.52991 81.6221-10.7159Q81.6221-13.9096 79.3694-15.8801Q77.1167-17.8505 73.7996-17.8505Q70.5118-17.8505 68.2153-15.8762Q65.9187-13.9018 65.9187-10.7159Q65.9187-7.5669 68.2153-5.56695Q70.5118-3.56699 73.7996-3.56699Z"/>
  </g>
  <g id="Semibold-L" transform="matrix(1 0 0 1 1968.64 1556)">
   <path d="M125.527-85.8254Q120.776-90.4957 114.198-92.0179Q107.62-93.54 98.6452-93.54L50.4011-93.54Q41.6052-93.54 35.0277-92.0079Q28.4503-90.4759 23.738-85.8056Q19.0677-81.0734 17.5758-74.5857Q16.084-68.0979 16.084-59.245L16.084-11.3146Q16.084-2.26075 17.5659 4.27778Q19.0478 10.8163 23.7181 15.4866Q28.4689 20.1569 35.0469 21.6791Q41.625 23.2012 50.5998 23.2012L98.6452 23.2012Q107.62 23.2012 114.207 21.6791Q120.795 20.1569 125.527 15.4866Q130.197 10.7964 131.679 4.26785Q133.161-2.26075 133.161-11.3146L133.161-59.0242Q133.161-68.0781 131.679-74.6259Q130.197-81.1737 125.527-85.8254ZM120.836-60.7537L120.836-9.58511Q120.836-4.37881 119.921-0.254191Q119.007 3.87042 116.468 6.42769Q113.889 8.96639 109.725 9.91146Q105.561 10.8565 100.375 10.8565L48.8703 10.8565Q43.6838 10.8565 39.4992 9.91146Q35.3145 8.96639 32.7572 6.42769Q30.2384 3.87042 29.3236-0.254191Q28.4088-4.37881 28.4088-9.58511L28.4088-60.5329Q28.4088-65.8991 29.3236-70.0641Q30.2384-74.2291 32.7373-76.7864Q35.2946-79.3251 39.529-80.2602Q43.7633-81.1954 49.0911-81.1954L100.375-81.1954Q105.561-81.1954 109.725-80.2503Q113.889-79.3052 116.468-76.7665Q119.007-74.2291 119.921-70.1039Q120.836-65.9786 120.836-60.7537ZM73.2468-22.927Q75.7084-22.927 77.2195-24.1677Q78.7306-25.4083 78.8978-27.2185Q78.9163-27.4566 78.9256-27.7044Q78.9349-27.9523 78.9535-28.2138Q79.1392-30.6031 80.8113-32.4418Q82.4834-34.2805 85.5188-36.2864Q90.2901-39.3763 92.8889-42.5805Q95.4877-45.7846 95.4877-51.0411Q95.4877-58.5757 89.5084-62.902Q83.5292-67.2284 75.1191-67.2284Q67.1685-67.2284 61.9785-64.0055Q56.7886-60.7827 55.3354-56.2536Q54.737-54.6869 54.737-52.9883Q54.737-50.8255 56.1769-49.5077Q57.6167-48.19 59.5734-48.19Q61.2575-48.19 62.4535-48.8343Q63.6494-49.4786 64.4922-50.7389L65.2813-51.8514Q66.6477-54.5164 68.944-56.0694Q71.2402-57.6223 74.2937-57.6223Q78.154-57.6223 80.5062-55.5538Q82.8583-53.4852 82.8583-50.3706Q82.8583-47.4125 80.9136-45.4617Q78.969-43.5108 74.9376-40.7502Q71.5221-38.3173 69.43-35.6693Q67.338-33.0213 67.338-28.9944Q67.338-28.755 67.338-28.5529Q67.338-28.3508 67.338-28.1313Q67.338-22.927 73.2468-22.927ZM73.1615-3.74602Q76.1919-3.74602 78.2943-5.64443Q80.3968-7.54285 80.3968-10.479Q80.3968-13.4386 78.2943-15.3154Q76.1919-17.1922 73.1615-17.1922Q70.1498-17.1922 68.0195-15.3037Q65.8892-13.4152 65.8892-10.479Q65.8892-7.58482 68.0195-5.66542Q70.1498-3.74602 73.1615-3.74602Z"/>
  </g>
  <g id="Medium-L" transform="matrix(1 0 0 1 1672.47 1556)">
   <path d="M124.657-85.4779Q119.98-90.0749 113.489-91.5271Q106.999-92.9793 98.2845-92.9793L49.6364-92.9793Q41.1395-92.9793 34.6557-91.515Q28.172-90.0507 23.5292-85.4537Q18.9322-80.7868 17.5081-74.3887Q16.084-67.9906 16.084-59.4486L16.084-11.1448Q16.084-2.36378 17.496 4.09341Q18.908 10.5506 23.5051 15.1476Q28.1825 19.7446 34.6731 21.1969Q41.1636 22.6491 49.8779 22.6491L98.2845 22.6491Q106.999 22.6491 113.495 21.1969Q119.99 19.7446 124.657 15.1476Q129.254 10.5264 130.666 4.08133Q132.078-2.36378 132.078-11.1448L132.078-59.1854Q132.078-67.9665 130.666-74.4289Q129.254-80.8914 124.657-85.4779ZM121.354-60.9063L121.354-9.42391Q121.354-4.15742 120.404 0.203331Q119.453 4.56408 116.769 7.25888Q114.052 9.94316 109.65 10.922Q105.248 11.9008 100.005 11.9008L48.157 11.9008Q42.9147 11.9008 38.4895 10.922Q34.0644 9.94316 31.3696 7.25888Q28.7095 4.56408 27.7588 0.203331Q26.8081-4.15742 26.8081-9.42391L26.8081-60.6432Q26.8081-66.0867 27.7588-70.5026Q28.7095-74.9185 31.3455-77.6133Q34.0403-80.2976 38.5258-81.2643Q43.0113-82.2311 48.4201-82.2311L100.005-82.2311Q105.248-82.2311 109.65-81.2522Q114.052-80.2734 116.769-77.5891Q119.453-74.9185 120.404-70.5509Q121.354-66.1833 121.354-60.9063ZM72.7829-22.6631Q75.0531-22.6631 76.4037-23.8625Q77.7544-25.062 77.849-26.7875Q77.8595-27.0475 77.8648-27.3047Q77.87-27.5619 77.8805-27.8571Q77.9857-30.3689 79.6172-32.275Q81.2488-34.181 84.4312-36.3012Q89.1637-39.397 91.8216-42.6267Q94.4795-45.8564 94.4795-51.1562Q94.4795-58.5898 88.6264-62.7999Q82.7734-67.01 74.6081-67.01Q66.6809-67.01 61.5947-63.7169Q56.5085-60.4238 55.1868-55.9163Q54.6463-54.4296 54.6463-52.7959Q54.6463-50.7661 55.9741-49.6018Q57.3019-48.4376 59.0094-48.4376Q60.5977-48.4376 61.6948-49.0648Q62.792-49.6919 63.555-50.8863L64.3885-52.0849Q65.7247-54.9076 68.1925-56.643Q70.6604-58.3784 74.0051-58.3784Q78.21-58.3784 80.7387-56.1666Q83.2674-53.9547 83.2674-50.5711Q83.2674-47.4879 81.3154-45.4447Q79.3634-43.4015 75.2333-40.5749Q71.775-38.1083 69.671-35.3963Q67.567-32.6843 67.567-28.4916Q67.567-28.218 67.567-27.9803Q67.567-27.7426 67.567-27.4931Q67.567-22.6631 72.7829-22.6631ZM72.6777-3.88176Q75.4907-3.88176 77.4792-5.71721Q79.4676-7.55266 79.4676-10.2994Q79.4676-13.0814 77.4792-14.8872Q75.4907-16.6929 72.6777-16.6929Q69.8752-16.6929 67.871-14.8696Q65.8668-13.0462 65.8668-10.2994Q65.8668-7.59841 67.871-5.74008Q69.8752-3.88176 72.6777-3.88176Z"/>
  </g>
  <g id="Regular-L" transform="matrix(1 0 0 1 1376.47 1556)">
   <path d="M123.523-85.0245Q118.941-89.5259 112.565-90.887Q106.189-92.2481 97.8141-92.2481L48.639-92.2481Q40.5321-92.2481 34.1705-90.8721Q27.809-89.4962 23.2569-84.9948Q18.7554-80.4129 17.4197-74.1318Q16.084-67.8507 16.084-59.714L16.084-10.9234Q16.084-2.49817 17.4048 3.85291Q18.7257 10.204 23.2271 14.7054Q27.809 19.2068 34.1854 20.5679Q40.5618 21.929 48.9364 21.929L97.8141 21.929Q106.189 21.929 112.565 20.5679Q118.941 19.2068 123.523 14.7054Q128.025 10.1743 129.346 3.83805Q130.666-2.49817 130.666-10.9234L130.666-59.3957Q130.666-67.8209 129.346-74.172Q128.025-80.5231 123.523-85.0245ZM122.03-61.1054L122.03-9.21365Q122.03-3.86866 121.033 0.800098Q120.035 5.46885 117.161 8.34303Q114.266 11.2172 109.552 12.24Q104.839 13.2629 99.5238 13.2629L47.2266 13.2629Q41.9113 13.2629 37.1726 12.24Q32.4339 11.2172 29.5598 8.34303Q26.7153 5.46885 25.7178 0.800098Q24.7203-3.86866 24.7203-9.21365L24.7203-60.7871Q24.7203-66.3315 25.7178-71.0746Q26.7153-75.8177 29.53-78.6919Q32.4042-81.566 37.2173-82.574Q42.0303-83.582 47.5449-83.582L99.5238-83.582Q104.839-83.582 109.552-82.5591Q114.266-81.5363 117.161-78.6621Q120.035-75.8177 121.033-71.1341Q122.03-66.4504 122.03-61.1054ZM72.1777-22.3187Q74.1983-22.3187 75.3396-23.4645Q76.481-24.6103 76.481-26.2254Q76.481-26.514 76.481-26.7833Q76.481-27.0526 76.481-27.3919Q76.481-30.0633 78.0597-32.0573Q79.6383-34.0513 83.0126-36.3206Q87.6946-39.4239 90.4295-42.687Q93.1644-45.9501 93.1644-51.3064Q93.1644-58.6082 87.4759-62.6667Q81.7875-66.7252 73.9415-66.7252Q66.0449-66.7252 61.094-63.3404Q56.1432-59.9557 54.993-55.4765Q54.5281-54.0938 54.5281-52.5449Q54.5281-50.6885 55.7096-49.7246Q56.8912-48.7606 58.2739-48.7606Q59.7369-48.7606 60.7053-49.3654Q61.6737-49.9702 62.3326-51.0785L63.2239-52.3895Q64.5207-55.4178 67.2124-57.3913Q69.9042-59.3647 73.6286-59.3647Q78.2829-59.3647 81.0419-56.9659Q83.8009-54.5671 83.8009-50.8326Q83.8009-47.5861 81.8394-45.4225Q79.8779-43.2589 75.619-40.3462Q72.1048-37.8356 69.9852-35.0402Q67.8656-32.2447 67.8656-27.8359Q67.8656-27.5176 67.8656-27.2334Q67.8656-26.9492 67.8656-26.6606Q67.8656-22.3187 72.1777-22.3187ZM72.0466-4.05881Q74.5761-4.05881 76.4159-5.81214Q78.2557-7.56546 78.2557-10.0652Q78.2557-12.6156 76.4159-14.3287Q74.5761-16.0418 72.0466-16.0418Q69.5172-16.0418 67.6773-14.3033Q65.8375-12.5649 65.8375-10.0652Q65.8375-7.61614 67.6773-5.83748Q69.5172-4.05881 72.0466-4.05881Z"/>
  </g>
  <g id="Light-L" transform="matrix(1 0 0 1 1080.85 1556)">
   <path d="M121.635-84.2857Q117.443-88.3972 111.467-89.8096Q105.491-91.222 96.6649-91.222L47.4077-91.222Q39.034-91.222 33.0828-89.7845Q27.1317-88.347 22.9901-84.2355Q18.8786-80.0435 17.4813-74.1728Q16.084-68.3021 16.084-59.8782L16.084-10.8824Q16.084-2.02616 17.4561 3.935Q18.8283 9.89616 22.9398 14.0077Q27.1317 18.1192 33.108 19.5315Q39.0842 20.9439 47.9103 20.9439L96.6649 20.9439Q105.491 20.9439 111.467 19.5315Q117.443 18.1192 121.635 14.0077Q125.747 9.8459 127.119 3.90987Q128.491-2.02616 128.491-10.8824L128.491-59.3957Q128.491-68.2519 127.119-74.213Q125.747-80.1742 121.635-84.2857ZM121.886-61.0644L121.886-9.21365Q121.886-3.23247 120.756 1.46706Q119.625 6.1666 116.709 9.08182Q113.814 11.997 109.039 13.143Q104.264 14.289 98.3336 14.289L46.2415 14.289Q40.3106 14.289 35.5206 13.143Q30.7306 11.997 27.8154 9.08182Q24.9504 6.1666 23.8196 1.46706Q22.6887-3.23247 22.6887-9.21365L22.6887-60.5819Q22.6887-66.8445 23.8196-71.6697Q24.9504-76.4949 27.7651-79.4101Q30.6804-82.3253 35.596-83.4462Q40.5117-84.567 46.7241-84.567L98.3336-84.567Q104.264-84.567 109.039-83.4211Q113.814-82.2751 116.709-79.3599Q119.625-76.4949 120.756-71.7702Q121.886-67.0456 121.886-61.0644ZM71.1516-22.4829Q72.6796-22.4829 73.5542-23.3927Q74.4288-24.3025 74.4288-25.5892Q74.4288-26.0215 74.4288-26.3934Q74.4288-26.7653 74.4288-27.2277Q74.4288-30.0223 75.987-32.0881Q77.5451-34.1539 81.0836-36.5463Q85.8886-39.7933 88.3465-43.0051Q90.8044-46.2168 90.8044-51.1627Q90.8044-57.7874 85.5469-61.733Q80.2894-65.6786 72.6897-65.6786Q65.0598-65.6786 60.3552-62.1502Q55.6506-58.6218 54.7057-53.9373Q54.3639-52.8215 54.3639-51.3136Q54.3639-49.7856 55.2787-49.0165Q56.1935-48.2475 57.3093-48.2475Q58.5056-48.2475 59.3098-48.7703Q60.114-49.293 60.5061-50.2781L61.0691-51.3839Q61.8733-54.7816 64.9242-57.3399Q67.9751-59.8983 72.4384-59.8983Q77.5852-59.8983 80.611-57.3148Q83.6367-54.7313 83.6367-50.7505Q83.6367-47.4835 81.7368-45.1865Q79.8369-42.8895 75.4138-39.8537Q71.6944-37.2199 69.7492-34.4656Q67.8041-31.7112 67.8041-27.5896Q67.8041-27.1071 67.8041-26.7101Q67.8041-26.313 67.8041-25.8807Q67.8041-22.4829 71.1516-22.4829ZM71.041-4.94126Q73.2627-4.94126 74.846-6.48936Q76.4293-8.03746 76.4293-10.2088Q76.4293-12.4104 74.846-13.9183Q73.2627-15.4261 71.041-15.4261Q68.8194-15.4261 67.2361-13.9032Q65.6528-12.3802 65.6528-10.2088Q65.6528-8.06762 67.2361-6.50444Q68.8194-4.94126 71.041-4.94126Z"/>
  </g>
  <g id="Thin-L" transform="matrix(1 0 0 1 785.574 1556)">
   <path d="M119.138-83.3086Q115.462-86.9044 110.015-88.3846Q104.568-89.8649 95.1449-89.8649L45.7791-89.8649Q37.0526-89.8649 31.6443-88.3459Q26.236-86.827 22.6372-83.2312Q19.0414-79.555 17.5627-74.2271Q16.084-68.8993 16.084-60.0953L16.084-10.8281Q16.084-1.4019 17.524 4.04357Q18.964 9.48904 22.5598 13.0848Q26.236 16.6807 31.683 18.1609Q37.13 19.6411 46.5532 19.6411L95.1449 19.6411Q104.568 19.6411 110.015 18.1609Q115.462 16.6807 119.138 13.0848Q122.734 9.41163 124.174 4.00487Q125.614-1.4019 125.614-10.8281L125.614-59.3957Q125.614-68.8219 124.174-74.2673Q122.734-79.7128 119.138-83.3086ZM121.696-61.0101L121.696-9.21365Q121.696-2.39107 120.389 2.34918Q119.082 7.08942 116.112 10.0589Q113.217 13.0284 108.361 14.3373Q103.505 15.6461 96.7593 15.6461L44.9387 15.6461Q38.1936 15.6461 33.3357 14.3373Q28.4778 13.0284 25.5083 10.0589Q22.6162 7.08942 21.3089 2.34918Q20.0016-2.39107 20.0016-9.21365L20.0016-60.3105Q20.0016-67.5231 21.3089-72.4568Q22.6162-77.3906 25.4309-80.3601Q28.4004-83.3296 33.4518-84.5997Q38.5032-85.8698 45.6384-85.8698L96.7593-85.8698Q103.505-85.8698 108.361-84.561Q113.217-83.2522 116.112-80.2827Q119.082-77.3906 120.389-72.6116Q121.696-67.8327 121.696-61.0101ZM69.7945-22.7001Q70.6711-22.7001 71.1929-23.2977Q71.7146-23.8953 71.7146-24.7478Q71.7146-25.37 71.7146-25.8777Q71.7146-26.3853 71.7146-27.0106Q71.7146-29.968 73.2456-32.1288Q74.7766-34.2896 78.5322-36.8449Q83.5002-40.2818 85.5916-43.4258Q87.683-46.5697 87.683-50.9727Q87.683-56.7017 82.9955-60.498Q78.308-64.2943 71.034-64.2943Q63.757-64.2943 59.3781-60.5759Q54.9992-56.8575 54.3257-51.9017Q54.1467-51.1387 54.1467-49.6851Q54.1467-48.5913 54.7087-48.0802Q55.2707-47.569 56.0337-47.569Q56.8771-47.569 57.4642-47.9831Q58.0512-48.3973 58.0905-49.2196L58.2192-50.054Q58.372-53.9402 61.8979-57.2721Q65.4238-60.6039 70.8641-60.6039Q76.6624-60.6039 80.041-57.7762Q83.4196-54.9484 83.4196-50.642Q83.4196-47.3478 81.6011-44.8744Q79.7826-42.401 75.1424-39.2023Q71.1516-36.4057 69.4371-33.7056Q67.7226-31.0055 67.7226-27.2639Q67.7226-26.5643 67.7226-26.0179Q67.7226-25.4716 67.7226-24.8494Q67.7226-22.7001 69.7945-22.7001ZM69.7111-6.10836Q71.5256-6.10836 72.7696-7.38504Q74.0136-8.66173 74.0136-10.3988Q74.0136-12.1389 72.7696-13.3754Q71.5256-14.6119 69.7111-14.6119Q67.8966-14.6119 66.6526-13.3739Q65.4086-12.1359 65.4086-10.3988Q65.4086-8.66474 66.6526-7.38655Q67.8966-6.10836 69.7111-6.10836Z"/>
  </g>
  <g id="Ultralight-L" transform="matrix(1 0 0 1 489.6 1556)">
   <path d="M117.859-82.8081Q114.447-86.1398 109.271-87.6548Q104.095-89.1698 94.3664-89.1698L44.945-89.1698Q36.0378-89.1698 30.9075-87.6091Q25.7773-86.0485 22.4565-82.7168Q19.1248-79.3047 17.6044-74.2549Q16.084-69.2051 16.084-60.2065L16.084-10.8003Q16.084-1.08215 17.5588 4.09918Q19.0335 9.28051 22.3652 12.6122Q25.7773 15.9438 30.9532 17.4588Q36.1291 18.9738 45.8581 18.9738L94.3664 18.9738Q104.095 18.9738 109.271 17.4588Q114.447 15.9438 117.859 12.6122Q121.191 9.1892 122.666 4.05353Q124.14-1.08215 124.14-10.8003L124.14-59.3957Q124.14-69.1138 122.666-74.2951Q121.191-79.4765 117.859-82.8081ZM121.599-60.9823L121.599-9.21365Q121.599-1.96011 120.201 2.80099Q118.804 7.56209 115.806 10.5594Q112.911 13.5567 108.013 14.9489Q103.115 16.3412 95.953 16.3412L44.2714 16.3412Q37.1092 16.3412 32.2166 14.9489Q27.324 13.5567 24.3267 10.5594Q21.4207 7.56209 20.023 2.80099Q18.6253-1.96011 18.6253-9.21365L18.6253-60.1715Q18.6253-67.8706 20.023-72.86Q21.4207-77.8494 24.2354-80.8467Q27.2327-83.844 32.3535-85.1905Q37.4744-86.5371 45.0823-86.5371L95.953-86.5371Q103.115-86.5371 108.013-85.1449Q112.911-83.7527 115.806-80.7554Q118.804-77.8494 120.201-73.0426Q121.599-68.2358 121.599-60.9823ZM69.0994-22.8113Q69.6424-22.8113 69.9834-23.249Q70.3244-23.6868 70.3244-24.3169Q70.3244-25.0364 70.3244-25.6136Q70.3244-26.1907 70.3244-26.8994Q70.3244-29.9402 71.8415-32.1497Q73.3586-34.3591 77.2254-36.9978Q82.2768-40.5321 84.1805-43.6412Q86.0843-46.7504 86.0843-50.8754Q86.0843-56.1456 81.6887-59.8655Q77.2932-63.5853 70.186-63.5853Q63.0897-63.5853 58.8776-59.7696Q54.6656-55.9539 54.1311-50.859Q54.0355-50.2767 54.0355-48.851Q54.0355-47.9796 54.4168-47.6005Q54.798-47.2214 55.3803-47.2214Q56.043-47.2214 56.5188-47.58Q56.9947-47.9385 56.8532-48.6774L56.7595-49.3728Q56.5787-53.5093 60.3478-57.2373Q64.117-60.9654 70.0578-60.9654Q76.1897-60.9654 79.749-58.0125Q83.3084-55.0597 83.3084-50.5864Q83.3084-47.2783 81.5316-44.7145Q79.7548-42.1507 75.0034-38.8686Q70.8735-35.9886 69.2772-33.3163Q67.6809-30.644 67.6809-27.0971Q67.6809-26.2862 67.6809-25.6634Q67.6809-25.0406 67.6809-24.3211Q67.6809-22.8113 69.0994-22.8113ZM69.0299-6.70615Q70.6359-6.70615 71.7061-7.84381Q72.7763-8.98147 72.7763-10.4961Q72.7763-11.9999 71.7061-13.0974Q70.6359-14.1948 69.0299-14.1948Q67.4239-14.1948 66.3537-13.1028Q65.2834-12.0108 65.2834-10.4961Q65.2834-8.97059 66.3537-7.83837Q67.4239-6.70615 69.0299-6.70615Z"/>
  </g>
  <g id="Black-M" transform="matrix(1 0 0 1 2873.09 1126)">
   <path d="M101.215-76.0185Q97.2789-79.8924 91.855-81.4594Q86.4312-83.0265 77.9444-83.0265L42.6804-83.0265Q34.1908-83.0265 28.7383-81.4596Q23.2858-79.8927 19.4064-76.0188Q15.5325-72.1397 13.9967-66.778Q12.4609-61.4163 12.4609-52.8129L12.4609-17.5872Q12.4609-8.98067 13.9969-3.61668Q15.5328 1.74731 19.4067 5.62119Q23.3429 9.49507 28.7667 11.0621Q34.1905 12.6292 42.6773 12.6292L77.9444 12.6292Q86.4312 12.6292 91.8836 11.0621Q97.336 9.49507 101.215 5.62119Q105.089 1.74761 106.625-3.61653Q108.161-8.98067 108.161-17.5872L108.161-52.8101Q108.161-61.4166 106.625-66.8092Q105.089-72.2017 101.215-76.0185ZM90.8227-54.1814L90.8227-16.2159Q90.8227-12.2847 90.2587-10.3298Q89.6948-8.37503 88.4853-7.10852Q87.213-5.8991 85.2301-5.30382Q83.2472-4.70855 79.3157-4.70855L41.306-4.70855Q37.3745-4.70855 35.3889-5.30382Q33.4032-5.8991 32.1367-7.10852Q30.927-8.37503 30.363-10.3298Q29.799-12.2847 29.799-16.2159L29.799-54.1787Q29.799-58.1709 30.363-60.0964Q30.927-62.022 32.137-63.2885Q33.4035-64.4979 35.3884-65.0933Q37.3733-65.6887 41.3088-65.6887L79.3157-65.6887Q83.2472-65.6887 85.2301-65.0935Q87.213-64.4982 88.4853-63.2888Q89.6948-62.022 90.2587-60.0958Q90.8227-58.1697 90.8227-54.1814ZM58.8563-27.1528Q61.61-27.1528 63.54-28.2518Q65.47-29.3509 65.9839-31.0899Q66.041-31.2071 66.0695-31.3847Q66.0981-31.5623 66.1552-31.628Q66.7261-32.8725 68.2295-33.9644Q69.7328-35.0564 71.3609-36.0464Q75.3049-38.4586 76.911-40.788Q78.5171-43.1175 78.5171-46.8206Q78.5171-52.9625 73.3629-56.8918Q68.2086-60.8211 60.4796-60.8211Q54.2866-60.8211 49.7997-58.6477Q45.3128-56.4742 43.5603-52.7807Q42.8316-51.2347 42.8316-49.5883Q42.8316-47.3199 44.4502-45.5519Q46.0687-43.7839 48.8137-43.7839Q50.5362-43.7839 51.9299-44.3459Q53.3237-44.9079 54.3089-46.192L54.5736-46.5276Q55.6247-47.8826 56.6164-48.318Q57.6082-48.7534 58.6826-48.7534Q60.0154-48.7534 60.9929-47.8473Q61.9705-46.9412 61.9705-45.8697Q61.9705-44.2342 60.5236-43.1665Q59.0767-42.0988 56.4206-40.2678Q53.9315-38.5198 52.4335-36.8213Q50.9355-35.1227 50.9355-32.9789Q50.9355-32.919 50.9355-32.9129Q50.9355-32.9067 50.9355-32.8466Q50.9355-27.1528 58.8563-27.1528ZM58.9027-10.419Q62.2973-10.419 64.4428-12.1536Q66.5882-13.8881 66.5882-17.0547Q66.5882-20.1697 64.4428-21.9302Q62.2973-23.6907 58.9027-23.6907Q55.5651-23.6907 53.3341-21.956Q51.103-20.2213 51.103-17.0547Q51.103-13.8937 53.3341-12.1564Q55.5651-10.419 58.9027-10.419Z"/>
  </g>
  <g id="Heavy-M" transform="matrix(1 0 0 1 2577.05 1126)">
   <path d="M100.167-75.5961Q96.2697-79.4312 90.9062-80.8704Q85.5427-82.3096 77.5883-82.3096L41.6665-82.3096Q33.7341-82.3096 28.35-80.8692Q22.966-79.4288 19.1146-75.5937Q15.2795-71.7399 13.8702-66.4399Q12.4609-61.1399 12.4609-53.1179L12.4609-17.3122Q12.4609-9.2543 13.869-3.94255Q15.277 1.3692 19.1122 5.20432Q23.0096 9.03944 28.3731 10.4786Q33.7366 11.9178 41.691 11.9178L77.5883 11.9178Q85.5427 11.9178 90.928 10.4786Q96.3133 9.03944 100.167 5.20432Q104.002 1.36675 105.41-3.94377Q106.818-9.2543 106.818-17.3122L106.818-53.0796Q106.818-61.1375 105.41-66.471Q104.002-71.8046 100.167-75.5961ZM91.7197-54.4454L91.7197-15.9464Q91.7197-12.0512 91.1244-9.70824Q90.5291-7.36527 89.0851-5.87766Q87.5837-4.43368 85.2153-3.80843Q82.8468-3.18318 78.9541-3.18318L40.3251-3.18318Q36.4324-3.18318 34.0559-3.80843Q31.6793-4.43368 30.1917-5.87766Q28.7502-7.36527 28.1548-9.70824Q27.5595-12.0512 27.5595-15.9464L27.5595-54.4072Q27.5595-58.3744 28.1548-60.7017Q28.7502-63.029 30.1892-64.5166Q31.6769-65.9606 34.0595-66.5846Q36.4422-67.2086 40.3634-67.2086L78.9541-67.2086Q82.8468-67.2086 85.2153-66.5834Q87.5837-65.9581 89.0851-64.5141Q90.5291-63.029 91.1244-60.7066Q91.7197-58.3842 91.7197-54.4454ZM58.3011-26.6762Q60.8406-26.6762 62.5597-27.7571Q64.2788-28.838 64.6714-30.5061Q64.715-30.6291 64.7368-30.8002Q64.7586-30.9713 64.8023-31.067Q65.2385-32.4897 66.6784-33.6788Q68.1184-34.868 69.9571-36.0228Q73.8098-38.4137 75.5742-40.797Q77.3385-43.1802 77.3385-47.0439Q77.3385-53.1625 72.3027-56.9217Q67.2668-60.6809 59.8941-60.6809Q53.683-60.6809 49.3167-58.4208Q44.9504-56.1608 43.3735-52.5475Q42.7153-51.0777 42.7153-49.5312Q42.7153-47.4145 44.2038-45.8613Q45.6923-44.3081 48.0781-44.3081Q49.6975-44.3081 50.9615-44.8591Q52.2254-45.41 53.1345-46.6103L53.5438-47.134Q54.6502-48.6733 55.8517-49.2881Q57.0533-49.9028 58.4558-49.9028Q60.2588-49.9028 61.4742-48.7968Q62.6897-47.6908 62.6897-46.2225Q62.6897-44.3822 61.2173-43.1888Q59.7449-41.9954 56.9591-40.0805Q54.4424-38.3026 52.887-36.4883Q51.3315-34.6739 51.3315-32.1913Q51.3315-32.1094 51.3315-32.068Q51.3315-32.0265 51.3315-31.9471Q51.3315-26.6762 58.3011-26.6762ZM58.3098-10.4564Q61.4072-10.4564 63.4172-12.1298Q65.4272-13.8032 65.4272-16.7236Q65.4272-19.6167 63.4172-21.3026Q61.4072-22.9884 58.3098-22.9884Q55.256-22.9884 53.1806-21.3163Q51.1052-19.6441 51.1052-16.7236Q51.1052-13.8194 53.1806-12.1379Q55.256-10.4564 58.3098-10.4564Z"/>
  </g>
  <g id="Bold-M" transform="matrix(1 0 0 1 2281.09 1126)">
   <path d="M98.9948-75.1236Q95.1408-78.9154 89.8448-80.2115Q84.5488-81.5077 77.19-81.5077L40.5323-81.5077Q33.2232-81.5077 27.9157-80.2088Q22.6082-78.9099 18.7882-75.1181Q14.9965-71.2926 13.7287-66.0617Q12.4609-60.8308 12.4609-53.459L12.4609-17.0046Q12.4609-9.5604 13.7259-4.30708Q14.9909 0.94623 18.7827 4.73799Q22.6368 8.52975 27.9328 9.8259Q33.2287 11.1221 40.5876 11.1221L77.19 11.1221Q84.5488 11.1221 89.859 9.8259Q95.1693 8.52975 98.9948 4.73799Q102.787 0.940709 104.052-4.30985Q105.317-9.5604 105.317-17.0046L105.317-53.3811Q105.317-60.8252 104.052-66.0928Q102.787-71.3604 98.9948-75.1236ZM92.7232-54.7407L92.7232-15.6449Q92.7232-11.7901 92.0928-9.01289Q91.4624-6.23571 89.7561-4.50078Q87.9984-2.79439 85.1987-2.13562Q82.3989-1.47684 78.5496-1.47684L39.2279-1.47684Q35.3786-1.47684 32.5647-2.13562Q29.7509-2.79439 28.0159-4.50078Q26.3151-6.23571 25.6847-9.01289Q25.0543-11.7901 25.0543-15.6449L25.0543-54.6628Q25.0543-58.602 25.6847-61.3787Q26.3151-64.1554 28.0104-65.8904Q29.7454-67.5968 32.573-68.2528Q35.4007-68.9088 39.3058-68.9088L78.5496-68.9088Q82.3989-68.9088 85.1987-68.25Q87.9984-67.5912 89.7561-65.8849Q91.4624-64.1554 92.0928-61.3898Q92.7232-58.6241 92.7232-54.7407ZM57.6801-26.1431Q59.98-26.1431 61.4631-27.2037Q62.9463-28.2643 63.2032-29.853Q63.2317-29.9825 63.246-30.1464Q63.2603-30.3103 63.2888-30.4395Q63.5743-32.0615 64.9434-33.3594Q66.3124-34.6573 68.3868-35.9963Q72.1373-38.3636 74.0788-40.8069Q76.0202-43.2503 76.0202-47.2937Q76.0202-53.3861 71.1167-56.9551Q66.2132-60.524 59.2393-60.524Q53.0078-60.524 48.7764-58.1671Q44.545-55.8101 43.1647-52.2867Q42.5852-50.9021 42.5852-49.4672Q42.5852-47.5203 43.9282-46.2074Q45.2712-44.8944 47.2553-44.8944Q48.7593-44.8944 49.8781-45.4331Q50.9969-45.9718 51.8207-47.0783L52.3919-47.8124Q53.5601-49.5577 54.9963-50.3732Q56.4326-51.1887 58.202-51.1887Q60.531-51.1887 62.0126-49.859Q63.4941-48.5294 63.4941-46.6172Q63.4941-44.5477 61.9932-43.2137Q60.4924-41.8798 57.5614-39.871Q55.014-38.0596 53.3942-36.1158Q51.7745-34.1719 51.7745-31.3103Q51.7745-31.2038 51.7745-31.1228Q51.7745-31.0418 51.7745-30.9409Q51.7745-26.1431 57.6801-26.1431ZM57.6466-10.4982Q60.4115-10.4982 62.27-12.1032Q64.1285-13.7081 64.1285-16.3533Q64.1285-18.9981 62.27-20.6004Q60.4115-22.2028 57.6466-22.2028Q54.9103-22.2028 53.009-20.6006Q51.1077-18.9984 51.1077-16.3533Q51.1077-13.7363 53.009-12.1173Q54.9103-10.4982 57.6466-10.4982Z"/>
  </g>
  <g id="Semibold-M" transform="matrix(1 0 0 1 1984.9 1126)">
   <path d="M98.1867-74.7979Q94.3625-78.5598 89.113-79.7573Q83.8636-80.9549 76.9154-80.9549L39.7505-80.9549Q32.871-80.9549 27.6163-79.7535Q22.3616-78.5521 18.5632-74.7903Q14.8014-70.9842 13.6311-65.8009Q12.4609-60.6176 12.4609-53.6942L12.4609-16.7925Q12.4609-9.77142 13.6273-4.55839Q14.7937 0.654638 18.5556 4.4165Q22.3798 8.17837 27.6292 9.37591Q32.8786 10.5735 39.8269 10.5735L76.9154 10.5735Q83.8636 10.5735 89.1221 9.37591Q94.3806 8.17837 98.1867 4.4165Q101.949 0.646997 103.115-4.56221Q104.281-9.77142 104.281-16.7925L104.281-53.5889Q104.281-60.61 103.115-65.8321Q101.949-71.0542 98.1867-74.7979ZM93.415-54.9443L93.415-15.4371Q93.415-11.61 92.7604-8.53351Q92.1059-5.457 90.2186-3.55156Q88.2843-1.66427 85.1872-0.982388Q82.0902-0.300501 78.2708-0.300501L38.4715-0.300501Q34.6521-0.300501 31.5368-0.982388Q28.4214-1.66427 26.516-3.55156Q24.6364-5.457 23.9818-8.53351Q23.3273-11.61 23.3273-15.4371L23.3273-54.8391Q23.3273-58.759 23.9818-61.8455Q24.6364-64.932 26.5084-66.8375Q28.4138-68.7248 31.5482-69.4028Q34.6826-70.0809 38.5767-70.0809L78.2708-70.0809Q82.0902-70.0809 85.1872-69.399Q88.2843-68.7171 90.2186-66.8298Q92.1059-64.932 92.7604-61.8608Q93.415-58.7895 93.415-54.9443ZM57.2519-25.7756Q59.3866-25.7756 60.7071-26.8222Q62.0276-27.8688 62.191-29.4028Q62.2092-29.5368 62.2183-29.6956Q62.2273-29.8545 62.2455-30.0068Q62.4271-31.7662 63.7472-33.1391Q65.0674-34.512 67.3042-35.9781Q70.9844-38.329 73.0478-40.8138Q75.1113-43.2987 75.1113-47.4659Q75.1113-53.5403 70.2991-56.9781Q65.4869-60.4159 58.7878-60.4159Q52.5424-60.4159 48.4039-57.9922Q44.2655-55.5684 43.0207-52.1069Q42.4955-50.7811 42.4955-49.4232Q42.4955-47.5933 43.7382-46.446Q44.9809-45.2987 46.688-45.2987Q48.1125-45.2987 49.1312-45.8288Q50.1499-46.359 50.915-47.4008L51.5977-48.28Q52.8085-50.1674 54.4066-51.1213Q56.0047-52.0751 58.0271-52.0751Q60.7187-52.0751 62.3837-50.5913Q64.0487-49.1075 64.0487-46.8893Q64.0487-44.6618 62.5282-43.2309Q61.0077-41.8 57.9766-39.7266Q55.408-37.8921 53.7439-35.859Q52.0798-33.8258 52.0798-30.7029Q52.0798-30.5795 52.0798-30.4712Q52.0798-30.363 52.0798-30.2472Q52.0798-25.7756 57.2519-25.7756ZM57.1894-10.527Q59.7251-10.527 61.4791-12.0848Q63.2331-13.6425 63.2331-16.0979Q63.2331-18.5716 61.4791-20.1164Q59.7251-21.6612 57.1894-21.6612Q54.6719-21.6612 52.8907-20.1072Q51.1094-18.5533 51.1094-16.0979Q51.1094-13.6791 52.8907-12.103Q54.6719-10.527 57.1894-10.527Z"/>
  </g>
  <g id="Medium-M" transform="matrix(1 0 0 1 1688.58 1126)">
   <path d="M97.5739-74.5509Q93.7724-78.2901 88.5582-79.4129Q83.3441-80.5357 76.7072-80.5357L39.1576-80.5357Q32.6039-80.5357 27.3893-79.4083Q22.1746-78.2809 18.3926-74.5417Q14.6534-70.7504 13.5572-65.6032Q12.4609-60.456 12.4609-53.8725L12.4609-16.6317Q12.4609-9.93143 13.5526-4.74894Q14.6442 0.43354 18.3834 4.17274Q22.1849 7.91194 27.399 9.03471Q32.6132 10.1575 39.2501 10.1575L76.7072 10.1575Q83.3441 10.1575 88.5634 9.03471Q93.7826 7.91194 97.5739 4.17274Q101.313 0.424292 102.405-4.75357Q103.496-9.93143 103.496-16.6317L103.496-53.7465Q103.496-60.4468 102.405-65.6344Q101.313-70.822 97.5739-74.5509ZM93.9395-55.0987L93.9395-15.2795Q93.9395-11.4735 93.2666-8.17003Q92.5938-4.86654 90.5693-2.83182Q88.5011-0.807375 85.1786-0.107963Q81.8561 0.591449 78.0594 0.591449L37.8979 0.591449Q34.1012 0.591449 30.7573-0.107963Q27.4134-0.807375 25.3787-2.83182Q23.3635-4.86654 22.6906-8.17003Q22.0177-11.4735 22.0177-15.2795L22.0177-54.9727Q22.0177-58.8779 22.6906-62.1994Q23.3635-65.5209 25.3694-67.5556Q27.4042-69.5801 30.7712-70.2748Q34.1382-70.9696 38.0239-70.9696L78.0594-70.9696Q81.8561-70.9696 85.1786-70.2702Q88.5011-69.5708 90.5693-67.5464Q92.5938-65.5209 93.2666-62.2179Q93.9395-58.9149 93.9395-55.0987ZM56.9273-25.4969Q58.9367-25.4969 60.1339-26.5329Q61.3311-27.5689 61.4236-29.0614Q61.4338-29.1988 61.439-29.3539Q61.4441-29.509 61.4544-29.6788Q61.5572-31.5424 62.8403-32.9721Q64.1233-34.4019 66.4833-35.9642Q70.1101-38.3028 72.2661-40.819Q74.4221-43.3353 74.4221-47.5965Q74.4221-53.6573 69.6792-56.9956Q64.9362-60.3339 58.4455-60.3339Q52.1894-60.3339 48.1215-57.8595Q44.0536-55.3851 42.9115-51.9706Q42.4274-50.6893 42.4274-49.3897Q42.4274-47.6487 43.5941-46.6269Q44.7608-45.6052 46.2579-45.6052Q47.6221-45.6052 48.5649-46.1289Q49.5077-46.6527 50.2282-47.6454L50.9955-48.6346Q52.2387-50.6297 53.9594-51.6885Q55.6802-52.7473 57.8945-52.7473Q60.861-52.7473 62.6651-51.1466Q64.4692-49.5459 64.4692-47.0956Q64.4692-44.7483 62.9338-43.2439Q61.3985-41.7396 58.2915-39.6171Q55.7068-37.7651 54.0091-35.6642Q52.3114-33.5634 52.3114-30.2424Q52.3114-30.1061 52.3114-29.9772Q52.3114-29.8483 52.3114-29.7212Q52.3114-25.4969 56.9273-25.4969ZM56.8427-10.5489Q59.2046-10.5489 60.8794-12.0709Q62.5543-13.5929 62.5543-15.9043Q62.5543-18.2483 60.8794-19.7494Q59.2046-21.2505 56.8427-21.2505Q54.4912-21.2505 52.8009-19.7331Q51.1107-18.2158 51.1107-15.9043Q51.1107-13.6356 52.8009-12.0923Q54.4912-10.5489 56.8427-10.5489Z"/>
  </g>
  <g id="Regular-M" transform="matrix(1 0 0 1 1392.38 1126)">
   <path d="M96.7746-74.2288Q93.0027-77.9384 87.8345-78.9636Q82.6664-79.9889 76.4356-79.9889L38.3843-79.9889Q32.2556-79.9889 27.0931-78.958Q21.9307-77.9271 18.1701-74.2174Q14.4605-70.4455 13.4607-65.3453Q12.4609-60.2452 12.4609-54.1051L12.4609-16.4219Q12.4609-10.1401 13.455-4.99749Q14.4491 0.145153 18.1587 3.85479Q21.9307 7.56442 27.0988 8.58966Q32.2669 9.6149 38.4978 9.6149L76.4356 9.6149Q82.6664 9.6149 87.8345 8.58966Q93.0027 7.56442 96.7746 3.85479Q100.484 0.133807 101.478-5.00316Q102.472-10.1401 102.472-16.4219L102.472-53.9521Q102.472-60.2339 101.478-65.3765Q100.484-70.5191 96.7746-74.2288ZM94.6237-55.3001L94.6237-15.0739Q94.6237-11.2955 93.9269-7.69593Q93.2301-4.09639 91.0268-1.89303Q88.7838 0.31032 85.1672 1.03259Q81.5507 1.75486 77.7836 1.75486L37.1498 1.75486Q33.3826 1.75486 29.7406 1.03259Q26.0986 0.31032 23.8952-1.89303Q21.7032-4.09639 21.0064-7.69593Q20.3096-11.2955 20.3096-15.0739L20.3096-55.147Q20.3096-59.0331 21.0064-62.661Q21.7032-66.2889 23.8839-68.4923Q26.0872-70.6957 29.7576-71.4123Q33.428-72.1289 37.3028-72.1289L77.7836-72.1289Q81.5507-72.1289 85.1672-71.4066Q88.7838-70.6843 91.0268-68.481Q93.2301-66.2889 93.9269-62.6837Q94.6237-59.0785 94.6237-55.3001ZM56.5038-25.1334Q58.3499-25.1334 59.3862-26.1556Q60.4225-27.1778 60.4225-28.6162Q60.4225-28.7579 60.4225-28.9081Q60.4225-29.0583 60.4225-29.2509Q60.4225-31.2505 61.6573-32.7543Q62.892-34.2582 65.4126-35.9462Q68.9698-38.2686 71.2465-40.8259Q73.5232-43.3831 73.5232-47.7668Q73.5232-53.8098 68.8706-57.0184Q64.2179-60.227 57.999-60.227Q51.7291-60.227 47.7531-57.6865Q43.7771-55.1461 42.7691-51.7928Q42.3387-50.5695 42.3387-49.3461Q42.3387-47.7208 43.4062-46.8629Q44.4736-46.0049 45.6968-46.0049Q46.9824-46.0049 47.8262-46.5203Q48.67-47.0357 49.3325-47.9645L50.2101-49.0971Q51.4954-51.2328 53.3762-52.4284Q55.257-53.624 57.7215-53.624Q61.0467-53.624 63.0322-51.8708Q65.0176-50.1176 65.0176-47.3647Q65.0176-44.8611 63.4629-43.2609Q61.9082-41.6607 58.7022-39.4743Q56.0965-37.5994 54.355-35.4103Q52.6134-33.2211 52.6134-29.6417Q52.6134-29.4886 52.6134-29.3328Q52.6134-29.1769 52.6134-29.0352Q52.6134-25.1334 56.5038-25.1334ZM56.3906-10.5774Q58.5257-10.5774 60.0972-12.0527Q61.6688-13.528 61.6688-15.6518Q61.6688-17.8265 60.0972-19.2707Q58.5257-20.7148 56.3906-20.7148Q54.2555-20.7148 52.6839-19.2452Q51.1123-17.7755 51.1123-15.6518Q51.1123-13.579 52.6839-12.0782Q54.2555-10.5774 56.3906-10.5774Z"/>
  </g>
  <g id="Light-M" transform="matrix(1 0 0 1 1096.64 1126)">
   <path d="M95.0819-73.5664Q91.6595-76.9265 86.8502-77.9977Q82.0408-79.0689 75.4052-79.0689L37.2804-79.0689Q30.9125-79.0689 26.118-77.9828Q21.3235-76.8967 17.9309-73.5367Q14.5708-70.1143 13.5159-65.3821Q12.4609-60.65 12.4609-54.2523L12.4609-16.3851Q12.4609-9.71696 13.501-4.92389Q14.5411-0.130832 17.9012 3.22922Q21.3235 6.58928 26.1329 7.66051Q30.9422 8.73175 37.5778 8.73175L75.4052 8.73175Q82.0408 8.73175 86.8502 7.66051Q91.6595 6.58928 95.0819 3.22922Q98.4419-0.160577 99.482-4.93877Q100.522-9.71696 100.522-16.3851L100.522-53.9521Q100.522-60.6202 99.482-65.4133Q98.4419-70.2064 95.0819-73.5664ZM94.4949-55.2633L94.4949-15.0739Q94.4949-10.7251 93.6785-7.09796Q92.8621-3.47082 90.622-1.23067Q88.379 1.00948 84.7073 1.84215Q81.0355 2.67481 76.7164 2.67481L36.2666 2.67481Q31.9475 2.67481 28.2595 1.84215Q24.5715 1.00948 22.3313-1.23067Q20.1209-3.47082 19.3045-7.09796Q18.4881-10.7251 18.4881-15.0739L18.4881-54.963Q18.4881-59.4931 19.3045-63.1946Q20.1209-66.8961 22.3016-69.1363Q24.5417-71.3764 28.3041-72.1942Q32.0665-73.012 36.5669-73.012L76.7164-73.012Q81.0355-73.012 84.7073-72.1793Q88.379-71.3467 90.622-69.1065Q92.8621-66.8961 93.6785-63.2541Q94.4949-59.6121 94.4949-55.2633ZM55.5839-25.2806Q56.9884-25.2806 57.7855-26.0912Q58.5826-26.9018 58.5826-28.0458Q58.5826-28.3163 58.5826-28.5585Q58.5826-28.8007 58.5826-29.1037Q58.5826-31.2137 59.799-32.7819Q61.0153-34.3502 63.6831-36.1486Q67.3507-38.5998 69.379-41.111Q71.4073-43.6223 71.4073-47.638Q71.4073-53.0738 67.141-56.1812Q62.8748-59.2886 56.8766-59.2886Q50.8459-59.2886 47.0907-56.6194Q43.3356-53.9501 42.5115-50.4128Q42.1915-49.4288 42.1915-48.2422Q42.1915-46.9113 43.0198-46.2281Q43.8481-45.545 44.8321-45.545Q45.8784-45.545 46.575-45.9867Q47.2717-46.4285 47.6949-47.2469L48.2782-48.1956Q49.122-50.6624 51.3247-52.3824Q53.5275-54.1024 56.6543-54.1024Q60.4211-54.1024 62.6458-52.1836Q64.8704-50.2648 64.8704-47.2911Q64.8704-44.7691 63.3709-43.0493Q61.8714-41.3295 58.5182-39.0327Q55.7286-37.0474 54.1434-34.8951Q52.5582-32.7428 52.5582-29.4209Q52.5582-29.1206 52.5582-28.8636Q52.5582-28.6065 52.5582-28.336Q52.5582-25.2806 55.5839-25.2806ZM55.489-11.3686Q57.3481-11.3686 58.6897-12.6599Q60.0313-13.9512 60.0313-15.7806Q60.0313-17.6425 58.6897-18.9027Q57.3481-20.1628 55.489-20.1628Q53.6299-20.1628 52.2883-18.8864Q50.9468-17.6099 50.9468-15.7806Q50.9468-13.9838 52.2883-12.6762Q53.6299-11.3686 55.489-11.3686Z"/>
  </g>
  <g id="Thin-M" transform="matrix(1 0 0 1 801.221 1126)">
   <path d="M92.8431-72.6904Q89.8831-75.5881 85.5483-76.7202Q81.2135-77.8522 74.0425-77.8522L35.8203-77.8522Q29.1361-77.8522 24.8283-76.6931Q20.5205-75.534 17.6146-72.6363Q14.7169-69.6763 13.5889-65.4308Q12.4609-61.1853 12.4609-54.447L12.4609-16.3365Q12.4609-9.15727 13.5619-4.82656Q14.6628-0.495845 17.5605 2.40186Q20.5205 5.29956 24.8553 6.43164Q29.1901 7.56371 36.3611 7.56371L74.0425 7.56371Q81.2135 7.56371 85.5483 6.43164Q89.8831 5.29956 92.8431 2.40186Q95.7408-0.549923 96.8418-4.8536Q97.9427-9.15727 97.9427-16.3365L97.9427-53.9521Q97.9427-61.1313 96.8418-65.462Q95.7408-69.7927 92.8431-72.6904ZM94.3246-55.2146L94.3246-15.0739Q94.3246-9.97074 93.35-6.3071Q92.3755-2.64346 90.0866-0.35464Q87.8437 1.93418 84.0989 2.91285Q80.3542 3.89152 75.3051 3.89152L35.0986 3.89152Q30.0495 3.89152 26.3006 2.91285Q22.5517 1.93418 20.2629-0.35464Q18.0282-2.64346 17.0536-6.3071Q16.079-9.97074 16.079-15.0739L16.079-54.7197Q16.079-60.1015 17.0536-63.9003Q18.0282-67.6991 20.2088-69.988Q22.4976-72.2768 26.3817-73.2284Q30.2658-74.18 35.5935-74.18L75.3051-74.18Q80.3542-74.18 84.0989-73.2014Q87.8437-72.2227 90.0866-69.9339Q92.3755-67.6991 93.35-64.0085Q94.3246-60.3178 94.3246-55.2146ZM54.3672-25.4753Q55.1876-25.4753 55.6684-26.006Q56.1492-26.5368 56.1492-27.2914Q56.1492-27.7323 56.1492-28.0961Q56.1492-28.46 56.1492-28.9091Q56.1492-31.165 57.3412-32.8184Q58.5332-34.4719 61.3957-36.4162Q65.2093-39.0378 66.9091-41.4882Q68.6089-43.9387 68.6089-47.4676Q68.6089-52.1004 64.8536-55.074Q61.0984-58.0476 55.3922-58.0476Q49.6779-58.0476 46.2147-55.208Q42.7515-52.3684 42.1708-48.5878Q41.9969-47.9201 41.9969-46.7821Q41.9969-45.8406 42.5088-45.3886Q43.0207-44.9366 43.6884-44.9366Q44.4184-44.9366 44.9203-45.281Q45.4223-45.6255 45.5292-46.2979L45.7231-47.0032Q45.9829-49.908 48.6115-52.3215Q51.2401-54.735 55.2429-54.735Q59.5938-54.735 62.1348-52.5973Q64.6758-50.4595 64.6758-47.1937Q64.6758-44.6475 63.2492-42.7695Q61.8227-40.8915 58.2748-38.4487Q55.2419-36.3174 53.8635-34.2137Q52.4852-32.1101 52.4852-29.1289Q52.4852-28.634 52.4852-28.2431Q52.4852-27.8522 52.4852-27.4113Q52.4852-25.4753 54.3672-25.4753ZM54.2966-12.4149Q55.7907-12.4149 56.8281-13.4629Q57.8655-14.5109 57.8655-15.9509Q57.8655-17.3992 56.8281-18.416Q55.7907-19.4328 54.2966-19.4328Q52.8025-19.4328 51.7651-18.4119Q50.7277-17.3909 50.7277-15.9509Q50.7277-14.5191 51.7651-13.467Q52.8025-12.4149 54.2966-12.4149Z"/>
  </g>
  <g id="Ultralight-M" transform="matrix(1 0 0 1 505.171 1126)">
   <path d="M91.6965-72.2417Q88.9733-74.9026 84.8815-76.0658Q80.7897-77.229 73.3445-77.229L35.0725-77.229Q28.2262-77.229 24.1677-76.0325Q20.1092-74.836 17.4525-72.1751Q14.7916-69.4519 13.6263-65.4557Q12.4609-61.4595 12.4609-54.5467L12.4609-16.3115Q12.4609-8.8706 13.593-4.7767Q14.7251-0.682802 17.386 1.97809Q20.1092 4.63898 24.201 5.80221Q28.2927 6.96544 35.7379 6.96544L73.3445 6.96544Q80.7897 6.96544 84.8815 5.80221Q88.9733 4.63898 91.6965 1.97809Q94.3574-0.749345 95.4894-4.80997Q96.6215-8.8706 96.6215-16.3115L96.6215-53.9521Q96.6215-61.393 95.4894-65.4869Q94.3574-69.5808 91.6965-72.2417ZM94.2373-55.1897L94.2373-15.0739Q94.2373-9.58436 93.1818-5.90202Q92.1262-2.21969 89.8124 0.094058Q87.5695 2.40781 83.7873 3.46126Q80.0052 4.51471 74.5821 4.51471L34.5003 4.51471Q29.0773 4.51471 25.2973 3.46126Q21.5172 2.40781 19.2035 0.094058Q16.9563-2.21969 15.9007-5.90202Q14.8451-9.58436 14.8451-15.0739L14.8451-54.595Q14.8451-60.4131 15.9007-64.2618Q16.9563-68.1104 19.1369-70.4242Q21.4507-72.7379 25.3971-73.7581Q29.3434-74.7783 35.0949-74.7783L74.5821-74.7783Q80.0052-74.7783 83.7873-73.7249Q87.5695-72.6714 89.8124-70.3577Q92.1262-68.1104 93.1818-64.3948Q94.2373-60.6792 94.2373-55.1897ZM53.744-25.575Q54.2653-25.575 54.5841-25.9624Q54.9028-26.3498 54.9028-26.9051Q54.9028-27.4332 54.9028-27.8593Q54.9028-28.2855 54.9028-28.8094Q54.9028-31.1401 56.0824-32.8371Q57.2619-34.5342 60.2241-36.5534Q64.1124-39.2621 65.644-41.6814Q67.1756-44.1007 67.1756-47.3804Q67.1756-51.6019 63.682-54.5069Q60.1885-57.4119 54.6319-57.4119Q49.0796-57.4119 45.766-54.4851Q42.4524-51.5582 41.9963-47.653Q41.8972-47.1473 41.8972-46.0343Q41.8972-45.2922 42.247-44.9586Q42.5969-44.625 43.1026-44.625Q43.6705-44.625 44.0728-44.9196Q44.475-45.2142 44.4199-45.8118L44.4144-46.3925Q44.375-49.5217 47.2217-52.2904Q50.0685-55.0591 54.52-55.0591Q59.17-55.0591 61.873-52.8091Q64.5761-50.5592 64.5761-47.1439Q64.5761-44.5852 63.1869-42.6262Q61.7978-40.6672 58.1502-38.1496Q54.9926-35.9435 53.7202-33.8647Q52.4478-31.786 52.4478-28.9793Q52.4478-28.3847 52.4478-27.9252Q52.4478-27.4658 52.4478-26.9377Q52.4478-25.575 53.744-25.575ZM53.6859-12.9509Q54.9931-12.9509 55.8747-13.8742Q56.7563-14.7976 56.7563-16.0382Q56.7563-17.2745 55.8747-18.1667Q54.9931-19.0589 53.6859-19.0589Q52.3788-19.0589 51.4972-18.1688Q50.6156-17.2788 50.6156-16.0382Q50.6156-14.7933 51.4972-13.8721Q52.3788-12.9509 53.6859-12.9509Z"/>
  </g>
  <g id="Black-S" transform="matrix(1 0 0 1 2885.99 696)">
   <path d="M79.541-67.2852Q76.4648-70.3125 72.2168-71.582Q67.9688-72.8516 61.1328-72.8516L33.6914-72.8516Q26.8555-72.8516 22.583-71.582Q18.3105-70.3125 15.2832-67.2852Q12.2559-64.2578 11.0107-60.0586Q9.76562-55.8594 9.76562-48.9258L9.76562-21.4844Q9.76562-14.5508 11.0107-10.3516Q12.2559-6.15234 15.2832-3.125Q18.3594-0.0976562 22.6074 1.17188Q26.8555 2.44141 33.6914 2.44141L61.1328 2.44141Q67.9688 2.44141 72.2412 1.17188Q76.5137-0.0976562 79.541-3.125Q82.5684-6.15234 83.8135-10.3516Q85.0586-14.5508 85.0586-21.4844L85.0586-48.9258Q85.0586-55.8594 83.8135-60.083Q82.5684-64.3066 79.541-67.2852ZM70.8984-50L70.8984-20.4102Q70.8984-17.2852 70.459-15.8691Q70.0195-14.4531 69.1406-13.5254Q68.2129-12.6465 66.7725-12.1826Q65.332-11.7188 62.207-11.7188L32.6172-11.7188Q29.4922-11.7188 28.0518-12.1826Q26.6113-12.6465 25.6836-13.5254Q24.8047-14.4531 24.3652-15.8691Q23.9258-17.2852 23.9258-20.4102L23.9258-50Q23.9258-53.1738 24.3652-54.5654Q24.8047-55.957 25.6836-56.8848Q26.6113-57.7637 28.0518-58.2275Q29.4922-58.6914 32.6172-58.6914L62.207-58.6914Q65.332-58.6914 66.7725-58.2275Q68.2129-57.7637 69.1406-56.8848Q70.0195-55.957 70.459-54.5654Q70.8984-53.1738 70.8984-50ZM46.2402-29.0527Q48.4375-29.0527 50-29.9072Q51.5625-30.7617 52.002-32.1289Q52.0508-32.2266 52.0752-32.373Q52.0996-32.5195 52.1484-32.5684Q52.6367-33.4961 53.833-34.3262Q55.0293-35.1562 56.25-35.8887Q59.375-37.793 60.5713-39.5996Q61.7676-41.4062 61.7676-44.2383Q61.7676-49.0234 57.7148-52.1484Q53.6621-55.2734 47.5098-55.2734Q42.6758-55.2734 39.1357-53.5889Q35.5957-51.9043 34.1797-48.9746Q33.5938-47.7539 33.5938-46.4355Q33.5938-44.6289 34.8877-43.1885Q36.1816-41.748 38.4277-41.748Q39.7949-41.748 40.918-42.1875Q42.041-42.627 42.8223-43.6523L42.9688-43.8477Q43.75-44.873 44.4824-45.1904Q45.2148-45.5078 45.9961-45.5078Q46.9238-45.5078 47.6318-44.8486Q48.3398-44.1895 48.3398-43.457Q48.3398-42.2363 47.2168-41.4307Q46.0938-40.625 44.043-39.209Q42.0898-37.8418 40.9424-36.5479Q39.7949-35.2539 39.7949-33.6914Q39.7949-33.6426 39.7949-33.6426Q39.7949-33.6426 39.7949-33.5938Q39.7949-29.0527 46.2402-29.0527ZM46.2891-15.8203Q49.0234-15.8203 50.7324-17.1875Q52.4414-18.5547 52.4414-21.0938Q52.4414-23.584 50.7324-24.9756Q49.0234-26.3672 46.2891-26.3672Q43.6035-26.3672 41.8213-25Q40.0391-23.6328 40.0391-21.0938Q40.0391-18.5547 41.8213-17.1875Q43.6035-15.8203 46.2891-15.8203Z"/>
  </g>
  <g id="Heavy-S" transform="matrix(1 0 0 1 2589.73 696)">
   <path d="M78.8611-67.0086Q75.7734-70.0474 71.5311-71.2017Q67.2888-72.356 60.9599-72.356L32.9654-72.356Q26.6365-72.356 22.3756-71.2017Q18.1146-70.0474 15.0642-67.0086Q12.0254-63.9582 10.8955-59.7647Q9.76562-55.5713 9.76562-49.1678L9.76562-21.2539Q9.76562-14.8389 10.8955-10.6397Q12.0254-6.44046 15.0642-3.40159Q18.1519-0.362719 22.3942 0.791568Q26.6365 1.94585 32.9654 1.94585L60.9599 1.94585Q67.2888 1.94585 71.5497 0.791568Q75.8107-0.362719 78.8611-3.40159Q81.8999-6.44046 83.0298-10.6397Q84.1597-14.8389 84.1597-21.2539L84.1597-49.1563Q84.1597-55.5713 83.0298-59.7891Q81.8999-64.007 78.8611-67.0086ZM71.6821-50.2305L71.6821-20.1797Q71.6821-17.1584 71.2311-15.4139Q70.7801-13.6695 69.7053-12.5573Q68.5817-11.4825 66.8186-11.0071Q65.0554-10.5317 62.0342-10.5317L31.8911-10.5317Q28.8699-10.5317 27.101-11.0071Q25.3321-11.4825 24.22-12.5573Q23.1452-13.6695 22.6942-15.4139Q22.2432-17.1584 22.2432-20.1797L22.2432-50.219Q22.2432-53.2891 22.6942-55.0149Q23.1452-56.7407 24.22-57.8528Q25.3321-58.9276 27.101-59.403Q28.8699-59.8784 31.9027-59.8784L62.0342-59.8784Q65.0554-59.8784 66.8186-59.403Q68.5817-58.9276 69.7053-57.8528Q70.7801-56.7407 71.2311-55.0149Q71.6821-53.2891 71.6821-50.2305ZM45.883-28.6263Q47.9535-28.6263 49.3662-29.4923Q50.7788-30.3584 51.1146-31.7025Q51.1519-31.7886 51.1705-31.9178Q51.1892-32.047 51.2265-32.1074Q51.5995-33.1734 52.7439-34.0784Q53.8884-34.9834 55.2704-35.8426Q58.3032-37.7123 59.6666-39.5708Q61.03-41.4293 61.03-44.4457Q61.03-49.2885 57.0291-52.281Q53.0283-55.2734 47.1525-55.2734Q42.2724-55.2734 38.8073-53.5312Q35.3422-51.7891 34.0529-48.9516Q33.5131-47.7654 33.5131-46.5277Q33.5131-44.8133 34.7264-43.5342Q35.9396-42.2551 37.9091-42.2551Q39.2187-42.2551 40.2495-42.6946Q41.2804-43.134 42.0271-44.1018L42.3349-44.4815Q43.2199-45.6221 44.0906-46.026Q44.9613-46.4298 45.9385-46.4298Q47.2119-46.4298 48.0928-45.6208Q48.9737-44.8118 48.9737-43.7682Q48.9737-42.3746 47.8218-41.4768Q46.67-40.5789 44.527-39.1053Q42.5739-37.7266 41.3573-36.3289Q40.1407-34.9312 40.1407-33.046Q40.1407-32.9972 40.1407-32.9799Q40.1407-32.9626 40.1407-32.9138Q40.1407-28.6263 45.883-28.6263ZM45.8972-15.7512Q48.4126-15.7512 50.0352-17.0895Q51.6577-18.4279 51.6577-20.7941Q51.6577-23.1345 50.0352-24.4858Q48.4126-25.8371 45.8972-25.8371Q43.4191-25.8371 41.7406-24.4987Q40.0621-23.1603 40.0621-20.7941Q40.0621-18.4394 41.7406-17.0953Q43.4191-15.7512 45.8972-15.7512Z"/>
  </g>
  <g id="Bold-S" transform="matrix(1 0 0 1 2293.52 696)">
   <path d="M78.1006-66.6992Q75-69.751 70.7642-70.7764Q66.5283-71.8018 60.7666-71.8018L32.1533-71.8018Q26.3916-71.8018 22.1436-70.7764Q17.8955-69.751 14.8193-66.6992Q11.7676-63.623 10.7666-59.436Q9.76562-55.249 9.76562-49.4385L9.76562-20.9961Q9.76562-15.1611 10.7666-10.9619Q11.7676-6.7627 14.8193-3.71094Q17.9199-0.65918 22.1558 0.366211Q26.3916 1.3916 32.1533 1.3916L60.7666 1.3916Q66.5283 1.3916 70.7764 0.366211Q75.0244-0.65918 78.1006-3.71094Q81.1523-6.7627 82.1533-10.9619Q83.1543-15.1611 83.1543-20.9961L83.1543-49.4141Q83.1543-55.249 82.1533-59.4604Q81.1523-63.6719 78.1006-66.6992ZM72.5586-50.4883L72.5586-19.9219Q72.5586-17.0166 72.0947-14.9048Q71.6309-12.793 70.3369-11.4746Q68.9941-10.1807 66.8701-9.69238Q64.7461-9.2041 61.8408-9.2041L31.0791-9.2041Q28.1738-9.2041 26.0376-9.69238Q23.9014-10.1807 22.583-11.4746Q21.2891-12.793 20.8252-14.9048Q20.3613-17.0166 20.3613-19.9219L20.3613-50.4639Q20.3613-53.418 20.8252-55.5176Q21.2891-57.6172 22.583-58.9355Q23.9014-60.2295 26.0376-60.7178Q28.1738-61.2061 31.1035-61.2061L61.8408-61.2061Q64.7461-61.2061 66.8701-60.7178Q68.9941-60.2295 70.3369-58.9355Q71.6309-57.6172 72.0947-55.5176Q72.5586-53.418 72.5586-50.4883ZM45.4834-28.1494Q47.4121-28.1494 48.6572-29.0283Q49.9023-29.9072 50.1221-31.2256Q50.1465-31.2988 50.1587-31.4087Q50.1709-31.5186 50.1953-31.5918Q50.4395-32.8125 51.5259-33.8013Q52.6123-34.79 54.1748-35.791Q57.1045-37.6221 58.6548-39.5386Q60.2051-41.4551 60.2051-44.6777Q60.2051-49.585 56.2622-52.4292Q52.3193-55.2734 46.7529-55.2734Q41.8213-55.2734 38.4399-53.4668Q35.0586-51.6602 33.9111-48.9258Q33.4229-47.7783 33.4229-46.6309Q33.4229-45.0195 34.5459-43.9209Q35.6689-42.8223 37.3291-42.8223Q38.5742-42.8223 39.502-43.2617Q40.4297-43.7012 41.1377-44.6045L41.626-45.1904Q42.627-46.46 43.6523-46.9604Q44.6777-47.4609 45.874-47.4609Q47.5342-47.4609 48.6084-46.4844Q49.6826-45.5078 49.6826-44.1162Q49.6826-42.5293 48.4985-41.5283Q47.3145-40.5273 45.0684-38.9893Q43.1152-37.5977 41.8213-36.084Q40.5273-34.5703 40.5273-32.3242Q40.5273-32.2754 40.5273-32.2388Q40.5273-32.2021 40.5273-32.1533Q40.5273-28.1494 45.4834-28.1494ZM45.459-15.6738Q47.7295-15.6738 49.2554-16.98Q50.7812-18.2861 50.7812-20.459Q50.7812-22.6318 49.2554-23.938Q47.7295-25.2441 45.459-25.2441Q43.2129-25.2441 41.6504-23.938Q40.0879-22.6318 40.0879-20.459Q40.0879-18.3105 41.6504-16.9922Q43.2129-15.6738 45.459-15.6738Z"/>
  </g>
  <g id="Semibold-S" transform="matrix(1 0 0 1 1997.15 696)">
   <path d="M77.5763-66.4859Q74.4668-69.5466 70.2354-70.4831Q66.004-71.4196 60.6333-71.4196L31.5935-71.4196Q26.2228-71.4196 21.9836-70.4831Q17.7444-69.5466 14.6505-66.4859Q11.5898-63.392 10.6777-59.2094Q9.76562-55.0269 9.76562-49.6251L9.76562-20.8184Q9.76562-15.3833 10.6777-11.1841Q11.5898-6.98486 14.6505-3.92422Q17.76-0.863574 21.9914 0.0729492Q26.2228 1.00947 31.5935 1.00947L60.6333 1.00947Q66.004 1.00947 70.2432 0.0729492Q74.4823-0.863574 77.5763-3.92422Q80.6369-6.98486 81.549-11.1841Q82.4611-15.3833 82.4611-20.8184L82.4611-49.5918Q82.4611-55.0269 81.549-59.2338Q80.6369-63.4408 77.5763-66.4859ZM73.1629-50.666L73.1629-19.7441Q73.1629-16.9188 72.6901-14.5538Q72.2174-12.1887 70.7724-10.7281Q69.2785-9.28311 66.9057-8.78594Q64.5328-8.28877 61.7075-8.28877L30.5192-8.28877Q27.6939-8.28877 25.3044-8.78594Q22.9149-9.28311 21.4544-10.7281Q20.0094-12.1887 19.5366-14.5538Q19.0639-16.9188 19.0639-19.7441L19.0639-50.6327Q19.0639-53.5068 19.5366-55.8642Q20.0094-58.2215 21.4544-59.682Q22.9149-61.1271 25.3044-61.6242Q27.6939-62.1214 30.5525-62.1214L61.7075-62.1214Q64.5328-62.1214 66.9057-61.6242Q69.2785-61.1271 70.7724-59.682Q72.2174-58.2215 72.6901-55.8642Q73.1629-53.5068 73.1629-50.666ZM45.2079-27.8206Q47.0389-27.8206 48.1685-28.7084Q49.298-29.5962 49.4378-30.8968Q49.4533-30.9611 49.4611-31.0577Q49.4688-31.1542 49.4844-31.2363Q49.6396-32.5637 50.6861-33.6102Q51.7325-34.6567 53.4194-35.7555Q56.278-37.5599 57.9572-39.5164Q59.6363-41.4729 59.6363-44.8377Q59.6363-49.7894 55.7334-52.5314Q51.8306-55.2734 46.4774-55.2734Q41.5103-55.2734 38.1867-53.4224Q34.8631-51.5713 33.8134-48.908Q33.3606-47.7872 33.3606-46.702Q33.3606-45.1617 34.4215-44.1875Q35.4823-43.2133 36.9292-43.2133Q38.1299-43.2133 38.9865-43.6527Q39.8432-44.0922 40.5245-44.9511L41.1372-45.6792Q42.2182-47.0376 43.3502-47.6047Q44.4822-48.1719 45.8296-48.1719Q47.7563-48.1719 48.9639-47.0798Q50.1714-45.9877 50.1714-44.3562Q50.1714-42.6359 48.9651-41.5639Q47.7588-40.4918 45.4416-38.9093Q43.4885-37.5088 42.1412-35.9151Q40.7939-34.3215 40.7939-31.8266Q40.7939-31.7777 40.7939-31.7278Q40.7939-31.6778 40.7939-31.629Q40.7939-27.8206 45.2079-27.8206ZM45.1568-15.6205Q47.2585-15.6205 48.7177-16.9044Q50.177-18.1884 50.177-20.2279Q50.177-22.2853 48.7177-23.5603Q47.2585-24.8354 45.1568-24.8354Q43.0707-24.8354 41.5882-23.5514Q40.1057-22.2675 40.1057-20.2279Q40.1057-18.2217 41.5882-16.9211Q43.0707-15.6205 45.1568-15.6205Z"/>
  </g>
  <g id="Medium-S" transform="matrix(1 0 0 1 1700.7 696)">
   <path d="M77.1787-66.3242Q74.0625-69.3916 69.8345-70.2607Q65.6064-71.1299 60.5322-71.1299L31.1689-71.1299Q26.0947-71.1299 21.8623-70.2607Q17.6299-69.3916 14.5225-66.3242Q11.4551-63.2168 10.6104-59.0376Q9.76562-54.8584 9.76562-49.7666L9.76562-20.6836Q9.76562-15.5518 10.6104-11.3525Q11.4551-7.15332 14.5225-4.08594Q17.6387-1.01855 21.8667-0.149414Q26.0947 0.719727 31.1689 0.719727L60.5322 0.719727Q65.6064 0.719727 69.8389-0.149414Q74.0713-1.01855 77.1787-4.08594Q80.2461-7.15332 81.0908-11.3525Q81.9355-15.5518 81.9355-20.6836L81.9355-49.7266Q81.9355-54.8584 81.0908-59.062Q80.2461-63.2656 77.1787-66.3242ZM73.6211-50.8008L73.6211-19.6094Q73.6211-16.8447 73.1416-14.2876Q72.6621-11.7305 71.1025-10.1621Q69.4941-8.60254 66.9326-8.09863Q64.3711-7.59473 61.6064-7.59473L30.0947-7.59473Q27.3301-7.59473 24.7485-8.09863Q22.167-8.60254 20.5986-10.1621Q19.0391-11.7305 18.5596-14.2876Q18.0801-16.8447 18.0801-19.6094L18.0801-50.7607Q18.0801-53.5742 18.5596-56.127Q19.0391-58.6797 20.5986-60.248Q22.167-61.8076 24.7485-62.3115Q27.3301-62.8154 30.1348-62.8154L61.6064-62.8154Q64.3711-62.8154 66.9326-62.3115Q69.4941-61.8076 71.1025-60.248Q72.6621-58.6797 73.1416-56.127Q73.6211-53.5742 73.6211-50.8008ZM44.999-27.5713Q46.7559-27.5713 47.7979-28.4658Q48.8398-29.3604 48.9189-30.6475Q48.9277-30.7051 48.9321-30.7915Q48.9365-30.8779 48.9453-30.9668Q49.0332-32.375 50.0493-33.4653Q51.0654-34.5557 52.8467-35.7285Q55.6514-37.5127 57.4282-39.4995Q59.2051-41.4863 59.2051-44.959Q59.2051-49.9443 55.3325-52.6089Q51.46-55.2734 46.2686-55.2734Q41.2744-55.2734 37.9946-53.3887Q34.7148-51.5039 33.7393-48.8945Q33.3135-47.7939 33.3135-46.7559Q33.3135-45.2695 34.3271-44.3896Q35.3408-43.5098 36.626-43.5098Q37.793-43.5098 38.5957-43.9492Q39.3984-44.3887 40.0596-45.2139L40.7666-46.0498Q41.9082-47.4756 43.1211-48.0933Q44.334-48.7109 45.7959-48.7109Q47.9248-48.7109 49.2334-47.5312Q50.542-46.3516 50.542-44.5381Q50.542-42.7168 49.3188-41.5908Q48.0957-40.4648 45.7246-38.8486Q43.7715-37.4414 42.3838-35.7871Q40.9961-34.1328 40.9961-31.4492Q40.9961-31.4004 40.9961-31.3403Q40.9961-31.2803 40.9961-31.2314Q40.9961-27.5713 44.999-27.5713ZM44.9277-15.5801Q46.9014-15.5801 48.3101-16.8472Q49.7188-18.1143 49.7188-20.0527Q49.7188-22.0225 48.3101-23.2739Q46.9014-24.5254 44.9277-24.5254Q42.9629-24.5254 41.541-23.2583Q40.1191-21.9912 40.1191-20.0527Q40.1191-18.1543 41.541-16.8672Q42.9629-15.5801 44.9277-15.5801Z"/>
  </g>
  <g id="Regular-S" transform="matrix(1 0 0 1 1404.34 696)">
   <path d="M76.6602-66.1133Q73.5352-69.1895 69.3115-69.9707Q65.0879-70.752 60.4004-70.752L30.6152-70.752Q25.9277-70.752 21.7041-69.9707Q17.4805-69.1895 14.3555-66.1133Q11.2793-62.9883 10.5225-58.8135Q9.76562-54.6387 9.76562-49.9512L9.76562-20.5078Q9.76562-15.7715 10.5225-11.5723Q11.2793-7.37305 14.3555-4.29688Q17.4805-1.2207 21.7041-0.439453Q25.9277 0.341797 30.6152 0.341797L60.4004 0.341797Q65.0879 0.341797 69.3115-0.439453Q73.5352-1.2207 76.6602-4.29688Q79.7363-7.37305 80.4932-11.5723Q81.25-15.7715 81.25-20.5078L81.25-49.9023Q81.25-54.6387 80.4932-58.8379Q79.7363-63.0371 76.6602-66.1133ZM74.2188-50.9766L74.2188-19.4336Q74.2188-16.748 73.7305-13.9404Q73.2422-11.1328 71.5332-9.42383Q69.7754-7.71484 66.9678-7.20215Q64.1602-6.68945 61.4746-6.68945L29.541-6.68945Q26.8555-6.68945 24.0234-7.20215Q21.1914-7.71484 19.4824-9.42383Q17.7734-11.1328 17.2852-13.9404Q16.7969-16.748 16.7969-19.4336L16.7969-50.9277Q16.7969-53.6621 17.2852-56.4697Q17.7734-59.2773 19.4824-60.9863Q21.1914-62.6953 24.0234-63.208Q26.8555-63.7207 29.5898-63.7207L61.4746-63.7207Q64.1602-63.7207 66.9678-63.208Q69.7754-62.6953 71.5332-60.9863Q73.2422-59.2773 73.7305-56.4697Q74.2188-53.6621 74.2188-50.9766ZM44.7266-27.2461Q46.3867-27.2461 47.3145-28.1494Q48.2422-29.0527 48.2422-30.3223Q48.2422-30.3711 48.2422-30.4443Q48.2422-30.5176 48.2422-30.6152Q48.2422-32.1289 49.2188-33.2764Q50.1953-34.4238 52.0996-35.6934Q54.834-37.4512 56.7383-39.4775Q58.6426-41.5039 58.6426-45.1172Q58.6426-50.1465 54.8096-52.71Q50.9766-55.2734 45.9961-55.2734Q40.9668-55.2734 37.7441-53.3447Q34.5215-51.416 33.6426-48.877Q33.252-47.8027 33.252-46.8262Q33.252-45.4102 34.2041-44.6533Q35.1562-43.8965 36.2305-43.8965Q37.3535-43.8965 38.0859-44.3359Q38.8184-44.7754 39.4531-45.5566L40.2832-46.5332Q41.5039-48.0469 42.8223-48.7305Q44.1406-49.4141 45.752-49.4141Q48.1445-49.4141 49.585-48.1201Q51.0254-46.8262 51.0254-44.7754Q51.0254-42.8223 49.7803-41.626Q48.5352-40.4297 46.0938-38.7695Q44.1406-37.3535 42.7002-35.6201Q41.2598-33.8867 41.2598-30.957Q41.2598-30.9082 41.2598-30.835Q41.2598-30.7617 41.2598-30.7129Q41.2598-27.2461 44.7266-27.2461ZM44.6289-15.5273Q46.4355-15.5273 47.7783-16.7725Q49.1211-18.0176 49.1211-19.8242Q49.1211-21.6797 47.7783-22.9004Q46.4355-24.1211 44.6289-24.1211Q42.8223-24.1211 41.4795-22.876Q40.1367-21.6309 40.1367-19.8242Q40.1367-18.0664 41.4795-16.7969Q42.8223-15.5273 44.6289-15.5273Z"/>
  </g>
  <g id="Light-S" transform="matrix(1 0 0 1 1108.49 696)">
   <path d="M75.1628-65.5273Q72.347-68.2943 68.4408-69.1162Q64.5345-69.9382 59.4889-69.9382L29.6387-69.9382Q24.7396-69.9382 20.8415-69.1081Q16.9434-68.278 14.1439-65.5111Q11.377-62.6953 10.5713-58.846Q9.76562-54.9967 9.76562-50.0814L9.76562-20.4753Q9.76562-15.3971 10.5632-11.5072Q11.3607-7.61719 14.1276-4.85026Q16.9434-2.08333 20.8496-1.26139Q24.7559-0.439453 29.8014-0.439453L59.4889-0.439453Q64.5345-0.439453 68.4408-1.26139Q72.347-2.08333 75.1628-4.85026Q77.9297-7.63346 78.7272-11.5153Q79.5247-15.3971 79.5247-20.4753L79.5247-49.9023Q79.5247-54.9805 78.7272-58.8704Q77.9297-62.7604 75.1628-65.5273ZM74.1048-50.944L74.1048-19.4336Q74.1048-16.2435 73.5107-13.4115Q72.9167-10.5794 71.1751-8.83789Q69.4173-7.09635 66.5609-6.486Q63.7044-5.87565 60.5306-5.87565L28.7598-5.87565Q25.5859-5.87565 22.7132-6.486Q19.8405-7.09635 18.099-8.83789Q16.3737-10.5794 15.7796-13.4115Q15.1855-16.2435 15.1855-19.4336L15.1855-50.765Q15.1855-54.069 15.7796-56.9417Q16.3737-59.8145 18.0827-61.556Q19.8242-63.2975 22.7376-63.8997Q25.651-64.502 28.9388-64.502L60.5306-64.502Q63.7044-64.502 66.5609-63.8916Q69.4173-63.2812 71.1751-61.5397Q72.9167-59.8145 73.5107-56.9743Q74.1048-54.1341 74.1048-50.944ZM43.9128-27.3763Q45.1823-27.3763 45.8984-28.0924Q46.6146-28.8086 46.6146-29.8177Q46.6146-29.9805 46.6146-30.1351Q46.6146-30.2897 46.6146-30.485Q46.6146-32.0964 47.5749-33.3008Q48.5352-34.5052 50.5697-35.8724Q53.4017-37.7441 55.0863-39.7298Q56.7708-41.7155 56.7708-45.0033Q56.7708-49.4954 53.2796-51.9694Q49.7884-54.4434 45.0033-54.4434Q40.1855-54.4434 37.1582-52.4007Q34.1309-50.3581 33.4147-47.6562Q33.1217-46.7936 33.1217-45.8496Q33.1217-44.694 33.8623-44.0918Q34.6029-43.4896 35.4655-43.4896Q36.377-43.4896 36.9792-43.8639Q37.5814-44.2383 38.0046-44.9219L38.5742-45.7357Q39.4043-47.5423 41.0075-48.6898Q42.6107-49.8372 44.8079-49.8372Q47.5911-49.8372 49.2432-48.3968Q50.8952-46.9564 50.8952-44.7103Q50.8952-42.7409 49.6989-41.4388Q48.5026-40.1367 45.931-38.3789Q43.8151-36.8652 42.513-35.1644Q41.2109-33.4635 41.2109-30.7617Q41.2109-30.5827 41.2109-30.4199Q41.2109-30.2572 41.2109-30.0944Q41.2109-27.3763 43.9128-27.3763ZM43.8314-16.2272Q45.3939-16.2272 46.5332-17.3096Q47.6725-18.3919 47.6725-19.9382Q47.6725-21.5169 46.5332-22.5749Q45.3939-23.6328 43.8314-23.6328Q42.2689-23.6328 41.1296-22.5586Q39.9902-21.4844 39.9902-19.9382Q39.9902-18.4245 41.1296-17.3258Q42.2689-16.2272 43.8314-16.2272Z"/>
  </g>
  <g id="Thin-S" transform="matrix(1 0 0 1 812.918 696)">
   <path d="M73.1823-64.7524Q70.7756-67.1103 67.2891-67.9861Q63.8026-68.8618 58.2835-68.8618L28.3471-68.8618Q23.1682-68.8618 19.7006-67.9672Q16.233-67.0725 13.864-64.7146Q11.5061-62.3078 10.6359-58.8891Q9.76562-55.4703 9.76562-50.2536L9.76562-20.4322Q9.76562-14.902 10.617-11.4211Q11.4683-7.94008 13.8262-5.58216Q16.233-3.22423 19.7195-2.34848Q23.206-1.47272 28.7251-1.47272L58.2835-1.47272Q63.8026-1.47272 67.2891-2.34848Q70.7756-3.22423 73.1823-5.58216Q75.5403-7.97789 76.3916-11.44Q77.2429-14.902 77.2429-20.4322L77.2429-49.9023Q77.2429-55.4325 76.3916-58.9135Q75.5403-62.3945 73.1823-64.7524ZM73.9541-50.901L73.9541-19.4336Q73.9541-15.5762 73.2201-12.7119Q72.4861-9.84753 70.7015-8.06294Q68.9437-6.27835 66.0227-5.53884Q63.1017-4.79933 59.2821-4.79933L27.7265-4.79933Q23.9069-4.79933 20.9803-5.53884Q18.0538-6.27835 16.2692-8.06294Q14.5224-9.84753 13.7884-12.7119Q13.0544-15.5762 13.0544-19.4336L13.0544-50.5497Q13.0544-54.6072 13.7884-57.566Q14.5224-60.5248 16.2314-62.3094Q18.016-64.094 21.037-64.8146Q24.0581-65.5352 28.0777-65.5352L59.2821-65.5352Q63.1017-65.5352 66.0227-64.7957Q68.9437-64.0562 70.7015-62.2716Q72.4861-60.5248 73.2201-57.6416Q73.9541-54.7584 73.9541-50.901ZM42.8364-27.5485Q43.5893-27.5485 44.0256-28.0171Q44.4619-28.4857 44.4619-29.1504Q44.4619-29.4638 44.4619-29.7261Q44.4619-29.9883 44.4619-30.3128Q44.4619-32.0533 45.4007-33.3331Q46.3395-34.6128 48.5462-36.1092Q51.5074-38.1316 52.9013-40.0635Q54.2953-41.9953 54.2953-44.8526Q54.2953-48.6344 51.2561-50.99Q48.217-53.3455 43.6901-53.3455Q39.1523-53.3455 36.3833-51.1522Q33.6142-48.9589 33.1133-46.0418Q32.9495-45.459 32.9495-44.558Q32.9495-43.7468 33.4103-43.3491Q33.871-42.9514 34.4538-42.9514Q35.0854-42.9514 35.5154-43.2397Q35.9454-43.5279 36.0887-44.0823L36.3139-44.6809Q36.6274-46.875 38.6073-48.636Q40.5872-50.3969 43.5594-50.3969Q46.8592-50.3969 48.7911-48.7628Q50.723-47.1286 50.723-44.6242Q50.723-42.6333 49.5913-41.1912Q48.4596-39.7492 45.7157-37.8623Q43.3846-36.2194 42.2655-34.5616Q41.1464-32.9039 41.1464-30.5034Q41.1464-30.1522 41.1464-29.871Q41.1464-29.5898 41.1464-29.2764Q41.1464-27.5485 42.8364-27.5485ZM42.7766-17.1528Q44.0162-17.1528 44.8864-18.0199Q45.7567-18.887 45.7567-20.0888Q45.7567-21.3017 44.8864-22.1443Q44.0162-22.987 42.7766-22.987Q41.537-22.987 40.6667-22.1388Q39.7965-21.2906 39.7965-20.0888Q39.7965-18.8981 40.6667-18.0255Q41.537-17.1528 42.7766-17.1528Z"/>
  </g>
  <g id="Ultralight-S" transform="matrix(1 0 0 1 516.792 696)">
   <path d="M72.168-64.3555Q69.9707-66.5039 66.6992-67.4072Q63.4277-68.3105 57.666-68.3105L27.6855-68.3105Q22.3633-68.3105 19.1162-67.3828Q15.8691-66.4551 13.7207-64.3066Q11.5723-62.1094 10.6689-58.9111Q9.76562-55.7129 9.76562-50.3418L9.76562-20.4102Q9.76562-14.6484 10.6445-11.377Q11.5234-8.10547 13.6719-5.95703Q15.8691-3.80859 19.1406-2.90527Q22.4121-2.00195 28.1738-2.00195L57.666-2.00195Q63.4277-2.00195 66.6992-2.90527Q69.9707-3.80859 72.168-5.95703Q74.3164-8.1543 75.1953-11.4014Q76.0742-14.6484 76.0742-20.4102L76.0742-49.9023Q76.0742-55.6641 75.1953-58.9355Q74.3164-62.207 72.168-64.3555ZM73.877-50.8789L73.877-19.4336Q73.877-15.2344 73.0713-12.3535Q72.2656-9.47266 70.459-7.66602Q68.7012-5.85938 65.7471-5.05371Q62.793-4.24805 58.6426-4.24805L27.1973-4.24805Q23.0469-4.24805 20.0928-5.05371Q17.1387-5.85938 15.332-7.66602Q13.5742-9.47266 12.7686-12.3535Q11.9629-15.2344 11.9629-19.4336L11.9629-50.4395Q11.9629-54.8828 12.7686-57.8857Q13.5742-60.8887 15.2832-62.6953Q17.0898-64.502 20.166-65.2832Q23.2422-66.0645 27.6367-66.0645L58.6426-66.0645Q62.793-66.0645 65.7471-65.2588Q68.7012-64.4531 70.459-62.6465Q72.2656-60.8887 73.0713-57.9834Q73.877-55.0781 73.877-50.8789ZM42.2852-27.6367Q42.7734-27.6367 43.0664-27.9785Q43.3594-28.3203 43.3594-28.8086Q43.3594-29.1992 43.3594-29.5166Q43.3594-29.834 43.3594-30.2246Q43.3594-32.0312 44.2871-33.3496Q45.2148-34.668 47.5098-36.2305Q50.5371-38.3301 51.7822-40.2344Q53.0273-42.1387 53.0273-44.7754Q53.0273-48.1934 50.2197-50.4883Q47.4121-52.7832 43.0176-52.7832Q38.623-52.7832 35.9863-50.5127Q33.3496-48.2422 32.959-45.2148Q32.8613-44.7754 32.8613-43.8965Q32.8613-43.2617 33.1787-42.9688Q33.4961-42.6758 33.9355-42.6758Q34.4238-42.6758 34.7656-42.9199Q35.1074-43.1641 35.1074-43.6523L35.1562-44.1406Q35.2051-46.5332 37.3779-48.6084Q39.5508-50.6836 42.9199-50.6836Q46.4844-50.6836 48.5596-48.9502Q50.6348-47.2168 50.6348-44.5801Q50.6348-42.5781 49.5361-41.0645Q48.4375-39.5508 45.6055-37.5977Q43.1641-35.8887 42.1387-34.2529Q41.1133-32.6172 41.1133-30.3711Q41.1133-29.9316 41.1133-29.5898Q41.1133-29.248 41.1133-28.8574Q41.1133-27.6367 42.2852-27.6367ZM42.2363-17.627Q43.3105-17.627 44.043-18.3838Q44.7754-19.1406 44.7754-20.166Q44.7754-21.1914 44.043-21.9238Q43.3105-22.6562 42.2363-22.6562Q41.1621-22.6562 40.4297-21.9238Q39.6973-21.1914 39.6973-20.166Q39.6973-19.1406 40.4297-18.3838Q41.1621-17.627 42.2363-17.627Z"/>
  </g>
 </g>
</svg>
