<?xml version="1.0" encoding="UTF-8"?>
<!--Generator: Apple Native CoreSVG 149-->
<!DOCTYPE svg
PUBLIC "-//W3C//DTD SVG 1.1//EN"
       "http://www.w3.org/Graphics/SVG/1.1/DTD/svg11.dtd">
<svg version="1.1" xmlns="http://www.w3.org/2000/svg" xmlns:xlink="http://www.w3.org/1999/xlink" width="3300" height="2200">
 <!--glyph: "uni100079.medium", point size: 100.000000, font version: "Version 16.0d18e1", template writer version: "8"-->
 <g id="Notes">
  <rect height="2200" id="artboard" style="fill:white;opacity:1" width="3300" x="0" y="0"/>
  <line id="" style="fill:none;stroke:black;opacity:1;stroke-width:0.5;" x1="263" x2="3036" y1="292" y2="292"/>
  <text style="stroke:none;fill:black;font-family:-apple-system,&quot;SF Pro Display&quot;,&quot;SF Pro Text&quot;,Helvetica,sans-serif;font-weight:bold;" transform="matrix(1 0 0 1 263 322)">Weight/Scale Variations</text>
  <text style="stroke:none;fill:black;font-family:-apple-system,&quot;SF Pro Display&quot;,&quot;SF Pro Text&quot;,Helvetica,sans-serif;text-anchor:middle;" transform="matrix(1 0 0 1 559.711 322)">Ultralight</text>
  <text style="stroke:none;fill:black;font-family:-apple-system,&quot;SF Pro Display&quot;,&quot;SF Pro Text&quot;,Helvetica,sans-serif;text-anchor:middle;" transform="matrix(1 0 0 1 856.422 322)">Thin</text>
  <text style="stroke:none;fill:black;font-family:-apple-system,&quot;SF Pro Display&quot;,&quot;SF Pro Text&quot;,Helvetica,sans-serif;text-anchor:middle;" transform="matrix(1 0 0 1 1153.13 322)">Light</text>
  <text style="stroke:none;fill:black;font-family:-apple-system,&quot;SF Pro Display&quot;,&quot;SF Pro Text&quot;,Helvetica,sans-serif;text-anchor:middle;" transform="matrix(1 0 0 1 1449.84 322)">Regular</text>
  <text style="stroke:none;fill:black;font-family:-apple-system,&quot;SF Pro Display&quot;,&quot;SF Pro Text&quot;,Helvetica,sans-serif;text-anchor:middle;" transform="matrix(1 0 0 1 1746.56 322)">Medium</text>
  <text style="stroke:none;fill:black;font-family:-apple-system,&quot;SF Pro Display&quot;,&quot;SF Pro Text&quot;,Helvetica,sans-serif;text-anchor:middle;" transform="matrix(1 0 0 1 2043.27 322)">Semibold</text>
  <text style="stroke:none;fill:black;font-family:-apple-system,&quot;SF Pro Display&quot;,&quot;SF Pro Text&quot;,Helvetica,sans-serif;text-anchor:middle;" transform="matrix(1 0 0 1 2339.98 322)">Bold</text>
  <text style="stroke:none;fill:black;font-family:-apple-system,&quot;SF Pro Display&quot;,&quot;SF Pro Text&quot;,Helvetica,sans-serif;text-anchor:middle;" transform="matrix(1 0 0 1 2636.69 322)">Heavy</text>
  <text style="stroke:none;fill:black;font-family:-apple-system,&quot;SF Pro Display&quot;,&quot;SF Pro Text&quot;,Helvetica,sans-serif;text-anchor:middle;" transform="matrix(1 0 0 1 2933.4 322)">Black</text>
  <line id="" style="fill:none;stroke:black;opacity:1;stroke-width:0.5;" x1="263" x2="3036" y1="1903" y2="1903"/>
  <g id="" transform="matrix(1 0 0 1 263 1933)">
   <path d="M9.24805 0.830078C13.5547 0.830078 17.1387-2.74414 17.1387-7.05078C17.1387-11.3574 13.5449-14.9316 9.23828-14.9316C4.94141-14.9316 1.36719-11.3574 1.36719-7.05078C1.36719-2.74414 4.95117 0.830078 9.24805 0.830078ZM9.24805-0.654297C5.70312-0.654297 2.87109-3.49609 2.87109-7.05078C2.87109-10.6055 5.69336-13.4473 9.23828-13.4473C12.793-13.4473 15.6348-10.6055 15.6445-7.05078C15.6543-3.49609 12.8027-0.654297 9.24805-0.654297ZM6.39648-6.31836L8.50586-6.31836L8.50586-4.19922C8.50586-3.75977 8.79883-3.45703 9.22852-3.45703C9.67773-3.45703 9.9707-3.75977 9.9707-4.19922L9.9707-6.31836L12.0996-6.31836C12.5391-6.31836 12.8418-6.61133 12.8418-7.04102C12.8418-7.48047 12.5391-7.7832 12.0996-7.7832L9.9707-7.7832L9.9707-9.89258C9.9707-10.3418 9.67773-10.6445 9.22852-10.6445C8.79883-10.6445 8.50586-10.3418 8.50586-9.89258L8.50586-7.7832L6.39648-7.7832C5.94727-7.7832 5.64453-7.48047 5.64453-7.04102C5.64453-6.61133 5.94727-6.31836 6.39648-6.31836Z"/>
  </g>
  <g id="" transform="matrix(1 0 0 1 281.506 1933)">
   <path d="M11.709 2.91016C17.1582 2.91016 21.6699-1.61133 21.6699-7.05078C21.6699-12.5 17.1484-17.0117 11.6992-17.0117C6.25977-17.0117 1.74805-12.5 1.74805-7.05078C1.74805-1.61133 6.26953 2.91016 11.709 2.91016ZM11.709 1.25C7.09961 1.25 3.41797-2.44141 3.41797-7.05078C3.41797-11.6602 7.08984-15.3516 11.6992-15.3516C16.3086-15.3516 20-11.6602 20.0098-7.05078C20.0195-2.44141 16.3184 1.25 11.709 1.25ZM7.98828-6.23047L10.8789-6.23047L10.8789-3.32031C10.8789-2.83203 11.2109-2.5 11.6895-2.5C12.1777-2.5 12.5195-2.83203 12.5195-3.32031L12.5195-6.23047L15.4297-6.23047C15.918-6.23047 16.25-6.5625 16.25-7.04102C16.25-7.5293 15.918-7.87109 15.4297-7.87109L12.5195-7.87109L12.5195-10.7617C12.5195-11.2695 12.1777-11.6016 11.6895-11.6016C11.2109-11.6016 10.8789-11.2598 10.8789-10.7617L10.8789-7.87109L7.98828-7.87109C7.48047-7.87109 7.14844-7.5293 7.14844-7.04102C7.14844-6.5625 7.49023-6.23047 7.98828-6.23047Z"/>
  </g>
  <g id="" transform="matrix(1 0 0 1 304.924 1933)">
   <path d="M14.9707 5.66406C21.9336 5.66406 27.6953-0.0976562 27.6953-7.05078C27.6953-14.0137 21.9238-19.7754 14.9609-19.7754C8.00781-19.7754 2.25586-14.0137 2.25586-7.05078C2.25586-0.0976562 8.01758 5.66406 14.9707 5.66406ZM14.9707 3.84766C8.93555 3.84766 4.08203-1.01562 4.08203-7.05078C4.08203-13.0957 8.92578-17.9492 14.9609-17.9492C21.0059-17.9492 25.8594-13.0957 25.8691-7.05078C25.8789-1.01562 21.0156 3.84766 14.9707 3.84766ZM10.0586-6.14258L14.0625-6.14258L14.0625-2.12891C14.0625-1.5918 14.4336-1.2207 14.9512-1.2207C15.4883-1.2207 15.8594-1.5918 15.8594-2.12891L15.8594-6.14258L19.8828-6.14258C20.4102-6.14258 20.791-6.51367 20.791-7.03125C20.791-7.56836 20.4199-7.94922 19.8828-7.94922L15.8594-7.94922L15.8594-11.9531C15.8594-12.5098 15.4883-12.8809 14.9512-12.8809C14.4336-12.8809 14.0625-12.5 14.0625-11.9531L14.0625-7.94922L10.0586-7.94922C9.50195-7.94922 9.13086-7.56836 9.13086-7.03125C9.13086-6.51367 9.51172-6.14258 10.0586-6.14258Z"/>
  </g>
  <text style="stroke:none;fill:black;font-family:-apple-system,&quot;SF Pro Display&quot;,&quot;SF Pro Text&quot;,Helvetica,sans-serif;font-weight:bold;" transform="matrix(1 0 0 1 263 1953)">Design Variations</text>
  <text style="stroke:none;fill:black;font-family:-apple-system,&quot;SF Pro Display&quot;,&quot;SF Pro Text&quot;,Helvetica,sans-serif;" transform="matrix(1 0 0 1 263 1971)">Symbols are supported in up to nine weights and three scales.</text>
  <text style="stroke:none;fill:black;font-family:-apple-system,&quot;SF Pro Display&quot;,&quot;SF Pro Text&quot;,Helvetica,sans-serif;" transform="matrix(1 0 0 1 263 1989)">For optimal layout with text and other symbols, vertically align</text>
  <text style="stroke:none;fill:black;font-family:-apple-system,&quot;SF Pro Display&quot;,&quot;SF Pro Text&quot;,Helvetica,sans-serif;" transform="matrix(1 0 0 1 263 2007)">symbols with the adjacent text.</text>
  <line id="" style="fill:none;stroke:#00AEEF;stroke-width:0.5;opacity:1.0;" x1="776" x2="776" y1="1919" y2="1933"/>
  <g id="" transform="matrix(1 0 0 1 776 1933)">
   <path d="M3.31055 0.126953C3.82812 0.126953 4.08203-0.0683594 4.26758-0.605469L5.52734-4.0625L11.2891-4.0625L12.5488-0.605469C12.7344-0.0683594 12.9883 0.126953 13.4961 0.126953C14.0137 0.126953 14.3457-0.185547 14.3457-0.673828C14.3457-0.839844 14.3164-0.986328 14.2383-1.20117L9.6582-13.3887C9.43359-13.9941 9.0332-14.2871 8.4082-14.2871C7.80273-14.2871 7.39258-13.9941 7.17773-13.3984L2.59766-1.19141C2.51953-0.976562 2.49023-0.830078 2.49023-0.664062C2.49023-0.175781 2.80273 0.126953 3.31055 0.126953ZM6.00586-5.53711L8.37891-12.1094L8.42773-12.1094L10.8008-5.53711Z"/>
  </g>
  <line id="" style="fill:none;stroke:#00AEEF;stroke-width:0.5;opacity:1.0;" x1="792.836" x2="792.836" y1="1919" y2="1933"/>
  <text style="stroke:none;fill:black;font-family:-apple-system,&quot;SF Pro Display&quot;,&quot;SF Pro Text&quot;,Helvetica,sans-serif;font-weight:bold;" transform="matrix(1 0 0 1 776 1953)">Margins</text>
  <text style="stroke:none;fill:black;font-family:-apple-system,&quot;SF Pro Display&quot;,&quot;SF Pro Text&quot;,Helvetica,sans-serif;" transform="matrix(1 0 0 1 776 1971)">Leading and trailing margins on the left and right side of each symbol</text>
  <text style="stroke:none;fill:black;font-family:-apple-system,&quot;SF Pro Display&quot;,&quot;SF Pro Text&quot;,Helvetica,sans-serif;" transform="matrix(1 0 0 1 776 1989)">can be adjusted by modifying the x-location of the margin guidelines.</text>
  <text style="stroke:none;fill:black;font-family:-apple-system,&quot;SF Pro Display&quot;,&quot;SF Pro Text&quot;,Helvetica,sans-serif;" transform="matrix(1 0 0 1 776 2007)">Modifications are automatically applied proportionally to all</text>
  <text style="stroke:none;fill:black;font-family:-apple-system,&quot;SF Pro Display&quot;,&quot;SF Pro Text&quot;,Helvetica,sans-serif;" transform="matrix(1 0 0 1 776 2025)">scales and weights.</text>
  <g id="" transform="matrix(1 0 0 1 1289 1933)">
   <path d="M2.8418 1.86523L4.54102 3.57422C5.40039 4.44336 6.38672 4.38477 7.31445 3.35938L17.4902-7.85156C17.7539-7.76367 18.0273-7.7832 18.3398-7.8418L19.4043-8.03711L20.0684-7.36328L20.0293-6.80664C19.9902-6.30859 20.1172-5.92773 20.6055-5.44922L21.3672-4.70703C21.8457-4.22852 22.4609-4.19922 22.9297-4.66797L25.8398-7.58789C26.3086-8.05664 26.2891-8.65234 25.8105-9.13086L25.0391-9.89258C24.5605-10.3711 24.1895-10.5273 23.7109-10.4883L23.1348-10.4395L22.4902-11.0742L22.7344-12.1973C22.8613-12.7637 22.7051-13.2031 22.1191-13.7891L19.9219-15.9766C16.582-19.2969 12.1484-19.2188 9.25781-16.3281C8.83789-15.918 8.80859-15.3418 9.04297-14.9512C9.27734-14.5898 9.73633-14.3555 10.3809-14.5215C11.8457-14.8633 13.3691-14.9219 14.7949-13.9844L14.209-12.5293C14.0137-12.0508 13.9844-11.6504 14.1113-11.2891L3.04688-0.898438C2.06055 0.0195312 1.98242 0.996094 2.8418 1.86523ZM10.752-15.957C13.1836-17.7344 16.4746-17.4316 18.7012-15.2051L21.1328-12.793C21.3672-12.5586 21.4062-12.373 21.3379-12.0312L21.0156-10.5469L22.5195-9.0625L23.5059-9.12109C23.7598-9.13086 23.8379-9.11133 24.0332-8.91602L24.6094-8.33984L22.168-5.89844L21.5918-6.47461C21.3965-6.66992 21.3672-6.74805 21.377-7.01172L21.4453-7.98828L19.9512-9.47266L18.4277-9.21875C18.1055-9.15039 17.959-9.17969 17.7148-9.41406L15.7129-11.416C15.459-11.6504 15.4297-11.8164 15.5859-12.1875L16.4648-14.2773C14.9023-15.7324 12.8711-16.3574 10.8398-15.7617C10.6836-15.7227 10.625-15.8496 10.752-15.957ZM5.27344 2.30469L4.10156 1.14258C3.63281 0.683594 3.74023 0.341797 4.14062-0.0195312L14.9512-10.1953L16.416-8.71094L6.42578 2.27539C6.07422 2.67578 5.74219 2.77344 5.27344 2.30469Z"/>
  </g>
  <text style="stroke:none;fill:black;font-family:-apple-system,&quot;SF Pro Display&quot;,&quot;SF Pro Text&quot;,Helvetica,sans-serif;font-weight:bold;" transform="matrix(1 0 0 1 1289 1953)">Exporting</text>
  <text style="stroke:none;fill:black;font-family:-apple-system,&quot;SF Pro Display&quot;,&quot;SF Pro Text&quot;,Helvetica,sans-serif;" transform="matrix(1 0 0 1 1289 1971)">Symbols should be outlined when exporting to ensure the</text>
  <text style="stroke:none;fill:black;font-family:-apple-system,&quot;SF Pro Display&quot;,&quot;SF Pro Text&quot;,Helvetica,sans-serif;" transform="matrix(1 0 0 1 1289 1989)">design is preserved when submitting to Xcode.</text>
  <text id="template-version" style="stroke:none;fill:black;font-family:-apple-system,&quot;SF Pro Display&quot;,&quot;SF Pro Text&quot;,Helvetica,sans-serif;text-anchor:end;" transform="matrix(1 0 0 1 3036 1933)">Template v.2.0</text>
  <text style="stroke:none;fill:black;font-family:-apple-system,&quot;SF Pro Display&quot;,&quot;SF Pro Text&quot;,Helvetica,sans-serif;text-anchor:end;" transform="matrix(1 0 0 1 3036 1951)">Requires Xcode 12 or greater</text>
  <text style="stroke:none;fill:black;font-family:-apple-system,&quot;SF Pro Display&quot;,&quot;SF Pro Text&quot;,Helvetica,sans-serif;text-anchor:end;" transform="matrix(1 0 0 1 3036 1969)">Generated from arrow.down.circle.fill</text>
  <text style="stroke:none;fill:black;font-family:-apple-system,&quot;SF Pro Display&quot;,&quot;SF Pro Text&quot;,Helvetica,sans-serif;text-anchor:end;" transform="matrix(1 0 0 1 3036 1987)">Typeset at 100 points</text>
  <text style="stroke:none;fill:black;font-family:-apple-system,&quot;SF Pro Display&quot;,&quot;SF Pro Text&quot;,Helvetica,sans-serif;" transform="matrix(1 0 0 1 263 726)">Small</text>
  <text style="stroke:none;fill:black;font-family:-apple-system,&quot;SF Pro Display&quot;,&quot;SF Pro Text&quot;,Helvetica,sans-serif;" transform="matrix(1 0 0 1 263 1156)">Medium</text>
  <text style="stroke:none;fill:black;font-family:-apple-system,&quot;SF Pro Display&quot;,&quot;SF Pro Text&quot;,Helvetica,sans-serif;" transform="matrix(1 0 0 1 263 1586)">Large</text>
 </g>
 <g id="Guides">
  <g id="H-reference" style="fill:#27AAE1;stroke:none;" transform="matrix(1 0 0 1 339 696)">
   <path d="M0.976562 0L3.66211 0L12.9883-24.4629L45.752-24.4629L55.127 0L57.7637 0L30.6152-70.459L28.125-70.459ZM29.3457-67.1387L29.4434-67.1387L44.873-26.709L13.8672-26.709Z"/>
  </g>
  <line id="Baseline-S" style="fill:none;stroke:#27AAE1;opacity:1;stroke-width:0.5;" x1="263" x2="3036" y1="696" y2="696"/>
  <line id="Capline-S" style="fill:none;stroke:#27AAE1;opacity:1;stroke-width:0.5;" x1="263" x2="3036" y1="625.541" y2="625.541"/>
  <g id="H-reference" style="fill:#27AAE1;stroke:none;" transform="matrix(1 0 0 1 339 1126)">
   <path d="M0.976562 0L3.66211 0L12.9883-24.4629L45.752-24.4629L55.127 0L57.7637 0L30.6152-70.459L28.125-70.459ZM29.3457-67.1387L29.4434-67.1387L44.873-26.709L13.8672-26.709Z"/>
  </g>
  <line id="Baseline-M" style="fill:none;stroke:#27AAE1;opacity:1;stroke-width:0.5;" x1="263" x2="3036" y1="1126" y2="1126"/>
  <line id="Capline-M" style="fill:none;stroke:#27AAE1;opacity:1;stroke-width:0.5;" x1="263" x2="3036" y1="1055.54" y2="1055.54"/>
  <g id="H-reference" style="fill:#27AAE1;stroke:none;" transform="matrix(1 0 0 1 339 1556)">
   <path d="M0.976562 0L3.66211 0L12.9883-24.4629L45.752-24.4629L55.127 0L57.7637 0L30.6152-70.459L28.125-70.459ZM29.3457-67.1387L29.4434-67.1387L44.873-26.709L13.8672-26.709Z"/>
  </g>
  <line id="Baseline-L" style="fill:none;stroke:#27AAE1;opacity:1;stroke-width:0.5;" x1="263" x2="3036" y1="1556" y2="1556"/>
  <line id="Capline-L" style="fill:none;stroke:#27AAE1;opacity:1;stroke-width:0.5;" x1="263" x2="3036" y1="1485.54" y2="1485.54"/>
  <line id="left-margin" style="fill:none;stroke:#00AEEF;stroke-width:0.5;opacity:1.0;" x1="1391.3" x2="1391.3" y1="1030.79" y2="1150.12"/>
  <line id="right-margin" style="fill:none;stroke:#00AEEF;stroke-width:0.5;opacity:1.0;" x1="1508.39" x2="1508.39" y1="1030.79" y2="1150.12"/>
 </g>
 <g id="Symbols">
  <g id="Black-L" transform="matrix(1 0 0 1 2854.05 1556)">
   <path d="M79.3457 32.8613C116.748 32.8613 147.412 2.19727 147.412-35.2051C147.412-72.6074 116.748-103.271 79.2969-103.271C41.8945-103.271 11.2793-72.6074 11.2793-35.2051C11.2793 2.19727 41.9434 32.8613 79.3457 32.8613ZM79.3457-70.6055C84.5703-70.6055 88.623-67.041 88.623-62.0117L88.623-37.4023L87.6953-24.4629L91.5039-30.5176L97.2168-37.1582C98.584-38.8184 100.83-39.7949 103.027-39.7949C107.666-39.7949 110.84-36.7188 110.84-32.373C110.84-29.9316 110.156-28.2715 108.35-26.2695L87.0117-3.51562C84.9609-1.2207 82.4707-0.0976562 79.3457-0.0976562C76.2207-0.0976562 73.7305-1.17188 71.6797-3.51562L50.293-26.2695C48.4863-28.2715 47.8516-29.9316 47.8516-32.373C47.8516-36.7188 51.0254-39.7949 55.6152-39.7949C57.8613-39.7949 60.1562-38.8184 61.4258-37.1582L67.2363-30.2246L70.9961-24.5117L70.0195-37.4023L70.0195-62.0117C70.0195-67.041 74.0723-70.6055 79.3457-70.6055Z"/>
  </g>
  <g id="Heavy-L" transform="matrix(1 0 0 1 2558.39 1556)">
   <path d="M78.2715 31.7871C115.088 31.7871 145.312 1.5625 145.312-35.2051C145.312-72.0215 115.039-102.246 78.2715-102.246C41.4551-102.246 11.2793-72.0215 11.2793-35.2051C11.2793 1.5625 41.5039 31.7871 78.2715 31.7871ZM78.2715-69.9707C82.8613-69.9707 86.377-66.7969 86.377-62.4023L86.377-35.2539L85.5469-22.4121L90.1367-28.9062L96.5332-35.9863C97.7051-37.4512 99.707-38.3301 101.66-38.3301C105.713-38.3301 108.594-35.5469 108.594-31.6895C108.594-29.541 107.959-28.0762 106.396-26.3672L84.9121-3.75977C83.1055-1.80664 80.957-0.78125 78.2715-0.78125C75.6348-0.78125 73.5352-1.75781 71.6797-3.75977L50.1465-26.3672C48.584-28.0762 47.998-29.541 47.998-31.6895C47.998-35.5469 50.8301-38.3301 54.9316-38.3301C56.9336-38.3301 58.8867-37.4512 60.0586-35.9863L66.5039-28.6621L70.9961-22.4121L70.166-35.2539L70.166-62.4023C70.166-66.7969 73.6816-69.9707 78.2715-69.9707Z"/>
  </g>
  <g id="Bold-L" transform="matrix(1 0 0 1 2262.88 1556)">
   <path d="M77.0996 30.5664C113.232 30.5664 142.92 0.878906 142.92-35.2539C142.92-71.3379 113.184-101.074 77.0508-101.074C40.9668-101.074 11.2793-71.3379 11.2793-35.2539C11.2793 0.878906 41.0156 30.5664 77.0996 30.5664ZM77.0996-69.2383C80.957-69.2383 83.8379-66.6016 83.8379-62.8418L83.8379-32.8613L83.1543-20.0684L88.5254-27.0508L95.7031-34.7168C96.7773-35.9863 98.3887-36.6699 100.098-36.6699C103.564-36.6699 106.055-34.2773 106.055-30.9082C106.055-29.1504 105.518-27.832 104.199-26.4648L82.5684-4.10156C81.0059-2.44141 79.2969-1.61133 77.0996-1.61133C74.9512-1.61133 73.2422-2.39258 71.6797-4.10156L50-26.4648C48.7305-27.832 48.1934-29.1504 48.1934-30.9082C48.1934-34.2773 50.6836-36.6699 54.1504-36.6699C55.8594-36.6699 57.4707-35.9375 58.4961-34.7168L65.7227-26.9043L71.0449-20.1172L70.3613-32.8613L70.3613-62.8418C70.3613-66.6016 73.2422-69.2383 77.0996-69.2383Z"/>
  </g>
  <g id="Semibold-L" transform="matrix(1 0 0 1 1966.97 1556)">
   <path d="M76.2695 29.7363C111.914 29.7363 141.309 0.390625 141.309-35.2539C141.309-70.8984 111.865-100.244 76.2695-100.244C40.625-100.244 11.2793-70.8984 11.2793-35.2539C11.2793 0.390625 40.6738 29.7363 76.2695 29.7363ZM76.2695-68.75C79.6387-68.75 82.1289-66.4062 82.1289-63.1348L82.1289-31.2012L81.4941-18.457L87.4512-25.7812L95.1172-33.8379C96.0938-34.9121 97.5098-35.498 99.0234-35.498C102.051-35.498 104.297-33.3496 104.297-30.4199C104.297-28.8574 103.809-27.6367 102.686-26.5137L80.957-4.29688C79.5898-2.88086 78.125-2.14844 76.2695-2.14844C74.5117-2.14844 73.0957-2.83203 71.6797-4.29688L49.9023-26.5137C48.7793-27.6367 48.3398-28.8574 48.3398-30.4199C48.3398-33.3496 50.5371-35.498 53.5645-35.498C55.0781-35.498 56.4941-34.8633 57.4707-33.8379L65.1855-25.6836L71.0449-18.5059L70.459-31.2012L70.459-63.1348C70.459-66.4062 72.9492-68.75 76.2695-68.75Z"/>
  </g>
  <g id="Medium-L" transform="matrix(1 0 0 1 1670.87 1556)">
   <path d="M75.6836 29.1504C110.938 29.1504 140.088 0 140.088-35.2539C140.088-70.5078 110.889-99.6582 75.6348-99.6582C40.3809-99.6582 11.2793-70.5078 11.2793-35.2539C11.2793 0 40.3809 29.1504 75.6836 29.1504ZM75.6836-68.3594C78.6621-68.3594 80.8105-66.3086 80.8105-63.3789L80.8105-29.9316L80.2246-17.2363L86.6211-24.8535L94.7266-33.1543C95.6055-34.1309 96.8262-34.668 98.1934-34.668C100.928-34.668 102.979-32.666 102.979-30.0293C102.979-28.6133 102.49-27.5391 101.562-26.5625L79.7363-4.49219C78.4668-3.22266 77.2461-2.58789 75.6836-2.58789C74.1211-2.58789 72.9492-3.17383 71.6797-4.49219L49.8047-26.5625C48.877-27.5391 48.4375-28.6133 48.4375-30.0293C48.4375-32.666 50.4395-34.668 53.1738-34.668C54.541-34.668 55.7617-34.082 56.6406-33.1543L64.7949-24.7559L71.0938-17.2852L70.5566-29.9316L70.5566-63.3789C70.5566-66.3086 72.7051-68.3594 75.6836-68.3594Z"/>
  </g>
  <g id="Regular-L" transform="matrix(1 0 0 1 1374.97 1556)">
   <path d="M74.8535 28.3203C109.668 28.3203 138.477-0.488281 138.477-35.2539C138.477-70.0684 109.619-98.877 74.8047-98.877C40.0391-98.877 11.2793-70.0684 11.2793-35.2539C11.2793-0.488281 40.0879 28.3203 74.8535 28.3203ZM74.8535-67.8711C77.3438-67.8711 79.0527-66.1621 79.0527-63.6719L79.0527-28.3203L78.6133-15.625L85.5469-23.584L94.1406-32.2754C94.9707-33.1055 95.9473-33.4961 97.1191-33.4961C99.4629-33.4961 101.221-31.7871 101.221-29.4922C101.221-28.3203 100.83-27.3438 100.049-26.6113L78.125-4.6875C77.0508-3.66211 76.123-3.125 74.8535-3.125C73.6816-3.125 72.7539-3.61328 71.6797-4.6875L49.707-26.6113C48.9258-27.3438 48.584-28.3203 48.584-29.4922C48.584-31.7871 50.293-33.4961 52.6367-33.4961C53.8086-33.4961 54.834-33.0566 55.6152-32.2754L64.2578-23.584L71.0938-15.7227L70.6543-28.3203L70.6543-63.6719C70.6543-66.1621 72.4121-67.8711 74.8535-67.8711Z"/>
  </g>
  <g id="Light-L" transform="matrix(1 0 0 1 1079.18 1556)">
   <path d="M73.9258 27.3926C108.301 27.3926 136.621-0.927734 136.621-35.2539C136.621-69.6289 108.252-97.9492 73.9258-97.9492C39.5508-97.9492 11.2793-69.6289 11.2793-35.2539C11.2793-0.927734 39.5996 27.3926 73.9258 27.3926ZM73.9258-67.2363C75.8789-67.2363 77.1973-65.918 77.1973-63.9648L77.1973-24.5117L76.8555-13.4277L84.3262-21.4355L94.2383-31.4453C94.873-32.1289 95.6055-32.4219 96.5332-32.4219C98.3398-32.4219 99.6582-31.1035 99.6582-29.3945C99.6582-28.4668 99.3652-27.7344 98.7793-27.1484L76.416-4.78516C75.5859-4.00391 74.8535-3.61328 73.9258-3.61328C73.0469-3.61328 72.3145-4.00391 71.5332-4.78516L49.1699-27.1484C48.584-27.7344 48.291-28.4668 48.291-29.3945C48.291-31.1035 49.6094-32.4219 51.3672-32.4219C52.2949-32.4219 53.0762-32.0801 53.7109-31.4453L63.6719-21.4355L70.9961-13.4766L70.6543-24.5117L70.6543-63.9648C70.6543-65.918 72.0703-67.2363 73.9258-67.2363Z"/>
  </g>
  <g id="Thin-L" transform="matrix(1 0 0 1 783.693 1556)">
   <path d="M72.7051 26.1719C106.494 26.1719 134.18-1.51367 134.18-35.2539C134.18-69.043 106.494-96.7285 72.7051-96.7285C38.9648-96.7285 11.2793-69.043 11.2793-35.2539C11.2793-1.51367 38.9648 26.1719 72.7051 26.1719ZM72.7051-66.3574C73.9258-66.3574 74.7559-65.5762 74.7559-64.3555L74.7559-19.4824L74.5117-10.4492L82.666-18.6523L94.3359-30.3223C94.7754-30.8105 95.166-31.0059 95.752-31.0059C96.8262-31.0059 97.6074-30.2246 97.6074-29.1992C97.6074-28.6133 97.4121-28.2227 97.0703-27.832L74.1211-4.93164C73.6816-4.49219 73.2422-4.29688 72.7051-4.29688C72.2168-4.29688 71.7285-4.49219 71.3379-4.93164L48.4375-27.832C48.0957-28.2227 47.9004-28.6133 47.9004-29.1992C47.9004-30.2246 48.6816-31.0059 49.7559-31.0059C50.3418-31.0059 50.7324-30.8105 51.1719-30.3223L62.8906-18.6523L70.8984-10.5469L70.7031-19.4824L70.7031-64.3555C70.7031-65.5762 71.5332-66.3574 72.7051-66.3574Z"/>
  </g>
  <g id="Ultralight-L" transform="matrix(1 0 0 1 487.616 1556)">
   <path d="M72.1191 25.5371C105.566 25.5371 132.91-1.80664 132.91-35.2539C132.91-68.75 105.566-96.0938 72.1191-96.0938C38.623-96.0938 11.2793-68.75 11.2793-35.2539C11.2793-1.80664 38.623 25.5371 72.1191 25.5371ZM72.0703-65.918C72.9492-65.918 73.4863-65.4297 73.4863-64.5508L73.4863-16.8945L73.3398-8.98438L81.7871-17.1875L94.3848-29.7852C94.7266-30.127 94.9707-30.2246 95.3613-30.2246C96.0938-30.2246 96.582-29.7363 96.582-29.1016C96.582-28.7109 96.4355-28.4668 96.1914-28.2227L72.9492-4.98047C72.7051-4.73633 72.4121-4.63867 72.0703-4.63867C71.7773-4.63867 71.4355-4.73633 71.2402-4.98047L48.0957-28.2227C47.8027-28.4668 47.7051-28.7109 47.7051-29.1016C47.7051-29.7363 48.1934-30.2246 48.9258-30.2246C49.3164-30.2246 49.5605-30.127 49.9023-29.7852L62.4512-17.1875L70.8496-9.0332L70.7031-16.8945L70.7031-64.5508C70.7031-65.4297 71.2891-65.918 72.0703-65.918Z"/>
  </g>
  <g id="Black-M" transform="matrix(1 0 0 1 2870.97 1126)">
   <path d="M62.4023 18.457C91.9922 18.457 116.113-5.61523 116.113-35.2051C116.113-64.7949 91.9922-88.8672 62.4023-88.8672C32.8125-88.8672 8.74023-64.7949 8.74023-35.2051C8.74023-5.61523 32.8125 18.457 62.4023 18.457ZM62.4023-63.1836C67.0898-63.1836 70.752-60.0098 70.752-55.6152L70.752-37.7441L69.9219-28.5156L72.168-32.666L76.3672-37.8418C77.5391-39.3066 79.541-40.1855 81.3965-40.1855C85.4492-40.1855 88.1348-37.5977 88.1348-33.8379C88.1348-31.6895 87.5977-30.3223 85.9375-28.4668L69.3359-10.3027C67.5781-8.30078 65.2344-7.27539 62.4023-7.27539C59.5703-7.27539 57.2266-8.30078 55.4688-10.3027L38.916-28.4668C37.2559-30.3223 36.7188-31.6895 36.7188-33.8379C36.7188-37.5977 39.4043-40.1855 43.4082-40.1855C45.3613-40.1855 47.3633-39.3066 48.4375-37.8418L52.7344-32.373L54.9316-28.5156L54.1016-37.7441L54.1016-55.6152C54.1016-60.0098 57.7637-63.1836 62.4023-63.1836Z"/>
  </g>
  <g id="Heavy-M" transform="matrix(1 0 0 1 2575.19 1126)">
   <path d="M61.5234 17.5293C90.5273 17.5293 114.258-6.20117 114.258-35.2051C114.258-64.2578 90.5273-87.9883 61.4746-87.9883C32.4707-87.9883 8.74023-64.2578 8.74023-35.2051C8.74023-6.20117 32.4707 17.5293 61.5234 17.5293ZM61.5234-62.6465C65.5762-62.6465 68.75-59.8633 68.75-55.957L68.75-36.4258L68.0176-26.8066L70.9473-31.4453L75.5859-36.8164C76.6113-38.0859 78.3691-38.8184 80.0293-38.8184C83.6426-38.8184 86.084-36.5234 86.084-33.1543C86.084-31.25 85.5469-29.9805 84.1309-28.418L67.5293-10.5957C65.918-8.83789 63.9648-7.95898 61.5234-7.95898C59.082-7.95898 57.0801-8.78906 55.5176-10.5957L38.8672-28.418C37.4512-29.9805 36.9629-31.25 36.9629-33.1543C36.9629-36.5234 39.4043-38.8184 42.9688-38.8184C44.7266-38.8184 46.4844-38.0859 47.4609-36.8164L52.0996-31.2012L54.9805-26.8555L54.248-36.4258L54.248-55.957C54.248-59.8633 57.4219-62.6465 61.5234-62.6465Z"/>
  </g>
  <g id="Bold-M" transform="matrix(1 0 0 1 2279.5 1126)">
   <path d="M60.498 16.5039C88.8672 16.5039 112.207-6.83594 112.207-35.2051C112.207-63.623 88.8672-86.9629 60.4492-86.9629C32.0312-86.9629 8.74023-63.623 8.74023-35.2051C8.74023-6.83594 32.0801 16.5039 60.498 16.5039ZM60.498-62.0117C63.916-62.0117 66.5527-59.668 66.5527-56.3477L66.5527-34.9121L65.918-24.9023L69.5801-30.0293L74.6582-35.6445C75.5859-36.7188 77.0508-37.3535 78.5156-37.3535C81.5918-37.3535 83.7402-35.2539 83.7402-32.373C83.7402-30.7617 83.252-29.6387 82.1289-28.3691L65.4297-10.8887C64.0625-9.42383 62.4512-8.69141 60.498-8.69141C58.4961-8.69141 56.9336-9.375 55.5664-10.8887L38.8672-28.3691C37.6953-29.6387 37.2559-30.7617 37.2559-32.373C37.2559-35.2539 39.4043-37.3535 42.4316-37.3535C43.9453-37.3535 45.4102-36.7188 46.3379-35.6445L51.416-29.8828L55.0293-24.9512L54.4434-34.9121L54.4434-56.3477C54.4434-59.668 57.0312-62.0117 60.498-62.0117Z"/>
  </g>
  <g id="Semibold-M" transform="matrix(1 0 0 1 1983.5 1126)">
   <path d="M59.7656 15.8203C87.7441 15.8203 110.791-7.27539 110.791-35.2539C110.791-63.2324 87.6953-86.2793 59.7656-86.2793C31.7871-86.2793 8.74023-63.2324 8.74023-35.2539C8.74023-7.27539 31.7871 15.8203 59.7656 15.8203ZM59.7656-61.6211C62.793-61.6211 65.0391-59.5703 65.0391-56.6406L65.0391-33.8379L64.4531-23.584L68.6523-29.1016L74.0234-34.8145C74.8535-35.791 76.123-36.3281 77.4414-36.3281C80.1758-36.3281 82.1289-34.4238 82.1289-31.7871C82.1289-30.4199 81.6895-29.3457 80.7129-28.3203L64.0137-11.1328C62.793-9.81445 61.4746-9.17969 59.7656-9.17969C58.1543-9.17969 56.8359-9.81445 55.5664-11.1328L38.8672-28.3203C37.8418-29.3457 37.4512-30.4199 37.4512-31.7871C37.4512-34.4238 39.4043-36.3281 42.0898-36.3281C43.457-36.3281 44.7266-35.7422 45.5566-34.8145L50.9766-29.0039L55.0781-23.6328L54.541-33.8379L54.541-56.6406C54.541-59.5703 56.7871-61.6211 59.7656-61.6211Z"/>
  </g>
  <g id="Medium-M" transform="matrix(1 0 0 1 1687.3 1126)">
   <path d="M59.2285 15.2344C86.9141 15.2344 109.766-7.61719 109.766-35.2539C109.766-62.8906 86.8652-85.7422 59.1797-85.7422C31.543-85.7422 8.74023-62.8906 8.74023-35.2539C8.74023-7.61719 31.5918 15.2344 59.2285 15.2344ZM59.2285-61.3281C61.9141-61.3281 63.8672-59.4727 63.8672-56.8359L63.8672-33.0566L63.3789-22.6074L67.9688-28.3691L73.5352-34.2285C74.3164-35.0586 75.4395-35.5469 76.6602-35.5469C79.1016-35.5469 80.9082-33.7891 80.9082-31.3965C80.9082-30.127 80.5176-29.1992 79.6387-28.2715L62.9395-11.2793C61.8164-10.1562 60.6934-9.57031 59.2285-9.57031C57.8613-9.57031 56.7383-10.1074 55.6152-11.2793L38.8184-28.2715C37.9883-29.1992 37.5977-30.127 37.5977-31.3965C37.5977-33.7891 39.4043-35.5469 41.8457-35.5469C43.0664-35.5469 44.1895-35.0586 44.9707-34.2285L50.5859-28.3203L55.127-22.6562L54.6387-33.0566L54.6387-56.8359C54.6387-59.4727 56.5918-61.3281 59.2285-61.3281Z"/>
  </g>
  <g id="Regular-M" transform="matrix(1 0 0 1 1391.3 1126)">
   <path d="M58.5449 14.5508C85.791 14.5508 108.35-8.05664 108.35-35.2539C108.35-62.5 85.7422-85.0586 58.4961-85.0586C31.2988-85.0586 8.74023-62.5 8.74023-35.2539C8.74023-8.05664 31.3477 14.5508 58.5449 14.5508ZM58.5449-60.8887C60.791-60.8887 62.3535-59.3262 62.3535-57.0801L62.3535-32.0312L61.9141-21.2891L67.041-27.3926L72.9492-33.3984C73.6328-34.1797 74.5605-34.5215 75.6348-34.5215C77.7344-34.5215 79.3457-32.959 79.3457-30.8594C79.3457-29.7852 78.9551-28.9062 78.2715-28.2227L61.5234-11.5234C60.5469-10.5469 59.668-10.0586 58.5449-10.0586C57.4707-10.0586 56.6406-10.498 55.6152-11.5234L38.8184-28.2227C38.1348-28.9062 37.8418-29.7852 37.8418-30.8594C37.8418-32.959 39.4043-34.5215 41.5039-34.5215C42.5293-34.5215 43.5059-34.1309 44.1895-33.3984L50.1465-27.3926L55.1758-21.3379L54.7363-32.0312L54.7363-57.0801C54.7363-59.3262 56.3477-60.8887 58.5449-60.8887Z"/>
  </g>
  <g id="Light-M" transform="matrix(1 0 0 1 1095.42 1126)">
   <path d="M57.7148 13.7207C84.5215 13.7207 106.689-8.44727 106.689-35.2539C106.689-62.1094 84.5215-84.2285 57.666-84.2285C30.8594-84.2285 8.74023-62.1094 8.74023-35.2539C8.74023-8.44727 30.9082 13.7207 57.7148 13.7207ZM57.7148-60.3027C59.4727-60.3027 60.6934-59.1309 60.6934-57.373L60.6934-28.6133L60.3516-19.2871L65.918-25.4883L72.998-32.666C73.584-33.252 74.2676-33.5449 75.0977-33.5449C76.709-33.5449 77.9297-32.3242 77.9297-30.7617C77.9297-29.9316 77.6855-29.248 77.1484-28.7109L59.9609-11.6211C59.2285-10.8887 58.5938-10.498 57.7148-10.498C56.8848-10.498 56.25-10.8398 55.5176-11.6211L38.3301-28.7109C37.793-29.248 37.5488-29.9316 37.5488-30.7617C37.5488-32.3242 38.7695-33.5449 40.3809-33.5449C41.2109-33.5449 41.8945-33.252 42.4805-32.666L49.6094-25.4883L55.0781-19.3848L54.7852-28.6133L54.7852-57.373C54.7852-59.1309 56.0059-60.3027 57.7148-60.3027Z"/>
  </g>
  <g id="Thin-M" transform="matrix(1 0 0 1 799.806 1126)">
   <path d="M56.6406 12.5977C82.9102 12.5977 104.492-8.98438 104.492-35.2539C104.492-61.5723 82.9102-83.1543 56.5918-83.1543C30.3223-83.1543 8.74023-61.5723 8.74023-35.2539C8.74023-8.98438 30.3223 12.5977 56.6406 12.5977ZM56.6406-59.5703C57.7148-59.5703 58.4473-58.8379 58.4473-57.7148L58.4473-24.1211L58.252-16.6992L64.4043-22.998L73.0957-31.6895C73.4863-32.0801 73.877-32.2754 74.3652-32.2754C75.3906-32.2754 76.123-31.543 76.123-30.6152C76.123-30.0781 75.9277-29.6875 75.5859-29.3457L57.959-11.7188C57.5195-11.3281 57.1289-11.1328 56.6406-11.1328C56.1523-11.1328 55.7129-11.2793 55.3223-11.7188L37.6953-29.3457C37.3535-29.6875 37.207-30.0781 37.207-30.6152C37.207-31.543 37.9395-32.2754 38.916-32.2754C39.4531-32.2754 39.8438-32.0801 40.2344-31.6895L48.877-22.998L54.9805-16.748L54.7852-24.1211L54.7852-57.7148C54.7852-58.8379 55.5664-59.5703 56.6406-59.5703Z"/>
  </g>
  <g id="Ultralight-M" transform="matrix(1 0 0 1 503.656 1126)">
   <path d="M56.0547 12.0605C82.0801 12.0605 103.369-9.22852 103.369-35.2539C103.369-61.2793 82.0801-82.5684 56.0547-82.5684C30.0293-82.5684 8.74023-61.2793 8.74023-35.2539C8.74023-9.22852 30.0293 12.0605 56.0547 12.0605ZM56.0547-59.1797C56.8359-59.1797 57.3242-58.6914 57.3242-57.9102L57.3242-21.7773L57.2266-15.332L63.6719-21.6797L73.1445-31.1523C73.4375-31.4941 73.6816-31.5918 74.0234-31.5918C74.707-31.5918 75.1465-31.1035 75.1465-30.5176C75.1465-30.1758 75.0488-29.9316 74.8047-29.6875L56.8848-11.7676C56.6406-11.5234 56.3477-11.4258 56.0547-11.4258C55.7617-11.4258 55.4688-11.5234 55.2246-11.7676L37.4023-29.6875C37.1582-29.9316 37.0117-30.1758 37.0117-30.5176C37.0117-31.1035 37.5-31.5918 38.1836-31.5918C38.5254-31.5918 38.7695-31.4941 39.0625-31.1523L48.5352-21.6797L54.9316-15.3809L54.7852-21.7773L54.7852-57.9102C54.7852-58.6914 55.3223-59.1797 56.0547-59.1797Z"/>
  </g>
  <g id="Black-S" transform="matrix(1 0 0 1 2884.57 696)">
   <path d="M48.8281 6.78711C71.9727 6.78711 90.8203-12.0605 90.8203-35.2051C90.8203-58.3496 71.9727-77.1973 48.8281-77.1973C25.6836-77.1973 6.83594-58.3496 6.83594-35.2051C6.83594-12.0605 25.6836 6.78711 48.8281 6.78711ZM48.8281-57.0801C52.4414-57.0801 55.2734-54.6387 55.2734-51.2207L55.2734-37.1582L54.6387-29.8828L56.4453-33.1543L59.7656-37.207C60.6445-38.3301 62.207-39.0137 63.6719-39.0137C66.7969-39.0137 68.8965-37.0117 68.8965-34.082C68.8965-32.4219 68.457-31.3477 67.1875-29.9316L54.1992-15.7227C52.832-14.1602 51.0254-13.3789 48.8281-13.3789C46.6309-13.3789 44.8242-14.1602 43.457-15.7227L30.4688-29.9316C29.1992-31.3477 28.7598-32.4219 28.7598-34.082C28.7598-37.0117 30.8594-39.0137 33.9844-39.0137C35.498-39.0137 37.0605-38.3301 37.8906-37.207L41.2598-32.9102L43.0176-29.8828L42.3828-37.1582L42.3828-51.2207C42.3828-54.6387 45.2148-57.0801 48.8281-57.0801Z"/>
  </g>
  <g id="Heavy-S" transform="matrix(1 0 0 1 2588.47 696)">
   <path d="M48.2422 6.15234C70.9961 6.15234 89.5996-12.4512 89.5996-35.2051C89.5996-57.959 70.9961-76.6113 48.1934-76.6113C25.4395-76.6113 6.83594-57.959 6.83594-35.2051C6.83594-12.4512 25.4395 6.15234 48.2422 6.15234ZM48.2422-56.7383C51.4648-56.7383 53.9551-54.541 53.9551-51.4648L53.9551-36.5234L53.3691-28.8086L55.6641-32.4219L59.1309-36.4746C59.9609-37.5 61.3281-38.0859 62.6953-38.0859C65.5273-38.0859 67.4805-36.2305 67.4805-33.5449C67.4805-32.0801 67.041-31.0547 65.918-29.834L52.9785-15.918C51.709-14.5508 50.1465-13.8184 48.2422-13.8184C46.2891-13.8184 44.7754-14.502 43.5059-15.918L30.5176-29.834C29.3945-31.0547 29.0039-32.0801 29.0039-33.5449C29.0039-36.2305 30.9082-38.0859 33.7402-38.0859C35.1562-38.0859 36.5234-37.5 37.3047-36.4746L40.8691-32.2266L43.0664-28.8086L42.4805-36.5234L42.4805-51.4648C42.4805-54.541 45.0195-56.7383 48.2422-56.7383Z"/>
  </g>
  <g id="Bold-S" transform="matrix(1 0 0 1 2292.44 696)">
   <path d="M47.5586 5.46875C69.873 5.46875 88.2324-12.8906 88.2324-35.2539C88.2324-57.5684 69.873-75.9277 47.5098-75.9277C25.1953-75.9277 6.83594-57.5684 6.83594-35.2539C6.83594-12.8906 25.1953 5.46875 47.5586 5.46875ZM47.5586-56.3477C50.3418-56.3477 52.4414-54.4434 52.4414-51.709L52.4414-35.791L51.9531-27.5879L54.7363-31.5918L58.4473-35.6934C59.1797-36.5723 60.4004-37.0605 61.5723-37.0605C64.0625-37.0605 65.8691-35.4004 65.8691-32.959C65.8691-31.6895 65.4785-30.7617 64.5508-29.7363L51.5625-16.1621C50.4395-14.9414 49.1699-14.3555 47.5586-14.3555C45.9473-14.3555 44.6777-14.9414 43.5547-16.1621L30.5664-29.7363C29.5898-30.7617 29.248-31.6895 29.248-32.959C29.248-35.4004 31.0059-37.0605 33.4961-37.0605C34.7168-37.0605 35.9375-36.5723 36.6699-35.6934L40.3809-31.4453L43.1152-27.5879L42.627-35.791L42.627-51.709C42.627-54.4434 44.7266-56.3477 47.5586-56.3477Z"/>
  </g>
  <g id="Semibold-S" transform="matrix(1 0 0 1 1996.2 696)">
   <path d="M47.0703 4.98047C69.0918 4.98047 87.3047-13.1836 87.3047-35.2539C87.3047-57.2754 69.0918-75.4883 47.0215-75.4883C25-75.4883 6.83594-57.2754 6.83594-35.2539C6.83594-13.1836 25.0488 4.98047 47.0703 4.98047ZM47.0703-56.1035C49.5605-56.1035 51.416-54.3457 51.416-51.9043L51.416-35.2539L50.9766-26.7578L54.1504-31.0059L57.959-35.1074C58.6426-35.9375 59.7168-36.377 60.8398-36.377C63.0859-36.377 64.7461-34.7656 64.7461-32.5684C64.7461-31.3965 64.4043-30.5176 63.5742-29.6387L50.5859-16.3086C49.5605-15.2344 48.4863-14.6973 47.0703-14.6973C45.7031-14.6973 44.6289-15.1855 43.5547-16.3086L30.5664-29.6387C29.7852-30.5176 29.4434-31.3965 29.4434-32.5684C29.4434-34.7656 31.0547-36.377 33.3496-36.377C34.4727-36.377 35.5469-35.8887 36.2305-35.1074L40.0879-30.957L43.1641-26.7578L42.7246-35.2539L42.7246-51.9043C42.7246-54.3457 44.5801-56.1035 47.0703-56.1035Z"/>
  </g>
  <g id="Medium-S" transform="matrix(1 0 0 1 1699.83 696)">
   <path d="M46.7285 4.63867C68.5547 4.63867 86.6211-13.4277 86.6211-35.2539C86.6211-57.0801 68.5059-75.1465 46.6797-75.1465C24.8535-75.1465 6.83594-57.0801 6.83594-35.2539C6.83594-13.4277 24.9023 4.63867 46.7285 4.63867ZM46.7285-55.9082C48.9746-55.9082 50.6348-54.2969 50.6348-52.0508L50.6348-34.8633L50.2441-26.123L53.6621-30.5664L57.5684-34.7168C58.252-35.4492 59.2285-35.8398 60.2539-35.8398C62.3535-35.8398 63.916-34.3262 63.916-32.2754C63.916-31.2012 63.5742-30.3711 62.8418-29.5898L49.9023-16.4551C48.9258-15.4297 47.9492-14.9414 46.7285-14.9414C45.5078-14.9414 44.6289-15.4297 43.6035-16.4551L30.6152-29.5898C29.8828-30.3711 29.5898-31.2012 29.5898-32.2754C29.5898-34.3262 31.1035-35.8398 33.2031-35.8398C34.2285-35.8398 35.2051-35.4004 35.8887-34.7168L39.8438-30.5664L43.2129-26.123L42.7734-34.8633L42.7734-52.0508C42.7734-54.2969 44.4336-55.9082 46.7285-55.9082Z"/>
  </g>
  <g id="Regular-S" transform="matrix(1 0 0 1 1403.58 696)">
   <path d="M46.2402 4.15039C67.7734 4.15039 85.6934-13.7207 85.6934-35.2539C85.6934-56.7871 67.7246-74.6582 46.1914-74.6582C24.707-74.6582 6.83594-56.7871 6.83594-35.2539C6.83594-13.7207 24.7559 4.15039 46.2402 4.15039ZM46.2402-55.6152C48.2422-55.6152 49.6582-54.1992 49.6582-52.2461L49.6582-34.375L49.2676-25.293L53.0273-30.0293L57.0801-34.1797C57.7148-34.8145 58.5449-35.1562 59.4727-35.1562C61.377-35.1562 62.8418-33.7402 62.8418-31.8848C62.8418-30.9082 62.5-30.127 61.8652-29.541L48.9258-16.6016C48.0469-15.7227 47.2656-15.2832 46.2402-15.2832C45.2637-15.2832 44.5801-15.6738 43.6523-16.6016L30.6152-29.541C30.0293-30.127 29.7363-30.9082 29.7363-31.8848C29.7363-33.7402 31.1523-35.1562 33.0078-35.1562C33.9844-35.1562 34.8145-34.7656 35.4492-34.1797L39.502-30.0293L43.2617-25.3418L42.8711-34.375L42.8711-52.2461C42.8711-54.1992 44.2871-55.6152 46.2402-55.6152Z"/>
  </g>
  <g id="Light-S" transform="matrix(1 0 0 1 1107.6 696)">
   <path d="M45.5078 3.41797C66.6992 3.41797 84.2285-14.0625 84.2285-35.2539C84.2285-56.4453 66.6504-73.9258 45.5078-73.9258C24.3164-73.9258 6.83594-56.4453 6.83594-35.2539C6.83594-14.0625 24.3652 3.41797 45.5078 3.41797ZM45.5078-55.127C47.0703-55.127 48.1445-54.0039 48.1445-52.4902L48.1445-31.3477L47.8516-23.5352L52.0508-28.3203L57.1289-33.4961C57.666-34.0332 58.3008-34.2773 59.0332-34.2773C60.4492-34.2773 61.5723-33.2031 61.5723-31.7871C61.5723-31.0059 61.3281-30.4199 60.8398-29.9316L47.5586-16.6992C46.875-16.0156 46.2891-15.7227 45.5078-15.7227C44.7754-15.7227 44.2383-15.9668 43.5059-16.6992L30.2246-29.9316C29.7363-30.4199 29.4922-31.0059 29.4922-31.7871C29.4922-33.2031 30.6152-34.2773 32.0312-34.2773C32.7637-34.2773 33.3984-33.9844 33.9355-33.4961L39.0625-28.3203L43.1641-23.584L42.8711-31.3477L42.8711-52.4902C42.8711-54.0039 43.9941-55.127 45.5078-55.127Z"/>
  </g>
  <g id="Thin-S" transform="matrix(1 0 0 1 811.867 696)">
   <path d="M44.5801 2.49023C65.2832 2.49023 82.2754-14.5508 82.2754-35.2539C82.2754-55.957 65.2344-72.998 44.5312-72.998C23.8281-72.998 6.83594-55.957 6.83594-35.2539C6.83594-14.5508 23.877 2.49023 44.5801 2.49023ZM44.5801-54.4434C45.5566-54.4434 46.1914-53.7598 46.1914-52.7832L46.1914-27.3926L46.0449-21.1914L50.7324-26.123L57.2266-32.6172C57.5684-33.0078 57.959-33.1543 58.3984-33.1543C59.2773-33.1543 59.9609-32.4707 59.9609-31.6406C59.9609-31.1523 59.8145-30.8105 59.5215-30.5176L45.752-16.7969C45.4102-16.4062 45.0195-16.2109 44.5801-16.2109C44.1406-16.2109 43.75-16.4062 43.3594-16.7969L29.6387-30.5176C29.3457-30.8105 29.1992-31.1523 29.1992-31.6406C29.1992-32.4707 29.8828-33.1543 30.7617-33.1543C31.2012-33.1543 31.5918-32.959 31.9336-32.6172L38.4277-26.123L43.0664-21.2402L42.9199-27.3926L42.9199-52.7832C42.9199-53.7598 43.6035-54.4434 44.5801-54.4434Z"/>
  </g>
  <g id="Ultralight-S" transform="matrix(1 0 0 1 515.644 696)">
   <path d="M44.043 1.95312C64.502 1.95312 81.2988-14.7949 81.2988-35.2539C81.2988-55.7129 64.502-72.4609 44.043-72.4609C23.584-72.4609 6.83594-55.7129 6.83594-35.2539C6.83594-14.7949 23.584 1.95312 44.043 1.95312ZM44.043-54.1016C44.7754-54.1016 45.2148-53.6621 45.2148-52.9297L45.2148-25.3418L45.0684-20.0195L50.0488-24.9512L57.2754-32.1777C57.5195-32.4707 57.7637-32.5684 58.0566-32.5684C58.6914-32.5684 59.1309-32.1289 59.1309-31.543C59.1309-31.25 59.0332-31.0059 58.7891-30.8105L44.8242-16.8457C44.6289-16.6016 44.3359-16.5039 44.043-16.5039C43.7988-16.5039 43.5059-16.6016 43.2617-16.8457L29.3457-30.8105C29.1504-31.0059 29.0527-31.25 29.0527-31.543C29.0527-32.1289 29.4922-32.5684 30.0781-32.5684C30.4199-32.5684 30.6152-32.4219 30.9082-32.1777L38.0859-24.9512L43.0176-20.0684L42.9199-25.3418L42.9199-52.9297C42.9199-53.6621 43.4082-54.1016 44.043-54.1016Z"/>
  </g>
 </g>
</svg>
