<?xml version="1.0" encoding="UTF-8"?>
<!--Generator: Apple Native CoreSVG 175-->
<!DOCTYPE svg
PUBLIC "-//W3C//DTD SVG 1.1//EN"
       "http://www.w3.org/Graphics/SVG/1.1/DTD/svg11.dtd">
<svg version="1.1" xmlns="http://www.w3.org/2000/svg" xmlns:xlink="http://www.w3.org/1999/xlink" width="3300" height="2200">
 <!--glyph: "", point size: 100.0, font version: "17.3d3e1", template writer version: "65.1"-->
 <g id="Notes">
  <rect height="2200" id="artboard" style="fill:white;opacity:1" width="3300" x="0" y="0"/>
  <line style="fill:none;stroke:black;opacity:1;stroke-width:0.5;" x1="263" x2="3036" y1="292" y2="292"/>
  <text style="stroke:none;fill:black;font-family:sans-serif;font-size:13;font-weight:bold;" transform="matrix(1 0 0 1 263 322)">Weight/Scale Variations</text>
  <text style="stroke:none;fill:black;font-family:sans-serif;font-size:13;text-anchor:middle;" transform="matrix(1 0 0 1 559.711 322)">Ultralight</text>
  <text style="stroke:none;fill:black;font-family:sans-serif;font-size:13;text-anchor:middle;" transform="matrix(1 0 0 1 856.422 322)">Thin</text>
  <text style="stroke:none;fill:black;font-family:sans-serif;font-size:13;text-anchor:middle;" transform="matrix(1 0 0 1 1153.13 322)">Light</text>
  <text style="stroke:none;fill:black;font-family:sans-serif;font-size:13;text-anchor:middle;" transform="matrix(1 0 0 1 1449.84 322)">Regular</text>
  <text style="stroke:none;fill:black;font-family:sans-serif;font-size:13;text-anchor:middle;" transform="matrix(1 0 0 1 1746.56 322)">Medium</text>
  <text style="stroke:none;fill:black;font-family:sans-serif;font-size:13;text-anchor:middle;" transform="matrix(1 0 0 1 2043.27 322)">Semibold</text>
  <text style="stroke:none;fill:black;font-family:sans-serif;font-size:13;text-anchor:middle;" transform="matrix(1 0 0 1 2339.98 322)">Bold</text>
  <text style="stroke:none;fill:black;font-family:sans-serif;font-size:13;text-anchor:middle;" transform="matrix(1 0 0 1 2636.69 322)">Heavy</text>
  <text style="stroke:none;fill:black;font-family:sans-serif;font-size:13;text-anchor:middle;" transform="matrix(1 0 0 1 2933.4 322)">Black</text>
  <line style="fill:none;stroke:black;opacity:1;stroke-width:0.5;" x1="263" x2="3036" y1="1903" y2="1903"/>
  <g transform="matrix(1 0 0 1 263 1933)">
   <path d="M9.24805 0.830078Q10.8691 0.830078 12.2949 0.214844Q13.7207-0.400391 14.8096-1.49414Q15.8984-2.58789 16.5186-4.01367Q17.1387-5.43945 17.1387-7.05078Q17.1387-8.66211 16.5186-10.0879Q15.8984-11.5137 14.8047-12.6074Q13.7109-13.7012 12.2852-14.3164Q10.8594-14.9316 9.23828-14.9316Q7.62695-14.9316 6.20117-14.3164Q4.77539-13.7012 3.69141-12.6074Q2.60742-11.5137 1.9873-10.0879Q1.36719-8.66211 1.36719-7.05078Q1.36719-5.43945 1.9873-4.01367Q2.60742-2.58789 3.69629-1.49414Q4.78516-0.400391 6.21094 0.214844Q7.63672 0.830078 9.24805 0.830078ZM9.24805-0.654297Q7.91992-0.654297 6.7627-1.14746Q5.60547-1.64062 4.73145-2.51953Q3.85742-3.39844 3.36426-4.56055Q2.87109-5.72266 2.87109-7.05078Q2.87109-8.37891 3.35938-9.54102Q3.84766-10.7031 4.72168-11.582Q5.5957-12.4609 6.75293-12.9541Q7.91016-13.4473 9.23828-13.4473Q10.5762-13.4473 11.7334-12.9541Q12.8906-12.4609 13.7695-11.582Q14.6484-10.7031 15.1465-9.54102Q15.6445-8.37891 15.6445-7.05078Q15.6445-5.72266 15.1514-4.56055Q14.6582-3.39844 13.7842-2.51953Q12.9102-1.64062 11.748-1.14746Q10.5859-0.654297 9.24805-0.654297ZM5.6543-7.05078Q5.6543-6.72852 5.85938-6.52832Q6.06445-6.32812 6.40625-6.32812L8.51562-6.32812L8.51562-4.20898Q8.51562-3.88672 8.71094-3.67676Q8.90625-3.4668 9.23828-3.4668Q9.56055-3.4668 9.77051-3.67676Q9.98047-3.88672 9.98047-4.20898L9.98047-6.32812L12.0898-6.32812Q12.4219-6.32812 12.627-6.52832Q12.832-6.72852 12.832-7.05078Q12.832-7.38281 12.627-7.58789Q12.4219-7.79297 12.0898-7.79297L9.98047-7.79297L9.98047-9.90234Q9.98047-10.2344 9.77051-10.4443Q9.56055-10.6543 9.23828-10.6543Q8.90625-10.6543 8.71094-10.4443Q8.51562-10.2344 8.51562-9.90234L8.51562-7.79297L6.40625-7.79297Q6.06445-7.79297 5.85938-7.58789Q5.6543-7.38281 5.6543-7.05078Z"/>
  </g>
  <g transform="matrix(1 0 0 1 281.867 1933)">
   <path d="M11.709 2.91016Q13.75 2.91016 15.5518 2.12891Q17.3535 1.34766 18.7305-0.0292969Q20.1074-1.40625 20.8887-3.20801Q21.6699-5.00977 21.6699-7.05078Q21.6699-9.0918 20.8887-10.8936Q20.1074-12.6953 18.7305-14.0723Q17.3535-15.4492 15.5469-16.2305Q13.7402-17.0117 11.6992-17.0117Q9.6582-17.0117 7.85645-16.2305Q6.05469-15.4492 4.68262-14.0723Q3.31055-12.6953 2.5293-10.8936Q1.74805-9.0918 1.74805-7.05078Q1.74805-5.00977 2.5293-3.20801Q3.31055-1.40625 4.6875-0.0292969Q6.06445 1.34766 7.86621 2.12891Q9.66797 2.91016 11.709 2.91016ZM11.709 1.25Q9.98047 1.25 8.47656 0.605469Q6.97266-0.0390625 5.83496-1.17676Q4.69727-2.31445 4.05762-3.81836Q3.41797-5.32227 3.41797-7.05078Q3.41797-8.7793 4.05762-10.2832Q4.69727-11.7871 5.83008-12.9297Q6.96289-14.0723 8.4668-14.7119Q9.9707-15.3516 11.6992-15.3516Q13.4277-15.3516 14.9316-14.7119Q16.4355-14.0723 17.5781-12.9297Q18.7207-11.7871 19.3652-10.2832Q20.0098-8.7793 20.0098-7.05078Q20.0098-5.32227 19.3701-3.81836Q18.7305-2.31445 17.5928-1.17676Q16.4551-0.0390625 14.9463 0.605469Q13.4375 1.25 11.709 1.25ZM7.17773-7.05078Q7.17773-6.69922 7.41211-6.47461Q7.64648-6.25 8.01758-6.25L10.8887-6.25L10.8887-3.36914Q10.8887-2.99805 11.1133-2.76855Q11.3379-2.53906 11.6895-2.53906Q12.0605-2.53906 12.29-2.76855Q12.5195-2.99805 12.5195-3.36914L12.5195-6.25L15.4004-6.25Q15.7715-6.25 16.001-6.47461Q16.2305-6.69922 16.2305-7.05078Q16.2305-7.42188 16.001-7.65137Q15.7715-7.88086 15.4004-7.88086L12.5195-7.88086L12.5195-10.752Q12.5195-11.1328 12.29-11.3623Q12.0605-11.5918 11.6895-11.5918Q11.3379-11.5918 11.1133-11.3574Q10.8887-11.123 10.8887-10.752L10.8887-7.88086L8.01758-7.88086Q7.63672-7.88086 7.40723-7.65137Q7.17773-7.42188 7.17773-7.05078Z"/>
  </g>
  <g transform="matrix(1 0 0 1 305.646 1933)">
   <path d="M14.9707 5.66406Q17.0605 5.66406 18.96 5.01465Q20.8594 4.36523 22.4512 3.19336Q24.043 2.02148 25.2197 0.429688Q26.3965-1.16211 27.0459-3.06641Q27.6953-4.9707 27.6953-7.05078Q27.6953-9.14062 27.0459-11.04Q26.3965-12.9395 25.2197-14.5312Q24.043-16.123 22.4512-17.2998Q20.8594-18.4766 18.9551-19.126Q17.0508-19.7754 14.9609-19.7754Q12.8711-19.7754 10.9717-19.126Q9.07227-18.4766 7.48535-17.2998Q5.89844-16.123 4.72168-14.5312Q3.54492-12.9395 2.90039-11.04Q2.25586-9.14062 2.25586-7.05078Q2.25586-4.9707 2.90527-3.06641Q3.55469-1.16211 4.72656 0.429688Q5.89844 2.02148 7.49023 3.19336Q9.08203 4.36523 10.9814 5.01465Q12.8809 5.66406 14.9707 5.66406ZM14.9707 3.84766Q13.1641 3.84766 11.5283 3.2959Q9.89258 2.74414 8.53516 1.74805Q7.17773 0.751953 6.17676-0.610352Q5.17578-1.97266 4.62891-3.6084Q4.08203-5.24414 4.08203-7.05078Q4.08203-8.86719 4.62891-10.5029Q5.17578-12.1387 6.17188-13.501Q7.16797-14.8633 8.52539-15.8594Q9.88281-16.8555 11.5186-17.4023Q13.1543-17.9492 14.9609-17.9492Q16.7773-17.9492 18.4131-17.4023Q20.0488-16.8555 21.4111-15.8594Q22.7734-14.8633 23.7695-13.501Q24.7656-12.1387 25.3174-10.5029Q25.8691-8.86719 25.8691-7.05078Q25.8789-5.24414 25.332-3.6084Q24.7852-1.97266 23.7842-0.610352Q22.7832 0.751953 21.4209 1.74805Q20.0586 2.74414 18.4229 3.2959Q16.7871 3.84766 14.9707 3.84766ZM9.19922-7.05078Q9.19922-6.66992 9.45801-6.4209Q9.7168-6.17188 10.1172-6.17188L14.0625-6.17188L14.0625-2.2168Q14.0625-1.81641 14.3115-1.55762Q14.5605-1.29883 14.9512-1.29883Q15.3516-1.29883 15.6104-1.55273Q15.8691-1.80664 15.8691-2.2168L15.8691-6.17188L19.8242-6.17188Q20.2246-6.17188 20.4785-6.4209Q20.7324-6.66992 20.7324-7.05078Q20.7324-7.46094 20.4785-7.71484Q20.2246-7.96875 19.8242-7.96875L15.8691-7.96875L15.8691-11.9141Q15.8691-12.3242 15.6104-12.583Q15.3516-12.8418 14.9512-12.8418Q14.5605-12.8418 14.3115-12.583Q14.0625-12.3242 14.0625-11.9141L14.0625-7.96875L10.1172-7.96875Q9.70703-7.96875 9.45312-7.71484Q9.19922-7.46094 9.19922-7.05078Z"/>
  </g>
  <text style="stroke:none;fill:black;font-family:sans-serif;font-size:13;font-weight:bold;" transform="matrix(1 0 0 1 263 1953)">Design Variations</text>
  <text style="stroke:none;fill:black;font-family:sans-serif;font-size:13;" transform="matrix(1 0 0 1 263 1971)">Symbols are supported in up to nine weights and three scales.</text>
  <text style="stroke:none;fill:black;font-family:sans-serif;font-size:13;" transform="matrix(1 0 0 1 263 1989)">For optimal layout with text and other symbols, vertically align</text>
  <text style="stroke:none;fill:black;font-family:sans-serif;font-size:13;" transform="matrix(1 0 0 1 263 2007)">symbols with the adjacent text.</text>
  <line style="fill:none;stroke:#00AEEF;stroke-width:0.5;opacity:1.0;" x1="776" x2="776" y1="1919" y2="1933"/>
  <g transform="matrix(1 0 0 1 776 1933)">
   <path d="M3.31055 0.15625Q3.70117 0.15625 3.91602-0.00976562Q4.13086-0.175781 4.26758-0.585938L5.52734-4.0332L11.2891-4.0332L12.5488-0.585938Q12.6855-0.175781 12.9004-0.00976562Q13.1152 0.15625 13.4961 0.15625Q13.8867 0.15625 14.1162-0.0585938Q14.3457-0.273438 14.3457-0.644531Q14.3457-0.869141 14.2383-1.17188L9.6582-13.3691Q9.48242-13.8184 9.17969-14.043Q8.87695-14.2676 8.4082-14.2676Q7.5-14.2676 7.17773-13.3789L2.59766-1.16211Q2.49023-0.859375 2.49023-0.634766Q2.49023-0.263672 2.70996-0.0537109Q2.92969 0.15625 3.31055 0.15625ZM6.00586-5.51758L8.37891-12.0898L8.42773-12.0898L10.8008-5.51758Z"/>
  </g>
  <line style="fill:none;stroke:#00AEEF;stroke-width:0.5;opacity:1.0;" x1="793.197" x2="793.197" y1="1919" y2="1933"/>
  <text style="stroke:none;fill:black;font-family:sans-serif;font-size:13;font-weight:bold;" transform="matrix(1 0 0 1 776 1953)">Margins</text>
  <text style="stroke:none;fill:black;font-family:sans-serif;font-size:13;" transform="matrix(1 0 0 1 776 1971)">Leading and trailing margins on the left and right side of each symbol</text>
  <text style="stroke:none;fill:black;font-family:sans-serif;font-size:13;" transform="matrix(1 0 0 1 776 1989)">can be adjusted by modifying the x-location of the margin guidelines.</text>
  <text style="stroke:none;fill:black;font-family:sans-serif;font-size:13;" transform="matrix(1 0 0 1 776 2007)">Modifications are automatically applied proportionally to all</text>
  <text style="stroke:none;fill:black;font-family:sans-serif;font-size:13;" transform="matrix(1 0 0 1 776 2025)">scales and weights.</text>
  <g transform="matrix(1 0 0 1 1289 1933)">
   <path d="M2.8418 1.86523L4.54102 3.57422Q5.18555 4.22852 5.90332 4.17969Q6.62109 4.13086 7.31445 3.35938L18.0078-8.42773L17.041-9.4043L6.42578 2.27539Q6.16211 2.57812 5.89355 2.61719Q5.625 2.65625 5.27344 2.30469L4.10156 1.14258Q3.75 0.791016 3.79395 0.522461Q3.83789 0.253906 4.14062-0.0195312L15.6152-10.8203L14.6387-11.7871L3.04688-0.898438Q2.30469-0.214844 2.25098 0.498047Q2.19727 1.21094 2.8418 1.86523ZM9.25781-16.3281Q8.94531-16.0254 8.90625-15.6348Q8.86719-15.2441 9.04297-14.9512Q9.21875-14.6777 9.55566-14.541Q9.89258-14.4043 10.3809-14.5215Q11.4746-14.7754 12.5977-14.7314Q13.7207-14.6875 14.7949-13.9844L14.209-12.5293Q13.9551-11.9043 14.0674-11.4404Q14.1797-10.9766 14.5801-10.5664L16.875-8.25195Q17.2363-7.88086 17.5781-7.82227Q17.9199-7.76367 18.3398-7.8418L19.4043-8.03711L20.0684-7.36328L20.0293-6.80664Q20-6.43555 20.1221-6.12305Q20.2441-5.81055 20.6055-5.44922L21.3672-4.70703Q21.7285-4.3457 22.1533-4.33105Q22.5781-4.31641 22.9297-4.66797L25.8398-7.58789Q26.1914-7.93945 26.1816-8.35449Q26.1719-8.76953 25.8105-9.13086L25.0391-9.89258Q24.6875-10.2539 24.3799-10.3857Q24.0723-10.5176 23.7109-10.4883L23.1348-10.4395L22.4902-11.0742L22.7344-12.1973Q22.832-12.6172 22.6953-12.9834Q22.5586-13.3496 22.1191-13.7891L19.9219-15.9766Q18.6719-17.2168 17.2607-17.8369Q15.8496-18.457 14.4189-18.4814Q12.9883-18.5059 11.665-17.959Q10.3418-17.4121 9.25781-16.3281ZM10.752-15.957Q11.6602-16.6211 12.7002-16.9043Q13.7402-17.1875 14.8047-17.085Q15.8691-16.9824 16.8701-16.5137Q17.8711-16.0449 18.7012-15.2051L21.1328-12.793Q21.3086-12.6172 21.3525-12.4512Q21.3965-12.2852 21.3379-12.0312L21.0156-10.5469L22.5195-9.0625L23.5059-9.12109Q23.6914-9.13086 23.7891-9.09668Q23.8867-9.0625 24.0332-8.91602L24.6094-8.33984L22.168-5.89844L21.5918-6.47461Q21.4453-6.62109 21.4062-6.71875Q21.3672-6.81641 21.377-7.01172L21.4453-7.98828L19.9512-9.47266L18.4277-9.21875Q18.1836-9.16992 18.042-9.2041Q17.9004-9.23828 17.7148-9.41406L15.7129-11.416Q15.5176-11.5918 15.4932-11.7529Q15.4688-11.9141 15.5859-12.1875L16.4648-14.2773Q15.293-15.3711 13.8281-15.791Q12.3633-16.2109 10.8398-15.7617Q10.7227-15.7324 10.6885-15.8057Q10.6543-15.8789 10.752-15.957Z"/>
  </g>
  <text style="stroke:none;fill:black;font-family:sans-serif;font-size:13;font-weight:bold;" transform="matrix(1 0 0 1 1289 1953)">Exporting</text>
  <text style="stroke:none;fill:black;font-family:sans-serif;font-size:13;" transform="matrix(1 0 0 1 1289 1971)">Symbols should be outlined when exporting to ensure the</text>
  <text style="stroke:none;fill:black;font-family:sans-serif;font-size:13;" transform="matrix(1 0 0 1 1289 1989)">design is preserved when submitting to Xcode.</text>
  <text id="template-version" style="stroke:none;fill:black;font-family:sans-serif;font-size:13;text-anchor:end;" transform="matrix(1 0 0 1 3036 1933)">Template v.3.0</text>
  <text style="stroke:none;fill:black;font-family:sans-serif;font-size:13;text-anchor:end;" transform="matrix(1 0 0 1 3036 1951)">Requires Xcode 13 or greater</text>
  <text id="descriptive-name" style="stroke:none;fill:black;font-family:sans-serif;font-size:13;text-anchor:end;" transform="matrix(1 0 0 1 3036 1969)">Generated from checkmark.app.fill</text>
  <text style="stroke:none;fill:black;font-family:sans-serif;font-size:13;text-anchor:end;" transform="matrix(1 0 0 1 3036 1987)">Typeset at 100 points</text>
  <text style="stroke:none;fill:black;font-family:sans-serif;font-size:13;" transform="matrix(1 0 0 1 263 726)">Small</text>
  <text style="stroke:none;fill:black;font-family:sans-serif;font-size:13;" transform="matrix(1 0 0 1 263 1156)">Medium</text>
  <text style="stroke:none;fill:black;font-family:sans-serif;font-size:13;" transform="matrix(1 0 0 1 263 1586)">Large</text>
 </g>
 <g id="Guides">
  <g id="H-reference" style="fill:#27AAE1;stroke:none;" transform="matrix(1 0 0 1 339 696)">
   <path d="M0.993347 0L3.6377 0L29.3282-67.1326L30.0301-67.1326L30.0301-70.459L28.1227-70.459ZM11.6882-24.4797L46.9818-24.4797L46.2311-26.7288L12.4382-26.7288ZM55.1193 0L57.7637 0L30.6381-70.459L29.4327-70.459L29.4327-67.1326Z"/>
  </g>
  <line id="Baseline-S" style="fill:none;stroke:#27AAE1;opacity:1;stroke-width:0.5;" x1="263" x2="3036" y1="696" y2="696"/>
  <line id="Capline-S" style="fill:none;stroke:#27AAE1;opacity:1;stroke-width:0.5;" x1="263" x2="3036" y1="625.541" y2="625.541"/>
  <g id="H-reference" style="fill:#27AAE1;stroke:none;" transform="matrix(1 0 0 1 339 1126)">
   <path d="M0.993347 0L3.6377 0L29.3282-67.1326L30.0301-67.1326L30.0301-70.459L28.1227-70.459ZM11.6882-24.4797L46.9818-24.4797L46.2311-26.7288L12.4382-26.7288ZM55.1193 0L57.7637 0L30.6381-70.459L29.4327-70.459L29.4327-67.1326Z"/>
  </g>
  <line id="Baseline-M" style="fill:none;stroke:#27AAE1;opacity:1;stroke-width:0.5;" x1="263" x2="3036" y1="1126" y2="1126"/>
  <line id="Capline-M" style="fill:none;stroke:#27AAE1;opacity:1;stroke-width:0.5;" x1="263" x2="3036" y1="1055.54" y2="1055.54"/>
  <g id="H-reference" style="fill:#27AAE1;stroke:none;" transform="matrix(1 0 0 1 339 1556)">
   <path d="M0.993347 0L3.6377 0L29.3282-67.1326L30.0301-67.1326L30.0301-70.459L28.1227-70.459ZM11.6882-24.4797L46.9818-24.4797L46.2311-26.7288L12.4382-26.7288ZM55.1193 0L57.7637 0L30.6381-70.459L29.4327-70.459L29.4327-67.1326Z"/>
  </g>
  <line id="Baseline-L" style="fill:none;stroke:#27AAE1;opacity:1;stroke-width:0.5;" x1="263" x2="3036" y1="1556" y2="1556"/>
  <line id="Capline-L" style="fill:none;stroke:#27AAE1;opacity:1;stroke-width:0.5;" x1="263" x2="3036" y1="1485.54" y2="1485.54"/>
  <line id="left-margin-Regular-M" style="fill:none;stroke:#00AEEF;stroke-width:0.5;opacity:1.0;" x1="1392.97" x2="1392.97" y1="1030.78" y2="1150.12"/>
  <line id="right-margin-Regular-M" style="fill:none;stroke:#00AEEF;stroke-width:0.5;opacity:1.0;" x1="1506.72" x2="1506.72" y1="1030.78" y2="1150.12"/>
 </g>
 <g id="Symbols">
  <g id="Black-L" transform="matrix(1 0 0 1 2860.1 1556)">
   <path d="M114.03-94.14C118.67-92.89 122.68-90.6 126.05-87.27C129.38-83.99 131.65-80.04 132.87-75.42C134.09-70.81 134.71-65.02 134.71-58.05L134.71-12.28C134.71-5.32 134.09 0.45 132.87 5.05C131.65 9.64 129.38 13.61 126.05 16.94C122.73 20.27 118.74 22.55 114.07 23.8C109.4 25.05 103.63 25.68 96.75 25.68L50.98 25.68C44.11 25.68 38.35 25.05 33.71 23.8C29.06 22.55 25.06 20.27 21.68 16.94C18.36 13.61 16.09 9.64 14.86 5.05C13.64 0.45 13.03-5.32 13.03-12.28L13.03-58.08C13.03-65.03 13.64-70.8 14.86-75.39C16.09-79.99 18.36-83.94 21.68-87.27C25.02-90.6 29.02-92.89 33.68-94.14C38.34-95.38 44.1-96 50.97-96L96.75-96C103.63-96 109.39-95.38 114.03-94.14ZM63.06-4.08C64.37-3.35 65.83-2.98 67.43-2.98C70.64-2.98 73.23-4.42 75.21-7.3L104.18-50.72C104.83-51.66 105.31-52.6 105.61-53.53C105.91-54.47 106.06-55.36 106.06-56.19C106.06-58.47 105.21-60.34 103.52-61.8C101.83-63.27 99.86-64 97.62-64C94.78-64 92.36-62.44 90.37-59.33L67.35-22.93L57.53-34.57C56.64-35.62 55.69-36.4 54.67-36.92C53.64-37.44 52.49-37.7 51.21-37.7C48.98-37.7 47.05-36.92 45.42-35.34C43.79-33.77 42.97-31.85 42.97-29.6C42.97-27.53 43.76-25.56 45.34-23.7L59.44-7.12C60.55-5.83 61.76-4.81 63.06-4.08Z"/>
  </g>
  <g id="Heavy-L" transform="matrix(1 0 0 1 2564.28 1556)">
   <path d="M112.74-93.27C117.32-92.11 121.27-89.89 124.59-86.6C127.86-83.36 130.07-79.46 131.2-74.91C132.34-70.36 132.91-64.78 132.91-58.15L132.91-11.97C132.91-5.36 132.34 0.21 131.2 4.74C130.07 9.27 127.86 13.18 124.59 16.48C121.32 19.75 117.38 21.97 112.78 23.13C108.18 24.3 102.61 24.88 96.06 24.88L49.88 24.88C43.34 24.88 37.78 24.3 33.2 23.13C28.63 21.97 24.68 19.75 21.35 16.48C18.08 13.19 15.87 9.28 14.74 4.74C13.6 0.21 13.03-5.36 13.03-11.97L13.03-58.24C13.03-64.81 13.6-70.36 14.74-74.89C15.88-79.42 18.09-83.32 21.36-86.59C24.65-89.88 28.59-92.11 33.18-93.27C37.77-94.42 43.31-95 49.82-95L96.06-95C102.61-95 108.16-94.42 112.74-93.27ZM62.39-4.2C63.58-3.53 64.92-3.2 66.39-3.2C69.32-3.2 71.69-4.52 73.48-7.17L102.71-51.49C103.3-52.35 103.74-53.22 104.05-54.09C104.35-54.97 104.5-55.8 104.5-56.59C104.5-58.66 103.73-60.34 102.2-61.65C100.66-62.96 98.89-63.61 96.88-63.61C94.3-63.61 92.12-62.21 90.34-59.41L66.26-21.22L55.6-34.13C54.76-35.16 53.86-35.91 52.92-36.39C51.97-36.87 50.91-37.11 49.73-37.11C47.71-37.11 45.97-36.4 44.51-34.97C43.05-33.54 42.32-31.81 42.32-29.77C42.32-27.87 43.04-26.07 44.47-24.36L59.05-7.04C60.08-5.81 61.19-4.87 62.39-4.2Z"/>
  </g>
  <g id="Bold-L" transform="matrix(1 0 0 1 2268.7 1556)">
   <path d="M111.21-92.41C115.67-91.35 119.52-89.21 122.75-86C125.93-82.85 128.04-79.05 129.09-74.61C130.14-70.17 130.66-64.81 130.66-58.54L130.66-11.83C130.66-5.58 130.14-0.24 129.09 4.19C128.04 8.61 125.93 12.43 122.75 15.63C119.56 18.82 115.73 20.94 111.24 22.02C106.75 23.09 101.4 23.63 95.2 23.63L48.49 23.63C42.29 23.63 36.95 23.09 32.49 22.02C28.02 20.94 24.17 18.82 20.95 15.63C17.76 12.44 15.65 8.62 14.6 4.19C13.55-0.24 13.03-5.58 13.03-11.83L13.03-58.71C13.03-64.88 13.56-70.18 14.61-74.59C15.66-79.01 17.78-82.81 20.96-85.99C24.17-89.2 28-91.33 32.47-92.4C36.94-93.47 42.24-94 48.36-94L95.2-94C101.4-94 106.74-93.47 111.21-92.41ZM61.6-4.62C62.65-4.04 63.81-3.75 65.1-3.75C67.66-3.75 69.72-4.92 71.28-7.25L100.99-52.82C101.48-53.57 101.87-54.34 102.17-55.13C102.48-55.91 102.63-56.66 102.63-57.37C102.63-59.16 101.96-60.61 100.63-61.72C99.3-62.84 97.78-63.39 96.07-63.39C93.85-63.39 91.97-62.19 90.44-59.79L64.94-19.28L53.1-33.81C52.32-34.78 51.52-35.48 50.68-35.91C49.85-36.33 48.91-36.54 47.87-36.54C46.12-36.54 44.63-35.92 43.38-34.69C42.14-33.45 41.52-31.96 41.52-30.21C41.52-28.54 42.13-26.95 43.37-25.44L58.66-7.16C59.58-6.05 60.56-5.2 61.6-4.62Z"/>
  </g>
  <g id="Semibold-L" transform="matrix(1 0 0 1 1972.76 1556)">
   <path d="M110.15-91.5C114.54-90.51 118.31-88.43 121.47-85.28C124.59-82.19 126.64-78.46 127.63-74.1C128.62-69.73 129.11-64.53 129.11-58.49L129.11-11.43C129.11-5.42 128.62-0.24 127.63 4.11C126.64 8.47 124.59 12.22 121.47 15.36C118.36 18.48 114.59 20.55 110.18 21.56C105.77 22.57 100.57 23.08 94.6 23.08L47.54 23.08C41.57 23.08 36.38 22.57 31.99 21.56C27.6 20.55 23.83 18.48 20.67 15.36C17.55 12.23 15.49 8.48 14.51 4.12C13.52-0.24 13.03-5.42 13.03-11.43L13.03-58.72C13.03-64.62 13.53-69.74 14.52-74.08C15.51-78.42 17.56-82.15 20.68-85.27C23.83-88.41 27.6-90.49 31.98-91.49C36.37-92.5 41.49-93 47.36-93L94.6-93C100.57-93 105.76-92.5 110.15-91.5ZM61.07-4.6C62.01-4.08 63.06-3.82 64.22-3.82C66.53-3.82 68.38-4.87 69.77-6.98L99.81-53.42C100.24-54.1 100.6-54.8 100.89-55.52C101.19-56.24 101.34-56.93 101.34-57.59C101.34-59.19 100.75-60.48 99.56-61.46C98.37-62.44 97.02-62.93 95.52-62.93C93.54-62.93 91.88-61.87 90.52-59.74L64.03-17.63L51.38-33.28C50.65-34.21 49.91-34.87 49.15-35.25C48.39-35.64 47.53-35.83 46.59-35.83C45.03-35.83 43.71-35.28 42.61-34.18C41.52-33.07 40.97-31.75 40.97-30.19C40.97-28.68 41.52-27.25 42.63-25.87L58.4-6.93C59.24-5.89 60.13-5.12 61.07-4.6Z"/>
  </g>
  <g id="Medium-L" transform="matrix(1 0 0 1 1676.64 1556)">
   <path d="M109.35-90.58C113.68-89.63 117.4-87.6 120.51-84.5C123.58-81.45 125.59-77.77 126.52-73.46C127.46-69.16 127.93-64.07 127.93-58.21L127.93-10.89C127.93-5.06 127.46 0.01 126.52 4.3C125.59 8.6 123.58 12.3 120.51 15.4C117.44 18.47 113.73 20.49 109.37 21.45C105.02 22.42 99.94 22.9 94.14 22.9L46.82 22.9C41.02 22.9 35.95 22.42 31.62 21.45C27.28 20.49 23.56 18.47 20.45 15.4C17.38 12.31 15.38 8.62 14.44 4.31C13.5 0.01 13.03-5.06 13.03-10.89L13.03-58.48C13.03-64.18 13.5-69.17 14.45-73.45C15.4-77.73 17.4-81.4 20.47-84.47C23.58-87.58 27.29-89.61 31.61-90.56C35.94-91.52 40.93-92 46.59-92L94.14-92C99.94-92 105.01-91.53 109.35-90.58ZM60.67-4.34C61.53-3.86 62.49-3.63 63.55-3.63C65.66-3.63 67.36-4.6 68.63-6.54L98.92-53.63C99.29-54.25 99.62-54.9 99.92-55.58C100.22-56.25 100.36-56.9 100.36-57.52C100.36-58.97 99.82-60.13 98.74-61.01C97.66-61.89 96.45-62.33 95.1-62.33C93.31-62.33 91.8-61.37 90.58-59.46L63.34-16.13L50.07-32.63C49.38-33.53 48.69-34.16 47.98-34.52C47.28-34.87 46.49-35.05 45.62-35.05C44.2-35.05 43.01-34.55 42.03-33.55C41.05-32.54 40.56-31.34 40.56-29.93C40.56-28.55 41.06-27.22 42.06-25.96L58.2-6.51C58.98-5.53 59.81-4.81 60.67-4.34Z"/>
  </g>
  <g id="Regular-L" transform="matrix(1 0 0 1 1380.69 1556)">
   <path d="M108.3-90.67C112.56-89.78 116.21-87.82 119.25-84.78C122.26-81.78 124.21-78.17 125.08-73.94C125.96-69.71 126.4-64.78 126.4-59.15L126.4-11.48C126.4-5.89 125.96-0.98 125.08 3.24C124.21 7.47 122.26 11.1 119.25 14.14C116.24 17.15 112.6 19.11 108.32 20.01C104.05 20.92 99.12 21.37 93.55 21.37L45.88 21.37C40.3 21.37 35.39 20.92 31.13 20.01C26.87 19.11 23.22 17.15 20.17 14.14C17.17 11.12 15.22 7.49 14.35 3.26C13.47-0.98 13.03-5.89 13.03-11.48L13.03-59.48C13.03-64.91 13.47-69.72 14.36-73.93C15.25-78.13 17.19-81.74 20.2-84.75C23.25-87.79 26.89-89.76 31.13-90.66C35.37-91.55 40.19-92 45.6-92L93.55-92C99.12-92 104.04-91.56 108.3-90.67ZM60.13-5.3C60.89-4.89 61.74-4.68 62.68-4.68C64.53-4.68 66.02-5.54 67.13-7.27L97.74-55.21C98.05-55.76 98.36-56.35 98.65-56.96C98.94-57.57 99.09-58.16 99.09-58.73C99.09-59.99 98.62-60.99 97.67-61.74C96.73-62.48 95.69-62.86 94.55-62.86C93-62.86 91.7-62.04 90.65-60.39L62.44-15.48L48.36-33.09C47.72-33.95 47.09-34.54 46.46-34.86C45.83-35.18 45.12-35.34 44.34-35.34C43.12-35.34 42.09-34.9 41.26-34.03C40.43-33.16 40.01-32.12 40.01-30.91C40.01-29.68 40.44-28.5 41.31-27.37L57.94-7.27C58.64-6.37 59.38-5.71 60.13-5.3Z"/>
  </g>
  <g id="Light-L" transform="matrix(1 0 0 1 1084.85 1556)">
   <path d="M107.64-89.61C111.64-88.69 115.03-86.84 117.8-84.06C120.56-81.34 122.39-77.99 123.3-74.02C124.21-70.05 124.66-65.1 124.66-59.18L124.66-11.18C124.66-5.29 124.21-0.36 123.3 3.59C122.39 7.55 120.56 10.92 117.8 13.69C115.05 16.45 111.67 18.29 107.66 19.23C103.65 20.16 98.71 20.63 92.85 20.63L44.85 20.63C38.98 20.63 34.05 20.16 30.05 19.23C26.05 18.29 22.67 16.45 19.89 13.69C17.13 10.95 15.3 7.59 14.39 3.62C13.48-0.36 13.03-5.29 13.03-11.18L13.03-59.69C13.03-65.3 13.49-70.07 14.42-74C15.34-77.92 17.18-81.26 19.94-84.01C22.71-86.79 26.08-88.65 30.05-89.59C34.02-90.53 38.79-91 44.38-91L92.85-91C98.71-91 103.64-90.54 107.64-89.61ZM60.01-5.35C60.57-5.04 61.22-4.88 61.95-4.88C63.31-4.88 64.44-5.53 65.31-6.81L97.24-56.54C97.47-56.96 97.69-57.4 97.91-57.86C98.13-58.32 98.24-58.75 98.24-59.16C98.24-60.1 97.87-60.87 97.15-61.47C96.43-62.07 95.64-62.36 94.79-62.36C93.6-62.36 92.59-61.73 91.75-60.47L61.78-13.27L45.97-32.31C45.48-32.95 45-33.39 44.53-33.64C44.06-33.88 43.51-34.01 42.9-34.01C41.97-34.01 41.19-33.68 40.54-33.02C39.89-32.35 39.57-31.56 39.57-30.62C39.57-29.69 39.91-28.77 40.6-27.86L58.38-6.81C58.91-6.15 59.45-5.66 60.01-5.35Z"/>
  </g>
  <g id="Thin-L" transform="matrix(1 0 0 1 789.29 1556)">
   <path d="M106.769-88.54C110.422-87.56 113.461-85.86 115.885-83.44C118.302-81.07 119.987-78.07 120.938-74.44C121.889-70.82 122.365-65.85 122.365-59.55L122.365-11.12C122.365-4.82 121.889 0.13 120.938 3.73C119.987 7.34 118.302 10.35 115.885 12.77C113.467 15.19 110.43 16.89 106.773 17.87C103.117 18.85 98.164 19.34 91.913 19.34L43.482 19.34C37.232 19.34 32.279 18.85 28.625 17.87C24.972 16.89 21.933 15.19 19.509 12.77C17.092 10.4 15.408 7.4 14.457 3.77C13.506 0.14 13.03-4.82 13.03-11.12L13.03-60.28C13.03-66.14 13.517-70.85 14.492-74.41C15.467-77.96 17.164-80.95 19.582-83.37C22.005-85.79 25.02-87.5 28.625-88.5C32.231-89.5 36.943-90 42.763-90L91.913-90C98.164-90 103.116-89.51 106.769-88.54ZM59.826-5.74C60.124-5.56 60.502-5.47 60.961-5.47C61.677-5.47 62.32-5.83 62.89-6.53L96.554-58.63C96.673-58.86 96.792-59.11 96.91-59.37C97.028-59.64 97.088-59.86 97.088-60.05C97.088-60.57 96.87-61.04 96.436-61.43C96.002-61.83 95.549-62.03 95.078-62.03C94.38-62.03 93.748-61.65 93.182-60.9L60.871-10.65L42.789-31.59C42.499-31.95 42.222-32.2 41.957-32.34C41.693-32.49 41.361-32.56 40.961-32.56C40.435-32.56 39.97-32.37 39.568-31.99C39.165-31.61 38.964-31.13 38.964-30.56C38.964-30.03 39.191-29.46 39.647-28.83L58.939-6.53C59.233-6.18 59.529-5.91 59.826-5.74Z"/>
  </g>
  <g id="Ultralight-L" transform="matrix(1 0 0 1 493.167 1556)">
   <path d="M106.323-87.5C109.8-86.5 112.66-84.88 114.903-82.63C117.148-80.45 118.756-77.63 119.729-74.18C120.702-70.72 121.188-65.75 121.188-59.25L121.188-10.6C121.188-4.09 120.702 0.87 119.729 4.29C118.756 7.72 117.148 10.55 114.903 12.79C112.657 15.04 109.796 16.66 106.321 17.66C102.846 18.66 97.883 19.16 91.434 19.16L42.784 19.16C36.335 19.16 31.372 18.66 27.895 17.66C24.418 16.66 21.558 15.04 19.315 12.79C17.071 10.61 15.462 7.79 14.489 4.34C13.516 0.89 13.03-4.09 13.03-10.6L13.03-60.09C13.03-66.09 13.53-70.77 14.531-74.13C15.532-77.5 17.155-80.3 19.401-82.55C21.643-84.79 24.475-86.43 27.895-87.46C31.315-88.49 35.995-89 41.935-89L91.434-89C97.883-89 102.846-88.5 106.323-87.5ZM59.74-5.44C59.903-5.34 60.145-5.28 60.465-5.28C60.847-5.28 61.244-5.49 61.657-5.9L96.21-59.2C96.274-59.34 96.34-59.49 96.407-59.66C96.475-59.82 96.508-59.93 96.508-60.01C96.508-60.32 96.365-60.63 96.079-60.92C95.793-61.22 95.512-61.37 95.235-61.37C94.788-61.37 94.35-61.12 93.923-60.63L60.417-8.82L41.167-30.74C40.979-30.94 40.806-31.09 40.648-31.19C40.49-31.28 40.267-31.33 39.979-31.33C39.656-31.33 39.356-31.21 39.078-30.97C38.801-30.74 38.662-30.42 38.662-30.03C38.662-29.71 38.83-29.31 39.164-28.84L59.235-5.9C59.409-5.7 59.577-5.55 59.74-5.44Z"/>
  </g>
  <g id="Black-M" transform="matrix(1 0 0 1 2873.15 1126)">
   <path d="M92.3-81.44C95.91-80.39 99.03-78.58 101.66-75.99C104.24-73.45 106.04-70.38 107.07-66.78C108.09-63.19 108.6-58.52 108.6-52.78L108.6-17.64C108.6-11.91 108.09-7.25 107.07-3.68C106.04-0.1 104.24 2.98 101.66 5.57C99.08 8.15 95.97 9.96 92.33 11.01C88.69 12.05 84.05 12.57 78.39 12.57L43.25 12.57C37.59 12.57 32.95 12.05 29.34 11.01C25.72 9.96 22.6 8.15 19.98 5.57C17.39 2.98 15.59-0.1 14.57-3.68C13.54-7.25 13.03-11.91 13.03-17.64L13.03-52.79C13.03-58.52 13.54-63.18 14.57-66.75C15.59-70.33 17.39-73.41 19.98-75.99C22.56-78.58 25.67-80.39 29.31-81.44C32.94-82.48 37.59-83 43.25-83L78.39-83C84.05-83 88.68-82.48 92.3-81.44ZM52.33-10.94C53.41-10.33 54.62-10.03 55.96-10.03C58.61-10.03 60.76-11.21 62.42-13.58L84.81-46.69C85.37-47.47 85.76-48.23 85.98-48.99C86.2-49.75 86.31-50.47 86.31-51.13C86.31-53.03 85.6-54.61 84.18-55.85C82.76-57.1 81.11-57.72 79.21-57.72C76.83-57.72 74.79-56.41 73.1-53.79L55.94-26.81L48.82-34.93C48.11-35.73 47.34-36.35 46.5-36.77C45.66-37.2 44.72-37.42 43.66-37.42C41.79-37.42 40.17-36.76 38.78-35.44C37.39-34.13 36.7-32.52 36.7-30.62C36.7-28.91 37.37-27.28 38.7-25.74L49.36-13.41C50.26-12.37 51.25-11.55 52.33-10.94Z"/>
  </g>
  <g id="Heavy-M" transform="matrix(1 0 0 1 2577.23 1126)">
   <path d="M91.1-80.57C94.67-79.62 97.76-77.85 100.36-75.29C102.92-72.76 104.66-69.72 105.6-66.16C106.54-62.61 107.01-58.14 107.01-52.77L107.01-17.25C107.01-11.89 106.54-7.44 105.6-3.9C104.66-0.36 102.92 2.7 100.36 5.27C97.8 7.82 94.72 9.58 91.13 10.54C87.53 11.5 83.08 11.98 77.78 11.98L42.26 11.98C36.96 11.98 32.52 11.5 28.94 10.54C25.37 9.58 22.28 7.82 19.68 5.27C17.12 2.7 15.38-0.35 14.44-3.9C13.5-7.44 13.03-11.89 13.03-17.25L13.03-52.81C13.03-58.16 13.5-62.6 14.44-66.14C15.38-69.68 17.13-72.73 19.68-75.28C22.25-77.85 25.33-79.61 28.92-80.57C32.51-81.52 36.95-82 42.24-82L77.78-82C83.08-82 87.52-81.52 91.1-80.57ZM51.67-10.95C52.66-10.4 53.77-10.12 54.99-10.12C57.42-10.12 59.38-11.21 60.89-13.39L83.42-47.22C83.91-47.93 84.28-48.64 84.51-49.36C84.74-50.07 84.85-50.74 84.85-51.37C84.85-53.1 84.21-54.52 82.92-55.63C81.64-56.74 80.15-57.29 78.46-57.29C76.3-57.29 74.47-56.11 72.96-53.76L54.92-25.24L47.14-34.47C46.47-35.27 45.74-35.87 44.96-36.26C44.19-36.66 43.31-36.86 42.34-36.86C40.65-36.86 39.19-36.26 37.95-35.07C36.71-33.87 36.1-32.42 36.1-30.72C36.1-29.14 36.7-27.65 37.9-26.23L48.92-13.26C49.77-12.28 50.68-11.51 51.67-10.95Z"/>
  </g>
  <g id="Bold-M" transform="matrix(1 0 0 1 2281.41 1126)">
   <path d="M89.76-79.72C93.29-78.87 96.34-77.16 98.91-74.62C101.43-72.11 103.12-69.1 103.96-65.59C104.81-62.08 105.23-57.84 105.23-52.87L105.23-16.93C105.23-11.98 104.81-7.76 103.96-4.26C103.12-0.76 101.43 2.26 98.91 4.81C96.38 7.34 93.34 9.04 89.78 9.9C86.23 10.77 82.01 11.2 77.1 11.2L41.16 11.2C36.25 11.2 32.03 10.77 28.5 9.9C24.97 9.04 21.92 7.34 19.35 4.81C16.82 2.27 15.14-0.76 14.29-4.26C13.45-7.76 13.03-11.98 13.03-16.93L13.03-52.95C13.03-57.87 13.45-62.07 14.3-65.57C15.14-69.07 16.83-72.08 19.36-74.61C21.91-77.16 24.95-78.86 28.49-79.72C32.03-80.57 36.23-81 41.1-81L77.1-81C82.01-81 86.22-80.57 89.76-79.72ZM50.94-11.08C51.83-10.59 52.82-10.34 53.91-10.34C56.1-10.34 57.85-11.33 59.18-13.3L81.86-47.92C82.29-48.56 82.62-49.21 82.86-49.87C83.11-50.53 83.23-51.16 83.23-51.76C83.23-53.29 82.66-54.53 81.52-55.49C80.39-56.44 79.09-56.92 77.62-56.92C75.71-56.92 74.11-55.89 72.8-53.84L53.8-23.6L45.27-34.07C44.63-34.87 43.95-35.45 43.25-35.81C42.54-36.17 41.75-36.35 40.87-36.35C39.38-36.35 38.1-35.82 37.03-34.76C35.96-33.71 35.42-32.43 35.42-30.94C35.42-29.52 35.95-28.18 37-26.9L48.45-13.22C49.22-12.29 50.05-11.57 50.94-11.08Z"/>
  </g>
  <g id="Semibold-M" transform="matrix(1 0 0 1 1985.32 1126)">
   <path d="M88.83-78.82C92.33-78.04 95.36-76.38 97.9-73.84C100.41-71.35 102.06-68.36 102.83-64.88C103.61-61.4 104-57.32 104-52.64L104-16.4C104-11.74 103.61-7.67 102.83-4.2C102.06-0.73 100.41 2.28 97.9 4.81C95.39 7.32 92.38 8.97 88.86 9.77C85.34 10.57 81.26 10.97 76.63 10.97L40.39 10.97C35.77 10.97 31.7 10.57 28.2 9.77C24.7 8.97 21.67 7.32 19.13 4.81C16.62 2.28 14.97-0.72 14.2-4.2C13.42-7.67 13.03-11.74 13.03-16.4L13.03-52.74C13.03-57.36 13.42-61.4 14.2-64.87C14.98-68.34 16.62-71.33 19.13-73.84C21.67-76.37 24.69-78.03 28.19-78.82C31.69-79.61 35.74-80 40.32-80L76.63-80C81.26-80 85.33-79.61 88.83-78.82ZM50.45-10.85C51.27-10.4 52.18-10.17 53.18-10.17C55.2-10.17 56.81-11.09 58.01-12.93L80.8-48.09C81.17-48.69 81.48-49.29 81.74-49.92C81.99-50.54 82.12-51.14 82.12-51.71C82.12-53.11 81.6-54.23 80.57-55.08C79.53-55.93 78.36-56.35 77.04-56.35C75.32-56.35 73.87-55.43 72.7-53.58L53.03-22.16L43.99-33.49C43.37-34.28 42.73-34.85 42.07-35.18C41.41-35.52 40.67-35.68 39.86-35.68C38.5-35.68 37.35-35.2 36.4-34.24C35.45-33.28 34.97-32.12 34.97-30.77C34.97-29.46 35.44-28.22 36.4-27.05L48.12-12.87C48.85-11.98 49.63-11.31 50.45-10.85Z"/>
  </g>
  <g id="Medium-M" transform="matrix(1 0 0 1 1689.07 1126)">
   <path d="M88.13-78.9C91.61-78.17 94.61-76.54 97.14-74.01C99.64-71.53 101.25-68.56 101.98-65.1C102.7-61.65 103.07-57.68 103.07-53.21L103.07-16.75C103.07-12.31 102.7-8.36 101.98-4.91C101.25-1.46 99.64 1.53 97.14 4.05C94.65 6.55 91.65 8.17 88.16 8.92C84.66 9.66 80.7 10.04 76.28 10.04L39.82 10.04C35.4 10.04 31.45 9.66 27.97 8.92C24.49 8.17 21.48 6.55 18.95 4.05C16.46 1.53 14.85-1.45 14.12-4.91C13.39-8.36 13.03-12.31 13.03-16.75L13.03-53.34C13.03-57.73 13.39-61.65 14.12-65.09C14.85-68.54 16.47-71.51 18.96-74.01C21.49-76.53 24.49-78.16 27.96-78.9C31.44-79.63 35.36-80 39.73-80L76.28-80C80.7-80 84.65-79.63 88.13-78.9ZM50.06-11.45C50.83-11.03 51.68-10.82 52.61-10.82C54.5-10.82 56-11.68 57.11-13.41L79.98-48.99C80.32-49.54 80.61-50.12 80.87-50.72C81.14-51.31 81.27-51.89 81.27-52.44C81.27-53.73 80.79-54.76 79.83-55.53C78.87-56.3 77.8-56.69 76.6-56.69C75.01-56.69 73.68-55.84 72.62-54.14L52.43-21.83L43.01-33.81C42.41-34.6 41.79-35.16 41.17-35.47C40.55-35.79 39.85-35.94 39.09-35.94C37.83-35.94 36.77-35.5 35.91-34.61C35.05-33.72 34.61-32.65 34.61-31.41C34.61-30.19 35.05-29.02 35.93-27.93L47.87-13.37C48.56-12.51 49.29-11.87 50.06-11.45Z"/>
  </g>
  <g id="Regular-M" transform="matrix(1 0 0 1 1392.97 1126)">
   <path d="M87.21-78C90.66-77.34 93.64-75.75 96.15-73.24C98.63-70.77 100.2-67.82 100.86-64.39C101.52-60.97 101.85-57.16 101.85-52.97L101.85-16.21C101.85-12.06 101.52-8.27 100.86-4.84C100.2-1.42 98.63 1.55 96.15 4.06C93.68 6.54 90.71 8.12 87.24 8.8C83.77 9.48 79.97 9.82 75.82 9.82L39.06 9.82C34.92 9.82 31.12 9.48 27.67 8.8C24.22 8.12 21.24 6.54 18.73 4.06C16.25 1.56 14.68-1.41 14.02-4.84C13.36-8.27 13.03-12.06 13.03-16.21L13.03-53.12C13.03-57.22 13.36-60.97 14.03-64.39C14.69-67.81 16.26-70.75 18.74-73.23C21.25-75.74 24.23-77.33 27.67-78C31.11-78.67 34.87-79 38.96-79L75.82-79C79.97-79 83.76-78.67 87.21-78ZM49.78-11.12C50.48-10.74 51.25-10.55 52.09-10.55C53.81-10.55 55.17-11.34 56.16-12.93L79.13-49.05C79.42-49.56 79.7-50.09 79.97-50.65C80.24-51.21 80.37-51.76 80.37-52.29C80.37-53.45 79.94-54.36 79.09-55.02C78.23-55.69 77.28-56.02 76.24-56.02C74.82-56.02 73.65-55.27 72.73-53.78L51.87-20.3L41.95-33.12C41.37-33.91 40.79-34.45 40.21-34.74C39.63-35.03 39-35.18 38.3-35.18C37.18-35.18 36.24-34.78 35.49-33.99C34.74-33.19 34.37-32.24 34.37-31.15C34.37-30.03 34.75-28.97 35.53-27.97L47.75-12.93C48.4-12.1 49.08-11.5 49.78-11.12Z"/>
  </g>
  <g id="Light-M" transform="matrix(1 0 0 1 1097.04 1126)">
   <path d="M86.62-77.95C89.84-77.25 92.58-75.77 94.85-73.5C97.1-71.27 98.57-68.55 99.26-65.36C99.95-62.17 100.29-58.34 100.29-53.89L100.29-16.85C100.29-12.42 99.95-8.61 99.26-5.42C98.57-2.24 97.1 0.49 94.85 2.76C92.6 5.01 89.87 6.49 86.64 7.2C83.41 7.91 79.6 8.26 75.18 8.26L38.14 8.26C33.73 8.26 29.92 7.91 26.7 7.2C23.49 6.49 20.74 5.01 18.47 2.76C16.22 0.51 14.75-2.22 14.06-5.41C13.37-8.6 13.03-12.42 13.03-16.85L13.03-54.2C13.03-58.47 13.38-62.18 14.08-65.35C14.78-68.51 16.25-71.22 18.5-73.47C20.77-75.74 23.5-77.23 26.7-77.94C29.9-78.65 33.62-79 37.86-79L75.18-79C79.6-79 83.41-78.65 86.62-77.95ZM49.46-12.17C49.98-11.88 50.57-11.73 51.23-11.73C52.51-11.73 53.54-12.33 54.33-13.52L78.47-51.25C78.69-51.64 78.89-52.04 79.1-52.47C79.3-52.89 79.4-53.3 79.4-53.68C79.4-54.55 79.07-55.26 78.41-55.79C77.75-56.31 77.03-56.58 76.24-56.58C75.16-56.58 74.24-56.01 73.5-54.86L51.07-19.32L39.6-33.42C39.15-34.02 38.71-34.43 38.27-34.65C37.84-34.88 37.34-34.99 36.79-34.99C35.94-34.99 35.22-34.68 34.64-34.08C34.06-33.47 33.76-32.74 33.76-31.89C33.76-31.04 34.07-30.21 34.69-29.41L47.94-13.52C48.43-12.91 48.94-12.45 49.46-12.17Z"/>
  </g>
  <g id="Thin-M" transform="matrix(1 0 0 1 801.355 1126)">
   <path d="M85.842-76.88C88.748-76.14 91.178-74.79 93.133-72.84C95.079-70.92 96.415-68.52 97.143-65.64C97.871-62.75 98.235-58.91 98.235-54.11L98.235-16.68C98.235-11.89 97.871-8.06 97.143-5.19C96.415-2.33 95.079 0.09 93.133 2.04C91.186 3.99 88.758 5.33 85.849 6.08C82.939 6.83 79.105 7.2 74.346 7.2L36.918 7.2C32.16 7.2 28.328 6.83 25.422 6.08C22.516 5.33 20.086 3.99 18.132 2.04C16.186 0.12 14.849-2.28 14.122-5.17C13.394-8.05 13.03-11.89 13.03-16.68L13.03-54.63C13.03-59.12 13.402-62.78 14.147-65.61C14.891-68.45 16.236-70.84 18.183-72.78C20.137-74.74 22.55-76.1 25.422-76.86C28.294-77.62 31.958-78 36.416-78L74.346-78C79.105-78 82.937-77.63 85.842-76.88ZM49.295-12.41C49.582-12.24 49.933-12.16 50.348-12.16C51.044-12.16 51.646-12.5 52.154-13.17L77.858-53.02C77.974-53.24 78.089-53.47 78.202-53.72C78.315-53.97 78.372-54.18 78.372-54.37C78.372-54.87 78.172-55.3 77.773-55.65C77.374-56 76.95-56.18 76.503-56.18C75.856-56.18 75.284-55.83 74.787-55.14L50.261-16.87L36.746-32.68C36.478-33.02 36.219-33.25 35.969-33.39C35.719-33.52 35.416-33.59 35.059-33.59C34.565-33.59 34.135-33.41 33.77-33.05C33.406-32.7 33.223-32.26 33.223-31.73C33.223-31.24 33.425-30.72 33.829-30.18L48.446-13.17C48.725-12.83 49.008-12.57 49.295-12.41Z"/>
  </g>
  <g id="Ultralight-M" transform="matrix(1 0 0 1 505.171 1126)">
   <path d="M85.442-75.85C88.189-75.08 90.459-73.8 92.252-72.01C94.043-70.26 95.312-68.02 96.059-65.29C96.806-62.57 97.18-58.72 97.18-53.74L97.18-16.11C97.18-11.14 96.806-7.29 96.059-4.59C95.312-1.88 94.043 0.37 92.252 2.16C90.46 3.95 88.19 5.23 85.443 6C82.696 6.77 78.854 7.15 73.917 7.15L36.293 7.15C31.356 7.15 27.514 6.77 24.767 6C22.02 5.23 19.75 3.95 17.958 2.16C16.167 0.41 14.898-1.83 14.151-4.56C13.404-7.28 13.03-11.14 13.03-16.11L13.03-54.36C13.03-58.96 13.414-62.6 14.181-65.26C14.949-67.93 16.229-70.16 18.021-71.95C19.812-73.74 22.061-75.03 24.767-75.82C27.473-76.61 31.108-77 35.674-77L73.917-77C78.854-77 82.696-76.62 85.442-75.85ZM49.223-12.04C49.39-11.94 49.618-11.89 49.908-11.89C50.305-11.89 50.687-12.09 51.054-12.5L77.556-53.43C77.622-53.57 77.689-53.72 77.756-53.87C77.824-54.03 77.858-54.15 77.858-54.24C77.858-54.55 77.724-54.83 77.458-55.09C77.192-55.35 76.922-55.48 76.649-55.48C76.227-55.48 75.829-55.25 75.456-54.79L49.859-15.13L35.297-31.81C35.121-32.01 34.955-32.16 34.801-32.25C34.646-32.34 34.441-32.38 34.184-32.38C33.872-32.38 33.59-32.27 33.337-32.04C33.085-31.82 32.958-31.52 32.958-31.16C32.958-30.85 33.106-30.49 33.402-30.08L48.717-12.5C48.888-12.3 49.057-12.15 49.223-12.04Z"/>
  </g>
  <g id="Black-S" transform="matrix(1 0 0 1 2883.29 696)">
   <path d="M75.48-71.73C78.31-70.884 80.75-69.452 82.81-67.434C84.82-65.448 86.25-63.047 87.08-60.231C87.91-57.416 88.32-53.697 88.32-49.074L88.32-21.633C88.32-17.01 87.91-13.299 87.08-10.5C86.25-7.7 84.82-5.292 82.81-3.273C80.79-1.255 78.35 0.177 75.51 1.023C72.66 1.87 68.95 2.293 64.4 2.293L36.96 2.293C32.4 2.293 28.7 1.87 25.87 1.023C23.04 0.177 20.6-1.255 18.55-3.273C16.53-5.292 15.11-7.7 14.28-10.5C13.45-13.299 13.03-17.01 13.03-21.633L13.03-49.074C13.03-53.697 13.45-57.408 14.28-60.207C15.11-63.006 16.53-65.415 18.55-67.434C20.57-69.452 23-70.884 25.85-71.73C28.7-72.577 32.4-73 36.96-73L64.4-73C68.95-73 72.65-72.577 75.48-71.73ZM43.99-16.268C44.85-15.779 45.82-15.535 46.89-15.535C49.01-15.535 50.73-16.479 52.07-18.367L69.65-44.197C70.1-44.816 70.41-45.426 70.57-46.028C70.74-46.631 70.82-47.192 70.82-47.713C70.82-49.243 70.25-50.512 69.11-51.522C67.97-52.531 66.64-53.035 65.11-53.035C63.19-53.035 61.54-51.977 60.17-49.861L46.89-29.061L41.42-35.164C40.87-35.783 40.26-36.263 39.59-36.605C38.93-36.946 38.17-37.117 37.32-37.117C35.83-37.117 34.52-36.588 33.39-35.53C32.27-34.472 31.71-33.178 31.71-31.649C31.71-30.281 32.24-28.979 33.32-27.742L41.62-18.221C42.34-17.407 43.13-16.756 43.99-16.268Z"/>
  </g>
  <g id="Heavy-S" transform="matrix(1 0 0 1 2587.16 696)">
   <path d="M74.53-70.851C77.36-70.086 79.8-68.686 81.86-66.652C83.89-64.651 85.28-62.245 86.03-59.433C86.78-56.621 87.16-53.077 87.16-48.8L87.16-21.071C87.16-16.802 86.78-13.267 86.03-10.468C85.28-7.669 83.89-5.252 81.86-3.218C79.83-1.192 77.4 0.205 74.55 0.975C71.71 1.744 68.18 2.129 63.96 2.129L36.23 2.129C32.01 2.129 28.49 1.744 25.66 0.975C22.83 0.205 20.39-1.192 18.33-3.218C16.3-5.252 14.91-7.669 14.16-10.468C13.41-13.267 13.03-16.802 13.03-21.071L13.03-48.812C13.03-53.081 13.41-56.615 14.16-59.414C14.91-62.214 16.3-64.627 18.33-66.652C20.36-68.686 22.8-70.086 25.64-70.851C28.48-71.617 32.01-72 36.23-72L63.96-72C68.18-72 71.7-71.617 74.53-70.851ZM43.45-16.006C44.26-15.553 45.16-15.326 46.16-15.326C48.14-15.326 49.75-16.216 50.97-17.997L68.52-44.23C68.93-44.81 69.22-45.39 69.41-45.969C69.59-46.548 69.68-47.094 69.68-47.607C69.68-49.022 69.15-50.184 68.1-51.093C67.05-52.002 65.83-52.457 64.44-52.457C62.67-52.457 61.17-51.491 59.93-49.56L46.11-27.71L40.27-34.597C39.73-35.239 39.14-35.721 38.5-36.044C37.87-36.366 37.16-36.528 36.37-36.528C34.98-36.528 33.79-36.039 32.77-35.062C31.75-34.084 31.25-32.896 31.25-31.497C31.25-30.214 31.74-28.997 32.72-27.844L41.21-17.885C41.89-17.086 42.64-16.46 43.45-16.006Z"/>
  </g>
  <g id="Bold-S" transform="matrix(1 0 0 1 2291.1 696)">
   <path d="M73.47-69.987C76.29-69.311 78.74-67.948 80.8-65.897C82.84-63.879 84.19-61.466 84.86-58.659C85.52-55.851 85.86-52.502 85.86-48.612L85.86-20.561C85.86-16.687 85.52-13.35 84.86-10.551C84.19-7.751 82.84-5.326 80.8-3.275C78.77-1.241 76.33 0.118 73.49 0.802C70.65 1.485 67.31 1.827 63.47 1.827L35.42 1.827C31.58 1.827 28.24 1.485 25.42 0.802C22.6 0.118 20.15-1.241 18.08-3.275C16.05-5.326 14.7-7.751 14.03-10.551C13.36-13.35 13.03-16.687 13.03-20.561L13.03-48.637C13.03-52.51 13.36-55.847 14.03-58.647C14.7-61.446 16.05-63.863 18.08-65.897C20.13-67.948 22.58-69.311 25.41-69.987C28.24-70.662 31.58-71 35.42-71L63.47-71C67.31-71 70.64-70.662 73.47-69.987ZM42.85-15.845C43.6-15.43 44.43-15.223 45.34-15.223C47.18-15.223 48.65-16.053 49.76-17.713L67.26-44.398C67.62-44.935 67.9-45.48 68.1-46.033C68.31-46.587 68.41-47.116 68.41-47.62C68.41-48.906 67.93-49.948 66.98-50.745C66.03-51.543 64.93-51.941 63.7-51.941C62.1-51.941 60.76-51.079 59.67-49.354L45.24-26.331L38.99-34.095C38.45-34.762 37.89-35.246 37.29-35.547C36.7-35.848 36.03-35.999 35.3-35.999C34.05-35.999 32.97-35.556 32.08-34.669C31.18-33.781 30.74-32.711 30.74-31.458C30.74-30.27 31.18-29.147 32.06-28.089L40.75-17.64C41.4-16.858 42.1-16.26 42.85-15.845Z"/>
  </g>
  <g id="Semibold-S" transform="matrix(1 0 0 1 1994.84 696)">
   <path d="M72.73-70.08C75.55-69.467 78-68.129 80.07-66.066C82.12-64.036 83.44-61.619 84.05-58.814C84.66-56.01 84.96-52.796 84.96-49.172L84.96-20.898C84.96-17.297 84.66-14.097 84.05-11.297C83.44-8.498 82.12-6.067 80.07-4.004C78.03-1.964 75.6-0.631 72.76-0.007C69.92 0.617 66.71 0.93 63.13 0.93L34.86 0.93C31.28 0.93 28.08 0.617 25.26-0.007C22.43-0.631 19.99-1.964 17.91-4.004C15.87-6.067 14.55-8.498 13.94-11.297C13.33-14.097 13.03-17.297 13.03-20.898L13.03-49.205C13.03-52.807 13.33-56.007 13.94-58.806C14.55-61.606 15.87-64.026 17.91-66.066C19.98-68.129 22.42-69.467 25.25-70.08C28.07-70.693 31.28-71 34.86-71L63.13-71C66.71-71 69.91-70.693 72.73-70.08ZM42.42-16.414C43.13-16.025 43.91-15.831 44.76-15.831C46.5-15.831 47.88-16.62 48.9-18.197L66.38-45.193C66.7-45.7 66.97-46.222 67.19-46.757C67.41-47.293 67.52-47.81 67.52-48.309C67.52-49.506 67.08-50.464 66.19-51.185C65.31-51.905 64.3-52.266 63.17-52.266C61.69-52.266 60.46-51.474 59.47-49.891L44.62-26.06L38.09-34.428C37.56-35.113 37.01-35.599 36.44-35.885C35.88-36.171 35.25-36.314 34.55-36.314C33.39-36.314 32.4-35.902 31.59-35.077C30.78-34.252 30.37-33.264 30.37-32.111C30.37-30.988 30.78-29.93 31.58-28.937L40.42-18.15C41.04-17.381 41.71-16.802 42.42-16.414Z"/>
  </g>
  <g id="Medium-S" transform="matrix(1 0 0 1 1698.47 696)">
   <path d="M72.18-70.151C75-69.585 77.44-68.266 79.52-66.194C81.57-64.155 82.87-61.735 83.43-58.932C84-56.13 84.28-53.018 84.28-49.597L84.28-21.154C84.28-17.76 84-14.663 83.43-11.863C82.87-9.064 81.57-6.628 79.52-4.557C77.48-2.512 75.04-1.2 72.2-0.62C69.37-0.041 66.26 0.249 62.88 0.249L34.43 0.249C31.05 0.249 27.95-0.041 25.13-0.62C22.31-1.2 19.86-2.512 17.79-4.557C15.74-6.628 14.44-9.064 13.87-11.863C13.31-14.663 13.03-17.76 13.03-21.154L13.03-49.637C13.03-53.031 13.31-56.128 13.87-58.928C14.44-61.727 15.74-64.149 17.79-66.194C19.86-68.266 22.31-69.585 25.13-70.151C27.95-70.717 31.05-71 34.43-71L62.88-71C66.26-71 69.36-70.717 72.18-70.151ZM42.1-16.853C42.78-16.485 43.52-16.301 44.33-16.301C45.99-16.301 47.3-17.058 48.26-18.572L65.72-45.804C66.02-46.289 66.28-46.792 66.51-47.314C66.74-47.837 66.85-48.345 66.85-48.839C66.85-49.968 66.44-50.864 65.6-51.526C64.77-52.188 63.83-52.52 62.78-52.52C61.4-52.52 60.25-51.782 59.33-50.307L44.17-25.862L37.42-34.689C36.89-35.387 36.36-35.874 35.81-36.149C35.26-36.424 34.66-36.562 34-36.562C32.9-36.562 31.98-36.173 31.23-35.395C30.48-34.617 30.1-33.69 30.1-32.614C30.1-31.541 30.48-30.532 31.24-29.589L40.18-18.546C40.79-17.786 41.43-17.221 42.1-16.853Z"/>
  </g>
  <g id="Regular-S" transform="matrix(1 0 0 1 1402.2 696)">
   <path d="M71.45-69.243C74.27-68.739 76.72-67.445 78.8-65.361C80.85-63.31 82.13-60.885 82.63-58.086C83.14-55.286 83.39-52.308 83.39-49.15L83.39-20.488C83.39-17.363 83.14-14.401 82.63-11.602C82.13-8.802 80.85-6.361 78.8-4.277C76.75-2.227 74.31-0.941 71.48-0.42C68.65 0.101 65.67 0.361 62.54 0.361L33.88 0.361C30.75 0.361 27.78 0.101 24.97-0.42C22.15-0.941 19.7-2.227 17.62-4.277C15.57-6.361 14.29-8.802 13.79-11.602C13.28-14.401 13.03-17.363 13.03-20.488L13.03-49.199C13.03-52.324 13.28-55.286 13.79-58.086C14.29-60.885 15.57-63.31 17.62-65.361C19.7-67.445 22.15-68.739 24.97-69.243C27.78-69.748 30.75-70 33.88-70L62.54-70C65.67-70 68.64-69.748 71.45-69.243ZM41.7-16.415C42.33-16.073 43.02-15.902 43.77-15.902C45.33-15.902 46.56-16.618 47.43-18.051L64.87-45.59C65.13-46.046 65.38-46.526 65.62-47.03C65.87-47.535 65.99-48.031 65.99-48.519C65.99-49.561 65.61-50.375 64.84-50.961C64.08-51.547 63.22-51.84 62.28-51.84C61.01-51.84 59.97-51.173 59.15-49.838L43.58-24.594L36.55-34.018C36.02-34.734 35.5-35.222 34.98-35.482C34.46-35.743 33.89-35.873 33.27-35.873C32.27-35.873 31.43-35.515 30.76-34.799C30.09-34.083 29.76-33.236 29.76-32.26C29.76-31.251 30.1-30.307 30.78-29.428L39.87-18.051C40.45-17.302 41.06-16.757 41.7-16.415Z"/>
  </g>
  <g id="Light-S" transform="matrix(1 0 0 1 1106.18 696)">
   <path d="M70.93-68.198C73.54-67.663 75.78-66.46 77.65-64.588C79.5-62.75 80.69-60.534 81.22-57.941C81.75-55.349 82.01-52.357 82.01-48.968L82.01-20.048C82.01-16.681 81.75-13.704 81.22-11.116C80.69-8.529 79.5-6.299 77.65-4.428C75.8-2.579 73.57-1.381 70.95-0.835C68.33-0.289 65.34-0.016 61.98-0.016L33.06-0.016C29.71-0.016 26.72-0.289 24.11-0.835C21.5-1.381 19.26-2.579 17.39-4.428C15.54-6.289 14.35-8.516 13.82-11.109C13.29-13.701 13.03-16.681 13.03-20.048L13.03-49.153C13.03-52.429 13.3-55.356 13.83-57.934C14.37-60.511 15.56-62.724 17.41-64.573C19.28-66.445 21.51-67.65 24.11-68.19C26.71-68.73 29.64-69 32.91-69L61.98-69C65.34-69 68.32-68.733 70.93-68.198ZM41.58-16.251C42.06-15.991 42.59-15.861 43.18-15.861C44.35-15.861 45.28-16.403 45.98-17.488L64.45-46.443C64.65-46.791 64.84-47.157 65.02-47.542C65.21-47.927 65.3-48.299 65.3-48.657C65.3-49.449 65-50.078 64.41-50.545C63.82-51.011 63.17-51.245 62.45-51.245C61.47-51.245 60.66-50.729 60.01-49.699L43.03-22.631L34.63-33.195C34.23-33.737 33.83-34.109 33.44-34.31C33.04-34.51 32.6-34.611 32.11-34.611C31.34-34.611 30.7-34.337 30.18-33.789C29.65-33.241 29.39-32.587 29.39-31.827C29.39-31.057 29.67-30.319 30.21-29.614L40.2-17.488C40.65-16.924 41.11-16.512 41.58-16.251Z"/>
  </g>
  <g id="Thin-S" transform="matrix(1 0 0 1 810.376 696)">
   <path d="M70.24-68.138C72.575-67.563 74.538-66.48 76.13-64.889C77.712-63.33 78.784-61.391 79.347-59.072C79.911-56.753 80.192-53.745 80.192-50.049L80.192-20.789C80.192-17.102 79.911-14.104 79.347-11.797C78.784-9.49 77.712-7.541 76.13-5.949C74.548-4.367 72.587-3.286 70.247-2.707C67.907-2.127 64.905-1.838 61.241-1.838L31.981-1.838C28.317-1.838 25.317-2.127 22.982-2.707C20.647-3.286 18.684-4.367 17.092-5.949C15.511-7.517 14.438-9.46 13.875-11.779C13.312-14.098 13.03-17.102 13.03-20.789L13.03-50.414C13.03-53.891 13.317-56.771 13.892-59.055C14.467-61.339 15.546-63.272 17.128-64.853C18.719-66.444 20.67-67.533 22.982-68.12C25.294-68.707 28.176-69 31.63-69L61.241-69C64.905-69 67.905-68.713 70.24-68.138ZM41.457-17.35C41.726-17.197 42.046-17.121 42.417-17.121C43.072-17.121 43.625-17.434 44.075-18.06L63.926-48.887C64.035-49.091 64.143-49.307 64.248-49.534C64.354-49.761 64.407-49.968 64.407-50.154C64.407-50.616 64.226-51.001 63.864-51.31C63.502-51.619 63.114-51.773 62.699-51.773C62.11-51.773 61.598-51.459 61.162-50.83L42.335-21.352L32.128-33.422C31.884-33.734 31.647-33.952 31.416-34.074C31.185-34.195 30.912-34.256 30.595-34.256C30.141-34.256 29.75-34.094 29.423-33.768C29.096-33.443 28.932-33.043 28.932-32.571C28.932-32.116 29.11-31.651 29.466-31.175L40.665-18.06C40.923-17.739 41.187-17.503 41.457-17.35Z"/>
  </g>
  <g id="Ultralight-S" transform="matrix(1 0 0 1 514.132 696)">
   <path d="M69.886-67.107C72.081-66.512 73.903-65.49 75.351-64.043C76.796-62.628 77.808-60.831 78.389-58.652C78.969-56.473 79.259-53.456 79.259-49.602L79.259-20.168C79.259-16.317 78.969-13.309 78.389-11.146C77.808-8.982 76.796-7.176 75.351-5.729C73.905-4.283 72.084-3.262 69.888-2.666C67.692-2.069 64.683-1.771 60.862-1.771L31.427-1.771C27.606-1.771 24.598-2.069 22.403-2.666C20.207-3.262 18.386-4.283 16.939-5.729C15.494-7.146 14.481-8.944 13.9-11.123C13.32-13.302 13.03-16.317 13.03-20.168L13.03-50.06C13.03-53.639 13.328-56.496 13.923-58.629C14.518-60.763 15.539-62.552 16.984-63.997C18.432-65.444 20.238-66.473 22.403-67.084C24.567-67.695 27.424-68 30.974-68L60.862-68C64.683-68 67.691-67.702 69.886-67.107ZM41.391-16.916C41.554-16.818 41.766-16.769 42.026-16.769C42.417-16.769 42.775-16.965 43.1-17.355L63.657-49.143C63.722-49.273 63.787-49.411 63.852-49.558C63.917-49.704 63.95-49.826 63.95-49.924C63.95-50.217 63.828-50.477 63.584-50.705C63.34-50.933 63.087-51.047 62.827-51.047C62.436-51.047 62.078-50.835 61.753-50.412L41.977-19.699L30.844-32.541C30.682-32.736 30.527-32.875 30.381-32.956C30.234-33.037 30.047-33.078 29.819-33.078C29.526-33.078 29.266-32.972 29.038-32.761C28.81-32.549 28.696-32.281 28.696-31.955C28.696-31.662 28.826-31.337 29.087-30.978L40.903-17.355C41.066-17.16 41.229-17.014 41.391-16.916Z"/>
  </g>
 </g>
</svg>
