<?xml version="1.0" encoding="UTF-8"?>
<!--Generator: Apple Native CoreSVG 149-->
<!DOCTYPE svg
PUBLIC "-//W3C//DTD SVG 1.1//EN"
       "http://www.w3.org/Graphics/SVG/1.1/DTD/svg11.dtd">
<svg version="1.1" xmlns="http://www.w3.org/2000/svg" xmlns:xlink="http://www.w3.org/1999/xlink" width="3300" height="2200">
 <!--glyph: "uni100078.medium", point size: 100.000000, font version: "Version 16.0d18e1", template writer version: "8"-->
 <g id="Notes">
  <rect height="2200" id="artboard" style="fill:white;opacity:1" width="3300" x="0" y="0"/>
  <line id="" style="fill:none;stroke:black;opacity:1;stroke-width:0.5;" x1="263" x2="3036" y1="292" y2="292"/>
  <text style="stroke:none;fill:black;font-family:-apple-system,&quot;SF Pro Display&quot;,&quot;SF Pro Text&quot;,Helvetica,sans-serif;font-weight:bold;" transform="matrix(1 0 0 1 263 322)">Weight/Scale Variations</text>
  <text style="stroke:none;fill:black;font-family:-apple-system,&quot;SF Pro Display&quot;,&quot;SF Pro Text&quot;,Helvetica,sans-serif;text-anchor:middle;" transform="matrix(1 0 0 1 559.711 322)">Ultralight</text>
  <text style="stroke:none;fill:black;font-family:-apple-system,&quot;SF Pro Display&quot;,&quot;SF Pro Text&quot;,Helvetica,sans-serif;text-anchor:middle;" transform="matrix(1 0 0 1 856.422 322)">Thin</text>
  <text style="stroke:none;fill:black;font-family:-apple-system,&quot;SF Pro Display&quot;,&quot;SF Pro Text&quot;,Helvetica,sans-serif;text-anchor:middle;" transform="matrix(1 0 0 1 1153.13 322)">Light</text>
  <text style="stroke:none;fill:black;font-family:-apple-system,&quot;SF Pro Display&quot;,&quot;SF Pro Text&quot;,Helvetica,sans-serif;text-anchor:middle;" transform="matrix(1 0 0 1 1449.84 322)">Regular</text>
  <text style="stroke:none;fill:black;font-family:-apple-system,&quot;SF Pro Display&quot;,&quot;SF Pro Text&quot;,Helvetica,sans-serif;text-anchor:middle;" transform="matrix(1 0 0 1 1746.56 322)">Medium</text>
  <text style="stroke:none;fill:black;font-family:-apple-system,&quot;SF Pro Display&quot;,&quot;SF Pro Text&quot;,Helvetica,sans-serif;text-anchor:middle;" transform="matrix(1 0 0 1 2043.27 322)">Semibold</text>
  <text style="stroke:none;fill:black;font-family:-apple-system,&quot;SF Pro Display&quot;,&quot;SF Pro Text&quot;,Helvetica,sans-serif;text-anchor:middle;" transform="matrix(1 0 0 1 2339.98 322)">Bold</text>
  <text style="stroke:none;fill:black;font-family:-apple-system,&quot;SF Pro Display&quot;,&quot;SF Pro Text&quot;,Helvetica,sans-serif;text-anchor:middle;" transform="matrix(1 0 0 1 2636.69 322)">Heavy</text>
  <text style="stroke:none;fill:black;font-family:-apple-system,&quot;SF Pro Display&quot;,&quot;SF Pro Text&quot;,Helvetica,sans-serif;text-anchor:middle;" transform="matrix(1 0 0 1 2933.4 322)">Black</text>
  <line id="" style="fill:none;stroke:black;opacity:1;stroke-width:0.5;" x1="263" x2="3036" y1="1903" y2="1903"/>
  <g id="" transform="matrix(1 0 0 1 263 1933)">
   <path d="M9.24805 0.830078C13.5547 0.830078 17.1387-2.74414 17.1387-7.05078C17.1387-11.3574 13.5449-14.9316 9.23828-14.9316C4.94141-14.9316 1.36719-11.3574 1.36719-7.05078C1.36719-2.74414 4.95117 0.830078 9.24805 0.830078ZM9.24805-0.654297C5.70312-0.654297 2.87109-3.49609 2.87109-7.05078C2.87109-10.6055 5.69336-13.4473 9.23828-13.4473C12.793-13.4473 15.6348-10.6055 15.6445-7.05078C15.6543-3.49609 12.8027-0.654297 9.24805-0.654297ZM6.39648-6.31836L8.50586-6.31836L8.50586-4.19922C8.50586-3.75977 8.79883-3.45703 9.22852-3.45703C9.67773-3.45703 9.9707-3.75977 9.9707-4.19922L9.9707-6.31836L12.0996-6.31836C12.5391-6.31836 12.8418-6.61133 12.8418-7.04102C12.8418-7.48047 12.5391-7.7832 12.0996-7.7832L9.9707-7.7832L9.9707-9.89258C9.9707-10.3418 9.67773-10.6445 9.22852-10.6445C8.79883-10.6445 8.50586-10.3418 8.50586-9.89258L8.50586-7.7832L6.39648-7.7832C5.94727-7.7832 5.64453-7.48047 5.64453-7.04102C5.64453-6.61133 5.94727-6.31836 6.39648-6.31836Z"/>
  </g>
  <g id="" transform="matrix(1 0 0 1 281.506 1933)">
   <path d="M11.709 2.91016C17.1582 2.91016 21.6699-1.61133 21.6699-7.05078C21.6699-12.5 17.1484-17.0117 11.6992-17.0117C6.25977-17.0117 1.74805-12.5 1.74805-7.05078C1.74805-1.61133 6.26953 2.91016 11.709 2.91016ZM11.709 1.25C7.09961 1.25 3.41797-2.44141 3.41797-7.05078C3.41797-11.6602 7.08984-15.3516 11.6992-15.3516C16.3086-15.3516 20-11.6602 20.0098-7.05078C20.0195-2.44141 16.3184 1.25 11.709 1.25ZM7.98828-6.23047L10.8789-6.23047L10.8789-3.32031C10.8789-2.83203 11.2109-2.5 11.6895-2.5C12.1777-2.5 12.5195-2.83203 12.5195-3.32031L12.5195-6.23047L15.4297-6.23047C15.918-6.23047 16.25-6.5625 16.25-7.04102C16.25-7.5293 15.918-7.87109 15.4297-7.87109L12.5195-7.87109L12.5195-10.7617C12.5195-11.2695 12.1777-11.6016 11.6895-11.6016C11.2109-11.6016 10.8789-11.2598 10.8789-10.7617L10.8789-7.87109L7.98828-7.87109C7.48047-7.87109 7.14844-7.5293 7.14844-7.04102C7.14844-6.5625 7.49023-6.23047 7.98828-6.23047Z"/>
  </g>
  <g id="" transform="matrix(1 0 0 1 304.924 1933)">
   <path d="M14.9707 5.66406C21.9336 5.66406 27.6953-0.0976562 27.6953-7.05078C27.6953-14.0137 21.9238-19.7754 14.9609-19.7754C8.00781-19.7754 2.25586-14.0137 2.25586-7.05078C2.25586-0.0976562 8.01758 5.66406 14.9707 5.66406ZM14.9707 3.84766C8.93555 3.84766 4.08203-1.01562 4.08203-7.05078C4.08203-13.0957 8.92578-17.9492 14.9609-17.9492C21.0059-17.9492 25.8594-13.0957 25.8691-7.05078C25.8789-1.01562 21.0156 3.84766 14.9707 3.84766ZM10.0586-6.14258L14.0625-6.14258L14.0625-2.12891C14.0625-1.5918 14.4336-1.2207 14.9512-1.2207C15.4883-1.2207 15.8594-1.5918 15.8594-2.12891L15.8594-6.14258L19.8828-6.14258C20.4102-6.14258 20.791-6.51367 20.791-7.03125C20.791-7.56836 20.4199-7.94922 19.8828-7.94922L15.8594-7.94922L15.8594-11.9531C15.8594-12.5098 15.4883-12.8809 14.9512-12.8809C14.4336-12.8809 14.0625-12.5 14.0625-11.9531L14.0625-7.94922L10.0586-7.94922C9.50195-7.94922 9.13086-7.56836 9.13086-7.03125C9.13086-6.51367 9.51172-6.14258 10.0586-6.14258Z"/>
  </g>
  <text style="stroke:none;fill:black;font-family:-apple-system,&quot;SF Pro Display&quot;,&quot;SF Pro Text&quot;,Helvetica,sans-serif;font-weight:bold;" transform="matrix(1 0 0 1 263 1953)">Design Variations</text>
  <text style="stroke:none;fill:black;font-family:-apple-system,&quot;SF Pro Display&quot;,&quot;SF Pro Text&quot;,Helvetica,sans-serif;" transform="matrix(1 0 0 1 263 1971)">Symbols are supported in up to nine weights and three scales.</text>
  <text style="stroke:none;fill:black;font-family:-apple-system,&quot;SF Pro Display&quot;,&quot;SF Pro Text&quot;,Helvetica,sans-serif;" transform="matrix(1 0 0 1 263 1989)">For optimal layout with text and other symbols, vertically align</text>
  <text style="stroke:none;fill:black;font-family:-apple-system,&quot;SF Pro Display&quot;,&quot;SF Pro Text&quot;,Helvetica,sans-serif;" transform="matrix(1 0 0 1 263 2007)">symbols with the adjacent text.</text>
  <line id="" style="fill:none;stroke:#00AEEF;stroke-width:0.5;opacity:1.0;" x1="776" x2="776" y1="1919" y2="1933"/>
  <g id="" transform="matrix(1 0 0 1 776 1933)">
   <path d="M3.31055 0.126953C3.82812 0.126953 4.08203-0.0683594 4.26758-0.605469L5.52734-4.0625L11.2891-4.0625L12.5488-0.605469C12.7344-0.0683594 12.9883 0.126953 13.4961 0.126953C14.0137 0.126953 14.3457-0.185547 14.3457-0.673828C14.3457-0.839844 14.3164-0.986328 14.2383-1.20117L9.6582-13.3887C9.43359-13.9941 9.0332-14.2871 8.4082-14.2871C7.80273-14.2871 7.39258-13.9941 7.17773-13.3984L2.59766-1.19141C2.51953-0.976562 2.49023-0.830078 2.49023-0.664062C2.49023-0.175781 2.80273 0.126953 3.31055 0.126953ZM6.00586-5.53711L8.37891-12.1094L8.42773-12.1094L10.8008-5.53711Z"/>
  </g>
  <line id="" style="fill:none;stroke:#00AEEF;stroke-width:0.5;opacity:1.0;" x1="792.836" x2="792.836" y1="1919" y2="1933"/>
  <text style="stroke:none;fill:black;font-family:-apple-system,&quot;SF Pro Display&quot;,&quot;SF Pro Text&quot;,Helvetica,sans-serif;font-weight:bold;" transform="matrix(1 0 0 1 776 1953)">Margins</text>
  <text style="stroke:none;fill:black;font-family:-apple-system,&quot;SF Pro Display&quot;,&quot;SF Pro Text&quot;,Helvetica,sans-serif;" transform="matrix(1 0 0 1 776 1971)">Leading and trailing margins on the left and right side of each symbol</text>
  <text style="stroke:none;fill:black;font-family:-apple-system,&quot;SF Pro Display&quot;,&quot;SF Pro Text&quot;,Helvetica,sans-serif;" transform="matrix(1 0 0 1 776 1989)">can be adjusted by modifying the x-location of the margin guidelines.</text>
  <text style="stroke:none;fill:black;font-family:-apple-system,&quot;SF Pro Display&quot;,&quot;SF Pro Text&quot;,Helvetica,sans-serif;" transform="matrix(1 0 0 1 776 2007)">Modifications are automatically applied proportionally to all</text>
  <text style="stroke:none;fill:black;font-family:-apple-system,&quot;SF Pro Display&quot;,&quot;SF Pro Text&quot;,Helvetica,sans-serif;" transform="matrix(1 0 0 1 776 2025)">scales and weights.</text>
  <g id="" transform="matrix(1 0 0 1 1289 1933)">
   <path d="M2.8418 1.86523L4.54102 3.57422C5.40039 4.44336 6.38672 4.38477 7.31445 3.35938L17.4902-7.85156C17.7539-7.76367 18.0273-7.7832 18.3398-7.8418L19.4043-8.03711L20.0684-7.36328L20.0293-6.80664C19.9902-6.30859 20.1172-5.92773 20.6055-5.44922L21.3672-4.70703C21.8457-4.22852 22.4609-4.19922 22.9297-4.66797L25.8398-7.58789C26.3086-8.05664 26.2891-8.65234 25.8105-9.13086L25.0391-9.89258C24.5605-10.3711 24.1895-10.5273 23.7109-10.4883L23.1348-10.4395L22.4902-11.0742L22.7344-12.1973C22.8613-12.7637 22.7051-13.2031 22.1191-13.7891L19.9219-15.9766C16.582-19.2969 12.1484-19.2188 9.25781-16.3281C8.83789-15.918 8.80859-15.3418 9.04297-14.9512C9.27734-14.5898 9.73633-14.3555 10.3809-14.5215C11.8457-14.8633 13.3691-14.9219 14.7949-13.9844L14.209-12.5293C14.0137-12.0508 13.9844-11.6504 14.1113-11.2891L3.04688-0.898438C2.06055 0.0195312 1.98242 0.996094 2.8418 1.86523ZM10.752-15.957C13.1836-17.7344 16.4746-17.4316 18.7012-15.2051L21.1328-12.793C21.3672-12.5586 21.4062-12.373 21.3379-12.0312L21.0156-10.5469L22.5195-9.0625L23.5059-9.12109C23.7598-9.13086 23.8379-9.11133 24.0332-8.91602L24.6094-8.33984L22.168-5.89844L21.5918-6.47461C21.3965-6.66992 21.3672-6.74805 21.377-7.01172L21.4453-7.98828L19.9512-9.47266L18.4277-9.21875C18.1055-9.15039 17.959-9.17969 17.7148-9.41406L15.7129-11.416C15.459-11.6504 15.4297-11.8164 15.5859-12.1875L16.4648-14.2773C14.9023-15.7324 12.8711-16.3574 10.8398-15.7617C10.6836-15.7227 10.625-15.8496 10.752-15.957ZM5.27344 2.30469L4.10156 1.14258C3.63281 0.683594 3.74023 0.341797 4.14062-0.0195312L14.9512-10.1953L16.416-8.71094L6.42578 2.27539C6.07422 2.67578 5.74219 2.77344 5.27344 2.30469Z"/>
  </g>
  <text style="stroke:none;fill:black;font-family:-apple-system,&quot;SF Pro Display&quot;,&quot;SF Pro Text&quot;,Helvetica,sans-serif;font-weight:bold;" transform="matrix(1 0 0 1 1289 1953)">Exporting</text>
  <text style="stroke:none;fill:black;font-family:-apple-system,&quot;SF Pro Display&quot;,&quot;SF Pro Text&quot;,Helvetica,sans-serif;" transform="matrix(1 0 0 1 1289 1971)">Symbols should be outlined when exporting to ensure the</text>
  <text style="stroke:none;fill:black;font-family:-apple-system,&quot;SF Pro Display&quot;,&quot;SF Pro Text&quot;,Helvetica,sans-serif;" transform="matrix(1 0 0 1 1289 1989)">design is preserved when submitting to Xcode.</text>
  <text id="template-version" style="stroke:none;fill:black;font-family:-apple-system,&quot;SF Pro Display&quot;,&quot;SF Pro Text&quot;,Helvetica,sans-serif;text-anchor:end;" transform="matrix(1 0 0 1 3036 1933)">Template v.2.0</text>
  <text style="stroke:none;fill:black;font-family:-apple-system,&quot;SF Pro Display&quot;,&quot;SF Pro Text&quot;,Helvetica,sans-serif;text-anchor:end;" transform="matrix(1 0 0 1 3036 1951)">Requires Xcode 12 or greater</text>
  <text style="stroke:none;fill:black;font-family:-apple-system,&quot;SF Pro Display&quot;,&quot;SF Pro Text&quot;,Helvetica,sans-serif;text-anchor:end;" transform="matrix(1 0 0 1 3036 1969)">Generated from arrow.down.circle</text>
  <text style="stroke:none;fill:black;font-family:-apple-system,&quot;SF Pro Display&quot;,&quot;SF Pro Text&quot;,Helvetica,sans-serif;text-anchor:end;" transform="matrix(1 0 0 1 3036 1987)">Typeset at 100 points</text>
  <text style="stroke:none;fill:black;font-family:-apple-system,&quot;SF Pro Display&quot;,&quot;SF Pro Text&quot;,Helvetica,sans-serif;" transform="matrix(1 0 0 1 263 726)">Small</text>
  <text style="stroke:none;fill:black;font-family:-apple-system,&quot;SF Pro Display&quot;,&quot;SF Pro Text&quot;,Helvetica,sans-serif;" transform="matrix(1 0 0 1 263 1156)">Medium</text>
  <text style="stroke:none;fill:black;font-family:-apple-system,&quot;SF Pro Display&quot;,&quot;SF Pro Text&quot;,Helvetica,sans-serif;" transform="matrix(1 0 0 1 263 1586)">Large</text>
 </g>
 <g id="Guides">
  <g id="H-reference" style="fill:#27AAE1;stroke:none;" transform="matrix(1 0 0 1 339 696)">
   <path d="M0.976562 0L3.66211 0L12.9883-24.4629L45.752-24.4629L55.127 0L57.7637 0L30.6152-70.459L28.125-70.459ZM29.3457-67.1387L29.4434-67.1387L44.873-26.709L13.8672-26.709Z"/>
  </g>
  <line id="Baseline-S" style="fill:none;stroke:#27AAE1;opacity:1;stroke-width:0.5;" x1="263" x2="3036" y1="696" y2="696"/>
  <line id="Capline-S" style="fill:none;stroke:#27AAE1;opacity:1;stroke-width:0.5;" x1="263" x2="3036" y1="625.541" y2="625.541"/>
  <g id="H-reference" style="fill:#27AAE1;stroke:none;" transform="matrix(1 0 0 1 339 1126)">
   <path d="M0.976562 0L3.66211 0L12.9883-24.4629L45.752-24.4629L55.127 0L57.7637 0L30.6152-70.459L28.125-70.459ZM29.3457-67.1387L29.4434-67.1387L44.873-26.709L13.8672-26.709Z"/>
  </g>
  <line id="Baseline-M" style="fill:none;stroke:#27AAE1;opacity:1;stroke-width:0.5;" x1="263" x2="3036" y1="1126" y2="1126"/>
  <line id="Capline-M" style="fill:none;stroke:#27AAE1;opacity:1;stroke-width:0.5;" x1="263" x2="3036" y1="1055.54" y2="1055.54"/>
  <g id="H-reference" style="fill:#27AAE1;stroke:none;" transform="matrix(1 0 0 1 339 1556)">
   <path d="M0.976562 0L3.66211 0L12.9883-24.4629L45.752-24.4629L55.127 0L57.7637 0L30.6152-70.459L28.125-70.459ZM29.3457-67.1387L29.4434-67.1387L44.873-26.709L13.8672-26.709Z"/>
  </g>
  <line id="Baseline-L" style="fill:none;stroke:#27AAE1;opacity:1;stroke-width:0.5;" x1="263" x2="3036" y1="1556" y2="1556"/>
  <line id="Capline-L" style="fill:none;stroke:#27AAE1;opacity:1;stroke-width:0.5;" x1="263" x2="3036" y1="1485.54" y2="1485.54"/>
  <line id="left-margin" style="fill:none;stroke:#00AEEF;stroke-width:0.5;opacity:1.0;" x1="1391.3" x2="1391.3" y1="1030.79" y2="1150.12"/>
  <line id="right-margin" style="fill:none;stroke:#00AEEF;stroke-width:0.5;opacity:1.0;" x1="1508.39" x2="1508.39" y1="1030.79" y2="1150.12"/>
 </g>
 <g id="Symbols">
  <g id="Black-L" transform="matrix(1 0 0 1 2854.05 1556)">
   <path d="M79.3457 32.8613C116.748 32.8613 147.412 2.19727 147.412-35.2051C147.412-72.6074 116.748-103.271 79.2969-103.271C41.8945-103.271 11.2793-72.6074 11.2793-35.2051C11.2793 2.19727 41.9434 32.8613 79.3457 32.8613ZM79.3457 12.4023C52.9785 12.4023 31.7383-8.83789 31.7383-35.2051C31.7383-61.5723 52.9297-82.8125 79.2969-82.8125C105.664-82.8125 126.953-61.5723 126.953-35.2051C127.002-8.83789 105.713 12.4023 79.3457 12.4023ZM79.3457-68.2129C74.4629-68.2129 70.7031-64.8926 70.7031-60.2051L70.7031-37.1582L71.5332-25.0977L68.0176-30.5176L62.5977-36.9629C61.377-38.4277 59.3262-39.4043 57.1777-39.4043C52.9297-39.4043 49.9512-36.5234 49.9512-32.4707C49.9512-30.1758 50.5371-28.6621 52.1973-26.8066L72.168-5.51758C74.1211-3.41797 76.4648-2.34375 79.3457-2.34375C82.2266-2.34375 84.5703-3.41797 86.5234-5.51758L106.445-26.8066C108.105-28.6621 108.74-30.1758 108.74-32.4707C108.74-36.5234 105.762-39.4043 101.465-39.4043C99.4141-39.4043 97.3145-38.4766 96.0449-36.9629L90.7227-30.7617L87.1094-25.0488L87.9883-37.1582L87.9883-60.2051C87.9883-64.8926 84.1797-68.2129 79.3457-68.2129Z"/>
  </g>
  <g id="Heavy-L" transform="matrix(1 0 0 1 2558.39 1556)">
   <path d="M78.2715 31.7871C115.088 31.7871 145.312 1.5625 145.312-35.2051C145.312-72.0215 115.039-102.246 78.2715-102.246C41.4551-102.246 11.2793-72.0215 11.2793-35.2051C11.2793 1.5625 41.5039 31.7871 78.2715 31.7871ZM78.2715 14.0137C51.0254 14.0137 29.0527-7.95898 29.0527-35.2051C29.0527-62.5 50.9766-84.4727 78.2715-84.4727C105.518-84.4727 127.49-62.5 127.539-35.2051C127.539-7.95898 105.566 14.0137 78.2715 14.0137ZM78.2715-67.9199C74.0234-67.9199 70.7031-64.9902 70.7031-60.8398L70.7031-35.0586L71.4844-22.9492L67.1875-28.9062L61.0352-35.8398C59.9609-37.1582 58.1543-37.9883 56.25-37.9883C52.4414-37.9883 49.7559-35.4004 49.7559-31.7871C49.7559-29.7852 50.293-28.3691 51.7578-26.8066L72.0703-5.46875C73.8281-3.61328 75.7812-2.73438 78.2715-2.73438C80.8105-2.73438 82.8125-3.66211 84.5215-5.46875L104.834-26.8066C106.25-28.3691 106.836-29.7852 106.836-31.7871C106.836-35.4004 104.102-37.9883 100.342-37.9883C98.4863-37.9883 96.6797-37.207 95.5078-35.8398L89.4531-29.1016L85.1074-22.9004L85.8398-35.0586L85.8398-60.8398C85.8398-64.9902 82.5684-67.9199 78.2715-67.9199Z"/>
  </g>
  <g id="Bold-L" transform="matrix(1 0 0 1 2262.88 1556)">
   <path d="M77.0996 30.5664C113.232 30.5664 142.92 0.878906 142.92-35.2539C142.92-71.3379 113.184-101.074 77.0508-101.074C40.9668-101.074 11.2793-71.3379 11.2793-35.2539C11.2793 0.878906 41.0156 30.5664 77.0996 30.5664ZM77.0996 15.8203C48.8281 15.8203 26.0742-6.98242 26.0742-35.2539C26.0742-63.5254 48.7793-86.2793 77.0508-86.2793C105.371-86.2793 128.125-63.5254 128.174-35.2539C128.174-6.98242 105.371 15.8203 77.0996 15.8203ZM77.0996-67.627C73.4863-67.627 70.752-65.1367 70.752-61.5723L70.752-32.7148L71.3867-20.5566L66.2598-27.0996L59.2773-34.6191C58.3496-35.7422 56.7871-36.4258 55.1758-36.4258C51.9043-36.4258 49.5605-34.1309 49.5605-31.0547C49.5605-29.3457 50.0488-28.0762 51.2695-26.8066L71.9727-5.46875C73.4863-3.85742 75.0977-3.125 77.0996-3.125C79.1504-3.125 80.8105-3.90625 82.2754-5.46875L102.979-26.8066C104.15-28.0762 104.688-29.3457 104.688-31.0547C104.688-34.1309 102.295-36.4258 99.0723-36.4258C97.4121-36.4258 95.8984-35.7422 94.9219-34.6191L88.0371-27.2461L82.8125-20.5078L83.4473-32.7148L83.4473-61.5723C83.4473-65.1367 80.7129-67.627 77.0996-67.627Z"/>
  </g>
  <g id="Semibold-L" transform="matrix(1 0 0 1 1966.97 1556)">
   <path d="M76.2695 29.7363C111.914 29.7363 141.309 0.390625 141.309-35.2539C141.309-70.8984 111.865-100.244 76.2695-100.244C40.625-100.244 11.2793-70.8984 11.2793-35.2539C11.2793 0.390625 40.6738 29.7363 76.2695 29.7363ZM76.2695 17.041C47.3145 17.041 24.0234-6.25 24.0234-35.2539C24.0234-64.209 47.2656-87.5488 76.2695-87.5488C105.225-87.5488 128.564-64.209 128.613-35.2539C128.662-6.25 105.273 17.041 76.2695 17.041ZM76.2695-67.3828C73.1445-67.3828 70.752-65.1855 70.752-62.1094L70.752-31.1035L71.3379-18.8965L65.625-25.8789L58.1055-33.7402C57.2266-34.7168 55.9082-35.3516 54.3945-35.3516C51.5625-35.3516 49.4629-33.3008 49.4629-30.5176C49.4629-29.0039 49.9023-27.8809 50.8789-26.8066L71.875-5.41992C73.2422-4.05273 74.5605-3.36914 76.2695-3.36914C78.0273-3.36914 79.3945-4.05273 80.7129-5.41992L101.709-26.8066C102.686-27.8809 103.174-29.0039 103.174-30.5176C103.174-33.3008 101.074-35.3516 98.1934-35.3516C96.7285-35.3516 95.4102-34.7656 94.4824-33.7402L87.0117-25.9277L81.25-18.8477L81.7871-31.1035L81.7871-62.1094C81.7871-65.1855 79.4434-67.3828 76.2695-67.3828Z"/>
  </g>
  <g id="Medium-L" transform="matrix(1 0 0 1 1670.87 1556)">
   <path d="M75.6836 29.1504C110.938 29.1504 140.088 0 140.088-35.2539C140.088-70.5078 110.889-99.6582 75.6348-99.6582C40.3809-99.6582 11.2793-70.5078 11.2793-35.2539C11.2793 0 40.3809 29.1504 75.6836 29.1504ZM75.6836 18.0176C46.1426 18.0176 22.4609-5.76172 22.4609-35.2539C22.4609-64.7461 46.1426-88.5254 75.6348-88.5254C105.127-88.5254 128.906-64.7461 128.906-35.2539C128.955-5.76172 105.176 18.0176 75.6836 18.0176ZM75.6836-67.2363C72.8516-67.2363 70.8008-65.2832 70.8008-62.4512L70.8008-29.834L71.2891-17.6758L65.1367-24.9512L57.1777-33.1055C56.3477-33.9844 55.1758-34.5215 53.8574-34.5215C51.2695-34.5215 49.3652-32.6172 49.3652-30.127C49.3652-28.7598 49.7559-27.6855 50.6348-26.8066L71.8262-5.41992C73.0469-4.15039 74.2188-3.61328 75.6836-3.61328C77.1484-3.61328 78.3691-4.19922 79.541-5.41992L100.732-26.8066C101.611-27.6855 102.051-28.7598 102.051-30.127C102.051-32.6172 100.098-34.5215 97.5098-34.5215C96.1914-34.5215 95.0195-34.0332 94.1895-33.1055L86.2793-25L80.0781-17.5781L80.5664-29.834L80.5664-62.4512C80.5664-65.2832 78.5156-67.2363 75.6836-67.2363Z"/>
  </g>
  <g id="Regular-L" transform="matrix(1 0 0 1 1374.97 1556)">
   <path d="M74.8535 28.3203C109.668 28.3203 138.477-0.488281 138.477-35.2539C138.477-70.0684 109.619-98.877 74.8047-98.877C40.0391-98.877 11.2793-70.0684 11.2793-35.2539C11.2793-0.488281 40.0879 28.3203 74.8535 28.3203ZM74.8535 19.2383C44.6777 19.2383 20.4102-5.07812 20.4102-35.2539C20.4102-65.4785 44.6289-89.7461 74.8047-89.7461C105.029-89.7461 129.297-65.4785 129.346-35.2539C129.395-5.07812 105.078 19.2383 74.8535 19.2383ZM74.8535-67.041C72.5098-67.041 70.8008-65.332 70.8008-62.9883L70.8008-28.2715L71.1914-16.0156L64.502-23.7305L56.0059-32.2754C55.2734-33.0078 54.2969-33.4473 53.125-33.4473C50.8789-33.4473 49.2188-31.7871 49.2188-29.5898C49.2188-28.4668 49.5605-27.4902 50.293-26.8066L71.7773-5.37109C72.8027-4.29688 73.7305-3.85742 74.8535-3.85742C76.0742-3.85742 77.002-4.3457 78.0273-5.37109L99.4629-26.8066C100.195-27.4902 100.586-28.4668 100.586-29.5898C100.586-31.7871 98.877-33.4473 96.6309-33.4473C95.459-33.4473 94.4824-33.0566 93.75-32.2754L85.3027-23.7305L78.5156-15.9668L78.9062-28.2715L78.9062-62.9883C78.9062-65.332 77.2461-67.041 74.8535-67.041Z"/>
  </g>
  <g id="Light-L" transform="matrix(1 0 0 1 1079.18 1556)">
   <path d="M73.9258 27.3926C108.301 27.3926 136.621-0.927734 136.621-35.2539C136.621-69.6289 108.252-97.9492 73.9258-97.9492C39.5508-97.9492 11.2793-69.6289 11.2793-35.2539C11.2793-0.927734 39.5996 27.3926 73.9258 27.3926ZM73.9258 20.5078C43.1152 20.5078 18.2129-4.44336 18.2129-35.2539C18.2129-66.1133 43.0664-91.0156 73.9258-91.0156C104.736-91.0156 129.688-66.1133 129.736-35.2539C129.736-4.44336 104.785 20.5078 73.9258 20.5078ZM73.9258-66.6504C72.1191-66.6504 70.752-65.332 70.752-63.4766L70.752-24.4141L71.0938-13.623L63.8184-21.4844L53.9551-31.3477C53.3203-31.9824 52.5879-32.3242 51.709-32.3242C49.9512-32.3242 48.6816-31.0547 48.6816-29.3457C48.6816-28.4668 48.9746-27.7832 49.5117-27.1973L71.582-5.17578C72.3633-4.39453 73.0957-4.05273 73.9258-4.05273C74.8535-4.05273 75.5859-4.39453 76.3184-5.17578L98.3887-27.1973C98.9746-27.7832 99.2676-28.4668 99.2676-29.3457C99.2676-31.0547 97.9492-32.3242 96.2402-32.3242C95.3125-32.3242 94.5801-32.0312 93.9941-31.3477L84.1309-21.4844L76.8066-13.5742L77.0996-24.4141L77.0996-63.4766C77.0996-65.332 75.8301-66.6504 73.9258-66.6504Z"/>
  </g>
  <g id="Thin-L" transform="matrix(1 0 0 1 783.693 1556)">
   <path d="M72.7051 26.1719C106.494 26.1719 134.18-1.51367 134.18-35.2539C134.18-69.043 106.494-96.7285 72.7051-96.7285C38.9648-96.7285 11.2793-69.043 11.2793-35.2539C11.2793-1.51367 38.9648 26.1719 72.7051 26.1719ZM72.7051 22.168C41.0156 22.168 15.2832-3.56445 15.2832-35.2539C15.2832-66.9922 41.0156-92.7246 72.7051-92.7246C104.395-92.7246 130.176-66.9922 130.176-35.2539C130.176-3.56445 104.443 22.168 72.7051 22.168ZM72.7051-66.1133C71.582-66.1133 70.7031-65.332 70.7031-64.1113L70.7031-19.3359L70.8984-10.4492L62.8906-18.5059L51.2207-30.1758C50.7812-30.6641 50.3906-30.8594 49.8047-30.8594C48.7305-30.8594 47.9492-30.0781 47.9492-29.0527C47.9492-28.5156 48.1445-28.125 48.5352-27.7344L71.3379-4.88281C71.7285-4.44336 72.2168-4.24805 72.7051-4.24805C73.2422-4.24805 73.6816-4.44336 74.1211-4.88281L96.9727-27.7344C97.3633-28.125 97.5586-28.5156 97.5586-29.0527C97.5586-30.0781 96.7773-30.8594 95.7031-30.8594C95.1172-30.8594 94.7266-30.6641 94.2871-30.1758L82.6172-18.5059L74.5117-10.4004L74.707-19.3359L74.707-64.1113C74.707-65.332 73.9258-66.1133 72.7051-66.1133Z"/>
  </g>
  <g id="Ultralight-L" transform="matrix(1 0 0 1 487.616 1556)">
   <path d="M72.1191 25.5371C105.566 25.5371 132.91-1.80664 132.91-35.2539C132.91-68.75 105.566-96.0938 72.1191-96.0938C38.623-96.0938 11.2793-68.75 11.2793-35.2539C11.2793-1.80664 38.623 25.5371 72.1191 25.5371ZM72.1191 23.0469C39.9414 23.0469 13.7695-3.125 13.7695-35.2539C13.7695-67.4316 39.9414-93.6035 72.1191-93.6035C104.248-93.6035 130.42-67.4316 130.42-35.2539C130.42-3.125 104.248 23.0469 72.1191 23.0469ZM72.0703-65.8691C71.2891-65.8691 70.7031-65.332 70.7031-64.4531L70.7031-16.6992L70.8008-8.83789L62.4512-16.9922L49.8535-29.5898C49.5117-29.9316 49.2676-30.0781 48.8281-30.0781C48.1445-30.0781 47.6074-29.541 47.6074-28.9062C47.6074-28.5156 47.7539-28.2715 47.998-28.0273L71.1914-4.73633C71.4355-4.49219 71.7773-4.3457 72.0703-4.3457C72.4121-4.3457 72.7539-4.49219 72.9492-4.73633L96.2402-28.0273C96.5332-28.2715 96.6309-28.5156 96.6309-28.9062C96.6309-29.541 96.1426-30.0781 95.4102-30.0781C95.0195-30.0781 94.7754-29.9316 94.4336-29.5898L81.8359-16.9922L73.3398-8.74023L73.4863-16.6992L73.4863-64.4531C73.4863-65.332 72.9492-65.8691 72.0703-65.8691Z"/>
  </g>
  <g id="Black-M" transform="matrix(1 0 0 1 2870.97 1126)">
   <path d="M62.4023 18.457C91.9922 18.457 116.113-5.61523 116.113-35.2051C116.113-64.7949 91.9922-88.8672 62.4023-88.8672C32.8125-88.8672 8.74023-64.7949 8.74023-35.2051C8.74023-5.61523 32.8125 18.457 62.4023 18.457ZM62.4023 0.195312C42.8711 0.195312 27.002-15.625 27.002-35.2051C27.002-54.7363 42.8711-70.6055 62.4023-70.6055C81.9824-70.6055 97.8027-54.7363 97.8027-35.2051C97.8027-15.625 81.9824 0.195312 62.4023 0.195312ZM62.4023-60.9375C58.1543-60.9375 54.7363-58.0566 54.7363-53.9551L54.7363-37.5L55.4688-28.9551L53.5156-32.5195L49.5117-37.5977C48.5352-38.916 46.6797-39.7461 44.873-39.7461C41.1621-39.7461 38.6719-37.3535 38.6719-33.8867C38.6719-31.8848 39.1602-30.6152 40.6738-28.9062L56.0059-12.1094C57.6172-10.3027 59.7656-9.375 62.4023-9.375C65.0879-9.375 67.2363-10.3027 68.8477-12.1094L84.1797-28.9062C85.6934-30.6152 86.1816-31.8848 86.1816-33.8867C86.1816-37.3535 83.6914-39.7461 79.9805-39.7461C78.2227-39.7461 76.3672-38.916 75.293-37.5977L71.3867-32.8125L69.3359-28.9551L70.1172-37.5L70.1172-53.9551C70.1172-58.0566 66.6992-60.9375 62.4023-60.9375Z"/>
  </g>
  <g id="Heavy-M" transform="matrix(1 0 0 1 2575.19 1126)">
   <path d="M61.5234 17.5293C90.5273 17.5293 114.258-6.20117 114.258-35.2051C114.258-64.2578 90.5273-87.9883 61.4746-87.9883C32.4707-87.9883 8.74023-64.2578 8.74023-35.2051C8.74023-6.20117 32.4707 17.5293 61.5234 17.5293ZM61.5234 1.61133C41.1133 1.61133 24.6582-14.8438 24.6582-35.2051C24.6582-55.6152 41.1133-72.0703 61.4746-72.0703C81.8848-72.0703 98.3398-55.6152 98.3398-35.2051C98.3398-14.8438 81.8848 1.61133 61.5234 1.61133ZM61.5234-60.7422C57.7148-60.7422 54.7852-58.2031 54.7852-54.541L54.7852-36.2305L55.4199-27.2461L52.7344-31.3477L48.3398-36.6211C47.4121-37.793 45.8496-38.4766 44.1895-38.4766C40.8691-38.4766 38.623-36.3281 38.623-33.2031C38.623-31.4453 39.0625-30.2734 40.3809-28.8086L55.9082-12.1582C57.4219-10.5469 59.2285-9.7168 61.5234-9.7168C63.7695-9.7168 65.625-10.5469 67.0898-12.1582L82.6172-28.8086C83.9355-30.2734 84.4238-31.4453 84.4238-33.2031C84.4238-36.3281 82.1289-38.4766 78.8086-38.4766C77.2461-38.4766 75.6348-37.793 74.6582-36.6211L70.3125-31.543L67.5781-27.2461L68.2617-36.2305L68.2617-54.541C68.2617-58.2031 65.2832-60.7422 61.5234-60.7422Z"/>
  </g>
  <g id="Bold-M" transform="matrix(1 0 0 1 2279.5 1126)">
   <path d="M60.498 16.5039C88.8672 16.5039 112.207-6.83594 112.207-35.2051C112.207-63.623 88.8672-86.9629 60.4492-86.9629C32.0312-86.9629 8.74023-63.623 8.74023-35.2051C8.74023-6.83594 32.0801 16.5039 60.498 16.5039ZM60.498 3.22266C39.1602 3.22266 22.0703-13.916 22.0703-35.2051C22.0703-56.543 39.1602-73.6816 60.4492-73.6816C81.7383-73.6816 98.9258-56.543 98.9258-35.2051C98.9746-13.916 81.7871 3.22266 60.498 3.22266ZM60.498-60.5469C57.2754-60.5469 54.834-58.3008 54.834-55.2246L54.834-34.7656L55.3711-25.3418L51.9531-30.0781L47.0703-35.498C46.2402-36.4746 44.873-37.1094 43.4082-37.1094C40.5762-37.1094 38.5742-35.1562 38.5742-32.4219C38.5742-30.9082 38.9648-29.8828 40.0391-28.7109L55.8594-12.1582C57.1777-10.791 58.6426-10.1074 60.498-10.1074C62.3535-10.1074 63.8672-10.791 65.1367-12.1582L80.957-28.7109C82.0312-29.8828 82.4219-30.9082 82.4219-32.4219C82.4219-35.1562 80.4199-37.1094 77.5391-37.1094C76.123-37.1094 74.8047-36.5234 73.9258-35.498L69.0918-30.1758L65.5762-25.293L66.1621-34.7656L66.1621-55.2246C66.1621-58.3008 63.6719-60.5469 60.498-60.5469Z"/>
  </g>
  <g id="Semibold-M" transform="matrix(1 0 0 1 1983.5 1126)">
   <path d="M59.7656 15.8203C87.7441 15.8203 110.791-7.27539 110.791-35.2539C110.791-63.2324 87.6953-86.2793 59.7656-86.2793C31.7871-86.2793 8.74023-63.2324 8.74023-35.2539C8.74023-7.27539 31.7871 15.8203 59.7656 15.8203ZM59.7656 4.3457C37.8418 4.3457 20.2637-13.3301 20.2637-35.2539C20.2637-57.1777 37.793-74.8047 59.7656-74.8047C81.6895-74.8047 99.3164-57.1777 99.3652-35.2539C99.3652-13.3301 81.6895 4.3457 59.7656 4.3457ZM59.7656-60.3516C56.9824-60.3516 54.834-58.3984 54.834-55.6641L54.834-33.7402L55.3223-24.0234L51.3672-29.1504L46.1426-34.7656C45.3613-35.5957 44.1895-36.1816 42.9199-36.1816C40.332-36.1816 38.5254-34.375 38.5254-31.9336C38.5254-30.5664 38.916-29.5898 39.7949-28.6133L55.8105-12.207C56.9824-10.9375 58.2031-10.3516 59.7656-10.3516C61.377-10.3516 62.6465-10.9863 63.7695-12.207L79.7363-28.6133C80.6641-29.5898 81.1035-30.5664 81.1035-31.9336C81.1035-34.375 79.1992-36.1816 76.6602-36.1816C75.3906-36.1816 74.2188-35.6445 73.4375-34.7656L68.2617-29.248L64.209-23.9746L64.6973-33.7402L64.6973-55.6641C64.6973-58.3984 62.5977-60.3516 59.7656-60.3516Z"/>
  </g>
  <g id="Medium-M" transform="matrix(1 0 0 1 1687.3 1126)">
   <path d="M59.2285 15.2344C86.9141 15.2344 109.766-7.61719 109.766-35.2539C109.766-62.8906 86.8652-85.7422 59.1797-85.7422C31.543-85.7422 8.74023-62.8906 8.74023-35.2539C8.74023-7.61719 31.5918 15.2344 59.2285 15.2344ZM59.2285 5.17578C36.8164 5.17578 18.8965-12.8418 18.8965-35.2539C18.8965-57.666 36.8164-75.6348 59.1797-75.6348C81.5918-75.6348 99.6094-57.666 99.6582-35.2539C99.707-12.8418 81.6406 5.17578 59.2285 5.17578ZM59.2285-60.2539C56.7383-60.2539 54.8828-58.4961 54.8828-56.0059L54.8828-33.0078L55.3223-23.0469L50.9277-28.4668L45.459-34.1797C44.7266-34.9609 43.7012-35.4492 42.4805-35.4492C40.1855-35.4492 38.4766-33.7402 38.4766-31.4941C38.4766-30.3223 38.8184-29.3457 39.6484-28.5156L55.7617-12.207C56.8848-11.084 57.9102-10.5469 59.2285-10.5469C60.5957-10.5469 61.7188-11.1328 62.7441-12.207L78.8574-28.5156C79.6387-29.3457 80.0293-30.3223 80.0293-31.4941C80.0293-33.7402 78.3203-35.4492 76.0254-35.4492C74.8047-35.4492 73.7793-35.0098 73.0469-34.1797L67.627-28.5156L63.1836-22.998L63.623-33.0078L63.623-56.0059C63.623-58.4961 61.7676-60.2539 59.2285-60.2539Z"/>
  </g>
  <g id="Regular-M" transform="matrix(1 0 0 1 1391.3 1126)">
   <path d="M58.5449 14.5508C85.791 14.5508 108.35-8.05664 108.35-35.2539C108.35-62.5 85.7422-85.0586 58.4961-85.0586C31.2988-85.0586 8.74023-62.5 8.74023-35.2539C8.74023-8.05664 31.3477 14.5508 58.5449 14.5508ZM58.5449 6.25C35.498 6.25 17.0898-12.207 17.0898-35.2539C17.0898-58.3008 35.4492-76.7578 58.4961-76.7578C81.543-76.7578 100-58.3008 100.049-35.2539C100.098-12.207 81.5918 6.25 58.5449 6.25ZM58.5449-60.1074C56.4453-60.1074 54.8828-58.5938 54.8828-56.4453L54.8828-32.0312L55.2734-21.7285L50.3906-27.5879L44.5801-33.4473C43.8965-34.082 43.0176-34.5215 41.9922-34.5215C39.9902-34.5215 38.4766-32.959 38.4766-31.0059C38.4766-29.9805 38.7695-29.1016 39.4043-28.4668L55.7129-12.207C56.6895-11.2305 57.5195-10.8398 58.5449-10.8398C59.6191-10.8398 60.498-11.2793 61.4258-12.207L77.6855-28.4668C78.3203-29.1016 78.7109-29.9805 78.7109-31.0059C78.7109-32.959 77.1484-34.5215 75.1465-34.5215C74.0723-34.5215 73.1934-34.1309 72.5586-33.4473L66.7969-27.5879L61.8164-21.6797L62.207-32.0312L62.207-56.4453C62.207-58.5938 60.6934-60.1074 58.5449-60.1074Z"/>
  </g>
  <g id="Light-M" transform="matrix(1 0 0 1 1095.42 1126)">
   <path d="M57.7148 13.7207C84.5215 13.7207 106.689-8.44727 106.689-35.2539C106.689-62.1094 84.5215-84.2285 57.666-84.2285C30.8594-84.2285 8.74023-62.1094 8.74023-35.2539C8.74023-8.44727 30.9082 13.7207 57.7148 13.7207ZM57.7148 7.37305C34.082 7.37305 15.0879-11.6699 15.0879-35.2539C15.0879-58.8867 34.082-77.9297 57.666-77.9297C81.2988-77.9297 100.342-58.8867 100.391-35.2539C100.391-11.6699 81.3477 7.37305 57.7148 7.37305ZM57.7148-59.7656C56.0547-59.7656 54.8828-58.5938 54.8828-56.8848L54.8828-28.5645L55.127-19.5801L49.7559-25.5859L42.7246-32.6172C42.1875-33.1543 41.5527-33.4961 40.7227-33.4961C39.1602-33.4961 37.9883-32.3242 37.9883-30.7617C37.9883-29.9805 38.2324-29.3457 38.7207-28.8086L55.5664-12.0117C56.2988-11.2793 56.9336-10.9863 57.7148-10.9863C58.5449-10.9863 59.2285-11.3281 59.9121-12.0117L76.7578-28.8086C77.2461-29.3457 77.5391-29.9805 77.5391-30.7617C77.5391-32.3242 76.3184-33.4961 74.7559-33.4961C73.9258-33.4961 73.291-33.2031 72.7539-32.6172L65.7227-25.5859L60.3027-19.4824L60.5957-28.5645L60.5957-56.8848C60.5957-58.5938 59.4238-59.7656 57.7148-59.7656Z"/>
  </g>
  <g id="Thin-M" transform="matrix(1 0 0 1 799.806 1126)">
   <path d="M56.6406 12.5977C82.9102 12.5977 104.492-8.98438 104.492-35.2539C104.492-61.5723 82.9102-83.1543 56.5918-83.1543C30.3223-83.1543 8.74023-61.5723 8.74023-35.2539C8.74023-8.98438 30.3223 12.5977 56.6406 12.5977ZM56.6406 8.88672C32.2266 8.88672 12.4512-10.8887 12.4512-35.2539C12.4512-59.6191 32.2266-79.4434 56.5918-79.4434C81.0059-79.4434 100.781-59.6191 100.781-35.2539C100.781-10.8887 81.0059 8.88672 56.6406 8.88672ZM56.6406-59.2773C55.5664-59.2773 54.834-58.5938 54.834-57.4707L54.834-24.0234L54.9805-16.6992L48.9258-22.9004L40.2832-31.5918C39.9414-31.9824 39.5508-32.1289 39.0137-32.1289C38.0371-32.1289 37.3535-31.4453 37.3535-30.5176C37.3535-30.0293 37.5-29.6387 37.8418-29.2969L55.3223-11.7676C55.7617-11.377 56.1523-11.1816 56.6406-11.1816C57.0801-11.1816 57.5195-11.377 57.9102-11.7676L75.4883-29.2969C75.7812-29.6387 75.9766-30.0293 75.9766-30.5176C75.9766-31.4453 75.2441-32.1289 74.2676-32.1289C73.7793-32.1289 73.3887-31.9824 72.998-31.5918L64.3555-22.9004L58.252-16.6504L58.4473-24.0234L58.4473-57.4707C58.4473-58.5938 57.7148-59.2773 56.6406-59.2773Z"/>
  </g>
  <g id="Ultralight-M" transform="matrix(1 0 0 1 503.656 1126)">
   <path d="M56.0547 12.0605C82.0801 12.0605 103.369-9.22852 103.369-35.2539C103.369-61.2793 82.0801-82.5684 56.0547-82.5684C30.0293-82.5684 8.74023-61.2793 8.74023-35.2539C8.74023-9.22852 30.0293 12.0605 56.0547 12.0605ZM56.0547 9.66797C31.2988 9.66797 11.1328-10.498 11.1328-35.2539C11.1328-60.0586 31.2988-80.1758 56.0547-80.1758C80.8594-80.1758 100.977-60.0586 100.977-35.2539C100.977-10.498 80.8594 9.66797 56.0547 9.66797ZM56.0547-59.0332C55.3223-59.0332 54.7852-58.5938 54.7852-57.7637L54.7852-21.6797L54.9316-15.2832L48.5352-21.582L39.0625-31.0547C38.7695-31.3477 38.5254-31.4453 38.1348-31.4453C37.5-31.4453 37.0117-31.0059 37.0117-30.3711C37.0117-30.0293 37.1094-29.7852 37.3535-29.541L55.2246-11.6211C55.4688-11.377 55.7617-11.2793 56.0547-11.2793C56.3477-11.2793 56.6406-11.377 56.8848-11.6211L74.8047-29.541C75.0488-29.7852 75.1953-30.0293 75.1953-30.3711C75.1953-31.0059 74.707-31.4453 74.0234-31.4453C73.6816-31.4453 73.4375-31.3477 73.1445-31.0547L63.6719-21.582L57.2266-15.1855L57.3242-21.6797L57.3242-57.7637C57.3242-58.5938 56.8359-59.0332 56.0547-59.0332Z"/>
  </g>
  <g id="Black-S" transform="matrix(1 0 0 1 2884.57 696)">
   <path d="M48.8281 6.78711C71.9727 6.78711 90.8203-12.0605 90.8203-35.2051C90.8203-58.3496 71.9727-77.1973 48.8281-77.1973C25.6836-77.1973 6.83594-58.3496 6.83594-35.2051C6.83594-12.0605 25.6836 6.78711 48.8281 6.78711ZM48.8281-7.37305C33.4473-7.37305 20.9961-19.8242 20.9961-35.2051C20.9961-50.5859 33.4473-63.0371 48.8281-63.0371C64.209-63.0371 76.6602-50.5859 76.6602-35.2051C76.6602-19.8242 64.209-7.37305 48.8281-7.37305ZM48.8281-55.3711C45.5078-55.3711 42.8711-53.125 42.8711-49.9512L42.8711-36.9629L43.457-30.2246L41.8457-33.0566L38.7207-37.0117C37.9395-38.0371 36.5234-38.6719 35.1074-38.6719C32.2266-38.6719 30.2734-36.8164 30.2734-34.1309C30.2734-32.5684 30.6641-31.5918 31.8359-30.2734L43.8477-17.1387C45.1172-15.7227 46.7773-14.9902 48.8281-14.9902C50.8789-14.9902 52.5391-15.7227 53.8086-17.1387L65.8203-30.2734C66.9922-31.5918 67.3828-32.5684 67.3828-34.1309C67.3828-36.8164 65.4297-38.6719 62.5488-38.6719C61.1816-38.6719 59.7656-38.0371 58.9355-37.0117L55.8594-33.252L54.1992-30.2246L54.7852-36.9629L54.7852-49.9512C54.7852-53.125 52.1484-55.3711 48.8281-55.3711Z"/>
  </g>
  <g id="Heavy-S" transform="matrix(1 0 0 1 2588.47 696)">
   <path d="M48.2422 6.15234C70.9961 6.15234 89.5996-12.4512 89.5996-35.2051C89.5996-57.959 70.9961-76.6113 48.1934-76.6113C25.4395-76.6113 6.83594-57.959 6.83594-35.2051C6.83594-12.4512 25.4395 6.15234 48.2422 6.15234ZM48.2422-6.39648C32.2754-6.39648 19.4336-19.2871 19.4336-35.2051C19.4336-51.1719 32.2754-64.0137 48.1934-64.0137C64.1602-64.0137 77.002-51.1719 77.0508-35.2051C77.0508-19.2871 64.1602-6.39648 48.2422-6.39648ZM48.2422-55.2734C45.2637-55.2734 42.9199-53.2227 42.9199-50.3418L42.9199-36.377L43.4082-29.1504L41.3574-32.373L38.0371-36.3281C37.3047-37.2559 36.0352-37.8418 34.7168-37.8418C32.0801-37.8418 30.2734-36.084 30.2734-33.6426C30.2734-32.2266 30.6641-31.2988 31.6895-30.127L43.7988-17.1875C45.0195-15.8691 46.4355-15.2344 48.2422-15.2344C50-15.2344 51.4648-15.918 52.6367-17.1875L64.7461-30.127C65.7715-31.2988 66.1621-32.2266 66.1621-33.6426C66.1621-36.084 64.3555-37.8418 61.7188-37.8418C60.4492-37.8418 59.1797-37.2559 58.3984-36.3281L55.127-32.5195L53.0273-29.1504L53.5156-36.377L53.5156-50.3418C53.5156-53.2227 51.2207-55.2734 48.2422-55.2734Z"/>
  </g>
  <g id="Bold-S" transform="matrix(1 0 0 1 2292.44 696)">
   <path d="M47.5586 5.46875C69.873 5.46875 88.2324-12.8906 88.2324-35.2539C88.2324-57.5684 69.873-75.9277 47.5098-75.9277C25.1953-75.9277 6.83594-57.5684 6.83594-35.2539C6.83594-12.8906 25.1953 5.46875 47.5586 5.46875ZM47.5586-5.32227C30.957-5.32227 17.6758-18.6523 17.6758-35.2539C17.6758-51.8066 30.957-65.1367 47.5098-65.1367C64.1113-65.1367 77.4414-51.8066 77.4414-35.2539C77.4414-18.6523 64.1113-5.32227 47.5586-5.32227ZM47.5586-55.127C44.9219-55.127 42.9199-53.3203 42.9199-50.7812L42.9199-35.6934L43.4082-27.9785L40.8203-31.6406L37.2559-35.5957C36.5723-36.4258 35.498-36.9141 34.2773-36.9141C31.9824-36.9141 30.3223-35.3027 30.3223-33.0566C30.3223-31.8359 30.6641-30.957 31.4941-30.0293L43.7988-17.2363C44.873-16.0645 46.0449-15.5273 47.5586-15.5273C49.0723-15.5273 50.2441-16.1133 51.3184-17.2363L63.5742-30.0293C64.4531-30.957 64.7949-31.8359 64.7949-33.0566C64.7949-35.3027 63.1348-36.9141 60.791-36.9141C59.6191-36.9141 58.5449-36.4258 57.8125-35.5957L54.3457-31.7383L51.709-27.9297L52.1484-35.6934L52.1484-50.7812C52.1484-53.3203 50.1465-55.127 47.5586-55.127Z"/>
  </g>
  <g id="Semibold-S" transform="matrix(1 0 0 1 1996.2 696)">
   <path d="M47.0703 4.98047C69.0918 4.98047 87.3047-13.1836 87.3047-35.2539C87.3047-57.2754 69.0918-75.4883 47.0215-75.4883C25-75.4883 6.83594-57.2754 6.83594-35.2539C6.83594-13.1836 25.0488 4.98047 47.0703 4.98047ZM47.0703-4.58984C30.0781-4.58984 16.4551-18.2129 16.4551-35.2539C16.4551-52.2461 30.0293-65.8691 47.0215-65.8691C64.0625-65.8691 77.6855-52.2461 77.7344-35.2539C77.7344-18.2129 64.0625-4.58984 47.0703-4.58984ZM47.0703-55.0293C44.7266-55.0293 42.9688-53.3691 42.9688-51.0742L42.9688-35.2051L43.3594-27.1484L40.4297-31.1035L36.7188-35.1074C36.084-35.791 35.1074-36.2793 33.9844-36.2793C31.8848-36.2793 30.3223-34.7656 30.3223-32.666C30.3223-31.5918 30.6152-30.7129 31.3965-29.9316L43.75-17.2363C44.7754-16.2109 45.8008-15.7227 47.0703-15.7227C48.3887-15.7227 49.4629-16.2109 50.4395-17.2363L62.7441-29.9316C63.5254-30.7129 63.8672-31.5918 63.8672-32.666C63.8672-34.7656 62.2559-36.2793 60.1562-36.2793C59.082-36.2793 58.0566-35.8398 57.4219-35.1074L53.8086-31.1523L50.7812-27.0996L51.1719-35.2051L51.1719-51.0742C51.1719-53.3691 49.4141-55.0293 47.0703-55.0293Z"/>
  </g>
  <g id="Medium-S" transform="matrix(1 0 0 1 1699.83 696)">
   <path d="M46.7285 4.63867C68.5547 4.63867 86.6211-13.4277 86.6211-35.2539C86.6211-57.0801 68.5059-75.1465 46.6797-75.1465C24.8535-75.1465 6.83594-57.0801 6.83594-35.2539C6.83594-13.4277 24.9023 4.63867 46.7285 4.63867ZM46.7285-4.00391C29.3945-4.00391 15.5273-17.9199 15.5273-35.2539C15.5273-52.5879 29.3457-66.4551 46.6797-66.4551C64.0137-66.4551 77.8809-52.5879 77.9297-35.2539C77.9785-17.9199 64.0625-4.00391 46.7285-4.00391ZM46.7285-54.9805C44.5801-54.9805 42.9688-53.4668 42.9688-51.3184L42.9688-34.8633L43.3594-26.5137L40.1367-30.7129L36.3281-34.7168C35.7422-35.3516 34.8145-35.791 33.7891-35.791C31.7871-35.791 30.3223-34.3262 30.3223-32.373C30.3223-31.3477 30.6152-30.5176 31.2988-29.834L43.75-17.2852C44.7266-16.3086 45.6055-15.8691 46.7285-15.8691C47.9004-15.8691 48.8281-16.3086 49.7559-17.2852L62.1582-29.834C62.793-30.5176 63.1348-31.3477 63.1348-32.373C63.1348-34.3262 61.6211-35.791 59.668-35.791C58.6426-35.791 57.7148-35.4004 57.1289-34.7168L53.3691-30.7617L50.0977-26.4648L50.4395-34.8633L50.4395-51.3184C50.4395-53.4668 48.877-54.9805 46.7285-54.9805Z"/>
  </g>
  <g id="Regular-S" transform="matrix(1 0 0 1 1403.58 696)">
   <path d="M46.2402 4.15039C67.7734 4.15039 85.6934-13.7207 85.6934-35.2539C85.6934-56.7871 67.7246-74.6582 46.1914-74.6582C24.707-74.6582 6.83594-56.7871 6.83594-35.2539C6.83594-13.7207 24.7559 4.15039 46.2402 4.15039ZM46.2402-3.27148C28.5156-3.27148 14.3555-17.4805 14.3555-35.2539C14.3555-53.0273 28.4668-67.2363 46.1914-67.2363C63.9648-67.2363 78.1738-53.0273 78.2227-35.2539C78.2715-17.4805 64.0137-3.27148 46.2402-3.27148ZM46.2402-54.8828C44.3848-54.8828 43.0176-53.5156 43.0176-51.6113L43.0176-34.375L43.3594-25.6836L39.7461-30.2246L35.791-34.1797C35.2539-34.7656 34.4238-35.1562 33.4961-35.1562C31.6895-35.1562 30.3223-33.7891 30.3223-31.9824C30.3223-31.1035 30.6152-30.3223 31.2012-29.7363L43.7012-17.2852C44.6289-16.4062 45.3125-16.0156 46.2402-16.0156C47.2656-16.0156 47.998-16.4551 48.8281-17.2852L61.3281-29.7363C61.9141-30.3223 62.207-31.1035 62.207-31.9824C62.207-33.7891 60.791-35.1562 59.0332-35.1562C58.1055-35.1562 57.2754-34.8145 56.7383-34.1797L52.832-30.2246L49.1699-25.6348L49.5117-34.375L49.5117-51.6113C49.5117-53.5156 48.1445-54.8828 46.2402-54.8828Z"/>
  </g>
  <g id="Light-S" transform="matrix(1 0 0 1 1107.6 696)">
   <path d="M45.5078 3.41797C66.6992 3.41797 84.2285-14.0625 84.2285-35.2539C84.2285-56.4453 66.6504-73.9258 45.5078-73.9258C24.3164-73.9258 6.83594-56.4453 6.83594-35.2539C6.83594-14.0625 24.3652 3.41797 45.5078 3.41797ZM45.5078-2.29492C27.2461-2.29492 12.5977-16.9922 12.5977-35.2539C12.5977-53.5156 27.1973-68.2129 45.5078-68.2129C63.7695-68.2129 78.4668-53.5156 78.5156-35.2539C78.5156-16.9922 63.8184-2.29492 45.5078-2.29492ZM45.5078-54.5898C44.043-54.5898 42.9688-53.5156 42.9688-52.0508L42.9688-31.3477L43.2617-23.7793L39.209-28.418L34.1797-33.4961C33.6914-33.9844 33.1055-34.2285 32.373-34.2285C30.957-34.2285 29.9316-33.2031 29.9316-31.8359C29.9316-31.1035 30.127-30.5176 30.6152-30.0781L43.5547-17.1387C44.2383-16.4551 44.8242-16.1621 45.5078-16.1621C46.2891-16.1621 46.875-16.5039 47.5098-17.1387L60.498-30.0781C60.9375-30.5176 61.1816-31.1035 61.1816-31.8359C61.1816-33.2031 60.1074-34.2285 58.6914-34.2285C57.959-34.2285 57.373-33.9844 56.8848-33.4961L51.9043-28.418L47.8027-23.7305L48.0469-31.3477L48.0469-52.0508C48.0469-53.5156 47.0215-54.5898 45.5078-54.5898Z"/>
  </g>
  <g id="Thin-S" transform="matrix(1 0 0 1 811.867 696)">
   <path d="M44.5801 2.49023C65.2832 2.49023 82.2754-14.5508 82.2754-35.2539C82.2754-55.957 65.2344-72.998 44.5312-72.998C23.8281-72.998 6.83594-55.957 6.83594-35.2539C6.83594-14.5508 23.877 2.49023 44.5801 2.49023ZM44.5801-0.927734C25.5859-0.927734 10.2539-16.3086 10.2539-35.2539C10.2539-54.1992 25.5859-69.5801 44.5312-69.5801C63.5254-69.5801 78.8574-54.1992 78.8574-35.2539C78.8574-16.3086 63.5254-0.927734 44.5801-0.927734ZM44.5801-54.1504C43.6523-54.1504 42.9688-53.5156 42.9688-52.5391L42.9688-27.2949L43.1152-21.2891L38.4766-26.0742L32.0312-32.5684C31.6895-32.9102 31.3477-33.0566 30.8594-33.0566C30.0293-33.0566 29.3457-32.4219 29.3457-31.5918C29.3457-31.1523 29.4922-30.7617 29.7852-30.4688L43.4082-16.8945C43.75-16.5039 44.1406-16.3574 44.5801-16.3574C45.0195-16.3574 45.3613-16.5039 45.752-16.8945L59.375-30.4688C59.668-30.7617 59.8145-31.1523 59.8145-31.5918C59.8145-32.4219 59.1309-33.0566 58.3008-33.0566C57.8125-33.0566 57.4707-32.9102 57.1289-32.5684L50.6836-26.0742L45.9961-21.2402L46.1914-27.2949L46.1914-52.5391C46.1914-53.5156 45.5078-54.1504 44.5801-54.1504Z"/>
  </g>
  <g id="Ultralight-S" transform="matrix(1 0 0 1 515.644 696)">
   <path d="M44.043 1.95312C64.502 1.95312 81.2988-14.7949 81.2988-35.2539C81.2988-55.7129 64.502-72.4609 44.043-72.4609C23.584-72.4609 6.83594-55.7129 6.83594-35.2539C6.83594-14.7949 23.584 1.95312 44.043 1.95312ZM44.043-0.244141C24.7559-0.244141 9.08203-15.9668 9.08203-35.2539C9.08203-54.541 24.7559-70.2637 44.043-70.2637C63.3789-70.2637 79.0527-54.541 79.0527-35.2539C79.0527-15.9668 63.3789-0.244141 44.043-0.244141ZM44.043-53.9551C43.4082-53.9551 42.9199-53.5156 42.9199-52.832L42.9199-25.2441L43.0176-19.9707L38.1348-24.9023L30.9082-32.0801C30.6641-32.373 30.4199-32.4707 30.127-32.4707C29.4922-32.4707 29.0527-32.0312 29.0527-31.4941C29.0527-31.1523 29.1992-30.9082 29.3945-30.7129L43.2617-16.7969C43.5059-16.5527 43.7988-16.4551 44.043-16.4551C44.3359-16.4551 44.6289-16.5527 44.8242-16.7969L58.7891-30.7129C58.9844-30.9082 59.082-31.1523 59.082-31.4941C59.082-32.0312 58.6426-32.4707 58.0566-32.4707C57.7148-32.4707 57.5195-32.373 57.2266-32.0801L50.0488-24.9023L45.0684-19.9219L45.2148-25.2441L45.2148-52.832C45.2148-53.5156 44.7754-53.9551 44.043-53.9551Z"/>
  </g>
 </g>
</svg>
