<?xml version="1.0" encoding="UTF-8"?>
<!--Generator: Apple Native CoreSVG 175-->
<!DOCTYPE svg
PUBLIC "-//W3C//DTD SVG 1.1//EN"
       "http://www.w3.org/Graphics/SVG/1.1/DTD/svg11.dtd">
<svg version="1.1" xmlns="http://www.w3.org/2000/svg" xmlns:xlink="http://www.w3.org/1999/xlink" width="3300" height="2200">
 <!--glyph: "uni100EBE.medium", point size: 100.0, font version: "17.3d3e1", template writer version: "65.1"-->
 <g id="Notes">
  <rect height="2200" id="artboard" style="fill:white;opacity:1" width="3300" x="0" y="0"/>
  <line style="fill:none;stroke:black;opacity:1;stroke-width:0.5;" x1="263" x2="3036" y1="292" y2="292"/>
  <text style="stroke:none;fill:black;font-family:sans-serif;font-size:13;font-weight:bold;" transform="matrix(1 0 0 1 263 322)">Weight/Scale Variations</text>
  <text style="stroke:none;fill:black;font-family:sans-serif;font-size:13;text-anchor:middle;" transform="matrix(1 0 0 1 559.711 322)">Ultralight</text>
  <text style="stroke:none;fill:black;font-family:sans-serif;font-size:13;text-anchor:middle;" transform="matrix(1 0 0 1 856.422 322)">Thin</text>
  <text style="stroke:none;fill:black;font-family:sans-serif;font-size:13;text-anchor:middle;" transform="matrix(1 0 0 1 1153.13 322)">Light</text>
  <text style="stroke:none;fill:black;font-family:sans-serif;font-size:13;text-anchor:middle;" transform="matrix(1 0 0 1 1449.84 322)">Regular</text>
  <text style="stroke:none;fill:black;font-family:sans-serif;font-size:13;text-anchor:middle;" transform="matrix(1 0 0 1 1746.56 322)">Medium</text>
  <text style="stroke:none;fill:black;font-family:sans-serif;font-size:13;text-anchor:middle;" transform="matrix(1 0 0 1 2043.27 322)">Semibold</text>
  <text style="stroke:none;fill:black;font-family:sans-serif;font-size:13;text-anchor:middle;" transform="matrix(1 0 0 1 2339.98 322)">Bold</text>
  <text style="stroke:none;fill:black;font-family:sans-serif;font-size:13;text-anchor:middle;" transform="matrix(1 0 0 1 2636.69 322)">Heavy</text>
  <text style="stroke:none;fill:black;font-family:sans-serif;font-size:13;text-anchor:middle;" transform="matrix(1 0 0 1 2933.4 322)">Black</text>
  <line style="fill:none;stroke:black;opacity:1;stroke-width:0.5;" x1="263" x2="3036" y1="1903" y2="1903"/>
  <g transform="matrix(1 0 0 1 263 1933)">
   <path d="M9.24805 0.830078Q10.8691 0.830078 12.2949 0.214844Q13.7207-0.400391 14.8096-1.49414Q15.8984-2.58789 16.5186-4.01367Q17.1387-5.43945 17.1387-7.05078Q17.1387-8.66211 16.5186-10.0879Q15.8984-11.5137 14.8047-12.6074Q13.7109-13.7012 12.2852-14.3164Q10.8594-14.9316 9.23828-14.9316Q7.62695-14.9316 6.20117-14.3164Q4.77539-13.7012 3.69141-12.6074Q2.60742-11.5137 1.9873-10.0879Q1.36719-8.66211 1.36719-7.05078Q1.36719-5.43945 1.9873-4.01367Q2.60742-2.58789 3.69629-1.49414Q4.78516-0.400391 6.21094 0.214844Q7.63672 0.830078 9.24805 0.830078ZM9.24805-0.654297Q7.91992-0.654297 6.7627-1.14746Q5.60547-1.64062 4.73145-2.51953Q3.85742-3.39844 3.36426-4.56055Q2.87109-5.72266 2.87109-7.05078Q2.87109-8.37891 3.35938-9.54102Q3.84766-10.7031 4.72168-11.582Q5.5957-12.4609 6.75293-12.9541Q7.91016-13.4473 9.23828-13.4473Q10.5762-13.4473 11.7334-12.9541Q12.8906-12.4609 13.7695-11.582Q14.6484-10.7031 15.1465-9.54102Q15.6445-8.37891 15.6445-7.05078Q15.6445-5.72266 15.1514-4.56055Q14.6582-3.39844 13.7842-2.51953Q12.9102-1.64062 11.748-1.14746Q10.5859-0.654297 9.24805-0.654297ZM5.6543-7.05078Q5.6543-6.72852 5.85938-6.52832Q6.06445-6.32812 6.40625-6.32812L8.51562-6.32812L8.51562-4.20898Q8.51562-3.88672 8.71094-3.67676Q8.90625-3.4668 9.23828-3.4668Q9.56055-3.4668 9.77051-3.67676Q9.98047-3.88672 9.98047-4.20898L9.98047-6.32812L12.0898-6.32812Q12.4219-6.32812 12.627-6.52832Q12.832-6.72852 12.832-7.05078Q12.832-7.38281 12.627-7.58789Q12.4219-7.79297 12.0898-7.79297L9.98047-7.79297L9.98047-9.90234Q9.98047-10.2344 9.77051-10.4443Q9.56055-10.6543 9.23828-10.6543Q8.90625-10.6543 8.71094-10.4443Q8.51562-10.2344 8.51562-9.90234L8.51562-7.79297L6.40625-7.79297Q6.06445-7.79297 5.85938-7.58789Q5.6543-7.38281 5.6543-7.05078Z"/>
  </g>
  <g transform="matrix(1 0 0 1 281.867 1933)">
   <path d="M11.709 2.91016Q13.75 2.91016 15.5518 2.12891Q17.3535 1.34766 18.7305-0.0292969Q20.1074-1.40625 20.8887-3.20801Q21.6699-5.00977 21.6699-7.05078Q21.6699-9.0918 20.8887-10.8936Q20.1074-12.6953 18.7305-14.0723Q17.3535-15.4492 15.5469-16.2305Q13.7402-17.0117 11.6992-17.0117Q9.6582-17.0117 7.85645-16.2305Q6.05469-15.4492 4.68262-14.0723Q3.31055-12.6953 2.5293-10.8936Q1.74805-9.0918 1.74805-7.05078Q1.74805-5.00977 2.5293-3.20801Q3.31055-1.40625 4.6875-0.0292969Q6.06445 1.34766 7.86621 2.12891Q9.66797 2.91016 11.709 2.91016ZM11.709 1.25Q9.98047 1.25 8.47656 0.605469Q6.97266-0.0390625 5.83496-1.17676Q4.69727-2.31445 4.05762-3.81836Q3.41797-5.32227 3.41797-7.05078Q3.41797-8.7793 4.05762-10.2832Q4.69727-11.7871 5.83008-12.9297Q6.96289-14.0723 8.4668-14.7119Q9.9707-15.3516 11.6992-15.3516Q13.4277-15.3516 14.9316-14.7119Q16.4355-14.0723 17.5781-12.9297Q18.7207-11.7871 19.3652-10.2832Q20.0098-8.7793 20.0098-7.05078Q20.0098-5.32227 19.3701-3.81836Q18.7305-2.31445 17.5928-1.17676Q16.4551-0.0390625 14.9463 0.605469Q13.4375 1.25 11.709 1.25ZM7.17773-7.05078Q7.17773-6.69922 7.41211-6.47461Q7.64648-6.25 8.01758-6.25L10.8887-6.25L10.8887-3.36914Q10.8887-2.99805 11.1133-2.76855Q11.3379-2.53906 11.6895-2.53906Q12.0605-2.53906 12.29-2.76855Q12.5195-2.99805 12.5195-3.36914L12.5195-6.25L15.4004-6.25Q15.7715-6.25 16.001-6.47461Q16.2305-6.69922 16.2305-7.05078Q16.2305-7.42188 16.001-7.65137Q15.7715-7.88086 15.4004-7.88086L12.5195-7.88086L12.5195-10.752Q12.5195-11.1328 12.29-11.3623Q12.0605-11.5918 11.6895-11.5918Q11.3379-11.5918 11.1133-11.3574Q10.8887-11.123 10.8887-10.752L10.8887-7.88086L8.01758-7.88086Q7.63672-7.88086 7.40723-7.65137Q7.17773-7.42188 7.17773-7.05078Z"/>
  </g>
  <g transform="matrix(1 0 0 1 305.646 1933)">
   <path d="M14.9707 5.66406Q17.0605 5.66406 18.96 5.01465Q20.8594 4.36523 22.4512 3.19336Q24.043 2.02148 25.2197 0.429688Q26.3965-1.16211 27.0459-3.06641Q27.6953-4.9707 27.6953-7.05078Q27.6953-9.14062 27.0459-11.04Q26.3965-12.9395 25.2197-14.5312Q24.043-16.123 22.4512-17.2998Q20.8594-18.4766 18.9551-19.126Q17.0508-19.7754 14.9609-19.7754Q12.8711-19.7754 10.9717-19.126Q9.07227-18.4766 7.48535-17.2998Q5.89844-16.123 4.72168-14.5312Q3.54492-12.9395 2.90039-11.04Q2.25586-9.14062 2.25586-7.05078Q2.25586-4.9707 2.90527-3.06641Q3.55469-1.16211 4.72656 0.429688Q5.89844 2.02148 7.49023 3.19336Q9.08203 4.36523 10.9814 5.01465Q12.8809 5.66406 14.9707 5.66406ZM14.9707 3.84766Q13.1641 3.84766 11.5283 3.2959Q9.89258 2.74414 8.53516 1.74805Q7.17773 0.751953 6.17676-0.610352Q5.17578-1.97266 4.62891-3.6084Q4.08203-5.24414 4.08203-7.05078Q4.08203-8.86719 4.62891-10.5029Q5.17578-12.1387 6.17188-13.501Q7.16797-14.8633 8.52539-15.8594Q9.88281-16.8555 11.5186-17.4023Q13.1543-17.9492 14.9609-17.9492Q16.7773-17.9492 18.4131-17.4023Q20.0488-16.8555 21.4111-15.8594Q22.7734-14.8633 23.7695-13.501Q24.7656-12.1387 25.3174-10.5029Q25.8691-8.86719 25.8691-7.05078Q25.8789-5.24414 25.332-3.6084Q24.7852-1.97266 23.7842-0.610352Q22.7832 0.751953 21.4209 1.74805Q20.0586 2.74414 18.4229 3.2959Q16.7871 3.84766 14.9707 3.84766ZM9.19922-7.05078Q9.19922-6.66992 9.45801-6.4209Q9.7168-6.17188 10.1172-6.17188L14.0625-6.17188L14.0625-2.2168Q14.0625-1.81641 14.3115-1.55762Q14.5605-1.29883 14.9512-1.29883Q15.3516-1.29883 15.6104-1.55273Q15.8691-1.80664 15.8691-2.2168L15.8691-6.17188L19.8242-6.17188Q20.2246-6.17188 20.4785-6.4209Q20.7324-6.66992 20.7324-7.05078Q20.7324-7.46094 20.4785-7.71484Q20.2246-7.96875 19.8242-7.96875L15.8691-7.96875L15.8691-11.9141Q15.8691-12.3242 15.6104-12.583Q15.3516-12.8418 14.9512-12.8418Q14.5605-12.8418 14.3115-12.583Q14.0625-12.3242 14.0625-11.9141L14.0625-7.96875L10.1172-7.96875Q9.70703-7.96875 9.45312-7.71484Q9.19922-7.46094 9.19922-7.05078Z"/>
  </g>
  <text style="stroke:none;fill:black;font-family:sans-serif;font-size:13;font-weight:bold;" transform="matrix(1 0 0 1 263 1953)">Design Variations</text>
  <text style="stroke:none;fill:black;font-family:sans-serif;font-size:13;" transform="matrix(1 0 0 1 263 1971)">Symbols are supported in up to nine weights and three scales.</text>
  <text style="stroke:none;fill:black;font-family:sans-serif;font-size:13;" transform="matrix(1 0 0 1 263 1989)">For optimal layout with text and other symbols, vertically align</text>
  <text style="stroke:none;fill:black;font-family:sans-serif;font-size:13;" transform="matrix(1 0 0 1 263 2007)">symbols with the adjacent text.</text>
  <line style="fill:none;stroke:#00AEEF;stroke-width:0.5;opacity:1.0;" x1="776" x2="776" y1="1919" y2="1933"/>
  <g transform="matrix(1 0 0 1 776 1933)">
   <path d="M3.31055 0.15625Q3.70117 0.15625 3.91602-0.00976562Q4.13086-0.175781 4.26758-0.585938L5.52734-4.0332L11.2891-4.0332L12.5488-0.585938Q12.6855-0.175781 12.9004-0.00976562Q13.1152 0.15625 13.4961 0.15625Q13.8867 0.15625 14.1162-0.0585938Q14.3457-0.273438 14.3457-0.644531Q14.3457-0.869141 14.2383-1.17188L9.6582-13.3691Q9.48242-13.8184 9.17969-14.043Q8.87695-14.2676 8.4082-14.2676Q7.5-14.2676 7.17773-13.3789L2.59766-1.16211Q2.49023-0.859375 2.49023-0.634766Q2.49023-0.263672 2.70996-0.0537109Q2.92969 0.15625 3.31055 0.15625ZM6.00586-5.51758L8.37891-12.0898L8.42773-12.0898L10.8008-5.51758Z"/>
  </g>
  <line style="fill:none;stroke:#00AEEF;stroke-width:0.5;opacity:1.0;" x1="793.197" x2="793.197" y1="1919" y2="1933"/>
  <text style="stroke:none;fill:black;font-family:sans-serif;font-size:13;font-weight:bold;" transform="matrix(1 0 0 1 776 1953)">Margins</text>
  <text style="stroke:none;fill:black;font-family:sans-serif;font-size:13;" transform="matrix(1 0 0 1 776 1971)">Leading and trailing margins on the left and right side of each symbol</text>
  <text style="stroke:none;fill:black;font-family:sans-serif;font-size:13;" transform="matrix(1 0 0 1 776 1989)">can be adjusted by modifying the x-location of the margin guidelines.</text>
  <text style="stroke:none;fill:black;font-family:sans-serif;font-size:13;" transform="matrix(1 0 0 1 776 2007)">Modifications are automatically applied proportionally to all</text>
  <text style="stroke:none;fill:black;font-family:sans-serif;font-size:13;" transform="matrix(1 0 0 1 776 2025)">scales and weights.</text>
  <g transform="matrix(1 0 0 1 1289 1933)">
   <path d="M2.8418 1.86523L4.54102 3.57422Q5.18555 4.22852 5.90332 4.17969Q6.62109 4.13086 7.31445 3.35938L18.0078-8.42773L17.041-9.4043L6.42578 2.27539Q6.16211 2.57812 5.89355 2.61719Q5.625 2.65625 5.27344 2.30469L4.10156 1.14258Q3.75 0.791016 3.79395 0.522461Q3.83789 0.253906 4.14062-0.0195312L15.6152-10.8203L14.6387-11.7871L3.04688-0.898438Q2.30469-0.214844 2.25098 0.498047Q2.19727 1.21094 2.8418 1.86523ZM9.25781-16.3281Q8.94531-16.0254 8.90625-15.6348Q8.86719-15.2441 9.04297-14.9512Q9.21875-14.6777 9.55566-14.541Q9.89258-14.4043 10.3809-14.5215Q11.4746-14.7754 12.5977-14.7314Q13.7207-14.6875 14.7949-13.9844L14.209-12.5293Q13.9551-11.9043 14.0674-11.4404Q14.1797-10.9766 14.5801-10.5664L16.875-8.25195Q17.2363-7.88086 17.5781-7.82227Q17.9199-7.76367 18.3398-7.8418L19.4043-8.03711L20.0684-7.36328L20.0293-6.80664Q20-6.43555 20.1221-6.12305Q20.2441-5.81055 20.6055-5.44922L21.3672-4.70703Q21.7285-4.3457 22.1533-4.33105Q22.5781-4.31641 22.9297-4.66797L25.8398-7.58789Q26.1914-7.93945 26.1816-8.35449Q26.1719-8.76953 25.8105-9.13086L25.0391-9.89258Q24.6875-10.2539 24.3799-10.3857Q24.0723-10.5176 23.7109-10.4883L23.1348-10.4395L22.4902-11.0742L22.7344-12.1973Q22.832-12.6172 22.6953-12.9834Q22.5586-13.3496 22.1191-13.7891L19.9219-15.9766Q18.6719-17.2168 17.2607-17.8369Q15.8496-18.457 14.4189-18.4814Q12.9883-18.5059 11.665-17.959Q10.3418-17.4121 9.25781-16.3281ZM10.752-15.957Q11.6602-16.6211 12.7002-16.9043Q13.7402-17.1875 14.8047-17.085Q15.8691-16.9824 16.8701-16.5137Q17.8711-16.0449 18.7012-15.2051L21.1328-12.793Q21.3086-12.6172 21.3525-12.4512Q21.3965-12.2852 21.3379-12.0312L21.0156-10.5469L22.5195-9.0625L23.5059-9.12109Q23.6914-9.13086 23.7891-9.09668Q23.8867-9.0625 24.0332-8.91602L24.6094-8.33984L22.168-5.89844L21.5918-6.47461Q21.4453-6.62109 21.4062-6.71875Q21.3672-6.81641 21.377-7.01172L21.4453-7.98828L19.9512-9.47266L18.4277-9.21875Q18.1836-9.16992 18.042-9.2041Q17.9004-9.23828 17.7148-9.41406L15.7129-11.416Q15.5176-11.5918 15.4932-11.7529Q15.4688-11.9141 15.5859-12.1875L16.4648-14.2773Q15.293-15.3711 13.8281-15.791Q12.3633-16.2109 10.8398-15.7617Q10.7227-15.7324 10.6885-15.8057Q10.6543-15.8789 10.752-15.957Z"/>
  </g>
  <text style="stroke:none;fill:black;font-family:sans-serif;font-size:13;font-weight:bold;" transform="matrix(1 0 0 1 1289 1953)">Exporting</text>
  <text style="stroke:none;fill:black;font-family:sans-serif;font-size:13;" transform="matrix(1 0 0 1 1289 1971)">Symbols should be outlined when exporting to ensure the</text>
  <text style="stroke:none;fill:black;font-family:sans-serif;font-size:13;" transform="matrix(1 0 0 1 1289 1989)">design is preserved when submitting to Xcode.</text>
  <text id="template-version" style="stroke:none;fill:black;font-family:sans-serif;font-size:13;text-anchor:end;" transform="matrix(1 0 0 1 3036 1933)">Template v.3.0</text>
  <text style="stroke:none;fill:black;font-family:sans-serif;font-size:13;text-anchor:end;" transform="matrix(1 0 0 1 3036 1951)">Requires Xcode 13 or greater</text>
  <text id="descriptive-name" style="stroke:none;fill:black;font-family:sans-serif;font-size:13;text-anchor:end;" transform="matrix(1 0 0 1 3036 1969)">Generated from xmark.app</text>
  <text style="stroke:none;fill:black;font-family:sans-serif;font-size:13;text-anchor:end;" transform="matrix(1 0 0 1 3036 1987)">Typeset at 100 points</text>
  <text style="stroke:none;fill:black;font-family:sans-serif;font-size:13;" transform="matrix(1 0 0 1 263 726)">Small</text>
  <text style="stroke:none;fill:black;font-family:sans-serif;font-size:13;" transform="matrix(1 0 0 1 263 1156)">Medium</text>
  <text style="stroke:none;fill:black;font-family:sans-serif;font-size:13;" transform="matrix(1 0 0 1 263 1586)">Large</text>
 </g>
 <g id="Guides">
  <g id="H-reference" style="fill:#27AAE1;stroke:none;" transform="matrix(1 0 0 1 339 696)">
   <path d="M0.993347 0L3.6377 0L29.3282-67.1326L30.0301-67.1326L30.0301-70.459L28.1227-70.459ZM11.6882-24.4797L46.9818-24.4797L46.2311-26.7288L12.4382-26.7288ZM55.1193 0L57.7637 0L30.6381-70.459L29.4327-70.459L29.4327-67.1326Z"/>
  </g>
  <line id="Baseline-S" style="fill:none;stroke:#27AAE1;opacity:1;stroke-width:0.5;" x1="263" x2="3036" y1="696" y2="696"/>
  <line id="Capline-S" style="fill:none;stroke:#27AAE1;opacity:1;stroke-width:0.5;" x1="263" x2="3036" y1="625.541" y2="625.541"/>
  <g id="H-reference" style="fill:#27AAE1;stroke:none;" transform="matrix(1 0 0 1 339 1126)">
   <path d="M0.993347 0L3.6377 0L29.3282-67.1326L30.0301-67.1326L30.0301-70.459L28.1227-70.459ZM11.6882-24.4797L46.9818-24.4797L46.2311-26.7288L12.4382-26.7288ZM55.1193 0L57.7637 0L30.6381-70.459L29.4327-70.459L29.4327-67.1326Z"/>
  </g>
  <line id="Baseline-M" style="fill:none;stroke:#27AAE1;opacity:1;stroke-width:0.5;" x1="263" x2="3036" y1="1126" y2="1126"/>
  <line id="Capline-M" style="fill:none;stroke:#27AAE1;opacity:1;stroke-width:0.5;" x1="263" x2="3036" y1="1055.54" y2="1055.54"/>
  <g id="H-reference" style="fill:#27AAE1;stroke:none;" transform="matrix(1 0 0 1 339 1556)">
   <path d="M0.993347 0L3.6377 0L29.3282-67.1326L30.0301-67.1326L30.0301-70.459L28.1227-70.459ZM11.6882-24.4797L46.9818-24.4797L46.2311-26.7288L12.4382-26.7288ZM55.1193 0L57.7637 0L30.6381-70.459L29.4327-70.459L29.4327-67.1326Z"/>
  </g>
  <line id="Baseline-L" style="fill:none;stroke:#27AAE1;opacity:1;stroke-width:0.5;" x1="263" x2="3036" y1="1556" y2="1556"/>
  <line id="Capline-L" style="fill:none;stroke:#27AAE1;opacity:1;stroke-width:0.5;" x1="263" x2="3036" y1="1485.54" y2="1485.54"/>
  <line id="left-margin-Regular-M" style="fill:none;stroke:#00AEEF;stroke-width:0.5;opacity:1.0;" x1="1392.38" x2="1392.38" y1="1030.79" y2="1150.12"/>
  <line id="right-margin-Regular-M" style="fill:none;stroke:#00AEEF;stroke-width:0.5;opacity:1.0;" x1="1507.31" x2="1507.31" y1="1030.79" y2="1150.12"/>
 </g>
 <g id="Symbols">
  <g id="Black-L" transform="matrix(1 0 0 1 2856.24 1556)">
   <path d="M129.587-87.4505Q124.523-92.4341 117.562-94.3081Q110.602-96.1821 100.284-96.1821L54.0257-96.1821Q43.7188-96.1821 36.7298-94.3075Q29.7408-92.4329 24.7365-87.4493Q19.7529-82.4436 17.9184-75.5643Q16.084-68.6849 16.084-58.2599L16.084-12.1484Q16.084-1.6924 17.9178 5.19927Q19.7516 12.0909 24.7352 17.0745Q29.7992 22.0582 36.7596 23.9322Q43.7201 25.8062 54.0386 25.8062L100.284 25.8062Q110.602 25.8062 117.592 23.9322Q124.581 22.0582 129.587 17.0745Q134.571 12.0897 136.404 5.19863Q138.238-1.6924 138.238-12.1484L138.238-58.2275Q138.238-68.6836 136.404-75.6045Q134.571-82.5253 129.587-87.4505ZM118.258-59.9942L118.258-10.3818Q118.258-5.39314 117.503-2.43166Q116.749 0.529831 114.925 2.4126Q113.023 4.23695 110.03 5.03068Q107.038 5.8244 102.05 5.8244L52.2719 5.8244Q47.2846 5.8244 44.2816 5.03068Q41.2786 4.23695 39.3958 2.4126Q37.5728 0.529831 36.8186-2.43166Q36.0645-5.39314 36.0645-10.3818L36.0645-59.9619Q36.0645-65.0361 36.8186-67.9716Q37.5728-70.9071 39.3946-72.7899Q41.2773-74.6142 44.2835-75.4073Q47.2897-76.2004 52.3042-76.2004L102.05-76.2004Q107.038-76.2004 110.03-75.4067Q113.023-74.6129 114.925-72.7886Q116.749-70.9071 117.503-67.9742Q118.258-65.0413 118.258-59.9942ZM59.0571-9.33466Q62.6341-9.33466 64.9306-11.6505L77.1598-23.8433L89.4487-11.6505Q91.7852-9.33466 95.3208-9.33466Q98.6811-9.33466 100.937-11.6181Q103.192-13.9015 103.192-17.2813Q103.192-20.3496 100.818-22.7239L88.4693-35.1309L100.839-47.5793Q103.213-49.9536 103.213-52.9999Q103.213-56.3809 100.957-58.654Q98.7019-60.9271 95.3415-60.9271Q91.8474-60.9271 89.5108-58.6112L77.1598-46.3406L64.8891-58.5905Q62.6134-60.9064 59.0571-60.9064Q55.7565-60.9064 53.4718-58.6333Q51.187-56.3602 51.187-52.9804Q51.187-49.9121 53.5613-47.5586L65.9683-35.1309L53.5613-22.7032Q51.187-20.3496 51.187-17.2813Q51.187-13.9015 53.4718-11.6181Q55.7565-9.33466 59.0571-9.33466Z"/>
  </g>
  <g id="Heavy-L" transform="matrix(1 0 0 1 2560.32 1556)">
   <path d="M128.337-86.9488Q123.349-91.8559 116.488-93.604Q109.627-95.352 99.8108-95.352L52.8724-95.352Q43.1102-95.352 36.23-93.6009Q29.3497-91.8499 24.4128-86.9427Q19.5057-81.9998 17.7948-75.2223Q16.084-68.4448 16.084-58.5873L16.084-11.8633Q16.084-1.92777 17.7918 4.87367Q19.4996 11.6751 24.4068 16.5823Q29.3944 21.4894 36.2553 23.2375Q43.1163 24.9855 52.9327 24.9855L99.8108 24.9855Q109.627 24.9855 116.511 23.2375Q123.394 21.4894 128.337 16.5823Q133.244 11.6691 134.952 4.87065Q136.66-1.92777 136.66-11.8633L136.66-58.5032Q136.66-68.4387 134.952-75.2625Q133.244-82.0862 128.337-86.9488ZM119.162-60.2604L119.162-10.1061Q119.162-5.0943 118.363-1.73285Q117.564 1.62861 115.496 3.74141Q113.359 5.8096 109.967 6.6456Q106.574 7.4816 101.568 7.4816L51.1756 7.4816Q46.1698 7.4816 42.7621 6.6456Q39.3544 5.8096 37.2416 3.74141Q35.1795 1.62861 34.3807-1.73285Q33.5818-5.0943 33.5818-10.1061L33.5818-60.1763Q33.5818-65.2927 34.3807-68.6469Q35.1795-72.0011 37.2356-74.1139Q39.3484-76.1821 42.7712-77.0151Q46.194-77.8481 51.2597-77.8481L101.568-77.8481Q106.574-77.8481 109.967-77.0121Q113.359-76.1761 115.496-74.1079Q117.564-72.0011 118.363-68.659Q119.162-65.3168 119.162-60.2604ZM57.4238-9.21477Q60.6439-9.21477 62.7274-11.322L76.3657-24.9515L90.0547-11.322Q92.1917-9.21477 95.3523-9.21477Q98.3791-9.21477 100.433-11.2846Q102.486-13.3545 102.486-16.4049Q102.486-19.2086 100.334-21.3604L86.5947-35.1447L100.364-48.9884Q102.516-51.1403 102.516-53.9081Q102.516-56.9646 100.462-59.0196Q98.4088-61.0745 95.3821-61.0745Q92.281-61.0745 90.144-58.9673L76.3657-45.2695L62.6679-58.9375Q60.6142-61.0448 57.4238-61.0448Q54.4477-61.0448 52.3718-58.9898Q50.2959-56.9349 50.2959-53.8844Q50.2959-51.0808 52.4478-48.9587L66.232-35.1447L52.4478-21.3307Q50.2959-19.2086 50.2959-16.4049Q50.2959-13.3545 52.3718-11.2846Q54.4477-9.21477 57.4238-9.21477Z"/>
  </g>
  <g id="Bold-L" transform="matrix(1 0 0 1 2264.64 1556)">
   <path d="M126.673-86.2838Q121.826-91.0508 115.133-92.6651Q108.439-94.2794 99.1208-94.2794L51.4095-94.2794Q42.2193-94.2794 35.5183-92.658Q28.8173-91.0366 24.0134-86.2696Q19.2464-81.4514 17.6652-74.8455Q16.084-68.2395 16.084-58.9766L16.084-11.5385Q16.084-2.12487 17.6581 4.52095Q19.2322 11.1668 23.9992 15.9337Q28.8465 20.7007 35.54 22.315Q42.2336 23.9293 51.5518 23.9293L99.1208 23.9293Q108.439 23.9293 115.147 22.315Q121.855 20.7007 126.673 15.9337Q131.44 11.1525 133.015 4.51383Q134.589-2.12487 134.589-11.5385L134.589-58.8116Q134.589-68.2252 133.015-74.8857Q131.44-81.5461 126.673-86.2838ZM120.153-60.5524L120.153-9.79771Q120.153-4.67078 119.285-0.857589Q118.418 2.9556 116.071 5.3315Q113.673 7.67819 109.823 8.57876Q105.974 9.47932 100.862 9.47932L49.811 9.47932Q44.6983 9.47932 40.8307 8.57876Q36.963 7.67819 34.5871 5.3315Q32.2547 2.9556 31.3872-0.857589Q30.5198-4.67078 30.5198-9.79771L30.5198-60.3874Q30.5198-65.6516 31.3872-69.4858Q32.2547-73.3199 34.5729-75.6958Q36.9488-78.0425 40.852-78.936Q44.7552-79.8294 49.976-79.8294L100.862-79.8294Q105.974-79.8294 109.823-78.9289Q113.673-78.0283 116.071-75.6816Q118.418-73.3199 119.285-69.5142Q120.153-65.7085 120.153-60.5524ZM55.3837-9.15837Q58.147-9.15837 59.9636-10.9977L75.3221-26.3782L90.724-10.9977Q92.6003-9.15837 95.2897-9.15837Q97.8915-9.15837 99.6803-10.9475Q101.469-12.7367 101.469-15.3613Q101.469-17.817 99.6005-19.6855L84.1552-35.1601L99.6375-50.7086Q101.506-52.5771 101.506-54.9817Q101.506-57.6204 99.7173-59.3911Q97.9285-61.1618 95.3267-61.1618Q92.7113-61.1618 90.835-59.3224L75.3221-43.89L59.8896-59.2855Q58.1101-61.1248 55.3837-61.1248Q52.8253-61.1248 51.0219-59.3541Q49.2185-57.5834 49.2185-54.9589Q49.2185-52.5032 51.0871-50.6716L66.5616-35.1601L51.0871-19.6486Q49.2185-17.817 49.2185-15.3613Q49.2185-12.7367 51.0219-10.9475Q52.8253-9.15837 55.3837-9.15837Z"/>
  </g>
  <g id="Semibold-L" transform="matrix(1 0 0 1 1968.64 1556)">
   <path d="M125.527-85.8254Q120.776-90.4957 114.198-92.0179Q107.62-93.54 98.6452-93.54L50.4011-93.54Q41.6052-93.54 35.0277-92.0079Q28.4503-90.4759 23.738-85.8056Q19.0677-81.0734 17.5758-74.5857Q16.084-68.0979 16.084-59.245L16.084-11.3146Q16.084-2.26075 17.5659 4.27778Q19.0478 10.8163 23.7181 15.4866Q28.4689 20.1569 35.0469 21.6791Q41.625 23.2012 50.5998 23.2012L98.6452 23.2012Q107.62 23.2012 114.207 21.6791Q120.795 20.1569 125.527 15.4866Q130.197 10.7964 131.679 4.26785Q133.161-2.26075 133.161-11.3146L133.161-59.0242Q133.161-68.0781 131.679-74.6259Q130.197-81.1737 125.527-85.8254ZM120.836-60.7537L120.836-9.58511Q120.836-4.37881 119.921-0.254191Q119.007 3.87042 116.468 6.42769Q113.889 8.96639 109.725 9.91146Q105.561 10.8565 100.375 10.8565L48.8703 10.8565Q43.6838 10.8565 39.4992 9.91146Q35.3145 8.96639 32.7572 6.42769Q30.2384 3.87042 29.3236-0.254191Q28.4088-4.37881 28.4088-9.58511L28.4088-60.5329Q28.4088-65.8991 29.3236-70.0641Q30.2384-74.2291 32.7373-76.7864Q35.2946-79.3251 39.529-80.2602Q43.7633-81.1954 49.0911-81.1954L100.375-81.1954Q105.561-81.1954 109.725-80.2503Q113.889-79.3052 116.468-76.7665Q119.007-74.2291 119.921-70.1039Q120.836-65.9786 120.836-60.7537ZM53.9772-9.11949Q56.4257-9.11949 58.0583-10.7741L74.6026-27.3618L91.1854-10.7741Q92.882-9.11949 95.2465-9.11949Q97.5553-9.11949 99.1616-10.7152Q100.768-12.3109 100.768-14.6417Q100.768-16.8577 99.0946-18.5309L82.4734-35.1707L99.1366-51.8945Q100.81-53.5677 100.81-55.7218Q100.81-58.0725 99.2036-59.6472Q97.5973-61.2219 95.2885-61.2219Q93.0079-61.2219 91.3113-59.5673L74.6026-42.939L57.9743-59.5253Q56.3837-61.18 53.9772-61.18Q51.7069-61.18 50.0913-59.6053Q48.4758-58.0306 48.4758-55.6997Q48.4758-53.4837 50.149-51.8525L66.7888-35.1707L50.149-18.4889Q48.4758-16.8577 48.4758-14.6417Q48.4758-12.3109 50.0913-10.7152Q51.7069-9.11949 53.9772-9.11949Z"/>
  </g>
  <g id="Medium-L" transform="matrix(1 0 0 1 1672.47 1556)">
   <path d="M124.657-85.4779Q119.98-90.0749 113.489-91.5271Q106.999-92.9793 98.2845-92.9793L49.6364-92.9793Q41.1395-92.9793 34.6557-91.515Q28.172-90.0507 23.5292-85.4537Q18.9322-80.7868 17.5081-74.3887Q16.084-67.9906 16.084-59.4486L16.084-11.1448Q16.084-2.36378 17.496 4.09341Q18.908 10.5506 23.5051 15.1476Q28.1825 19.7446 34.6731 21.1969Q41.1636 22.6491 49.8779 22.6491L98.2845 22.6491Q106.999 22.6491 113.495 21.1969Q119.99 19.7446 124.657 15.1476Q129.254 10.5264 130.666 4.08133Q132.078-2.36378 132.078-11.1448L132.078-59.1854Q132.078-67.9665 130.666-74.4289Q129.254-80.8914 124.657-85.4779ZM121.354-60.9063L121.354-9.42391Q121.354-4.15742 120.404 0.203331Q119.453 4.56408 116.769 7.25888Q114.052 9.94316 109.65 10.922Q105.248 11.9008 100.005 11.9008L48.157 11.9008Q42.9147 11.9008 38.4895 10.922Q34.0644 9.94316 31.3696 7.25888Q28.7095 4.56408 27.7588 0.203331Q26.8081-4.15742 26.8081-9.42391L26.8081-60.6432Q26.8081-66.0867 27.7588-70.5026Q28.7095-74.9185 31.3455-77.6133Q34.0403-80.2976 38.5258-81.2643Q43.0113-82.2311 48.4201-82.2311L100.005-82.2311Q105.248-82.2311 109.65-81.2522Q114.052-80.2734 116.769-77.5891Q119.453-74.9185 120.404-70.5509Q121.354-66.1833 121.354-60.9063ZM52.9108-9.09001Q55.1205-9.09001 56.6135-10.6046L74.0571-28.1075L91.5353-10.6046Q93.0956-9.09001 95.2138-9.09001Q97.3004-9.09001 98.7683-10.539Q100.236-11.988 100.236-14.0962Q100.236-16.1303 98.7111-17.6554L81.1982-35.1788L98.7568-52.7936Q100.282-54.3188 100.282-56.2829Q100.282-58.4153 98.8141-59.8414Q97.3462-61.2675 95.2596-61.2675Q93.2329-61.2675 91.6725-59.7529L74.0571-42.2179L56.522-59.7072Q55.0748-61.2218 52.9108-61.2218Q50.8589-61.2218 49.3857-59.7957Q47.9126-58.3696 47.9126-56.2613Q47.9126-54.2273 49.4377-52.7479L66.9611-35.1788L49.4377-17.6096Q47.9126-16.1303 47.9126-14.0962Q47.9126-11.988 49.3857-10.539Q50.8589-9.09001 52.9108-9.09001Z"/>
  </g>
  <g id="Regular-L" transform="matrix(1 0 0 1 1376.47 1556)">
   <path d="M123.523-85.0245Q118.941-89.5259 112.565-90.887Q106.189-92.2481 97.8141-92.2481L48.639-92.2481Q40.5321-92.2481 34.1705-90.8721Q27.809-89.4962 23.2569-84.9948Q18.7554-80.4129 17.4197-74.1318Q16.084-67.8507 16.084-59.714L16.084-10.9234Q16.084-2.49817 17.4048 3.85291Q18.7257 10.204 23.2271 14.7054Q27.809 19.2068 34.1854 20.5679Q40.5618 21.929 48.9364 21.929L97.8141 21.929Q106.189 21.929 112.565 20.5679Q118.941 19.2068 123.523 14.7054Q128.025 10.1743 129.346 3.83805Q130.666-2.49817 130.666-10.9234L130.666-59.3957Q130.666-67.8209 129.346-74.172Q128.025-80.5231 123.523-85.0245ZM122.03-61.1054L122.03-9.21365Q122.03-3.86866 121.033 0.800098Q120.035 5.46885 117.161 8.34303Q114.266 11.2172 109.552 12.24Q104.839 13.2629 99.5238 13.2629L47.2266 13.2629Q41.9113 13.2629 37.1726 12.24Q32.4339 11.2172 29.5598 8.34303Q26.7153 5.46885 25.7178 0.800098Q24.7203-3.86866 24.7203-9.21365L24.7203-60.7871Q24.7203-66.3315 25.7178-71.0746Q26.7153-75.8177 29.53-78.6919Q32.4042-81.566 37.2173-82.574Q42.0303-83.582 47.5449-83.582L99.5238-83.582Q104.839-83.582 109.552-82.5591Q114.266-81.5363 117.161-78.6621Q120.035-75.8177 121.033-71.1341Q122.03-66.4504 122.03-61.1054ZM51.5199-9.05155Q53.4181-9.05155 54.7291-10.3835L73.3455-29.0803L91.9916-10.3835Q93.3742-9.05155 95.1711-9.05155Q96.968-9.05155 98.2553-10.3092Q99.5427-11.5668 99.5427-13.3846Q99.5427-15.1815 98.2107-16.5134L79.5349-35.1893L98.2614-53.9665Q99.5934-55.2985 99.5934-57.0149Q99.5934-58.8625 98.306-60.0947Q97.0187-61.327 95.2218-61.327Q93.5263-61.327 92.1436-59.9951L73.3455-41.2773L54.6277-59.9444Q53.3674-61.2763 51.5199-61.2763Q49.7527-61.2763 48.4654-60.0441Q47.178-58.8118 47.178-56.994Q47.178-55.1971 48.51-53.9158L67.1858-35.1893L48.51-16.4628Q47.178-15.1815 47.178-13.3846Q47.178-11.5668 48.4654-10.3092Q49.7527-9.05155 51.5199-9.05155Z"/>
  </g>
  <g id="Light-L" transform="matrix(1 0 0 1 1080.85 1556)">
   <path d="M121.635-84.2857Q117.443-88.3972 111.467-89.8096Q105.491-91.222 96.6649-91.222L47.4077-91.222Q39.034-91.222 33.0828-89.7845Q27.1317-88.347 22.9901-84.2355Q18.8786-80.0435 17.4813-74.1728Q16.084-68.3021 16.084-59.8782L16.084-10.8824Q16.084-2.02616 17.4561 3.935Q18.8283 9.89616 22.9398 14.0077Q27.1317 18.1192 33.108 19.5315Q39.0842 20.9439 47.9103 20.9439L96.6649 20.9439Q105.491 20.9439 111.467 19.5315Q117.443 18.1192 121.635 14.0077Q125.747 9.8459 127.119 3.90987Q128.491-2.02616 128.491-10.8824L128.491-59.3957Q128.491-68.2519 127.119-74.213Q125.747-80.1742 121.635-84.2857ZM121.886-61.0644L121.886-9.21365Q121.886-3.23247 120.756 1.46706Q119.625 6.1666 116.709 9.08182Q113.814 11.997 109.039 13.143Q104.264 14.289 98.3336 14.289L46.2415 14.289Q40.3106 14.289 35.5206 13.143Q30.7306 11.997 27.8154 9.08182Q24.9504 6.1666 23.8196 1.46706Q22.6887-3.23247 22.6887-9.21365L22.6887-60.5819Q22.6887-66.8445 23.8196-71.6697Q24.9504-76.4949 27.7651-79.4101Q30.6804-82.3253 35.596-83.4462Q40.5117-84.567 46.7241-84.567L98.3336-84.567Q104.264-84.567 109.039-83.4211Q113.814-82.2751 116.709-79.3599Q119.625-76.4949 120.756-71.7702Q121.886-67.0456 121.886-61.0644ZM50.0012-9.60564Q51.489-9.60564 52.5948-10.6913L72.2373-30.4142L91.93-10.6913Q93.0459-9.60564 94.4734-9.60564Q95.9009-9.60564 96.9112-10.5657Q97.9215-11.5257 97.9215-12.9331Q97.9215-14.3606 96.8358-15.4463L77.0928-35.1893L96.8659-54.9926Q97.9516-56.0783 97.9516-57.4254Q97.9516-58.883 96.9413-59.828Q95.931-60.7729 94.5035-60.7729Q93.1364-60.7729 92.0205-59.6872L72.2373-39.9844L52.5345-59.6571Q51.4589-60.7428 50.0012-60.7428Q48.624-60.7428 47.6137-59.7978Q46.6034-58.8528 46.6034-57.4455Q46.6034-56.018 47.6891-54.9624L67.4321-35.1893L47.6891-15.4161Q46.6034-14.3606 46.6034-12.9331Q46.6034-11.5257 47.6137-10.5657Q48.624-9.60564 50.0012-9.60564Z"/>
  </g>
  <g id="Thin-L" transform="matrix(1 0 0 1 785.574 1556)">
   <path d="M119.138-83.3086Q115.462-86.9044 110.015-88.3846Q104.568-89.8649 95.1449-89.8649L45.7791-89.8649Q37.0526-89.8649 31.6443-88.3459Q26.236-86.827 22.6372-83.2312Q19.0414-79.555 17.5627-74.2271Q16.084-68.8993 16.084-60.0953L16.084-10.8281Q16.084-1.4019 17.524 4.04357Q18.964 9.48904 22.5598 13.0848Q26.236 16.6807 31.683 18.1609Q37.13 19.6411 46.5532 19.6411L95.1449 19.6411Q104.568 19.6411 110.015 18.1609Q115.462 16.6807 119.138 13.0848Q122.734 9.41163 124.174 4.00487Q125.614-1.4019 125.614-10.8281L125.614-59.3957Q125.614-68.8219 124.174-74.2673Q122.734-79.7128 119.138-83.3086ZM121.696-61.0101L121.696-9.21365Q121.696-2.39107 120.389 2.34918Q119.082 7.08942 116.112 10.0589Q113.217 13.0284 108.361 14.3373Q103.505 15.6461 96.7593 15.6461L44.9387 15.6461Q38.1936 15.6461 33.3357 14.3373Q28.4778 13.0284 25.5083 10.0589Q22.6162 7.08942 21.3089 2.34918Q20.0016-2.39107 20.0016-9.21365L20.0016-60.3105Q20.0016-67.5231 21.3089-72.4568Q22.6162-77.3906 25.4309-80.3601Q28.4004-83.3296 33.4518-84.5997Q38.5032-85.8698 45.6384-85.8698L96.7593-85.8698Q103.505-85.8698 108.361-84.561Q113.217-83.2522 116.112-80.2827Q119.082-77.3906 120.389-72.6116Q121.696-67.8327 121.696-61.0101ZM47.9927-10.3385Q48.9377-10.3385 49.7721-11.0985L70.7716-32.1785L91.8486-11.0985Q92.6116-10.3385 93.5505-10.3385Q94.4895-10.3385 95.1334-10.905Q95.7772-11.4714 95.7772-12.336Q95.7772-13.2749 95.0173-14.0349L73.8629-35.1893L95.0203-56.3497Q95.7803-57.1097 95.7803-57.9682Q95.7803-58.9101 95.1364-59.4751Q94.4925-60.0401 93.5536-60.0401Q92.6207-60.0401 91.8577-59.2801L70.7716-38.2745L49.766-59.2771Q48.9347-60.0371 47.9927-60.0371Q47.1312-60.0371 46.4873-59.4721Q45.8434-58.9071 45.8434-58.0426Q45.8434-57.1036 46.6034-56.3467L67.7578-35.1893L46.6034-14.0319Q45.8434-13.2749 45.8434-12.336Q45.8434-11.4714 46.4873-10.905Q47.1312-10.3385 47.9927-10.3385Z"/>
  </g>
  <g id="Ultralight-L" transform="matrix(1 0 0 1 489.6 1556)">
   <path d="M117.859-82.8081Q114.447-86.1398 109.271-87.6548Q104.095-89.1698 94.3664-89.1698L44.945-89.1698Q36.0378-89.1698 30.9075-87.6091Q25.7773-86.0485 22.4565-82.7168Q19.1248-79.3047 17.6044-74.2549Q16.084-69.2051 16.084-60.2065L16.084-10.8003Q16.084-1.08215 17.5588 4.09918Q19.0335 9.28051 22.3652 12.6122Q25.7773 15.9438 30.9532 17.4588Q36.1291 18.9738 45.8581 18.9738L94.3664 18.9738Q104.095 18.9738 109.271 17.4588Q114.447 15.9438 117.859 12.6122Q121.191 9.1892 122.666 4.05353Q124.14-1.08215 124.14-10.8003L124.14-59.3957Q124.14-69.1138 122.666-74.2951Q121.191-79.4765 117.859-82.8081ZM121.599-60.9823L121.599-9.21365Q121.599-1.96011 120.201 2.80099Q118.804 7.56209 115.806 10.5594Q112.911 13.5567 108.013 14.9489Q103.115 16.3412 95.953 16.3412L44.2714 16.3412Q37.1092 16.3412 32.2166 14.9489Q27.324 13.5567 24.3267 10.5594Q21.4207 7.56209 20.023 2.80099Q18.6253-1.96011 18.6253-9.21365L18.6253-60.1715Q18.6253-67.8706 20.023-72.86Q21.4207-77.8494 24.2354-80.8467Q27.2327-83.844 32.3535-85.1905Q37.4744-86.5371 45.0823-86.5371L95.953-86.5371Q103.115-86.5371 108.013-85.1449Q112.911-83.7527 115.806-80.7554Q118.804-77.8494 120.201-73.0426Q121.599-68.2358 121.599-60.9823ZM46.964-10.7138Q47.6309-10.7138 48.3263-11.307L70.0209-33.0821L91.8069-11.307Q92.3892-10.7138 93.0779-10.7138Q93.7666-10.7138 94.2228-11.0787Q94.679-11.4436 94.679-12.0301Q94.679-12.7188 94.0858-13.312L72.2085-35.1893L94.0749-57.0448Q94.6681-57.638 94.6681-58.2462Q94.6681-58.924 94.2119-59.2944Q93.7557-59.6647 93.067-59.6647Q92.3565-59.6647 91.7742-59.0716L70.0209-37.3987L48.348-59.0825Q47.6418-59.6756 46.964-59.6756Q46.3666-59.6756 45.9104-59.3053Q45.4542-58.9349 45.4542-58.3484Q45.4542-57.6597 46.0473-57.0557L67.9246-35.1893L46.0473-13.3229Q45.4542-12.7188 45.4542-12.0301Q45.4542-11.4436 45.9104-11.0787Q46.3666-10.7138 46.964-10.7138Z"/>
  </g>
  <g id="Black-M" transform="matrix(1 0 0 1 2873.09 1126)">
   <path d="M101.215-76.0185Q97.2789-79.8924 91.855-81.4594Q86.4312-83.0265 77.9444-83.0265L42.6804-83.0265Q34.1908-83.0265 28.7383-81.4596Q23.2858-79.8927 19.4064-76.0188Q15.5325-72.1397 13.9967-66.778Q12.4609-61.4163 12.4609-52.8129L12.4609-17.5872Q12.4609-8.98067 13.9969-3.61668Q15.5328 1.74731 19.4067 5.62119Q23.3429 9.49507 28.7667 11.0621Q34.1905 12.6292 42.6773 12.6292L77.9444 12.6292Q86.4312 12.6292 91.8836 11.0621Q97.336 9.49507 101.215 5.62119Q105.089 1.74761 106.625-3.61653Q108.161-8.98067 108.161-17.5872L108.161-52.8101Q108.161-61.4166 106.625-66.8092Q105.089-72.2017 101.215-76.0185ZM90.8227-54.1814L90.8227-16.2159Q90.8227-12.2847 90.2587-10.3298Q89.6948-8.37503 88.4853-7.10852Q87.213-5.8991 85.2301-5.30382Q83.2472-4.70855 79.3157-4.70855L41.306-4.70855Q37.3745-4.70855 35.3889-5.30382Q33.4032-5.8991 32.1367-7.10852Q30.927-8.37503 30.363-10.3298Q29.799-12.2847 29.799-16.2159L29.799-54.1787Q29.799-58.1709 30.363-60.0964Q30.927-62.022 32.137-63.2885Q33.4035-64.4979 35.3884-65.0933Q37.3733-65.6887 41.3088-65.6887L79.3157-65.6887Q83.2472-65.6887 85.2301-65.0935Q87.213-64.4982 88.4853-63.2888Q89.6948-62.022 90.2587-60.0958Q90.8227-58.1697 90.8227-54.1814ZM46.952-15.3458Q49.9744-15.3458 51.9087-17.2859L60.3112-25.6365L68.7704-17.2859Q70.7161-15.3458 73.7274-15.3458Q76.5675-15.3458 78.4509-17.2581Q80.3344-19.1704 80.3344-22.0163Q80.3344-24.5709 78.3372-26.5681L69.8211-35.1412L78.3427-43.7254Q80.3399-45.7226 80.3399-48.272Q80.3399-51.1176 78.4564-53.0271Q76.573-54.9367 73.7329-54.9367Q70.7326-54.9367 68.787-52.9966L60.3112-44.5831L51.8976-52.9911Q49.9689-54.9312 46.952-54.9312Q44.1688-54.9312 42.2567-53.0216Q40.3447-51.1121 40.3447-48.2662Q40.3447-45.7116 42.3419-43.7199L50.9151-35.1412L42.3419-26.5626Q40.3447-24.5709 40.3447-22.0163Q40.3447-19.1704 42.2567-17.2581Q44.1688-15.3458 46.952-15.3458Z"/>
  </g>
  <g id="Heavy-M" transform="matrix(1 0 0 1 2577.05 1126)">
   <path d="M100.167-75.5961Q96.2697-79.4312 90.9062-80.8704Q85.5427-82.3096 77.5883-82.3096L41.6665-82.3096Q33.7341-82.3096 28.35-80.8692Q22.966-79.4288 19.1146-75.5937Q15.2795-71.7399 13.8702-66.4399Q12.4609-61.1399 12.4609-53.1179L12.4609-17.3122Q12.4609-9.2543 13.869-3.94255Q15.277 1.3692 19.1122 5.20432Q23.0096 9.03944 28.3731 10.4786Q33.7366 11.9178 41.691 11.9178L77.5883 11.9178Q85.5427 11.9178 90.928 10.4786Q96.3133 9.03944 100.167 5.20432Q104.002 1.36675 105.41-3.94377Q106.818-9.2543 106.818-17.3122L106.818-53.0796Q106.818-61.1375 105.41-66.471Q104.002-71.8046 100.167-75.5961ZM91.7197-54.4454L91.7197-15.9464Q91.7197-12.0512 91.1244-9.70824Q90.5291-7.36527 89.0851-5.87766Q87.5837-4.43368 85.2153-3.80843Q82.8468-3.18318 78.9541-3.18318L40.3251-3.18318Q36.4324-3.18318 34.0559-3.80843Q31.6793-4.43368 30.1917-5.87766Q28.7502-7.36527 28.1548-9.70824Q27.5595-12.0512 27.5595-15.9464L27.5595-54.4072Q27.5595-58.3744 28.1548-60.7017Q28.7502-63.029 30.1892-64.5166Q31.6769-65.9606 34.0595-66.5846Q36.4422-67.2086 40.3634-67.2086L78.9541-67.2086Q82.8468-67.2086 85.2153-66.5834Q87.5837-65.9581 89.0851-64.5141Q90.5291-63.029 91.1244-60.7066Q91.7197-58.3842 91.7197-54.4454ZM45.4954-15.1775Q48.2068-15.1775 49.9519-16.9364L59.6372-26.5967L69.3686-16.9364Q71.1437-15.1775 73.8226-15.1775Q76.3706-15.1775 78.0822-16.9084Q79.7938-18.6394 79.7938-21.2012Q79.7938-23.5311 77.9913-25.3337L68.2138-35.1547L78.0075-45.0083Q79.81-46.8108 79.81-49.122Q79.81-51.6863 78.0984-53.4091Q76.3868-55.132 73.8388-55.132Q71.1924-55.132 69.4173-53.3731L59.6372-43.6553L49.9194-53.3568Q48.1905-55.1157 45.4954-55.1157Q42.9935-55.1157 41.26-53.3929Q39.5266-51.67 39.5266-49.1082Q39.5266-46.7783 41.3291-44.992L51.1502-35.1547L41.3291-25.3174Q39.5266-23.5311 39.5266-21.2012Q39.5266-18.6394 41.26-16.9084Q42.9935-15.1775 45.4954-15.1775Z"/>
  </g>
  <g id="Bold-M" transform="matrix(1 0 0 1 2281.09 1126)">
   <path d="M98.9948-75.1236Q95.1408-78.9154 89.8448-80.2115Q84.5488-81.5077 77.19-81.5077L40.5323-81.5077Q33.2232-81.5077 27.9157-80.2088Q22.6082-78.9099 18.7882-75.1181Q14.9965-71.2926 13.7287-66.0617Q12.4609-60.8308 12.4609-53.459L12.4609-17.0046Q12.4609-9.5604 13.7259-4.30708Q14.9909 0.94623 18.7827 4.73799Q22.6368 8.52975 27.9328 9.8259Q33.2287 11.1221 40.5876 11.1221L77.19 11.1221Q84.5488 11.1221 89.859 9.8259Q95.1693 8.52975 98.9948 4.73799Q102.787 0.940709 104.052-4.30985Q105.317-9.5604 105.317-17.0046L105.317-53.3811Q105.317-60.8252 104.052-66.0928Q102.787-71.3604 98.9948-75.1236ZM92.7232-54.7407L92.7232-15.6449Q92.7232-11.7901 92.0928-9.01289Q91.4624-6.23571 89.7561-4.50078Q87.9984-2.79439 85.1987-2.13562Q82.3989-1.47684 78.5496-1.47684L39.2279-1.47684Q35.3786-1.47684 32.5647-2.13562Q29.7509-2.79439 28.0159-4.50078Q26.3151-6.23571 25.6847-9.01289Q25.0543-11.7901 25.0543-15.6449L25.0543-54.6628Q25.0543-58.602 25.6847-61.3787Q26.3151-64.1554 28.0104-65.8904Q29.7454-67.5968 32.573-68.2528Q35.4007-68.9088 39.3058-68.9088L78.5496-68.9088Q82.3989-68.9088 85.1987-68.25Q87.9984-67.5912 89.7561-65.8849Q91.4624-64.1554 92.0928-61.3898Q92.7232-58.6241 92.7232-54.7407ZM43.866-14.9892Q46.2294-14.9892 47.7629-16.5454L58.8832-27.6709L70.0376-16.5454Q71.6221-14.9892 73.929-14.9892Q76.1504-14.9892 77.6697-16.5173Q79.1891-18.0454 79.1891-20.2895Q79.1891-22.368 77.6043-23.9528L66.4159-35.1698L77.6326-46.4433Q79.2173-48.028 79.2173-50.0728Q79.2173-52.3224 77.698-53.8364Q76.1786-55.3504 73.9573-55.3504Q71.7068-55.3504 70.1223-53.7942L58.8832-42.6174L47.7064-53.766Q46.2012-55.3222 43.866-55.3222Q41.6787-55.3222 40.1451-53.8082Q38.6115-52.2942 38.6115-50.0501Q38.6115-47.9715 40.1962-46.415L51.4132-35.1698L40.1962-23.9245Q38.6115-22.368 38.6115-20.2895Q38.6115-18.0454 40.1451-16.5173Q41.6787-14.9892 43.866-14.9892Z"/>
  </g>
  <g id="Semibold-M" transform="matrix(1 0 0 1 1984.9 1126)">
   <path d="M98.1867-74.7979Q94.3625-78.5598 89.113-79.7573Q83.8636-80.9549 76.9154-80.9549L39.7505-80.9549Q32.871-80.9549 27.6163-79.7535Q22.3616-78.5521 18.5632-74.7903Q14.8014-70.9842 13.6311-65.8009Q12.4609-60.6176 12.4609-53.6942L12.4609-16.7925Q12.4609-9.77142 13.6273-4.55839Q14.7937 0.654638 18.5556 4.4165Q22.3798 8.17837 27.6292 9.37591Q32.8786 10.5735 39.8269 10.5735L76.9154 10.5735Q83.8636 10.5735 89.1221 9.37591Q94.3806 8.17837 98.1867 4.4165Q101.949 0.646997 103.115-4.56221Q104.281-9.77142 104.281-16.7925L104.281-53.5889Q104.281-60.61 103.115-65.8321Q101.949-71.0542 98.1867-74.7979ZM93.415-54.9443L93.415-15.4371Q93.415-11.61 92.7604-8.53351Q92.1059-5.457 90.2186-3.55156Q88.2843-1.66427 85.1872-0.982388Q82.0902-0.300501 78.2708-0.300501L38.4715-0.300501Q34.6521-0.300501 31.5368-0.982388Q28.4214-1.66427 26.516-3.55156Q24.6364-5.457 23.9818-8.53351Q23.3273-11.61 23.3273-15.4371L23.3273-54.8391Q23.3273-58.759 23.9818-61.8455Q24.6364-64.932 26.5084-66.8375Q28.4138-68.7248 31.5482-69.4028Q34.6826-70.0809 38.5767-70.0809L78.2708-70.0809Q82.0902-70.0809 85.1872-69.399Q88.2843-68.7171 90.2186-66.8298Q92.1059-64.932 92.7604-61.8608Q93.415-58.7895 93.415-54.9443ZM42.7427-14.8594Q44.8663-14.8594 46.2539-16.2758L58.3635-28.4114L70.4989-16.2758Q71.9518-14.8594 74.0024-14.8594Q75.9986-14.8594 77.3854-16.2476Q78.7722-17.6359 78.7722-19.6609Q78.7722-21.5662 77.3376-23.0008L65.1764-35.1802L77.3741-47.4326Q78.8087-48.8672 78.8087-50.7283Q78.8087-52.761 77.4219-54.131Q76.0351-55.501 74.0389-55.501Q72.0614-55.501 70.6084-54.0845L58.3635-41.9019L46.1808-54.048Q44.8298-55.4645 42.7427-55.4645Q40.7724-55.4645 39.3765-54.0945Q37.9806-52.7245 37.9806-50.6995Q37.9806-48.7941 39.4152-47.3961L51.5945-35.1802L39.4152-22.9643Q37.9806-21.5662 37.9806-19.6609Q37.9806-17.6359 39.3765-16.2476Q40.7724-14.8594 42.7427-14.8594Z"/>
  </g>
  <g id="Medium-M" transform="matrix(1 0 0 1 1688.58 1126)">
   <path d="M97.5739-74.5509Q93.7724-78.2901 88.5582-79.4129Q83.3441-80.5357 76.7072-80.5357L39.1576-80.5357Q32.6039-80.5357 27.3893-79.4083Q22.1746-78.2809 18.3926-74.5417Q14.6534-70.7504 13.5572-65.6032Q12.4609-60.456 12.4609-53.8725L12.4609-16.6317Q12.4609-9.93143 13.5526-4.74894Q14.6442 0.43354 18.3834 4.17274Q22.1849 7.91194 27.399 9.03471Q32.6132 10.1575 39.2501 10.1575L76.7072 10.1575Q83.3441 10.1575 88.5634 9.03471Q93.7826 7.91194 97.5739 4.17274Q101.313 0.424292 102.405-4.75357Q103.496-9.93143 103.496-16.6317L103.496-53.7465Q103.496-60.4468 102.405-65.6344Q101.313-70.822 97.5739-74.5509ZM93.9395-55.0987L93.9395-15.2795Q93.9395-11.4735 93.2666-8.17003Q92.5938-4.86654 90.5693-2.83182Q88.5011-0.807375 85.1786-0.107963Q81.8561 0.591449 78.0594 0.591449L37.8979 0.591449Q34.1012 0.591449 30.7573-0.107963Q27.4134-0.807375 25.3787-2.83182Q23.3635-4.86654 22.6906-8.17003Q22.0177-11.4735 22.0177-15.2795L22.0177-54.9727Q22.0177-58.8779 22.6906-62.1994Q23.3635-65.5209 25.3694-67.5556Q27.4042-69.5801 30.7712-70.2748Q34.1382-70.9696 38.0239-70.9696L78.0594-70.9696Q81.8561-70.9696 85.1786-70.2702Q88.5011-69.5708 90.5693-67.5464Q92.5938-65.5209 93.2666-62.2179Q93.9395-58.9149 93.9395-55.0987ZM41.8909-14.761Q43.8327-14.761 45.1096-16.0714L57.9694-28.9729L70.8486-16.0714Q72.2019-14.761 74.0581-14.761Q75.8834-14.761 77.1698-16.0432Q78.4561-17.3254 78.4561-19.1843Q78.4561-20.9582 77.1353-22.279L64.2365-35.1881L77.1781-48.1827Q78.4989-49.5034 78.4989-51.2254Q78.4989-53.0935 77.2125-54.3543Q75.9262-55.6152 74.1009-55.6152Q72.3302-55.6152 70.977-54.3047L57.9694-41.3594L45.0241-54.2619Q43.7899-55.5724 41.8909-55.5724Q40.0851-55.5724 38.7937-54.3116Q37.5022-53.0507 37.5022-51.1919Q37.5022-49.4179 38.8229-48.1399L51.732-35.1881L38.8229-22.2362Q37.5022-20.9582 37.5022-19.1843Q37.5022-17.3254 38.7937-16.0432Q40.0851-14.761 41.8909-14.761Z"/>
  </g>
  <g id="Regular-M" transform="matrix(1 0 0 1 1392.38 1126)">
   <path d="M96.7746-74.2288Q93.0027-77.9384 87.8345-78.9636Q82.6664-79.9889 76.4356-79.9889L38.3843-79.9889Q32.2556-79.9889 27.0931-78.958Q21.9307-77.9271 18.1701-74.2174Q14.4605-70.4455 13.4607-65.3453Q12.4609-60.2452 12.4609-54.1051L12.4609-16.4219Q12.4609-10.1401 13.455-4.99749Q14.4491 0.145153 18.1587 3.85479Q21.9307 7.56442 27.0988 8.58966Q32.2669 9.6149 38.4978 9.6149L76.4356 9.6149Q82.6664 9.6149 87.8345 8.58966Q93.0027 7.56442 96.7746 3.85479Q100.484 0.133807 101.478-5.00316Q102.472-10.1401 102.472-16.4219L102.472-53.9521Q102.472-60.2339 101.478-65.3765Q100.484-70.5191 96.7746-74.2288ZM94.6237-55.3001L94.6237-15.0739Q94.6237-11.2955 93.9269-7.69593Q93.2301-4.09639 91.0268-1.89303Q88.7838 0.31032 85.1672 1.03259Q81.5507 1.75486 77.7836 1.75486L37.1498 1.75486Q33.3826 1.75486 29.7406 1.03259Q26.0986 0.31032 23.8952-1.89303Q21.7032-4.09639 21.0064-7.69593Q20.3096-11.2955 20.3096-15.0739L20.3096-55.147Q20.3096-59.0331 21.0064-62.661Q21.7032-66.2889 23.8839-68.4923Q26.0872-70.6957 29.7576-71.4123Q33.428-72.1289 37.3028-72.1289L77.7836-72.1289Q81.5507-72.1289 85.1672-71.4066Q88.7838-70.6843 91.0268-68.481Q93.2301-66.2889 93.9269-62.6837Q94.6237-59.0785 94.6237-55.3001ZM40.78-14.6326Q42.4845-14.6326 43.6172-15.8048L57.4553-29.7053L71.3048-15.8048Q72.528-14.6326 74.1307-14.6326Q75.7333-14.6326 76.8885-15.7765Q78.0438-16.9204 78.0438-18.5626Q78.0438-20.1652 76.8715-21.3375L63.0107-35.1983L76.9225-49.1611Q78.0947-50.3334 78.0947-51.8737Q78.0947-53.5273 76.9395-54.6457Q75.7842-55.7641 74.1816-55.7641Q72.6809-55.7641 71.4577-54.5918L57.4553-40.6518L43.5152-54.5409Q42.4336-55.7131 40.78-55.7131Q39.1887-55.7131 38.0335-54.5947Q36.8782-53.4763 36.8782-51.8341Q36.8782-50.2314 38.0505-49.1102L51.9113-35.1983L38.0505-21.2865Q36.8782-20.1652 36.8782-18.5626Q36.8782-16.9204 38.0335-15.7765Q39.1887-14.6326 40.78-14.6326Z"/>
  </g>
  <g id="Light-M" transform="matrix(1 0 0 1 1096.64 1126)">
   <path d="M95.0819-73.5664Q91.6595-76.9265 86.8502-77.9977Q82.0408-79.0689 75.4052-79.0689L37.2804-79.0689Q30.9125-79.0689 26.118-77.9828Q21.3235-76.8967 17.9309-73.5367Q14.5708-70.1143 13.5159-65.3821Q12.4609-60.65 12.4609-54.2523L12.4609-16.3851Q12.4609-9.71696 13.501-4.92389Q14.5411-0.130832 17.9012 3.22922Q21.3235 6.58928 26.1329 7.66051Q30.9422 8.73175 37.5778 8.73175L75.4052 8.73175Q82.0408 8.73175 86.8502 7.66051Q91.6595 6.58928 95.0819 3.22922Q98.4419-0.160577 99.482-4.93877Q100.522-9.71696 100.522-16.3851L100.522-53.9521Q100.522-60.6202 99.482-65.4133Q98.4419-70.2064 95.0819-73.5664ZM94.4949-55.2633L94.4949-15.0739Q94.4949-10.7251 93.6785-7.09796Q92.8621-3.47082 90.622-1.23067Q88.379 1.00948 84.7073 1.84215Q81.0355 2.67481 76.7164 2.67481L36.2666 2.67481Q31.9475 2.67481 28.2595 1.84215Q24.5715 1.00948 22.3313-1.23067Q20.1209-3.47082 19.3045-7.09796Q18.4881-10.7251 18.4881-15.0739L18.4881-54.963Q18.4881-59.4931 19.3045-63.1946Q20.1209-66.8961 22.3016-69.1363Q24.5417-71.3764 28.3041-72.1942Q32.0665-73.012 36.5669-73.012L76.7164-73.012Q81.0355-73.012 84.7073-72.1793Q88.379-71.3467 90.622-69.1065Q92.8621-66.8961 93.6785-63.2541Q94.4949-59.6121 94.4949-55.2633ZM39.4185-15.1294Q40.755-15.1294 41.7037-16.0808L56.4618-30.9013L71.2496-16.0808Q72.2337-15.1294 73.5051-15.1294Q74.7765-15.1294 75.6834-16.0065Q76.5902-16.8836 76.5902-18.1578Q76.5902-19.4293 75.6388-20.3807L60.8212-35.1983L75.6713-50.0811Q76.6228-51.0325 76.6228-52.2417Q76.6228-53.5457 75.7159-54.4065Q74.8091-55.2673 73.5377-55.2673Q72.3313-55.2673 71.3473-54.3158L56.4618-39.4926L41.6385-54.2833Q40.7225-55.2348 39.4185-55.2348Q38.1768-55.2348 37.2699-54.3739Q36.3631-53.5131 36.3631-52.2388Q36.3631-50.9674 37.3145-50.0485L52.1321-35.1983L37.3145-20.3482Q36.3631-19.4293 36.3631-18.1578Q36.3631-16.8836 37.2699-16.0065Q38.1768-15.1294 39.4185-15.1294Z"/>
  </g>
  <g id="Thin-M" transform="matrix(1 0 0 1 801.221 1126)">
   <path d="M92.8431-72.6904Q89.8831-75.5881 85.5483-76.7202Q81.2135-77.8522 74.0425-77.8522L35.8203-77.8522Q29.1361-77.8522 24.8283-76.6931Q20.5205-75.534 17.6146-72.6363Q14.7169-69.6763 13.5889-65.4308Q12.4609-61.1853 12.4609-54.447L12.4609-16.3365Q12.4609-9.15727 13.5619-4.82656Q14.6628-0.495845 17.5605 2.40186Q20.5205 5.29956 24.8553 6.43164Q29.1901 7.56371 36.3611 7.56371L74.0425 7.56371Q81.2135 7.56371 85.5483 6.43164Q89.8831 5.29956 92.8431 2.40186Q95.7408-0.549923 96.8418-4.8536Q97.9427-9.15727 97.9427-16.3365L97.9427-53.9521Q97.9427-61.1313 96.8418-65.462Q95.7408-69.7927 92.8431-72.6904ZM94.3246-55.2146L94.3246-15.0739Q94.3246-9.97074 93.35-6.3071Q92.3755-2.64346 90.0866-0.35464Q87.8437 1.93418 84.0989 2.91285Q80.3542 3.89152 75.3051 3.89152L35.0986 3.89152Q30.0495 3.89152 26.3006 2.91285Q22.5517 1.93418 20.2629-0.35464Q18.0282-2.64346 17.0536-6.3071Q16.079-9.97074 16.079-15.0739L16.079-54.7197Q16.079-60.1015 17.0536-63.9003Q18.0282-67.6991 20.2088-69.988Q22.4976-72.2768 26.3817-73.2284Q30.2658-74.18 35.5935-74.18L75.3051-74.18Q80.3542-74.18 84.0989-73.2014Q87.8437-72.2227 90.0866-69.9339Q92.3755-67.6991 93.35-64.0085Q94.3246-60.3178 94.3246-55.2146ZM37.6177-15.7864Q38.4676-15.7864 39.1729-16.4458L55.1477-32.483L71.1766-16.4458Q71.8443-15.7864 72.6777-15.7864Q73.5112-15.7864 74.0895-16.3106Q74.6678-16.8349 74.6678-17.6225Q74.6678-18.4559 74.0084-19.1154L57.9254-35.1983L74.0166-51.2978Q74.6761-51.9572 74.6761-52.7283Q74.6761-53.57 74.0977-54.0901Q73.5194-54.6103 72.686-54.6103Q71.869-54.6103 71.2013-53.9508L55.1477-37.9596L39.1565-53.9426Q38.4594-54.6021 37.6177-54.6021Q36.8384-54.6021 36.26-54.0819Q35.6817-53.5618 35.6817-52.7742Q35.6817-51.9408 36.3412-51.2895L52.4241-35.1983L36.3412-19.1071Q35.6817-18.4559 35.6817-17.6225Q35.6817-16.8349 36.26-16.3106Q36.8384-15.7864 37.6177-15.7864Z"/>
  </g>
  <g id="Ultralight-M" transform="matrix(1 0 0 1 505.171 1126)">
   <path d="M91.6965-72.2417Q88.9733-74.9026 84.8815-76.0658Q80.7897-77.229 73.3445-77.229L35.0725-77.229Q28.2262-77.229 24.1677-76.0325Q20.1092-74.836 17.4525-72.1751Q14.7916-69.4519 13.6263-65.4557Q12.4609-61.4595 12.4609-54.5467L12.4609-16.3115Q12.4609-8.8706 13.593-4.7767Q14.7251-0.682802 17.386 1.97809Q20.1092 4.63898 24.201 5.80221Q28.2927 6.96544 35.7379 6.96544L73.3445 6.96544Q80.7897 6.96544 84.8815 5.80221Q88.9733 4.63898 91.6965 1.97809Q94.3574-0.749345 95.4894-4.80997Q96.6215-8.8706 96.6215-16.3115L96.6215-53.9521Q96.6215-61.393 95.4894-65.4869Q94.3574-69.5808 91.6965-72.2417ZM94.2373-55.1897L94.2373-15.0739Q94.2373-9.58436 93.1818-5.90202Q92.1262-2.21969 89.8124 0.094058Q87.5695 2.40781 83.7873 3.46126Q80.0052 4.51471 74.5821 4.51471L34.5003 4.51471Q29.0773 4.51471 25.2973 3.46126Q21.5172 2.40781 19.2035 0.094058Q16.9563-2.21969 15.9007-5.90202Q14.8451-9.58436 14.8451-15.0739L14.8451-54.595Q14.8451-60.4131 15.9007-64.2618Q16.9563-68.1104 19.1369-70.4242Q21.4507-72.7379 25.3971-73.7581Q29.3434-74.7783 35.0949-74.7783L74.5821-74.7783Q80.0052-74.7783 83.7873-73.7249Q87.5695-72.6714 89.8124-70.3577Q92.1262-68.1104 93.1818-64.3948Q94.2373-60.6792 94.2373-55.1897ZM36.6954-16.1229Q37.296-16.1229 37.8767-16.6328L54.4747-33.2931L71.1392-16.6328Q71.6449-16.1229 72.254-16.1229Q72.863-16.1229 73.2731-16.4664Q73.6832-16.81 73.6832-17.3483Q73.6832-17.9574 73.1733-18.4672L56.4422-35.1983L73.1691-51.921Q73.679-52.4309 73.679-52.9776Q73.679-53.5825 73.2689-53.9281Q72.8588-54.2738 72.2497-54.2738Q71.6322-54.2738 71.1265-53.7639L54.4747-37.1743L37.8851-53.7681Q37.3002-54.278 36.6954-54.278Q36.1529-54.278 35.7428-53.9324Q35.3327-53.5867 35.3327-53.0484Q35.3327-52.4393 35.8426-51.9252L52.5737-35.1983L35.8426-18.4715Q35.3327-17.9574 35.3327-17.3483Q35.3327-16.81 35.7428-16.4664Q36.1529-16.1229 36.6954-16.1229Z"/>
  </g>
  <g id="Black-S" transform="matrix(1 0 0 1 2885.99 696)">
   <path d="M79.541-67.2852Q76.4648-70.3125 72.2168-71.582Q67.9688-72.8516 61.1328-72.8516L33.6914-72.8516Q26.8555-72.8516 22.583-71.582Q18.3105-70.3125 15.2832-67.2852Q12.2559-64.2578 11.0107-60.0586Q9.76562-55.8594 9.76562-48.9258L9.76562-21.4844Q9.76562-14.5508 11.0107-10.3516Q12.2559-6.15234 15.2832-3.125Q18.3594-0.0976562 22.6074 1.17188Q26.8555 2.44141 33.6914 2.44141L61.1328 2.44141Q67.9688 2.44141 72.2412 1.17188Q76.5137-0.0976562 79.541-3.125Q82.5684-6.15234 83.8135-10.3516Q85.0586-14.5508 85.0586-21.4844L85.0586-48.9258Q85.0586-55.8594 83.8135-60.083Q82.5684-64.3066 79.541-67.2852ZM70.8984-50L70.8984-20.4102Q70.8984-17.2852 70.459-15.8691Q70.0195-14.4531 69.1406-13.5254Q68.2129-12.6465 66.7725-12.1826Q65.332-11.7188 62.207-11.7188L32.6172-11.7188Q29.4922-11.7188 28.0518-12.1826Q26.6113-12.6465 25.6836-13.5254Q24.8047-14.4531 24.3652-15.8691Q23.9258-17.2852 23.9258-20.4102L23.9258-50Q23.9258-53.1738 24.3652-54.5654Q24.8047-55.957 25.6836-56.8848Q26.6113-57.7637 28.0518-58.2275Q29.4922-58.6914 32.6172-58.6914L62.207-58.6914Q65.332-58.6914 66.7725-58.2275Q68.2129-57.7637 69.1406-56.8848Q70.0195-55.957 70.459-54.5654Q70.8984-53.1738 70.8984-50ZM37.1582-19.7266Q39.5996-19.7266 41.1621-21.2891L47.4121-27.4902L53.7109-21.2891Q55.2734-19.7266 57.7148-19.7266Q60.0098-19.7266 61.5234-21.2646Q63.0371-22.8027 63.0371-25.0977Q63.0371-27.1484 61.4258-28.7598L55.0781-35.1562L61.4258-41.5527Q63.0371-43.1641 63.0371-45.2148Q63.0371-47.5098 61.5234-49.0479Q60.0098-50.5859 57.7148-50.5859Q55.2734-50.5859 53.7109-49.0234L47.4121-42.7734L41.1621-49.0234Q39.5996-50.5859 37.1582-50.5859Q34.9121-50.5859 33.374-49.0479Q31.8359-47.5098 31.8359-45.2148Q31.8359-43.1641 33.4473-41.5527L39.8438-35.1562L33.4473-28.7598Q31.8359-27.1484 31.8359-25.0977Q31.8359-22.8027 33.374-21.2646Q34.9121-19.7266 37.1582-19.7266Z"/>
  </g>
  <g id="Heavy-S" transform="matrix(1 0 0 1 2589.73 696)">
   <path d="M78.8611-67.0086Q75.7734-70.0474 71.5311-71.2017Q67.2888-72.356 60.9599-72.356L32.9654-72.356Q26.6365-72.356 22.3756-71.2017Q18.1146-70.0474 15.0642-67.0086Q12.0254-63.9582 10.8955-59.7647Q9.76562-55.5713 9.76562-49.1678L9.76562-21.2539Q9.76562-14.8389 10.8955-10.6397Q12.0254-6.44046 15.0642-3.40159Q18.1519-0.362719 22.3942 0.791568Q26.6365 1.94585 32.9654 1.94585L60.9599 1.94585Q67.2888 1.94585 71.5497 0.791568Q75.8107-0.362719 78.8611-3.40159Q81.8999-6.44046 83.0298-10.6397Q84.1597-14.8389 84.1597-21.2539L84.1597-49.1563Q84.1597-55.5713 83.0298-59.7891Q81.8999-64.007 78.8611-67.0086ZM71.6821-50.2305L71.6821-20.1797Q71.6821-17.1584 71.2311-15.4139Q70.7801-13.6695 69.7053-12.5573Q68.5817-11.4825 66.8186-11.0071Q65.0554-10.5317 62.0342-10.5317L31.8911-10.5317Q28.8699-10.5317 27.101-11.0071Q25.3321-11.4825 24.22-12.5573Q23.1452-13.6695 22.6942-15.4139Q22.2432-17.1584 22.2432-20.1797L22.2432-50.219Q22.2432-53.2891 22.6942-55.0149Q23.1452-56.7407 24.22-57.8528Q25.3321-58.9276 27.101-59.403Q28.8699-59.8784 31.9027-59.8784L62.0342-59.8784Q65.0554-59.8784 66.8186-59.403Q68.5817-58.9276 69.7053-57.8528Q70.7801-56.7407 71.2311-55.0149Q71.6821-53.2891 71.6821-50.2305ZM36.0864-19.5191Q38.3089-19.5191 39.7331-20.9549L46.9627-28.1587L54.2295-20.9549Q55.6768-19.5191 57.8762-19.5191Q59.9637-19.5191 61.3621-20.9362Q62.7605-22.3533 62.7605-24.4523Q62.7605-26.3532 61.2875-27.8263L53.9833-35.1678L61.299-42.5323Q62.772-44.0053 62.772-45.8948Q62.772-47.9938 61.3736-49.4051Q59.9752-50.8164 57.8877-50.8164Q55.7114-50.8164 54.2641-49.3807L46.9627-42.1281L39.71-49.3692Q38.2973-50.8049 36.0864-50.8049Q34.0363-50.8049 32.6192-49.3936Q31.2021-47.9823 31.2021-45.8833Q31.2021-43.9823 32.6751-42.5208L40.0166-35.1678L32.6751-27.8148Q31.2021-26.3532 31.2021-24.4523Q31.2021-22.3533 32.6192-20.9362Q34.0363-19.5191 36.0864-19.5191Z"/>
  </g>
  <g id="Bold-S" transform="matrix(1 0 0 1 2293.52 696)">
   <path d="M78.1006-66.6992Q75-69.751 70.7642-70.7764Q66.5283-71.8018 60.7666-71.8018L32.1533-71.8018Q26.3916-71.8018 22.1436-70.7764Q17.8955-69.751 14.8193-66.6992Q11.7676-63.623 10.7666-59.436Q9.76562-55.249 9.76562-49.4385L9.76562-20.9961Q9.76562-15.1611 10.7666-10.9619Q11.7676-6.7627 14.8193-3.71094Q17.9199-0.65918 22.1558 0.366211Q26.3916 1.3916 32.1533 1.3916L60.7666 1.3916Q66.5283 1.3916 70.7764 0.366211Q75.0244-0.65918 78.1006-3.71094Q81.1523-6.7627 82.1533-10.9619Q83.1543-15.1611 83.1543-20.9961L83.1543-49.4141Q83.1543-55.249 82.1533-59.4604Q81.1523-63.6719 78.1006-66.6992ZM72.5586-50.4883L72.5586-19.9219Q72.5586-17.0166 72.0947-14.9048Q71.6309-12.793 70.3369-11.4746Q68.9941-10.1807 66.8701-9.69238Q64.7461-9.2041 61.8408-9.2041L31.0791-9.2041Q28.1738-9.2041 26.0376-9.69238Q23.9014-10.1807 22.583-11.4746Q21.2891-12.793 20.8252-14.9048Q20.3613-17.0166 20.3613-19.9219L20.3613-50.4639Q20.3613-53.418 20.8252-55.5176Q21.2891-57.6172 22.583-58.9355Q23.9014-60.2295 26.0376-60.7178Q28.1738-61.2061 31.1035-61.2061L61.8408-61.2061Q64.7461-61.2061 66.8701-60.7178Q68.9941-60.2295 70.3369-58.9355Q71.6309-57.6172 72.0947-55.5176Q72.5586-53.418 72.5586-50.4883ZM34.8877-19.2871Q36.8652-19.2871 38.1348-20.5811L46.46-28.9062L54.8096-20.5811Q56.1279-19.2871 58.0566-19.2871Q59.9121-19.2871 61.1816-20.5688Q62.4512-21.8506 62.4512-23.7305Q62.4512-25.4639 61.1328-26.7822L52.7588-35.1807L61.1572-43.6279Q62.4756-44.9463 62.4756-46.6553Q62.4756-48.5352 61.2061-49.8047Q59.9365-51.0742 58.0811-51.0742Q56.2012-51.0742 54.8828-49.7803L46.46-41.4062L38.0859-49.7559Q36.8408-51.0498 34.8877-51.0498Q33.0566-51.0498 31.7749-49.7803Q30.4932-48.5107 30.4932-46.6309Q30.4932-44.8975 31.8115-43.6035L40.21-35.1807L31.8115-26.7578Q30.4932-25.4639 30.4932-23.7305Q30.4932-21.8506 31.7749-20.5688Q33.0566-19.2871 34.8877-19.2871Z"/>
  </g>
  <g id="Semibold-S" transform="matrix(1 0 0 1 1997.15 696)">
   <path d="M77.5763-66.4859Q74.4668-69.5466 70.2354-70.4831Q66.004-71.4196 60.6333-71.4196L31.5935-71.4196Q26.2228-71.4196 21.9836-70.4831Q17.7444-69.5466 14.6505-66.4859Q11.5898-63.392 10.6777-59.2094Q9.76562-55.0269 9.76562-49.6251L9.76562-20.8184Q9.76562-15.3833 10.6777-11.1841Q11.5898-6.98486 14.6505-3.92422Q17.76-0.863574 21.9914 0.0729492Q26.2228 1.00947 31.5935 1.00947L60.6333 1.00947Q66.004 1.00947 70.2432 0.0729492Q74.4823-0.863574 77.5763-3.92422Q80.6369-6.98486 81.549-11.1841Q82.4611-15.3833 82.4611-20.8184L82.4611-49.5918Q82.4611-55.0269 81.549-59.2338Q80.6369-63.4408 77.5763-66.4859ZM73.1629-50.666L73.1629-19.7441Q73.1629-16.9188 72.6901-14.5538Q72.2174-12.1887 70.7724-10.7281Q69.2785-9.28311 66.9057-8.78594Q64.5328-8.28877 61.7075-8.28877L30.5192-8.28877Q27.6939-8.28877 25.3044-8.78594Q22.9149-9.28311 21.4544-10.7281Q20.0094-12.1887 19.5366-14.5538Q19.0639-16.9188 19.0639-19.7441L19.0639-50.6327Q19.0639-53.5068 19.5366-55.8642Q20.0094-58.2215 21.4544-59.682Q22.9149-61.1271 25.3044-61.6242Q27.6939-62.1214 30.5525-62.1214L61.7075-62.1214Q64.5328-62.1214 66.9057-61.6242Q69.2785-61.1271 70.7724-59.682Q72.2174-58.2215 72.6901-55.8642Q73.1629-53.5068 73.1629-50.666ZM34.0612-19.1271Q35.8699-19.1271 37.0328-20.3233L46.1134-29.4217L55.2095-20.3233Q56.439-19.1271 58.1811-19.1271Q59.8766-19.1271 61.0572-20.3156Q62.2379-21.504 62.2379-23.2328Q62.2379-24.8507 61.0262-26.0624L51.9146-35.1896L61.0595-44.3833Q62.2712-45.595 62.2712-47.1796Q62.2712-48.9084 61.0905-50.0802Q59.9099-51.252 58.2144-51.252Q56.5389-51.252 55.3094-50.0558L46.1134-40.9086L36.9662-50.0225Q35.8366-51.2187 34.0612-51.2187Q32.3813-51.2187 31.1928-50.0469Q30.0044-48.8751 30.0044-47.1463Q30.0044-45.5284 31.2161-44.35L40.3433-35.1896L31.2161-26.0291Q30.0044-24.8507 30.0044-23.2328Q30.0044-21.504 31.1928-20.3156Q32.3813-19.1271 34.0612-19.1271Z"/>
  </g>
  <g id="Medium-S" transform="matrix(1 0 0 1 1700.7 696)">
   <path d="M77.1787-66.3242Q74.0625-69.3916 69.8345-70.2607Q65.6064-71.1299 60.5322-71.1299L31.1689-71.1299Q26.0947-71.1299 21.8623-70.2607Q17.6299-69.3916 14.5225-66.3242Q11.4551-63.2168 10.6104-59.0376Q9.76562-54.8584 9.76562-49.7666L9.76562-20.6836Q9.76562-15.5518 10.6104-11.3525Q11.4551-7.15332 14.5225-4.08594Q17.6387-1.01855 21.8667-0.149414Q26.0947 0.719727 31.1689 0.719727L60.5322 0.719727Q65.6064 0.719727 69.8389-0.149414Q74.0713-1.01855 77.1787-4.08594Q80.2461-7.15332 81.0908-11.3525Q81.9355-15.5518 81.9355-20.6836L81.9355-49.7266Q81.9355-54.8584 81.0908-59.062Q80.2461-63.2656 77.1787-66.3242ZM73.6211-50.8008L73.6211-19.6094Q73.6211-16.8447 73.1416-14.2876Q72.6621-11.7305 71.1025-10.1621Q69.4941-8.60254 66.9326-8.09863Q64.3711-7.59473 61.6064-7.59473L30.0947-7.59473Q27.3301-7.59473 24.7485-8.09863Q22.167-8.60254 20.5986-10.1621Q19.0391-11.7305 18.5596-14.2876Q18.0801-16.8447 18.0801-19.6094L18.0801-50.7607Q18.0801-53.5742 18.5596-56.127Q19.0391-58.6797 20.5986-60.248Q22.167-61.8076 24.7485-62.3115Q27.3301-62.8154 30.1348-62.8154L61.6064-62.8154Q64.3711-62.8154 66.9326-62.3115Q69.4941-61.8076 71.1025-60.248Q72.6621-58.6797 73.1416-56.127Q73.6211-53.5742 73.6211-50.8008ZM33.4346-19.0059Q35.1152-19.0059 36.1973-20.1279L45.8506-29.8125L55.5127-20.1279Q56.6748-19.0059 58.2754-19.0059Q59.8496-19.0059 60.9629-20.1235Q62.0762-21.2412 62.0762-22.8555Q62.0762-24.3857 60.9453-25.5166L51.2744-35.1963L60.9854-44.9561Q62.1162-46.0869 62.1162-47.5771Q62.1162-49.1914 61.0029-50.2891Q59.8896-51.3867 58.3154-51.3867Q56.7949-51.3867 55.6328-50.2646L45.8506-40.5312L36.1172-50.2246Q35.0752-51.3467 33.4346-51.3467Q31.8691-51.3467 30.7515-50.249Q29.6338-49.1514 29.6338-47.5371Q29.6338-46.0068 30.7646-44.916L40.4443-35.1963L30.7646-25.4766Q29.6338-24.3857 29.6338-22.8555Q29.6338-21.2412 30.7515-20.1235Q31.8691-19.0059 33.4346-19.0059Z"/>
  </g>
  <g id="Regular-S" transform="matrix(1 0 0 1 1404.34 696)">
   <path d="M76.6602-66.1133Q73.5352-69.1895 69.3115-69.9707Q65.0879-70.752 60.4004-70.752L30.6152-70.752Q25.9277-70.752 21.7041-69.9707Q17.4805-69.1895 14.3555-66.1133Q11.2793-62.9883 10.5225-58.8135Q9.76562-54.6387 9.76562-49.9512L9.76562-20.5078Q9.76562-15.7715 10.5225-11.5723Q11.2793-7.37305 14.3555-4.29688Q17.4805-1.2207 21.7041-0.439453Q25.9277 0.341797 30.6152 0.341797L60.4004 0.341797Q65.0879 0.341797 69.3115-0.439453Q73.5352-1.2207 76.6602-4.29688Q79.7363-7.37305 80.4932-11.5723Q81.25-15.7715 81.25-20.5078L81.25-49.9023Q81.25-54.6387 80.4932-58.8379Q79.7363-63.0371 76.6602-66.1133ZM74.2188-50.9766L74.2188-19.4336Q74.2188-16.748 73.7305-13.9404Q73.2422-11.1328 71.5332-9.42383Q69.7754-7.71484 66.9678-7.20215Q64.1602-6.68945 61.4746-6.68945L29.541-6.68945Q26.8555-6.68945 24.0234-7.20215Q21.1914-7.71484 19.4824-9.42383Q17.7734-11.1328 17.2852-13.9404Q16.7969-16.748 16.7969-19.4336L16.7969-50.9277Q16.7969-53.6621 17.2852-56.4697Q17.7734-59.2773 19.4824-60.9863Q21.1914-62.6953 24.0234-63.208Q26.8555-63.7207 29.5898-63.7207L61.4746-63.7207Q64.1602-63.7207 66.9678-63.208Q69.7754-62.6953 71.5332-60.9863Q73.2422-59.2773 73.7305-56.4697Q74.2188-53.6621 74.2188-50.9766ZM32.6172-18.8477Q34.1309-18.8477 35.1074-19.873L45.5078-30.3223L55.9082-19.873Q56.9824-18.8477 58.3984-18.8477Q59.8145-18.8477 60.8398-19.873Q61.8652-20.8984 61.8652-22.3633Q61.8652-23.7793 60.8398-24.8047L50.4395-35.2051L60.8887-45.7031Q61.9141-46.7285 61.9141-48.0957Q61.9141-49.5605 60.8887-50.5615Q59.8633-51.5625 58.4473-51.5625Q57.1289-51.5625 56.0547-50.5371L45.5078-40.0391L35.0098-50.4883Q34.082-51.5137 32.6172-51.5137Q31.2012-51.5137 30.1758-50.5127Q29.1504-49.5117 29.1504-48.0469Q29.1504-46.6309 30.1758-45.6543L40.5762-35.2051L30.1758-24.7559Q29.1504-23.7793 29.1504-22.3633Q29.1504-20.8984 30.1758-19.873Q31.2012-18.8477 32.6172-18.8477Z"/>
  </g>
  <g id="Light-S" transform="matrix(1 0 0 1 1108.49 696)">
   <path d="M75.1628-65.5273Q72.347-68.2943 68.4408-69.1162Q64.5345-69.9382 59.4889-69.9382L29.6387-69.9382Q24.7396-69.9382 20.8415-69.1081Q16.9434-68.278 14.1439-65.5111Q11.377-62.6953 10.5713-58.846Q9.76562-54.9967 9.76562-50.0814L9.76562-20.4753Q9.76562-15.3971 10.5632-11.5072Q11.3607-7.61719 14.1276-4.85026Q16.9434-2.08333 20.8496-1.26139Q24.7559-0.439453 29.8014-0.439453L59.4889-0.439453Q64.5345-0.439453 68.4408-1.26139Q72.347-2.08333 75.1628-4.85026Q77.9297-7.63346 78.7272-11.5153Q79.5247-15.3971 79.5247-20.4753L79.5247-49.9023Q79.5247-54.9805 78.7272-58.8704Q77.9297-62.7604 75.1628-65.5273ZM74.1048-50.944L74.1048-19.4336Q74.1048-16.2435 73.5107-13.4115Q72.9167-10.5794 71.1751-8.83789Q69.4173-7.09635 66.5609-6.486Q63.7044-5.87565 60.5306-5.87565L28.7598-5.87565Q25.5859-5.87565 22.7132-6.486Q19.8405-7.09635 18.099-8.83789Q16.3737-10.5794 15.7796-13.4115Q15.1855-16.2435 15.1855-19.4336L15.1855-50.765Q15.1855-54.069 15.7796-56.9417Q16.3737-59.8145 18.0827-61.556Q19.8242-63.2975 22.7376-63.8997Q25.651-64.502 28.9388-64.502L60.5306-64.502Q63.7044-64.502 66.5609-63.8916Q69.4173-63.2812 71.1751-61.5397Q72.9167-59.8145 73.5107-56.9743Q74.1048-54.1341 74.1048-50.944ZM31.4128-19.2871Q32.6009-19.2871 33.4147-20.1172L44.6289-31.3802L55.8594-20.1172Q56.722-19.2871 57.8451-19.2871Q58.9681-19.2871 59.7738-20.0765Q60.5794-20.8659 60.5794-22.0052Q60.5794-23.1283 59.7493-23.9583L48.5026-35.2051L59.7819-46.5169Q60.612-47.347 60.612-48.4212Q60.612-49.5768 59.8063-50.3499Q59.0007-51.123 57.8776-51.123Q56.8197-51.123 55.957-50.293L44.6289-39.0137L33.3496-50.2604Q32.5684-51.0905 31.4128-51.0905Q30.306-51.0905 29.5003-50.3174Q28.6947-49.5443 28.6947-48.4049Q28.6947-47.2819 29.5247-46.4844L40.7715-35.2051L29.5247-23.9258Q28.6947-23.1283 28.6947-22.0052Q28.6947-20.8659 29.5003-20.0765Q30.306-19.2871 31.4128-19.2871Z"/>
  </g>
  <g id="Thin-S" transform="matrix(1 0 0 1 812.918 696)">
   <path d="M73.1823-64.7524Q70.7756-67.1103 67.2891-67.9861Q63.8026-68.8618 58.2835-68.8618L28.3471-68.8618Q23.1682-68.8618 19.7006-67.9672Q16.233-67.0725 13.864-64.7146Q11.5061-62.3078 10.6359-58.8891Q9.76562-55.4703 9.76562-50.2536L9.76562-20.4322Q9.76562-14.902 10.617-11.4211Q11.4683-7.94008 13.8262-5.58216Q16.233-3.22423 19.7195-2.34848Q23.206-1.47272 28.7251-1.47272L58.2835-1.47272Q63.8026-1.47272 67.2891-2.34848Q70.7756-3.22423 73.1823-5.58216Q75.5403-7.97789 76.3916-11.44Q77.2429-14.902 77.2429-20.4322L77.2429-49.9023Q77.2429-55.4325 76.3916-58.9135Q75.5403-62.3945 73.1823-64.7524ZM73.9541-50.901L73.9541-19.4336Q73.9541-15.5762 73.2201-12.7119Q72.4861-9.84753 70.7015-8.06294Q68.9437-6.27835 66.0227-5.53884Q63.1017-4.79933 59.2821-4.79933L27.7265-4.79933Q23.9069-4.79933 20.9803-5.53884Q18.0538-6.27835 16.2692-8.06294Q14.5224-9.84753 13.7884-12.7119Q13.0544-15.5762 13.0544-19.4336L13.0544-50.5497Q13.0544-54.6072 13.7884-57.566Q14.5224-60.5248 16.2314-62.3094Q18.016-64.094 21.037-64.8146Q24.0581-65.5352 28.0777-65.5352L59.2821-65.5352Q63.1017-65.5352 66.0227-64.7957Q68.9437-64.0562 70.7015-62.2716Q72.4861-60.5248 73.2201-57.6416Q73.9541-54.7584 73.9541-50.901ZM29.8198-19.8683Q30.5774-19.8683 31.176-20.4401L43.4665-32.7794L55.7948-20.4401Q56.3776-19.8683 57.1132-19.8683Q57.8487-19.8683 58.3638-20.3456Q58.8788-20.8228 58.8788-21.5316Q58.8788-22.2672 58.3071-22.839L45.941-35.2051L58.3181-47.5932Q58.8899-48.165 58.8899-48.8518Q58.8899-49.5983 58.3748-50.0701Q57.8598-50.5418 57.1242-50.5418Q56.4107-50.5418 55.8279-49.9701L43.4665-37.6575L31.1539-49.959Q30.5664-50.5308 29.8198-50.5308Q29.122-50.5308 28.607-50.0591Q28.0919-49.5873 28.0919-48.8785Q28.0919-48.143 28.6637-47.5822L41.0298-35.2051L28.6637-22.8279Q28.0919-22.2672 28.0919-21.5316Q28.0919-20.8228 28.607-20.3456Q29.122-19.8683 29.8198-19.8683Z"/>
  </g>
  <g id="Ultralight-S" transform="matrix(1 0 0 1 516.792 696)">
   <path d="M72.168-64.3555Q69.9707-66.5039 66.6992-67.4072Q63.4277-68.3105 57.666-68.3105L27.6855-68.3105Q22.3633-68.3105 19.1162-67.3828Q15.8691-66.4551 13.7207-64.3066Q11.5723-62.1094 10.6689-58.9111Q9.76562-55.7129 9.76562-50.3418L9.76562-20.4102Q9.76562-14.6484 10.6445-11.377Q11.5234-8.10547 13.6719-5.95703Q15.8691-3.80859 19.1406-2.90527Q22.4121-2.00195 28.1738-2.00195L57.666-2.00195Q63.4277-2.00195 66.6992-2.90527Q69.9707-3.80859 72.168-5.95703Q74.3164-8.1543 75.1953-11.4014Q76.0742-14.6484 76.0742-20.4102L76.0742-49.9023Q76.0742-55.6641 75.1953-58.9355Q74.3164-62.207 72.168-64.3555ZM73.877-50.8789L73.877-19.4336Q73.877-15.2344 73.0713-12.3535Q72.2656-9.47266 70.459-7.66602Q68.7012-5.85938 65.7471-5.05371Q62.793-4.24805 58.6426-4.24805L27.1973-4.24805Q23.0469-4.24805 20.0928-5.05371Q17.1387-5.85938 15.332-7.66602Q13.5742-9.47266 12.7686-12.3535Q11.9629-15.2344 11.9629-19.4336L11.9629-50.4395Q11.9629-54.8828 12.7686-57.8857Q13.5742-60.8887 15.2832-62.6953Q17.0898-64.502 20.166-65.2832Q23.2422-66.0645 27.6367-66.0645L58.6426-66.0645Q62.793-66.0645 65.7471-65.2588Q68.7012-64.4531 70.459-62.6465Q72.2656-60.8887 73.0713-57.9834Q73.877-55.0781 73.877-50.8789ZM29.0039-20.166Q29.541-20.166 30.0293-20.6055L42.8711-33.4961L55.7617-20.6055Q56.2012-20.166 56.7383-20.166Q57.2754-20.166 57.6416-20.4834Q58.0078-20.8008 58.0078-21.2891Q58.0078-21.8262 57.5684-22.2656L44.6289-35.2051L57.5684-48.1445Q58.0078-48.584 58.0078-49.0723Q58.0078-49.6094 57.6416-49.9268Q57.2754-50.2441 56.7383-50.2441Q56.2012-50.2441 55.7617-49.8047L42.8711-36.9629L30.0293-49.8047Q29.541-50.2441 29.0039-50.2441Q28.5156-50.2441 28.1494-49.9268Q27.7832-49.6094 27.7832-49.1211Q27.7832-48.584 28.2227-48.1445L41.1621-35.2051L28.2227-22.2656Q27.7832-21.8262 27.7832-21.2891Q27.7832-20.8008 28.1494-20.4834Q28.5156-20.166 29.0039-20.166Z"/>
  </g>
 </g>
</svg>
