<?xml version="1.0" encoding="UTF-8"?>
<!--Generator: Apple Native CoreSVG 175-->
<!DOCTYPE svg
PUBLIC "-//W3C//DTD SVG 1.1//EN"
       "http://www.w3.org/Graphics/SVG/1.1/DTD/svg11.dtd">
<svg version="1.1" xmlns="http://www.w3.org/2000/svg" xmlns:xlink="http://www.w3.org/1999/xlink" width="3300" height="2200">
 <!--glyph: "uni100E19.medium", point size: 100.0, font version: "17.0d12e1", template writer version: "65.1"-->
 <g id="Notes">
  <rect height="2200" id="artboard" style="fill:white;opacity:1" width="3300" x="0" y="0"/>
  <line style="fill:none;stroke:black;opacity:1;stroke-width:0.5;" x1="263" x2="3036" y1="292" y2="292"/>
  <text style="stroke:none;fill:black;font-family:sans-serif;font-size:13;font-weight:bold;" transform="matrix(1 0 0 1 263 322)">Weight/Scale Variations</text>
  <text style="stroke:none;fill:black;font-family:sans-serif;font-size:13;text-anchor:middle;" transform="matrix(1 0 0 1 559.711 322)">Ultralight</text>
  <text style="stroke:none;fill:black;font-family:sans-serif;font-size:13;text-anchor:middle;" transform="matrix(1 0 0 1 856.422 322)">Thin</text>
  <text style="stroke:none;fill:black;font-family:sans-serif;font-size:13;text-anchor:middle;" transform="matrix(1 0 0 1 1153.13 322)">Light</text>
  <text style="stroke:none;fill:black;font-family:sans-serif;font-size:13;text-anchor:middle;" transform="matrix(1 0 0 1 1449.84 322)">Regular</text>
  <text style="stroke:none;fill:black;font-family:sans-serif;font-size:13;text-anchor:middle;" transform="matrix(1 0 0 1 1746.56 322)">Medium</text>
  <text style="stroke:none;fill:black;font-family:sans-serif;font-size:13;text-anchor:middle;" transform="matrix(1 0 0 1 2043.27 322)">Semibold</text>
  <text style="stroke:none;fill:black;font-family:sans-serif;font-size:13;text-anchor:middle;" transform="matrix(1 0 0 1 2339.98 322)">Bold</text>
  <text style="stroke:none;fill:black;font-family:sans-serif;font-size:13;text-anchor:middle;" transform="matrix(1 0 0 1 2636.69 322)">Heavy</text>
  <text style="stroke:none;fill:black;font-family:sans-serif;font-size:13;text-anchor:middle;" transform="matrix(1 0 0 1 2933.4 322)">Black</text>
  <line style="fill:none;stroke:black;opacity:1;stroke-width:0.5;" x1="263" x2="3036" y1="1903" y2="1903"/>
  <g transform="matrix(1 0 0 1 263 1933)">
   <path d="M9.24805 0.830078Q10.8691 0.830078 12.2949 0.214844Q13.7207-0.400391 14.8096-1.49414Q15.8984-2.58789 16.5186-4.01367Q17.1387-5.43945 17.1387-7.05078Q17.1387-8.66211 16.5186-10.0879Q15.8984-11.5137 14.8047-12.6074Q13.7109-13.7012 12.2852-14.3164Q10.8594-14.9316 9.23828-14.9316Q7.62695-14.9316 6.20117-14.3164Q4.77539-13.7012 3.69141-12.6074Q2.60742-11.5137 1.9873-10.0879Q1.36719-8.66211 1.36719-7.05078Q1.36719-5.43945 1.9873-4.01367Q2.60742-2.58789 3.69629-1.49414Q4.78516-0.400391 6.21094 0.214844Q7.63672 0.830078 9.24805 0.830078ZM9.24805-0.654297Q7.91992-0.654297 6.7627-1.14746Q5.60547-1.64062 4.73145-2.51953Q3.85742-3.39844 3.36426-4.56055Q2.87109-5.72266 2.87109-7.05078Q2.87109-8.37891 3.35938-9.54102Q3.84766-10.7031 4.72168-11.582Q5.5957-12.4609 6.75293-12.9541Q7.91016-13.4473 9.23828-13.4473Q10.5762-13.4473 11.7334-12.9541Q12.8906-12.4609 13.7695-11.582Q14.6484-10.7031 15.1465-9.54102Q15.6445-8.37891 15.6445-7.05078Q15.6445-5.72266 15.1514-4.56055Q14.6582-3.39844 13.7842-2.51953Q12.9102-1.64062 11.748-1.14746Q10.5859-0.654297 9.24805-0.654297ZM5.6543-7.05078Q5.6543-6.72852 5.85938-6.52832Q6.06445-6.32812 6.40625-6.32812L8.51562-6.32812L8.51562-4.20898Q8.51562-3.88672 8.71094-3.67676Q8.90625-3.4668 9.23828-3.4668Q9.56055-3.4668 9.77051-3.67676Q9.98047-3.88672 9.98047-4.20898L9.98047-6.32812L12.0898-6.32812Q12.4219-6.32812 12.627-6.52832Q12.832-6.72852 12.832-7.05078Q12.832-7.38281 12.627-7.58789Q12.4219-7.79297 12.0898-7.79297L9.98047-7.79297L9.98047-9.90234Q9.98047-10.2344 9.77051-10.4443Q9.56055-10.6543 9.23828-10.6543Q8.90625-10.6543 8.71094-10.4443Q8.51562-10.2344 8.51562-9.90234L8.51562-7.79297L6.40625-7.79297Q6.06445-7.79297 5.85938-7.58789Q5.6543-7.38281 5.6543-7.05078Z"/>
  </g>
  <g transform="matrix(1 0 0 1 281.867 1933)">
   <path d="M11.709 2.91016Q13.75 2.91016 15.5518 2.12891Q17.3535 1.34766 18.7305-0.0292969Q20.1074-1.40625 20.8887-3.20801Q21.6699-5.00977 21.6699-7.05078Q21.6699-9.0918 20.8887-10.8936Q20.1074-12.6953 18.7305-14.0723Q17.3535-15.4492 15.5469-16.2305Q13.7402-17.0117 11.6992-17.0117Q9.6582-17.0117 7.85645-16.2305Q6.05469-15.4492 4.68262-14.0723Q3.31055-12.6953 2.5293-10.8936Q1.74805-9.0918 1.74805-7.05078Q1.74805-5.00977 2.5293-3.20801Q3.31055-1.40625 4.6875-0.0292969Q6.06445 1.34766 7.86621 2.12891Q9.66797 2.91016 11.709 2.91016ZM11.709 1.25Q9.98047 1.25 8.47656 0.605469Q6.97266-0.0390625 5.83496-1.17676Q4.69727-2.31445 4.05762-3.81836Q3.41797-5.32227 3.41797-7.05078Q3.41797-8.7793 4.05762-10.2832Q4.69727-11.7871 5.83008-12.9297Q6.96289-14.0723 8.4668-14.7119Q9.9707-15.3516 11.6992-15.3516Q13.4277-15.3516 14.9316-14.7119Q16.4355-14.0723 17.5781-12.9297Q18.7207-11.7871 19.3652-10.2832Q20.0098-8.7793 20.0098-7.05078Q20.0098-5.32227 19.3701-3.81836Q18.7305-2.31445 17.5928-1.17676Q16.4551-0.0390625 14.9463 0.605469Q13.4375 1.25 11.709 1.25ZM7.17773-7.05078Q7.17773-6.69922 7.41211-6.47461Q7.64648-6.25 8.01758-6.25L10.8887-6.25L10.8887-3.36914Q10.8887-2.99805 11.1133-2.76855Q11.3379-2.53906 11.6895-2.53906Q12.0605-2.53906 12.29-2.76855Q12.5195-2.99805 12.5195-3.36914L12.5195-6.25L15.4004-6.25Q15.7715-6.25 16.001-6.47461Q16.2305-6.69922 16.2305-7.05078Q16.2305-7.42188 16.001-7.65137Q15.7715-7.88086 15.4004-7.88086L12.5195-7.88086L12.5195-10.752Q12.5195-11.1328 12.29-11.3623Q12.0605-11.5918 11.6895-11.5918Q11.3379-11.5918 11.1133-11.3574Q10.8887-11.123 10.8887-10.752L10.8887-7.88086L8.01758-7.88086Q7.63672-7.88086 7.40723-7.65137Q7.17773-7.42188 7.17773-7.05078Z"/>
  </g>
  <g transform="matrix(1 0 0 1 305.646 1933)">
   <path d="M14.9707 5.66406Q17.0605 5.66406 18.96 5.01465Q20.8594 4.36523 22.4512 3.19336Q24.043 2.02148 25.2197 0.429688Q26.3965-1.16211 27.0459-3.06641Q27.6953-4.9707 27.6953-7.05078Q27.6953-9.14062 27.0459-11.04Q26.3965-12.9395 25.2197-14.5312Q24.043-16.123 22.4512-17.2998Q20.8594-18.4766 18.9551-19.126Q17.0508-19.7754 14.9609-19.7754Q12.8711-19.7754 10.9717-19.126Q9.07227-18.4766 7.48535-17.2998Q5.89844-16.123 4.72168-14.5312Q3.54492-12.9395 2.90039-11.04Q2.25586-9.14062 2.25586-7.05078Q2.25586-4.9707 2.90527-3.06641Q3.55469-1.16211 4.72656 0.429688Q5.89844 2.02148 7.49023 3.19336Q9.08203 4.36523 10.9814 5.01465Q12.8809 5.66406 14.9707 5.66406ZM14.9707 3.84766Q13.1641 3.84766 11.5283 3.2959Q9.89258 2.74414 8.53516 1.74805Q7.17773 0.751953 6.17676-0.610352Q5.17578-1.97266 4.62891-3.6084Q4.08203-5.24414 4.08203-7.05078Q4.08203-8.86719 4.62891-10.5029Q5.17578-12.1387 6.17188-13.501Q7.16797-14.8633 8.52539-15.8594Q9.88281-16.8555 11.5186-17.4023Q13.1543-17.9492 14.9609-17.9492Q16.7773-17.9492 18.4131-17.4023Q20.0488-16.8555 21.4111-15.8594Q22.7734-14.8633 23.7695-13.501Q24.7656-12.1387 25.3174-10.5029Q25.8691-8.86719 25.8691-7.05078Q25.8789-5.24414 25.332-3.6084Q24.7852-1.97266 23.7842-0.610352Q22.7832 0.751953 21.4209 1.74805Q20.0586 2.74414 18.4229 3.2959Q16.7871 3.84766 14.9707 3.84766ZM9.19922-7.05078Q9.19922-6.66992 9.45801-6.4209Q9.7168-6.17188 10.1172-6.17188L14.0625-6.17188L14.0625-2.2168Q14.0625-1.81641 14.3115-1.55762Q14.5605-1.29883 14.9512-1.29883Q15.3516-1.29883 15.6104-1.55273Q15.8691-1.80664 15.8691-2.2168L15.8691-6.17188L19.8242-6.17188Q20.2246-6.17188 20.4785-6.4209Q20.7324-6.66992 20.7324-7.05078Q20.7324-7.46094 20.4785-7.71484Q20.2246-7.96875 19.8242-7.96875L15.8691-7.96875L15.8691-11.9141Q15.8691-12.3242 15.6104-12.583Q15.3516-12.8418 14.9512-12.8418Q14.5605-12.8418 14.3115-12.583Q14.0625-12.3242 14.0625-11.9141L14.0625-7.96875L10.1172-7.96875Q9.70703-7.96875 9.45312-7.71484Q9.19922-7.46094 9.19922-7.05078Z"/>
  </g>
  <text style="stroke:none;fill:black;font-family:sans-serif;font-size:13;font-weight:bold;" transform="matrix(1 0 0 1 263 1953)">Design Variations</text>
  <text style="stroke:none;fill:black;font-family:sans-serif;font-size:13;" transform="matrix(1 0 0 1 263 1971)">Symbols are supported in up to nine weights and three scales.</text>
  <text style="stroke:none;fill:black;font-family:sans-serif;font-size:13;" transform="matrix(1 0 0 1 263 1989)">For optimal layout with text and other symbols, vertically align</text>
  <text style="stroke:none;fill:black;font-family:sans-serif;font-size:13;" transform="matrix(1 0 0 1 263 2007)">symbols with the adjacent text.</text>
  <line style="fill:none;stroke:#00AEEF;stroke-width:0.5;opacity:1.0;" x1="776" x2="776" y1="1919" y2="1933"/>
  <g transform="matrix(1 0 0 1 776 1933)">
   <path d="M3.31055 0.15625Q3.70117 0.15625 3.91602-0.00976562Q4.13086-0.175781 4.26758-0.585938L5.52734-4.0332L11.2891-4.0332L12.5488-0.585938Q12.6855-0.175781 12.9004-0.00976562Q13.1152 0.15625 13.4961 0.15625Q13.8867 0.15625 14.1162-0.0585938Q14.3457-0.273438 14.3457-0.644531Q14.3457-0.869141 14.2383-1.17188L9.6582-13.3691Q9.48242-13.8184 9.17969-14.043Q8.87695-14.2676 8.4082-14.2676Q7.5-14.2676 7.17773-13.3789L2.59766-1.16211Q2.49023-0.859375 2.49023-0.634766Q2.49023-0.263672 2.70996-0.0537109Q2.92969 0.15625 3.31055 0.15625ZM6.00586-5.51758L8.37891-12.0898L8.42773-12.0898L10.8008-5.51758Z"/>
  </g>
  <line style="fill:none;stroke:#00AEEF;stroke-width:0.5;opacity:1.0;" x1="793.197" x2="793.197" y1="1919" y2="1933"/>
  <text style="stroke:none;fill:black;font-family:sans-serif;font-size:13;font-weight:bold;" transform="matrix(1 0 0 1 776 1953)">Margins</text>
  <text style="stroke:none;fill:black;font-family:sans-serif;font-size:13;" transform="matrix(1 0 0 1 776 1971)">Leading and trailing margins on the left and right side of each symbol</text>
  <text style="stroke:none;fill:black;font-family:sans-serif;font-size:13;" transform="matrix(1 0 0 1 776 1989)">can be adjusted by modifying the x-location of the margin guidelines.</text>
  <text style="stroke:none;fill:black;font-family:sans-serif;font-size:13;" transform="matrix(1 0 0 1 776 2007)">Modifications are automatically applied proportionally to all</text>
  <text style="stroke:none;fill:black;font-family:sans-serif;font-size:13;" transform="matrix(1 0 0 1 776 2025)">scales and weights.</text>
  <g transform="matrix(1 0 0 1 1289 1933)">
   <path d="M2.8418 1.86523L4.54102 3.57422Q5.18555 4.22852 5.90332 4.17969Q6.62109 4.13086 7.31445 3.35938L18.0078-8.42773L17.041-9.4043L6.42578 2.27539Q6.16211 2.57812 5.89355 2.61719Q5.625 2.65625 5.27344 2.30469L4.10156 1.14258Q3.75 0.791016 3.79395 0.522461Q3.83789 0.253906 4.14062-0.0195312L15.6152-10.8203L14.6387-11.7871L3.04688-0.898438Q2.30469-0.214844 2.25098 0.498047Q2.19727 1.21094 2.8418 1.86523ZM9.25781-16.3281Q8.94531-16.0254 8.90625-15.6348Q8.86719-15.2441 9.04297-14.9512Q9.21875-14.6777 9.55566-14.541Q9.89258-14.4043 10.3809-14.5215Q11.4746-14.7754 12.5977-14.7314Q13.7207-14.6875 14.7949-13.9844L14.209-12.5293Q13.9551-11.9043 14.0674-11.4404Q14.1797-10.9766 14.5801-10.5664L16.875-8.25195Q17.2363-7.88086 17.5781-7.82227Q17.9199-7.76367 18.3398-7.8418L19.4043-8.03711L20.0684-7.36328L20.0293-6.80664Q20-6.43555 20.1221-6.12305Q20.2441-5.81055 20.6055-5.44922L21.3672-4.70703Q21.7285-4.3457 22.1533-4.33105Q22.5781-4.31641 22.9297-4.66797L25.8398-7.58789Q26.1914-7.93945 26.1816-8.35449Q26.1719-8.76953 25.8105-9.13086L25.0391-9.89258Q24.6875-10.2539 24.3799-10.3857Q24.0723-10.5176 23.7109-10.4883L23.1348-10.4395L22.4902-11.0742L22.7344-12.1973Q22.832-12.6172 22.6953-12.9834Q22.5586-13.3496 22.1191-13.7891L19.9219-15.9766Q18.6719-17.2168 17.2607-17.8369Q15.8496-18.457 14.4189-18.4814Q12.9883-18.5059 11.665-17.959Q10.3418-17.4121 9.25781-16.3281ZM10.752-15.957Q11.6602-16.6211 12.7002-16.9043Q13.7402-17.1875 14.8047-17.085Q15.8691-16.9824 16.8701-16.5137Q17.8711-16.0449 18.7012-15.2051L21.1328-12.793Q21.3086-12.6172 21.3525-12.4512Q21.3965-12.2852 21.3379-12.0312L21.0156-10.5469L22.5195-9.0625L23.5059-9.12109Q23.6914-9.13086 23.7891-9.09668Q23.8867-9.0625 24.0332-8.91602L24.6094-8.33984L22.168-5.89844L21.5918-6.47461Q21.4453-6.62109 21.4062-6.71875Q21.3672-6.81641 21.377-7.01172L21.4453-7.98828L19.9512-9.47266L18.4277-9.21875Q18.1836-9.16992 18.042-9.2041Q17.9004-9.23828 17.7148-9.41406L15.7129-11.416Q15.5176-11.5918 15.4932-11.7529Q15.4688-11.9141 15.5859-12.1875L16.4648-14.2773Q15.293-15.3711 13.8281-15.791Q12.3633-16.2109 10.8398-15.7617Q10.7227-15.7324 10.6885-15.8057Q10.6543-15.8789 10.752-15.957Z"/>
  </g>
  <text style="stroke:none;fill:black;font-family:sans-serif;font-size:13;font-weight:bold;" transform="matrix(1 0 0 1 1289 1953)">Exporting</text>
  <text style="stroke:none;fill:black;font-family:sans-serif;font-size:13;" transform="matrix(1 0 0 1 1289 1971)">Symbols should be outlined when exporting to ensure the</text>
  <text style="stroke:none;fill:black;font-family:sans-serif;font-size:13;" transform="matrix(1 0 0 1 1289 1989)">design is preserved when submitting to Xcode.</text>
  <text id="template-version" style="stroke:none;fill:black;font-family:sans-serif;font-size:13;text-anchor:end;" transform="matrix(1 0 0 1 3036 1933)">Template v.3.0</text>
  <text style="stroke:none;fill:black;font-family:sans-serif;font-size:13;text-anchor:end;" transform="matrix(1 0 0 1 3036 1951)">Requires Xcode 13 or greater</text>
  <text id="descriptive-name" style="stroke:none;fill:black;font-family:sans-serif;font-size:13;text-anchor:end;" transform="matrix(1 0 0 1 3036 1969)">Generated from cup.and.saucer.fill</text>
  <text style="stroke:none;fill:black;font-family:sans-serif;font-size:13;text-anchor:end;" transform="matrix(1 0 0 1 3036 1987)">Typeset at 100 points</text>
  <text style="stroke:none;fill:black;font-family:sans-serif;font-size:13;" transform="matrix(1 0 0 1 263 726)">Small</text>
  <text style="stroke:none;fill:black;font-family:sans-serif;font-size:13;" transform="matrix(1 0 0 1 263 1156)">Medium</text>
  <text style="stroke:none;fill:black;font-family:sans-serif;font-size:13;" transform="matrix(1 0 0 1 263 1586)">Large</text>
 </g>
 <g id="Guides">
  <g id="H-reference" style="fill:#27AAE1;stroke:none;" transform="matrix(1 0 0 1 339 696)">
   <path d="M0.993347 0L3.6377 0L29.3282-67.1326L30.0301-67.1326L30.0301-70.459L28.1227-70.459ZM11.6882-24.4797L46.9818-24.4797L46.2311-26.7288L12.4382-26.7288ZM55.1193 0L57.7637 0L30.6381-70.459L29.4327-70.459L29.4327-67.1326Z"/>
  </g>
  <line id="Baseline-S" style="fill:none;stroke:#27AAE1;opacity:1;stroke-width:0.5;" x1="263" x2="3036" y1="696" y2="696"/>
  <line id="Capline-S" style="fill:none;stroke:#27AAE1;opacity:1;stroke-width:0.5;" x1="263" x2="3036" y1="625.541" y2="625.541"/>
  <g id="H-reference" style="fill:#27AAE1;stroke:none;" transform="matrix(1 0 0 1 339 1126)">
   <path d="M0.993347 0L3.6377 0L29.3282-67.1326L30.0301-67.1326L30.0301-70.459L28.1227-70.459ZM11.6882-24.4797L46.9818-24.4797L46.2311-26.7288L12.4382-26.7288ZM55.1193 0L57.7637 0L30.6381-70.459L29.4327-70.459L29.4327-67.1326Z"/>
  </g>
  <line id="Baseline-M" style="fill:none;stroke:#27AAE1;opacity:1;stroke-width:0.5;" x1="263" x2="3036" y1="1126" y2="1126"/>
  <line id="Capline-M" style="fill:none;stroke:#27AAE1;opacity:1;stroke-width:0.5;" x1="263" x2="3036" y1="1055.54" y2="1055.54"/>
  <g id="H-reference" style="fill:#27AAE1;stroke:none;" transform="matrix(1 0 0 1 339 1556)">
   <path d="M0.993347 0L3.6377 0L29.3282-67.1326L30.0301-67.1326L30.0301-70.459L28.1227-70.459ZM11.6882-24.4797L46.9818-24.4797L46.2311-26.7288L12.4382-26.7288ZM55.1193 0L57.7637 0L30.6381-70.459L29.4327-70.459L29.4327-67.1326Z"/>
  </g>
  <line id="Baseline-L" style="fill:none;stroke:#27AAE1;opacity:1;stroke-width:0.5;" x1="263" x2="3036" y1="1556" y2="1556"/>
  <line id="Capline-L" style="fill:none;stroke:#27AAE1;opacity:1;stroke-width:0.5;" x1="263" x2="3036" y1="1485.54" y2="1485.54"/>
  <line id="left-margin-Regular-M" style="fill:none;stroke:#00AEEF;stroke-width:0.5;opacity:1.0;" x1="1373.97" x2="1373.97" y1="1030.79" y2="1150.12"/>
  <line id="right-margin-Regular-M" style="fill:none;stroke:#00AEEF;stroke-width:0.5;opacity:1.0;" x1="1525.72" x2="1525.72" y1="1030.79" y2="1150.12"/>
 </g>
 <g id="Symbols">
  <g id="Black-L" transform="matrix(1 0 0 1 2828.52 1556)">
   <path d="M102.051-0.927734L108.643-0.927734Q121.533-0.927734 132.031-5.17578Q142.529-9.42383 150.049-17.2607Q157.568-25.0977 161.621-35.9131Q165.674-46.7285 165.674-59.7656L165.674-73.3398Q165.674-79.9316 161.377-85.3027Q157.08-90.6738 149.097-94.4824Q141.113-98.291 130.029-100.317Q118.945-102.344 105.371-102.344Q91.748-102.344 80.6396-100.317Q69.5312-98.291 61.5723-94.4824Q53.6133-90.6738 49.3164-85.3027Q45.0195-79.9316 45.0195-73.3398L45.0195-59.7656Q45.0195-46.875 49.0723-36.084Q53.125-25.293 60.6201-17.4072Q68.1152-9.52148 78.6133-5.22461Q89.1113-0.927734 102.051-0.927734ZM105.371-60.6445Q96.2402-60.6445 88.2812-61.6943Q80.3223-62.7441 74.292-64.5264Q68.2617-66.3086 64.8438-68.5791Q61.4258-70.8496 61.4258-73.3398Q61.4258-75.7812 64.8193-78.0518Q68.2129-80.3223 74.2432-82.1045Q80.2734-83.8867 88.2324-84.9121Q96.1914-85.9375 105.371-85.9375Q114.502-85.9375 122.461-84.9121Q130.42-83.8867 136.45-82.1045Q142.48-80.3223 145.85-78.0518Q149.219-75.7812 149.219-73.3398Q149.219-70.8496 145.825-68.5791Q142.432-66.3086 136.426-64.5264Q130.42-62.7441 122.461-61.6943Q114.502-60.6445 105.371-60.6445ZM156.396-31.6406L163.281-31.6406Q175-31.6406 181.714-37.5244Q188.428-43.4082 188.428-53.7109Q188.428-63.916 181.689-69.7998Q174.951-75.6836 163.281-75.6836L156.396-75.6836L156.396-60.2539L163.281-60.2539Q168.066-60.2539 170.508-58.5449Q172.949-56.8359 172.949-53.7109Q172.949-50.5371 170.483-48.8037Q168.018-47.0703 163.281-47.0703L156.396-47.0703ZM104.883 31.9824Q124.561 31.9824 140.869 29.248Q157.178 26.5137 169.019 21.4844Q180.859 16.4551 187.28 9.42383Q193.701 2.39258 193.701-6.20117Q193.701-11.9629 190.649-17.1143Q187.598-22.2656 181.836-26.5625Q178.32-24.7559 174.194-23.7305Q170.068-22.7051 165.43-22.4609Q159.863-12.8906 151.416-6.00586Q142.969 0.878906 132.153 4.58984Q121.338 8.30078 108.643 8.30078L102.051 8.30078Q87.1094 8.30078 74.8047 3.17383Q62.5-1.95312 53.6377-11.3525Q44.7754-20.752 40.2344-33.5449Q28.6133-28.5156 22.3389-21.5576Q16.0645-14.5996 16.0645-6.20117Q16.0645 2.39258 22.5098 9.42383Q28.9551 16.4551 40.8203 21.4844Q52.6855 26.5137 68.9697 29.248Q85.2539 31.9824 104.883 31.9824Z"/>
  </g>
  <g id="Heavy-L" transform="matrix(1 0 0 1 2533.85 1556)">
   <path d="M100.126-1.74561L106.372-1.74561Q119.032-1.74561 129.329-5.88417Q139.625-10.0227 146.989-17.6697Q154.353-25.3166 158.314-35.9016Q162.274-46.4867 162.274-59.3048L162.274-72.6372Q162.274-78.952 158.058-84.1099Q153.841-89.2677 146.025-92.9497Q138.209-96.6316 127.361-98.6004Q116.514-100.569 103.262-100.569Q89.9734-100.569 79.1126-98.6004Q68.2518-96.6316 60.4485-92.9497Q52.6451-89.2677 48.4291-84.1099Q44.2131-78.952 44.2131-72.6372L44.2131-59.3048Q44.2131-46.6789 48.1735-36.1244Q52.1339-25.5699 59.4791-17.8627Q66.8243-10.1555 77.121-5.95055Q87.4176-1.74561 100.126-1.74561ZM103.262-59.1347Q93.9125-59.1347 85.8265-60.2249Q77.7405-61.3152 71.6583-63.1954Q65.5762-65.0757 62.1525-67.5018Q58.7288-69.928 58.7288-72.6372Q58.7288-75.2975 62.1342-77.7233Q65.5396-80.1491 71.6213-82.0293Q77.7031-83.9096 85.7891-84.9812Q93.8751-86.0527 103.262-86.0527Q112.624-86.0527 120.709-84.9812Q128.795-83.9096 134.877-82.0293Q140.959-80.1491 144.345-77.7233Q147.732-75.2975 147.732-72.6372Q147.732-69.928 144.327-67.5018Q140.922-65.0757 134.858-63.1954Q128.795-61.3152 120.709-60.2249Q112.624-59.1347 103.262-59.1347ZM153.665-31.7902L160.112-31.7902Q171.427-31.7902 177.916-37.484Q184.406-43.1778 184.406-53.112Q184.406-62.9707 177.892-68.6588Q171.378-74.3469 160.112-74.3469L154.08-74.3469L154.08-60.5995L160.112-60.5995Q165.22-60.5995 167.915-58.6311Q170.61-56.6628 170.61-53.112Q170.61-49.5346 167.896-47.5418Q165.182-45.549 160.112-45.549L153.665-45.549ZM102.831 30.2422Q122.002 30.2422 137.925 27.5944Q153.848 24.9466 165.429 20.0901Q177.01 15.2336 183.31 8.46176Q189.61 1.68991 189.61-6.56967Q189.61-12.3199 186.333-17.4427Q183.057-22.5655 176.915-26.7929Q173.653-25.1823 169.878-24.2779Q166.104-23.3734 161.845-23.1758Q156.441-13.7894 148.207-7.05452Q139.973-0.319672 129.393 3.29895Q118.814 6.91757 106.372 6.91757L100.126 6.91757Q85.6918 6.91757 73.7846 2.02141Q61.8774-2.87476 53.2574-11.8538Q44.6373-20.8328 40.1306-33.0727Q28.5789-28.2043 22.3217-21.4539Q16.0645-14.7034 16.0645-6.56967Q16.0645 1.68991 22.3831 8.46176Q28.7018 15.2336 40.3019 20.0901Q51.902 24.9466 67.8001 27.5944Q83.6983 30.2422 102.831 30.2422Z"/>
  </g>
  <g id="Bold-L" transform="matrix(1 0 0 1 2239.43 1556)">
   <path d="M97.9736-2.66113L103.833-2.66113Q116.235-2.66113 126.306-6.67725Q136.377-10.6934 143.567-18.1274Q150.757-25.5615 154.614-35.8887Q158.472-46.2158 158.472-58.7891L158.472-71.8506Q158.472-77.8564 154.346-82.7759Q150.22-87.6953 142.59-91.2354Q134.961-94.7754 124.377-96.6797Q113.794-98.584 100.903-98.584Q87.9883-98.584 77.4048-96.6797Q66.8213-94.7754 59.1919-91.2354Q51.5625-87.6953 47.4365-82.7759Q43.3105-77.8564 43.3105-71.8506L43.3105-58.7891Q43.3105-46.46 47.168-36.1694Q51.0254-25.8789 58.2031-18.3716Q65.3809-10.8643 75.4517-6.7627Q85.5225-2.66113 97.9736-2.66113ZM100.903-57.4463Q91.3086-57.4463 83.0811-58.5815Q74.8535-59.7168 68.7134-61.7065Q62.5732-63.6963 59.1431-66.2964Q55.7129-68.8965 55.7129-71.8506Q55.7129-74.7559 59.1309-77.356Q62.5488-79.9561 68.689-81.9458Q74.8291-83.9355 83.0566-85.0586Q91.2842-86.1816 100.903-86.1816Q110.522-86.1816 118.75-85.0586Q126.978-83.9355 133.118-81.9458Q139.258-79.9561 142.664-77.356Q146.069-74.7559 146.069-71.8506Q146.069-68.8965 142.651-66.2964Q139.233-63.6963 133.105-61.7065Q126.978-59.7168 118.75-58.5815Q110.522-57.4463 100.903-57.4463ZM150.61-31.958L156.567-31.958Q167.432-31.958 173.669-37.439Q179.907-42.9199 179.907-52.4414Q179.907-61.9141 173.645-67.3828Q167.383-72.8516 156.567-72.8516L151.489-72.8516L151.489-60.9863L156.567-60.9863Q162.036-60.9863 165.015-58.728Q167.993-56.4697 167.993-52.4414Q167.993-48.4131 165.002-46.1304Q162.012-43.8477 156.567-43.8477L150.61-43.8477ZM100.537 28.2959Q119.141 28.2959 134.631 25.7446Q150.122 23.1934 161.414 18.5303Q172.705 13.8672 178.87 7.38525Q185.034 0.90332 185.034-6.98242Q185.034-12.7197 181.506-17.8101Q177.979-22.9004 171.411-27.0508Q168.433-25.6592 165.051-24.8901Q161.67-24.1211 157.837-23.9746Q152.612-14.7949 144.617-8.22754Q136.621-1.66016 126.306 1.85547Q115.991 5.37109 103.833 5.37109L97.9736 5.37109Q84.1064 5.37109 72.644 0.732422Q61.1816-3.90625 52.832-12.4146Q44.4824-20.9229 40.0146-32.5439Q28.54-27.8564 22.3022-21.3379Q16.0645-14.8193 16.0645-6.98242Q16.0645 0.90332 22.2412 7.38525Q28.418 13.8672 39.7217 18.5303Q51.0254 23.1934 66.4917 25.7446Q81.958 28.2959 100.537 28.2959Z"/>
  </g>
  <g id="Semibold-L" transform="matrix(1 0 0 1 1944.29 1556)">
   <path d="M96.4897-3.29208L102.082-3.29208Q114.307-3.29208 124.222-7.22389Q134.138-11.1557 141.208-18.4429Q148.277-25.7301 152.064-35.8795Q155.85-46.0289 155.85-58.4335L155.85-71.3081Q155.85-77.1011 151.786-81.8562Q147.723-86.6112 140.222-90.0536Q132.722-93.4959 122.32-95.3556Q111.919-97.2153 99.2767-97.2153Q86.6196-97.2153 76.2272-95.3556Q65.8348-93.4959 58.3256-90.0536Q50.8163-86.6112 46.7525-81.8562Q42.6888-77.1011 42.6888-71.3081L42.6888-58.4335Q42.6888-46.3089 46.4748-36.2007Q50.2609-26.0925 57.3231-18.7229Q64.3852-11.3533 74.3008-7.32269Q84.2163-3.29208 96.4897-3.29208ZM99.2767-56.282Q89.5134-56.282 81.1882-57.4486Q72.863-58.6151 66.6828-60.6804Q60.5026-62.7457 57.0679-65.4655Q53.6331-68.1854 53.6331-71.3081Q53.6331-74.3828 57.0602-77.1027Q60.4874-79.8225 66.6672-81.8878Q72.847-83.9531 81.1726-85.1116Q89.4981-86.2701 99.2767-86.2701Q109.074-86.2701 117.399-85.1116Q125.725-83.9531 131.905-81.8878Q138.084-79.8225 141.504-77.1027Q144.923-74.3828 144.923-71.3081Q144.923-68.1854 141.496-65.4655Q138.069-62.7457 131.897-60.6804Q125.725-58.6151 117.399-57.4486Q109.074-56.282 99.2767-56.282ZM148.504-32.0732L154.124-32.0732Q164.677-32.0732 170.741-37.4077Q176.806-42.7422 176.806-51.9791Q176.806-61.1855 170.717-66.5031Q164.628-71.8208 154.124-71.8208L149.703-71.8208L149.703-61.2526L154.124-61.2526Q159.841-61.2526 163.015-58.7944Q166.189-56.3362 166.189-51.9791Q166.189-47.6402 163.007-45.1572Q159.825-42.6743 154.124-42.6743L148.504-42.6743ZM98.9555 26.9539Q117.168 26.9539 132.361 24.4694Q147.554 21.9849 158.645 17.4549Q169.736 12.925 175.808 6.64291Q181.879 0.36087 181.879-7.267Q181.879-12.9951 178.178-18.0634Q174.477-23.1316 167.616-27.2285Q164.833-25.988 161.723-25.3124Q158.613-24.6368 155.073-24.5255Q149.973-15.4884 142.141-9.03625Q134.31-2.58408 124.178 0.860214Q114.045 4.3045 102.082 4.3045L96.4897 4.3045Q83.0132 4.3045 71.8575-0.156403Q60.7018-4.61731 52.5387-12.8014Q44.3756-20.9854 39.9345-32.1793Q28.5133-27.6161 22.2889-21.2578Q16.0645-14.8994 16.0645-7.267Q16.0645 0.36087 22.1436 6.64291Q28.2227 12.925 39.3219 17.4549Q50.4211 21.9849 65.5895 24.4694Q80.7579 26.9539 98.9555 26.9539Z"/>
  </g>
  <g id="Medium-L" transform="matrix(1 0 0 1 1648.78 1556)">
   <path d="M95.3644-3.77045L100.755-3.77045Q112.845-3.77045 122.642-7.63817Q132.439-11.5059 139.418-18.6821Q146.397-25.8583 150.13-35.873Q153.862-45.8878 153.862-58.1642L153.862-70.8977Q153.862-76.5282 149.846-81.1584Q145.829-85.7887 138.426-89.1571Q131.023-92.5255 120.76-94.3516Q110.497-96.1777 98.0438-96.1777Q85.582-96.1777 75.3345-94.3516Q65.0871-92.5255 57.6687-89.1571Q50.2502-85.7887 46.2334-81.1584Q42.2165-76.5282 42.2165-70.8977L42.2165-58.1642Q42.2165-46.1945 45.9492-36.2244Q49.6819-26.2543 56.6563-18.9888Q63.6307-11.7233 73.428-7.74689Q83.2253-3.77045 95.3644-3.77045ZM98.0438-55.3993Q88.1523-55.3993 79.7527-56.5891Q71.3531-57.7789 65.1428-59.9018Q58.9325-62.0247 55.4947-64.8357Q52.0569-67.6468 52.0569-70.8977Q52.0569-74.0997 55.4905-76.9108Q58.9241-79.7218 65.1344-81.8443Q71.3448-83.9668 79.744-85.1524Q88.1432-86.338 98.0438-86.338Q107.976-86.338 116.375-85.1524Q124.774-83.9668 130.985-81.8443Q137.196-79.7218 140.625-76.9108Q144.054-74.0997 144.054-70.8977Q144.054-67.6468 140.62-64.8357Q137.186-62.0247 130.98-59.9018Q124.774-57.7789 116.375-56.5891Q107.976-55.3993 98.0438-55.3993ZM146.907-32.1609L152.271-32.1609Q162.588-32.1609 168.521-37.384Q174.454-42.6071 174.454-51.6289Q174.454-60.6331 168.496-65.836Q162.539-71.0388 152.271-71.0388L148.348-71.0388L148.348-61.4548L152.271-61.4548Q158.176-61.4548 161.499-58.8451Q164.821-56.2355 164.821-51.6289Q164.821-47.0535 161.494-44.4195Q158.168-41.7854 152.271-41.7854L146.907-41.7854ZM97.7554 25.9361Q115.672 25.9361 130.639 23.5023Q145.606 21.0686 156.546 16.6397Q167.487 12.2108 173.487 6.08063Q179.487-0.0495911 179.487-7.48215Q179.487-13.2042 175.655-18.2552Q171.822-23.3063 164.739-27.3636Q162.104-26.2375 159.2-25.6325Q156.295-25.0275 152.978-24.9435Q147.971-16.0133 140.265-9.64928Q132.558-3.28522 122.564 0.105286Q112.569 3.49579 100.755 3.49579L95.3644 3.49579Q82.1846 3.49579 71.2612-0.830078Q60.3378-5.15594 52.3163-13.0939Q44.2947-21.032 39.8743-31.9031Q28.4935-27.4345 22.279-21.1971Q16.0645-14.9597 16.0645-7.48215Q16.0645-0.0495911 22.0692 6.08063Q28.0739 12.2108 39.0182 16.6397Q49.9626 21.0686 64.9055 23.5023Q79.8485 25.9361 97.7554 25.9361Z"/>
  </g>
  <g id="Regular-L" transform="matrix(1 0 0 1 1353.63 1556)">
   <path d="M93.8965-4.39453L99.0234-4.39453Q110.938-4.39453 120.581-8.17871Q130.225-11.9629 137.085-18.9941Q143.945-26.0254 147.607-35.8643Q151.27-45.7031 151.27-57.8125L151.27-70.3613Q151.27-75.7812 147.314-80.249Q143.359-84.7168 136.084-87.9883Q128.809-91.2598 118.726-93.042Q108.643-94.8242 96.4355-94.8242Q84.2285-94.8242 74.1699-93.042Q64.1113-91.2598 56.8115-87.9883Q49.5117-84.7168 45.5566-80.249Q41.6016-75.7812 41.6016-70.3613L41.6016-57.8125Q41.6016-46.0449 45.2637-36.2549Q48.9258-26.4648 55.7861-19.3359Q62.6465-12.207 72.29-8.30078Q81.9336-4.39453 93.8965-4.39453ZM96.4355-54.248Q86.377-54.248 77.8809-55.4688Q69.3848-56.6895 63.1348-58.8867Q56.8848-61.084 53.4424-64.0137Q50-66.9434 50-70.3613Q50-73.7305 53.4424-76.6602Q56.8848-79.5898 63.1348-81.7871Q69.3848-83.9844 77.8809-85.2051Q86.377-86.4258 96.4355-86.4258Q106.543-86.4258 115.039-85.2051Q123.535-83.9844 129.785-81.7871Q136.035-79.5898 139.478-76.6602Q142.92-73.7305 142.92-70.3613Q142.92-66.9434 139.478-64.0137Q136.035-61.084 129.785-58.8867Q123.535-56.6895 115.039-55.4688Q106.543-54.248 96.4355-54.248ZM144.824-32.2754L149.854-32.2754Q159.863-32.2754 165.625-37.3535Q171.387-42.4316 171.387-51.1719Q171.387-59.9121 165.601-64.9658Q159.814-70.0195 149.854-70.0195L146.582-70.0195L146.582-61.7188L149.854-61.7188Q156.006-61.7188 159.521-58.9111Q163.037-56.1035 163.037-51.1719Q163.037-46.2891 159.521-43.457Q156.006-40.625 149.854-40.625L144.824-40.625ZM96.1914 24.6094Q113.721 24.6094 128.394 22.2412Q143.066 19.873 153.809 15.5762Q164.551 11.2793 170.459 5.34668Q176.367-0.585938 176.367-7.76367Q176.367-13.4766 172.363-18.5059Q168.359-23.5352 160.986-27.5391Q158.545-26.5625 155.908-26.0498Q153.271-25.5371 150.244-25.4883Q145.361-16.6992 137.817-10.4492Q130.273-4.19922 120.459-0.878906Q110.645 2.44141 99.0234 2.44141L93.8965 2.44141Q81.1035 2.44141 70.4834-1.70898Q59.8633-5.85938 52.0264-13.4766Q44.1895-21.0938 39.7949-31.543Q28.4668-27.1973 22.2656-21.1182Q16.0645-15.0391 16.0645-7.76367Q16.0645-0.585938 21.9727 5.34668Q27.8809 11.2793 38.623 15.5762Q49.3652 19.873 64.0137 22.2412Q78.6621 24.6094 96.1914 24.6094Z"/>
  </g>
  <g id="Light-L" transform="matrix(1 0 0 1 1059.24 1556)">
   <path d="M91.8228-4.72717L96.2082-4.72717Q108.273-4.72717 117.856-8.48122Q127.439-12.2353 134.141-19.1757Q140.842-26.1162 144.368-35.7582Q147.894-45.4002 147.894-57.177L147.894-69.3321Q147.894-74.4644 143.985-78.7506Q140.075-83.0368 132.898-86.2022Q125.721-89.3677 115.835-91.1121Q105.949-92.8566 94.014-92.8566Q82.0946-92.8566 72.2176-91.1121Q62.3405-89.3677 55.154-86.2022Q47.9675-83.0368 44.0578-78.7506Q40.1482-74.4644 40.1482-69.3321L40.1482-57.177Q40.1482-45.6062 43.6665-35.9978Q47.1848-26.3893 53.8788-19.389Q60.5728-12.3886 70.1481-8.55789Q79.7234-4.72717 91.8228-4.72717ZM94.014-52.2346Q83.6975-52.2346 75.0275-53.5389Q66.3574-54.8431 59.9865-57.1766Q53.6156-59.51 50.1049-62.6137Q46.5942-65.7173 46.5942-69.3321Q46.5942-72.8981 50.1049-76.0094Q53.6156-79.1206 59.9865-81.4541Q66.3574-83.7875 75.0275-85.0914Q83.6975-86.3953 94.014-86.3953Q104.363-86.3953 113.041-85.0914Q121.719-83.7875 128.09-81.4541Q134.461-79.1206 137.964-76.0094Q141.467-72.8981 141.467-69.3321Q141.467-65.7173 137.964-62.6137Q134.461-59.51 128.09-57.1766Q121.719-54.8431 113.041-53.5389Q104.363-52.2346 94.014-52.2346ZM141.903-32.6996L147.008-32.6996Q156.291-32.6996 161.742-37.558Q167.194-42.4164 167.194-50.6424Q167.194-58.8371 161.726-63.6715Q156.258-68.5059 147.008-68.5059L144.69-68.5059L144.69-62.1429L147.008-62.1429Q153.342-62.1429 157.069-59.0401Q160.797-55.9372 160.797-50.6424Q160.797-45.3659 157.069-42.2386Q153.342-39.1113 147.008-39.1113L141.903-39.1113ZM93.8606 22.6112Q110.83 22.6112 125.071 20.3415Q139.313 18.0717 149.767 13.9565Q160.222 9.84116 165.971 4.18854Q171.72-1.46408 171.72-8.27866Q171.72-13.9915 167.391-19.0281Q163.062-24.0646 155.083-27.993Q153.126-27.3346 151.17-27.0035Q149.215-26.6724 146.899-26.6541Q142.213-17.7589 134.79-11.5013Q127.367-5.24368 117.606-1.93863Q107.845 1.36642 96.2082 1.36642L91.8228 1.36642Q79.2717 1.36642 68.9392-2.54936Q58.6067-6.46515 51.0197-13.7039Q43.4326-20.9427 39.1289-30.9525Q28.0731-26.7586 22.0688-20.9442Q16.0645-15.1299 16.0645-8.27866Q16.0645-1.46408 21.8136 4.18854Q27.5627 9.84116 38.0173 13.9565Q48.4718 18.0717 62.6892 20.3415Q76.9066 22.6112 93.8606 22.6112Z"/>
  </g>
  <g id="Thin-L" transform="matrix(1 0 0 1 765.603 1556)">
   <path d="M89.08-5.16815L92.4843-5.16815Q104.75-5.16815 114.253-8.88176Q123.756-12.5954 130.247-19.4157Q136.739-26.236 140.084-35.6178Q143.43-44.9997 143.43-56.3362L143.43-67.971Q143.43-72.7226 139.581-76.7685Q135.731-80.8144 128.684-83.8398Q121.637-86.8652 112.011-88.5597Q102.385-90.2542 90.8112-90.2542Q79.2717-90.2542 69.635-88.5597Q59.9983-86.8652 52.9621-83.8398Q45.9259-80.8144 42.0765-76.7685Q38.2271-72.7226 38.2271-67.971L38.2271-56.3362Q38.2271-45.0256 41.555-35.6575Q44.883-26.2894 51.3565-19.4592Q57.83-12.6289 67.3157-8.89854Q76.8013-5.16815 89.08-5.16815ZM90.8112-49.5728Q80.1544-49.5728 71.254-50.9865Q62.3535-52.4002 55.8224-54.9141Q49.2912-57.428 45.6905-60.762Q42.0898-64.0961 42.0898-67.971Q42.0898-71.7972 45.6905-75.1488Q49.2912-78.5004 55.8224-81.0139Q62.3535-83.5274 71.254-84.9415Q80.1544-86.3556 90.8112-86.3556Q101.481-86.3556 110.399-84.9415Q119.317-83.5274 125.848-81.0139Q132.379-78.5004 135.962-75.1488Q139.545-71.7972 139.545-67.971Q139.545-64.0961 135.962-60.762Q132.379-57.428 125.848-54.9141Q119.317-52.4002 110.399-50.9865Q101.481-49.5728 90.8112-49.5728ZM138.039-33.2596L143.244-33.2596Q151.567-33.2596 156.608-37.8281Q161.649-42.3965 161.649-49.9413Q161.649-57.4158 156.601-61.9598Q151.553-66.5039 143.244-66.5039L142.188-66.5039L142.188-62.7029L143.244-62.7029Q149.818-62.7029 153.826-59.2098Q157.834-55.7167 157.834-49.9413Q157.834-44.1444 153.826-40.6269Q149.818-37.1094 143.244-37.1094L138.039-37.1094ZM90.7776 19.9692Q107.006 19.9692 120.677 17.8295Q134.348 15.6898 144.423 11.8149Q154.497 7.93991 160.036 2.65732Q165.575-2.62527 165.575-8.9592Q165.575-14.6721 160.815-19.7189Q156.055-24.7658 147.276-28.5934Q145.959-28.3554 144.905-28.2646Q143.85-28.1738 142.475-28.1952Q138.049-19.1597 130.787-12.8922Q123.524-6.6246 113.832-3.33977Q104.141-0.0549316 92.4843-0.0549316L89.08-0.0549316Q76.8501-0.0549316 66.898-3.6602Q56.9458-7.26547 49.6887-14.0038Q42.4316-20.742 38.2484-30.172Q27.5528-26.178 21.8086-20.7138Q16.0645-15.2496 16.0645-8.9592Q16.0645-2.62527 21.6034 2.65732Q27.1423 7.93991 37.2166 11.8149Q47.2908 15.6898 60.9375 17.8295Q74.5842 19.9692 90.7776 19.9692Z"/>
  </g>
  <g id="Ultralight-L" transform="matrix(1 0 0 1 470.466 1556)">
   <path d="M87.6755-5.39322L90.5769-5.39322Q102.946-5.39322 112.407-9.08661Q121.869-12.78 128.253-19.5389Q134.637-26.2978 137.89-35.5465Q141.143-44.7952 141.143-55.9052L141.143-67.2737Q141.143-71.8307 137.324-75.7534Q133.505-79.6761 126.525-82.6298Q119.545-85.5835 110.052-87.252Q100.56-88.9206 89.1701-88.9206Q77.8259-88.9206 68.3121-87.252Q58.7982-85.5835 51.8391-82.6298Q44.8799-79.6761 41.061-75.7534Q37.2421-71.8307 37.2421-67.2737L37.2421-55.9052Q37.2421-44.7281 40.4728-35.4828Q43.7035-26.2375 50.0645-19.4946Q56.4255-12.7518 65.8646-9.07249Q75.3036-5.39322 87.6755-5.39322ZM89.1701-48.2086Q78.3394-48.2086 69.3211-49.6792Q60.3027-51.1497 53.6896-53.7556Q47.0764-56.3614 43.4296-59.8133Q39.7827-63.2652 39.7827-67.2737Q39.7827-71.2326 43.4296-74.7074Q47.0764-78.1822 53.6896-80.788Q60.3027-83.3939 69.3211-84.8644Q78.3394-86.335 89.1701-86.335Q100.004-86.335 109.045-84.8644Q118.086-83.3939 124.699-80.788Q131.313-78.1822 134.937-74.7074Q138.56-71.2326 138.56-67.2737Q138.56-63.2652 134.937-59.8133Q131.313-56.3614 124.699-53.7556Q118.086-51.1497 109.045-49.6792Q100.004-48.2086 89.1701-48.2086ZM136.06-33.5472L141.316-33.5472Q149.146-33.5472 153.977-37.9665Q158.808-42.3859 158.808-49.5827Q158.808-56.6879 153.976-61.0832Q149.143-65.4785 141.316-65.4785L140.906-65.4785L140.906-62.9906L141.316-62.9906Q148.014-62.9906 152.165-59.2972Q156.316-55.6038 156.316-49.5827Q156.316-43.5188 152.165-39.8014Q148.014-36.084 141.316-36.084L136.06-36.084ZM89.1983 18.615Q105.048 18.615 118.426 16.5421Q131.805 14.4691 141.684 10.7174Q151.563 6.96564 156.995 1.87302Q162.427-3.2196 162.427-9.30786Q162.427-15.0208 157.446-20.0726Q152.466-25.1244 143.276-28.9017Q142.288-28.878 141.695-28.9104Q141.102-28.9429 140.208-28.9848Q135.916-19.8776 128.735-13.6051Q121.555-7.33261 111.899-4.05769Q102.244-0.782776 90.5769-0.782776L87.6755-0.782776Q75.6088-0.782776 65.8516-4.22935Q56.0944-7.67593 49.0067-14.1579Q41.9189-20.6398 37.7968-29.7722Q27.2858-25.8804 21.6751-20.5959Q16.0645-15.3114 16.0645-9.30786Q16.0645-3.2196 21.4958 1.87302Q26.9272 6.96564 36.8065 10.7174Q46.6858 14.4691 60.0403 16.5421Q73.3948 18.615 89.1983 18.615Z"/>
  </g>
  <g id="Black-M" transform="matrix(1 0 0 1 2851.15 1126)">
   <path d="M80.0293-8.05664L85.1562-8.05664Q95.459-8.05664 103.735-11.4258Q112.012-14.7949 117.92-20.9961Q123.828-27.1973 126.978-35.7178Q130.127-44.2383 130.127-54.4434L130.127-64.9902Q130.127-72.0703 124.219-77.2461Q118.311-82.4219 107.617-85.2539Q96.9238-88.0859 82.6172-88.0859Q68.3105-88.0859 57.6172-85.2539Q46.9238-82.4219 41.0156-77.2461Q35.1074-72.0703 35.1074-64.9902L35.1074-54.4434Q35.1074-44.2383 38.2568-35.7422Q41.4062-27.2461 47.29-21.0449Q53.1738-14.8438 61.4746-11.4502Q69.7754-8.05664 80.0293-8.05664ZM82.6172-55.5664Q73.3398-55.5664 65.6494-56.9092Q57.959-58.252 53.3691-60.4248Q48.7793-62.5977 48.7793-64.9902Q48.7793-67.4316 53.3691-69.5557Q57.959-71.6797 65.625-73.0469Q73.291-74.4141 82.6172-74.4141Q91.9434-74.4141 99.6094-73.0469Q107.275-71.6797 111.865-69.5557Q116.455-67.4316 116.455-64.9902Q116.455-62.5977 111.865-60.4248Q107.275-58.252 99.585-56.9092Q91.8945-55.5664 82.6172-55.5664ZM122.559-32.4707L128.271-32.4707Q137.5-32.4707 142.773-37.1094Q148.047-41.748 148.047-49.9023Q148.047-57.9102 142.749-62.5488Q137.451-67.1875 128.271-67.1875L122.559-67.1875L122.559-54.4434L128.271-54.4434Q131.787-54.4434 133.545-53.2715Q135.303-52.0996 135.303-49.9023Q135.303-47.6562 133.521-46.4355Q131.738-45.2148 128.271-45.2148L122.559-45.2148ZM82.2754 17.6758Q97.7539 17.6758 110.571 15.5273Q123.389 13.3789 132.666 9.375Q141.943 5.37109 146.997-0.195312Q152.051-5.76172 152.051-12.5977Q152.051-17.041 149.78-21.0693Q147.51-25.0977 143.164-28.4668Q140.381-27.002 137.109-26.1475Q133.838-25.293 130.127-25.1465Q123.535-13.7207 111.914-7.20215Q100.293-0.683594 85.1562-0.683594L80.0293-0.683594Q68.1152-0.683594 58.3496-4.78516Q48.584-8.88672 41.5771-16.3818Q34.5703-23.877 31.0059-34.1309Q22.0703-30.127 17.2607-24.6582Q12.4512-19.1895 12.4512-12.5977Q12.4512-5.76172 17.5049-0.195312Q22.5586 5.37109 31.8604 9.375Q41.1621 13.3789 53.9795 15.5273Q66.7969 17.6758 82.2754 17.6758Z"/>
  </g>
  <g id="Heavy-M" transform="matrix(1 0 0 1 2555.94 1126)">
   <path d="M78.5889-8.78296L83.5426-8.78296Q93.5806-8.78296 101.672-12.0541Q109.764-15.3252 115.557-21.365Q121.35-27.4048 124.448-35.741Q127.545-44.0773 127.545-54.1321L127.545-64.5294Q127.545-71.3097 121.752-76.3012Q115.959-81.2927 105.502-84.0382Q95.0455-86.7836 81.0844-86.7836Q67.1234-86.7836 56.6662-84.0382Q46.209-81.2927 40.4163-76.3012Q34.6237-71.3097 34.6237-64.5294L34.6237-54.1321Q34.6237-44.146 37.7213-35.8459Q40.8188-27.5459 46.5931-21.4828Q52.3674-15.4198 60.4836-12.1014Q68.5997-8.78296 78.5889-8.78296ZM81.0844-54.5174Q71.5881-54.5174 63.8229-55.9177Q56.0577-57.3181 51.4618-59.6123Q46.8658-61.9064 46.8658-64.5294Q46.8658-67.1898 51.4618-69.4462Q56.0577-71.7026 63.8042-73.1216Q71.5508-74.5407 81.0844-74.5407Q90.6296-74.5407 98.3761-73.1216Q106.123-71.7026 110.719-69.4462Q115.314-67.1898 115.314-64.5294Q115.314-61.9064 110.719-59.6123Q106.123-57.3181 98.3574-55.9177Q90.5922-54.5174 81.0844-54.5174ZM120.518-32.5287L125.793-32.5287Q134.769-32.5287 139.892-37.0289Q145.016-41.5291 145.016-49.4301Q145.016-57.2189 139.868-61.7191Q134.72-66.2193 125.793-66.2193L120.692-66.2193L120.692-54.6967L125.793-54.6967Q129.575-54.6967 131.528-53.3234Q133.482-51.9501 133.482-49.4301Q133.482-46.8727 131.509-45.4617Q129.537-44.0506 125.793-44.0506L120.518-44.0506ZM80.7655 16.3963Q95.8755 16.3963 108.411 14.3173Q120.946 12.2383 130.038 8.36105Q139.131 4.4838 144.087-0.886917Q149.043-6.25763 149.043-12.8395Q149.043-17.2829 146.617-21.2826Q144.191-25.2823 139.615-28.5934Q136.97-27.2552 133.9-26.4874Q130.83-25.7195 127.338-25.5844Q120.93-14.4585 109.615-8.12988Q98.2994-1.8013 83.5426-1.8013L78.5889-1.8013Q67.1242-1.8013 57.6813-5.73006Q48.2384-9.65881 41.4215-16.8255Q34.6046-23.9922 31.0516-33.7967Q22.1283-29.9194 17.2897-24.5949Q12.4512-19.2703 12.4512-12.8395Q12.4512-6.25763 17.4126-0.886917Q22.374 4.4838 31.4857 8.36105Q40.5975 12.2383 53.1269 14.3173Q65.6563 16.3963 80.7655 16.3963Z"/>
  </g>
  <g id="Bold-M" transform="matrix(1 0 0 1 2260.91 1126)">
   <path d="M76.9775-9.59473L81.7383-9.59473Q91.4795-9.59473 99.3652-12.7563Q107.251-15.918 112.915-21.7773Q118.579-27.6367 121.619-35.7666Q124.658-43.8965 124.658-53.7842L124.658-64.0137Q124.658-70.459 118.994-75.2441Q113.33-80.0293 103.137-82.6782Q92.9443-85.3271 79.3701-85.3271Q65.7959-85.3271 55.603-82.6782Q45.4102-80.0293 39.7461-75.2441Q34.082-70.459 34.082-64.0137L34.082-53.7842Q34.082-44.043 37.1216-35.9619Q40.1611-27.8809 45.813-21.9727Q51.4648-16.0645 59.375-12.8296Q67.2852-9.59473 76.9775-9.59473ZM79.3701-53.3447Q69.6289-53.3447 61.7798-54.8096Q53.9307-56.2744 49.3286-58.7036Q44.7266-61.1328 44.7266-64.0137Q44.7266-66.9189 49.3286-69.3237Q53.9307-71.7285 61.7676-73.2056Q69.6045-74.6826 79.3701-74.6826Q89.1602-74.6826 96.9971-73.2056Q104.834-71.7285 109.436-69.3237Q114.038-66.9189 114.038-64.0137Q114.038-61.1328 109.436-58.7036Q104.834-56.2744 96.9849-54.8096Q89.1357-53.3447 79.3701-53.3447ZM118.237-32.5928L123.022-32.5928Q131.714-32.5928 136.67-36.9385Q141.626-41.2842 141.626-48.9014Q141.626-56.4453 136.646-60.791Q131.665-65.1367 123.022-65.1367L118.604-65.1367L118.604-54.9805L123.022-54.9805Q127.1-54.9805 129.272-53.3813Q131.445-51.7822 131.445-48.9014Q131.445-45.9961 129.26-44.3726Q127.075-42.749 123.022-42.749L118.237-42.749ZM79.0771 14.9658Q93.7744 14.9658 105.994 12.9639Q118.213 10.9619 127.1 7.22656Q135.986 3.49121 140.833-1.66016Q145.679-6.81152 145.679-13.1104Q145.679-17.5537 143.079-21.521Q140.479-25.4883 135.645-28.7354Q133.154-27.5391 130.31-26.8677Q127.466-26.1963 124.219-26.0742Q118.018-15.2832 107.043-9.16748Q96.0693-3.05176 81.7383-3.05176L76.9775-3.05176Q66.0156-3.05176 56.9336-6.78711Q47.8516-10.5225 41.2476-17.3218Q34.6436-24.1211 31.1035-33.4229Q22.1924-29.6875 17.3218-24.5239Q12.4512-19.3604 12.4512-13.1104Q12.4512-6.81152 17.3096-1.66016Q22.168 3.49121 31.0669 7.22656Q39.9658 10.9619 52.1729 12.9639Q64.3799 14.9658 79.0771 14.9658Z"/>
  </g>
  <g id="Semibold-M" transform="matrix(1 0 0 1 1965.36 1126)">
   <path d="M75.8667-10.1547L80.4939-10.1547Q90.0307-10.1547 97.7745-13.2408Q105.518-16.3269 111.094-22.0619Q116.669-27.7969 119.668-35.7845Q122.668-43.7721 122.668-53.5439L122.668-63.6581Q122.668-69.8723 117.093-74.5152Q111.517-79.158 101.506-81.7406Q91.4955-84.3231 78.1883-84.3231Q64.8804-84.3231 54.8698-81.7406Q44.8593-79.158 39.2841-74.5152Q33.709-69.8723 33.709-63.6581L33.709-53.5439Q33.709-43.972 36.7085-36.042Q39.7079-28.112 45.2755-22.3103Q50.843-16.5085 58.6109-13.3316Q66.3788-10.1547 75.8667-10.1547ZM78.1883-52.536Q68.2777-52.536 60.371-54.0451Q52.4643-55.5542 47.8577-58.0769Q43.251-60.5995 43.251-63.6581Q43.251-66.732 47.8577-69.239Q52.4643-71.7461 60.3634-73.2632Q68.2625-74.7803 78.1883-74.7803Q88.147-74.7803 96.0461-73.2632Q103.945-71.7461 108.552-69.239Q113.158-66.732 113.158-63.6581Q113.158-60.5995 108.552-58.0769Q103.945-55.5542 96.0384-54.0451Q88.1317-52.536 78.1883-52.536ZM116.664-32.637L121.112-32.637Q129.607-32.637 134.448-36.8763Q139.288-41.1156 139.288-48.5367Q139.288-55.912 134.423-60.1513Q129.559-64.3906 121.112-64.3906L117.164-64.3906L117.164-55.1758L121.112-55.1758Q125.394-55.1758 127.718-53.4214Q130.042-51.667 130.042-48.5367Q130.042-45.3918 127.71-43.6218Q125.378-41.8518 121.112-41.8518L116.664-41.8518ZM77.9129 13.9793Q92.3256 13.9793 104.327 12.0308Q116.329 10.0822 125.074 6.44455Q133.818 2.80685 138.589-2.19345Q143.359-7.19376 143.359-13.2973Q143.359-17.7406 140.639-21.6854Q137.919-25.6302 132.907-28.833Q130.524-27.7344 127.835-27.1297Q125.146-26.5251 122.068-26.4122Q116.009-15.8524 105.27-9.88312Q94.532-3.91388 80.4939-3.91388L75.8667-3.91388Q65.2512-3.91388 56.4182-7.51572Q47.5853-11.1176 41.1278-17.6636Q34.6703-24.2096 31.1394-33.165Q22.2366-29.5273 17.3439-24.4751Q12.4512-19.4229 12.4512-13.2973Q12.4512-7.19376 17.2386-2.19345Q22.0261 2.80685 30.7781 6.44455Q39.5302 10.0822 51.5152 12.0308Q63.5002 13.9793 77.9129 13.9793Z"/>
  </g>
  <g id="Medium-M" transform="matrix(1 0 0 1 1669.53 1126)">
   <path d="M75.0244-10.5789L79.5509-10.5789Q88.9328-10.5789 96.5683-13.6078Q104.204-16.6367 109.712-22.2775Q115.22-27.9182 118.189-35.7979Q121.158-43.6775 121.158-53.3623L121.158-63.3888Q121.158-69.4275 115.65-73.9628Q110.143-78.4981 100.27-81.0299Q90.3976-83.5617 77.2919-83.5617Q64.1869-83.5617 54.314-81.0299Q44.4412-78.4981 38.9336-73.9628Q33.4259-69.4275 33.4259-63.3888L33.4259-53.3623Q33.4259-43.9178 36.3949-36.1023Q39.3639-28.2867 44.8673-22.5662Q50.3708-16.8457 58.0311-13.7123Q65.6914-10.5789 75.0244-10.5789ZM77.2919-51.9226Q67.2539-51.9226 59.3033-53.4657Q51.3527-55.0087 46.7426-57.6019Q42.1326-60.1952 42.1326-63.3888Q42.1326-66.5909 46.7426-69.1753Q51.3527-71.7598 59.2987-73.307Q67.2447-74.8543 77.2919-74.8543Q87.3787-74.8543 95.3251-73.307Q103.271-71.7598 107.881-69.1753Q112.491-66.5909 112.491-63.3888Q112.491-60.1952 107.881-57.6019Q103.271-55.0087 95.3209-53.4657Q87.3703-51.9226 77.2919-51.9226ZM115.472-32.6706L119.663-32.6706Q128.011-32.6706 132.764-36.829Q137.517-40.9874 137.517-48.2605Q137.517-55.5077 132.739-59.6661Q127.962-63.8245 119.663-63.8245L116.072-63.8245L116.072-55.3246L119.663-55.3246Q124.1-55.3246 126.538-53.4519Q128.976-51.5793 128.976-48.2605Q128.976-44.9333 126.534-43.0519Q124.091-41.1705 119.663-41.1705L115.472-41.1705ZM77.0302 13.2317Q91.2277 13.2317 103.064 11.3232Q114.9 9.41467 123.537 5.85136Q132.174 2.28806 136.887-2.59781Q141.601-7.48367 141.601-13.4384Q141.601-17.8818 138.79-21.8102Q135.979-25.7385 130.832-28.907Q128.529-27.8831 125.959-27.3289Q123.388-26.7746 120.438-26.6678Q114.486-16.2834 103.926-10.4256Q93.3662-4.56772 79.5509-4.56772L75.0244-4.56772Q64.6721-4.56772 56.0276-8.06847Q47.3831-11.5692 41.0366-17.9234Q34.6901-24.2775 31.1661-32.9697Q22.2702-29.406 17.3607-24.4377Q12.4512-19.4695 12.4512-13.4384Q12.4512-7.48367 17.1844-2.59781Q21.9177 2.28806 30.5588 5.85136Q39.1998 9.41467 51.0162 11.3232Q62.8326 13.2317 77.0302 13.2317Z"/>
  </g>
  <g id="Regular-M" transform="matrix(1 0 0 1 1373.97 1126)">
   <path d="M73.9258-11.1328L78.3203-11.1328Q87.5-11.1328 94.9951-14.0869Q102.49-17.041 107.91-22.5586Q113.33-28.0762 116.26-35.8154Q119.189-43.5547 119.189-53.125L119.189-63.0371Q119.189-68.8477 113.77-73.2422Q108.35-77.6367 98.6572-80.1025Q88.9648-82.5684 76.123-82.5684Q63.2812-82.5684 53.5889-80.1025Q43.8965-77.6367 38.4766-73.2422Q33.0566-68.8477 33.0566-63.0371L33.0566-53.125Q33.0566-43.8477 35.9863-36.1816Q38.916-28.5156 44.3359-22.9004Q49.7559-17.2852 57.2754-14.209Q64.7949-11.1328 73.9258-11.1328ZM76.123-51.123Q65.918-51.123 57.9102-52.71Q49.9023-54.2969 45.2881-56.9824Q40.6738-59.668 40.6738-63.0371Q40.6738-66.4062 45.2881-69.0918Q49.9023-71.7773 57.9102-73.3643Q65.918-74.9512 76.123-74.9512Q86.377-74.9512 94.3848-73.3643Q102.393-71.7773 107.007-69.0918Q111.621-66.4062 111.621-63.0371Q111.621-59.668 107.007-56.9824Q102.393-54.2969 94.3848-52.71Q86.377-51.123 76.123-51.123ZM113.916-32.7148L117.773-32.7148Q125.928-32.7148 130.566-36.7676Q135.205-40.8203 135.205-47.9004Q135.205-54.9805 130.542-59.0332Q125.879-63.0859 117.773-63.0859L114.648-63.0859L114.648-55.5176L117.773-55.5176Q122.412-55.5176 125-53.4912Q127.588-51.4648 127.588-47.9004Q127.588-44.3359 125-42.3096Q122.412-40.2832 117.773-40.2832L113.916-40.2832ZM75.8789 12.2559Q89.7949 12.2559 101.416 10.4004Q113.037 8.54492 121.533 5.07812Q130.029 1.61133 134.668-3.125Q139.307-7.86133 139.307-13.623Q139.307-18.0664 136.377-21.9727Q133.447-25.8789 128.125-29.0039Q125.928-28.0762 123.511-27.5879Q121.094-27.0996 118.311-27.002Q112.5-16.8457 102.173-11.1328Q91.8457-5.41992 78.3203-5.41992L73.9258-5.41992Q63.916-5.41992 55.5176-8.78906Q47.1191-12.1582 40.918-18.2617Q34.7168-24.3652 31.2012-32.7148Q22.3145-29.248 17.3828-24.3896Q12.4512-19.5312 12.4512-13.623Q12.4512-7.86133 17.1143-3.125Q21.7773 1.61133 30.2734 5.07812Q38.7695 8.54492 50.3662 10.4004Q61.9629 12.2559 75.8789 12.2559Z"/>
  </g>
  <g id="Light-M" transform="matrix(1 0 0 1 1079.34 1126)">
   <path d="M72.0795-11.4357L75.808-11.4357Q85.1082-11.4357 92.5503-14.3593Q99.9924-17.2829 105.268-22.7097Q110.545-28.1364 113.346-35.7018Q116.147-43.2671 116.147-52.5345L116.147-62.114Q116.147-67.5758 110.803-71.7888Q105.459-76.0017 95.9557-78.3997Q86.4525-80.7976 73.9586-80.7976Q61.4494-80.7976 51.9463-78.3997Q42.4431-76.0017 37.0991-71.7888Q31.7551-67.5758 31.7551-62.114L31.7551-52.5345Q31.7551-43.454 34.5558-35.947Q37.3566-28.4401 42.6254-22.9458Q47.8943-17.4515 55.3455-14.4436Q62.7968-11.4357 72.0795-11.4357ZM73.9586-49.3065Q63.4506-49.3065 55.246-51.0147Q47.0413-52.7229 42.3363-55.6202Q37.6312-58.5175 37.6312-62.114Q37.6312-65.7097 42.3363-68.5997Q47.0413-71.4897 55.246-73.1976Q63.4506-74.9054 73.9586-74.9054Q84.4849-74.9054 92.6895-73.1976Q100.894-71.4897 105.599-68.5997Q110.304-65.7097 110.304-62.114Q110.304-58.5175 105.599-55.6202Q100.894-52.7229 92.6895-51.0147Q84.4849-49.3065 73.9586-49.3065ZM111.298-33.0933L115.215-33.0933Q122.734-33.0933 127.093-36.9492Q131.451-40.8051 131.451-47.4159Q131.451-54.0115 127.076-57.8674Q122.701-61.7233 115.215-61.7233L112.953-61.7233L112.953-55.896L115.215-55.896Q120.02-55.896 122.805-53.6121Q125.59-51.3283 125.59-47.4159Q125.59-43.5036 122.805-41.2121Q120.02-38.9206 115.215-38.9206L111.298-38.9206ZM73.79 10.4698Q87.2063 10.4698 98.4341 8.68988Q109.662 6.90994 117.9 3.61748Q126.139 0.325012 130.642-4.16946Q135.144-8.66394 135.144-14.0923Q135.144-18.5356 131.927-22.4419Q128.709-26.3481 122.827-29.4128Q121.084-28.7727 119.272-28.4431Q117.461-28.1136 115.314-28.0464Q109.76-17.7689 99.5468-12.0789Q89.3333-6.38885 75.808-6.38885L72.0795-6.38885Q62.2658-6.38885 54.1325-9.53827Q45.9991-12.6877 40.0097-18.4582Q34.0202-24.2287 30.6107-32.1854Q21.9513-28.8544 17.2012-24.2306Q12.4512-19.6068 12.4512-14.0923Q12.4512-8.66394 16.9781-4.16946Q21.505 0.325012 29.7359 3.61748Q37.9669 6.90994 49.1779 8.68988Q60.3889 10.4698 73.79 10.4698Z"/>
  </g>
  <g id="Thin-M" transform="matrix(1 0 0 1 785.377 1126)">
   <path d="M69.6365-11.8362L72.4846-11.8362Q81.9458-11.8362 89.3177-14.7198Q96.6896-17.6033 101.776-22.9099Q106.862-28.2166 109.492-35.5518Q112.123-42.8871 112.123-51.754L112.123-60.8925Q112.123-65.8943 106.879-69.8673Q101.635-73.8403 92.382-76.1478Q83.1291-78.4554 71.096-78.4554Q59.0279-78.4554 49.7749-76.1478Q40.522-73.8403 35.2776-69.8673Q30.0331-65.8943 30.0331-60.8925L30.0331-51.754Q30.0331-42.9337 32.6641-35.6369Q35.2951-28.3401 40.3633-23.0061Q45.4315-17.672 52.7931-14.7541Q60.1547-11.8362 69.6365-11.8362ZM71.096-46.9048Q60.1875-46.9048 51.7227-48.7728Q43.2579-50.6409 38.4327-53.8185Q33.6075-56.9962 33.6075-60.8925Q33.6075-64.7888 38.4327-67.9493Q43.2579-71.1098 51.7227-72.9778Q60.1875-74.8459 71.096-74.8459Q81.9824-74.8459 90.4472-72.9778Q98.912-71.1098 103.737-67.9493Q108.562-64.7888 108.562-60.8925Q108.562-56.9962 103.737-53.8185Q98.912-50.6409 90.4472-48.7728Q81.9824-46.9048 71.096-46.9048ZM107.834-33.5938L111.832-33.5938Q118.51-33.5938 122.499-37.1895Q126.487-40.7852 126.487-46.7758Q126.487-52.7306 122.492-56.3263Q118.497-59.922 111.832-59.922L110.711-59.922L110.711-56.3965L111.832-56.3965Q116.858-56.3965 119.903-53.7724Q122.948-51.1482 122.948-46.7758Q122.948-42.4026 119.903-39.761Q116.858-37.1193 111.832-37.1193L107.834-37.1193ZM71.0274 8.10776Q83.7837 8.10776 94.4908 6.42815Q105.198 4.74854 113.096 1.68571Q120.995-1.37711 125.317-5.55077Q129.639-9.72443 129.639-14.7125Q129.639-19.1559 126.042-23.0621Q122.444-26.9684 115.821-29.953Q114.678-29.6936 113.667-29.5742Q112.656-29.4548 111.35-29.4273Q106.137-18.9903 96.0735-13.3301Q86.01-7.66983 72.4846-7.66983L69.6365-7.66983Q60.0838-7.66983 52.3006-10.5293Q44.5175-13.3888 38.8084-18.7187Q33.0994-24.0486 29.8302-31.4842Q21.4706-28.334 16.9609-24.0204Q12.4512-19.7067 12.4512-14.7125Q12.4512-9.72443 16.798-5.55077Q21.1449-1.37711 29.0257 1.68571Q36.9064 4.74854 47.6067 6.42815Q58.3069 8.10776 71.0274 8.10776Z"/>
  </g>
  <g id="Ultralight-M" transform="matrix(1 0 0 1 490.076 1126)">
   <path d="M68.3861-12.0407L70.7825-12.0407Q80.3253-12.0407 87.6614-14.904Q94.9974-17.7673 99.9859-23.0125Q104.974-28.2578 107.518-35.4748Q110.062-42.6918 110.062-51.3542L110.062-60.2669Q110.062-65.033 104.869-68.8828Q99.6765-72.7325 90.5518-74.9939Q81.427-77.2552 69.6297-77.2552Q57.7866-77.2552 48.6618-74.9939Q39.537-72.7325 34.3441-68.8828Q29.1512-65.033 29.1512-60.2669L29.1512-51.3542Q29.1512-42.6666 31.6948-35.4774Q34.2384-28.2883 39.2044-23.0366Q44.1704-17.7849 51.4854-14.9128Q58.8005-12.0407 68.3861-12.0407ZM69.6297-45.6741Q58.5159-45.6741 49.918-47.6242Q41.32-49.5743 36.4334-52.8957Q31.5468-56.2172 31.5468-60.2669Q31.5468-64.3173 36.4334-67.6159Q41.32-70.9145 49.918-72.8645Q58.5159-74.8146 69.6297-74.8146Q80.7007-74.8146 89.299-72.8645Q97.8973-70.9145 102.784-67.6159Q107.671-64.3173 107.671-60.2669Q107.671-56.2172 102.784-52.8957Q97.8973-49.5743 89.299-47.6242Q80.7007-45.6741 69.6297-45.6741ZM106.06-33.8501L110.099-33.8501Q116.346-33.8501 120.145-37.3123Q123.943-40.7745 123.943-46.447Q123.943-52.0744 120.143-55.5367Q116.343-58.9989 110.099-58.9989L109.563-58.9989L109.563-56.6528L110.099-56.6528Q115.237-56.6528 118.415-53.8544Q121.593-51.0559 121.593-46.447Q121.593-41.8381 118.415-39.0171Q115.237-36.1961 110.099-36.1961L106.06-36.1961ZM69.6121 6.89774Q82.0297 6.89774 92.4702 5.26924Q102.911 3.64075 110.635 0.696182Q118.359-2.24838 122.589-6.25839Q126.819-10.2684 126.819-15.0307Q126.819-19.474 123.026-23.3803Q119.234-27.2865 112.231-30.2299Q111.397-30.1651 110.796-30.1537Q110.195-30.1422 109.319-30.1353Q104.281-19.6159 94.2944-13.9709Q84.3079-8.32596 70.7825-8.32596L68.3861-8.32596Q58.9661-8.32596 51.3626-11.0367Q43.7592-13.7474 38.1935-18.8519Q32.6279-23.9563 29.4304-31.1256Q21.225-28.067 16.8381-23.9128Q12.4512-19.7586 12.4512-15.0307Q12.4512-10.2684 16.7057-6.25839Q20.9602-2.24838 28.6613 0.696182Q36.3625 3.64075 46.8014 5.26924Q57.2403 6.89774 69.6121 6.89774Z"/>
  </g>
  <g id="Black-S" transform="matrix(1 0 0 1 2868.61 696)">
   <path d="M63.0371-13.7207L67.0898-13.7207Q77.9297-13.7207 85.9131-18.4082Q93.8965-23.0957 98.2422-31.3721Q102.588-39.6484 102.588-50.3418L102.588-58.6426Q102.588-64.2578 97.9248-68.3594Q93.2617-72.4609 84.8145-74.707Q76.3672-76.9531 65.0879-76.9531Q53.8086-76.9531 45.3613-74.707Q36.9141-72.4609 32.251-68.3594Q27.5879-64.2578 27.5879-58.6426L27.5879-50.3418Q27.5879-39.6484 31.9336-31.3721Q36.2793-23.0957 44.2383-18.4082Q52.1973-13.7207 63.0371-13.7207ZM65.0879-51.3672Q57.8613-51.3672 51.8555-52.417Q45.8496-53.4668 42.2363-55.1514Q38.623-56.8359 38.623-58.6426Q38.623-60.498 42.2119-62.1338Q45.8008-63.7695 51.8311-64.8193Q57.8613-65.8691 65.0879-65.8691Q72.3633-65.8691 78.3447-64.8193Q84.3262-63.7695 87.915-62.1338Q91.5039-60.498 91.5039-58.6426Q91.5039-56.8359 87.915-55.1514Q84.3262-53.4668 78.3203-52.417Q72.3145-51.3672 65.0879-51.3672ZM96.4844-33.0566L101.123-33.0566Q108.398-33.0566 112.549-36.7432Q116.699-40.4297 116.699-46.8262Q116.699-53.1738 112.524-56.8359Q108.35-60.498 101.123-60.498L96.4844-60.498L96.4844-50.2441L101.123-50.2441Q103.809-50.2441 105.127-49.3652Q106.445-48.4863 106.445-46.8262Q106.445-45.166 105.103-44.2383Q103.76-43.3105 101.123-43.3105L96.4844-43.3105ZM64.7949 6.49414Q77.0508 6.49414 87.1338 4.78516Q97.2168 3.07617 104.541-0.0732422Q111.865-3.22266 115.845-7.61719Q119.824-12.0117 119.824-17.4316Q119.824-20.9473 118.066-24.0967Q116.309-27.2461 112.939-29.9316Q110.742-28.7598 108.154-28.0762Q105.566-27.3926 102.637-27.2461Q97.4609-18.2129 88.2568-13.0371Q79.0527-7.86133 67.0898-7.86133L63.0371-7.86133Q53.6133-7.86133 45.8496-11.1084Q38.0859-14.3555 32.5684-20.3369Q27.0508-26.3184 24.2676-34.4238Q17.2852-31.2988 13.5254-26.9775Q9.76562-22.6562 9.76562-17.4316Q9.76562-12.0117 13.7451-7.61719Q17.7246-3.22266 25.0488-0.0732422Q32.373 3.07617 42.4805 4.78516Q52.5879 6.49414 64.7949 6.49414Z"/>
  </g>
  <g id="Heavy-S" transform="matrix(1 0 0 1 2572.91 696)">
   <path d="M62.0461-14.3082L66.0294-14.3082Q76.5465-14.3082 84.3628-18.8519Q92.1791-23.3955 96.4672-31.4816Q100.755-39.5676 100.755-50.1457L100.755-58.3656Q100.755-63.7619 96.1845-67.7311Q91.6138-71.7003 83.3508-73.8773Q75.0877-76.0544 64.0511-76.0544Q53.0251-76.0544 44.7563-73.8773Q36.4876-71.7003 31.9168-67.7311Q27.346-63.7619 27.346-58.3656L27.346-50.1457Q27.346-39.6713 31.6341-31.5735Q35.9222-23.4756 43.7256-18.8919Q51.5289-14.3082 62.0461-14.3082ZM64.0511-50.6989Q56.6742-50.6989 50.6279-51.7834Q44.5816-52.8679 40.9801-54.6272Q37.3787-56.3866 37.3787-58.3656Q37.3787-60.3714 40.9618-62.0995Q44.545-63.8275 50.6096-64.9059Q56.6742-65.9843 64.0511-65.9843Q71.476-65.9843 77.5036-64.9059Q83.5312-63.8275 87.1143-62.0995Q90.6975-60.3714 90.6975-58.3656Q90.6975-56.3866 87.1143-54.6272Q83.5312-52.8679 77.4849-51.7834Q71.4386-50.6989 64.0511-50.6989ZM95.0783-33.0566L99.3256-33.0566Q106.462-33.0566 110.526-36.6451Q114.59-40.2336 114.59-46.4806Q114.59-52.7016 110.508-56.2714Q106.425-59.8412 99.3256-59.8412L95.1126-59.8412L95.1126-50.4051L99.3256-50.4051Q102.218-50.4051 103.686-49.3938Q105.154-48.3826 105.154-46.4806Q105.154-44.6014 103.668-43.5471Q102.181-42.4927 99.3256-42.4927L95.0783-42.4927ZM63.7695 5.62973Q75.7713 5.62973 85.6644 3.97263Q95.5574 2.31552 102.755-0.747299Q109.953-3.81012 113.868-8.078Q117.784-12.3459 117.784-17.5812Q117.784-21.0968 115.934-24.2233Q114.085-27.3499 110.577-29.9774Q108.449-28.8864 105.953-28.2547Q103.458-27.623 100.632-27.4879Q95.5826-18.7317 86.6261-13.7173Q77.6695-8.70285 66.0294-8.70285L62.0461-8.70285Q52.9678-8.70285 45.4521-11.8286Q37.9364-14.9544 32.5512-20.694Q27.166-26.4336 24.3828-34.2049Q17.3775-31.1722 13.5715-26.9432Q9.76562-22.7142 9.76562-17.5812Q9.76562-12.3459 13.6818-8.078Q17.598-3.81012 24.7955-0.747299Q31.9931 2.31552 41.9044 3.97263Q51.8158 5.62973 63.7695 5.62973Z"/>
  </g>
  <g id="Bold-S" transform="matrix(1 0 0 1 2277.34 696)">
   <path d="M60.9375-14.9658L64.8438-14.9658Q75-14.9658 82.6294-19.3481Q90.2588-23.7305 94.4824-31.604Q98.7061-39.4775 98.7061-49.9268L98.7061-58.0566Q98.7061-63.208 94.2383-67.0288Q89.7705-70.8496 81.7139-72.9492Q73.6572-75.0488 62.8906-75.0488Q52.1484-75.0488 44.0796-72.9492Q36.0107-70.8496 31.543-67.0288Q27.0752-63.208 27.0752-58.0566L27.0752-49.9268Q27.0752-39.6973 31.2988-31.7993Q35.5225-23.9014 43.1519-19.4336Q50.7812-14.9658 60.9375-14.9658ZM62.8906-49.9512Q55.3467-49.9512 49.2554-51.0742Q43.1641-52.1973 39.5752-54.0405Q35.9863-55.8838 35.9863-58.0566Q35.9863-60.2295 39.563-62.0605Q43.1396-63.8916 49.2432-65.0024Q55.3467-66.1133 62.8906-66.1133Q70.4834-66.1133 76.5625-65.0024Q82.6416-63.8916 86.2183-62.0605Q89.7949-60.2295 89.7949-58.0566Q89.7949-55.8838 86.2183-54.0405Q82.6416-52.1973 76.5503-51.0742Q70.459-49.9512 62.8906-49.9512ZM93.5059-33.0566L97.3145-33.0566Q104.297-33.0566 108.264-36.5356Q112.231-40.0146 112.231-46.0938Q112.231-52.1729 108.252-55.6396Q104.272-59.1064 97.3145-59.1064L93.5791-59.1064L93.5791-50.5859L97.3145-50.5859Q100.439-50.5859 102.075-49.4263Q103.711-48.2666 103.711-46.0938Q103.711-43.9697 102.063-42.7734Q100.415-41.5771 97.3145-41.5771L93.5059-41.5771ZM62.6221 4.66309Q74.3408 4.66309 84.021 3.06396Q93.7012 1.46484 100.757-1.50146Q107.812-4.46777 111.658-8.59375Q115.503-12.7197 115.503-17.749Q115.503-21.2646 113.55-24.3652Q111.597-27.4658 107.935-30.0293Q105.884-29.0283 103.491-28.4546Q101.099-27.8809 98.3887-27.7588Q93.4814-19.3115 84.8022-14.4775Q76.123-9.64355 64.8438-9.64355L60.9375-9.64355Q52.2461-9.64355 45.0073-12.6343Q37.7686-15.625 32.5317-21.0938Q27.2949-26.5625 24.5117-33.96Q17.4805-31.0303 13.623-26.9043Q9.76562-22.7783 9.76562-17.749Q9.76562-12.7197 13.6108-8.59375Q17.4561-4.46777 24.5117-1.50146Q31.5674 1.46484 41.2598 3.06396Q50.9521 4.66309 62.6221 4.66309Z"/>
  </g>
  <g id="Semibold-S" transform="matrix(1 0 0 1 1981.42 696)">
   <path d="M60.173-15.419L64.0259-15.419Q73.9334-15.419 81.4339-19.6903Q88.9343-23.9616 93.1137-31.6883Q97.2931-39.415 97.2931-49.7757L97.2931-57.843Q97.2931-62.8258 92.8963-66.5443Q88.4995-70.2629 80.5851-72.3091Q72.6707-74.3553 62.0911-74.3553Q51.5442-74.3553 43.6131-72.3091Q35.6819-70.2629 31.2851-66.5443Q26.8883-62.8258 26.8883-57.843L26.8883-49.7757Q26.8883-39.7148 31.0677-31.9546Q35.247-24.1943 42.7563-19.8067Q50.2655-15.419 60.173-15.419ZM62.0911-49.4354Q54.4312-49.4354 48.3089-50.5852Q42.1867-51.7349 38.6066-53.6362Q35.0266-55.5374 35.0266-57.843Q35.0266-60.1318 38.5986-62.0338Q42.1707-63.9359 48.3009-65.0688Q54.4312-66.2018 62.0911-66.2018Q69.799-66.2018 75.9136-65.0688Q82.0282-63.9359 85.6007-62.0338Q89.1731-60.1318 89.1731-57.843Q89.1731-55.5374 85.6007-53.6362Q82.0282-51.7349 75.906-50.5852Q69.7838-49.4354 62.0911-49.4354ZM92.4217-33.0566L95.9282-33.0566Q102.804-33.0566 106.704-36.4601Q110.605-39.8636 110.605-45.8275Q110.605-51.8082 106.697-55.204Q102.789-58.5999 95.9282-58.5999L92.5217-58.5999L92.5217-50.7103L95.9282-50.7103Q99.2134-50.7103 100.964-49.4484Q102.715-48.1865 102.715-45.8275Q102.715-43.5341 100.956-42.2401Q99.1974-40.9462 95.9282-40.9462L92.4217-40.9462ZM61.8309 3.99628Q73.3543 3.99628 82.888 2.43721Q92.4217 0.878143 99.3793-2.02141Q106.337-4.92096 110.133-8.94928Q113.93-12.9776 113.93-17.8642Q113.93-21.3799 111.906-24.4629Q109.882-27.5459 106.113-30.0652Q104.115-29.126 101.794-28.5923Q99.472-28.0586 96.8422-27.9457Q92.0326-19.7113 83.5445-15.0017Q75.0565-10.2921 64.0259-10.2921L60.173-10.2921Q51.7487-10.2921 44.701-13.1897Q37.6534-16.0873 32.5184-21.3692Q27.3834-26.651 24.6002-33.7914Q17.5514-30.9326 13.6585-26.8776Q9.76562-22.8226 9.76562-17.8642Q9.76562-12.9776 13.562-8.94928Q17.3584-4.92096 24.3164-2.02141Q31.2744 0.878143 40.8157 2.43721Q50.3571 3.99628 61.8309 3.99628Z"/>
  </g>
  <g id="Medium-S" transform="matrix(1 0 0 1 1685.3 696)">
   <path d="M59.594-15.7631L63.4064-15.7631Q73.1247-15.7631 80.5275-19.9497Q87.9303-24.1364 92.0761-31.7524Q96.2219-39.3684 96.2219-49.6613L96.2219-57.6813Q96.2219-62.5359 91.8789-66.177Q87.5359-69.8181 79.7295-71.8243Q71.9231-73.8304 61.4845-73.8304Q51.0857-73.8304 43.259-71.8243Q35.4324-69.8181 31.0898-66.177Q26.7471-62.5359 26.7471-57.6813L26.7471-49.6613Q26.7471-39.7285 30.8926-32.0728Q35.038-24.4171 42.4564-20.0901Q49.8749-15.7631 59.594-15.7631ZM61.4845-49.0448Q53.7376-49.0448 47.5914-50.2148Q41.4452-51.3847 37.8719-53.3295Q34.2987-55.2742 34.2987-57.6813Q34.2987-60.0578 37.8677-62.0136Q41.4368-63.9694 47.5872-65.1196Q53.7376-66.2697 61.4845-66.2697Q69.2802-66.2697 75.4219-65.1196Q81.5636-63.9694 85.1322-62.0136Q88.7009-60.0578 88.7009-57.6813Q88.7009-55.2742 85.1322-53.3295Q81.5636-51.3847 75.4173-50.2148Q69.2711-49.0448 61.4845-49.0448ZM91.5993-33.0566L94.8769-33.0566Q101.672-33.0566 105.522-36.4029Q109.372-39.7491 109.372-45.6253Q109.372-51.532 105.518-54.874Q101.663-58.2161 94.8769-58.2161L91.7198-58.2161L91.7198-50.8049L94.8769-50.8049Q98.2834-50.8049 100.122-49.4656Q101.961-48.1262 101.961-45.6253Q101.961-43.2037 100.117-41.8358Q98.2742-40.4678 94.8769-40.4678L91.5993-40.4678ZM61.2312 3.49121Q72.6067 3.49121 82.029 1.96228Q91.4513 0.43335 98.3349-2.41585Q105.219-5.26505 108.978-9.21898Q112.737-13.1729 112.737-17.952Q112.737-21.4676 110.659-24.5369Q108.581-27.6062 104.732-30.0919Q102.774-29.2 100.507-28.6968Q98.2391-28.1937 95.6696-28.0869Q90.9348-20.015 82.5912-15.3996Q74.2477-10.7841 63.4064-10.7841L59.594-10.7841Q51.371-10.7841 44.4683-13.6108Q37.5656-16.4375 32.5085-21.5782Q27.4513-26.7189 24.6681-33.6632Q17.6056-30.8586 13.6856-26.8574Q9.76562-22.8561 9.76562-17.952Q9.76562-13.1729 13.525-9.21898Q17.2844-5.26505 24.168-2.41585Q31.0516 0.43335 40.4785 1.96228Q49.9054 3.49121 61.2312 3.49121Z"/>
  </g>
  <g id="Regular-S" transform="matrix(1 0 0 1 1389.37 696)">
   <path d="M58.8379-16.2109L62.5977-16.2109Q72.0703-16.2109 79.3457-20.2881Q86.6211-24.3652 90.7227-31.8359Q94.8242-39.3066 94.8242-49.5117L94.8242-57.4707Q94.8242-62.1582 90.5518-65.6982Q86.2793-69.2383 78.6133-71.1914Q70.9473-73.1445 60.6934-73.1445Q50.4883-73.1445 42.7979-71.1914Q35.1074-69.2383 30.835-65.6982Q26.5625-62.1582 26.5625-57.4707L26.5625-49.5117Q26.5625-39.7461 30.6641-32.2266Q34.7656-24.707 42.0654-20.459Q49.3652-16.2109 58.8379-16.2109ZM60.6934-48.5352Q52.832-48.5352 46.6553-49.7314Q40.4785-50.9277 36.9141-52.9297Q33.3496-54.9316 33.3496-57.4707Q33.3496-59.9609 36.9141-61.9873Q40.4785-64.0137 46.6553-65.1855Q52.832-66.3574 60.6934-66.3574Q68.6035-66.3574 74.7803-65.1855Q80.957-64.0137 84.5215-61.9873Q88.0859-59.9609 88.0859-57.4707Q88.0859-54.9316 84.5215-52.9297Q80.957-50.9277 74.7803-49.7314Q68.6035-48.5352 60.6934-48.5352ZM90.5273-33.0566L93.5059-33.0566Q100.195-33.0566 103.979-36.3281Q107.764-39.5996 107.764-45.3613Q107.764-51.1719 103.979-54.4434Q100.195-57.7148 93.5059-57.7148L90.6738-57.7148L90.6738-50.9277L93.5059-50.9277Q97.0703-50.9277 99.0234-49.4873Q100.977-48.0469 100.977-45.3613Q100.977-42.7734 99.0234-41.3086Q97.0703-39.8438 93.5059-39.8438L90.5273-39.8438ZM60.4492 2.83203Q71.6309 2.83203 80.9082 1.34277Q90.1855-0.146484 96.9727-2.92969Q103.76-5.71289 107.471-9.57031Q111.182-13.4277 111.182-18.0664Q111.182-21.582 109.033-24.6338Q106.885-27.6855 102.93-30.127Q101.025-29.2969 98.8281-28.833Q96.6309-28.3691 94.1406-28.2715Q89.502-20.4102 81.3477-15.918Q73.1934-11.4258 62.5977-11.4258L58.8379-11.4258Q50.8789-11.4258 44.165-14.1602Q37.4512-16.8945 32.4951-21.8506Q27.5391-26.8066 24.7559-33.4961Q17.6758-30.7617 13.7207-26.8311Q9.76562-22.9004 9.76562-18.0664Q9.76562-13.4277 13.4766-9.57031Q17.1875-5.71289 23.9746-2.92969Q30.7617-0.146484 40.0391 1.34277Q49.3164 2.83203 60.4492 2.83203Z"/>
  </g>
  <g id="Light-S" transform="matrix(1 0 0 1 1094.5 696)">
   <path d="M57.2029-16.468L60.3729-16.468Q70.0119-16.468 77.1587-20.4998Q84.3056-24.5316 88.2252-31.8436Q92.1448-39.1556 92.1448-48.9967L92.1448-56.6536Q92.1448-61.0382 87.9406-64.4192Q83.7364-67.8001 76.2295-69.693Q68.7225-71.5858 58.7708-71.5858Q48.8686-71.5858 41.3448-69.693Q33.8211-67.8001 29.6089-64.4192Q25.3967-61.0382 25.3967-56.6536L25.3967-48.9967Q25.3967-39.4585 29.3167-32.1129Q33.2367-24.7673 40.4003-20.6177Q47.5639-16.468 57.2029-16.468ZM58.7708-46.946Q50.6523-46.946 44.3016-48.2407Q37.9509-49.5354 34.3033-51.7265Q30.6557-53.9177 30.6557-56.6536Q30.6557-59.3552 34.3033-61.5559Q37.9509-63.7566 44.3016-65.0417Q50.6523-66.3269 58.7708-66.3269Q66.9388-66.3269 73.2819-65.0417Q79.6249-63.7566 83.2726-61.5559Q86.9202-59.3552 86.9202-56.6536Q86.9202-53.9177 83.2726-51.7265Q79.6249-49.5354 73.2819-48.2407Q66.9388-46.946 58.7708-46.946ZM88.2118-33.3893L91.2506-33.3893Q97.3648-33.3893 100.899-36.4868Q104.433-39.5844 104.433-44.9371Q104.433-50.3242 100.899-53.4142Q97.3648-56.5041 91.2506-56.5041L89.1754-56.5041L89.1754-51.2604L91.2506-51.2604Q94.9509-51.2604 97.0707-49.5853Q99.1905-47.9103 99.1905-44.9371Q99.1905-42.0319 97.0707-40.3324Q94.9509-38.633 91.2506-38.633L88.2118-38.633ZM58.6029 1.25809Q69.3298 1.25809 78.2669-0.163269Q87.204-1.58463 93.7565-4.22401Q100.309-6.8634 103.906-10.4939Q107.504-14.1243 107.504-18.4906Q107.504-21.991 105.098-25.0427Q102.692-28.0945 98.2521-30.5054Q96.7415-29.9026 95.0817-29.5826Q93.4219-29.2625 91.4917-29.1946Q87.0804-21.2128 79.0245-16.7431Q70.9686-12.2734 60.3729-12.2734L57.2029-12.2734Q49.4255-12.2734 42.9462-14.8186Q36.467-17.3637 31.7001-22.0169Q26.9333-26.6701 24.2264-33.0269Q17.3576-30.4138 13.5616-26.6949Q9.76562-22.9759 9.76562-18.4906Q9.76562-14.1243 13.3556-10.4939Q16.9456-6.8634 23.4982-4.22401Q30.0507-1.58463 38.9874-0.163269Q47.924 1.25809 58.6029 1.25809Z"/>
  </g>
  <g id="Thin-S" transform="matrix(1 0 0 1 800.22 696)">
   <path d="M55.0415-16.8083L57.4303-16.8083Q67.289-16.8083 74.2657-20.7802Q81.2424-24.752 84.922-31.8535Q88.6017-38.9549 88.6017-48.3162L88.6017-55.5725Q88.6017-59.5566 84.4875-62.7277Q80.3734-65.8989 73.0766-67.7113Q65.7799-69.5236 56.2286-69.5236Q46.727-69.5236 39.423-67.7113Q32.119-65.8989 27.9873-62.7277Q23.8556-59.5566 23.8556-55.5725L23.8556-48.3162Q23.8556-39.0785 27.5352-31.963Q31.2149-24.8474 38.1985-20.8279Q45.182-16.8083 55.0415-16.8083ZM56.2286-44.8441Q47.7699-44.8441 41.1888-46.2688Q34.6077-47.6936 30.8498-50.135Q27.092-52.5764 27.092-55.5725Q27.092-58.5548 30.8498-60.9856Q34.6077-63.4163 41.1888-64.8518Q47.7699-66.2872 56.2286-66.2872Q64.7362-66.2872 71.2997-64.8518Q77.8633-63.4163 81.6212-60.9856Q85.379-58.5548 85.379-55.5725Q85.379-52.5764 81.6212-50.135Q77.8633-47.6936 71.2997-46.2688Q64.7362-44.8441 56.2286-44.8441ZM85.1486-33.8303L88.2675-33.8303Q93.6211-33.8303 96.8254-36.6974Q100.03-39.5645 100.03-44.3771Q100.03-49.2035 96.8254-52.0531Q93.6211-54.9026 88.2675-54.9026L87.1933-54.9026L87.1933-51.7014L88.2675-51.7014Q92.1486-51.7014 94.4885-49.7158Q96.8285-47.7303 96.8285-44.3771Q96.8285-41.0507 94.4885-39.0411Q92.1486-37.0316 88.2675-37.0316L85.1486-37.0316ZM56.16-0.823975Q66.2872-0.823975 74.7738-2.15492Q83.2603-3.48587 89.5023-5.93529Q95.7443-8.3847 99.1917-11.7149Q102.639-15.0452 102.639-19.0506Q102.639-22.5311 99.8928-25.5829Q97.1466-28.6346 92.067-31.0059Q91.0767-30.703 90.1272-30.5733Q89.1777-30.4436 87.9883-30.4161Q83.8776-22.2733 75.9518-17.8337Q68.026-13.3942 57.4303-13.3942L55.0415-13.3942Q47.5044-13.3942 41.3353-15.6891Q35.1662-17.984 30.6496-22.237Q26.133-26.49 23.5252-32.4066Q16.9373-29.953 13.3514-26.5144Q9.76562-23.0759 9.76562-19.0506Q9.76562-15.0452 13.1954-11.7149Q16.6252-8.3847 22.8672-5.93529Q29.1092-3.48587 37.5957-2.15492Q46.0823-0.823975 56.16-0.823975Z"/>
  </g>
  <g id="Ultralight-S" transform="matrix(1 0 0 1 504.755 696)">
   <path d="M53.9337-16.983L55.9227-16.983Q65.8943-16.983 72.784-20.924Q79.6738-24.865 83.2302-31.8588Q86.7867-38.8527 86.7867-47.9675L86.7867-55.0186Q86.7867-58.7982 82.7187-61.8614Q78.6507-64.9246 71.4615-66.6958Q64.2723-68.4669 54.9263-68.4669Q45.6291-68.4669 38.4384-66.6958Q31.2477-64.9246 27.1568-61.8614Q23.0659-58.7982 23.0659-55.0186L23.0659-47.9675Q23.0659-38.8832 26.6228-31.8859Q30.1796-24.8886 37.0705-20.9358Q43.9613-16.983 53.9337-16.983ZM54.9263-43.7668Q46.2929-43.7668 39.5939-45.2583Q32.8949-46.7499 29.081-49.3195Q25.267-51.889 25.267-55.0186Q25.267-58.1444 29.081-60.693Q32.8949-63.2416 39.5939-64.7541Q46.2929-66.2666 54.9263-66.2666Q63.6086-66.2666 70.2847-64.7541Q76.9608-63.2416 80.7751-60.693Q84.5894-58.1444 84.5894-55.0186Q84.5894-51.889 80.7751-49.3195Q76.9608-46.7499 70.2847-45.2583Q63.6086-43.7668 54.9263-43.7668ZM83.58-34.0553L86.7401-34.0553Q91.7038-34.0553 94.7388-36.8046Q97.7737-39.5538 97.7737-44.0895Q97.7737-48.629 94.7388-51.3554Q91.7038-54.0817 86.7401-54.0817L86.1786-54.0817L86.1786-51.9264L86.7401-51.9264Q90.7127-51.9264 93.1656-49.7822Q95.6184-47.6379 95.6184-44.0895Q95.6184-40.5487 93.1656-38.3797Q90.7127-36.2106 86.7401-36.2106L83.58-36.2106ZM54.9095-1.89056Q64.7285-1.89056 72.9843-3.17535Q81.2401-4.46014 87.3234-6.8119Q93.4067-9.16367 96.777-12.3402Q100.147-15.5167 100.147-19.3382Q100.147-22.8081 97.2267-25.8598Q94.3062-28.9116 88.8977-31.2622Q88.1744-31.1134 87.5893-31.081Q87.0041-31.0486 86.1938-31.0417Q82.2365-22.8172 74.3774-18.3929Q66.5184-13.9687 55.9227-13.9687L53.9337-13.9687Q46.5195-13.9687 40.5094-16.1354Q34.4994-18.3022 30.1109-22.3499Q25.7225-26.3977 23.1667-32.0885Q16.7221-29.7173 13.2439-26.4225Q9.76562-23.1277 9.76562-19.3382Q9.76562-15.5167 13.1134-12.3402Q16.4612-9.16367 22.5445-6.8119Q28.6278-4.46014 36.8832-3.17535Q45.1385-1.89056 54.9095-1.89056Z"/>
  </g>
 </g>
</svg>
