<?xml version="1.0" encoding="UTF-8"?>
<!--Generator: Apple Native CoreSVG 175.5-->
<!DOCTYPE svg
PUBLIC "-//W3C//DTD SVG 1.1//EN"
       "http://www.w3.org/Graphics/SVG/1.1/DTD/svg11.dtd">
<svg version="1.1" xmlns="http://www.w3.org/2000/svg" xmlns:xlink="http://www.w3.org/1999/xlink" width="3300" height="2200">
 <!--glyph: "uni100A7E.medium", point size: 100.0, font version: "18.0d10e1", template writer version: "90"-->
 <g id="Notes">
  <rect height="2200" id="artboard" style="fill:white;opacity:1" width="3300" x="0" y="0"/>
  <line style="fill:none;stroke:black;opacity:1;stroke-width:0.5;" x1="263" x2="3036" y1="292" y2="292"/>
  <text style="stroke:none;fill:black;font-family:sans-serif;font-size:13;font-weight:bold;" transform="matrix(1 0 0 1 263 322)">Weight/Scale Variations</text>
  <text style="stroke:none;fill:black;font-family:sans-serif;font-size:13;text-anchor:middle;" transform="matrix(1 0 0 1 559.711 322)">Ultralight</text>
  <text style="stroke:none;fill:black;font-family:sans-serif;font-size:13;text-anchor:middle;" transform="matrix(1 0 0 1 856.422 322)">Thin</text>
  <text style="stroke:none;fill:black;font-family:sans-serif;font-size:13;text-anchor:middle;" transform="matrix(1 0 0 1 1153.13 322)">Light</text>
  <text style="stroke:none;fill:black;font-family:sans-serif;font-size:13;text-anchor:middle;" transform="matrix(1 0 0 1 1449.84 322)">Regular</text>
  <text style="stroke:none;fill:black;font-family:sans-serif;font-size:13;text-anchor:middle;" transform="matrix(1 0 0 1 1746.56 322)">Medium</text>
  <text style="stroke:none;fill:black;font-family:sans-serif;font-size:13;text-anchor:middle;" transform="matrix(1 0 0 1 2043.27 322)">Semibold</text>
  <text style="stroke:none;fill:black;font-family:sans-serif;font-size:13;text-anchor:middle;" transform="matrix(1 0 0 1 2339.98 322)">Bold</text>
  <text style="stroke:none;fill:black;font-family:sans-serif;font-size:13;text-anchor:middle;" transform="matrix(1 0 0 1 2636.69 322)">Heavy</text>
  <text style="stroke:none;fill:black;font-family:sans-serif;font-size:13;text-anchor:middle;" transform="matrix(1 0 0 1 2933.4 322)">Black</text>
  <line style="fill:none;stroke:black;opacity:1;stroke-width:0.5;" x1="263" x2="3036" y1="1903" y2="1903"/>
  <g transform="matrix(1 0 0 1 263 1933)">
   <path d="M9.24805 0.830078C13.5547 0.830078 17.1387-2.74414 17.1387-7.05078C17.1387-11.3574 13.5449-14.9316 9.23828-14.9316C4.94141-14.9316 1.36719-11.3574 1.36719-7.05078C1.36719-2.74414 4.95117 0.830078 9.24805 0.830078ZM9.24805-0.654297C5.70312-0.654297 2.87109-3.49609 2.87109-7.05078C2.87109-10.6055 5.69336-13.4473 9.23828-13.4473C12.793-13.4473 15.6445-10.6055 15.6445-7.05078C15.6445-3.49609 12.8027-0.654297 9.24805-0.654297ZM5.6543-7.05078C5.6543-6.62109 5.95703-6.32812 6.40625-6.32812L8.50586-6.32812L8.50586-4.20898C8.50586-3.76953 8.79883-3.4668 9.22852-3.4668C9.67773-3.4668 9.9707-3.76953 9.9707-4.20898L9.9707-6.32812L12.0898-6.32812C12.5293-6.32812 12.832-6.62109 12.832-7.05078C12.832-7.49023 12.5293-7.79297 12.0898-7.79297L9.9707-7.79297L9.9707-9.90234C9.9707-10.3516 9.67773-10.6543 9.22852-10.6543C8.79883-10.6543 8.50586-10.3516 8.50586-9.90234L8.50586-7.79297L6.40625-7.79297C5.95703-7.79297 5.6543-7.49023 5.6543-7.05078Z"/>
  </g>
  <g transform="matrix(1 0 0 1 281.867 1933)">
   <path d="M11.709 2.91016C17.1582 2.91016 21.6699-1.61133 21.6699-7.05078C21.6699-12.5 17.1484-17.0117 11.6992-17.0117C6.25977-17.0117 1.74805-12.5 1.74805-7.05078C1.74805-1.61133 6.26953 2.91016 11.709 2.91016ZM11.709 1.25C7.09961 1.25 3.41797-2.44141 3.41797-7.05078C3.41797-11.6602 7.08984-15.3516 11.6992-15.3516C16.3086-15.3516 20.0098-11.6602 20.0098-7.05078C20.0098-2.44141 16.3184 1.25 11.709 1.25ZM7.17773-7.05078C7.17773-6.57227 7.50977-6.25 8.00781-6.25L10.8789-6.25L10.8789-3.36914C10.8789-2.88086 11.2109-2.53906 11.6895-2.53906C12.1777-2.53906 12.5195-2.87109 12.5195-3.36914L12.5195-6.25L15.4004-6.25C15.8887-6.25 16.2305-6.57227 16.2305-7.05078C16.2305-7.53906 15.8887-7.88086 15.4004-7.88086L12.5195-7.88086L12.5195-10.752C12.5195-11.25 12.1777-11.5918 11.6895-11.5918C11.2109-11.5918 10.8789-11.25 10.8789-10.752L10.8789-7.88086L8.00781-7.88086C7.50977-7.88086 7.17773-7.53906 7.17773-7.05078Z"/>
  </g>
  <g transform="matrix(1 0 0 1 305.646 1933)">
   <path d="M14.9707 5.66406C21.9336 5.66406 27.6953-0.0976562 27.6953-7.05078C27.6953-14.0137 21.9238-19.7754 14.9609-19.7754C8.00781-19.7754 2.25586-14.0137 2.25586-7.05078C2.25586-0.0976562 8.01758 5.66406 14.9707 5.66406ZM14.9707 3.84766C8.93555 3.84766 4.08203-1.01562 4.08203-7.05078C4.08203-13.0957 8.92578-17.9492 14.9609-17.9492C21.0059-17.9492 25.8691-13.0957 25.8691-7.05078C25.8691-1.01562 21.0156 3.84766 14.9707 3.84766ZM9.19922-7.05078C9.19922-6.5332 9.57031-6.17188 10.1172-6.17188L14.0625-6.17188L14.0625-2.2168C14.0625-1.67969 14.4336-1.29883 14.9512-1.29883C15.4883-1.29883 15.8594-1.66992 15.8594-2.2168L15.8594-6.17188L19.8145-6.17188C20.3516-6.17188 20.7324-6.5332 20.7324-7.05078C20.7324-7.59766 20.3613-7.96875 19.8145-7.96875L15.8594-7.96875L15.8594-11.9141C15.8594-12.4609 15.4883-12.8418 14.9512-12.8418C14.4336-12.8418 14.0625-12.4609 14.0625-11.9141L14.0625-7.96875L10.1172-7.96875C9.57031-7.96875 9.19922-7.59766 9.19922-7.05078Z"/>
  </g>
  <text style="stroke:none;fill:black;font-family:sans-serif;font-size:13;font-weight:bold;" transform="matrix(1 0 0 1 263 1953)">Design Variations</text>
  <text style="stroke:none;fill:black;font-family:sans-serif;font-size:13;" transform="matrix(1 0 0 1 263 1971)">Symbols are supported in up to nine weights and three scales.</text>
  <text style="stroke:none;fill:black;font-family:sans-serif;font-size:13;" transform="matrix(1 0 0 1 263 1989)">For optimal layout with text and other symbols, vertically align</text>
  <text style="stroke:none;fill:black;font-family:sans-serif;font-size:13;" transform="matrix(1 0 0 1 263 2007)">symbols with the adjacent text.</text>
  <line style="fill:none;stroke:#00AEEF;stroke-width:0.5;opacity:1.0;" x1="776" x2="776" y1="1919" y2="1933"/>
  <g transform="matrix(1 0 0 1 776 1933)">
   <path d="M3.31055 0.15625C3.82812 0.15625 4.08203-0.0390625 4.26758-0.585938L5.52734-4.0332L11.2891-4.0332L12.5488-0.585938C12.7344-0.0390625 12.9883 0.15625 13.4961 0.15625C14.0137 0.15625 14.3457-0.15625 14.3457-0.644531C14.3457-0.810547 14.3164-0.966797 14.2383-1.17188L9.6582-13.3691C9.43359-13.9648 9.0332-14.2676 8.4082-14.2676C7.80273-14.2676 7.39258-13.9746 7.17773-13.3789L2.59766-1.16211C2.51953-0.957031 2.49023-0.800781 2.49023-0.634766C2.49023-0.146484 2.80273 0.15625 3.31055 0.15625ZM6.00586-5.51758L8.37891-12.0898L8.42773-12.0898L10.8008-5.51758Z"/>
  </g>
  <line style="fill:none;stroke:#00AEEF;stroke-width:0.5;opacity:1.0;" x1="793.197" x2="793.197" y1="1919" y2="1933"/>
  <text style="stroke:none;fill:black;font-family:sans-serif;font-size:13;font-weight:bold;" transform="matrix(1 0 0 1 776 1953)">Margins</text>
  <text style="stroke:none;fill:black;font-family:sans-serif;font-size:13;" transform="matrix(1 0 0 1 776 1971)">Leading and trailing margins on the left and right side of each symbol</text>
  <text style="stroke:none;fill:black;font-family:sans-serif;font-size:13;" transform="matrix(1 0 0 1 776 1989)">can be adjusted by modifying the x-location of the margin guidelines.</text>
  <text style="stroke:none;fill:black;font-family:sans-serif;font-size:13;" transform="matrix(1 0 0 1 776 2007)">Modifications are automatically applied proportionally to all</text>
  <text style="stroke:none;fill:black;font-family:sans-serif;font-size:13;" transform="matrix(1 0 0 1 776 2025)">scales and weights.</text>
  <g transform="matrix(1 0 0 1 1289 1933)">
   <path d="M2.8418 1.86523L4.54102 3.57422C5.40039 4.44336 6.38672 4.38477 7.31445 3.35938L18.0078-8.42773L17.041-9.4043L6.42578 2.27539C6.07422 2.67578 5.74219 2.77344 5.27344 2.30469L4.10156 1.14258C3.63281 0.683594 3.74023 0.341797 4.14062-0.0195312L15.6152-10.8203L14.6387-11.7871L3.04688-0.898438C2.06055 0.0195312 1.98242 0.996094 2.8418 1.86523ZM9.25781-16.3281C8.83789-15.918 8.80859-15.3418 9.04297-14.9512C9.27734-14.5898 9.73633-14.3555 10.3809-14.5215C11.8457-14.8633 13.3691-14.9219 14.7949-13.9844L14.209-12.5293C13.8672-11.6992 14.043-11.1133 14.5801-10.5664L16.875-8.25195C17.3633-7.76367 17.7734-7.74414 18.3398-7.8418L19.4043-8.03711L20.0684-7.36328L20.0293-6.80664C19.9902-6.30859 20.1172-5.92773 20.6055-5.44922L21.3672-4.70703C21.8457-4.22852 22.4609-4.19922 22.9297-4.66797L25.8398-7.58789C26.3086-8.05664 26.2891-8.65234 25.8105-9.13086L25.0391-9.89258C24.5605-10.3711 24.1895-10.5273 23.7109-10.4883L23.1348-10.4395L22.4902-11.0742L22.7344-12.1973C22.8613-12.7637 22.7051-13.2031 22.1191-13.7891L19.9219-15.9766C16.582-19.2969 12.1484-19.2188 9.25781-16.3281ZM10.752-15.957C13.1836-17.7344 16.4746-17.4316 18.7012-15.2051L21.1328-12.793C21.3672-12.5586 21.4062-12.373 21.3379-12.0312L21.0156-10.5469L22.5195-9.0625L23.5059-9.12109C23.7598-9.13086 23.8379-9.11133 24.0332-8.91602L24.6094-8.33984L22.168-5.89844L21.5918-6.47461C21.3965-6.66992 21.3672-6.74805 21.377-7.01172L21.4453-7.98828L19.9512-9.47266L18.4277-9.21875C18.1055-9.15039 17.959-9.17969 17.7148-9.41406L15.7129-11.416C15.459-11.6504 15.4297-11.8164 15.5859-12.1875L16.4648-14.2773C14.9023-15.7324 12.8711-16.3574 10.8398-15.7617C10.6836-15.7227 10.625-15.8496 10.752-15.957Z"/>
  </g>
  <text style="stroke:none;fill:black;font-family:sans-serif;font-size:13;font-weight:bold;" transform="matrix(1 0 0 1 1289 1953)">Exporting</text>
  <text style="stroke:none;fill:black;font-family:sans-serif;font-size:13;" transform="matrix(1 0 0 1 1289 1971)">Symbols should be outlined when exporting to ensure the</text>
  <text style="stroke:none;fill:black;font-family:sans-serif;font-size:13;" transform="matrix(1 0 0 1 1289 1989)">design is preserved when submitting to Xcode.</text>
  <text id="template-version" style="stroke:none;fill:black;font-family:sans-serif;font-size:13;text-anchor:end;" transform="matrix(1 0 0 1 3036 1933)">Template v.4.0</text>
  <text style="stroke:none;fill:black;font-family:sans-serif;font-size:13;text-anchor:end;" transform="matrix(1 0 0 1 3036 1951)">Requires Xcode 14 or greater</text>
  <text id="descriptive-name" style="stroke:none;fill:black;font-family:sans-serif;font-size:13;text-anchor:end;" transform="matrix(1 0 0 1 3036 1969)">Generated from doc.text.image.fill</text>
  <text style="stroke:none;fill:black;font-family:sans-serif;font-size:13;text-anchor:end;" transform="matrix(1 0 0 1 3036 1987)">Typeset at 100 points</text>
  <text style="stroke:none;fill:black;font-family:sans-serif;font-size:13;" transform="matrix(1 0 0 1 263 726)">Small</text>
  <text style="stroke:none;fill:black;font-family:sans-serif;font-size:13;" transform="matrix(1 0 0 1 263 1156)">Medium</text>
  <text style="stroke:none;fill:black;font-family:sans-serif;font-size:13;" transform="matrix(1 0 0 1 263 1586)">Large</text>
 </g>
 <g id="Guides">
  <g id="H-reference" style="fill:#27AAE1;stroke:none;" transform="matrix(1 0 0 1 339 696)">
   <path d="M0.993654 0L3.63775 0L29.3281-67.1323L30.0303-67.1323L30.0303-70.459L28.1226-70.459ZM11.6885-24.4799L46.9815-24.4799L46.2315-26.7285L12.4385-26.7285ZM55.1196 0L57.7637 0L30.6382-70.459L29.4326-70.459L29.4326-67.1323Z"/>
  </g>
  <line id="Baseline-S" style="fill:none;stroke:#27AAE1;opacity:1;stroke-width:0.5;" x1="263" x2="3036" y1="696" y2="696"/>
  <line id="Capline-S" style="fill:none;stroke:#27AAE1;opacity:1;stroke-width:0.5;" x1="263" x2="3036" y1="625.541" y2="625.541"/>
  <g id="H-reference" style="fill:#27AAE1;stroke:none;" transform="matrix(1 0 0 1 339 1126)">
   <path d="M0.993654 0L3.63775 0L29.3281-67.1323L30.0303-67.1323L30.0303-70.459L28.1226-70.459ZM11.6885-24.4799L46.9815-24.4799L46.2315-26.7285L12.4385-26.7285ZM55.1196 0L57.7637 0L30.6382-70.459L29.4326-70.459L29.4326-67.1323Z"/>
  </g>
  <line id="Baseline-M" style="fill:none;stroke:#27AAE1;opacity:1;stroke-width:0.5;" x1="263" x2="3036" y1="1126" y2="1126"/>
  <line id="Capline-M" style="fill:none;stroke:#27AAE1;opacity:1;stroke-width:0.5;" x1="263" x2="3036" y1="1055.54" y2="1055.54"/>
  <g id="H-reference" style="fill:#27AAE1;stroke:none;" transform="matrix(1 0 0 1 339 1556)">
   <path d="M0.993654 0L3.63775 0L29.3281-67.1323L30.0303-67.1323L30.0303-70.459L28.1226-70.459ZM11.6885-24.4799L46.9815-24.4799L46.2315-26.7285L12.4385-26.7285ZM55.1196 0L57.7637 0L30.6382-70.459L29.4326-70.459L29.4326-67.1323Z"/>
  </g>
  <line id="Baseline-L" style="fill:none;stroke:#27AAE1;opacity:1;stroke-width:0.5;" x1="263" x2="3036" y1="1556" y2="1556"/>
  <line id="Capline-L" style="fill:none;stroke:#27AAE1;opacity:1;stroke-width:0.5;" x1="263" x2="3036" y1="1485.54" y2="1485.54"/>
  <line id="left-margin-Regular-M" style="fill:none;stroke:#00AEEF;stroke-width:0.5;opacity:1.0;" x1="1396.32" x2="1396.32" y1="1030.79" y2="1150.12"/>
  <line id="right-margin-Regular-M" style="fill:none;stroke:#00AEEF;stroke-width:0.5;opacity:1.0;" x1="1503.37" x2="1503.37" y1="1030.79" y2="1150.12"/>
 </g>
 <g id="Symbols">
  <g id="Black-L" transform="matrix(1 0 0 1 2859.72 1556)">
   <path d="M52.1215-67.3111C49.3188-67.3111 47.2898-69.4193 47.2898-72.0832C47.2898-74.7275 49.3188-76.7761 52.1215-76.7761L96.1096-76.7761C98.8344-76.7761 100.863-74.7275 100.863-72.0832C100.863-69.4193 98.8344-67.3111 96.1096-67.3111ZM52.1215-48.6315C49.3188-48.6315 47.2898-50.7385 47.2898-53.462C47.2898-56.0467 49.3188-58.0757 52.1215-58.0757L77.404-58.0757C80.1495-58.0757 82.1189-56.0467 82.1189-53.462C82.1189-50.7385 80.1495-48.6315 77.404-48.6315ZM52.8761 7.97507C47.9112 7.97507 44.9352 5.21713 44.9352 0.152179L44.9352-31.6524C44.9352-36.7965 47.9112-39.4753 52.8761-39.4753L94.6652-39.4753C99.8094-39.4753 102.489-36.7965 102.489-31.6524L102.489 0.152179C102.489 5.21713 99.8094 7.97507 94.6652 7.97507ZM16.084 11.4202C16.084 26.5843 24.6707 35.1919 39.7724 35.1919L107.573 35.1919C122.676 35.1919 131.282 26.5843 131.282 11.4202L131.282-81.838C131.282-96.9813 122.676-105.61 107.573-105.61L39.7724-105.61C24.6707-105.61 16.084-96.9813 16.084-81.838Z"/>
  </g>
  <g id="Heavy-L" transform="matrix(1 0 0 1 2564.15 1556)">
   <path d="M50.0926-68.3684C47.4283-68.3684 45.4932-70.3783 45.4932-72.9175C45.4932-75.4321 47.4283-77.3918 50.0926-77.3918L96.1519-77.3918C98.747-77.3918 100.682-75.4321 100.682-72.9175C100.682-70.3783 98.747-68.3684 96.1519-68.3684ZM50.0926-49.6878C47.4283-49.6878 45.4932-51.6921 45.4932-54.2816C45.4932-56.746 47.4283-58.6811 50.0926-58.6811L76.7964-58.6811C79.4217-58.6811 81.3066-56.746 81.3066-54.2816C81.3066-51.6921 79.4217-49.6878 76.7964-49.6878ZM50.9205 8.94921C45.8178 8.94921 42.8132 6.14443 42.8132 0.936691L42.8132-32.0628C42.8132-37.3454 45.8178-40.0753 50.9205-40.0753L94.2876-40.0753C99.5701-40.0753 102.306-37.3454 102.306-32.0628L102.306 0.936691C102.306 6.14443 99.5701 8.94921 94.2876 8.94921ZM16.084 11.7397C16.084 26.3825 24.1584 34.4871 38.7107 34.4871L106.333 34.4871C120.891 34.4871 128.99 26.3825 128.99 11.7397L128.99-82.1674C128.99-96.78 120.891-104.915 106.333-104.915L38.7107-104.915C24.1584-104.915 16.084-96.78 16.084-82.1674Z"/>
  </g>
  <g id="Bold-L" transform="matrix(1 0 0 1 2268.83 1556)">
   <path d="M47.5874-69.6822C45.137-69.6822 43.3469-71.5394 43.3469-73.8802C43.3469-76.1962 45.137-78.011 47.5874-78.011L96.1162-78.011C98.5127-78.011 100.303-76.1962 100.303-73.8802C100.303-71.5394 98.5127-69.6822 96.1162-69.6822ZM47.5874-51.0836C45.137-51.0836 43.3469-52.9276 43.3469-55.3108C43.3469-57.5844 45.137-59.3744 47.5874-59.3744L76.1328-59.3744C78.5673-59.3744 80.3149-57.5844 80.3149-55.3108C80.3149-52.9276 78.5673-51.0836 76.1328-51.0836ZM48.5 10.245C43.2431 10.245 40.2225 7.40123 40.2225 2.03912L40.2225-32.6371C40.2225-38.0664 43.2431-40.843 48.5-40.843L93.8785-40.843C99.3078-40.843 102.098-38.0664 102.098-32.6371L102.098 2.03912C102.098 7.40123 99.3078 10.245 93.8785 10.245ZM16.084 12.1987C16.084 26.1514 23.5506 33.656 37.3893 33.656L104.864 33.656C118.716 33.656 126.207 26.1514 126.207 12.1987L126.207-82.6268C126.207-96.5415 118.716-104.084 104.864-104.084L37.3893-104.084C23.5506-104.084 16.084-96.5415 16.084-82.6268Z"/>
  </g>
  <g id="Semibold-L" transform="matrix(1 0 0 1 1973.08 1556)">
   <path d="M45.8603-70.5879C43.5573-70.5879 41.8673-72.3399 41.8673-74.5439C41.8673-76.723 43.5573-78.4379 45.8603-78.4379L96.0916-78.4379C98.3512-78.4379 100.041-76.723 100.041-74.5439C100.041-72.3399 98.3512-70.5879 96.0916-70.5879ZM45.8603-52.0458C43.5573-52.0458 41.8673-53.7793 41.8673-56.0203C41.8673-58.1624 43.5573-59.8524 45.8603-59.8524L75.6754-59.8524C77.9783-59.8524 79.6312-58.1624 79.6312-56.0203C79.6312-53.7793 77.9783-52.0458 75.6754-52.0458ZM46.8313 11.1383C41.4681 11.1383 38.4365 8.26767 38.4365 2.79912L38.4365-33.033C38.4365-38.5634 41.4681-41.3722 46.8313-41.3722L93.5965-41.3722C99.1269-41.3722 101.954-38.5634 101.954-33.033L101.954 2.79912C101.954 8.26767 99.1269 11.1383 93.5965 11.1383ZM16.084 12.5152C16.084 25.9921 23.1315 33.083 36.4783 33.083L103.85 33.083C117.216 33.083 124.288 25.9921 124.288 12.5152L124.288-82.9435C124.288-96.377 117.216-103.511 103.85-103.511L36.4783-103.511C23.1315-103.511 16.084-96.377 16.084-82.9435Z"/>
  </g>
  <g id="Medium-L" transform="matrix(1 0 0 1 1677.1 1556)">
   <path d="M44.5507-71.2747C42.3595-71.2747 40.7454-72.9468 40.7454-75.0471C40.7454-77.1224 42.3595-78.7615 44.5507-78.7615L96.073-78.7615C98.2287-78.7615 99.8428-77.1224 99.8428-75.0471C99.8428-72.9468 98.2287-71.2747 96.073-71.2747ZM44.5507-52.7754C42.3595-52.7754 40.7454-54.4251 40.7454-56.5583C40.7454-58.6006 42.3595-60.2148 44.5507-60.2148L75.3285-60.2148C77.5317-60.2148 79.1128-58.6006 79.1128-56.5583C79.1128-54.4251 77.5317-52.7754 75.3285-52.7754ZM45.5661 11.8157C40.1222 11.8157 37.0823 8.92463 37.0823 3.37539L37.0823-33.3331C37.0823-38.9403 40.1222-41.7734 45.5661-41.7734L93.3826-41.7734C98.9898-41.7734 101.845-38.9403 101.845-33.3331L101.845 3.37539C101.845 8.92463 98.9898 11.8157 93.3826 11.8157ZM16.084 12.7552C16.084 25.8713 22.8138 32.6485 35.7875 32.6485L103.082 32.6485C116.078 32.6485 122.833 25.8713 122.833 12.7552L122.833-83.1837C122.833-96.2524 116.078-103.077 103.082-103.077L35.7875-103.077C22.8138-103.077 16.084-96.2524 16.084-83.1837Z"/>
  </g>
  <g id="Regular-L" transform="matrix(1 0 0 1 1381.33 1556)">
   <path d="M42.8426-72.1705C40.7972-72.1705 39.282-73.7385 39.282-75.7035C39.282-77.6434 40.7972-79.1837 42.8426-79.1837L96.0486-79.1837C98.069-79.1837 99.5842-77.6434 99.5842-75.7035C99.5842-73.7385 98.069-72.1705 96.0486-72.1705ZM42.8426-53.7271C40.7972-53.7271 39.282-55.2674 39.282-57.26C39.282-59.1723 40.7972-60.6875 42.8426-60.6875L74.876-60.6875C76.9491-60.6875 78.4367-59.1723 78.4367-57.26C78.4367-55.2674 76.9491-53.7271 74.876-53.7271ZM43.9157 12.6992C38.3668 12.6992 35.3159 9.78154 35.3159 4.12704L35.3159-33.7247C35.3159-39.4319 38.3668-42.2968 43.9157-42.2968L93.1037-42.2968C98.811-42.2968 101.704-39.4319 101.704-33.7247L101.704 4.12704C101.704 9.78154 98.811 12.6992 93.1037 12.6992ZM16.084 13.0682C16.084 25.7137 22.3993 32.0818 34.8866 32.0818L102.08 32.0818C114.595 32.0818 120.935 25.7137 120.935 13.0682L120.935-83.4969C120.935-96.0897 114.595-102.511 102.08-102.511L34.8866-102.511C22.3993-102.511 16.084-96.0897 16.084-83.4969Z"/>
  </g>
  <g id="Light-L" transform="matrix(1 0 0 1 1085.41 1556)">
   <path d="M41.1631-73.1057C39.5376-73.1057 38.3086-74.3683 38.3086-75.9134C38.3086-77.4716 39.5376-78.6875 41.1631-78.6875L95.457-78.6875C97.0956-78.6875 98.3246-77.4716 98.3246-75.9134C98.3246-74.3683 97.0956-73.1057 95.457-73.1057ZM41.1631-55.2539C39.5376-55.2539 38.3086-56.4698 38.3086-58.0616C38.3086-59.5731 39.5376-60.802 41.1631-60.802L74.9906-60.802C76.6628-60.802 77.845-59.5731 77.845-58.0616C77.845-56.4698 76.6628-55.2539 74.9906-55.2539ZM42.2553 14.1688C36.7064 14.1688 33.77 11.3465 33.77 5.73021L33.77-34.5453C33.77-40.1953 36.7064-42.9839 42.2553-42.9839L93.1991-42.9839C98.8491-42.9839 101.684-40.1953 101.684-34.5453L101.684 5.73021C101.684 11.3465 98.8491 14.1688 93.1991 14.1688ZM16.084 13.7934C16.084 25.6755 22.1512 31.7764 33.9323 31.7764L101.488 31.7764C113.316 31.7764 119.37 25.6755 119.37 13.7934L119.37-84.1458C119.37-95.9943 113.316-102.129 101.488-102.129L33.9323-102.129C22.1512-102.129 16.084-95.9943 16.084-84.1458Z"/>
  </g>
  <g id="Thin-L" transform="matrix(1 0 0 1 789.73 1556)">
   <path d="M38.9418-74.3425C37.8716-74.3425 37.0213-75.2013 37.0213-76.1911C37.0213-77.2444 37.8716-78.0312 38.9418-78.0312L94.6745-78.0312C95.8083-78.0312 96.6586-77.2444 96.6586-76.1911C96.6586-75.2013 95.8083-74.3425 94.6745-74.3425ZM38.9418-57.2732C37.8716-57.2732 37.0213-58.06 37.0213-59.1218C37.0213-60.1031 37.8716-60.9535 38.9418-60.9535L75.142-60.9535C76.2842-60.9535 77.0625-60.1031 77.0625-59.1218C77.0625-58.06 76.2842-57.2732 75.142-57.2732ZM40.0593 16.1124C34.5103 16.1124 31.7254 13.4164 31.7254 7.85052L31.7254-35.6307C31.7254-41.205 34.5103-43.8926 40.0593-43.8926L93.3253-43.8926C98.8996-43.8926 101.659-41.205 101.659-35.6307L101.659 7.85052C101.659 13.4164 98.8996 16.1124 93.3253 16.1124ZM16.084 14.7526C16.084 25.6251 21.823 31.3726 32.6702 31.3726L100.706 31.3726C111.625 31.3726 117.301 25.6251 117.301 14.7526L117.301-85.0041C117.301-95.8681 111.625-101.624 100.706-101.624L32.6702-101.624C21.823-101.624 16.084-95.8681 16.084-85.0041Z"/>
  </g>
  <g id="Ultralight-L" transform="matrix(1 0 0 1 493.549 1556)">
   <path d="M37.8041-74.976C37.0183-74.976 36.3619-75.6279 36.3619-76.3333C36.3619-77.128 37.0183-77.695 37.8041-77.695L94.2737-77.695C95.1489-77.695 95.8053-77.128 95.8053-76.3333C95.8053-75.6279 95.1489-74.976 94.2737-74.976ZM37.8041-58.3075C37.0183-58.3075 36.3619-58.8745 36.3619-59.6648C36.3619-60.3746 37.0183-61.031 37.8041-61.031L75.2196-61.031C76.0903-61.031 76.6618-60.3746 76.6618-59.6648C76.6618-58.8745 76.0903-58.3075 75.2196-58.3075ZM38.9345 17.1079C33.3855 17.1079 30.6782 14.4765 30.6782 8.93653L30.6782-36.1867C30.6782-41.7222 33.3855-44.358 38.9345-44.358L93.39-44.358C98.9255-44.358 101.646-41.7222 101.646-36.1867L101.646 8.93653C101.646 14.4765 98.9255 17.1079 93.39 17.1079ZM16.084 15.2439C16.084 25.5992 21.655 31.1657 32.0238 31.1657L100.305 31.1657C110.759 31.1657 116.24 25.5992 116.24 15.2439L116.24-85.4436C116.24-95.8034 110.759-101.365 100.305-101.365L32.0238-101.365C21.655-101.365 16.084-95.8034 16.084-85.4436Z"/>
  </g>
  <g id="Black-M" transform="matrix(1 0 0 1 2875.44 1126)">
   <path d="M41.8969-59.3026C39.6633-59.3026 38.0496-60.9789 38.0496-63.0931C38.0496-65.2015 39.6633-66.821 41.8969-66.821L74.3437-66.821C76.5144-66.821 78.1281-65.2015 78.1281-63.0931C78.1281-60.9789 76.5144-59.3026 74.3437-59.3026ZM41.8969-44.9116C39.6633-44.9116 38.0496-46.5883 38.0496-48.7592C38.0496-50.8108 39.6633-52.4246 41.8969-52.4246L60.5058-52.4246C62.682-52.4246 64.2389-50.8108 64.2389-48.7592C64.2389-46.5883 62.682-44.9116 60.5058-44.9116ZM42.4211-2.3952C38.6931-2.3952 36.4276-4.47871 36.4276-8.27485L36.4276-32.2166C36.4276-36.0753 38.6931-38.0962 42.4211-38.0962L73.6786-38.0962C77.5373-38.0962 79.558-36.0753 79.558-32.2166L79.558-8.27485C79.558-4.47871 77.5373-2.3952 73.6786-2.3952ZM12.4609 0.735696C12.4609 12.8285 19.5201 19.8932 31.5964 19.8932L84.3265 19.8932C96.4026 19.8932 103.467 12.8285 103.467 0.735696L103.467-71.1439C103.467-83.2313 96.4026-90.3014 84.3265-90.3014L31.5964-90.3014C19.5201-90.3014 12.4609-83.2313 12.4609-71.1439Z"/>
  </g>
  <g id="Heavy-M" transform="matrix(1 0 0 1 2579.77 1126)">
   <path d="M40.0684-60.2498C37.9315-60.2498 36.3831-61.8583 36.3831-63.8893C36.3831-65.9061 37.9315-67.4687 40.0684-67.4687L74.4396-67.4687C76.5187-67.4687 78.0672-65.9061 78.0672-63.8893C78.0672-61.8583 76.5187-60.2498 74.4396-60.2498ZM40.0684-45.8034C37.9315-45.8034 36.3831-47.4096 36.3831-49.4865C36.3831-51.4574 37.9315-53.0059 40.0684-53.0059L59.9013-53.0059C61.9968-53.0059 63.4994-51.4574 63.4994-49.4865C63.4994-47.4096 61.9968-45.8034 59.9013-45.8034ZM40.6625-1.57849C36.7997-1.57849 34.4957-3.71659 34.4957-7.65583L34.4957-32.5421C34.4957-36.5414 36.7997-38.6195 40.6625-38.6195L73.3006-38.6195C77.2999-38.6195 79.3802-36.5414 79.3802-32.5421L79.3802-7.65583C79.3802-3.71659 77.2999-1.57849 73.3006-1.57849ZM12.4609 0.981078C12.4609 12.6348 19.0422 19.2324 30.6466 19.2324L83.1692 19.2324C94.776 19.2324 101.371 12.6348 101.371 0.981078L101.371-71.406C101.371-83.0433 94.776-89.6574 83.1692-89.6574L30.6466-89.6574C19.0422-89.6574 12.4609-83.0433 12.4609-71.406Z"/>
  </g>
  <g id="Bold-M" transform="matrix(1 0 0 1 2284.23 1126)">
   <path d="M38.023-61.3094C35.9942-61.3094 34.5188-62.842 34.5188-64.7799C34.5188-66.6943 35.9942-68.1932 38.023-68.1932L74.5469-68.1932C76.5236-68.1932 77.999-66.6943 77.999-64.7799C77.999-62.842 76.5236-61.3094 74.5469-61.3094ZM38.023-46.801C35.9942-46.801 34.5188-48.3284 34.5188-50.3C34.5188-52.1807 35.9942-53.6561 38.023-53.6561L59.2251-53.6561C61.2304-53.6561 62.6721-52.1807 62.6721-50.3C62.6721-48.3284 61.2304-46.801 59.2251-46.801ZM38.6953-0.664872C34.6818-0.664872 32.3346-2.86404 32.3346-6.96337L32.3346-32.9063C32.3346-37.0628 34.6818-39.2048 38.6953-39.2048L72.8778-39.2048C77.0343-39.2048 79.1814-37.0628 79.1814-32.9063L79.1814-6.96337C79.1814-2.86404 77.0343-0.664872 72.8778-0.664872ZM12.4609 1.25557C12.4609 12.418 18.5076 18.4933 29.5842 18.4933L81.8747 18.4933C92.9564 18.4933 99.0265 12.418 99.0265 1.25557L99.0265-71.6992C99.0265-82.8331 92.9564-88.9369 81.8747-88.9369L29.5842-88.9369C18.5076-88.9369 12.4609-82.8331 12.4609-71.6992Z"/>
  </g>
  <g id="Semibold-M" transform="matrix(1 0 0 1 1988.33 1126)">
   <path d="M36.6129-62.0399C34.6587-62.0399 33.2336-63.5202 33.2336-65.3939C33.2336-67.2377 34.6587-68.6927 36.6129-68.6927L74.6208-68.6927C76.5269-68.6927 77.952-67.2377 77.952-65.3939C77.952-63.5202 76.5269-62.0399 74.6208-62.0399ZM36.6129-47.4887C34.6587-47.4887 33.2336-48.9618 33.2336-50.8608C33.2336-52.6793 34.6587-54.1044 36.6129-54.1044L58.7589-54.1044C60.702-54.1044 62.1018-52.6793 62.1018-50.8608C62.1018-48.9618 60.702-47.4887 58.7589-47.4887ZM37.3392-0.0350319C33.2217-0.0350319 30.8448-2.2763 30.8448-6.486L30.8448-33.1573C30.8448-37.4222 33.2217-39.6083 37.3392-39.6083L72.5863-39.6083C76.8512-39.6083 79.0444-37.4222 79.0444-33.1573L79.0444-6.486C79.0444-2.2763 76.8512-0.0350319 72.5863-0.0350319ZM12.4609 1.44481C12.4609 12.2686 18.139 17.9837 28.8517 17.9837L80.9823 17.9837C91.702 17.9837 97.41 12.2686 97.41 1.44481L97.41-71.9014C97.41-82.6881 91.702-88.4403 80.9823-88.4403L28.8517-88.4403C18.139-88.4403 12.4609-82.6881 12.4609-71.9014Z"/>
  </g>
  <g id="Medium-M" transform="matrix(1 0 0 1 1692.23 1126)">
   <path d="M35.5437-62.5938C33.646-62.5938 32.2591-64.0344 32.2591-65.8595C32.2591-67.6497 33.646-69.0714 35.5437-69.0714L74.6769-69.0714C76.5295-69.0714 77.9163-67.6497 77.9163-65.8595C77.9163-64.0344 76.5295-62.5938 74.6769-62.5938ZM35.5437-48.0101C33.646-48.0101 32.2591-49.4421 32.2591-51.286C32.2591-53.0574 33.646-54.4443 35.5437-54.4443L58.4054-54.4443C60.3014-54.4443 61.6694-53.0574 61.6694-51.286C61.6694-49.4421 60.3014-48.0101 58.4054-48.0101ZM36.3108 0.442539C32.1146 0.442539 29.7151-1.83065 29.7151-6.12403L29.7151-33.3477C29.7151-37.6948 32.1146-39.9143 36.3108-39.9143L72.3653-39.9143C76.7124-39.9143 78.9404-37.6948 78.9404-33.3477L78.9404-6.12403C78.9404-1.83065 76.7124 0.442539 72.3653 0.442539ZM12.4609 1.5883C12.4609 12.1553 17.8596 17.5974 28.2963 17.5974L80.3056 17.5974C90.7509 17.5974 96.1843 12.1553 96.1843 1.5883L96.1843-72.0546C96.1843-82.5782 90.7509-88.0637 80.3056-88.0637L28.2963-88.0637C17.8596-88.0637 12.4609-82.5782 12.4609-72.0546Z"/>
  </g>
  <g id="Regular-M" transform="matrix(1 0 0 1 1396.32 1126)">
   <path d="M34.149-63.3163C32.3251-63.3163 30.9881-64.7051 30.9881-66.4667C30.9881-68.1872 32.3251-69.5654 34.149-69.5654L74.7501-69.5654C76.5328-69.5654 77.8698-68.1872 77.8698-66.4667C77.8698-64.7051 76.5328-63.3163 74.7501-63.3163ZM34.149-48.6903C32.3251-48.6903 30.9881-50.0685 30.9881-51.8407C30.9881-53.5506 32.3251-54.8876 34.149-54.8876L57.9444-54.8876C59.7788-54.8876 61.1053-53.5506 61.1053-51.8407C61.1053-50.0685 59.7788-48.6903 57.9444-48.6903ZM34.9696 1.06546C30.6705 1.06546 28.2417-1.24937 28.2417-5.6519L28.2417-33.596C28.2417-38.0503 30.6705-40.3133 34.9696-40.3133L72.077-40.3133C76.5313-40.3133 78.8049-38.0503 78.8049-33.596L78.8049-5.6519C78.8049-1.24937 76.5313 1.06546 72.077 1.06546ZM12.4609 1.77545C12.4609 12.0075 17.4951 17.0934 27.5719 17.0934L79.4229 17.0934C89.5103 17.0934 94.5856 12.0075 94.5856 1.77545L94.5856-72.2545C94.5856-82.4348 89.5103-87.5725 79.4229-87.5725L27.5719-87.5725C17.4951-87.5725 12.4609-82.4348 12.4609-72.2545Z"/>
  </g>
  <g id="Light-M" transform="matrix(1 0 0 1 1100.31 1126)">
   <path d="M32.6433-64.1548C31.1958-64.1548 30.1154-65.2698 30.1154-66.655C30.1154-68.0332 31.1958-69.1205 32.6433-69.1205L74.2196-69.1205C75.6601-69.1205 76.7405-68.0332 76.7405-66.655C76.7405-65.2698 75.6601-64.1548 74.2196-64.1548ZM32.6433-50.0591C31.1958-50.0591 30.1154-51.1465 30.1154-52.5594C30.1154-53.9099 31.1958-54.9903 32.6433-54.9903L58.047-54.9903C59.5222-54.9903 60.5749-53.9099 60.5749-52.5594C60.5749-51.1465 59.5222-50.0591 58.047-50.0591ZM33.4809 2.383C29.1819 2.383 26.8557 0.153731 26.8557-4.21458L26.8557-34.3318C26.8557-38.7347 29.1819-40.9293 33.4809-40.9293L72.1625-40.9293C76.5655-40.9293 78.7878-38.7347 78.7878-34.3318L78.7878-4.21458C78.7878 0.153731 76.5655 2.383 72.1625 2.383ZM12.4609 2.42567C12.4609 11.9733 17.2726 16.8196 26.7163 16.8196L78.8925 16.8196C88.3638 16.8196 93.1825 11.9733 93.1825 2.42567L93.1825-72.8363C93.1825-82.3493 88.3638-87.2303 78.8925-87.2303L26.7163-87.2303C17.2726-87.2303 12.4609-82.3493 12.4609-72.8363Z"/>
  </g>
  <g id="Thin-M" transform="matrix(1 0 0 1 804.528 1126)">
   <path d="M30.6518-65.2637C29.7022-65.2637 28.9613-66.0166 28.9613-66.9039C28.9613-67.8295 29.7022-68.5321 30.6518-68.5321L73.5181-68.5321C74.506-68.5321 75.2469-67.8295 75.2469-66.9039C75.2469-66.0166 74.506-65.2637 73.5181-65.2637ZM30.6518-51.8696C29.7022-51.8696 28.9613-52.5722 28.9613-53.5098C28.9613-54.3851 29.7022-55.1261 30.6518-55.1261L58.1828-55.1261C59.1827-55.1261 59.8734-54.3851 59.8734-53.5098C59.8734-52.5722 59.1827-51.8696 58.1828-51.8696ZM31.512 4.12556C27.213 4.12556 25.0226 2.00944 25.0226-2.31361L25.0226-35.3049C25.0226-39.6399 27.213-41.744 31.512-41.744L72.2757-41.744C76.6107-41.744 78.7651-39.6399 78.7651-35.3049L78.7651-2.31361C78.7651 2.00944 76.6107 4.12556 72.2757 4.12556ZM12.4609 3.28563C12.4609 11.928 16.9784 16.4575 25.5848 16.4575L78.1909 16.4575C86.8476 16.4575 91.3268 11.928 91.3268 3.28563L91.3268-73.6057C91.3268-82.2361 86.8476-86.7776 78.1909-86.7776L25.5848-86.7776C16.9784-86.7776 12.4609-82.2361 12.4609-73.6057Z"/>
  </g>
  <g id="Ultralight-M" transform="matrix(1 0 0 1 508.292 1126)">
   <path d="M29.6318-65.8316C28.9372-65.8316 28.3701-66.3991 28.3701-67.0314C28.3701-67.7252 28.9372-68.2308 29.6318-68.2308L73.1587-68.2308C73.9148-68.2308 74.4819-67.7252 74.4819-67.0314C74.4819-66.3991 73.9148-65.8316 73.1587-65.8316ZM29.6318-52.7969C28.9372-52.7969 28.3701-53.3025 28.3701-53.9967C28.3701-54.6286 28.9372-55.1956 29.6318-55.1956L58.2524-55.1956C59.0089-55.1956 59.514-54.6286 59.514-53.9967C59.514-53.3025 59.0089-52.7969 58.2524-52.7969ZM30.5036 5.01808C26.2046 5.01808 24.0837 2.95993 24.0837-1.33994L24.0837-35.8033C24.0837-40.1036 26.2046-42.1613 30.5036-42.1613L72.3336-42.1613C76.6339-42.1613 78.7535-40.1036 78.7535-35.8033L78.7535-1.33994C78.7535 2.95993 76.6339 5.01808 72.3336 5.01808ZM12.4609 3.7261C12.4609 11.9048 16.8277 16.2721 25.0052 16.2721L77.8316 16.2721C86.071 16.2721 90.3763 11.9048 90.3763 3.7261L90.3763-73.9999C90.3763-82.1782 86.071-86.5458 77.8316-86.5458L25.0052-86.5458C16.8277-86.5458 12.4609-82.1782 12.4609-73.9999Z"/>
  </g>
  <g id="Black-S" transform="matrix(1 0 0 1 2887.7 696)">
   <path d="M33.3008-53.8574C31.543-53.8574 30.2734-55.1758 30.2734-56.8359C30.2734-58.4961 31.543-59.7656 33.3008-59.7656L58.2031-59.7656C59.9121-59.7656 61.1816-58.4961 61.1816-56.8359C61.1816-55.1758 59.9121-53.8574 58.2031-53.8574ZM33.3008-42.627C31.543-42.627 30.2734-43.9453 30.2734-45.6543C30.2734-47.2656 31.543-48.5352 33.3008-48.5352L47.6074-48.5352C49.3164-48.5352 50.5371-47.2656 50.5371-45.6543C50.5371-43.9453 49.3164-42.627 47.6074-42.627ZM33.6914-9.66797C30.8105-9.66797 29.0527-11.2793 29.0527-14.209L29.0527-32.8125C29.0527-35.791 30.8105-37.3535 33.6914-37.3535L57.8613-37.3535C60.8398-37.3535 62.4023-35.791 62.4023-32.8125L62.4023-14.209C62.4023-11.2793 60.8398-9.66797 57.8613-9.66797ZM9.76562-7.08008C9.76562 2.49023 15.4297 8.1543 25 8.1543L66.4062 8.1543C75.9766 8.1543 81.6406 2.49023 81.6406-7.08008L81.6406-63.3301C81.6406-72.9004 75.9766-78.5645 66.4062-78.5645L25-78.5645C15.4297-78.5645 9.76562-72.9004 9.76562-63.3301Z"/>
  </g>
  <g id="Heavy-S" transform="matrix(1 0 0 1 2591.79 696)">
   <path d="M31.9294-54.5604C30.2061-54.5604 28.9596-55.8557 28.9596-57.4928C28.9596-59.1184 30.2061-60.3764 31.9294-60.3764L58.3529-60.3764C60.0274-60.3764 61.2738-59.1184 61.2738-57.4928C61.2738-55.8557 60.0274-54.5604 58.3529-54.5604ZM31.9294-43.2147C30.2061-43.2147 28.9596-44.51 28.9596-46.1844C28.9596-47.7727 30.2061-49.0192 31.9294-49.0192L47.0773-49.0192C48.7632-49.0192 49.9724-47.7727 49.9724-46.1844C49.9724-44.51 48.7632-43.2147 47.0773-43.2147ZM32.3776-9.13784C29.3815-9.13784 27.5776-10.8068 27.5776-13.8633L27.5776-32.9969C27.5776-36.1022 29.3815-37.7223 32.3776-37.7223L57.5271-37.7223C60.6324-37.7223 62.2525-36.1022 62.2525-32.9969L62.2525-13.8633C62.2525-10.8068 60.6324-9.13784 57.5271-9.13784ZM9.76562-6.95331C9.76562 2.32889 15.0494 7.62417 24.297 7.62417L65.4843 7.62417C74.7319 7.62417 80.0272 2.32889 80.0272-6.95331L80.0272-63.4799C80.0272-72.7506 74.7319-78.0574 65.4843-78.0574L24.297-78.0574C15.0494-78.0574 9.76562-72.7506 9.76562-63.4799Z"/>
  </g>
  <g id="Bold-S" transform="matrix(1 0 0 1 2295.98 696)">
   <path d="M30.3955-55.3467C28.7109-55.3467 27.4902-56.6162 27.4902-58.2275C27.4902-59.8145 28.7109-61.0596 30.3955-61.0596L58.5205-61.0596C60.1562-61.0596 61.377-59.8145 61.377-58.2275C61.377-56.6162 60.1562-55.3467 58.5205-55.3467ZM30.3955-43.8721C28.7109-43.8721 27.4902-45.1416 27.4902-46.7773C27.4902-48.3398 28.7109-49.5605 30.3955-49.5605L46.4844-49.5605C48.1445-49.5605 49.3408-48.3398 49.3408-46.7773C49.3408-45.1416 48.1445-43.8721 46.4844-43.8721ZM30.9082-8.54492C27.7832-8.54492 25.9277-10.2783 25.9277-13.4766L25.9277-33.2031C25.9277-36.4502 27.7832-38.1348 30.9082-38.1348L57.1533-38.1348C60.4004-38.1348 62.085-36.4502 62.085-33.2031L62.085-13.4766C62.085-10.2783 60.4004-8.54492 57.1533-8.54492ZM9.76562-6.81152C9.76562 2.14844 14.624 7.03125 23.5107 7.03125L64.4531 7.03125C73.3398 7.03125 78.2227 2.14844 78.2227-6.81152L78.2227-63.6475C78.2227-72.583 73.3398-77.4902 64.4531-77.4902L23.5107-77.4902C14.624-77.4902 9.76562-72.583 9.76562-63.6475Z"/>
  </g>
  <g id="Semibold-S" transform="matrix(1 0 0 1 1999.89 696)">
   <path d="M29.338-55.8888C27.6801-55.8888 26.4771-57.1405 26.4771-58.7341C26.4771-60.2943 27.6801-61.5306 29.338-61.5306L58.636-61.5306C60.2451-61.5306 61.448-60.2943 61.448-58.7341C61.448-57.1405 60.2451-55.8888 58.636-55.8888ZM29.338-44.3253C27.6801-44.3253 26.4771-45.5771 26.4771-47.1861C26.4771-48.7309 27.6801-49.9338 29.338-49.9338L46.0756-49.9338C47.718-49.9338 48.9054-48.7309 48.9054-47.1861C48.9054-45.5771 47.718-44.3253 46.0756-44.3253ZM29.8951-8.13613C26.6812-8.13613 24.7902-9.91396 24.7902-13.21L24.7902-33.3453C24.7902-36.6901 26.6812-38.4191 29.8951-38.4191L56.8956-38.4191C60.2404-38.4191 61.9694-36.6901 61.9694-33.3453L61.9694-13.21C61.9694-9.91396 60.2404-8.13613 56.8956-8.13613ZM9.76562-6.71377C9.76562 2.02402 14.3308 6.62246 22.9687 6.62246L63.7422 6.62246C72.3801 6.62246 76.9785 2.02402 76.9785-6.71377L76.9785-63.763C76.9785-72.4675 72.3801-77.0992 63.7422-77.0992L22.9687-77.0992C14.3308-77.0992 9.76562-72.4675 9.76562-63.763Z"/>
  </g>
  <g id="Medium-S" transform="matrix(1 0 0 1 1703.66 696)">
   <path d="M28.5361-56.2998C26.8984-56.2998 25.709-57.5381 25.709-59.1182C25.709-60.6582 26.8984-61.8877 28.5361-61.8877L58.7236-61.8877C60.3125-61.8877 61.502-60.6582 61.502-59.1182C61.502-57.5381 60.3125-56.2998 58.7236-56.2998ZM28.5361-44.6689C26.8984-44.6689 25.709-45.9072 25.709-47.4961C25.709-49.0273 26.8984-50.2168 28.5361-50.2168L45.7656-50.2168C47.3945-50.2168 48.5752-49.0273 48.5752-47.4961C48.5752-45.9072 47.3945-44.6689 45.7656-44.6689ZM29.127-7.82617C25.8457-7.82617 23.9277-9.6377 23.9277-13.0078L23.9277-33.4531C23.9277-36.8721 25.8457-38.6348 29.127-38.6348L56.7002-38.6348C60.1191-38.6348 61.8818-36.8721 61.8818-33.4531L61.8818-13.0078C61.8818-9.6377 60.1191-7.82617 56.7002-7.82617ZM9.76562-6.63965C9.76562 1.92969 14.1084 6.3125 22.5576 6.3125L63.2031 6.3125C71.6523 6.3125 76.0352 1.92969 76.0352-6.63965L76.0352-63.8506C76.0352-72.3799 71.6523-76.8027 63.2031-76.8027L22.5576-76.8027C14.1084-76.8027 9.76562-72.3799 9.76562-63.8506Z"/>
  </g>
  <g id="Regular-S" transform="matrix(1 0 0 1 1407.56 696)">
   <path d="M27.4902-56.8359C25.8789-56.8359 24.707-58.0566 24.707-59.6191C24.707-61.1328 25.8789-62.3535 27.4902-62.3535L58.8379-62.3535C60.4004-62.3535 61.5723-61.1328 61.5723-59.6191C61.5723-58.0566 60.4004-56.8359 58.8379-56.8359ZM27.4902-45.1172C25.8789-45.1172 24.707-46.3379 24.707-47.9004C24.707-49.4141 25.8789-50.5859 27.4902-50.5859L45.3613-50.5859C46.9727-50.5859 48.1445-49.4141 48.1445-47.9004C48.1445-46.3379 46.9727-45.1172 45.3613-45.1172ZM28.125-7.42188C24.7559-7.42188 22.8027-9.27734 22.8027-12.7441L22.8027-33.5938C22.8027-37.1094 24.7559-38.916 28.125-38.916L56.4453-38.916C59.9609-38.916 61.7676-37.1094 61.7676-33.5938L61.7676-12.7441C61.7676-9.27734 59.9609-7.42188 56.4453-7.42188ZM9.76562-6.54297C9.76562 1.80664 13.8184 5.9082 22.0215 5.9082L62.5 5.9082C70.7031 5.9082 74.8047 1.80664 74.8047-6.54297L74.8047-63.9648C74.8047-72.2656 70.7031-76.416 62.5-76.416L22.0215-76.416C13.8184-76.416 9.76562-72.2656 9.76562-63.9648Z"/>
  </g>
  <g id="Light-S" transform="matrix(1 0 0 1 1111.47 696)">
   <path d="M26.1582-57.5776C24.8799-57.5776 23.9351-58.5561 23.9351-59.7856C23.9351-60.9966 24.8799-61.96 26.1582-61.96L58.3687-61.96C59.6284-61.96 60.5733-60.9966 60.5733-59.7856C60.5733-58.5561 59.6284-57.5776 58.3687-57.5776ZM26.1582-46.3281C24.8799-46.3281 23.9351-47.2915 23.9351-48.5361C23.9351-49.7319 24.8799-50.6768 26.1582-50.6768L45.4521-50.6768C46.7456-50.6768 47.6753-49.7319 47.6753-48.5361C47.6753-47.2915 46.7456-46.3281 45.4521-46.3281ZM26.8081-6.25636C23.439-6.25636 21.5767-8.03614 21.5767-11.4727L21.5767-34.2446C21.5767-37.7148 23.439-39.4609 26.8081-39.4609L56.521-39.4609C59.9912-39.4609 61.7524-37.7148 61.7524-34.2446L61.7524-11.4727C61.7524-8.03614 59.9912-6.25636 56.521-6.25636ZM9.76562-5.96778C9.76562 1.77637 13.6216 5.66602 21.2647 5.66602L62.0308 5.66602C69.689 5.66602 73.5635 1.77637 73.5635-5.96778L73.5635-64.4795C73.5635-72.1899 69.689-76.1133 62.0308-76.1133L21.2647-76.1133C13.6216-76.1133 9.76562-72.1899 9.76562-64.4795Z"/>
  </g>
  <g id="Thin-S" transform="matrix(1 0 0 1 815.578 696)">
   <path d="M24.3965-58.5586C23.5586-58.5586 22.9141-59.2168 22.9141-60.0059C22.9141-60.8164 23.5586-61.4395 24.3965-61.4395L57.7481-61.4395C58.6074-61.4395 59.252-60.8164 59.252-60.0059C59.252-59.2168 58.6074-58.5586 57.7481-58.5586ZM24.3965-47.9297C23.5586-47.9297 22.9141-48.5527 22.9141-49.3769C22.9141-50.1523 23.5586-50.7969 24.3965-50.7969L45.5723-50.7969C46.4453-50.7969 47.0547-50.1523 47.0547-49.3769C47.0547-48.5527 46.4453-47.9297 45.5723-47.9297ZM25.0664-4.71487C21.6973-4.71487 19.9551-6.39455 19.9551-9.79104L19.9551-35.1055C19.9551-38.5156 21.6973-40.1816 25.0664-40.1816L56.6211-40.1816C60.0312-40.1816 61.7324-38.5156 61.7324-35.1055L61.7324-9.79104C61.7324-6.39455 60.0312-4.71487 56.6211-4.71487ZM9.76562-5.20704C9.76562 1.73633 13.3613 5.34571 20.2637 5.34571L61.4102 5.34571C68.3477 5.34571 71.9219 1.73633 71.9219-5.20704L71.9219-65.1601C71.9219-72.0898 68.3477-75.7129 61.4102-75.7129L20.2637-75.7129C13.3613-75.7129 9.76562-72.0898 9.76562-65.1601Z"/>
  </g>
  <g id="Ultralight-S" transform="matrix(1 0 0 1 519.288 696)">
   <path d="M23.4942-59.061C22.8819-59.061 22.3911-59.5552 22.3911-60.1186C22.3911-60.7241 22.8819-61.1729 23.4942-61.1729L57.4302-61.1729C58.0845-61.1729 58.5752-60.7241 58.5752-60.1186C58.5752-59.5552 58.0845-59.061 57.4302-59.061ZM23.4942-48.75C22.8819-48.75 22.3911-49.1987 22.3911-49.8076C22.3911-50.3677 22.8819-50.8584 23.4942-50.8584L45.6338-50.8584C46.2915-50.8584 46.7368-50.3677 46.7368-49.8076C46.7368-49.1987 46.2915-48.75 45.6338-48.75ZM24.1743-3.92532C20.8052-3.92532 19.1245-5.55374 19.1245-8.92972L19.1245-35.5464C19.1245-38.9258 20.8052-40.5508 24.1743-40.5508L56.6724-40.5508C60.0518-40.5508 61.7222-38.9258 61.7222-35.5464L61.7222-8.92972C61.7222-5.55374 60.0518-3.92532 56.6724-3.92532ZM9.76562-4.8174C9.76562 1.71582 13.228 5.18165 19.751 5.18165L61.0923 5.18165C67.6607 5.18165 71.0811 1.71582 71.0811-4.8174L71.0811-65.5088C71.0811-72.0386 67.6607-75.5078 61.0923-75.5078L19.751-75.5078C13.228-75.5078 9.76562-72.0386 9.76562-65.5088Z"/>
  </g>
 </g>
</svg>
