<?xml version="1.0" encoding="UTF-8"?>
<!--Generator: Apple Native CoreSVG 175-->
<!DOCTYPE svg
PUBLIC "-//W3C//DTD SVG 1.1//EN"
       "http://www.w3.org/Graphics/SVG/1.1/DTD/svg11.dtd">
<svg version="1.1" xmlns="http://www.w3.org/2000/svg" xmlns:xlink="http://www.w3.org/1999/xlink" width="3300" height="2200">
 <!--glyph: "uni10098B.medium", point size: 100.0, font version: "17.3d3e1", template writer version: "65.1"-->
 <g id="Notes">
  <rect height="2200" id="artboard" style="fill:white;opacity:1" width="3300" x="0" y="0"/>
  <line style="fill:none;stroke:black;opacity:1;stroke-width:0.5;" x1="263" x2="3036" y1="292" y2="292"/>
  <text style="stroke:none;fill:black;font-family:sans-serif;font-size:13;font-weight:bold;" transform="matrix(1 0 0 1 263 322)">Weight/Scale Variations</text>
  <text style="stroke:none;fill:black;font-family:sans-serif;font-size:13;text-anchor:middle;" transform="matrix(1 0 0 1 559.711 322)">Ultralight</text>
  <text style="stroke:none;fill:black;font-family:sans-serif;font-size:13;text-anchor:middle;" transform="matrix(1 0 0 1 856.422 322)">Thin</text>
  <text style="stroke:none;fill:black;font-family:sans-serif;font-size:13;text-anchor:middle;" transform="matrix(1 0 0 1 1153.13 322)">Light</text>
  <text style="stroke:none;fill:black;font-family:sans-serif;font-size:13;text-anchor:middle;" transform="matrix(1 0 0 1 1449.84 322)">Regular</text>
  <text style="stroke:none;fill:black;font-family:sans-serif;font-size:13;text-anchor:middle;" transform="matrix(1 0 0 1 1746.56 322)">Medium</text>
  <text style="stroke:none;fill:black;font-family:sans-serif;font-size:13;text-anchor:middle;" transform="matrix(1 0 0 1 2043.27 322)">Semibold</text>
  <text style="stroke:none;fill:black;font-family:sans-serif;font-size:13;text-anchor:middle;" transform="matrix(1 0 0 1 2339.98 322)">Bold</text>
  <text style="stroke:none;fill:black;font-family:sans-serif;font-size:13;text-anchor:middle;" transform="matrix(1 0 0 1 2636.69 322)">Heavy</text>
  <text style="stroke:none;fill:black;font-family:sans-serif;font-size:13;text-anchor:middle;" transform="matrix(1 0 0 1 2933.4 322)">Black</text>
  <line style="fill:none;stroke:black;opacity:1;stroke-width:0.5;" x1="263" x2="3036" y1="1903" y2="1903"/>
  <g transform="matrix(1 0 0 1 263 1933)">
   <path d="M9.24805 0.830078Q10.8691 0.830078 12.2949 0.214844Q13.7207-0.400391 14.8096-1.49414Q15.8984-2.58789 16.5186-4.01367Q17.1387-5.43945 17.1387-7.05078Q17.1387-8.66211 16.5186-10.0879Q15.8984-11.5137 14.8047-12.6074Q13.7109-13.7012 12.2852-14.3164Q10.8594-14.9316 9.23828-14.9316Q7.62695-14.9316 6.20117-14.3164Q4.77539-13.7012 3.69141-12.6074Q2.60742-11.5137 1.9873-10.0879Q1.36719-8.66211 1.36719-7.05078Q1.36719-5.43945 1.9873-4.01367Q2.60742-2.58789 3.69629-1.49414Q4.78516-0.400391 6.21094 0.214844Q7.63672 0.830078 9.24805 0.830078ZM9.24805-0.654297Q7.91992-0.654297 6.7627-1.14746Q5.60547-1.64062 4.73145-2.51953Q3.85742-3.39844 3.36426-4.56055Q2.87109-5.72266 2.87109-7.05078Q2.87109-8.37891 3.35938-9.54102Q3.84766-10.7031 4.72168-11.582Q5.5957-12.4609 6.75293-12.9541Q7.91016-13.4473 9.23828-13.4473Q10.5762-13.4473 11.7334-12.9541Q12.8906-12.4609 13.7695-11.582Q14.6484-10.7031 15.1465-9.54102Q15.6445-8.37891 15.6445-7.05078Q15.6445-5.72266 15.1514-4.56055Q14.6582-3.39844 13.7842-2.51953Q12.9102-1.64062 11.748-1.14746Q10.5859-0.654297 9.24805-0.654297ZM5.6543-7.05078Q5.6543-6.72852 5.85938-6.52832Q6.06445-6.32812 6.40625-6.32812L8.51562-6.32812L8.51562-4.20898Q8.51562-3.88672 8.71094-3.67676Q8.90625-3.4668 9.23828-3.4668Q9.56055-3.4668 9.77051-3.67676Q9.98047-3.88672 9.98047-4.20898L9.98047-6.32812L12.0898-6.32812Q12.4219-6.32812 12.627-6.52832Q12.832-6.72852 12.832-7.05078Q12.832-7.38281 12.627-7.58789Q12.4219-7.79297 12.0898-7.79297L9.98047-7.79297L9.98047-9.90234Q9.98047-10.2344 9.77051-10.4443Q9.56055-10.6543 9.23828-10.6543Q8.90625-10.6543 8.71094-10.4443Q8.51562-10.2344 8.51562-9.90234L8.51562-7.79297L6.40625-7.79297Q6.06445-7.79297 5.85938-7.58789Q5.6543-7.38281 5.6543-7.05078Z"/>
  </g>
  <g transform="matrix(1 0 0 1 281.867 1933)">
   <path d="M11.709 2.91016Q13.75 2.91016 15.5518 2.12891Q17.3535 1.34766 18.7305-0.0292969Q20.1074-1.40625 20.8887-3.20801Q21.6699-5.00977 21.6699-7.05078Q21.6699-9.0918 20.8887-10.8936Q20.1074-12.6953 18.7305-14.0723Q17.3535-15.4492 15.5469-16.2305Q13.7402-17.0117 11.6992-17.0117Q9.6582-17.0117 7.85645-16.2305Q6.05469-15.4492 4.68262-14.0723Q3.31055-12.6953 2.5293-10.8936Q1.74805-9.0918 1.74805-7.05078Q1.74805-5.00977 2.5293-3.20801Q3.31055-1.40625 4.6875-0.0292969Q6.06445 1.34766 7.86621 2.12891Q9.66797 2.91016 11.709 2.91016ZM11.709 1.25Q9.98047 1.25 8.47656 0.605469Q6.97266-0.0390625 5.83496-1.17676Q4.69727-2.31445 4.05762-3.81836Q3.41797-5.32227 3.41797-7.05078Q3.41797-8.7793 4.05762-10.2832Q4.69727-11.7871 5.83008-12.9297Q6.96289-14.0723 8.4668-14.7119Q9.9707-15.3516 11.6992-15.3516Q13.4277-15.3516 14.9316-14.7119Q16.4355-14.0723 17.5781-12.9297Q18.7207-11.7871 19.3652-10.2832Q20.0098-8.7793 20.0098-7.05078Q20.0098-5.32227 19.3701-3.81836Q18.7305-2.31445 17.5928-1.17676Q16.4551-0.0390625 14.9463 0.605469Q13.4375 1.25 11.709 1.25ZM7.17773-7.05078Q7.17773-6.69922 7.41211-6.47461Q7.64648-6.25 8.01758-6.25L10.8887-6.25L10.8887-3.36914Q10.8887-2.99805 11.1133-2.76855Q11.3379-2.53906 11.6895-2.53906Q12.0605-2.53906 12.29-2.76855Q12.5195-2.99805 12.5195-3.36914L12.5195-6.25L15.4004-6.25Q15.7715-6.25 16.001-6.47461Q16.2305-6.69922 16.2305-7.05078Q16.2305-7.42188 16.001-7.65137Q15.7715-7.88086 15.4004-7.88086L12.5195-7.88086L12.5195-10.752Q12.5195-11.1328 12.29-11.3623Q12.0605-11.5918 11.6895-11.5918Q11.3379-11.5918 11.1133-11.3574Q10.8887-11.123 10.8887-10.752L10.8887-7.88086L8.01758-7.88086Q7.63672-7.88086 7.40723-7.65137Q7.17773-7.42188 7.17773-7.05078Z"/>
  </g>
  <g transform="matrix(1 0 0 1 305.646 1933)">
   <path d="M14.9707 5.66406Q17.0605 5.66406 18.96 5.01465Q20.8594 4.36523 22.4512 3.19336Q24.043 2.02148 25.2197 0.429688Q26.3965-1.16211 27.0459-3.06641Q27.6953-4.9707 27.6953-7.05078Q27.6953-9.14062 27.0459-11.04Q26.3965-12.9395 25.2197-14.5312Q24.043-16.123 22.4512-17.2998Q20.8594-18.4766 18.9551-19.126Q17.0508-19.7754 14.9609-19.7754Q12.8711-19.7754 10.9717-19.126Q9.07227-18.4766 7.48535-17.2998Q5.89844-16.123 4.72168-14.5312Q3.54492-12.9395 2.90039-11.04Q2.25586-9.14062 2.25586-7.05078Q2.25586-4.9707 2.90527-3.06641Q3.55469-1.16211 4.72656 0.429688Q5.89844 2.02148 7.49023 3.19336Q9.08203 4.36523 10.9814 5.01465Q12.8809 5.66406 14.9707 5.66406ZM14.9707 3.84766Q13.1641 3.84766 11.5283 3.2959Q9.89258 2.74414 8.53516 1.74805Q7.17773 0.751953 6.17676-0.610352Q5.17578-1.97266 4.62891-3.6084Q4.08203-5.24414 4.08203-7.05078Q4.08203-8.86719 4.62891-10.5029Q5.17578-12.1387 6.17188-13.501Q7.16797-14.8633 8.52539-15.8594Q9.88281-16.8555 11.5186-17.4023Q13.1543-17.9492 14.9609-17.9492Q16.7773-17.9492 18.4131-17.4023Q20.0488-16.8555 21.4111-15.8594Q22.7734-14.8633 23.7695-13.501Q24.7656-12.1387 25.3174-10.5029Q25.8691-8.86719 25.8691-7.05078Q25.8789-5.24414 25.332-3.6084Q24.7852-1.97266 23.7842-0.610352Q22.7832 0.751953 21.4209 1.74805Q20.0586 2.74414 18.4229 3.2959Q16.7871 3.84766 14.9707 3.84766ZM9.19922-7.05078Q9.19922-6.66992 9.45801-6.4209Q9.7168-6.17188 10.1172-6.17188L14.0625-6.17188L14.0625-2.2168Q14.0625-1.81641 14.3115-1.55762Q14.5605-1.29883 14.9512-1.29883Q15.3516-1.29883 15.6104-1.55273Q15.8691-1.80664 15.8691-2.2168L15.8691-6.17188L19.8242-6.17188Q20.2246-6.17188 20.4785-6.4209Q20.7324-6.66992 20.7324-7.05078Q20.7324-7.46094 20.4785-7.71484Q20.2246-7.96875 19.8242-7.96875L15.8691-7.96875L15.8691-11.9141Q15.8691-12.3242 15.6104-12.583Q15.3516-12.8418 14.9512-12.8418Q14.5605-12.8418 14.3115-12.583Q14.0625-12.3242 14.0625-11.9141L14.0625-7.96875L10.1172-7.96875Q9.70703-7.96875 9.45312-7.71484Q9.19922-7.46094 9.19922-7.05078Z"/>
  </g>
  <text style="stroke:none;fill:black;font-family:sans-serif;font-size:13;font-weight:bold;" transform="matrix(1 0 0 1 263 1953)">Design Variations</text>
  <text style="stroke:none;fill:black;font-family:sans-serif;font-size:13;" transform="matrix(1 0 0 1 263 1971)">Symbols are supported in up to nine weights and three scales.</text>
  <text style="stroke:none;fill:black;font-family:sans-serif;font-size:13;" transform="matrix(1 0 0 1 263 1989)">For optimal layout with text and other symbols, vertically align</text>
  <text style="stroke:none;fill:black;font-family:sans-serif;font-size:13;" transform="matrix(1 0 0 1 263 2007)">symbols with the adjacent text.</text>
  <line style="fill:none;stroke:#00AEEF;stroke-width:0.5;opacity:1.0;" x1="776" x2="776" y1="1919" y2="1933"/>
  <g transform="matrix(1 0 0 1 776 1933)">
   <path d="M3.31055 0.15625Q3.70117 0.15625 3.91602-0.00976562Q4.13086-0.175781 4.26758-0.585938L5.52734-4.0332L11.2891-4.0332L12.5488-0.585938Q12.6855-0.175781 12.9004-0.00976562Q13.1152 0.15625 13.4961 0.15625Q13.8867 0.15625 14.1162-0.0585938Q14.3457-0.273438 14.3457-0.644531Q14.3457-0.869141 14.2383-1.17188L9.6582-13.3691Q9.48242-13.8184 9.17969-14.043Q8.87695-14.2676 8.4082-14.2676Q7.5-14.2676 7.17773-13.3789L2.59766-1.16211Q2.49023-0.859375 2.49023-0.634766Q2.49023-0.263672 2.70996-0.0537109Q2.92969 0.15625 3.31055 0.15625ZM6.00586-5.51758L8.37891-12.0898L8.42773-12.0898L10.8008-5.51758Z"/>
  </g>
  <line style="fill:none;stroke:#00AEEF;stroke-width:0.5;opacity:1.0;" x1="793.197" x2="793.197" y1="1919" y2="1933"/>
  <text style="stroke:none;fill:black;font-family:sans-serif;font-size:13;font-weight:bold;" transform="matrix(1 0 0 1 776 1953)">Margins</text>
  <text style="stroke:none;fill:black;font-family:sans-serif;font-size:13;" transform="matrix(1 0 0 1 776 1971)">Leading and trailing margins on the left and right side of each symbol</text>
  <text style="stroke:none;fill:black;font-family:sans-serif;font-size:13;" transform="matrix(1 0 0 1 776 1989)">can be adjusted by modifying the x-location of the margin guidelines.</text>
  <text style="stroke:none;fill:black;font-family:sans-serif;font-size:13;" transform="matrix(1 0 0 1 776 2007)">Modifications are automatically applied proportionally to all</text>
  <text style="stroke:none;fill:black;font-family:sans-serif;font-size:13;" transform="matrix(1 0 0 1 776 2025)">scales and weights.</text>
  <g transform="matrix(1 0 0 1 1289 1933)">
   <path d="M2.8418 1.86523L4.54102 3.57422Q5.18555 4.22852 5.90332 4.17969Q6.62109 4.13086 7.31445 3.35938L18.0078-8.42773L17.041-9.4043L6.42578 2.27539Q6.16211 2.57812 5.89355 2.61719Q5.625 2.65625 5.27344 2.30469L4.10156 1.14258Q3.75 0.791016 3.79395 0.522461Q3.83789 0.253906 4.14062-0.0195312L15.6152-10.8203L14.6387-11.7871L3.04688-0.898438Q2.30469-0.214844 2.25098 0.498047Q2.19727 1.21094 2.8418 1.86523ZM9.25781-16.3281Q8.94531-16.0254 8.90625-15.6348Q8.86719-15.2441 9.04297-14.9512Q9.21875-14.6777 9.55566-14.541Q9.89258-14.4043 10.3809-14.5215Q11.4746-14.7754 12.5977-14.7314Q13.7207-14.6875 14.7949-13.9844L14.209-12.5293Q13.9551-11.9043 14.0674-11.4404Q14.1797-10.9766 14.5801-10.5664L16.875-8.25195Q17.2363-7.88086 17.5781-7.82227Q17.9199-7.76367 18.3398-7.8418L19.4043-8.03711L20.0684-7.36328L20.0293-6.80664Q20-6.43555 20.1221-6.12305Q20.2441-5.81055 20.6055-5.44922L21.3672-4.70703Q21.7285-4.3457 22.1533-4.33105Q22.5781-4.31641 22.9297-4.66797L25.8398-7.58789Q26.1914-7.93945 26.1816-8.35449Q26.1719-8.76953 25.8105-9.13086L25.0391-9.89258Q24.6875-10.2539 24.3799-10.3857Q24.0723-10.5176 23.7109-10.4883L23.1348-10.4395L22.4902-11.0742L22.7344-12.1973Q22.832-12.6172 22.6953-12.9834Q22.5586-13.3496 22.1191-13.7891L19.9219-15.9766Q18.6719-17.2168 17.2607-17.8369Q15.8496-18.457 14.4189-18.4814Q12.9883-18.5059 11.665-17.959Q10.3418-17.4121 9.25781-16.3281ZM10.752-15.957Q11.6602-16.6211 12.7002-16.9043Q13.7402-17.1875 14.8047-17.085Q15.8691-16.9824 16.8701-16.5137Q17.8711-16.0449 18.7012-15.2051L21.1328-12.793Q21.3086-12.6172 21.3525-12.4512Q21.3965-12.2852 21.3379-12.0312L21.0156-10.5469L22.5195-9.0625L23.5059-9.12109Q23.6914-9.13086 23.7891-9.09668Q23.8867-9.0625 24.0332-8.91602L24.6094-8.33984L22.168-5.89844L21.5918-6.47461Q21.4453-6.62109 21.4062-6.71875Q21.3672-6.81641 21.377-7.01172L21.4453-7.98828L19.9512-9.47266L18.4277-9.21875Q18.1836-9.16992 18.042-9.2041Q17.9004-9.23828 17.7148-9.41406L15.7129-11.416Q15.5176-11.5918 15.4932-11.7529Q15.4688-11.9141 15.5859-12.1875L16.4648-14.2773Q15.293-15.3711 13.8281-15.791Q12.3633-16.2109 10.8398-15.7617Q10.7227-15.7324 10.6885-15.8057Q10.6543-15.8789 10.752-15.957Z"/>
  </g>
  <text style="stroke:none;fill:black;font-family:sans-serif;font-size:13;font-weight:bold;" transform="matrix(1 0 0 1 1289 1953)">Exporting</text>
  <text style="stroke:none;fill:black;font-family:sans-serif;font-size:13;" transform="matrix(1 0 0 1 1289 1971)">Symbols should be outlined when exporting to ensure the</text>
  <text style="stroke:none;fill:black;font-family:sans-serif;font-size:13;" transform="matrix(1 0 0 1 1289 1989)">design is preserved when submitting to Xcode.</text>
  <text id="template-version" style="stroke:none;fill:black;font-family:sans-serif;font-size:13;text-anchor:end;" transform="matrix(1 0 0 1 3036 1933)">Template v.3.0</text>
  <text style="stroke:none;fill:black;font-family:sans-serif;font-size:13;text-anchor:end;" transform="matrix(1 0 0 1 3036 1951)">Requires Xcode 13 or greater</text>
  <text id="descriptive-name" style="stroke:none;fill:black;font-family:sans-serif;font-size:13;text-anchor:end;" transform="matrix(1 0 0 1 3036 1969)">Generated from doc.append.fill</text>
  <text style="stroke:none;fill:black;font-family:sans-serif;font-size:13;text-anchor:end;" transform="matrix(1 0 0 1 3036 1987)">Typeset at 100 points</text>
  <text style="stroke:none;fill:black;font-family:sans-serif;font-size:13;" transform="matrix(1 0 0 1 263 726)">Small</text>
  <text style="stroke:none;fill:black;font-family:sans-serif;font-size:13;" transform="matrix(1 0 0 1 263 1156)">Medium</text>
  <text style="stroke:none;fill:black;font-family:sans-serif;font-size:13;" transform="matrix(1 0 0 1 263 1586)">Large</text>
 </g>
 <g id="Guides">
  <g id="H-reference" style="fill:#27AAE1;stroke:none;" transform="matrix(1 0 0 1 339 696)">
   <path d="M0.993347 0L3.6377 0L29.3282-67.1326L30.0301-67.1326L30.0301-70.459L28.1227-70.459ZM11.6882-24.4797L46.9818-24.4797L46.2311-26.7288L12.4382-26.7288ZM55.1193 0L57.7637 0L30.6381-70.459L29.4327-70.459L29.4327-67.1326Z"/>
  </g>
  <line id="Baseline-S" style="fill:none;stroke:#27AAE1;opacity:1;stroke-width:0.5;" x1="263" x2="3036" y1="696" y2="696"/>
  <line id="Capline-S" style="fill:none;stroke:#27AAE1;opacity:1;stroke-width:0.5;" x1="263" x2="3036" y1="625.541" y2="625.541"/>
  <g id="H-reference" style="fill:#27AAE1;stroke:none;" transform="matrix(1 0 0 1 339 1126)">
   <path d="M0.993347 0L3.6377 0L29.3282-67.1326L30.0301-67.1326L30.0301-70.459L28.1227-70.459ZM11.6882-24.4797L46.9818-24.4797L46.2311-26.7288L12.4382-26.7288ZM55.1193 0L57.7637 0L30.6381-70.459L29.4327-70.459L29.4327-67.1326Z"/>
  </g>
  <line id="Baseline-M" style="fill:none;stroke:#27AAE1;opacity:1;stroke-width:0.5;" x1="263" x2="3036" y1="1126" y2="1126"/>
  <line id="Capline-M" style="fill:none;stroke:#27AAE1;opacity:1;stroke-width:0.5;" x1="263" x2="3036" y1="1055.54" y2="1055.54"/>
  <g id="H-reference" style="fill:#27AAE1;stroke:none;" transform="matrix(1 0 0 1 339 1556)">
   <path d="M0.993347 0L3.6377 0L29.3282-67.1326L30.0301-67.1326L30.0301-70.459L28.1227-70.459ZM11.6882-24.4797L46.9818-24.4797L46.2311-26.7288L12.4382-26.7288ZM55.1193 0L57.7637 0L30.6381-70.459L29.4327-70.459L29.4327-67.1326Z"/>
  </g>
  <line id="Baseline-L" style="fill:none;stroke:#27AAE1;opacity:1;stroke-width:0.5;" x1="263" x2="3036" y1="1556" y2="1556"/>
  <line id="Capline-L" style="fill:none;stroke:#27AAE1;opacity:1;stroke-width:0.5;" x1="263" x2="3036" y1="1485.54" y2="1485.54"/>
  <line id="left-margin-Regular-M" style="fill:none;stroke:#00AEEF;stroke-width:0.5;opacity:1.0;" x1="1396.32" x2="1396.32" y1="1030.79" y2="1150.12"/>
  <line id="right-margin-Regular-M" style="fill:none;stroke:#00AEEF;stroke-width:0.5;opacity:1.0;" x1="1503.37" x2="1503.37" y1="1030.79" y2="1150.12"/>
 </g>
 <g id="Symbols">
  <g id="Black-L" transform="matrix(1 0 0 1 2859.72 1556)">
   <path d="M57.6865-42.1926Q52.1447-42.1926 48.3434-46.0824Q44.542-49.9722 44.542-56.95Q44.542-60.5861 45.6777-63.9342Q46.8134-67.2822 49.3504-69.8657Q51.9483-72.5088 55.1191-74.0254Q58.2899-75.5419 61.2302-75.5419Q63.891-75.5419 63.891-73.3017Q63.891-72.0662 63.2104-71.486Q62.5298-70.9058 61.3574-70.6617Q59.1805-70.296 57.4329-69.4584Q55.6853-68.6208 54.3247-67.443Q51.6776-65.0633 51.1403-62.419L52.4394-62.419Q53.7017-63.8862 55.4569-64.627Q57.2121-65.3677 59.5335-65.3677Q63.9839-65.3677 66.9404-62.2714Q69.8969-59.175 69.8969-54.1081Q69.8969-48.7511 66.4314-45.4719Q62.9659-42.1926 57.6865-42.1926ZM90.7138-42.1926Q85.1512-42.1926 81.3206-46.0928Q77.4901-49.9931 77.4901-56.9709Q77.4901-60.6057 78.6836-63.9544Q79.877-67.3031 82.3777-69.8865Q84.7379-72.3931 87.9587-73.978Q91.1795-75.5628 94.2355-75.5628Q96.8974-75.5628 96.8974-73.3225Q96.8974-72.2038 96.3039-71.5542Q95.7103-70.9046 94.3626-70.6825Q92.3622-70.3168 90.6814-69.5085Q89.0006-68.7001 87.6763-67.5974Q84.7997-65.2761 84.1467-62.4399L85.4459-62.4399Q86.707-63.907 88.4628-64.6478Q90.2186-65.3885 92.5388-65.3885Q96.9891-65.3885 99.917-62.2812Q102.845-59.1738 102.845-54.1289Q102.845-48.7719 99.4087-45.4823Q95.9724-42.1926 90.7138-42.1926ZM50.4148-18.9968Q48.2703-18.9968 46.9183-20.3878Q45.5664-21.7788 45.5664-23.8649Q45.5664-25.851 46.9183-27.1732Q48.2703-28.4954 50.4148-28.4954L97.0889-28.4954Q99.1167-28.4954 100.469-27.1732Q101.821-25.851 101.821-23.8649Q101.821-21.7788 100.469-20.3878Q99.1167-18.9968 97.0889-18.9968ZM50.4148 0.489893Q48.2703 0.489893 46.9183-0.861459Q45.5664-2.21281 45.5664-4.14053Q45.5664-6.20586 46.9183-7.59683Q48.2703-8.9878 50.4148-8.9878L76.6172-8.9878Q78.6461-8.9878 80.0273-7.59683Q81.4084-6.20586 81.4084-4.14053Q81.4084-2.21281 80.0273-0.861459Q78.6461 0.489893 76.6172 0.489893ZM16.084 11.4202Q16.084 22.7878 22.2652 28.9898Q28.4464 35.1919 39.7724 35.1919L107.573 35.1919Q118.9 35.1919 125.091 28.9898Q131.282 22.7878 131.282 11.4202L131.282-81.838Q131.282-93.1848 125.091-99.3972Q118.9-105.61 107.573-105.61L39.7724-105.61Q28.4464-105.61 22.2652-99.3972Q16.084-93.1848 16.084-81.838Z"/>
  </g>
  <g id="Heavy-L" transform="matrix(1 0 0 1 2564.15 1556)">
   <path d="M56.3912-41.4085Q50.7816-41.4085 46.9072-45.3672Q43.0328-49.326 43.0328-56.4504Q43.0328-60.1771 44.2181-63.5913Q45.4034-67.0055 47.968-69.6529Q50.5885-72.3506 53.8459-73.9196Q57.1032-75.4885 60.0756-75.4885Q62.7214-75.4885 62.7214-73.2639Q62.7214-72.0824 62.0518-71.5061Q61.3822-70.9298 60.0919-70.6482Q57.9216-70.255 56.1527-69.4088Q54.3839-68.5626 52.9796-67.355Q50.1417-64.8401 49.537-61.9481L50.8146-61.9481Q52.1486-63.5145 53.9803-64.2843Q55.8119-65.0541 58.1879-65.0541Q62.7927-65.0541 65.7936-61.8962Q68.7945-58.7383 68.7945-53.5484Q68.7945-48.1175 65.2882-44.763Q61.7819-41.4085 56.3912-41.4085ZM89.7432-41.4085Q84.1033-41.4085 80.2066-45.3824Q76.3098-49.3562 76.3098-56.4807Q76.3098-60.2016 77.537-63.6186Q78.7641-67.0357 81.3199-69.6831Q83.716-72.2669 87.0259-73.8928Q90.3358-75.5188 93.3917-75.5188Q96.0431-75.5188 96.0431-73.294Q96.0431-72.2018 95.4377-71.563Q94.8323-70.9242 93.408-70.6784Q91.3772-70.2851 89.6451-69.4613Q87.913-68.6375 86.5175-67.4587Q83.547-64.9883 82.8588-61.9783L84.1363-61.9783Q85.4648-63.5448 87.2992-64.3145Q89.1337-65.0842 91.5041-65.0842Q96.1088-65.0842 99.0902-61.9085Q102.072-58.7327 102.072-53.5786Q102.072-48.1478 98.5877-44.7781Q95.1037-41.4085 89.7432-41.4085ZM48.7786-18.7451Q46.7598-18.7451 45.4774-20.0622Q44.1949-21.3792 44.1949-23.3533Q44.1949-25.2224 45.4774-26.4798Q46.7598-27.7371 48.7786-27.7371L96.4151-27.7371Q98.3446-27.7371 99.6271-26.4798Q100.909-25.2224 100.909-23.3533Q100.909-21.3792 99.6271-20.0622Q98.3446-18.7451 96.4151-18.7451ZM48.7786 1.33323Q46.7598 1.33323 45.4774 0.0536303Q44.1949-1.22597 44.1949-3.05052Q44.1949-4.99445 45.4774-6.31147Q46.7598-7.6285 48.7786-7.6285L74.5361-7.6285Q76.4713-7.6285 77.7761-6.31147Q79.0808-4.99445 79.0808-3.05052Q79.0808-1.22597 77.7761 0.0536303Q76.4713 1.33323 74.5361 1.33323ZM16.084 11.7397Q16.084 22.7128 21.941 28.6Q27.7979 34.4872 38.7107 34.4872L106.333 34.4872Q117.252 34.4872 123.121 28.6Q128.99 22.7128 128.99 11.7397L128.99-82.1674Q128.99-93.1104 123.121-99.0126Q117.252-104.915 106.333-104.915L38.7107-104.915Q27.7979-104.915 21.941-99.0126Q16.084-93.1104 16.084-82.1674Z"/>
  </g>
  <g id="Bold-L" transform="matrix(1 0 0 1 2268.83 1556)">
   <path d="M54.8672-40.5073Q49.1656-40.5073 45.2028-44.5431Q41.24-48.5789 41.24-55.8728Q41.24-59.7222 42.4943-63.2171Q43.7485-66.7119 46.344-69.4363Q48.9951-72.2032 52.36-73.8374Q55.7249-75.4716 58.7358-75.4716Q61.314-75.4716 61.314-73.3072Q61.314-72.2023 60.6634-71.641Q60.0128-71.0798 58.6361-70.767Q56.4436-70.3429 54.6256-69.4777Q52.8076-68.6126 51.3197-67.3369Q48.2362-64.6305 47.5321-61.3864L48.7642-61.3864Q50.2052-63.0907 52.1478-63.9063Q54.0903-64.722 56.5353-64.722Q61.3398-64.722 64.4131-61.4873Q67.4864-58.2526 67.4864-52.9089Q67.4864-47.4008 63.9264-43.954Q60.3665-40.5073 54.8672-40.5073ZM88.537-40.5073Q82.7973-40.5073 78.8198-44.5621Q74.8423-48.617 74.8423-55.9109Q74.8423-59.7467 76.1192-63.2484Q77.3961-66.75 80.0135-69.4744Q82.4632-72.1579 85.8807-73.8338Q89.2982-75.5097 92.3542-75.5097Q94.9454-75.5097 94.9454-73.3451Q94.9454-72.2986 94.3322-71.6825Q93.719-71.0664 92.2545-70.8049Q90.1629-70.3807 88.3506-69.5303Q86.5383-68.6799 85.0286-67.3864Q81.9129-64.7093 81.1638-61.4246L82.3957-61.4246Q83.8236-63.1288 85.7728-63.9443Q87.722-64.7598 90.1539-64.7598Q94.9581-64.7598 98.0235-61.4996Q101.089-58.2393 101.089-52.947Q101.089-47.4389 97.5435-43.9731Q93.9982-40.5073 88.537-40.5073ZM46.7501-18.5867Q44.9148-18.5867 43.7356-19.7929Q42.5564-20.9991 42.5564-22.8052Q42.5564-24.5058 43.7356-25.6639Q44.9148-26.8219 46.7501-26.8219L95.6372-26.8219Q97.4141-26.8219 98.5933-25.6639Q99.7725-24.5058 99.7725-22.8052Q99.7725-20.9991 98.5933-19.7929Q97.4141-18.5867 95.6372-18.5867ZM46.7501 2.16954Q44.9148 2.16954 43.7356 0.996995Q42.5564-0.175551 42.5564-1.84724Q42.5564-3.61521 43.7356-4.82141Q44.9148-6.02761 46.7501-6.02761L72.1333-6.02761Q73.9235-6.02761 75.1173-4.82141Q76.3111-3.61521 76.3111-1.84724Q76.3111-0.175551 75.1173 0.996995Q73.9235 2.16954 72.1333 2.16954ZM16.084 12.1988Q16.084 22.6504 21.5488 28.1532Q27.0136 33.656 37.3893 33.656L104.864 33.656Q115.253 33.656 120.73 28.1532Q126.207 22.6504 126.207 12.1988L126.207-82.6269Q126.207-93.0406 120.73-98.5624Q115.253-104.084 104.864-104.084L37.3893-104.084Q27.0136-104.084 21.5488-98.5624Q16.084-93.0406 16.084-82.6269Z"/>
  </g>
  <g id="Semibold-L" transform="matrix(1 0 0 1 1973.08 1556)">
   <path d="M53.8166-39.886Q48.0516-39.886 44.0279-43.9749Q40.0042-48.0639 40.0042-55.4746Q40.0042-59.4086 41.3059-62.9591Q42.6076-66.5096 45.2243-69.2869Q47.8966-72.1015 51.3357-73.7807Q54.7748-75.4599 57.8122-75.4599Q60.3437-75.4599 60.3437-73.3371Q60.3437-72.2849 59.7062-71.734Q59.0688-71.1832 57.6325-70.8488Q55.4248-70.4035 53.5729-69.5252Q51.721-68.647 50.1753-67.3244Q46.9226-64.4861 46.1499-60.9993L47.3507-60.9993Q48.8654-62.7985 50.8845-63.6458Q52.9035-64.493 55.3961-64.493Q60.3382-64.493 63.4614-61.2054Q66.5846-57.9177 66.5846-52.468Q66.5846-46.9066 62.9876-43.3963Q59.3906-39.886 53.8166-39.886ZM87.7054-39.886Q81.897-39.886 77.8638-43.9967Q73.8306-48.1074 73.8306-55.5181Q73.8306-59.4332 75.1418-62.9931Q76.4529-66.5531 79.1129-69.3305Q81.5994-72.0827 85.0912-73.793Q88.5829-75.5034 91.6389-75.5034Q94.1887-75.5034 94.1887-73.3803Q94.1887-72.3653 93.5701-71.7649Q92.9515-71.1645 91.4592-70.892Q89.3258-70.4467 87.4583-69.5779Q85.5907-68.7091 84.0021-67.3366Q80.7864-64.5169 79.9953-61.0428L81.1957-61.0428Q82.6921-62.8421 84.7205-63.6891Q86.7488-64.5362 89.2231-64.5362Q94.1649-64.5362 97.2881-61.2177Q100.411-57.8991 100.411-52.5116Q100.411-46.9501 96.8237-43.418Q93.236-39.886 87.7054-39.886ZM45.3517-18.4775Q43.6429-18.4775 42.5349-19.6073Q41.4268-20.7371 41.4268-22.4273Q41.4268-24.0118 42.5349-25.1014Q43.6429-26.1911 45.3517-26.1911L95.1009-26.1911Q96.7725-26.1911 97.8806-25.1014Q98.9887-24.0118 98.9887-22.4273Q98.9887-20.7371 97.8806-19.6073Q96.7725-18.4775 95.1009-18.4775ZM45.3517 2.74609Q43.6429 2.74609 42.5349 1.64734Q41.4268 0.548598 41.4268-1.01771Q41.4268-2.66437 42.5349-3.79417Q43.6429-4.92396 45.3517-4.92396L70.4767-4.92396Q72.167-4.92396 73.2843-3.79417Q74.4017-2.66437 74.4017-1.01771Q74.4017 0.548598 73.2843 1.64734Q72.167 2.74609 70.4767 2.74609ZM16.084 12.5153Q16.084 22.6074 21.2785 27.8452Q26.4729 33.0831 36.4783 33.0831L103.85 33.0831Q113.874 33.0831 119.081 27.8452Q124.288 22.6074 124.288 12.5153L124.288-82.9436Q124.288-92.9925 119.081-98.252Q113.874-103.511 103.85-103.511L36.4783-103.511Q26.4729-103.511 21.2785-98.252Q16.084-92.9925 16.084-82.9436Z"/>
  </g>
  <g id="Medium-L" transform="matrix(1 0 0 1 1677.1 1556)">
   <path d="M53.02-39.4149Q47.2069-39.4149 43.137-43.5441Q39.0671-47.6734 39.0671-55.1727Q39.0671-59.1708 40.4048-62.7635Q41.7426-66.3561 44.3754-69.1737Q47.0637-72.0244 50.559-73.7377Q54.0543-75.4511 57.1119-75.4511Q59.608-75.4511 59.608-73.3598Q59.608-72.3476 58.9805-71.8046Q58.3529-71.2615 56.8716-70.9109Q54.6522-70.4494 52.7746-69.5613Q50.897-68.6731 49.3077-67.3149Q45.9265-64.3766 45.1019-60.7057L46.2789-60.7057Q47.8496-62.577 49.9266-63.4482Q52.0036-64.3194 54.5322-64.3194Q59.5787-64.3194 62.7397-60.9916Q65.9008-57.6638 65.9008-52.1338Q65.9008-46.5319 62.2758-42.9734Q58.6507-39.4149 53.02-39.4149ZM87.0749-39.4149Q81.2143-39.4149 77.1389-43.5679Q73.0635-47.721 73.0635-55.2203Q73.0635-59.1954 74.4006-62.7996Q75.7378-66.4038 78.43-69.2213Q80.9446-72.0256 84.4926-73.7622Q88.0406-75.4987 91.0966-75.4987Q93.6149-75.4987 93.6149-73.407Q93.6149-72.4159 92.9922-71.8274Q92.3695-71.2389 90.8562-70.9582Q88.6911-70.4967 86.7816-69.614Q84.8721-68.7313 83.2238-67.2988Q79.9322-64.371 79.1092-60.7533L80.2858-60.7533Q81.8342-62.6246 83.9226-63.4957Q86.0109-64.3667 88.5173-64.3667Q93.5634-64.3667 96.7305-61.0039Q99.8976-57.6412 99.8976-52.1814Q99.8976-46.5796 96.2778-42.9972Q92.6581-39.4149 87.0749-39.4149ZM44.2914-18.3947Q42.6785-18.3947 41.6244-19.4665Q40.5703-20.5384 40.5703-22.1407Q40.5703-23.6372 41.6244-24.675Q42.6785-25.7127 44.2914-25.7127L94.6943-25.7127Q96.2861-25.7127 97.3402-24.675Q98.3943-23.6372 98.3943-22.1407Q98.3943-20.5384 97.3402-19.4665Q96.2861-18.3947 94.6943-18.3947ZM44.2914 3.18326Q42.6785 3.18326 41.6244 2.14047Q40.5703 1.09768 40.5703-0.388719Q40.5703-1.94341 41.6244-3.01527Q42.6785-4.08714 44.2914-4.08714L69.2207-4.08714Q70.8351-4.08714 71.8945-3.01527Q72.9539-1.94341 72.9539-0.388719Q72.9539 1.09768 71.8945 2.14047Q70.8351 3.18326 69.2207 3.18326ZM16.084 12.7553Q16.084 22.5747 21.0735 27.6117Q26.063 32.6486 35.7875 32.6486L103.082 32.6486Q112.829 32.6486 117.831 27.6117Q122.833 22.5747 122.833 12.7553L122.833-83.1838Q122.833-92.956 117.831-98.0166Q112.829-103.077 103.082-103.077L35.7875-103.077Q26.063-103.077 21.0735-98.0166Q16.084-92.956 16.084-83.1838Z"/>
  </g>
  <g id="Regular-L" transform="matrix(1 0 0 1 1381.33 1556)">
   <path d="M51.9809-38.8004Q46.1052-38.8004 41.975-42.9822Q37.8448-47.164 37.8448-54.7788Q37.8448-58.8606 39.2295-62.5083Q40.6142-66.156 43.2681-69.026Q45.9773-71.9239 49.5459-73.6817Q53.1146-75.4395 56.1984-75.4395Q58.6484-75.4395 58.6484-73.3893Q58.6484-72.4293 58.0338-71.8966Q57.4193-71.3638 55.879-70.9919Q53.6446-70.5093 51.7334-69.6083Q49.8223-68.7072 48.1759-67.3025Q44.6273-64.2337 43.7349-60.3227L44.8809-60.3227Q46.5245-62.288 48.6771-63.1905Q50.8298-64.093 53.4055-64.093Q58.588-64.093 61.7985-60.7128Q65.0089-57.3326 65.0089-51.6977Q65.0089-46.0432 61.3473-42.4218Q57.6856-38.8004 51.9809-38.8004ZM86.2525-38.8004Q80.3238-38.8004 76.1934-43.0087Q72.0629-47.2171 72.0629-54.8318Q72.0629-58.8853 73.434-62.5471Q74.805-66.209 77.5393-69.079Q80.0903-71.9513 83.7118-73.7219Q87.3332-75.4925 90.3891-75.4925Q92.8665-75.4925 92.8665-73.4419Q92.8665-72.4819 92.2385-71.9089Q91.6105-71.3359 90.0697-71.0444Q87.8632-70.5619 85.899-69.661Q83.9349-68.7602 82.2086-67.2495Q78.8181-64.1807 77.9535-60.3758L79.099-60.3758Q80.7152-62.341 82.8818-63.2433Q85.0484-64.1455 87.5967-64.1455Q92.7788-64.1455 96.0032-60.7251Q99.2275-57.3048 99.2275-51.7507Q99.2275-46.0962 95.5659-42.4483Q91.9043-38.8004 86.2525-38.8004ZM42.9083-18.2866Q41.4206-18.2866 40.4369-19.2829Q39.4532-20.2792 39.4532-21.767Q39.4532-23.1487 40.4369-24.1187Q41.4206-25.0887 42.9083-25.0887L94.1639-25.0887Q95.6516-25.0887 96.6354-24.1187Q97.6191-23.1487 97.6191-21.767Q97.6191-20.2792 96.6354-19.2829Q95.6516-18.2866 94.1639-18.2866ZM42.9083 3.75347Q41.4206 3.75347 40.4369 2.78367Q39.4532 1.81387 39.4532 0.431697Q39.4532-1.00301 40.4369-1.99932Q41.4206-2.99562 42.9083-2.99562L67.5823-2.99562Q69.0979-2.99562 70.0817-1.99932Q71.0654-1.00301 71.0654 0.431697Q71.0654 1.81387 70.0817 2.78367Q69.0979 3.75347 67.5823 3.75347ZM16.084 13.0683Q16.084 22.5321 20.8061 27.307Q25.5282 32.0819 34.8865 32.0819L102.08 32.0819Q111.466 32.0819 116.201 27.307Q120.935 22.5321 120.935 13.0683L120.935-83.4971Q120.935-92.9084 116.201-97.7096Q111.466-102.511 102.08-102.511L34.8865-102.511Q25.5282-102.511 20.8061-97.7096Q16.084-92.9084 16.084-83.4971Z"/>
  </g>
  <g id="Light-L" transform="matrix(1 0 0 1 1085.41 1556)">
   <path d="M51.4463-38.6285Q45.4562-38.6285 41.2783-42.8103Q37.1005-46.9922 37.1005-54.6451Q37.1005-58.8799 38.5807-62.5752Q40.0608-66.2705 42.7147-69.1786Q45.462-72.1339 49.1069-73.9393Q52.7519-75.7448 55.855-75.7448Q57.9423-75.7448 57.9423-74.0002Q57.9423-73.1546 57.3754-72.6982Q56.8084-72.2417 55.5927-71.9461Q53.1482-71.4636 51.0559-70.4957Q48.9636-69.5277 47.069-67.8752Q43.2915-64.5201 42.2272-60.0746L43.2205-60.0746Q45.0549-62.2306 47.3889-63.2287Q49.7229-64.2267 52.3557-64.2267Q57.7293-64.2267 61.1018-60.7893Q64.4744-57.3519 64.4744-51.6022Q64.4744-45.9858 60.7555-42.3072Q57.0366-38.6285 51.4463-38.6285ZM85.3938-38.6285Q79.3695-38.6285 75.1913-42.8274Q71.0131-47.0263 71.0131-54.6792Q71.0131-58.866 72.4701-62.5853Q73.927-66.3046 76.6613-69.2127Q79.3079-72.1802 82.9866-73.9795Q86.6653-75.7789 89.7212-75.7789Q91.8549-75.7789 91.8549-74.0335Q91.8549-73.1879 91.2652-72.6913Q90.6754-72.1946 89.4589-71.9794Q87.0616-71.4969 84.9351-70.5294Q82.8087-69.5618 80.8346-67.8411Q77.1577-64.486 76.1406-60.1086L77.1331-60.1086Q78.9212-62.2647 81.2787-63.2624Q83.6362-64.26 86.2227-64.26Q91.5956-64.26 94.9916-60.7824Q98.3877-57.3048 98.3877-51.6363Q98.3877-46.0199 94.6689-42.3242Q90.95-38.6285 85.3938-38.6285ZM41.4962-19.1646Q40.3137-19.1646 39.5113-19.9605Q38.7089-20.7564 38.7089-21.9388Q38.7089-23.0531 39.5113-23.8324Q40.3137-24.6116 41.4962-24.6116L93.9921-24.6116Q95.1745-24.6116 95.9769-23.8324Q96.7793-23.0531 96.7793-21.9388Q96.7793-20.7564 95.9769-19.9605Q95.1745-19.1646 93.9921-19.1646ZM41.4962 2.98999Q40.3137 2.98999 39.5113 2.21114Q38.7089 1.43229 38.7089 0.317223Q38.7089-0.831143 39.5113-1.62704Q40.3137-2.42293 41.4962-2.42293L67.0478-2.42293Q68.2774-2.42293 69.0798-1.62704Q69.8822-0.831143 69.8822 0.317223Q69.8822 1.43229 69.0798 2.21114Q68.2774 2.98999 67.0478 2.98999ZM16.084 13.7936Q16.084 22.6848 20.5962 27.2307Q25.1085 31.7767 33.9323 31.7767L101.489 31.7767Q110.359 31.7767 114.865 27.2307Q119.37 22.6848 119.37 13.7936L119.37-84.1461Q119.37-93.004 114.865-97.5666Q110.359-102.129 101.489-102.129L33.9323-102.129Q25.1085-102.129 20.5962-97.5666Q16.084-93.004 16.084-84.1461Z"/>
  </g>
  <g id="Thin-L" transform="matrix(1 0 0 1 789.73 1556)">
   <path d="M50.7394-38.4012Q44.5978-38.4012 40.357-42.583Q36.1162-46.7649 36.1162-54.4683Q36.1162-58.9053 37.7225-62.6636Q39.3288-66.4219 41.9827-69.3805Q44.7804-72.4117 48.5263-74.2801Q52.2722-76.1485 55.4008-76.1485Q57.0085-76.1485 57.0085-74.8081Q57.0085-74.1139 56.5045-73.7584Q56.0005-73.4029 55.2139-73.2082Q52.4917-72.7257 50.1598-71.6693Q47.8278-70.613 45.605-68.6326Q41.5247-64.8988 40.2331-59.7463L41.0246-59.7463Q43.1113-62.1547 45.6851-63.2791Q48.2589-64.4035 50.9672-64.4035Q56.5936-64.4035 60.1805-60.8904Q63.7674-57.3773 63.7674-51.4758Q63.7674-45.9099 59.9728-42.1555Q56.1783-38.4012 50.7394-38.4012ZM84.2581-38.4012Q78.1074-38.4012 73.866-42.5876Q69.6246-46.7739 69.6246-54.4773Q69.6246-58.8406 71.1952-62.6358Q72.7659-66.4309 75.5001-69.3896Q78.2732-72.483 82.0275-74.3203Q85.7819-76.1576 88.8378-76.1576Q90.5169-76.1576 90.5169-74.8159Q90.5169-74.1218 89.9778-73.7261Q89.4388-73.3303 88.651-73.2161Q86.0013-72.7336 83.6603-71.6778Q81.3193-70.622 79.0173-68.6236Q74.9618-64.8897 73.7427-59.7554L74.533-59.7554Q76.5484-62.1638 79.1584-63.2876Q81.7685-64.4114 84.4055-64.4114Q90.0307-64.4114 93.6538-60.8581Q97.277-57.3048 97.277-51.4849Q97.277-45.919 93.4825-42.1601Q89.6879-38.4012 84.2581-38.4012ZM39.6285-20.3258Q38.8498-20.3258 38.2872-20.8566Q37.7246-21.3874 37.7246-22.1661Q37.7246-22.9267 38.2872-23.4536Q38.8498-23.9805 39.6285-23.9805L93.7647-23.9805Q94.5435-23.9805 95.106-23.4536Q95.6686-22.9267 95.6686-22.1661Q95.6686-21.3874 95.106-20.8566Q94.5435-20.3258 93.7647-20.3258ZM39.6285 1.98022Q38.8498 1.98022 38.2872 1.45392Q37.7246 0.927618 37.7246 0.165822Q37.7246-0.603829 38.2872-1.13466Q38.8498-1.6655 39.6285-1.6655L66.3408-1.6655Q67.1921-1.6655 67.7547-1.13466Q68.3173-0.603829 68.3173 0.165822Q68.3173 0.927618 67.7547 1.45392Q67.1921 1.98022 66.3408 1.98022ZM16.084 14.7529Q16.084 22.8866 20.3187 27.1298Q24.5534 31.3729 32.6702 31.3729L100.706 31.3729Q108.896 31.3729 113.098 27.1298Q117.3 22.8866 117.3 14.7529L117.3-85.0045Q117.3-93.1304 113.098-97.3774Q108.896-101.624 100.706-101.624L32.6702-101.624Q24.5534-101.624 20.3187-97.3774Q16.084-93.1304 16.084-85.0045Z"/>
  </g>
  <g id="Ultralight-L" transform="matrix(1 0 0 1 493.549 1556)">
   <path d="M50.3773-38.2848Q44.1581-38.2848 39.8851-42.4666Q35.612-46.6484 35.612-54.3777Q35.612-58.9183 37.283-62.7089Q38.9539-66.4994 41.6077-69.4839Q44.4314-72.554 48.229-74.4546Q52.0266-76.3553 55.1681-76.3553Q56.5301-76.3553 56.5301-75.2219Q56.5301-74.6053 56.0584-74.3015Q55.5867-73.9976 55.02-73.8547Q52.1554-73.3721 49.7008-72.2705Q47.2461-71.1688 44.8552-69.0206Q40.6198-65.0928 39.2117-59.5782L39.8998-59.5782Q42.1158-62.1158 44.8124-63.305Q47.5091-64.4941 50.256-64.4941Q56.0119-64.4941 59.7086-60.9422Q63.4053-57.3904 63.4053-51.4111Q63.4053-45.871 59.572-42.0779Q55.7386-38.2848 50.3773-38.2848ZM83.6764-38.2848Q77.461-38.2848 73.1872-42.4647Q68.9134-46.6447 68.9134-54.3739Q68.9134-58.8276 70.5423-62.6616Q72.1711-66.4957 74.9054-69.4801Q77.7431-72.6381 81.5363-74.4948Q85.3294-76.3515 88.3854-76.3515Q89.8315-76.3515 89.8315-75.2167Q89.8315-74.6001 89.3185-74.2561Q88.8054-73.9121 88.2372-73.8495Q85.4583-73.367 83.0074-72.266Q80.5565-71.1651 78.0865-69.0243Q73.837-65.0965 72.5146-59.5744L73.2012-59.5744Q75.333-62.1121 78.0725-63.3005Q80.8119-64.4889 83.4747-64.4889Q89.2291-64.4889 92.9686-60.8968Q96.7081-57.3048 96.7081-51.4073Q96.7081-45.8673 92.8748-42.076Q89.0415-38.2848 83.6764-38.2848ZM38.6718-20.9205Q38.0999-20.9205 37.6602-21.3156Q37.2204-21.7106 37.2204-22.2826Q37.2204-22.862 37.6602-23.2597Q38.0999-23.6573 38.6718-23.6573L93.6483-23.6573Q94.2202-23.6573 94.66-23.2597Q95.0997-22.862 95.0997-22.2826Q95.0997-21.7106 94.66-21.3156Q94.2202-20.9205 93.6483-20.9205ZM38.6718 1.46303Q38.0999 1.46303 37.6602 1.06608Q37.2204 0.669129 37.2204 0.0882752Q37.2204-0.4874 37.6602-0.882474Q38.0999-1.27755 38.6718-1.27755L65.9787-1.27755Q66.6363-1.27755 67.076-0.882474Q67.5158-0.4874 67.5158 0.0882752Q67.5158 0.669129 67.076 1.06608Q66.6363 1.46303 65.9787 1.46303ZM16.084 15.2443Q16.084 22.99 20.1765 27.0781Q24.269 31.1661 32.0237 31.1661L100.305 31.1661Q108.146 31.1661 112.193 27.0781Q116.24 22.99 116.24 15.2443L116.24-85.4441Q116.24-93.1951 112.193-97.2805Q108.146-101.366 100.305-101.366L32.0237-101.366Q24.269-101.366 20.1765-97.2805Q16.084-93.1951 16.084-85.4441Z"/>
  </g>
  <g id="Black-M" transform="matrix(1 0 0 1 2875.44 1126)">
   <path d="M45.733-41.2747Q41.4823-41.2747 38.5936-44.2291Q35.7049-47.1834 35.7049-52.4686Q35.7049-55.2285 36.555-57.772Q37.4051-60.3155 39.3469-62.2672Q41.3453-64.2757 43.7378-65.4121Q46.1303-66.5485 48.3834-66.5485Q50.4086-66.5485 50.4086-64.8409Q50.4086-63.8528 49.8783-63.4103Q49.348-62.9678 48.5849-62.8212Q46.8643-62.5616 45.5041-61.911Q44.1439-61.2604 43.0936-60.3399Q41.1758-58.5736 40.7941-56.6655L41.7985-56.6655Q42.7406-57.7427 44.0593-58.3046Q45.3781-58.8665 47.1374-58.8665Q50.4784-58.8665 52.7527-56.5127Q55.027-54.1589 55.027-50.3236Q55.027-46.242 52.3695-43.7583Q49.712-41.2747 45.733-41.2747ZM70.9976-41.2747Q66.7415-41.2747 63.8242-44.2318Q60.9069-47.1889 60.9069-52.474Q60.9069-55.2343 61.8143-57.7776Q62.7216-60.3209 64.6116-62.2727Q66.4222-64.1612 68.8487-65.3576Q71.2753-66.554 73.6428-66.554Q75.6677-66.554 75.6677-64.8464Q75.6677-63.9724 75.2232-63.4703Q74.7787-62.9681 73.8443-62.8267Q72.2948-62.5671 71.0147-61.945Q69.7347-61.323 68.7363-60.5057Q66.5494-58.7965 66.0533-56.671L67.0576-56.671Q68-57.7482 69.3186-58.3101Q70.6372-58.872 72.3968-58.872Q75.7378-58.872 77.9834-56.5156Q80.2291-54.1592 80.2291-50.3291Q80.2291-46.2475 77.6001-43.7611Q74.9711-41.2747 70.9976-41.2747ZM40.2734-22.9886Q38.5452-22.9886 37.4626-24.1027Q36.38-25.2167 36.38-26.8878Q36.38-28.4909 37.4626-29.5451Q38.5452-30.5993 40.2734-30.5993L75.7747-30.5993Q77.3887-30.5993 78.4713-29.5451Q79.5539-28.4909 79.5539-26.8878Q79.5539-25.2167 78.4713-24.1027Q77.3887-22.9886 75.7747-22.9886ZM40.2734-8.38441Q38.5452-8.38441 37.4626-9.46716Q36.38-10.5499 36.38-12.0959Q36.38-13.7615 37.4626-14.8755Q38.5452-15.9896 40.2734-15.9896L61.0746-15.9896Q62.6883-15.9896 63.7995-14.8755Q64.9106-13.7615 64.9106-12.0959Q64.9106-10.5499 63.7995-9.46716Q62.6883-8.38441 61.0746-8.38441ZM12.4609 0.735694Q12.4609 9.80402 17.5 14.8486Q22.5391 19.8932 31.5964 19.8932L84.3265 19.8932Q93.3835 19.8932 98.4255 14.8486Q103.467 9.80402 103.467 0.735694L103.467-71.1439Q103.467-80.2068 98.4255-85.2541Q93.3835-90.3014 84.3265-90.3014L31.5964-90.3014Q22.5391-90.3014 17.5-85.2541Q12.4609-80.2068 12.4609-71.1439Z"/>
  </g>
  <g id="Heavy-M" transform="matrix(1 0 0 1 2579.77 1126)">
   <path d="M44.516-40.5241Q40.2096-40.5241 37.2539-43.5458Q34.2981-46.5675 34.2981-51.9925Q34.2981-54.8269 35.1879-57.4306Q36.0778-60.0343 38.0466-62.0451Q40.0636-64.1017 42.5337-65.2849Q45.0037-66.4681 47.2864-66.4681Q49.3303-66.4681 49.3303-64.7476Q49.3303-63.8017 48.8064-63.356Q48.2825-62.9103 47.3742-62.72Q45.6794-62.4334 44.3152-61.7806Q42.9509-61.1278 41.8808-60.201Q39.7976-58.329 39.3659-56.228L40.3633-56.228Q41.358-57.3846 42.7347-57.9661Q44.1114-58.5476 45.9188-58.5476Q49.3931-58.5476 51.6959-56.1389Q53.9987-53.7303 53.9987-49.7853Q53.9987-45.6279 51.3066-43.076Q48.6144-40.5241 44.516-40.5241ZM70.128-40.5241Q65.8052-40.5241 62.8276-43.554Q59.85-46.584 59.85-52.0089Q59.85-54.841 60.7823-57.4459Q61.7147-60.0508 63.6585-62.0615Q65.4954-64.0167 68.0037-65.2506Q70.5121-66.4846 72.8796-66.4846Q74.9258-66.4846 74.9258-64.764Q74.9258-63.9053 74.4663-63.4066Q74.0067-62.908 72.9675-62.7364Q71.4058-62.4498 70.0906-61.8188Q68.7753-61.1878 67.7302-60.3155Q65.4781-58.487 64.9615-56.2444L65.9588-56.2444Q66.9512-57.4011 68.3291-57.9825Q69.7069-58.564 71.512-58.564Q74.9864-58.564 77.2685-56.146Q79.5506-53.728 79.5506-49.8017Q79.5506-45.6443 76.8803-43.0842Q74.21-40.5241 70.128-40.5241ZM38.8041-22.6616Q37.1707-22.6616 36.1393-23.7218Q35.108-24.7821 35.108-26.3719Q35.108-27.8852 36.1393-28.8936Q37.1707-29.9021 38.8041-29.9021L75.1318-29.9021Q76.678-29.9021 77.7094-28.8936Q78.7407-27.8852 78.7407-26.3719Q78.7407-24.7821 77.7094-23.7218Q76.678-22.6616 75.1318-22.6616ZM38.8041-7.48956Q37.1707-7.48956 36.1393-8.51978Q35.108-9.55 35.108-11.0197Q35.108-12.5931 36.1393-13.6534Q37.1707-14.7136 38.8041-14.7136L59.0896-14.7136Q60.638-14.7136 61.6912-13.6534Q62.7444-12.5931 62.7444-11.0197Q62.7444-9.55 61.6912-8.51978Q60.638-7.48956 59.0896-7.48956ZM12.4609 0.981088Q12.4609 9.71667 17.2024 14.4746Q21.9439 19.2324 30.6466 19.2324L83.1692 19.2324Q91.8743 19.2324 96.6228 14.4746Q101.371 9.71667 101.371 0.981088L101.371-71.406Q101.371-80.1252 96.6228-84.8913Q91.8743-89.6574 83.1692-89.6574L30.6466-89.6574Q21.9439-89.6574 17.2024-84.8913Q12.4609-80.1252 12.4609-71.406Z"/>
  </g>
  <g id="Bold-M" transform="matrix(1 0 0 1 2284.23 1126)">
   <path d="M43.1547-39.6843Q38.7859-39.6843 35.7552-42.7814Q32.7244-45.8785 32.7244-51.46Q32.7244-54.3775 33.6587-57.0487Q34.593-59.7199 36.592-61.7966Q38.6297-63.9071 41.1866-65.1426Q43.7435-66.3782 46.0592-66.3782Q48.1242-66.3782 48.1242-64.6432Q48.1242-63.7446 47.6074-63.2952Q47.0906-62.8459 46.0199-62.6068Q44.3539-62.29 42.9851-61.6347Q41.6163-60.9794 40.5241-60.0457Q38.2559-58.0553 37.7683-55.7386L38.7579-55.7386Q39.8113-56.9841 41.2528-57.5875Q42.6944-58.1908 44.5555-58.1908Q48.1792-58.1908 50.5138-55.7208Q52.8484-53.2508 52.8484-49.1831Q52.8484-44.941 50.1175-42.3127Q47.3866-39.6843 43.1547-39.6843ZM69.1552-39.6843Q64.7578-39.6843 61.7127-42.7958Q58.6677-45.9072 58.6677-51.4886Q58.6677-54.4009 59.628-57.0748Q60.5882-59.7486 62.5924-61.8253Q64.4587-63.8551 67.0585-65.131Q69.6583-66.4069 72.0259-66.4069Q74.0959-66.4069 74.0959-64.6717Q74.0959-63.8303 73.6195-63.3355Q73.143-62.8407 71.9866-62.6353Q70.4114-62.3186 69.0568-61.6776Q67.7021-61.0366 66.6048-60.1027Q64.2796-58.1409 63.7401-55.7673L64.7296-55.7673Q65.7779-57.0128 67.2221-57.6161Q68.6662-58.2194 70.5223-58.2194Q74.1458-58.2194 76.4688-55.7325Q78.7917-53.2457 78.7917-49.2118Q78.7917-44.9697 76.0751-42.327Q73.3585-39.6843 69.1552-39.6843ZM37.1605-22.2957Q35.6331-22.2957 34.6591-23.2958Q33.6851-24.2959 33.6851-25.7947Q33.6851-27.2077 34.6591-28.1649Q35.6331-29.1221 37.1605-29.1221L74.4127-29.1221Q75.883-29.1221 76.857-28.1649Q77.8311-27.2077 77.8311-25.7947Q77.8311-24.2959 76.857-23.2958Q75.883-22.2957 74.4127-22.2957ZM37.1605-6.48855Q35.6331-6.48855 34.6591-7.46Q33.6851-8.43145 33.6851-9.81595Q33.6851-11.2861 34.6591-12.2862Q35.6331-13.2862 37.1605-13.2862L56.869-13.2862Q58.3445-13.2862 59.3328-12.2862Q60.3211-11.2861 60.3211-9.81595Q60.3211-8.43145 59.3328-7.46Q58.3445-6.48855 56.869-6.48855ZM12.4609 1.2556Q12.4609 9.61896 16.8695 14.0561Q21.278 18.4933 29.5842 18.4933L81.8747 18.4933Q90.186 18.4933 94.6063 14.0561Q99.0265 9.61896 99.0265 1.2556L99.0265-71.6993Q99.0265-80.034 94.6063-84.4855Q90.186-88.937 81.8747-88.937L29.5842-88.937Q21.278-88.937 16.8695-84.4855Q12.4609-80.034 12.4609-71.6993Z"/>
  </g>
  <g id="Semibold-M" transform="matrix(1 0 0 1 1988.33 1126)">
   <path d="M42.2162-39.1054Q37.8044-39.1054 34.722-42.2545Q31.6396-45.4036 31.6396-51.0928Q31.6396-54.0678 32.6045-56.7854Q33.5694-59.5031 35.5892-61.6253Q37.6413-63.7729 40.258-65.0446Q42.8747-66.3162 45.2132-66.3162Q47.2926-66.3162 47.2926-64.5712Q47.2926-63.7052 46.7808-63.2534Q46.2689-62.8015 45.0863-62.5287Q43.4402-62.1912 42.0682-61.5342Q40.6963-60.8772 39.5889-59.9386Q37.193-57.8667 36.6669-55.4012L37.6511-55.4012Q38.745-56.708 40.2313-57.3264Q41.7175-57.9448 43.6158-57.9448Q47.3423-57.9448 49.6988-55.4326Q52.0553-52.9203 52.0553-48.7679Q52.0553-44.4675 49.2978-41.7864Q46.5402-39.1054 42.2162-39.1054ZM68.4846-39.1054Q64.0357-39.1054 60.9441-42.273Q57.8526-45.4407 57.8526-51.1299Q57.8526-54.0976 58.8321-56.8189Q59.8117-59.5402 61.8574-61.6625Q63.744-63.7436 66.4068-65.0485Q69.0697-66.3533 71.4373-66.3533Q73.5238-66.3533 73.5238-64.6082Q73.5238-63.7785 73.0357-63.2864Q72.5476-62.7943 71.3104-62.5657Q69.7259-62.2282 68.3441-61.5803Q66.9623-60.9324 65.829-59.956Q63.4534-57.9022 62.8982-55.4383L63.8822-55.4383Q64.9691-56.7451 66.459-57.3635Q67.9488-57.9818 69.84-57.9818Q73.5664-57.9818 75.9174-55.4475Q78.2685-52.9131 78.2685-48.805Q78.2685-44.5046 75.52-41.805Q72.7715-39.1054 68.4846-39.1054ZM36.0274-22.0435Q34.5731-22.0435 33.6386-23.0021Q32.7041-23.9607 32.7041-25.3968Q32.7041-26.7406 33.6386-27.6625Q34.5731-28.5844 36.0274-28.5844L73.9169-28.5844Q75.3349-28.5844 76.2694-27.6625Q77.2039-26.7406 77.2039-25.3968Q77.2039-23.9607 76.2694-23.0021Q75.3349-22.0435 73.9169-22.0435ZM36.0274-5.79845Q34.5731-5.79845 33.6386-6.7294Q32.7041-7.66034 32.7041-8.98606Q32.7041-10.3851 33.6386-11.3437Q34.5731-12.3022 36.0274-12.3022L55.3382-12.3022Q56.7633-12.3022 57.7069-11.3437Q58.6505-10.3851 58.6505-8.98606Q58.6505-7.66034 57.7069-6.7294Q56.7633-5.79845 55.3382-5.79845ZM12.4609 1.44484Q12.4609 9.55159 16.64 13.7677Q20.819 17.9838 28.8517 17.9838L80.9823 17.9838Q89.0221 17.9838 93.216 13.7677Q97.41 9.55159 97.41 1.44484L97.41-71.9014Q97.41-79.9712 93.216-84.2057Q89.0221-88.4403 80.9823-88.4403L28.8517-88.4403Q20.819-88.4403 16.64-84.2057Q12.4609-79.9712 12.4609-71.9014Z"/>
  </g>
  <g id="Medium-M" transform="matrix(1 0 0 1 1692.23 1126)">
   <path d="M41.5046-38.6665Q37.0602-38.6665 33.9386-41.8549Q30.817-45.0434 30.817-50.8145Q30.817-53.8329 31.8051-56.5858Q32.7933-59.3387 34.8288-61.4955Q36.8918-63.6712 39.5539-64.9702Q42.216-66.2692 44.5717-66.2692Q46.6621-66.2692 46.6621-64.5166Q46.6621-63.6754 46.154-63.2216Q45.6459-62.7678 44.3784-62.4695Q42.7473-62.1162 41.373-61.4579Q39.9987-60.7996 38.8797-59.8574Q36.3871-57.7237 35.8317-55.1454L36.8119-55.1454Q37.9365-56.4987 39.4567-57.1285Q40.9768-57.7583 42.9032-57.7583Q46.7077-57.7583 49.0809-55.214Q51.454-52.6697 51.454-48.4532Q51.454-44.1084 48.6762-41.3874Q45.8984-38.6665 41.5046-38.6665ZM67.976-38.6665Q63.4882-38.6665 60.3613-41.8767Q57.2345-45.0869 57.2345-50.858Q57.2345-53.8676 58.2287-56.6249Q59.2229-59.3822 61.3001-61.539Q63.2021-63.6591 65.9127-64.9859Q68.6234-66.3127 70.991-66.3127Q73.09-66.3127 73.09-64.56Q73.09-63.7393 72.5931-63.2492Q72.0962-62.7592 70.7977-62.5129Q69.2061-62.1596 67.8037-61.5065Q66.4013-60.8534 65.2407-59.8447Q62.827-57.7213 62.2597-55.1889L63.2397-55.1889Q64.3558-56.5422 65.8803-57.1719Q67.4048-57.8017 69.3226-57.8017Q73.127-57.8017 75.4994-55.2313Q77.8717-52.661 77.8717-48.4967Q77.8717-44.1519 75.0991-41.4092Q72.3264-38.6665 67.976-38.6665ZM35.1683-21.8523Q33.7694-21.8523 32.8649-22.7794Q31.9603-23.7065 31.9603-25.0951Q31.9603-26.3864 32.8649-27.2815Q33.7694-28.1767 35.1683-28.1767L73.541-28.1767Q74.9193-28.1767 75.8239-27.2815Q76.7284-26.3864 76.7284-25.0951Q76.7284-23.7065 75.8239-22.7794Q74.9193-21.8523 73.541-21.8523ZM35.1683-5.2752Q33.7694-5.2752 32.8649-6.17542Q31.9603-7.07565 31.9603-8.35681Q31.9603-9.70188 32.8649-10.629Q33.7694-11.5561 35.1683-11.5561L54.1775-11.5561Q55.5644-11.5561 56.4741-10.629Q57.3838-9.70188 57.3838-8.35681Q57.3838-7.07565 56.4741-6.17542Q55.5644-5.2752 54.1775-5.2752ZM12.4609 1.58833Q12.4609 9.50052 16.4659 13.549Q20.471 17.5974 28.2963 17.5974L80.3056 17.5974Q88.1396 17.5974 92.1619 13.549Q96.1843 9.50052 96.1843 1.58833L96.1843-72.0547Q96.1843-79.9235 92.1619-83.9936Q88.1396-88.0637 80.3056-88.0637L28.2963-88.0637Q20.471-88.0637 16.4659-83.9936Q12.4609-79.9235 12.4609-72.0547Z"/>
  </g>
  <g id="Regular-M" transform="matrix(1 0 0 1 1396.32 1126)">
   <path d="M40.5764-38.0939Q36.0894-38.0939 32.9167-41.3338Q29.744-44.5736 29.744-50.4514Q29.744-53.5266 30.7625-56.3254Q31.7809-59.1243 33.837-61.3261Q35.9142-63.5385 38.6354-64.8732Q41.3567-66.2079 43.7349-66.2079Q45.8397-66.2079 45.8397-64.4454Q45.8397-63.6364 45.3365-63.1802Q44.8332-62.7239 43.455-62.3923Q41.8436-62.0185 40.4662-61.3585Q39.0887-60.6985 37.9547-59.7515Q35.3359-57.5371 34.7425-54.8117L35.7173-54.8117Q36.8819-56.2256 38.4463-56.8703Q40.0107-57.515 41.9737-57.515Q45.88-57.515 48.2748-54.9289Q50.6697-52.3428 50.6697-48.0426Q50.6697-43.64 47.8655-40.867Q45.0613-38.0939 40.5764-38.0939ZM67.3128-38.0939Q62.774-38.0939 59.6012-41.3597Q56.4284-44.6255 56.4284-50.5032Q56.4284-53.5676 57.4416-56.3719Q58.4549-59.1762 60.5732-61.3779Q62.4952-63.5489 65.2682-64.9044Q68.0413-66.2598 70.4089-66.2598Q72.5241-66.2598 72.5241-64.4971Q72.5241-63.6881 72.0157-63.2007Q71.5073-62.7133 70.1289-62.444Q68.5281-62.0701 67.0989-61.4102Q65.6696-60.7503 64.4734-59.6996Q62.0098-57.4853 61.427-54.8636L62.4016-54.8636Q63.5558-56.2774 65.1256-56.9221Q66.6953-57.5667 68.6478-57.5667Q72.5539-57.5667 74.9541-54.9494Q77.3543-52.3321 77.3543-48.0944Q77.3543-43.6919 74.5501-40.8929Q71.7459-38.0939 67.3128-38.0939ZM34.0476-21.6028Q32.7211-21.6028 31.8556-22.4889Q30.9901-23.375 30.9901-24.7016Q30.9901-25.9244 31.8556-26.7847Q32.7211-27.6449 34.0476-27.6449L73.0507-27.6449Q74.3772-27.6449 75.2427-26.7847Q76.1082-25.9244 76.1082-24.7016Q76.1082-23.375 75.2427-22.4889Q74.3772-21.6028 73.0507-21.6028ZM34.0476-4.59269Q32.7211-4.59269 31.8556-5.45284Q30.9901-6.313 30.9901-7.53604Q30.9901-8.81074 31.8556-9.69683Q32.7211-10.5829 34.0476-10.5829L52.6635-10.5829Q54.0007-10.5829 54.8661-9.69683Q55.7316-8.81074 55.7316-7.53604Q55.7316-6.313 54.8661-5.45284Q54.0007-4.59269 52.6635-4.59269ZM12.4609 1.7755Q12.4609 9.43389 16.239 13.2637Q20.017 17.0934 27.5719 17.0934L79.4229 17.0934Q86.9885 17.0934 90.787 13.2637Q94.5855 9.43389 94.5855 1.7755L94.5855-72.2546Q94.5855-79.8613 90.787-83.7169Q86.9885-87.5725 79.4229-87.5725L27.5719-87.5725Q20.017-87.5725 16.239-83.7169Q12.4609-79.8613 12.4609-72.2546Z"/>
  </g>
  <g id="Light-M" transform="matrix(1 0 0 1 1100.31 1126)">
   <path d="M40.0971-37.9399Q35.5076-37.9399 32.2922-41.1797Q29.0768-44.4195 29.0768-50.3315Q29.0768-53.5438 30.1808-56.3854Q31.2847-59.227 33.3408-61.4629Q35.4522-63.7268 38.2419-65.1042Q41.0316-66.4816 43.4271-66.4816Q45.2067-66.4816 45.2067-64.9931Q45.2067-64.2867 44.7461-63.8989Q44.2855-63.5111 43.1983-63.2479Q41.3985-62.874 39.8587-62.1541Q38.3189-61.4341 36.9623-60.2649Q34.1382-57.7938 33.3907-54.5892L34.2287-54.5892Q35.5644-56.1741 37.2913-56.9045Q39.0183-57.6349 41.0325-57.6349Q45.1101-57.6349 47.6503-54.9975Q50.1905-52.36 50.1905-47.9569Q50.1905-43.5886 47.335-40.7642Q44.4795-37.9399 40.0971-37.9399ZM66.5429-37.9399Q61.9185-37.9399 58.7028-41.1971Q55.4872-44.4544 55.4872-50.3664Q55.4872-53.5503 56.5775-56.4061Q57.6677-59.2618 59.7861-61.4978Q61.7937-63.7542 64.6181-65.1353Q67.4425-66.5165 69.81-66.5165Q71.6171-66.5165 71.6171-65.0275Q71.6171-64.3211 71.143-63.9022Q70.669-63.4832 69.5812-63.2823Q67.8094-62.9084 66.2347-62.1887Q64.66-61.469 63.2415-60.23Q60.5212-57.759 59.8016-54.6241L60.6391-54.6241Q61.9474-56.209 63.6883-56.9392Q65.4292-57.6693 67.4159-57.6693Q71.4931-57.6693 74.0472-55.0007Q76.6014-52.3321 76.6014-47.9918Q76.6014-43.6235 73.7458-40.7817Q70.8903-37.9399 66.5429-37.9399ZM32.7815-22.39Q31.7287-22.39 31.0258-23.0964Q30.3229-23.8028 30.3229-24.8557Q30.3229-25.8387 31.0258-26.5279Q31.7287-27.2171 32.7815-27.2171L72.8966-27.2171Q73.9495-27.2171 74.6524-26.5279Q75.3553-25.8387 75.3553-24.8557Q75.3553-23.8028 74.6524-23.0964Q73.9495-22.39 72.8966-22.39ZM32.7815-5.27719Q31.7287-5.27719 31.0258-5.96615Q30.3229-6.65511 30.3229-7.63867Q30.3229-8.65665 31.0258-9.36306Q31.7287-10.0695 32.7815-10.0695L52.1842-10.0695Q53.265-10.0695 53.9679-9.36306Q54.6708-8.65665 54.6708-7.63867Q54.6708-6.65511 53.9679-5.96615Q53.265-5.27719 52.1842-5.27719ZM12.4609 2.42579Q12.4609 9.57073 16.0508 13.1952Q19.6407 16.8198 26.7163 16.8198L78.8925 16.8198Q85.9961 16.8198 89.5892 13.1952Q93.1823 9.57073 93.1823 2.42579L93.1823-72.8365Q93.1823-79.947 89.5892-83.5887Q85.9961-87.2304 78.8925-87.2304L26.7163-87.2304Q19.6407-87.2304 16.0508-83.5887Q12.4609-79.947 12.4609-72.8365Z"/>
  </g>
  <g id="Thin-M" transform="matrix(1 0 0 1 804.528 1126)">
   <path d="M39.4633-37.7361Q34.738-37.7361 31.4661-40.9759Q28.1943-44.2157 28.1943-50.1729Q28.1943-53.5666 29.4114-56.4647Q30.6285-59.3627 32.6845-61.6439Q34.8411-63.9758 37.7214-65.4097Q40.6016-66.8436 43.0198-66.8436Q44.3694-66.8436 44.3694-65.7174Q44.3694-65.1468 43.9653-64.8495Q43.5612-64.5521 42.8587-64.3794Q40.8099-64.0056 39.0553-63.2063Q37.3006-62.4071 35.6497-60.944Q32.5542-58.1334 31.6029-54.2949L32.2599-54.2949Q33.8218-56.1061 35.7638-56.9498Q37.7058-57.7935 39.7877-57.7935Q44.0918-57.7935 46.8243-55.0881Q49.5567-52.3828 49.5567-47.8436Q49.5567-43.5205 46.6333-40.6283Q43.7099-37.7361 39.4633-37.7361ZM65.5247-37.7361Q60.7869-37.7361 57.5146-40.9821Q54.2423-44.2282 54.2423-50.1854Q54.2423-53.5275 55.4345-56.4513Q56.6267-59.3751 58.745-61.6564Q60.866-64.0257 63.7582-65.4409Q66.6505-66.856 69.018-66.856Q70.4175-66.856 70.4175-65.729Q70.4175-65.1584 69.9889-64.8299Q69.5603-64.5014 68.8569-64.391Q66.8588-64.0172 65.0917-63.2184Q63.3246-62.4196 61.6123-60.9315Q58.5524-58.1209 57.6518-54.3074L58.3079-54.3074Q59.82-56.1185 61.7874-56.9618Q63.7547-57.8051 65.7867-57.8051Q70.09-57.8051 72.8478-55.0686Q75.6056-52.3321 75.6056-47.8561Q75.6056-43.533 72.6822-40.6345Q69.7588-37.7361 65.5247-37.7361ZM31.107-23.431Q30.4162-23.431 29.9283-23.8998Q29.4404-24.3686 29.4404-25.0595Q29.4404-25.7254 29.9283-26.1884Q30.4162-26.6514 31.107-26.6514L72.6928-26.6514Q73.3837-26.6514 73.8716-26.1884Q74.3595-25.7254 74.3595-25.0595Q74.3595-24.3686 73.8716-23.8998Q73.3837-23.431 72.6928-23.431ZM31.107-6.18249Q30.4162-6.18249 29.9283-6.64503Q29.4404-7.10757 29.4404-7.77441Q29.4404-8.45285 29.9283-8.92162Q30.4162-9.39038 31.107-9.39038L51.5504-9.39038Q52.292-9.39038 52.7799-8.92162Q53.2678-8.45285 53.2678-7.77441Q53.2678-7.10757 52.7799-6.64503Q52.292-6.18249 51.5504-6.18249ZM12.4609 3.28585Q12.4609 9.75172 15.8019 13.1048Q19.1429 16.4578 25.5848 16.4578L78.191 16.4578Q84.6835 16.4578 88.005 13.1048Q91.3265 9.75172 91.3265 3.28585L91.3265-73.606Q91.3265-80.0603 88.005-83.4191Q84.6835-86.778 78.191-86.778L25.5848-86.778Q19.1429-86.778 15.8019-83.4191Q12.4609-80.0603 12.4609-73.606Z"/>
  </g>
  <g id="Ultralight-M" transform="matrix(1 0 0 1 508.292 1126)">
   <path d="M39.1387-37.6317Q34.3438-37.6317 31.0431-40.8715Q27.7423-44.1114 27.7423-50.0917Q27.7423-53.5783 29.0173-56.5053Q30.2924-59.4322 32.3484-61.7366Q34.5282-64.1034 37.4547-65.5662Q40.3813-67.029 42.8113-67.029Q43.9406-67.029 43.9406-66.0884Q43.9406-65.5873 43.5654-65.3363Q43.1902-65.0853 42.6848-64.959Q40.5085-64.5851 38.6438-63.7453Q36.7791-62.9055 34.9775-61.2918Q31.7429-58.3073 30.6872-54.1442L31.2515-54.1442Q32.9293-56.0712 34.9814-56.9729Q37.0335-57.8747 39.15-57.8747Q43.5703-57.8747 46.4012-55.1346Q49.232-52.3945 49.232-47.7856Q49.232-43.4857 46.2739-40.5587Q43.3157-37.6317 39.1387-37.6317ZM65.0031-37.6317Q60.2073-37.6317 56.906-40.872Q53.6047-44.1123 53.6047-50.0927Q53.6047-53.5158 54.8491-56.4745Q56.0935-59.4332 58.2118-61.7376Q60.3908-64.1647 63.3178-65.5973Q66.2448-67.0299 68.6124-67.0299Q69.8031-67.0299 69.8031-66.0883Q69.8031-65.5872 69.3977-65.3051Q68.9924-65.023 68.4859-64.9589Q66.372-64.5851 64.5063-63.7457Q62.6407-62.9064 60.7778-61.2908Q57.544-58.3063 56.5507-54.1451L57.1139-54.1451Q58.7304-56.0722 60.8137-56.9734Q62.897-57.8746 64.9522-57.8746Q69.3714-57.8746 72.2335-55.1034Q75.0955-52.3321 75.0955-47.7865Q75.0955-43.4866 72.1374-40.5592Q69.1792-37.6317 65.0031-37.6317ZM30.2494-23.9642Q29.7439-23.9642 29.3661-24.3113Q28.9884-24.6583 28.9884-25.1638Q28.9884-25.6674 29.3661-26.0145Q29.7439-26.3616 30.2494-26.3616L72.5884-26.3616Q73.0939-26.3616 73.4717-26.0145Q73.8494-25.6674 73.8494-25.1638Q73.8494-24.6583 73.4717-24.3113Q73.0939-23.9642 72.5884-23.9642ZM30.2494-6.64619Q29.7439-6.64619 29.3661-6.99275Q28.9884-7.33932 28.9884-7.84394Q28.9884-8.34847 29.3661-8.69552Q29.7439-9.04257 30.2494-9.04257L51.2258-9.04257Q51.7936-9.04257 52.1714-8.69552Q52.5492-8.34847 52.5492-7.84394Q52.5492-7.33932 52.1714-6.99275Q51.7936-6.64619 51.2258-6.64619ZM12.4609 3.72637Q12.4609 9.84442 15.6745 13.0584Q18.888 16.2724 25.0052 16.2724L77.8317 16.2724Q84.0113 16.2724 87.1936 13.0584Q90.3759 9.84442 90.3759 3.72637L90.3759-74.0002Q90.3759-80.1183 87.1936-83.3323Q84.0113-86.5462 77.8317-86.5462L25.0052-86.5462Q18.888-86.5462 15.6745-83.3323Q12.4609-80.1183 12.4609-74.0002Z"/>
  </g>
  <g id="Black-S" transform="matrix(1 0 0 1 2887.7 696)">
   <path d="M36.1816-40.1855Q32.8613-40.1855 30.6152-42.4805Q28.3691-44.7754 28.3691-48.877Q28.3691-51.0254 29.0283-53.0029Q29.6875-54.9805 31.2012-56.4941Q32.7637-58.0566 34.6191-58.9355Q36.4746-59.8145 38.2324-59.8145Q39.7949-59.8145 39.7949-58.4961Q39.7949-57.7148 39.3799-57.373Q38.9648-57.0312 38.4277-56.9336Q37.0605-56.7383 35.9863-56.2256Q34.9121-55.7129 34.082-54.9805Q32.6172-53.6133 32.3242-52.1484L33.1055-52.1484Q33.8379-52.9785 34.8633-53.418Q35.8887-53.8574 37.2559-53.8574Q39.8438-53.8574 41.626-52.0264Q43.4082-50.1953 43.4082-47.2168Q43.4082-44.043 41.333-42.1143Q39.2578-40.1855 36.1816-40.1855ZM55.8594-40.1855Q52.5391-40.1855 50.2686-42.4805Q47.998-44.7754 47.998-48.877Q47.998-51.0254 48.7061-53.0029Q49.4141-54.9805 50.8789-56.4941Q52.2949-57.959 54.1748-58.8867Q56.0547-59.8145 57.9102-59.8145Q59.4727-59.8145 59.4727-58.4961Q59.4727-57.8125 59.1309-57.4219Q58.7891-57.0312 58.1055-56.9336Q56.8848-56.7383 55.8838-56.25Q54.8828-55.7617 54.1016-55.127Q52.3926-53.8086 52.002-52.1484L52.7832-52.1484Q53.5156-52.9785 54.541-53.418Q55.5664-53.8574 56.9336-53.8574Q59.5215-53.8574 61.2793-52.0264Q63.0371-50.1953 63.0371-47.2168Q63.0371-44.043 60.9863-42.1143Q58.9355-40.1855 55.8594-40.1855ZM31.9336-25.7812Q30.5664-25.7812 29.7119-26.6602Q28.8574-27.5391 28.8574-28.8574Q28.8574-30.127 29.7119-30.957Q30.5664-31.7871 31.9336-31.7871L59.5703-31.7871Q60.8398-31.7871 61.6943-30.957Q62.5488-30.127 62.5488-28.8574Q62.5488-27.5391 61.6943-26.6602Q60.8398-25.7812 59.5703-25.7812ZM31.9336-14.502Q30.5664-14.502 29.7119-15.3564Q28.8574-16.2109 28.8574-17.4316Q28.8574-18.75 29.7119-19.6289Q30.5664-20.5078 31.9336-20.5078L48.4375-20.5078Q49.707-20.5078 50.5859-19.6289Q51.4648-18.75 51.4648-17.4316Q51.4648-16.2109 50.5859-15.3564Q49.707-14.502 48.4375-14.502ZM9.76562-7.08008Q9.76562 0.0976562 13.7939 4.12598Q17.8223 8.1543 25 8.1543L66.4062 8.1543Q73.584 8.1543 77.6123 4.12598Q81.6406 0.0976562 81.6406-7.08008L81.6406-63.3301Q81.6406-70.5078 77.6123-74.5361Q73.584-78.5645 66.4062-78.5645L25-78.5645Q17.8223-78.5645 13.7939-74.5361Q9.76562-70.5078 9.76562-63.3301Z"/>
  </g>
  <g id="Heavy-S" transform="matrix(1 0 0 1 2591.79 696)">
   <path d="M35.2021-39.5632Q31.8472-39.5632 29.5492-41.9158Q27.2513-44.2683 27.2513-48.4851Q27.2513-50.6797 27.9335-52.7033Q28.6157-54.7269 30.1524-56.2867Q31.7265-57.8838 33.6396-58.7973Q35.5527-59.7107 37.3335-59.7107Q38.9536-59.7107 38.9536-58.3463Q38.9536-57.5881 38.5386-57.2348Q38.1236-56.8814 37.4251-56.7377Q36.104-56.5193 35.0471-56.0124Q33.9902-55.5055 33.1716-54.7961Q31.5915-53.3713 31.2755-51.8027L32.0683-51.8027Q32.8237-52.6789 33.8779-53.1241Q34.9321-53.5693 36.3339-53.5693Q39.014-53.5693 40.802-51.6979Q42.59-49.8265 42.59-46.7673Q42.59-43.5244 40.4917-41.5438Q38.3935-39.5632 35.2021-39.5632ZM55.214-39.5632Q51.8476-39.5632 49.531-41.9215Q47.2144-44.2798 47.2144-48.4966Q47.2144-50.6912 47.9339-52.7148Q48.6534-54.7385 50.1644-56.2982Q51.5919-57.8092 53.5352-58.7657Q55.4785-59.7223 57.3339-59.7223Q58.9541-59.7223 58.9541-58.3578Q58.9541-57.6742 58.595-57.2778Q58.2359-56.8814 57.4255-56.7492Q56.2163-56.5308 55.2038-56.0426Q54.1913-55.5543 53.3986-54.8965Q51.6665-53.509 51.2759-51.8142L52.0687-51.8142Q52.8242-52.6904 53.8784-53.1356Q54.9326-53.5808 56.3343-53.5808Q59.0144-53.5808 60.7837-51.7037Q62.5531-49.8265 62.5531-46.7789Q62.5531-43.5359 60.4735-41.5496Q58.3939-39.5632 55.214-39.5632ZM30.8388-25.4009Q29.5177-25.4009 28.6862-26.2568Q27.8548-27.1127 27.8548-28.3964Q27.8548-29.6199 28.6862-30.4327Q29.5177-31.2455 30.8388-31.2455L59.0402-31.2455Q60.2867-31.2455 61.1181-30.4327Q61.9496-29.6199 61.9496-28.3964Q61.9496-27.1127 61.1181-26.2568Q60.2867-25.4009 59.0402-25.4009ZM30.8388-13.6491Q29.5177-13.6491 28.6862-14.4806Q27.8548-15.312 27.8548-16.4982Q27.8548-17.7704 28.6862-18.6263Q29.5177-19.4821 30.8388-19.4821L46.801-19.4821Q48.0475-19.4821 48.8976-18.6263Q49.7477-17.7704 49.7477-16.4982Q49.7477-15.312 48.8976-14.4806Q48.0475-13.6491 46.801-13.6491ZM9.76562-6.95331Q9.76562 0.00546053 13.5635 3.81482Q17.3613 7.62417 24.297 7.62417L65.4843 7.62417Q72.42 7.62417 76.2236 3.81482Q80.0272 0.00546053 80.0272-6.95331L80.0272-63.4799Q80.0272-70.4271 76.2236-74.2423Q72.42-78.0574 65.4843-78.0574L24.297-78.0574Q17.3613-78.0574 13.5635-74.2423Q9.76562-70.4271 9.76562-63.4799Z"/>
  </g>
  <g id="Bold-S" transform="matrix(1 0 0 1 2295.98 696)">
   <path d="M34.1064-38.8672Q30.7129-38.8672 28.3569-41.2842Q26.001-43.7012 26.001-48.0469Q26.001-50.293 26.709-52.3682Q27.417-54.4434 28.9795-56.0547Q30.5664-57.6904 32.5439-58.6426Q34.5215-59.5947 36.3281-59.5947Q38.0127-59.5947 38.0127-58.1787Q38.0127-57.4463 37.5977-57.0801Q37.1826-56.7139 36.3037-56.5186Q35.0342-56.2744 33.9966-55.7739Q32.959-55.2734 32.1533-54.5898Q30.4443-53.1006 30.1025-51.416L30.9082-51.416Q31.6895-52.3438 32.7759-52.7954Q33.8623-53.2471 35.3027-53.2471Q38.0859-53.2471 39.8804-51.3306Q41.6748-49.4141 41.6748-46.2646Q41.6748-42.9443 39.5508-40.9058Q37.4268-38.8672 34.1064-38.8672ZM54.4922-38.8672Q51.0742-38.8672 48.7061-41.2964Q46.3379-43.7256 46.3379-48.0713Q46.3379-50.3174 47.0703-52.3926Q47.8027-54.4678 49.3652-56.0791Q50.8057-57.6416 52.8198-58.6304Q54.834-59.6191 56.6895-59.6191Q58.374-59.6191 58.374-58.2031Q58.374-57.5195 57.9956-57.1167Q57.6172-56.7139 56.665-56.543Q55.4688-56.2988 54.4434-55.8105Q53.418-55.3223 52.6123-54.6387Q50.8545-53.1738 50.4639-51.4404L51.2695-51.4404Q52.0508-52.3682 53.1372-52.8198Q54.2236-53.2715 55.6641-53.2715Q58.4473-53.2715 60.2295-51.3428Q62.0117-49.4141 62.0117-46.2891Q62.0117-42.9688 59.8999-40.918Q57.7881-38.8672 54.4922-38.8672ZM29.6143-24.9756Q28.3447-24.9756 27.5391-25.8057Q26.7334-26.6357 26.7334-27.8809Q26.7334-29.0527 27.5391-29.8462Q28.3447-30.6396 29.6143-30.6396L58.4473-30.6396Q59.668-30.6396 60.4736-29.8462Q61.2793-29.0527 61.2793-27.8809Q61.2793-26.6357 60.4736-25.8057Q59.668-24.9756 58.4473-24.9756ZM29.6143-12.6953Q28.3447-12.6953 27.5391-13.501Q26.7334-14.3066 26.7334-15.4541Q26.7334-16.6748 27.5391-17.5049Q28.3447-18.335 29.6143-18.335L44.9707-18.335Q46.1914-18.335 47.0093-17.5049Q47.8271-16.6748 47.8271-15.4541Q47.8271-14.3066 47.0093-13.501Q46.1914-12.6953 44.9707-12.6953ZM9.76562-6.81152Q9.76562-0.0976562 13.3057 3.4668Q16.8457 7.03125 23.5107 7.03125L64.4531 7.03125Q71.1182 7.03125 74.6704 3.4668Q78.2227-0.0976562 78.2227-6.81152L78.2227-63.6475Q78.2227-70.3369 74.6704-73.9136Q71.1182-77.4902 64.4531-77.4902L23.5107-77.4902Q16.8457-77.4902 13.3057-73.9136Q9.76562-70.3369 9.76562-63.6475Z"/>
  </g>
  <g id="Semibold-S" transform="matrix(1 0 0 1 1999.89 696)">
   <path d="M33.3511-38.3873Q29.9309-38.3873 27.5349-40.8487Q25.139-43.3102 25.139-47.7447Q25.139-50.0264 25.8647-52.1371Q26.5905-54.2479 28.1708-55.8947Q29.7666-57.5571 31.7886-58.5359Q33.8105-59.5147 35.635-59.5147Q37.364-59.5147 37.364-58.0632Q37.364-57.3485 36.9489-56.9734Q36.5339-56.5983 35.5306-56.3675Q34.2966-56.1056 33.2723-55.6095Q32.248-55.1135 31.4513-54.4477Q29.6534-52.914 29.2938-51.1494L30.1084-51.1494Q30.9074-52.1127 32.0161-52.5688Q33.1247-53.0249 34.5918-53.0249Q37.4461-53.0249 39.245-51.0773Q41.0438-49.1297 41.0438-45.9181Q41.0438-42.5444 38.9021-40.4659Q36.7603-38.3873 33.3511-38.3873ZM53.9945-38.3873Q50.541-38.3873 48.1373-40.8654Q45.7336-43.3435 45.7336-47.778Q45.7336-50.0597 46.4749-52.1704Q47.2162-54.2812 48.8143-55.928Q50.2636-57.5261 52.3266-58.5371Q54.3896-59.548 56.2451-59.548Q57.9741-59.548 57.9741-58.0965Q57.9741-57.4129 57.5824-57.0056Q57.1906-56.5983 56.1407-56.4008Q54.9533-56.1389 53.919-55.6506Q52.8848-55.1623 52.0702-54.4609Q50.2946-52.9428 49.904-51.1827L50.7186-51.1827Q51.5176-52.146 52.6262-52.6021Q53.7349-53.0582 55.202-53.0582Q58.0562-53.0582 59.8474-51.0939Q61.6385-49.1297 61.6385-45.9514Q61.6385-42.5777 59.5044-40.4825Q57.3704-38.3873 53.9945-38.3873ZM28.77-24.6823Q27.536-24.6823 26.7481-25.4946Q25.9603-26.3069 25.9603-27.5254Q25.9603-28.6617 26.7481-29.4418Q27.536-30.222 28.77-30.222L58.0385-30.222Q59.2414-30.222 60.0293-29.4418Q60.8172-28.6617 60.8172-27.5254Q60.8172-26.3069 60.0293-25.4946Q59.2414-24.6823 58.0385-24.6823ZM28.77-12.0377Q27.536-12.0377 26.7481-12.8256Q25.9603-13.6135 25.9603-14.7343Q25.9603-15.9194 26.7481-16.7317Q27.536-17.544 28.77-17.544L43.7088-17.544Q44.9117-17.544 45.7074-16.7317Q46.503-15.9194 46.503-14.7343Q46.503-13.6135 45.7074-12.8256Q44.9117-12.0377 43.7088-12.0377ZM9.76562-6.71377Q9.76562-0.16875 13.1279 3.22686Q16.4902 6.62246 22.9687 6.62246L63.7422 6.62246Q70.2206 6.62246 73.5996 3.22686Q76.9785-0.16875 76.9785-6.71377L76.9785-63.763Q76.9785-70.2747 73.5996-73.687Q70.2206-77.0992 63.7422-77.0992L22.9687-77.0992Q16.4902-77.0992 13.1279-73.687Q9.76562-70.2747 9.76562-63.763Z"/>
  </g>
  <g id="Medium-S" transform="matrix(1 0 0 1 1703.66 696)">
   <path d="M32.7783-38.0234Q29.3379-38.0234 26.9116-40.5186Q24.4854-43.0137 24.4854-47.5156Q24.4854-49.8242 25.2246-51.9619Q25.9639-54.0996 27.5576-55.7734Q29.1602-57.4561 31.2158-58.4551Q33.2715-59.4541 35.1094-59.4541Q36.8721-59.4541 36.8721-57.9756Q36.8721-57.2744 36.457-56.8926Q36.042-56.5107 34.9443-56.2529Q33.7373-55.9775 32.7231-55.4849Q31.709-54.9922 30.9189-54.3398Q29.0537-52.7725 28.6807-50.9473L29.502-50.9473Q30.3145-51.9375 31.4399-52.397Q32.5654-52.8564 34.0527-52.8564Q36.9609-52.8564 38.7632-50.8853Q40.5654-48.9141 40.5654-45.6553Q40.5654-42.2412 38.4102-40.1323Q36.2549-38.0234 32.7783-38.0234ZM53.6172-38.0234Q50.1367-38.0234 47.7061-40.5386Q45.2754-43.0537 45.2754-47.5557Q45.2754-49.8643 46.0234-52.002Q46.7715-54.1396 48.3965-55.8135Q49.8525-57.4385 51.9526-58.4663Q54.0527-59.4941 55.9082-59.4941Q57.6709-59.4941 57.6709-58.0156Q57.6709-57.332 57.269-56.9214Q56.8672-56.5107 55.7432-56.293Q54.5625-56.0176 53.5215-55.5293Q52.4805-55.041 51.6592-54.3262Q49.8701-52.7676 49.4795-50.9873L50.3008-50.9873Q51.1133-51.9775 52.2388-52.437Q53.3643-52.8965 54.8516-52.8965Q57.7598-52.8965 59.5576-50.9053Q61.3555-48.9141 61.3555-45.6953Q61.3555-42.2812 59.2046-40.1523Q57.0537-38.0234 53.6172-38.0234ZM28.1299-24.46Q26.9229-24.46 26.1484-25.2588Q25.374-26.0576 25.374-27.2559Q25.374-28.3652 26.1484-29.1353Q26.9229-29.9053 28.1299-29.9053L57.7285-29.9053Q58.918-29.9053 59.6924-29.1353Q60.4668-28.3652 60.4668-27.2559Q60.4668-26.0576 59.6924-25.2588Q58.918-24.46 57.7285-24.46ZM28.1299-11.5391Q26.9229-11.5391 26.1484-12.3135Q25.374-13.0879 25.374-14.1885Q25.374-15.3467 26.1484-16.1455Q26.9229-16.9443 28.1299-16.9443L42.752-16.9443Q43.9414-16.9443 44.7202-16.1455Q45.499-15.3467 45.499-14.1885Q45.499-13.0879 44.7202-12.3135Q43.9414-11.5391 42.752-11.5391ZM9.76562-6.63965Q9.76562-0.222656 12.9932 3.04492Q16.2207 6.3125 22.5576 6.3125L63.2031 6.3125Q69.54 6.3125 72.7876 3.04492Q76.0352-0.222656 76.0352-6.63965L76.0352-63.8506Q76.0352-70.2275 72.7876-73.5151Q69.54-76.8027 63.2031-76.8027L22.5576-76.8027Q16.2207-76.8027 12.9932-73.5151Q9.76562-70.2275 9.76562-63.8506Z"/>
  </g>
  <g id="Regular-S" transform="matrix(1 0 0 1 1407.56 696)">
   <path d="M32.0312-37.5488Q28.5645-37.5488 26.0986-40.0879Q23.6328-42.627 23.6328-47.2168Q23.6328-49.5605 24.3896-51.7334Q25.1465-53.9062 26.7578-55.6152Q28.3691-57.3242 30.4688-58.3496Q32.5684-59.375 34.4238-59.375Q36.2305-59.375 36.2305-57.8613Q36.2305-57.1777 35.8154-56.7871Q35.4004-56.3965 34.1797-56.1035Q33.0078-55.8105 32.0068-55.3223Q31.0059-54.834 30.2246-54.1992Q28.2715-52.5879 27.8809-50.6836L28.7109-50.6836Q29.541-51.709 30.6885-52.1729Q31.8359-52.6367 33.3496-52.6367Q36.3281-52.6367 38.1348-50.6348Q39.9414-48.6328 39.9414-45.3125Q39.9414-41.8457 37.7686-39.6973Q35.5957-37.5488 32.0312-37.5488ZM53.125-37.5488Q49.6094-37.5488 47.1436-40.1123Q44.6777-42.6758 44.6777-47.2656Q44.6777-49.6094 45.4346-51.7822Q46.1914-53.9551 47.8516-55.6641Q49.3164-57.3242 51.4648-58.374Q53.6133-59.4238 55.4688-59.4238Q57.2754-59.4238 57.2754-57.9102Q57.2754-57.2266 56.8604-56.8115Q56.4453-56.3965 55.2246-56.1523Q54.0527-55.8594 53.0029-55.3711Q51.9531-54.8828 51.123-54.1504Q49.3164-52.5391 48.9258-50.7324L49.7559-50.7324Q50.5859-51.7578 51.7334-52.2217Q52.8809-52.6855 54.3945-52.6855Q57.373-52.6855 59.1797-50.6592Q60.9863-48.6328 60.9863-45.3613Q60.9863-41.8945 58.8135-39.7217Q56.6406-37.5488 53.125-37.5488ZM27.2949-24.1699Q26.123-24.1699 25.3662-24.9512Q24.6094-25.7324 24.6094-26.9043Q24.6094-27.9785 25.3662-28.7354Q26.123-29.4922 27.2949-29.4922L57.3242-29.4922Q58.4961-29.4922 59.2529-28.7354Q60.0098-27.9785 60.0098-26.9043Q60.0098-25.7324 59.2529-24.9512Q58.4961-24.1699 57.3242-24.1699ZM27.2949-10.8887Q26.123-10.8887 25.3662-11.6455Q24.6094-12.4023 24.6094-13.4766Q24.6094-14.5996 25.3662-15.3809Q26.123-16.1621 27.2949-16.1621L41.5039-16.1621Q42.6758-16.1621 43.4326-15.3809Q44.1895-14.5996 44.1895-13.4766Q44.1895-12.4023 43.4326-11.6455Q42.6758-10.8887 41.5039-10.8887ZM9.76562-6.54297Q9.76562-0.292969 12.8174 2.80762Q15.8691 5.9082 22.0215 5.9082L62.5 5.9082Q68.6523 5.9082 71.7285 2.80762Q74.8047-0.292969 74.8047-6.54297L74.8047-63.9648Q74.8047-70.166 71.7285-73.291Q68.6523-76.416 62.5-76.416L22.0215-76.416Q15.8691-76.416 12.8174-73.291Q9.76562-70.166 9.76562-63.9648Z"/>
  </g>
  <g id="Light-S" transform="matrix(1 0 0 1 1111.47 696)">
   <path d="M31.6073-37.4125Q28.0497-37.4125 25.5461-39.9516Q23.0426-42.4906 23.0426-47.1107Q23.0426-49.5758 23.875-51.7864Q24.7075-53.997 26.3189-55.7363Q27.9605-57.4908 30.1206-58.5539Q32.2807-59.6171 34.1515-59.6171Q35.6705-59.6171 35.6705-58.3458Q35.6705-57.753 35.2932-57.4229Q34.9159-57.0928 33.9526-56.8604Q32.6141-56.5674 31.4695-56.0261Q30.3248-55.4848 29.3467-54.6534Q27.212-52.815 26.6851-50.4868L27.3941-50.4868Q28.3755-51.6635 29.6668-52.2031Q30.958-52.7428 32.517-52.7428Q35.6471-52.7428 37.5823-50.6954Q39.5175-48.6481 39.5175-45.2367Q39.5175-41.8002 37.2992-39.6063Q35.081-37.4125 31.6073-37.4125ZM52.4439-37.4125Q48.8525-37.4125 46.3488-39.9685Q43.8451-42.5245 43.8451-47.1446Q43.8451-49.5941 44.6701-51.8125Q45.4951-54.0309 47.1553-55.7701Q48.6959-57.5058 50.8897-58.5784Q53.0835-59.6509 54.939-59.6509Q56.473-59.6509 56.473-58.3794Q56.473-57.7866 56.0884-57.432Q55.7037-57.0775 54.7401-56.8939Q53.417-56.601 52.2385-56.0598Q51.06-55.5186 50.0333-54.6196Q47.9996-52.7812 47.4879-50.5206L48.1967-50.5206Q49.1631-51.6973 50.462-52.2368Q51.7609-52.7763 53.3048-52.7763Q56.4346-52.7763 58.3775-50.7046Q60.3203-48.6328 60.3203-45.2705Q60.3203-41.834 58.102-39.6233Q55.8838-37.4125 52.4439-37.4125ZM26.1749-24.8662Q25.2452-24.8662 24.6321-25.4885Q24.0191-26.1108 24.0191-27.0406Q24.0191-27.9027 24.6321-28.5082Q25.2452-29.1138 26.1749-29.1138L57.1879-29.1138Q58.1177-29.1138 58.7307-28.5082Q59.3437-27.9027 59.3437-27.0406Q59.3437-26.1108 58.7307-25.4885Q58.1177-24.8662 57.1879-24.8662ZM26.1749-11.4942Q25.2452-11.4942 24.6321-12.0996Q24.0191-12.705 24.0191-13.5674Q24.0191-14.4633 24.6321-15.0856Q25.2452-15.7079 26.1749-15.7079L41.08-15.7079Q42.025-15.7079 42.638-15.0856Q43.251-14.4633 43.251-13.5674Q43.251-12.705 42.638-12.0996Q42.025-11.4942 41.08-11.4942ZM9.76562-5.96771Q9.76562-0.171916 12.6509 2.74709Q15.5362 5.6661 21.2646 5.6661L62.0308 5.6661Q67.7745 5.6661 70.6689 2.74709Q73.5634-0.171916 73.5634-5.96771L73.5634-64.4796Q73.5634-70.2418 70.6689-73.1776Q67.7745-76.1134 62.0308-76.1134L21.2646-76.1134Q15.5362-76.1134 12.6509-73.1776Q9.76562-70.2418 9.76562-64.4796Z"/>
  </g>
  <g id="Thin-S" transform="matrix(1 0 0 1 815.578 696)">
   <path d="M31.0466-37.2322Q27.369-37.2322 24.8154-39.7713Q22.2619-42.3104 22.2619-46.9705Q22.2619-49.596 23.1944-51.8566Q24.127-54.1171 25.7383-55.8964Q27.4199-57.7111 29.6601-58.8242Q31.9003-59.9373 33.7912-59.9373Q34.9298-59.9373 34.9298-58.9865Q34.9298-58.5138 34.6025-58.2638Q34.2752-58.0137 33.6522-57.8613Q32.0935-57.5684 30.7588-56.9569Q29.4241-56.3455 28.1856-55.2541Q25.8108-53.1154 25.1036-50.2264L25.6525-50.2264Q26.834-51.6033 28.3155-52.2431Q29.797-52.883 31.4158-52.883Q34.7463-52.883 36.8516-50.7756Q38.9568-48.6683 38.9568-45.1365Q38.9568-41.74 36.6785-39.4861Q34.4002-37.2322 31.0466-37.2322ZM51.5432-37.2322Q47.8516-37.2322 45.2977-39.7783Q42.7439-42.3243 42.7439-46.9845Q42.7439-49.5739 43.659-51.8525Q44.5742-54.1311 46.2343-55.9104Q47.8752-57.746 50.1291-58.8486Q52.3829-59.9513 54.2384-59.9513Q55.4118-59.9513 55.4118-58.9999Q55.4118-58.5272 55.0674-58.2527Q54.7229-57.9783 54.0994-57.8747Q52.5761-57.5817 51.2274-56.9706Q49.8787-56.3595 48.5921-55.2402Q46.258-53.1014 45.5862-50.2404L46.1345-50.2404Q47.2812-51.6172 48.7804-52.2568Q50.2796-52.8964 51.8635-52.8964Q55.1935-52.8964 57.3164-50.7646Q59.4394-48.6328 59.4394-45.1505Q59.4394-41.754 57.1611-39.4931Q54.8828-37.2322 51.5432-37.2322ZM24.6936-25.7872Q24.0841-25.7872 23.6613-26.1992Q23.2384-26.6113 23.2384-27.2209Q23.2384-27.8025 23.6613-28.2079Q24.0841-28.6133 24.6936-28.6133L57.0076-28.6133Q57.6172-28.6133 58.04-28.2079Q58.4628-27.8025 58.4628-27.2209Q58.4628-26.6113 58.04-26.1992Q57.6172-25.7872 57.0076-25.7872ZM24.6936-12.295Q24.0841-12.295 23.6613-12.7001Q23.2384-13.1052 23.2384-13.6874Q23.2384-14.283 23.6613-14.6951Q24.0841-15.1072 24.6936-15.1072L40.5193-15.1072Q41.1643-15.1072 41.5871-14.6951Q42.0099-14.283 42.0099-13.6874Q42.0099-13.1052 41.5871-12.7001Q41.1643-12.295 40.5193-12.295ZM9.76562-5.20689Q9.76562-0.0118133 12.4308 2.66704Q15.096 5.34589 20.2637 5.34589L61.4102 5.34589Q66.6134 5.34589 69.2675 2.66704Q71.9217-0.0118133 71.9217-5.20689L71.9217-65.1603Q71.9217-70.342 69.2675-73.0276Q66.6134-75.7131 61.4102-75.7131L20.2637-75.7131Q15.096-75.7131 12.4308-73.0276Q9.76562-70.342 9.76562-65.1603Z"/>
  </g>
  <g id="Ultralight-S" transform="matrix(1 0 0 1 519.288 696)">
   <path d="M30.7594-37.1399Q27.0203-37.1399 24.4411-39.679Q21.862-42.218 21.862-46.8987Q21.862-49.6063 22.8458-51.8925Q23.8297-54.1786 25.441-55.9784Q27.1431-57.8239 29.4243-58.9626Q31.7055-60.1013 33.6067-60.1013Q34.5505-60.1013 34.5505-59.3147Q34.5505-58.9035 34.2487-58.6945Q33.947-58.4854 33.4984-58.374Q31.8268-58.0811 30.3947-57.4337Q28.9627-56.7863 27.5909-55.5618Q25.0931-53.2692 24.2935-50.0931L24.7604-50.0931Q26.0445-51.5724 27.6234-52.2636Q29.2023-52.9549 30.8517-52.9549Q34.285-52.9549 36.4773-50.8167Q38.6696-48.6786 38.6696-45.0851Q38.6696-41.7091 36.3605-39.4245Q34.0515-37.1399 30.7594-37.1399ZM51.0818-37.1399Q47.3389-37.1399 44.7594-39.6809Q42.1799-42.2218 42.1799-46.9025Q42.1799-49.5636 43.1412-51.873Q44.1025-54.1824 45.7626-55.9822Q47.4548-57.869 49.7395-58.987Q52.0241-60.1051 53.8795-60.1051Q54.8683-60.1051 54.8683-59.3178Q54.8683-58.9066 54.5444-58.6731Q54.2206-58.4396 53.7712-58.3771Q52.1454-58.0841 50.7095-57.4371Q49.2737-56.7902 47.8539-55.558Q45.3659-53.2654 44.6121-50.0969L45.0783-50.0969Q46.3173-51.5762 47.9191-52.2671Q49.5209-52.9579 51.1253-52.9579Q54.5578-52.9579 56.773-50.7954Q58.9882-48.6328 58.9882-45.089Q58.9882-41.713 56.6792-39.4264Q54.3701-37.1399 51.0818-37.1399ZM23.9349-26.2589Q23.4894-26.2589 23.164-26.5633Q22.8386-26.8677 22.8386-27.3132Q22.8386-27.7512 23.164-28.054Q23.4894-28.3569 23.9349-28.3569L56.9153-28.3569Q57.3608-28.3569 57.6862-28.054Q58.0116-27.7512 58.0116-27.3132Q58.0116-26.8677 57.6862-26.5633Q57.3608-26.2589 56.9153-26.2589ZM23.9349-12.7052Q23.4894-12.7052 23.164-13.0077Q22.8386-13.3102 22.8386-13.7489Q22.8386-14.1907 23.164-14.4951Q23.4894-14.7995 23.9349-14.7995L40.2321-14.7995Q40.7234-14.7995 41.0488-14.4951Q41.3742-14.1907 41.3742-13.7489Q41.3742-13.3102 41.0488-13.0077Q40.7234-12.7052 40.2321-12.7052ZM9.76562-4.8172Q9.76562 0.0701904 12.318 2.62604Q14.8705 5.18188 19.751 5.18188L61.0924 5.18188Q66.0187 5.18188 68.5497 2.62604Q71.0808 0.0701904 71.0808-4.8172L71.0808-65.509Q71.0808-70.3934 68.5497-72.9507Q66.0187-75.5081 61.0924-75.5081L19.751-75.5081Q14.8705-75.5081 12.318-72.9507Q9.76562-70.3934 9.76562-65.509Z"/>
  </g>
 </g>
</svg>
