<?xml version="1.0" encoding="UTF-8"?>
<!--Generator: Apple Native CoreSVG 175-->
<!DOCTYPE svg
PUBLIC "-//W3C//DTD SVG 1.1//EN"
       "http://www.w3.org/Graphics/SVG/1.1/DTD/svg11.dtd">
<svg version="1.1" xmlns="http://www.w3.org/2000/svg" xmlns:xlink="http://www.w3.org/1999/xlink" width="3300" height="2200">
 <!--glyph: "uni10032D.medium", point size: 100.0, font version: "17.3d3e1", template writer version: "65.1"-->
 <g id="Notes">
  <rect height="2200" id="artboard" style="fill:white;opacity:1" width="3300" x="0" y="0"/>
  <line style="fill:none;stroke:black;opacity:1;stroke-width:0.5;" x1="263" x2="3036" y1="292" y2="292"/>
  <text style="stroke:none;fill:black;font-family:sans-serif;font-size:13;font-weight:bold;" transform="matrix(1 0 0 1 263 322)">Weight/Scale Variations</text>
  <text style="stroke:none;fill:black;font-family:sans-serif;font-size:13;text-anchor:middle;" transform="matrix(1 0 0 1 559.711 322)">Ultralight</text>
  <text style="stroke:none;fill:black;font-family:sans-serif;font-size:13;text-anchor:middle;" transform="matrix(1 0 0 1 856.422 322)">Thin</text>
  <text style="stroke:none;fill:black;font-family:sans-serif;font-size:13;text-anchor:middle;" transform="matrix(1 0 0 1 1153.13 322)">Light</text>
  <text style="stroke:none;fill:black;font-family:sans-serif;font-size:13;text-anchor:middle;" transform="matrix(1 0 0 1 1449.84 322)">Regular</text>
  <text style="stroke:none;fill:black;font-family:sans-serif;font-size:13;text-anchor:middle;" transform="matrix(1 0 0 1 1746.56 322)">Medium</text>
  <text style="stroke:none;fill:black;font-family:sans-serif;font-size:13;text-anchor:middle;" transform="matrix(1 0 0 1 2043.27 322)">Semibold</text>
  <text style="stroke:none;fill:black;font-family:sans-serif;font-size:13;text-anchor:middle;" transform="matrix(1 0 0 1 2339.98 322)">Bold</text>
  <text style="stroke:none;fill:black;font-family:sans-serif;font-size:13;text-anchor:middle;" transform="matrix(1 0 0 1 2636.69 322)">Heavy</text>
  <text style="stroke:none;fill:black;font-family:sans-serif;font-size:13;text-anchor:middle;" transform="matrix(1 0 0 1 2933.4 322)">Black</text>
  <line style="fill:none;stroke:black;opacity:1;stroke-width:0.5;" x1="263" x2="3036" y1="1903" y2="1903"/>
  <g transform="matrix(1 0 0 1 263 1933)">
   <path d="M9.24805 0.830078Q10.8691 0.830078 12.2949 0.214844Q13.7207-0.400391 14.8096-1.49414Q15.8984-2.58789 16.5186-4.01367Q17.1387-5.43945 17.1387-7.05078Q17.1387-8.66211 16.5186-10.0879Q15.8984-11.5137 14.8047-12.6074Q13.7109-13.7012 12.2852-14.3164Q10.8594-14.9316 9.23828-14.9316Q7.62695-14.9316 6.20117-14.3164Q4.77539-13.7012 3.69141-12.6074Q2.60742-11.5137 1.9873-10.0879Q1.36719-8.66211 1.36719-7.05078Q1.36719-5.43945 1.9873-4.01367Q2.60742-2.58789 3.69629-1.49414Q4.78516-0.400391 6.21094 0.214844Q7.63672 0.830078 9.24805 0.830078ZM9.24805-0.654297Q7.91992-0.654297 6.7627-1.14746Q5.60547-1.64062 4.73145-2.51953Q3.85742-3.39844 3.36426-4.56055Q2.87109-5.72266 2.87109-7.05078Q2.87109-8.37891 3.35938-9.54102Q3.84766-10.7031 4.72168-11.582Q5.5957-12.4609 6.75293-12.9541Q7.91016-13.4473 9.23828-13.4473Q10.5762-13.4473 11.7334-12.9541Q12.8906-12.4609 13.7695-11.582Q14.6484-10.7031 15.1465-9.54102Q15.6445-8.37891 15.6445-7.05078Q15.6445-5.72266 15.1514-4.56055Q14.6582-3.39844 13.7842-2.51953Q12.9102-1.64062 11.748-1.14746Q10.5859-0.654297 9.24805-0.654297ZM5.6543-7.05078Q5.6543-6.72852 5.85938-6.52832Q6.06445-6.32812 6.40625-6.32812L8.51562-6.32812L8.51562-4.20898Q8.51562-3.88672 8.71094-3.67676Q8.90625-3.4668 9.23828-3.4668Q9.56055-3.4668 9.77051-3.67676Q9.98047-3.88672 9.98047-4.20898L9.98047-6.32812L12.0898-6.32812Q12.4219-6.32812 12.627-6.52832Q12.832-6.72852 12.832-7.05078Q12.832-7.38281 12.627-7.58789Q12.4219-7.79297 12.0898-7.79297L9.98047-7.79297L9.98047-9.90234Q9.98047-10.2344 9.77051-10.4443Q9.56055-10.6543 9.23828-10.6543Q8.90625-10.6543 8.71094-10.4443Q8.51562-10.2344 8.51562-9.90234L8.51562-7.79297L6.40625-7.79297Q6.06445-7.79297 5.85938-7.58789Q5.6543-7.38281 5.6543-7.05078Z"/>
  </g>
  <g transform="matrix(1 0 0 1 281.867 1933)">
   <path d="M11.709 2.91016Q13.75 2.91016 15.5518 2.12891Q17.3535 1.34766 18.7305-0.0292969Q20.1074-1.40625 20.8887-3.20801Q21.6699-5.00977 21.6699-7.05078Q21.6699-9.0918 20.8887-10.8936Q20.1074-12.6953 18.7305-14.0723Q17.3535-15.4492 15.5469-16.2305Q13.7402-17.0117 11.6992-17.0117Q9.6582-17.0117 7.85645-16.2305Q6.05469-15.4492 4.68262-14.0723Q3.31055-12.6953 2.5293-10.8936Q1.74805-9.0918 1.74805-7.05078Q1.74805-5.00977 2.5293-3.20801Q3.31055-1.40625 4.6875-0.0292969Q6.06445 1.34766 7.86621 2.12891Q9.66797 2.91016 11.709 2.91016ZM11.709 1.25Q9.98047 1.25 8.47656 0.605469Q6.97266-0.0390625 5.83496-1.17676Q4.69727-2.31445 4.05762-3.81836Q3.41797-5.32227 3.41797-7.05078Q3.41797-8.7793 4.05762-10.2832Q4.69727-11.7871 5.83008-12.9297Q6.96289-14.0723 8.4668-14.7119Q9.9707-15.3516 11.6992-15.3516Q13.4277-15.3516 14.9316-14.7119Q16.4355-14.0723 17.5781-12.9297Q18.7207-11.7871 19.3652-10.2832Q20.0098-8.7793 20.0098-7.05078Q20.0098-5.32227 19.3701-3.81836Q18.7305-2.31445 17.5928-1.17676Q16.4551-0.0390625 14.9463 0.605469Q13.4375 1.25 11.709 1.25ZM7.17773-7.05078Q7.17773-6.69922 7.41211-6.47461Q7.64648-6.25 8.01758-6.25L10.8887-6.25L10.8887-3.36914Q10.8887-2.99805 11.1133-2.76855Q11.3379-2.53906 11.6895-2.53906Q12.0605-2.53906 12.29-2.76855Q12.5195-2.99805 12.5195-3.36914L12.5195-6.25L15.4004-6.25Q15.7715-6.25 16.001-6.47461Q16.2305-6.69922 16.2305-7.05078Q16.2305-7.42188 16.001-7.65137Q15.7715-7.88086 15.4004-7.88086L12.5195-7.88086L12.5195-10.752Q12.5195-11.1328 12.29-11.3623Q12.0605-11.5918 11.6895-11.5918Q11.3379-11.5918 11.1133-11.3574Q10.8887-11.123 10.8887-10.752L10.8887-7.88086L8.01758-7.88086Q7.63672-7.88086 7.40723-7.65137Q7.17773-7.42188 7.17773-7.05078Z"/>
  </g>
  <g transform="matrix(1 0 0 1 305.646 1933)">
   <path d="M14.9707 5.66406Q17.0605 5.66406 18.96 5.01465Q20.8594 4.36523 22.4512 3.19336Q24.043 2.02148 25.2197 0.429688Q26.3965-1.16211 27.0459-3.06641Q27.6953-4.9707 27.6953-7.05078Q27.6953-9.14062 27.0459-11.04Q26.3965-12.9395 25.2197-14.5312Q24.043-16.123 22.4512-17.2998Q20.8594-18.4766 18.9551-19.126Q17.0508-19.7754 14.9609-19.7754Q12.8711-19.7754 10.9717-19.126Q9.07227-18.4766 7.48535-17.2998Q5.89844-16.123 4.72168-14.5312Q3.54492-12.9395 2.90039-11.04Q2.25586-9.14062 2.25586-7.05078Q2.25586-4.9707 2.90527-3.06641Q3.55469-1.16211 4.72656 0.429688Q5.89844 2.02148 7.49023 3.19336Q9.08203 4.36523 10.9814 5.01465Q12.8809 5.66406 14.9707 5.66406ZM14.9707 3.84766Q13.1641 3.84766 11.5283 3.2959Q9.89258 2.74414 8.53516 1.74805Q7.17773 0.751953 6.17676-0.610352Q5.17578-1.97266 4.62891-3.6084Q4.08203-5.24414 4.08203-7.05078Q4.08203-8.86719 4.62891-10.5029Q5.17578-12.1387 6.17188-13.501Q7.16797-14.8633 8.52539-15.8594Q9.88281-16.8555 11.5186-17.4023Q13.1543-17.9492 14.9609-17.9492Q16.7773-17.9492 18.4131-17.4023Q20.0488-16.8555 21.4111-15.8594Q22.7734-14.8633 23.7695-13.501Q24.7656-12.1387 25.3174-10.5029Q25.8691-8.86719 25.8691-7.05078Q25.8789-5.24414 25.332-3.6084Q24.7852-1.97266 23.7842-0.610352Q22.7832 0.751953 21.4209 1.74805Q20.0586 2.74414 18.4229 3.2959Q16.7871 3.84766 14.9707 3.84766ZM9.19922-7.05078Q9.19922-6.66992 9.45801-6.4209Q9.7168-6.17188 10.1172-6.17188L14.0625-6.17188L14.0625-2.2168Q14.0625-1.81641 14.3115-1.55762Q14.5605-1.29883 14.9512-1.29883Q15.3516-1.29883 15.6104-1.55273Q15.8691-1.80664 15.8691-2.2168L15.8691-6.17188L19.8242-6.17188Q20.2246-6.17188 20.4785-6.4209Q20.7324-6.66992 20.7324-7.05078Q20.7324-7.46094 20.4785-7.71484Q20.2246-7.96875 19.8242-7.96875L15.8691-7.96875L15.8691-11.9141Q15.8691-12.3242 15.6104-12.583Q15.3516-12.8418 14.9512-12.8418Q14.5605-12.8418 14.3115-12.583Q14.0625-12.3242 14.0625-11.9141L14.0625-7.96875L10.1172-7.96875Q9.70703-7.96875 9.45312-7.71484Q9.19922-7.46094 9.19922-7.05078Z"/>
  </g>
  <text style="stroke:none;fill:black;font-family:sans-serif;font-size:13;font-weight:bold;" transform="matrix(1 0 0 1 263 1953)">Design Variations</text>
  <text style="stroke:none;fill:black;font-family:sans-serif;font-size:13;" transform="matrix(1 0 0 1 263 1971)">Symbols are supported in up to nine weights and three scales.</text>
  <text style="stroke:none;fill:black;font-family:sans-serif;font-size:13;" transform="matrix(1 0 0 1 263 1989)">For optimal layout with text and other symbols, vertically align</text>
  <text style="stroke:none;fill:black;font-family:sans-serif;font-size:13;" transform="matrix(1 0 0 1 263 2007)">symbols with the adjacent text.</text>
  <line style="fill:none;stroke:#00AEEF;stroke-width:0.5;opacity:1.0;" x1="776" x2="776" y1="1919" y2="1933"/>
  <g transform="matrix(1 0 0 1 776 1933)">
   <path d="M3.31055 0.15625Q3.70117 0.15625 3.91602-0.00976562Q4.13086-0.175781 4.26758-0.585938L5.52734-4.0332L11.2891-4.0332L12.5488-0.585938Q12.6855-0.175781 12.9004-0.00976562Q13.1152 0.15625 13.4961 0.15625Q13.8867 0.15625 14.1162-0.0585938Q14.3457-0.273438 14.3457-0.644531Q14.3457-0.869141 14.2383-1.17188L9.6582-13.3691Q9.48242-13.8184 9.17969-14.043Q8.87695-14.2676 8.4082-14.2676Q7.5-14.2676 7.17773-13.3789L2.59766-1.16211Q2.49023-0.859375 2.49023-0.634766Q2.49023-0.263672 2.70996-0.0537109Q2.92969 0.15625 3.31055 0.15625ZM6.00586-5.51758L8.37891-12.0898L8.42773-12.0898L10.8008-5.51758Z"/>
  </g>
  <line style="fill:none;stroke:#00AEEF;stroke-width:0.5;opacity:1.0;" x1="793.197" x2="793.197" y1="1919" y2="1933"/>
  <text style="stroke:none;fill:black;font-family:sans-serif;font-size:13;font-weight:bold;" transform="matrix(1 0 0 1 776 1953)">Margins</text>
  <text style="stroke:none;fill:black;font-family:sans-serif;font-size:13;" transform="matrix(1 0 0 1 776 1971)">Leading and trailing margins on the left and right side of each symbol</text>
  <text style="stroke:none;fill:black;font-family:sans-serif;font-size:13;" transform="matrix(1 0 0 1 776 1989)">can be adjusted by modifying the x-location of the margin guidelines.</text>
  <text style="stroke:none;fill:black;font-family:sans-serif;font-size:13;" transform="matrix(1 0 0 1 776 2007)">Modifications are automatically applied proportionally to all</text>
  <text style="stroke:none;fill:black;font-family:sans-serif;font-size:13;" transform="matrix(1 0 0 1 776 2025)">scales and weights.</text>
  <g transform="matrix(1 0 0 1 1289 1933)">
   <path d="M2.8418 1.86523L4.54102 3.57422Q5.18555 4.22852 5.90332 4.17969Q6.62109 4.13086 7.31445 3.35938L18.0078-8.42773L17.041-9.4043L6.42578 2.27539Q6.16211 2.57812 5.89355 2.61719Q5.625 2.65625 5.27344 2.30469L4.10156 1.14258Q3.75 0.791016 3.79395 0.522461Q3.83789 0.253906 4.14062-0.0195312L15.6152-10.8203L14.6387-11.7871L3.04688-0.898438Q2.30469-0.214844 2.25098 0.498047Q2.19727 1.21094 2.8418 1.86523ZM9.25781-16.3281Q8.94531-16.0254 8.90625-15.6348Q8.86719-15.2441 9.04297-14.9512Q9.21875-14.6777 9.55566-14.541Q9.89258-14.4043 10.3809-14.5215Q11.4746-14.7754 12.5977-14.7314Q13.7207-14.6875 14.7949-13.9844L14.209-12.5293Q13.9551-11.9043 14.0674-11.4404Q14.1797-10.9766 14.5801-10.5664L16.875-8.25195Q17.2363-7.88086 17.5781-7.82227Q17.9199-7.76367 18.3398-7.8418L19.4043-8.03711L20.0684-7.36328L20.0293-6.80664Q20-6.43555 20.1221-6.12305Q20.2441-5.81055 20.6055-5.44922L21.3672-4.70703Q21.7285-4.3457 22.1533-4.33105Q22.5781-4.31641 22.9297-4.66797L25.8398-7.58789Q26.1914-7.93945 26.1816-8.35449Q26.1719-8.76953 25.8105-9.13086L25.0391-9.89258Q24.6875-10.2539 24.3799-10.3857Q24.0723-10.5176 23.7109-10.4883L23.1348-10.4395L22.4902-11.0742L22.7344-12.1973Q22.832-12.6172 22.6953-12.9834Q22.5586-13.3496 22.1191-13.7891L19.9219-15.9766Q18.6719-17.2168 17.2607-17.8369Q15.8496-18.457 14.4189-18.4814Q12.9883-18.5059 11.665-17.959Q10.3418-17.4121 9.25781-16.3281ZM10.752-15.957Q11.6602-16.6211 12.7002-16.9043Q13.7402-17.1875 14.8047-17.085Q15.8691-16.9824 16.8701-16.5137Q17.8711-16.0449 18.7012-15.2051L21.1328-12.793Q21.3086-12.6172 21.3525-12.4512Q21.3965-12.2852 21.3379-12.0312L21.0156-10.5469L22.5195-9.0625L23.5059-9.12109Q23.6914-9.13086 23.7891-9.09668Q23.8867-9.0625 24.0332-8.91602L24.6094-8.33984L22.168-5.89844L21.5918-6.47461Q21.4453-6.62109 21.4062-6.71875Q21.3672-6.81641 21.377-7.01172L21.4453-7.98828L19.9512-9.47266L18.4277-9.21875Q18.1836-9.16992 18.042-9.2041Q17.9004-9.23828 17.7148-9.41406L15.7129-11.416Q15.5176-11.5918 15.4932-11.7529Q15.4688-11.9141 15.5859-12.1875L16.4648-14.2773Q15.293-15.3711 13.8281-15.791Q12.3633-16.2109 10.8398-15.7617Q10.7227-15.7324 10.6885-15.8057Q10.6543-15.8789 10.752-15.957Z"/>
  </g>
  <text style="stroke:none;fill:black;font-family:sans-serif;font-size:13;font-weight:bold;" transform="matrix(1 0 0 1 1289 1953)">Exporting</text>
  <text style="stroke:none;fill:black;font-family:sans-serif;font-size:13;" transform="matrix(1 0 0 1 1289 1971)">Symbols should be outlined when exporting to ensure the</text>
  <text style="stroke:none;fill:black;font-family:sans-serif;font-size:13;" transform="matrix(1 0 0 1 1289 1989)">design is preserved when submitting to Xcode.</text>
  <text id="template-version" style="stroke:none;fill:black;font-family:sans-serif;font-size:13;text-anchor:end;" transform="matrix(1 0 0 1 3036 1933)">Template v.3.0</text>
  <text style="stroke:none;fill:black;font-family:sans-serif;font-size:13;text-anchor:end;" transform="matrix(1 0 0 1 3036 1951)">Requires Xcode 13 or greater</text>
  <text id="descriptive-name" style="stroke:none;fill:black;font-family:sans-serif;font-size:13;text-anchor:end;" transform="matrix(1 0 0 1 3036 1969)">Generated from exclamationmark.bubble.fill</text>
  <text style="stroke:none;fill:black;font-family:sans-serif;font-size:13;text-anchor:end;" transform="matrix(1 0 0 1 3036 1987)">Typeset at 100 points</text>
  <text style="stroke:none;fill:black;font-family:sans-serif;font-size:13;" transform="matrix(1 0 0 1 263 726)">Small</text>
  <text style="stroke:none;fill:black;font-family:sans-serif;font-size:13;" transform="matrix(1 0 0 1 263 1156)">Medium</text>
  <text style="stroke:none;fill:black;font-family:sans-serif;font-size:13;" transform="matrix(1 0 0 1 263 1586)">Large</text>
 </g>
 <g id="Guides">
  <g id="H-reference" style="fill:#27AAE1;stroke:none;" transform="matrix(1 0 0 1 339 696)">
   <path d="M0.993347 0L3.6377 0L29.3282-67.1326L30.0301-67.1326L30.0301-70.459L28.1227-70.459ZM11.6882-24.4797L46.9818-24.4797L46.2311-26.7288L12.4382-26.7288ZM55.1193 0L57.7637 0L30.6381-70.459L29.4327-70.459L29.4327-67.1326Z"/>
  </g>
  <line id="Baseline-S" style="fill:none;stroke:#27AAE1;opacity:1;stroke-width:0.5;" x1="263" x2="3036" y1="696" y2="696"/>
  <line id="Capline-S" style="fill:none;stroke:#27AAE1;opacity:1;stroke-width:0.5;" x1="263" x2="3036" y1="625.541" y2="625.541"/>
  <g id="H-reference" style="fill:#27AAE1;stroke:none;" transform="matrix(1 0 0 1 339 1126)">
   <path d="M0.993347 0L3.6377 0L29.3282-67.1326L30.0301-67.1326L30.0301-70.459L28.1227-70.459ZM11.6882-24.4797L46.9818-24.4797L46.2311-26.7288L12.4382-26.7288ZM55.1193 0L57.7637 0L30.6381-70.459L29.4327-70.459L29.4327-67.1326Z"/>
  </g>
  <line id="Baseline-M" style="fill:none;stroke:#27AAE1;opacity:1;stroke-width:0.5;" x1="263" x2="3036" y1="1126" y2="1126"/>
  <line id="Capline-M" style="fill:none;stroke:#27AAE1;opacity:1;stroke-width:0.5;" x1="263" x2="3036" y1="1055.54" y2="1055.54"/>
  <g id="H-reference" style="fill:#27AAE1;stroke:none;" transform="matrix(1 0 0 1 339 1556)">
   <path d="M0.993347 0L3.6377 0L29.3282-67.1326L30.0301-67.1326L30.0301-70.459L28.1227-70.459ZM11.6882-24.4797L46.9818-24.4797L46.2311-26.7288L12.4382-26.7288ZM55.1193 0L57.7637 0L30.6381-70.459L29.4327-70.459L29.4327-67.1326Z"/>
  </g>
  <line id="Baseline-L" style="fill:none;stroke:#27AAE1;opacity:1;stroke-width:0.5;" x1="263" x2="3036" y1="1556" y2="1556"/>
  <line id="Capline-L" style="fill:none;stroke:#27AAE1;opacity:1;stroke-width:0.5;" x1="263" x2="3036" y1="1485.54" y2="1485.54"/>
  <line id="left-margin-Regular-M" style="fill:none;stroke:#00AEEF;stroke-width:0.5;opacity:1.0;" x1="1383.59" x2="1383.59" y1="1030.79" y2="1150.12"/>
  <line id="right-margin-Regular-M" style="fill:none;stroke:#00AEEF;stroke-width:0.5;opacity:1.0;" x1="1516.1" x2="1516.1" y1="1030.79" y2="1150.12"/>
 </g>
 <g id="Symbols">
  <g id="Black-L" transform="matrix(1 0 0 1 2846.32 1556)">
   <path d="M54.9642 38.8883Q57.3266 38.8883 59.5074 37.861Q61.6883 36.8336 64.5242 34.2961L89.0365 12.782L125.865 12.8027Q135.711 12.8027 142.928 8.82867Q150.144 4.8546 154.107-2.37204Q158.07-9.59868 158.07-19.4013L158.07-70.1917Q158.07-79.9943 154.107-87.2106Q150.144-94.4269 142.928-98.4113Q135.711-102.396 125.865-102.396L48.2893-102.396Q38.4427-102.396 31.2264-98.412Q24.0101-94.4282 20.047-87.2119Q16.084-79.9956 16.084-70.1917L16.084-19.4013Q16.084-9.5974 20.1931-2.38112Q24.3021 4.83516 31.2264 8.80859Q38.1506 12.782 46.5371 12.782L47.5605 12.782L47.5605 30.7855Q47.5605 34.5191 49.5454 36.7037Q51.5303 38.8883 54.9642 38.8883ZM87.1829-36.7218Q79.157-36.7218 78.6483-44.68L77.5365-67.7871Q77.2821-71.9778 79.971-74.5688Q82.6599-77.1597 87.1245-77.1597Q91.5695-77.1597 94.2682-74.5584Q96.9668-71.9571 96.7124-67.7664L95.5812-44.7968Q95.0712-36.7218 87.1829-36.7218ZM87.1829-12.8884Q82.8625-12.8884 79.9747-15.239Q77.0868-17.5896 77.0868-21.675Q77.0868-25.7604 79.9747-28.0922Q82.8625-30.4239 87.1829-30.4239Q91.5239-30.4239 94.354-28.0733Q97.1841-25.7227 97.1841-21.675Q97.1841-17.5689 94.354-15.2286Q91.5239-12.8884 87.1829-12.8884Z"/>
  </g>
  <g id="Heavy-L" transform="matrix(1 0 0 1 2550.05 1556)">
   <path d="M54.4817 37.7008Q56.6991 37.7008 58.7127 36.6932Q60.7263 35.6855 63.384 33.3076L87.4876 11.9893L125.92 12.019Q135.6 12.019 142.602 8.20463Q149.604 4.39024 153.401-2.62664Q157.197-9.64351 157.197-19.2523L157.197-69.6174Q157.197-79.2262 153.401-86.2282Q149.604-93.2302 142.602-97.0595Q135.6-100.889 125.92-100.889L47.3614-100.889Q37.681-100.889 30.679-97.0625Q23.677-93.2363 19.8805-86.2343Q16.084-79.2323 16.084-69.6174L16.084-19.2523Q16.084-9.63748 19.992-2.63548Q23.9001 4.36651 30.679 8.17789Q37.4578 11.9893 46.0227 11.9893L47.5583 11.9893L47.5583 30.075Q47.5583 33.5843 49.4083 35.6426Q51.2582 37.7008 54.4817 37.7008ZM86.712-35.5112Q79.474-35.5112 79.0575-42.7557L78.0246-68.5098Q77.8163-72.2747 80.2434-74.62Q82.6705-76.9652 86.6674-76.9652Q90.6406-76.9652 93.0795-74.6051Q95.5184-72.245 95.3102-68.48L94.2535-42.845Q93.831-35.5112 86.712-35.5112ZM86.712-12.4068Q82.7709-12.4068 80.0919-14.65Q77.4129-16.8932 77.4129-20.6498Q77.4129-24.4064 80.0919-26.6421Q82.7709-28.8779 86.712-28.8779Q90.6829-28.8779 93.3203-26.6347Q95.9577-24.3915 95.9577-20.6498Q95.9577-16.8635 93.3203-14.6351Q90.6829-12.4068 86.712-12.4068Z"/>
  </g>
  <g id="Bold-L" transform="matrix(1 0 0 1 2253.95 1556)">
   <path d="M53.6829 36.1623Q55.6922 36.1623 57.4841 35.2012Q59.2761 34.24 61.6683 32.104L85.3175 11.0564L125.982 11.0934Q135.375 11.0934 142.083 7.47921Q148.791 3.86502 152.379-2.86108Q155.968-9.58717 155.968-18.8785L155.968-69.0613Q155.968-78.3526 152.379-85.0602Q148.791-91.7678 142.083-95.4005Q135.375-99.0332 125.982-99.0332L46.0701-99.0332Q36.6763-99.0332 29.9687-95.4076Q23.2611-91.7821 19.6726-85.0745Q16.084-78.3669 16.084-69.0613L16.084-18.8785Q16.084-9.57294 19.7456-2.86534Q23.4072 3.84225 29.9687 7.44933Q36.5303 11.0564 45.194 11.0564L47.4292 11.0564L47.4292 29.2255Q47.4292 32.4149 49.0966 34.2886Q50.7639 36.1623 53.6829 36.1623ZM86.0587-34.1168Q79.8287-34.1168 79.5211-40.4477L78.5908-69.1714Q78.437-72.4025 80.5294-74.4326Q82.6218-76.4628 86.0294-76.4628Q89.4143-76.4628 91.5181-74.4141Q93.6219-72.3655 93.4681-69.1344L92.5151-40.5061Q92.1932-34.1168 86.0587-34.1168ZM86.0587-11.9687Q82.5878-11.9687 80.1813-14.0602Q77.7747-16.1516 77.7747-19.4914Q77.7747-22.8312 80.1813-24.9265Q82.5878-27.0219 86.0587-27.0219Q89.5665-27.0219 91.9509-24.9304Q94.3354-22.839 94.3354-19.4914Q94.3354-16.1147 91.9509-14.0417Q89.5665-11.9687 86.0587-11.9687Z"/>
  </g>
  <g id="Semibold-L" transform="matrix(1 0 0 1 1957.67 1556)">
   <path d="M53.1321 35.1017Q54.998 35.1017 56.6371 34.1726Q58.2763 33.2435 60.4855 31.2742L83.8214 10.4133L126.024 10.4553Q135.22 10.4553 141.725 6.97911Q148.23 3.50293 151.675-3.0227Q155.12-9.54833 155.12-18.6207L155.12-68.678Q155.12-77.7504 151.675-84.255Q148.23-90.7597 141.725-94.2568Q135.22-97.754 126.024-97.754L45.1799-97.754Q35.9838-97.754 29.4791-94.2668Q22.9745-90.7796 19.5292-84.2749Q16.084-77.7703 16.084-68.678L16.084-18.6207Q16.084-9.52845 19.5757-3.02381Q23.0673 3.48083 29.4791 6.94707Q35.8909 10.4133 44.6227 10.4133L47.3402 10.4133L47.3402 28.6398Q47.3402 31.6087 48.8817 33.3552Q50.4231 35.1017 53.1321 35.1017ZM85.6082-33.1554Q80.0732-33.1554 79.8406-38.8565L78.9811-69.6276Q78.8648-72.4906 80.7265-74.3034Q82.5883-76.1163 85.5897-76.1163Q88.5689-76.1163 90.4417-74.2825Q92.3145-72.4486 92.1982-69.5856L91.3166-38.8937Q91.0642-33.1554 85.6082-33.1554ZM85.6082-11.6668Q82.4616-11.6668 80.2429-13.6536Q78.0242-15.6404 78.0242-18.6928Q78.0242-21.7453 80.2429-23.7438Q82.4616-25.7423 85.6082-25.7423Q88.7968-25.7423 91.0069-23.7555Q93.217-21.7687 93.217-18.6928Q93.217-15.5984 91.0069-13.6326Q88.7968-11.6668 85.6082-11.6668Z"/>
  </g>
  <g id="Medium-L" transform="matrix(1 0 0 1 1661.28 1556)">
   <path d="M52.7146 34.2975Q54.4716 34.2975 55.9949 33.3927Q57.5182 32.4879 59.5886 30.645L82.687 9.92567L126.056 9.97143Q135.103 9.97143 141.453 6.59991Q147.804 3.22839 151.141-3.14524Q154.477-9.51887 154.477-18.4253L154.477-68.3873Q154.477-77.2937 151.141-83.6445Q147.804-89.9953 141.453-93.3896Q135.103-96.784 126.056-96.784L44.5049-96.784Q35.4586-96.784 29.1079-93.4017Q22.7571-90.0194 19.4206-83.6687Q16.084-77.3179 16.084-68.3873L16.084-18.4253Q16.084-9.49472 19.4468-3.14397Q22.8097 3.20679 29.1079 6.56623Q35.4061 9.92567 44.1895 9.92567L47.2727 9.92567L47.2727 28.1958Q47.2727 30.9974 48.7187 32.6474Q50.1647 34.2975 52.7146 34.2975ZM85.2667-32.4265Q80.2585-32.4265 80.0829-37.6501L79.277-69.9734Q79.1892-72.5573 80.876-74.2055Q82.5629-75.8537 85.2562-75.8537Q87.9279-75.8537 89.6255-74.1826Q91.3232-72.5116 91.2354-69.9277L90.4079-37.6711Q90.2081-32.4265 85.2667-32.4265ZM85.2667-11.4378Q82.3659-11.4378 80.2896-13.3453Q78.2134-15.2528 78.2134-18.0873Q78.2134-20.9219 80.2896-22.847Q82.3659-24.7721 85.2667-24.7721Q88.2132-24.7721 90.2911-22.8646Q92.3689-20.9571 92.3689-18.0873Q92.3689-15.207 90.2911-13.3224Q88.2132-11.4378 85.2667-11.4378Z"/>
  </g>
  <g id="Regular-L" transform="matrix(1 0 0 1 1364.99 1556)">
   <path d="M52.1699 33.2485Q53.785 33.2485 55.1572 32.3754Q56.5293 31.5023 58.4188 29.8244L81.2074 9.28964L126.098 9.34032Q134.949 9.34032 141.099 6.1053Q147.249 2.87028 150.444-3.30509Q153.639-9.48046 153.639-18.1704L153.639-68.0081Q153.639-76.6981 150.444-82.8481Q147.249-88.9982 141.099-92.2585Q134.949-95.5189 126.098-95.5189L43.6245-95.5189Q34.7737-95.5189 28.6236-92.2734Q22.4736-89.0279 19.2788-82.8779Q16.084-76.7278 16.084-68.0081L16.084-18.1704Q16.084-9.45072 19.2788-3.30069Q22.4736 2.84934 28.6236 6.06949Q34.7737 9.28964 43.6245 9.28964L47.1847 9.28964L47.1847 27.6166Q47.1847 30.2001 48.5062 31.7243Q49.8277 33.2485 52.1699 33.2485ZM84.8212-31.4757Q80.5003-31.4757 80.399-36.0764L79.6631-70.4245Q79.6124-72.6444 81.071-74.0778Q82.5297-75.5111 84.8212-75.5111Q87.0918-75.5111 88.561-74.0524Q90.0301-72.5938 89.9794-70.3738L89.2226-36.0764Q89.0915-31.4757 84.8212-31.4757ZM84.8212-11.1391Q82.2411-11.1391 80.3506-12.9431Q78.4601-14.7471 78.4601-17.2975Q78.4601-19.8479 80.3506-21.6773Q82.2411-23.5066 84.8212-23.5066Q87.4521-23.5066 89.3574-21.7026Q91.2628-19.8986 91.2628-17.2975Q91.2628-14.6964 89.3574-12.9178Q87.4521-11.1391 84.8212-11.1391Z"/>
  </g>
  <g id="Light-L" transform="matrix(1 0 0 1 1069.18 1556)">
   <path d="M50.3229 31.7504Q51.6097 31.7504 52.7356 31.0517Q53.8615 30.3531 55.2789 29.1266L78.088 8.96129L126.098 8.99144Q134.231 8.99144 139.991 5.91034Q145.751 2.82924 148.792-2.94595Q151.833-8.72115 151.833-16.6928L151.833-68.6238Q151.833-76.5955 148.792-82.3556Q145.751-88.1157 139.991-91.2119Q134.231-94.3081 126.098-94.3081L41.8185-94.3081Q33.686-94.3081 27.9259-91.237Q22.1658-88.166 19.1249-82.4059Q16.084-76.6458 16.084-68.6238L16.084-16.6928Q16.084-8.67089 19.1249-2.91077Q22.1658 2.84934 27.9259 5.90531Q33.686 8.96129 41.8185 8.96129L46.2817 8.96129L46.2817 27.2267Q46.2817 29.3176 47.3775 30.534Q48.4732 31.7504 50.3229 31.7504ZM83.9183-31.1884Q80.5003-31.1884 80.44-34.9682L79.8067-69.3779Q79.7765-71.1874 80.9376-72.3334Q82.0987-73.4794 83.9183-73.4794Q85.7579-73.4794 86.909-72.3183Q88.06-71.1572 88.0298-69.3477L87.4166-34.9682Q87.306-31.1884 83.9183-31.1884ZM83.9183-11.8574Q81.6665-11.8574 80.053-13.4356Q78.4396-15.0139 78.4396-17.2154Q78.4396-19.417 80.053-21.0103Q81.6665-22.6036 83.9183-22.6036Q86.2002-22.6036 87.8388-21.0254Q89.4774-19.4471 89.4774-17.2154Q89.4774-14.9838 87.8388-13.4206Q86.2002-11.8574 83.9183-11.8574Z"/>
  </g>
  <g id="Thin-L" transform="matrix(1 0 0 1 773.672 1556)">
   <path d="M47.8802 29.769Q48.7326 29.769 49.5328 29.3011Q50.333 28.8331 51.1262 28.2038L73.9625 8.52701L126.098 8.53003Q133.281 8.53003 138.525 5.65249Q143.77 2.77496 146.607-2.47097Q149.444-7.71689 149.444-14.7386L149.444-69.4381Q149.444-76.4598 146.607-81.7042Q143.77-86.9486 138.525-89.8277Q133.281-92.7067 126.098-92.7067L39.43-92.7067Q32.2475-92.7067 27.0031-89.8664Q21.7586-87.026 18.9213-81.7816Q16.084-76.5372 16.084-69.4381L16.084-14.7386Q16.084-7.63949 18.9213-2.39508Q21.7586 2.84934 27.0031 5.68818Q32.2475 8.52701 39.43 8.52701L45.0875 8.52701L45.0875 26.711Q45.0875 28.1505 45.8847 28.9598Q46.6819 29.769 47.8802 29.769ZM82.724-30.8084Q80.5003-30.8084 80.4943-33.5026L79.9967-67.9937Q79.9937-69.2603 80.7612-70.0263Q81.5287-70.7924 82.724-70.7924Q83.9937-70.7924 84.724-70.0248Q85.4544-69.2573 85.4514-67.9906L85.0281-33.5026Q84.9447-30.8084 82.724-30.8084ZM82.724-12.8074Q80.9065-12.8074 79.6595-14.0871Q78.4124-15.3668 78.4124-17.1069Q78.4124-18.847 79.6595-20.1282Q80.9065-21.4094 82.724-21.4094Q84.5446-21.4094 85.8303-20.1297Q87.116-18.85 87.116-17.1069Q87.116-15.3637 85.8303-14.0855Q84.5446-12.8074 82.724-12.8074Z"/>
  </g>
  <g id="Ultralight-L" transform="matrix(1 0 0 1 477.575 1556)">
   <path d="M46.629 28.7542Q47.259 28.7542 47.8924 28.4044Q48.5258 28.0546 48.9992 27.7311L71.8494 8.30458L126.098 8.2937Q132.794 8.2937 137.775 5.52042Q142.755 2.74715 145.488-2.22768Q148.221-7.20252 148.221-13.7377L148.221-69.8551Q148.221-76.3903 145.488-81.3706Q142.755-86.3508 137.775-89.1187Q132.794-91.8865 126.098-91.8865L38.2067-91.8865Q31.5107-91.8865 26.5304-89.1643Q21.5501-86.4421 18.817-81.4619Q16.084-76.4816 16.084-69.8551L16.084-13.7377Q16.084-7.11122 18.817-2.13094Q21.5501 2.84934 26.5304 5.57696Q31.5107 8.30458 38.2067 8.30458L44.4758 8.30458L44.4758 26.4468Q44.4758 27.5527 45.1201 28.1535Q45.7643 28.7542 46.629 28.7542ZM82.1123-30.6138Q80.5003-30.6138 80.5221-32.7519L80.094-67.2847Q80.1049-68.2733 80.6709-68.8447Q81.2368-69.4161 82.1123-69.4161Q83.0901-69.4161 83.6049-68.8501Q84.1198-68.2841 84.1307-67.2955L83.8048-32.7519Q83.7352-30.6138 82.1123-30.6138ZM82.1123-13.2939Q80.5173-13.2939 79.4579-14.4207Q78.3985-15.5475 78.3985-17.0513Q78.3985-18.555 79.4579-19.6764Q80.5173-20.7977 82.1123-20.7977Q83.6965-20.7977 84.8015-19.6709Q85.9066-18.5442 85.9066-17.0513Q85.9066-15.5584 84.8015-14.4261Q83.6965-13.2939 82.1123-13.2939Z"/>
  </g>
  <g id="Black-M" transform="matrix(1 0 0 1 2865.68 1126)">
   <path d="M42.7476 23.0103Q44.6578 23.0103 46.4578 22.2211Q48.2578 21.4319 50.544 19.3899L69.8888 2.60386L97.4654 2.60937Q105.139 2.60937 110.862-0.585878Q116.584-3.78113 119.776-9.50598Q122.969-15.2308 122.969-22.8945L122.969-62.8932Q122.969-70.5569 119.776-76.279Q116.584-82.0011 110.862-85.1991Q105.139-88.3971 97.4654-88.3971L37.9645-88.3971Q30.2904-88.3971 24.5683-85.1989Q18.8462-82.0008 15.6536-76.2787Q12.4609-70.5566 12.4609-62.8932L12.4609-22.8945Q12.4609-15.2311 15.7963-9.50904Q19.1317-3.78695 24.5683-0.591543Q30.0049 2.60386 36.2517 2.60386L36.7267 2.60386L36.7267 16.4729Q36.7267 19.4914 38.3498 21.2509Q39.973 23.0103 42.7476 23.0103ZM67.8265-37.3871Q61.0538-37.3871 60.586-44.0549L59.6707-59.6904Q59.4368-63.2474 61.7047-65.4269Q63.9727-67.6065 67.7694-67.6065Q71.5604-67.6065 73.8312-65.4242Q76.1021-63.2419 75.8682-59.6848L74.9471-44.1691Q74.4796-37.3871 67.8265-37.3871ZM67.8265-18.4322Q64.198-18.4322 61.8187-20.315Q59.4394-22.1978 59.4394-25.5983Q59.4394-28.9987 61.8187-30.8558Q64.198-32.7128 67.8265-32.7128Q71.4606-32.7128 73.7827-30.83Q76.1047-28.9472 76.1047-25.5983Q76.1047-22.1923 73.7827-20.3122Q71.4606-18.4322 67.8265-18.4322Z"/>
  </g>
  <g id="Heavy-M" transform="matrix(1 0 0 1 2569.32 1126)">
   <path d="M42.4462 21.9876Q44.2451 21.9876 45.9043 21.2016Q47.5635 20.4155 49.7191 18.488L68.6625 1.85919L97.5193 1.87542Q105.097 1.87542 110.646-1.17794Q116.194-4.23129 119.238-9.788Q122.282-15.3447 122.282-22.8852L122.282-62.275Q122.282-69.8155 119.238-75.3641Q116.194-80.9127 110.646-83.9742Q105.097-87.0356 97.5193-87.0356L37.224-87.0356Q29.6461-87.0356 24.0976-83.9754Q18.549-80.9151 15.505-75.3665Q12.4609-69.818 12.4609-62.275L12.4609-22.8852Q12.4609-15.3423 15.614-9.79367Q18.7671-4.24509 24.0976-1.19295Q29.428 1.85919 35.9154 1.85919L36.8078 1.85919L36.8078 15.8143Q36.8078 18.6591 38.3199 20.3233Q39.832 21.9876 42.4462 21.9876ZM67.4496-36.2302Q61.3637-36.2302 60.9822-42.276L60.1346-60.4934Q59.9439-63.6721 61.9833-65.6379Q64.0227-67.6038 67.4059-67.6038Q70.7753-67.6038 72.8216-65.6298Q74.868-63.6558 74.6772-60.4771L73.8158-42.3632Q73.4319-36.2302 67.4496-36.2302ZM67.4496-17.8951Q64.1614-17.8951 61.9607-19.6937Q59.76-21.4924 59.76-24.6036Q59.76-27.7148 61.9607-29.4998Q64.1614-31.2848 67.4496-31.2848Q70.7539-31.2848 72.9122-29.4861Q75.0705-27.6874 75.0705-24.6036Q75.0705-21.4762 72.9122-19.6856Q70.7539-17.8951 67.4496-17.8951Z"/>
  </g>
  <g id="Bold-M" transform="matrix(1 0 0 1 2272.99 1126)">
   <path d="M42.1091 20.8436Q43.7835 20.8436 45.2852 20.0611Q46.7869 19.2786 48.7964 17.479L67.2906 1.02616L97.5796 1.05439Q105.05 1.05439 110.404-1.84024Q115.759-4.73487 118.637-10.1035Q121.514-15.4721 121.514-22.8748L121.514-61.5834Q121.514-68.9862 118.637-74.3407Q115.759-79.6951 110.404-82.6039Q105.05-85.5126 97.5796-85.5126L36.3957-85.5126Q28.9254-85.5126 23.5709-82.6066Q18.2164-79.7007 15.3387-74.3462Q12.4609-68.9917 12.4609-61.5834L12.4609-22.8748Q12.4609-15.4666 15.4101-10.1121Q18.3592-4.75758 23.5709-1.86571Q28.7827 1.02616 35.5392 1.02616L36.8986 1.02616L36.8986 15.0775Q36.8986 17.7279 38.2864 19.2858Q39.6742 20.8436 42.1091 20.8436ZM67.0278-34.9361Q61.7104-34.9361 61.4255-40.286L60.6536-61.3917Q60.5112-64.1471 62.2949-65.8739Q64.0787-67.6008 66.9993-67.6008Q69.8971-67.6008 71.6923-65.8598Q73.4874-64.1188 73.345-61.3634L72.5503-40.3431Q72.26-34.9361 67.0278-34.9361ZM67.0278-17.2943Q64.1205-17.2943 62.1196-18.9988Q60.1187-20.7033 60.1187-23.4909Q60.1187-26.2785 62.1196-27.9829Q64.1205-29.6873 67.0278-29.6873Q69.9634-29.6873 71.9385-27.9828Q73.9136-26.2782 73.9136-23.4909Q73.9136-20.6751 71.9385-18.9847Q69.9634-17.2943 67.0278-17.2943Z"/>
  </g>
  <g id="Semibold-M" transform="matrix(1 0 0 1 1976.55 1126)">
   <path d="M41.8768 20.055Q43.4652 20.055 44.8583 19.2749Q46.2514 18.4948 48.1602 16.7834L66.3448 0.451875L97.6211 0.488382Q105.017 0.488382 110.238-2.29682Q115.459-5.08203 118.222-10.321Q120.985-15.5599 120.985-22.8676L120.985-61.1067Q120.985-68.4144 118.222-73.6351Q115.459-78.8558 110.238-81.6592Q105.017-84.4627 97.6211-84.4627L35.8246-84.4627Q28.4286-84.4627 23.2079-81.6631Q17.9872-78.8634 15.2241-73.6427Q12.4609-68.4221 12.4609-61.1067L12.4609-22.8676Q12.4609-15.5523 15.2695-10.3316Q18.078-5.1109 23.2079-2.32951Q28.3378 0.451875 35.2799 0.451875L36.9612 0.451875L36.9612 14.5696Q36.9612 17.086 38.2633 18.5705Q39.5655 20.055 41.8768 20.055ZM66.7371-34.0439Q61.9494-34.0439 61.7311-38.9141L61.0113-62.0109Q60.9022-64.4746 62.5098-66.0366Q64.1173-67.5987 66.7189-67.5987Q69.2917-67.5987 70.9137-66.0184Q72.5357-64.438 72.4266-61.9744L71.6779-38.9505Q71.452-34.0439 66.7371-34.0439ZM66.7371-16.8801Q64.0923-16.8801 62.2292-18.5197Q60.366-20.1594 60.366-22.7239Q60.366-25.2884 62.2292-26.9372Q64.0923-28.586 66.7371-28.586Q69.4184-28.586 71.2672-26.9464Q73.1161-25.3067 73.1161-22.7239Q73.1161-20.1229 71.2672-18.5015Q69.4184-16.8801 66.7371-16.8801Z"/>
  </g>
  <g id="Medium-M" transform="matrix(1 0 0 1 1680.04 1126)">
   <path d="M41.7006 19.457Q43.2239 19.457 44.5347 18.6787Q45.8455 17.9005 47.6779 16.256L65.6277 0.0164287L97.6526 0.0592077Q104.992 0.0592077 110.112-2.64303Q115.231-5.34526 117.907-10.4859Q120.583-15.6265 120.583-22.8622L120.583-60.7452Q120.583-67.9809 117.907-73.1001Q115.231-78.2193 110.112-80.943Q104.992-83.6666 97.6526-83.6666L35.3916-83.6666Q28.0518-83.6666 22.9326-80.9476Q17.8134-78.2286 15.1372-73.1094Q12.4609-67.9902 12.4609-60.7452L12.4609-22.8622Q12.4609-15.6172 15.1629-10.498Q17.8648-5.37879 22.9326-2.68118Q28.0004 0.0164287 35.0833 0.0164287L37.0086 0.0164287L37.0086 14.1845Q37.0086 16.5993 38.2458 18.0281Q39.483 19.457 41.7006 19.457ZM66.5167-33.3674Q62.1306-33.3674 61.9628-37.8739L61.2826-62.4805Q61.1987-64.7229 62.6727-66.16Q64.1466-67.5971 66.5064-67.5971Q68.8326-67.5971 70.3233-66.1386Q71.814-64.6801 71.7302-62.4377L71.0164-37.8945Q70.8394-33.3674 66.5167-33.3674ZM66.5167-16.566Q64.071-16.566 62.3122-18.1565Q60.5535-19.7469 60.5535-22.1423Q60.5535-24.5376 62.3122-26.1443Q64.071-27.751 66.5167-27.751Q69.0051-27.751 70.7582-26.1606Q72.5113-24.5701 72.5113-22.1423Q72.5113-19.7041 70.7582-18.1351Q69.0051-16.566 66.5167-16.566Z"/>
  </g>
  <g id="Regular-M" transform="matrix(1 0 0 1 1383.59 1126)">
   <path d="M41.4707 18.677Q42.9091 18.677 44.1125 17.9011Q45.3159 17.1253 47.0487 15.5681L64.6923-0.551544L97.6938-0.500585Q104.96-0.500585 109.947-3.0946Q114.934-5.68861 117.497-10.701Q120.06-15.7133 120.06-22.8551L120.06-60.2737Q120.06-67.4154 117.497-72.4023Q114.934-77.3892 109.947-80.0087Q104.96-82.6282 97.6938-82.6282L34.8268-82.6282Q27.5604-82.6282 22.5735-80.0144Q17.5867-77.4005 15.0238-72.4137Q12.4609-67.4268 12.4609-60.2737L12.4609-22.8551Q12.4609-15.702 15.0238-10.7151Q17.5867-5.72822 22.5735-3.13988Q27.5604-0.551544 34.8268-0.551544L37.0705-0.551544L37.0705 13.6822Q37.0705 15.9644 38.223 17.3207Q39.3754 18.677 41.4707 18.677ZM66.2291-32.485Q62.367-32.485 62.2651-36.5171L61.6364-63.093Q61.5855-65.0467 62.8851-66.3209Q64.1848-67.5951 66.2291-67.5951Q68.2338-67.5951 69.5533-66.2954Q70.8728-64.9958 70.8218-63.042L70.1536-36.5171Q70.0403-32.485 66.2291-32.485ZM66.2291-16.1564Q64.0431-16.1564 62.4206-17.6826Q60.798-19.2089 60.798-21.3836Q60.798-23.5583 62.4206-25.1101Q64.0431-26.6618 66.2291-26.6618Q68.4661-26.6618 70.0943-25.1356Q71.7225-23.6093 71.7225-21.3836Q71.7225-19.158 70.0943-17.6572Q68.4661-16.1564 66.2291-16.1564Z"/>
  </g>
  <g id="Light-M" transform="matrix(1 0 0 1 1087.69 1126)">
   <path d="M39.8148 17.3338Q40.9588 17.3338 41.9414 16.7144Q42.9241 16.095 44.2337 14.9425L61.8957-0.845928L97.6938-0.813368Q104.316-0.813368 108.953-3.26939Q113.591-5.72541 116.016-10.379Q118.441-15.0326 118.441-21.5304L118.441-60.8256Q118.441-67.3234 116.016-71.9607Q113.591-76.598 108.953-79.0703Q104.316-81.5426 97.6938-81.5426L33.2077-81.5426Q26.5853-81.5426 21.948-79.0852Q17.3107-76.6278 14.8858-71.9905Q12.4609-67.3532 12.4609-60.8256L12.4609-21.5304Q12.4609-15.0028 14.8858-10.3655Q17.3107-5.72822 21.948-3.28708Q26.5853-0.845928 33.2077-0.845928L36.261-0.845928L36.261 13.3326Q36.261 15.1732 37.211 16.2535Q38.1611 17.3338 39.8148 17.3338ZM65.4196-32.2274Q62.367-32.2274 62.3019-35.5236L61.7652-62.1546Q61.7327-63.7404 62.7655-64.757Q63.7984-65.7736 65.4196-65.7736Q67.0379-65.7736 68.0722-64.7407Q69.1065-63.7078 69.0739-62.1221L68.5345-35.5236Q68.4396-32.2274 65.4196-32.2274ZM65.4196-16.8003Q63.5279-16.8003 62.1538-18.1242Q60.7796-19.4481 60.7796-21.31Q60.7796-23.172 62.1538-24.5121Q63.5279-25.8523 65.4196-25.8523Q67.3438-25.8523 68.7328-24.5284Q70.1218-23.2045 70.1218-21.31Q70.1218-19.4155 68.7328-18.1079Q67.3438-16.8003 65.4196-16.8003Z"/>
  </g>
  <g id="Thin-M" transform="matrix(1 0 0 1 792.052 1126)">
   <path d="M37.6247 15.5574Q38.3794 15.5574 39.07 15.1448Q39.7606 14.7323 40.5106 14.1151L58.1969-1.23527L97.6938-1.22705Q103.464-1.22705 107.639-3.50056Q111.814-5.77407 114.057-9.95314Q116.299-14.1322 116.299-19.7783L116.299-61.5557Q116.299-67.2018 114.057-71.3767Q111.814-75.5517 107.639-77.8293Q103.464-80.1069 97.6938-80.1069L31.0663-80.1069Q25.2956-80.1069 21.1206-77.8563Q16.9457-75.6058 14.7033-71.4308Q12.4609-67.2559 12.4609-61.5557L12.4609-19.7783Q12.4609-14.0781 14.7033-9.90317Q16.9457-5.72822 21.1206-3.48175Q25.2956-1.23527 31.0663-1.23527L35.1903-1.23527L35.1903 12.8703Q35.1903 14.1269 35.8727 14.8422Q36.555 15.5574 37.6247 15.5574ZM64.3489-31.8867Q62.367-31.8867 62.3505-34.2095L61.9356-60.9136Q61.9274-62.0127 62.6074-62.6886Q63.2874-63.3645 64.3489-63.3645Q65.4562-63.3645 66.1133-62.6845Q66.7704-62.0044 66.7622-60.9054L66.393-34.2095Q66.3225-31.8867 64.3489-31.8867ZM64.3489-17.652Q62.8465-17.652 61.8009-18.7082Q60.7553-19.7644 60.7553-21.2127Q60.7553-22.6609 61.8009-23.7213Q62.8465-24.7816 64.3489-24.7816Q65.8594-24.7816 66.9321-23.7254Q68.0047-22.6692 68.0047-21.2127Q68.0047-19.7562 66.9321-18.7041Q65.8594-17.652 64.3489-17.652Z"/>
  </g>
  <g id="Ultralight-M" transform="matrix(1 0 0 1 495.891 1126)">
   <path d="M36.503 14.6476Q37.0582 14.6476 37.5993 14.3409Q38.1403 14.0343 38.6036 13.6914L56.3024-1.4347L97.6938-1.43893Q103.028-1.43893 106.966-3.61897Q110.905-5.799 113.053-9.73502Q115.202-13.671 115.202-18.8809L115.202-61.9296Q115.202-67.1395 113.053-71.0776Q110.905-75.0157 106.966-77.1936Q103.028-79.3716 97.6938-79.3716L29.9695-79.3716Q24.635-79.3716 20.6968-77.2269Q16.7587-75.0823 14.6098-71.1441Q12.4609-67.206 12.4609-61.9296L12.4609-18.8809Q12.4609-13.6045 14.6098-9.66636Q16.7587-5.72822 20.6968-3.58146Q24.635-1.4347 29.9695-1.4347L34.6419-1.4347L34.6419 12.6335Q34.6419 13.5909 35.1871 14.1193Q35.7324 14.6476 36.503 14.6476ZM63.8005-31.7123Q62.367-31.7123 62.3755-33.5365L62.0228-60.2779Q62.0271-61.1277 62.5264-61.6292Q63.0257-62.1306 63.8005-62.1306Q64.646-62.1306 65.1099-61.6313Q65.5739-61.132 65.5781-60.2822L65.2962-33.5365Q65.2382-31.7123 63.8005-31.7123ZM63.8005-18.0883Q62.4976-18.0883 61.6202-19.0074Q60.7428-19.9265 60.7428-21.1628Q60.7428-22.3992 61.6202-23.3162Q62.4976-24.2332 63.8005-24.2332Q65.0991-24.2332 66.0098-23.3141Q66.9204-22.395 66.9204-21.1628Q66.9204-19.9307 66.0098-19.0095Q65.0991-18.0883 63.8005-18.0883Z"/>
  </g>
  <g id="Black-S" transform="matrix(1 0 0 1 2880.28 696)">
   <path d="M33.4961 10.6445Q35.0098 10.6445 36.4502 10.0342Q37.8906 9.42383 39.6973 7.8125L54.9805-5.37109L76.3672-5.37109Q82.373-5.37109 86.8896-7.91016Q91.4062-10.4492 93.9453-14.9658Q96.4844-19.4824 96.4844-25.4883L96.4844-57.1289Q96.4844-63.1348 93.9453-67.6514Q91.4062-72.168 86.8896-74.707Q82.373-77.2461 76.3672-77.2461L29.8828-77.2461Q23.877-77.2461 19.3604-74.707Q14.8438-72.168 12.3047-67.6514Q9.76562-63.1348 9.76562-57.1289L9.76562-25.4883Q9.76562-19.4824 12.4268-14.9658Q15.0879-10.4492 19.3604-7.91016Q23.6328-5.37109 28.418-5.37109L28.7109-5.37109L28.7109 5.46875Q28.7109 7.86133 30.0049 9.25293Q31.2988 10.6445 33.4961 10.6445ZM53.2227-37.2559Q47.7539-37.2559 47.3633-42.627L46.6309-54.1016Q46.4355-56.9824 48.2666-58.7402Q50.0977-60.498 53.1738-60.498Q56.25-60.498 58.0811-58.7402Q59.9121-56.9824 59.7168-54.1016L58.9844-42.7246Q58.5938-37.2559 53.2227-37.2559ZM53.2227-22.2656Q50.293-22.2656 48.3887-23.7549Q46.4844-25.2441 46.4844-27.9785Q46.4844-30.7129 48.3887-32.1777Q50.293-33.6426 53.2227-33.6426Q56.1523-33.6426 58.0078-32.1533Q59.8633-30.6641 59.8633-27.9785Q59.8633-25.2441 58.0078-23.7549Q56.1523-22.2656 53.2227-22.2656Z"/>
  </g>
  <g id="Heavy-S" transform="matrix(1 0 0 1 2583.75 696)">
   <path d="M33.45 9.94154Q34.906 9.94154 36.2543 9.3139Q37.6025 8.68626 39.3515 7.12103L54.289-5.97037L76.4133-5.95884Q82.4191-5.95884 86.832-8.39418Q91.2449-10.8295 93.6745-15.2482Q96.1041-19.6668 96.1041-25.6496L96.1041-56.5296Q96.1041-62.5124 93.6745-66.9253Q91.2449-71.3382 86.832-73.7793Q82.4191-76.2204 76.4133-76.2204L29.4564-76.2204Q23.4505-76.2204 19.0377-73.7793Q14.6248-71.3382 12.1952-66.9253Q9.76562-62.5124 9.76562-56.5296L9.76562-25.6496Q9.76562-19.6668 12.2885-15.2539Q14.8113-10.8411 19.0377-8.40571Q23.264-5.97037 28.3373-5.97037L28.8838-5.97037L28.8838 4.95015Q28.8838 7.25053 30.1086 8.59604Q31.3334 9.94154 33.45 9.94154ZM53.0037-36.2993Q48.019-36.2993 47.6975-41.2325L47.0112-54.9083Q46.8504-57.5125 48.5201-59.1205Q50.1899-60.7285 52.9664-60.7285Q55.7314-60.7285 57.4069-59.1148Q59.0823-57.501 58.9216-54.8968L58.2238-41.3071Q57.9023-36.2993 53.0037-36.2993ZM53.0037-21.724Q50.3275-21.724 48.5443-23.1671Q46.761-24.6103 46.761-27.1372Q46.761-29.6642 48.5443-31.0944Q50.3275-32.5247 53.0037-32.5247Q55.6914-32.5247 57.4374-31.0815Q59.1833-29.6384 59.1833-27.1372Q59.1833-24.5988 57.4374-23.1614Q55.6914-21.724 53.0037-21.724Z"/>
  </g>
  <g id="Bold-S" transform="matrix(1 0 0 1 2287.26 696)">
   <path d="M33.3984 9.15527Q34.79 9.15527 36.0352 8.5083Q37.2803 7.86133 38.9648 6.34766L53.5156-6.64062L76.4648-6.61621Q82.4707-6.61621 86.7676-8.93555Q91.0645-11.2549 93.3716-15.564Q95.6787-19.873 95.6787-25.8301L95.6787-55.8594Q95.6787-61.8164 93.3716-66.1133Q91.0645-70.4102 86.7676-72.7417Q82.4707-75.0732 76.4648-75.0732L28.9795-75.0732Q22.9736-75.0732 18.6768-72.7417Q14.3799-70.4102 12.0728-66.1133Q9.76562-61.8164 9.76562-55.8594L9.76562-25.8301Q9.76562-19.873 12.1338-15.5762Q14.502-11.2793 18.6768-8.95996Q22.8516-6.64062 28.2471-6.64062L29.0771-6.64062L29.0771 4.37012Q29.0771 6.56738 30.2246 7.86133Q31.3721 9.15527 33.3984 9.15527ZM52.7588-35.2295Q48.3154-35.2295 48.0713-39.6729L47.4365-55.8105Q47.3145-58.1055 48.8037-59.5459Q50.293-60.9863 52.7344-60.9863Q55.1514-60.9863 56.6528-59.5337Q58.1543-58.0811 58.0322-55.7861L57.373-39.7217Q57.1289-35.2295 52.7588-35.2295ZM52.7588-21.1182Q50.3662-21.1182 48.7183-22.5098Q47.0703-23.9014 47.0703-26.1963Q47.0703-28.4912 48.7183-29.8828Q50.3662-31.2744 52.7588-31.2744Q55.1758-31.2744 56.7993-29.8828Q58.4229-28.4912 58.4229-26.1963Q58.4229-23.877 56.7993-22.4976Q55.1758-21.1182 52.7588-21.1182Z"/>
  </g>
  <g id="Semibold-S" transform="matrix(1 0 0 1 1990.69 696)">
   <path d="M33.3629 8.61318Q34.7101 8.61318 35.8841 7.95288Q37.0581 7.29258 38.6982 5.81445L52.9824-7.10273L76.5004-7.06943Q82.5062-7.06943 86.7231-9.30879Q90.94-11.5481 93.1627-15.7817Q95.3854-20.0152 95.3854-25.9545L95.3854-55.3973Q95.3854-61.3365 93.1627-65.5534Q90.94-69.7703 86.7231-72.0263Q82.5062-74.2823 76.5004-74.2823L28.6507-74.2823Q22.6448-74.2823 18.4279-72.0263Q14.211-69.7703 11.9883-65.5534Q9.76562-61.3365 9.76562-55.3973L9.76562-25.9545Q9.76562-20.0152 12.0271-15.7983Q14.2887-11.5814 18.4279-9.34209Q22.5672-7.10273 28.1849-7.10273L29.2104-7.10273L29.2104 3.97021Q29.2104 6.09639 30.3046 7.35479Q31.3987 8.61318 33.3629 8.61318ZM52.5899-34.4919Q48.5198-34.4919 48.329-38.5976L47.7298-56.4326Q47.6344-58.5143 48.9992-59.8392Q50.3641-61.1641 52.5744-61.1641Q54.7515-61.1641 56.133-59.8225Q57.5145-58.481 57.419-56.3993L56.7865-38.6286Q56.5957-34.4919 52.5899-34.4919ZM52.5899-20.7005Q50.3929-20.7005 48.8382-22.0565Q47.2836-23.4126 47.2836-25.5476Q47.2836-27.6825 48.8382-29.0475Q50.3929-30.4124 52.5899-30.4124Q54.8203-30.4124 56.3594-29.0563Q57.8985-27.7003 57.8985-25.5476Q57.8985-23.3793 56.3594-22.0399Q54.8203-20.7005 52.5899-20.7005Z"/>
  </g>
  <g id="Medium-S" transform="matrix(1 0 0 1 1694.09 696)">
   <path d="M33.3359 8.20215Q34.6494 8.20215 35.7695 7.53174Q36.8896 6.86133 38.4961 5.41016L52.5781-7.45312L76.5273-7.41309Q82.5332-7.41309 86.6895-9.5918Q90.8457-11.7705 93.0044-15.9468Q95.1631-20.123 95.1631-26.0488L95.1631-55.0469Q95.1631-60.9727 93.0044-65.1289Q90.8457-69.2852 86.6895-71.4839Q82.5332-73.6826 76.5273-73.6826L28.4014-73.6826Q22.3955-73.6826 18.2393-71.4839Q14.083-69.2852 11.9243-65.1289Q9.76562-60.9727 9.76562-55.0469L9.76562-26.0488Q9.76562-20.123 11.9463-15.9668Q14.127-11.8105 18.2393-9.63184Q22.3516-7.45312 28.1377-7.45312L29.3115-7.45312L29.3115 3.66699Q29.3115 5.73926 30.3652 6.9707Q31.4189 8.20215 33.3359 8.20215ZM52.4619-33.9326Q48.6748-33.9326 48.5244-37.7822L47.9521-56.9043Q47.877-58.8242 49.1475-60.0615Q50.418-61.2988 52.4531-61.2988Q54.4482-61.2988 55.7388-60.0415Q57.0293-58.7842 56.9541-56.8643L56.3418-37.7998Q56.1914-33.9326 52.4619-33.9326ZM52.4619-20.3838Q50.4131-20.3838 48.9292-21.7129Q47.4453-23.042 47.4453-25.0557Q47.4453-27.0693 48.9292-28.4141Q50.4131-29.7588 52.4619-29.7588Q54.5508-29.7588 56.0259-28.4297Q57.501-27.1006 57.501-25.0557Q57.501-23.002 56.0259-21.6929Q54.5508-20.3838 52.4619-20.3838Z"/>
  </g>
  <g id="Regular-S" transform="matrix(1 0 0 1 1397.53 696)">
   <path d="M33.3008 7.66602Q34.5703 7.66602 35.6201 6.98242Q36.6699 6.29883 38.2324 4.88281L52.0508-7.91016L76.5625-7.86133Q82.5684-7.86133 86.6455-9.96094Q90.7227-12.0605 92.7979-16.1621Q94.873-20.2637 94.873-26.1719L94.873-54.5898Q94.873-60.498 92.7979-64.5752Q90.7227-68.6523 86.6455-70.7764Q82.5684-72.9004 76.5625-72.9004L28.0762-72.9004Q22.0703-72.9004 17.9932-70.7764Q13.916-68.6523 11.8408-64.5752Q9.76562-60.498 9.76562-54.5898L9.76562-26.1719Q9.76562-20.2637 11.8408-16.1865Q13.916-12.1094 17.9932-10.0098Q22.0703-7.91016 28.0762-7.91016L29.4434-7.91016L29.4434 3.27148Q29.4434 5.27344 30.4443 6.46973Q31.4453 7.66602 33.3008 7.66602ZM52.2949-33.2031Q48.877-33.2031 48.7793-36.7188L48.2422-57.5195Q48.1934-59.2285 49.3408-60.3516Q50.4883-61.4746 52.2949-61.4746Q54.0527-61.4746 55.2246-60.3271Q56.3965-59.1797 56.3477-57.4707L55.7617-36.7188Q55.6641-33.2031 52.2949-33.2031ZM52.2949-19.9707Q50.4395-19.9707 49.0479-21.2646Q47.6562-22.5586 47.6562-24.4141Q47.6562-26.2695 49.0479-27.5879Q50.4395-28.9062 52.2949-28.9062Q54.1992-28.9062 55.5908-27.6123Q56.9824-26.3184 56.9824-24.4141Q56.9824-22.5098 55.5908-21.2402Q54.1992-19.9707 52.2949-19.9707Z"/>
  </g>
  <g id="Light-S" transform="matrix(1 0 0 1 1101.53 696)">
   <path d="M31.8359 6.47786Q32.8451 6.47786 33.6995 5.93262Q34.554 5.38737 35.7422 4.32943L49.5768-8.17057L76.5625-8.13802Q81.9987-8.13802 85.7666-10.1156Q89.5345-12.0931 91.4876-15.8773Q93.4408-19.6615 93.4408-25L93.4408-55.0781Q93.4408-60.4167 91.4876-64.1846Q89.5345-67.9525 85.7666-69.9463Q81.9987-71.9401 76.5625-71.9401L26.6439-71.9401Q21.2077-71.9401 17.4398-69.9544Q13.6719-67.9688 11.7188-64.2008Q9.76562-60.4329 9.76562-55.0781L9.76562-25Q9.76562-19.6452 11.7188-15.8773Q13.6719-12.1094 17.4398-10.14Q21.2077-8.17057 26.6439-8.17057L28.7272-8.17057L28.7272 2.96224Q28.7272 4.57357 29.5492 5.52572Q30.3711 6.47786 31.8359 6.47786ZM51.5788-32.9753Q48.877-32.9753 48.8118-35.8398L48.3561-56.6895Q48.3236-58.0729 49.235-58.9681Q50.1465-59.8633 51.5788-59.8633Q52.9948-59.8633 53.9144-58.9518Q54.834-58.0404 54.8014-56.6569L54.3294-35.8398Q54.248-32.9753 51.5788-32.9753ZM51.5788-20.5404Q49.9837-20.5404 48.8118-21.6553Q47.64-22.7702 47.64-24.349Q47.64-25.9277 48.8118-27.0589Q49.9837-28.1901 51.5788-28.1901Q53.2064-28.1901 54.3864-27.0752Q55.5664-25.9603 55.5664-24.349Q55.5664-22.7376 54.3864-21.639Q53.2064-20.5404 51.5788-20.5404Z"/>
  </g>
  <g id="Thin-S" transform="matrix(1 0 0 1 805.773 696)">
   <path d="M29.8986 4.90644Q30.5633 4.90644 31.1594 4.54417Q31.7556 4.18189 32.4487 3.59753L46.3048-8.51499L76.5625-8.50397Q81.2453-8.50397 84.6042-10.3201Q87.9631-12.1362 89.7548-15.5006Q91.5464-18.865 91.5464-23.4501L91.5464-55.7239Q91.5464-60.309 89.7548-63.6679Q87.9631-67.0268 84.6042-68.8484Q81.2453-70.67 76.5625-70.67L24.7496-70.67Q20.0668-70.67 16.7079-68.8673Q13.349-67.0646 11.5573-63.7057Q9.76562-60.3468 9.76562-55.7239L9.76562-23.4501Q9.76562-18.8272 11.5573-15.4683Q13.349-12.1094 16.7079-10.3122Q20.0668-8.51499 24.7496-8.51499L27.7801-8.51499L27.7801 2.55324Q27.7801 3.64793 28.3652 4.27719Q28.9504 4.90644 29.8986 4.90644ZM50.6316-32.6739Q48.877-32.6739 48.8549-34.6774L48.5068-55.5916Q48.4958-56.5445 49.0951-57.1384Q49.6944-57.7322 50.6316-57.7322Q51.5956-57.7322 52.1815-57.1328Q52.7675-56.5335 52.7564-55.5806L52.4351-34.6774Q52.3753-32.6739 50.6316-32.6739ZM50.6316-21.2938Q49.381-21.2938 48.4997-22.1719Q47.6184-23.05 47.6184-24.2629Q47.6184-25.4757 48.4997-26.3593Q49.381-27.2429 50.6316-27.2429Q51.8933-27.2429 52.7934-26.3648Q53.6936-25.4867 53.6936-24.2629Q53.6936-23.039 52.7934-22.1664Q51.8933-21.2938 50.6316-21.2938Z"/>
  </g>
  <g id="Ultralight-S" transform="matrix(1 0 0 1 509.549 696)">
   <path d="M28.9062 4.10156Q29.3945 4.10156 29.8584 3.83301Q30.3223 3.56445 30.7617 3.22266L44.6289-8.69141L76.5625-8.69141Q80.8594-8.69141 84.0088-10.4248Q87.1582-12.1582 88.8672-15.3076Q90.5762-18.457 90.5762-22.6562L90.5762-56.0547Q90.5762-60.2539 88.8672-63.4033Q87.1582-66.5527 84.0088-68.2861Q80.8594-70.0195 76.5625-70.0195L23.7793-70.0195Q19.4824-70.0195 16.333-68.3105Q13.1836-66.6016 11.4746-63.4521Q9.76562-60.3027 9.76562-56.0547L9.76562-22.6562Q9.76562-18.4082 11.4746-15.2588Q13.1836-12.1094 16.333-10.4004Q19.4824-8.69141 23.7793-8.69141L27.2949-8.69141L27.2949 2.34375Q27.2949 3.17383 27.7588 3.6377Q28.2227 4.10156 28.9062 4.10156ZM50.1465-32.5195Q48.877-32.5195 48.877-34.082L48.584-55.0293Q48.584-55.7617 49.0234-56.2012Q49.4629-56.6406 50.1465-56.6406Q50.8789-56.6406 51.2939-56.2012Q51.709-55.7617 51.709-55.0293L51.4648-34.082Q51.416-32.5195 50.1465-32.5195ZM50.1465-21.6797Q49.0723-21.6797 48.3398-22.4365Q47.6074-23.1934 47.6074-24.2188Q47.6074-25.2441 48.3398-26.001Q49.0723-26.7578 50.1465-26.7578Q51.2207-26.7578 51.9775-26.001Q52.7344-25.2441 52.7344-24.2188Q52.7344-23.1934 51.9775-22.4365Q51.2207-21.6797 50.1465-21.6797Z"/>
  </g>
 </g>
</svg>
