<?xml version="1.0" encoding="UTF-8"?>
<!--Generator: Apple Native CoreSVG 175-->
<!DOCTYPE svg
PUBLIC "-//W3C//DTD SVG 1.1//EN"
       "http://www.w3.org/Graphics/SVG/1.1/DTD/svg11.dtd">
<svg version="1.1" xmlns="http://www.w3.org/2000/svg" xmlns:xlink="http://www.w3.org/1999/xlink" width="3300" height="2200">
 <!--glyph: "uni100EC0.medium", point size: 100.0, font version: "17.1d1e1", template writer version: "65.1"-->
 <g id="Notes">
  <rect height="2200" id="artboard" style="fill:white;opacity:1" width="3300" x="0" y="0"/>
  <line style="fill:none;stroke:black;opacity:1;stroke-width:0.5;" x1="263" x2="3036" y1="292" y2="292"/>
  <text style="stroke:none;fill:black;font-family:sans-serif;font-size:13;font-weight:bold;" transform="matrix(1 0 0 1 263 322)">Weight/Scale Variations</text>
  <text style="stroke:none;fill:black;font-family:sans-serif;font-size:13;text-anchor:middle;" transform="matrix(1 0 0 1 559.711 322)">Ultralight</text>
  <text style="stroke:none;fill:black;font-family:sans-serif;font-size:13;text-anchor:middle;" transform="matrix(1 0 0 1 856.422 322)">Thin</text>
  <text style="stroke:none;fill:black;font-family:sans-serif;font-size:13;text-anchor:middle;" transform="matrix(1 0 0 1 1153.13 322)">Light</text>
  <text style="stroke:none;fill:black;font-family:sans-serif;font-size:13;text-anchor:middle;" transform="matrix(1 0 0 1 1449.84 322)">Regular</text>
  <text style="stroke:none;fill:black;font-family:sans-serif;font-size:13;text-anchor:middle;" transform="matrix(1 0 0 1 1746.56 322)">Medium</text>
  <text style="stroke:none;fill:black;font-family:sans-serif;font-size:13;text-anchor:middle;" transform="matrix(1 0 0 1 2043.27 322)">Semibold</text>
  <text style="stroke:none;fill:black;font-family:sans-serif;font-size:13;text-anchor:middle;" transform="matrix(1 0 0 1 2339.98 322)">Bold</text>
  <text style="stroke:none;fill:black;font-family:sans-serif;font-size:13;text-anchor:middle;" transform="matrix(1 0 0 1 2636.69 322)">Heavy</text>
  <text style="stroke:none;fill:black;font-family:sans-serif;font-size:13;text-anchor:middle;" transform="matrix(1 0 0 1 2933.4 322)">Black</text>
  <line style="fill:none;stroke:black;opacity:1;stroke-width:0.5;" x1="263" x2="3036" y1="1903" y2="1903"/>
  <g transform="matrix(1 0 0 1 263 1933)">
   <path d="M9.24805 0.830078Q10.8691 0.830078 12.2949 0.214844Q13.7207-0.400391 14.8096-1.49414Q15.8984-2.58789 16.5186-4.01367Q17.1387-5.43945 17.1387-7.05078Q17.1387-8.66211 16.5186-10.0879Q15.8984-11.5137 14.8047-12.6074Q13.7109-13.7012 12.2852-14.3164Q10.8594-14.9316 9.23828-14.9316Q7.62695-14.9316 6.20117-14.3164Q4.77539-13.7012 3.69141-12.6074Q2.60742-11.5137 1.9873-10.0879Q1.36719-8.66211 1.36719-7.05078Q1.36719-5.43945 1.9873-4.01367Q2.60742-2.58789 3.69629-1.49414Q4.78516-0.400391 6.21094 0.214844Q7.63672 0.830078 9.24805 0.830078ZM9.24805-0.654297Q7.91992-0.654297 6.7627-1.14746Q5.60547-1.64062 4.73145-2.51953Q3.85742-3.39844 3.36426-4.56055Q2.87109-5.72266 2.87109-7.05078Q2.87109-8.37891 3.35938-9.54102Q3.84766-10.7031 4.72168-11.582Q5.5957-12.4609 6.75293-12.9541Q7.91016-13.4473 9.23828-13.4473Q10.5762-13.4473 11.7334-12.9541Q12.8906-12.4609 13.7695-11.582Q14.6484-10.7031 15.1465-9.54102Q15.6445-8.37891 15.6445-7.05078Q15.6445-5.72266 15.1514-4.56055Q14.6582-3.39844 13.7842-2.51953Q12.9102-1.64062 11.748-1.14746Q10.5859-0.654297 9.24805-0.654297ZM5.6543-7.05078Q5.6543-6.72852 5.85938-6.52832Q6.06445-6.32812 6.40625-6.32812L8.51562-6.32812L8.51562-4.20898Q8.51562-3.88672 8.71094-3.67676Q8.90625-3.4668 9.23828-3.4668Q9.56055-3.4668 9.77051-3.67676Q9.98047-3.88672 9.98047-4.20898L9.98047-6.32812L12.0898-6.32812Q12.4219-6.32812 12.627-6.52832Q12.832-6.72852 12.832-7.05078Q12.832-7.38281 12.627-7.58789Q12.4219-7.79297 12.0898-7.79297L9.98047-7.79297L9.98047-9.90234Q9.98047-10.2344 9.77051-10.4443Q9.56055-10.6543 9.23828-10.6543Q8.90625-10.6543 8.71094-10.4443Q8.51562-10.2344 8.51562-9.90234L8.51562-7.79297L6.40625-7.79297Q6.06445-7.79297 5.85938-7.58789Q5.6543-7.38281 5.6543-7.05078Z"/>
  </g>
  <g transform="matrix(1 0 0 1 281.867 1933)">
   <path d="M11.709 2.91016Q13.75 2.91016 15.5518 2.12891Q17.3535 1.34766 18.7305-0.0292969Q20.1074-1.40625 20.8887-3.20801Q21.6699-5.00977 21.6699-7.05078Q21.6699-9.0918 20.8887-10.8936Q20.1074-12.6953 18.7305-14.0723Q17.3535-15.4492 15.5469-16.2305Q13.7402-17.0117 11.6992-17.0117Q9.6582-17.0117 7.85645-16.2305Q6.05469-15.4492 4.68262-14.0723Q3.31055-12.6953 2.5293-10.8936Q1.74805-9.0918 1.74805-7.05078Q1.74805-5.00977 2.5293-3.20801Q3.31055-1.40625 4.6875-0.0292969Q6.06445 1.34766 7.86621 2.12891Q9.66797 2.91016 11.709 2.91016ZM11.709 1.25Q9.98047 1.25 8.47656 0.605469Q6.97266-0.0390625 5.83496-1.17676Q4.69727-2.31445 4.05762-3.81836Q3.41797-5.32227 3.41797-7.05078Q3.41797-8.7793 4.05762-10.2832Q4.69727-11.7871 5.83008-12.9297Q6.96289-14.0723 8.4668-14.7119Q9.9707-15.3516 11.6992-15.3516Q13.4277-15.3516 14.9316-14.7119Q16.4355-14.0723 17.5781-12.9297Q18.7207-11.7871 19.3652-10.2832Q20.0098-8.7793 20.0098-7.05078Q20.0098-5.32227 19.3701-3.81836Q18.7305-2.31445 17.5928-1.17676Q16.4551-0.0390625 14.9463 0.605469Q13.4375 1.25 11.709 1.25ZM7.17773-7.05078Q7.17773-6.69922 7.41211-6.47461Q7.64648-6.25 8.01758-6.25L10.8887-6.25L10.8887-3.36914Q10.8887-2.99805 11.1133-2.76855Q11.3379-2.53906 11.6895-2.53906Q12.0605-2.53906 12.29-2.76855Q12.5195-2.99805 12.5195-3.36914L12.5195-6.25L15.4004-6.25Q15.7715-6.25 16.001-6.47461Q16.2305-6.69922 16.2305-7.05078Q16.2305-7.42188 16.001-7.65137Q15.7715-7.88086 15.4004-7.88086L12.5195-7.88086L12.5195-10.752Q12.5195-11.1328 12.29-11.3623Q12.0605-11.5918 11.6895-11.5918Q11.3379-11.5918 11.1133-11.3574Q10.8887-11.123 10.8887-10.752L10.8887-7.88086L8.01758-7.88086Q7.63672-7.88086 7.40723-7.65137Q7.17773-7.42188 7.17773-7.05078Z"/>
  </g>
  <g transform="matrix(1 0 0 1 305.646 1933)">
   <path d="M14.9707 5.66406Q17.0605 5.66406 18.96 5.01465Q20.8594 4.36523 22.4512 3.19336Q24.043 2.02148 25.2197 0.429688Q26.3965-1.16211 27.0459-3.06641Q27.6953-4.9707 27.6953-7.05078Q27.6953-9.14062 27.0459-11.04Q26.3965-12.9395 25.2197-14.5312Q24.043-16.123 22.4512-17.2998Q20.8594-18.4766 18.9551-19.126Q17.0508-19.7754 14.9609-19.7754Q12.8711-19.7754 10.9717-19.126Q9.07227-18.4766 7.48535-17.2998Q5.89844-16.123 4.72168-14.5312Q3.54492-12.9395 2.90039-11.04Q2.25586-9.14062 2.25586-7.05078Q2.25586-4.9707 2.90527-3.06641Q3.55469-1.16211 4.72656 0.429688Q5.89844 2.02148 7.49023 3.19336Q9.08203 4.36523 10.9814 5.01465Q12.8809 5.66406 14.9707 5.66406ZM14.9707 3.84766Q13.1641 3.84766 11.5283 3.2959Q9.89258 2.74414 8.53516 1.74805Q7.17773 0.751953 6.17676-0.610352Q5.17578-1.97266 4.62891-3.6084Q4.08203-5.24414 4.08203-7.05078Q4.08203-8.86719 4.62891-10.5029Q5.17578-12.1387 6.17188-13.501Q7.16797-14.8633 8.52539-15.8594Q9.88281-16.8555 11.5186-17.4023Q13.1543-17.9492 14.9609-17.9492Q16.7773-17.9492 18.4131-17.4023Q20.0488-16.8555 21.4111-15.8594Q22.7734-14.8633 23.7695-13.501Q24.7656-12.1387 25.3174-10.5029Q25.8691-8.86719 25.8691-7.05078Q25.8789-5.24414 25.332-3.6084Q24.7852-1.97266 23.7842-0.610352Q22.7832 0.751953 21.4209 1.74805Q20.0586 2.74414 18.4229 3.2959Q16.7871 3.84766 14.9707 3.84766ZM9.19922-7.05078Q9.19922-6.66992 9.45801-6.4209Q9.7168-6.17188 10.1172-6.17188L14.0625-6.17188L14.0625-2.2168Q14.0625-1.81641 14.3115-1.55762Q14.5605-1.29883 14.9512-1.29883Q15.3516-1.29883 15.6104-1.55273Q15.8691-1.80664 15.8691-2.2168L15.8691-6.17188L19.8242-6.17188Q20.2246-6.17188 20.4785-6.4209Q20.7324-6.66992 20.7324-7.05078Q20.7324-7.46094 20.4785-7.71484Q20.2246-7.96875 19.8242-7.96875L15.8691-7.96875L15.8691-11.9141Q15.8691-12.3242 15.6104-12.583Q15.3516-12.8418 14.9512-12.8418Q14.5605-12.8418 14.3115-12.583Q14.0625-12.3242 14.0625-11.9141L14.0625-7.96875L10.1172-7.96875Q9.70703-7.96875 9.45312-7.71484Q9.19922-7.46094 9.19922-7.05078Z"/>
  </g>
  <text style="stroke:none;fill:black;font-family:sans-serif;font-size:13;font-weight:bold;" transform="matrix(1 0 0 1 263 1953)">Design Variations</text>
  <text style="stroke:none;fill:black;font-family:sans-serif;font-size:13;" transform="matrix(1 0 0 1 263 1971)">Symbols are supported in up to nine weights and three scales.</text>
  <text style="stroke:none;fill:black;font-family:sans-serif;font-size:13;" transform="matrix(1 0 0 1 263 1989)">For optimal layout with text and other symbols, vertically align</text>
  <text style="stroke:none;fill:black;font-family:sans-serif;font-size:13;" transform="matrix(1 0 0 1 263 2007)">symbols with the adjacent text.</text>
  <line style="fill:none;stroke:#00AEEF;stroke-width:0.5;opacity:1.0;" x1="776" x2="776" y1="1919" y2="1933"/>
  <g transform="matrix(1 0 0 1 776 1933)">
   <path d="M3.31055 0.15625Q3.70117 0.15625 3.91602-0.00976562Q4.13086-0.175781 4.26758-0.585938L5.52734-4.0332L11.2891-4.0332L12.5488-0.585938Q12.6855-0.175781 12.9004-0.00976562Q13.1152 0.15625 13.4961 0.15625Q13.8867 0.15625 14.1162-0.0585938Q14.3457-0.273438 14.3457-0.644531Q14.3457-0.869141 14.2383-1.17188L9.6582-13.3691Q9.48242-13.8184 9.17969-14.043Q8.87695-14.2676 8.4082-14.2676Q7.5-14.2676 7.17773-13.3789L2.59766-1.16211Q2.49023-0.859375 2.49023-0.634766Q2.49023-0.263672 2.70996-0.0537109Q2.92969 0.15625 3.31055 0.15625ZM6.00586-5.51758L8.37891-12.0898L8.42773-12.0898L10.8008-5.51758Z"/>
  </g>
  <line style="fill:none;stroke:#00AEEF;stroke-width:0.5;opacity:1.0;" x1="793.197" x2="793.197" y1="1919" y2="1933"/>
  <text style="stroke:none;fill:black;font-family:sans-serif;font-size:13;font-weight:bold;" transform="matrix(1 0 0 1 776 1953)">Margins</text>
  <text style="stroke:none;fill:black;font-family:sans-serif;font-size:13;" transform="matrix(1 0 0 1 776 1971)">Leading and trailing margins on the left and right side of each symbol</text>
  <text style="stroke:none;fill:black;font-family:sans-serif;font-size:13;" transform="matrix(1 0 0 1 776 1989)">can be adjusted by modifying the x-location of the margin guidelines.</text>
  <text style="stroke:none;fill:black;font-family:sans-serif;font-size:13;" transform="matrix(1 0 0 1 776 2007)">Modifications are automatically applied proportionally to all</text>
  <text style="stroke:none;fill:black;font-family:sans-serif;font-size:13;" transform="matrix(1 0 0 1 776 2025)">scales and weights.</text>
  <g transform="matrix(1 0 0 1 1289 1933)">
   <path d="M2.8418 1.86523L4.54102 3.57422Q5.18555 4.22852 5.90332 4.17969Q6.62109 4.13086 7.31445 3.35938L18.0078-8.42773L17.041-9.4043L6.42578 2.27539Q6.16211 2.57812 5.89355 2.61719Q5.625 2.65625 5.27344 2.30469L4.10156 1.14258Q3.75 0.791016 3.79395 0.522461Q3.83789 0.253906 4.14062-0.0195312L15.6152-10.8203L14.6387-11.7871L3.04688-0.898438Q2.30469-0.214844 2.25098 0.498047Q2.19727 1.21094 2.8418 1.86523ZM9.25781-16.3281Q8.94531-16.0254 8.90625-15.6348Q8.86719-15.2441 9.04297-14.9512Q9.21875-14.6777 9.55566-14.541Q9.89258-14.4043 10.3809-14.5215Q11.4746-14.7754 12.5977-14.7314Q13.7207-14.6875 14.7949-13.9844L14.209-12.5293Q13.9551-11.9043 14.0674-11.4404Q14.1797-10.9766 14.5801-10.5664L16.875-8.25195Q17.2363-7.88086 17.5781-7.82227Q17.9199-7.76367 18.3398-7.8418L19.4043-8.03711L20.0684-7.36328L20.0293-6.80664Q20-6.43555 20.1221-6.12305Q20.2441-5.81055 20.6055-5.44922L21.3672-4.70703Q21.7285-4.3457 22.1533-4.33105Q22.5781-4.31641 22.9297-4.66797L25.8398-7.58789Q26.1914-7.93945 26.1816-8.35449Q26.1719-8.76953 25.8105-9.13086L25.0391-9.89258Q24.6875-10.2539 24.3799-10.3857Q24.0723-10.5176 23.7109-10.4883L23.1348-10.4395L22.4902-11.0742L22.7344-12.1973Q22.832-12.6172 22.6953-12.9834Q22.5586-13.3496 22.1191-13.7891L19.9219-15.9766Q18.6719-17.2168 17.2607-17.8369Q15.8496-18.457 14.4189-18.4814Q12.9883-18.5059 11.665-17.959Q10.3418-17.4121 9.25781-16.3281ZM10.752-15.957Q11.6602-16.6211 12.7002-16.9043Q13.7402-17.1875 14.8047-17.085Q15.8691-16.9824 16.8701-16.5137Q17.8711-16.0449 18.7012-15.2051L21.1328-12.793Q21.3086-12.6172 21.3525-12.4512Q21.3965-12.2852 21.3379-12.0312L21.0156-10.5469L22.5195-9.0625L23.5059-9.12109Q23.6914-9.13086 23.7891-9.09668Q23.8867-9.0625 24.0332-8.91602L24.6094-8.33984L22.168-5.89844L21.5918-6.47461Q21.4453-6.62109 21.4062-6.71875Q21.3672-6.81641 21.377-7.01172L21.4453-7.98828L19.9512-9.47266L18.4277-9.21875Q18.1836-9.16992 18.042-9.2041Q17.9004-9.23828 17.7148-9.41406L15.7129-11.416Q15.5176-11.5918 15.4932-11.7529Q15.4688-11.9141 15.5859-12.1875L16.4648-14.2773Q15.293-15.3711 13.8281-15.791Q12.3633-16.2109 10.8398-15.7617Q10.7227-15.7324 10.6885-15.8057Q10.6543-15.8789 10.752-15.957Z"/>
  </g>
  <text style="stroke:none;fill:black;font-family:sans-serif;font-size:13;font-weight:bold;" transform="matrix(1 0 0 1 1289 1953)">Exporting</text>
  <text style="stroke:none;fill:black;font-family:sans-serif;font-size:13;" transform="matrix(1 0 0 1 1289 1971)">Symbols should be outlined when exporting to ensure the</text>
  <text style="stroke:none;fill:black;font-family:sans-serif;font-size:13;" transform="matrix(1 0 0 1 1289 1989)">design is preserved when submitting to Xcode.</text>
  <text id="template-version" style="stroke:none;fill:black;font-family:sans-serif;font-size:13;text-anchor:end;" transform="matrix(1 0 0 1 3036 1933)">Template v.3.0</text>
  <text style="stroke:none;fill:black;font-family:sans-serif;font-size:13;text-anchor:end;" transform="matrix(1 0 0 1 3036 1951)">Requires Xcode 13 or greater</text>
  <text id="descriptive-name" style="stroke:none;fill:black;font-family:sans-serif;font-size:13;text-anchor:end;" transform="matrix(1 0 0 1 3036 1969)">Generated from xmark.app.fill</text>
  <text style="stroke:none;fill:black;font-family:sans-serif;font-size:13;text-anchor:end;" transform="matrix(1 0 0 1 3036 1987)">Typeset at 100 points</text>
  <text style="stroke:none;fill:black;font-family:sans-serif;font-size:13;" transform="matrix(1 0 0 1 263 726)">Small</text>
  <text style="stroke:none;fill:black;font-family:sans-serif;font-size:13;" transform="matrix(1 0 0 1 263 1156)">Medium</text>
  <text style="stroke:none;fill:black;font-family:sans-serif;font-size:13;" transform="matrix(1 0 0 1 263 1586)">Large</text>
 </g>
 <g id="Guides">
  <g id="H-reference" style="fill:#27AAE1;stroke:none;" transform="matrix(1 0 0 1 339 696)">
   <path d="M0.993347 0L3.6377 0L29.3282-67.1326L30.0301-67.1326L30.0301-70.459L28.1227-70.459ZM11.6882-24.4797L46.9818-24.4797L46.2311-26.7288L12.4382-26.7288ZM55.1193 0L57.7637 0L30.6381-70.459L29.4327-70.459L29.4327-67.1326Z"/>
  </g>
  <line id="Baseline-S" style="fill:none;stroke:#27AAE1;opacity:1;stroke-width:0.5;" x1="263" x2="3036" y1="696" y2="696"/>
  <line id="Capline-S" style="fill:none;stroke:#27AAE1;opacity:1;stroke-width:0.5;" x1="263" x2="3036" y1="625.541" y2="625.541"/>
  <g id="H-reference" style="fill:#27AAE1;stroke:none;" transform="matrix(1 0 0 1 339 1126)">
   <path d="M0.993347 0L3.6377 0L29.3282-67.1326L30.0301-67.1326L30.0301-70.459L28.1227-70.459ZM11.6882-24.4797L46.9818-24.4797L46.2311-26.7288L12.4382-26.7288ZM55.1193 0L57.7637 0L30.6381-70.459L29.4327-70.459L29.4327-67.1326Z"/>
  </g>
  <line id="Baseline-M" style="fill:none;stroke:#27AAE1;opacity:1;stroke-width:0.5;" x1="263" x2="3036" y1="1126" y2="1126"/>
  <line id="Capline-M" style="fill:none;stroke:#27AAE1;opacity:1;stroke-width:0.5;" x1="263" x2="3036" y1="1055.54" y2="1055.54"/>
  <g id="H-reference" style="fill:#27AAE1;stroke:none;" transform="matrix(1 0 0 1 339 1556)">
   <path d="M0.993347 0L3.6377 0L29.3282-67.1326L30.0301-67.1326L30.0301-70.459L28.1227-70.459ZM11.6882-24.4797L46.9818-24.4797L46.2311-26.7288L12.4382-26.7288ZM55.1193 0L57.7637 0L30.6381-70.459L29.4327-70.459L29.4327-67.1326Z"/>
  </g>
  <line id="Baseline-L" style="fill:none;stroke:#27AAE1;opacity:1;stroke-width:0.5;" x1="263" x2="3036" y1="1556" y2="1556"/>
  <line id="Capline-L" style="fill:none;stroke:#27AAE1;opacity:1;stroke-width:0.5;" x1="263" x2="3036" y1="1485.54" y2="1485.54"/>
  <line id="left-margin-Regular-M" style="fill:none;stroke:#00AEEF;stroke-width:0.5;opacity:1.0;" x1="1392.97" x2="1392.97" y1="1030.79" y2="1150.12"/>
  <line id="right-margin-Regular-M" style="fill:none;stroke:#00AEEF;stroke-width:0.5;opacity:1.0;" x1="1506.72" x2="1506.72" y1="1030.79" y2="1150.12"/>
 </g>
 <g id="Symbols">
  <g id="Black-L" transform="matrix(1 0 0 1 2856.48 1556)">
   <path d="M129.108-87.3249Q124.045-92.3305 117.084-94.1935Q110.123-96.0565 99.8055-96.0565L54.0257-96.0565Q43.7188-96.0565 36.7298-94.1929Q29.7408-92.3292 24.7365-87.3236Q19.7529-82.34 17.9184-75.4503Q16.084-68.5605 16.084-58.1355L16.084-12.3363Q16.084-1.89967 17.9178 4.99136Q19.7516 11.8824 24.7352 16.8867Q29.7992 21.8703 36.7596 23.7443Q43.7201 25.6183 54.0386 25.6183L99.8055 25.6183Q110.123 25.6183 117.123 23.7443Q124.124 21.8703 129.108 16.8867Q134.093 11.8811 135.926 4.99071Q137.759-1.89967 137.759-12.3363L137.759-58.1032Q137.759-68.5592 135.926-75.4801Q134.093-82.401 129.108-87.3249ZM57.8619-7.79779Q54.3057-7.79779 51.8646-10.2486Q49.4235-12.6994 49.4235-16.3336Q49.4235-19.7146 51.9729-22.1473L64.8981-35.1309L51.9729-48.1145Q49.4235-50.5471 49.4235-53.9282Q49.4235-57.5623 51.8646-59.9918Q54.3057-62.4212 57.8619-62.4212Q61.6298-62.4212 64.1222-59.9509L76.911-47.1815L89.801-59.9716Q92.2921-62.464 96.0613-62.464Q99.6383-62.464 102.079-60.0235Q104.52-57.583 104.52-53.9696Q104.52-50.5678 101.95-48.1352L89.0628-35.1309L101.93-22.168Q104.5-19.7561 104.5-16.3336Q104.5-12.6994 102.048-10.2486Q99.5968-7.79779 96.0198-7.79779Q92.1884-7.79779 89.7181-10.2902L76.911-23.0011L64.1844-10.2902Q61.692-7.79779 57.8619-7.79779Z"/>
  </g>
  <g id="Heavy-L" transform="matrix(1 0 0 1 2560.66 1556)">
   <path d="M127.64-86.7642Q122.659-91.7071 115.795-93.4372Q108.931-95.1674 99.1202-95.1674L52.8724-95.1674Q43.1102-95.1674 36.23-93.4342Q29.3497-91.7011 24.4128-86.7581Q19.5057-81.851 17.7948-75.0586Q16.084-68.2662 16.084-58.4087L16.084-12.1372Q16.084-2.22539 17.7918 4.57303Q19.4996 11.3715 24.4068 16.3084Q29.3944 21.2155 36.2553 22.9636Q43.1163 24.7116 52.9327 24.7116L99.1202 24.7116Q108.931 24.7116 115.832 22.9636Q122.733 21.2155 127.64 16.3084Q132.553 11.3654 134.258 4.57001Q135.963-2.22539 135.963-12.1372L135.963-58.3247Q135.963-68.2602 134.258-75.0839Q132.553-81.9077 127.64-86.7642ZM56.4585-8.1037Q53.2682-8.1037 51.0658-10.3179Q48.8635-12.5321 48.8635-15.7908Q48.8635-18.8473 51.1493-21.0438L65.2055-35.1447L51.1493-49.2455Q48.8635-51.442 48.8635-54.4985Q48.8635-57.7573 51.0658-59.9387Q53.2682-62.1201 56.4585-62.1201Q59.7916-62.1201 62.0387-59.9087L76.0086-45.9626L90.0886-59.9385Q92.3297-62.1856 95.6688-62.1856Q98.889-62.1856 101.091-59.9863Q103.294-57.787 103.294-54.5581Q103.294-51.4718 100.978-49.2753L86.9367-35.1447L100.948-21.0735Q103.264-18.9068 103.264-15.7908Q103.264-12.5321 101.047-10.3179Q98.8294-8.1037 95.6093-8.1037Q92.1809-8.1037 89.9696-10.3508L76.0086-24.2523L62.128-10.3508Q59.8809-8.1037 56.4585-8.1037Z"/>
  </g>
  <g id="Bold-L" transform="matrix(1 0 0 1 2265.08 1556)">
   <path d="M125.794-86.0477Q120.961-90.8658 114.26-92.4545Q107.56-94.0433 98.2558-94.0433L51.4095-94.0433Q42.2193-94.0433 35.5183-92.4474Q28.8173-90.8516 24.0134-86.0334Q19.2464-81.2665 17.6652-74.642Q16.084-68.0175 16.084-58.7547L16.084-11.8856Q16.084-2.49478 17.6581 4.14393Q19.2322 10.7826 23.9992 15.5866Q28.8465 20.3535 35.54 21.9679Q42.2336 23.5822 51.5518 23.5822L98.2558 23.5822Q107.56 23.5822 114.294 21.9679Q121.027 20.3535 125.794 15.5866Q130.575 10.7684 132.142 4.13681Q133.709-2.49478 133.709-11.8856L133.709-58.5897Q133.709-68.0033 132.142-74.6637Q130.575-81.3241 125.794-86.0477ZM54.7649-8.58117Q52.0385-8.58117 50.1436-10.4875Q48.2487-12.3937 48.2487-15.1721Q48.2487-17.8108 50.2048-19.7086L65.6271-35.1601L50.2048-50.6116Q48.2487-52.5093 48.2487-55.1481Q48.2487-57.9264 50.1436-59.7886Q52.0385-61.6508 54.7649-61.6508Q57.5568-61.6508 59.498-59.7608L74.8782-44.4034L90.3758-59.7978Q92.3028-61.739 95.109-61.739Q97.8723-61.739 99.7672-59.8512Q101.662-57.9634 101.662-55.2221Q101.662-52.5463 99.669-50.6486L84.2389-35.1601L99.632-19.7456Q101.625-17.8848 101.625-15.1721Q101.625-12.3937 99.7117-10.4875Q97.7983-8.58117 95.035-8.58117Q92.1178-8.58117 90.2279-10.5224L74.8782-25.8506L59.609-10.5224Q57.6678-8.58117 54.7649-8.58117Z"/>
  </g>
  <g id="Semibold-L" transform="matrix(1 0 0 1 1969.14 1556)">
   <path d="M124.522-85.5537Q119.791-90.2859 113.203-91.7771Q106.615-93.2683 97.6599-93.2683L50.4011-93.2683Q41.6052-93.2683 35.0277-91.7671Q28.4503-90.266 23.738-85.5338Q19.0677-80.8635 17.5758-74.3548Q16.084-67.8461 16.084-58.9932L16.084-11.7122Q16.084-2.68049 17.5659 3.84811Q19.0478 10.3767 23.7181 15.089Q28.4689 19.7593 35.0469 21.2814Q41.625 22.8035 50.5998 22.8035L97.6599 22.8035Q106.615 22.8035 113.233 21.2814Q119.851 19.7593 124.522 15.089Q129.212 10.3568 130.684 3.83817Q132.156-2.68049 132.156-11.7122L132.156-58.7724Q132.156-67.8262 130.684-74.374Q129.212-80.9219 124.522-85.5537ZM53.5972-8.91034Q51.1908-8.91034 49.5078-10.6044Q47.8248-12.2984 47.8248-14.7456Q47.8248-17.0963 49.5537-18.7881L65.9178-35.1707L49.5537-51.5533Q47.8248-53.2451 47.8248-55.5959Q47.8248-58.043 49.5078-59.6851Q51.1908-61.3273 53.5972-61.3273Q56.0162-61.3273 57.7464-59.6589L74.0989-43.3285L90.5738-59.7008Q92.2842-61.4311 94.723-61.4311Q97.1714-61.4311 98.8544-59.758Q100.537-58.085 100.537-55.6798Q100.537-53.2871 98.7665-51.5953L82.3791-35.1707L98.7245-18.8301Q100.495-17.1803 100.495-14.7456Q100.495-12.2984 98.7915-10.6044Q97.0875-8.91034 94.639-8.91034Q92.0743-8.91034 90.4059-10.6406L74.0989-26.9524L57.8723-10.6406Q56.1421-8.91034 53.5972-8.91034Z"/>
  </g>
  <g id="Medium-L" transform="matrix(1 0 0 1 1673.02 1556)">
   <path d="M123.557-85.1792Q118.903-89.8461 112.401-91.2634Q105.898-92.6807 97.208-92.6807L49.6364-92.6807Q41.1395-92.6807 34.6557-91.2513Q28.172-89.822 23.5292-85.155Q18.9322-80.558 17.5081-74.1371Q16.084-67.7161 16.084-59.174L16.084-11.5808Q16.084-2.82131 17.496 3.6238Q18.908 10.0689 23.5051 14.7117Q28.1825 19.3087 34.6731 20.7609Q41.1636 22.2132 49.8779 22.2132L97.208 22.2132Q105.898 22.2132 112.429 20.7609Q118.96 19.3087 123.557 14.7117Q128.178 10.0448 129.578 3.61173Q130.978-2.82131 130.978-11.5808L130.978-58.9109Q130.978-67.692 129.578-74.1544Q128.178-80.6168 123.557-85.1792ZM52.7119-9.15993Q50.548-9.15993 49.0257-10.693Q47.5034-12.2261 47.5034-14.4221Q47.5034-16.5545 49.0601-18.0902L66.1381-35.1788L49.0601-52.2674Q47.5034-53.803 47.5034-55.9354Q47.5034-58.1314 49.0257-59.6067Q50.548-61.0819 52.7119-61.0819Q54.848-61.0819 56.4183-59.5815L73.508-42.5134L90.7239-59.6273Q92.2701-61.1976 94.4303-61.1976Q96.64-61.1976 98.1623-59.6874Q99.6846-58.1772 99.6846-56.0269Q99.6846-53.8487 98.0822-52.3131L80.9688-35.1788L98.0364-18.1359Q99.6388-16.646 99.6388-14.4221Q99.6388-12.2261 98.0937-10.693Q96.5485-9.15993 94.3388-9.15993Q92.0413-9.15993 90.5409-10.7302L73.508-27.7879L56.5556-10.7302Q54.9852-9.15993 52.7119-9.15993Z"/>
  </g>
  <g id="Regular-L" transform="matrix(1 0 0 1 1377.08 1556)">
   <path d="M122.298-84.6907Q117.746-89.2725 111.355-90.5934Q104.963-91.9142 96.6187-91.9142L48.639-91.9142Q40.5321-91.9142 34.1705-90.5785Q27.809-89.2428 23.2569-84.6609Q18.7554-80.1595 17.4197-73.853Q16.084-67.5466 16.084-59.4099L16.084-11.4093Q16.084-3.00498 17.4048 3.33123Q18.7257 9.66744 23.2271 14.2195Q27.809 18.721 34.1854 20.082Q40.5618 21.4431 48.9364 21.4431L96.6187 21.4431Q104.963 21.4431 111.38 20.082Q117.797 18.721 122.298 14.2195Q126.829 9.6377 128.135 3.31636Q129.441-3.00498 129.441-11.4093L129.441-59.0916Q129.441-67.5168 128.135-73.8679Q126.829-80.219 122.298-84.6907ZM51.5571-9.48548Q49.7096-9.48548 48.3969-10.8086Q47.0842-12.1318 47.0842-14.0003Q47.0842-15.8479 48.4161-17.1798L66.4256-35.1893L48.4161-53.1987Q47.0842-54.5307 47.0842-56.3783Q47.0842-58.2468 48.3969-59.5044Q49.7096-60.762 51.5571-60.762Q53.3243-60.762 54.686-59.4807L72.7373-41.4503L90.9197-59.5314Q92.2517-60.8931 94.0486-60.8931Q95.9468-60.8931 97.2595-59.5953Q98.5722-58.2974 98.5722-56.4796Q98.5722-54.5814 97.1896-53.2494L79.1294-35.1893L97.1389-17.2305Q98.5215-15.9492 98.5215-14.0003Q98.5215-12.1318 97.1835-10.8086Q95.8455-9.48548 93.9472-9.48548Q91.9983-9.48548 90.717-10.8472L72.7373-28.8776L54.838-10.8472Q53.4763-9.48548 51.5571-9.48548Z"/>
  </g>
  <g id="Light-L" transform="matrix(1 0 0 1 1081.23 1556)">
   <path d="M120.841-84.0545Q116.699-88.2464 110.698-89.6186Q104.697-90.9907 95.9209-90.9907L47.4077-90.9907Q39.034-90.9907 33.0828-89.5935Q27.1317-88.1962 22.9901-84.0042Q18.8786-79.8927 17.4813-74.007Q16.084-68.1212 16.084-59.6972L16.084-11.2041Q16.084-2.32775 17.4561 3.60828Q18.8283 9.54431 22.9398 13.686Q27.1317 17.7975 33.108 19.2098Q39.0842 20.6222 47.9103 20.6222L95.9209 20.6222Q104.697 20.6222 110.713 19.2098Q116.73 17.7975 120.841 13.686Q125.003 9.49405 126.35 3.58315Q127.697-2.32775 127.697-11.2041L127.697-59.2147Q127.697-68.0709 126.35-74.0321Q125.003-79.9933 120.841-84.0545ZM50.6747-10.45Q49.217-10.45 48.1917-11.4653Q47.1663-12.4807 47.1663-13.9182Q47.1663-15.3759 48.252-16.4616L66.9797-35.1893L48.252-53.917Q47.1663-55.0027 47.1663-56.4603Q47.1663-57.8979 48.1917-58.8579Q49.217-59.818 50.6747-59.818Q52.0519-59.818 53.1879-58.7624L71.8754-40.0548L90.6735-58.7926Q91.7592-59.9285 93.1867-59.9285Q94.6745-59.9285 95.6999-58.9283Q96.7252-57.928 96.7252-56.5207Q96.7252-55.0329 95.6094-53.9472L76.8515-35.1893L95.5792-16.4917Q96.6951-15.4362 96.6951-13.9182Q96.6951-12.4807 95.6546-11.4653Q94.6142-10.45 93.1263-10.45Q91.6084-10.45 90.5528-11.586L71.8754-30.2936L53.2783-11.586Q52.1424-10.45 50.6747-10.45Z"/>
  </g>
  <g id="Thin-L" transform="matrix(1 0 0 1 785.671 1556)">
   <path d="M118.914-83.2131Q115.315-86.8893 109.83-88.3293Q104.344-89.7694 94.9981-89.7694L45.7791-89.7694Q37.0526-89.7694 31.6443-88.2906Q26.236-86.8119 22.6372-83.1357Q19.0414-79.5399 17.5627-74.2105Q16.084-68.8812 16.084-60.0772L16.084-10.9326Q16.084-1.43207 17.524 3.97469Q18.964 9.38146 22.5598 12.9803Q26.236 16.5761 31.683 18.0563Q37.13 19.5365 46.5532 19.5365L94.9981 19.5365Q104.344 19.5365 109.831 18.0563Q115.318 16.5761 118.914 12.9803Q122.587 9.30406 123.989 3.93599Q125.39-1.43207 125.39-10.9326L125.39-59.3776Q125.39-68.8038 123.989-74.2492Q122.587-79.6947 118.914-83.2131ZM49.5076-11.7257Q48.5656-11.7257 47.9202-12.3339Q47.2748-12.9421 47.2748-13.8097Q47.2748-14.7516 48.0348-15.5116L67.7125-35.1893L48.0348-54.867Q47.2748-55.627 47.2748-56.5689Q47.2748-57.4365 47.9202-58.003Q48.5656-58.5694 49.5076-58.5694Q50.3691-58.5694 51.2065-57.8125L70.7354-38.2092L90.3478-57.8155Q91.1078-58.6529 92.0467-58.6529Q92.9917-58.6529 93.6371-58.0462Q94.2825-57.4395 94.2825-56.5749Q94.2825-55.63 93.5195-54.87L73.8387-35.1893L93.5164-15.5146Q94.2794-14.7576 94.2794-13.8097Q94.2794-12.9421 93.6325-12.3339Q92.9856-11.7257 92.0407-11.7257Q91.0927-11.7257 90.3357-12.5631L70.7354-32.1664L51.2156-12.5631Q50.3782-11.7257 49.5076-11.7257Z"/>
  </g>
  <g id="Ultralight-L" transform="matrix(1 0 0 1 489.548 1556)">
   <path d="M117.927-82.7821Q114.606-86.1942 109.385-87.669Q104.163-89.1438 94.5254-89.1438L44.945-89.1438Q36.0378-89.1438 30.9075-87.6233Q25.7773-86.1029 22.4565-82.6908Q19.1248-79.3592 17.6044-74.3148Q16.084-69.2704 16.084-60.2718L16.084-10.7936Q16.084-0.973305 17.5588 4.16237Q19.0335 9.29805 22.3652 12.6188Q25.7773 15.9505 30.9532 17.4655Q36.1291 18.9805 45.8581 18.9805L94.5254 18.9805Q104.163 18.9805 109.379 17.4655Q114.595 15.9505 117.927 12.6188Q121.35 9.20674 122.779 4.11672Q124.208-0.973305 124.208-10.7936L124.208-59.461Q124.208-69.1791 122.779-74.3604Q121.35-79.5418 117.927-82.7821ZM48.9098-12.3791Q48.232-12.3791 47.7812-12.7788Q47.3305-13.1784 47.3305-13.754Q47.3305-14.4319 47.9236-15.025L68.0879-35.1893L47.9236-55.3535Q47.3305-55.9467 47.3305-56.6245Q47.3305-57.2001 47.7812-57.565Q48.232-57.9299 48.9098-57.9299Q49.5072-57.9299 50.1917-57.3259L70.1515-37.2638L90.181-57.315Q90.7741-57.9995 91.4628-57.9995Q92.1297-57.9995 92.5805-57.5944Q93.0313-57.1893 93.0313-56.6028Q93.0313-55.9358 92.449-55.3427L72.2956-35.1893L92.4599-15.0141Q93.0422-14.4101 93.0422-13.754Q93.0422-13.1784 92.5968-12.7788Q92.1515-12.3791 91.4846-12.3791Q90.8285-12.3791 90.2245-13.0635L70.1515-33.1256L50.159-13.0635Q49.4745-12.3791 48.9098-12.3791Z"/>
  </g>
  <g id="Black-M" transform="matrix(1 0 0 1 2873.15 1126)">
   <path d="M101.089-75.9857Q97.1524-79.8648 91.7287-81.4293Q86.305-82.9937 77.8179-82.9937L42.6804-82.9937Q34.1908-82.9937 28.7383-81.4294Q23.2858-79.8651 19.4064-75.986Q15.5325-72.1121 13.9967-66.7477Q12.4609-61.3832 12.4609-52.7798L12.4609-17.6365Q12.4609-9.03579 13.9969-3.67165Q15.5328 1.69248 19.4067 5.57188Q23.3429 9.44576 28.7667 11.0128Q34.1905 12.5799 42.6773 12.5799L77.8179 12.5799Q86.305 12.5799 91.76 11.0128Q97.215 9.44576 101.089 5.57188Q104.962 1.69279 106.499-3.6715Q108.035-9.03579 108.035-17.6365L108.035-52.777Q108.035-61.3835 106.499-66.7761Q104.962-72.1686 101.089-75.9857ZM45.9147-13.8448Q42.8978-13.8448 40.8403-15.9052Q38.7828-17.9656 38.7828-21.0454Q38.7828-23.891 40.9513-25.9453L50.0902-35.1412L40.9513-44.3372Q38.7828-46.3915 38.7828-49.2371Q38.7828-52.3169 40.8403-54.3719Q42.8978-56.427 45.9147-56.427Q49.1547-56.427 51.2658-54.3211L60.245-45.3477L69.2921-54.3266Q71.4035-56.4377 74.6432-56.4377Q77.6656-56.4377 79.7231-54.38Q81.7806-52.3224 81.7806-49.2481Q81.7806-46.397 79.6066-44.3427L70.5193-35.1412L79.6011-25.9508Q81.7751-23.902 81.7751-21.0454Q81.7751-17.9656 79.7148-15.9052Q77.6545-13.8448 74.6322-13.8448Q71.3759-13.8448 69.27-15.9559L60.245-24.8722L51.2823-15.9559Q49.1712-13.8448 45.9147-13.8448Z"/>
  </g>
  <g id="Heavy-M" transform="matrix(1 0 0 1 2577.24 1126)">
   <path d="M99.7887-75.4962Q95.8938-79.35 90.529-80.7799Q85.1643-82.2098 77.2124-82.2098L41.6665-82.2098Q33.7341-82.2098 28.35-80.7787Q22.966-79.3476 19.1146-75.4938Q15.2795-71.6587 13.8702-66.3506Q12.4609-61.0425 12.4609-53.0204L12.4609-17.4608Q12.4609-9.41668 13.869-4.10615Q15.277 1.20437 19.1122 5.05573Q23.0096 8.89085 28.3731 10.3301Q33.7366 11.7693 41.691 11.7693L77.2124 11.7693Q85.1643 11.7693 90.559 10.3301Q95.9536 8.89085 99.7887 5.05573Q103.626 1.20193 105.033-4.10738Q106.44-9.41668 106.44-17.4608L106.44-52.9822Q106.44-61.0401 105.033-66.3736Q103.626-71.7072 99.7887-75.4962ZM44.6241-14.0548Q41.929-14.0548 40.0784-15.9123Q38.2278-17.7698 38.2278-20.5224Q38.2278-23.0866 40.1612-24.9327L50.3396-35.1547L40.1612-45.3767Q38.2278-47.2228 38.2278-49.7871Q38.2278-52.5396 40.0784-54.3796Q41.929-56.2197 44.6241-56.2197Q47.475-56.2197 49.3673-54.3461L59.4423-44.2849L69.5959-54.3624Q71.4857-56.2546 74.3391-56.2546Q77.0504-56.2546 78.901-54.4052Q80.7516-52.5559 80.7516-49.8196Q80.7516-47.2391 78.802-45.3929L68.651-35.1547L78.7858-24.949Q80.7354-23.1191 80.7354-20.5224Q80.7354-17.7698 78.8767-15.9123Q77.018-14.0548 74.3066-14.0548Q71.4045-14.0548 69.531-15.947L59.4423-25.9647L49.416-15.947Q47.5238-14.0548 44.6241-14.0548Z"/>
  </g>
  <g id="Bold-M" transform="matrix(1 0 0 1 2281.42 1126)">
   <path d="M98.3343-74.9487Q94.4858-78.7742 89.1871-80.0535Q83.8883-81.3328 76.535-81.3328L40.5323-81.3328Q33.2232-81.3328 27.9157-80.0507Q22.6082-78.7687 18.7882-74.9432Q14.9965-71.1514 13.7287-65.9064Q12.4609-60.6613 12.4609-53.2896L12.4609-17.2642Q12.4609-9.84276 13.7259-4.59221Q14.9909 0.658349 18.7827 4.47834Q22.6368 8.2701 27.9328 9.56626Q33.2287 10.8624 40.5876 10.8624L76.535 10.8624Q83.8883 10.8624 89.2155 9.56626Q94.5426 8.2701 98.3343 4.47834Q102.132 0.652828 103.394-4.59497Q104.656-9.84276 104.656-17.2642L104.656-53.2117Q104.656-60.6558 103.394-65.9234Q102.132-71.191 98.3343-74.9487ZM43.1805-14.2898Q40.8453-14.2898 39.2262-15.9203Q37.607-17.5508 37.607-19.9373Q37.607-22.1868 39.2774-23.8001L50.6186-35.1698L39.2774-46.5395Q37.607-48.1528 37.607-50.4023Q37.607-52.7888 39.2262-54.3883Q40.8453-55.9878 43.1805-55.9878Q45.5961-55.9878 47.2435-54.3742L58.5444-43.096L69.9359-54.4024Q71.5777-56.0498 73.9989-56.0498Q76.3623-56.0498 77.9814-54.4334Q79.6006-52.817 79.6006-50.4588Q79.6006-48.181 77.9019-46.5677L66.5611-35.1698L77.8737-23.8283Q79.5723-22.2433 79.5723-19.9373Q79.5723-17.5508 77.9391-15.9203Q76.3058-14.2898 73.9424-14.2898Q71.4365-14.2898 69.8229-15.9372L58.5444-27.1868L47.3282-15.9372Q45.6809-14.2898 43.1805-14.2898Z"/>
  </g>
  <g id="Semibold-M" transform="matrix(1 0 0 1 1985.32 1126)">
   <path d="M97.3317-74.5712Q93.5152-78.3772 88.2619-79.5527Q83.0087-80.7282 76.0681-80.7282L39.7505-80.7282Q32.871-80.7282 27.6163-79.5489Q22.3616-78.3696 18.5632-74.5636Q14.8014-70.8017 13.6311-65.6001Q12.4609-60.3986 12.4609-53.4751L12.4609-17.1287Q12.4609-10.1365 13.6273-4.92729Q14.7937 0.281923 18.5556 4.0803Q22.3798 7.84216 27.6292 9.0397Q32.8786 10.2372 39.8269 10.2372L76.0681 10.2372Q83.0087 10.2372 88.2892 9.0397Q93.5698 7.84216 97.3317 4.0803Q101.101 0.274283 102.264-4.93111Q103.426-10.1365 103.426-17.1287L103.426-53.3699Q103.426-60.3909 102.264-65.613Q101.101-70.8351 97.3317-74.5712ZM42.1853-14.4518Q40.0982-14.4518 38.6386-15.9258Q37.1791-17.3998 37.1791-19.5339Q37.1791-21.5665 38.6681-23.0193L50.8109-35.1802L38.6681-47.3411Q37.1791-48.7938 37.1791-50.8265Q37.1791-52.9606 38.6386-54.3942Q40.0982-55.8279 42.1853-55.8279Q44.3008-55.8279 45.7794-54.3935L57.9254-42.2763L70.1702-54.43Q71.6411-55.9085 73.7643-55.9085Q75.8879-55.9085 77.3475-54.4528Q78.807-52.9971 78.807-50.8995Q78.807-48.8303 77.2815-47.3776L65.1204-35.1802L77.2449-23.0558Q78.7705-21.6395 78.7705-19.5339Q78.7705-17.3998 77.2927-15.9258Q75.8149-14.4518 73.6913-14.4518Q71.4586-14.4518 70.0242-15.9304L57.9254-28.0294L45.8889-15.9304Q44.4104-14.4518 42.1853-14.4518Z"/>
  </g>
  <g id="Medium-M" transform="matrix(1 0 0 1 1689.08 1126)">
   <path d="M96.5715-74.285Q92.7792-78.0762 87.5604-79.173Q82.3417-80.2697 75.714-80.2697L39.1576-80.2697Q32.6039-80.2697 27.3893-79.1684Q22.1746-78.067 18.3926-74.2758Q14.6534-70.5366 13.5572-65.3679Q12.4609-60.1993 12.4609-53.6158L12.4609-17.0259Q12.4609-10.3592 13.5526-5.18136Q14.6442-0.00349793 18.3834 3.77848Q22.1849 7.51768 27.399 8.64045Q32.6132 9.76322 39.2501 9.76322L75.714 9.76322Q82.3417 9.76322 87.587 8.64045Q92.8323 7.51768 96.5715 3.77848Q100.32-0.0127463 101.407-5.18598Q102.494-10.3592 102.494-17.0259L102.494-53.4898Q102.494-60.1901 101.407-65.3777Q100.32-70.5653 96.5715-74.285ZM41.4306-14.5747Q39.5317-14.5747 38.1931-15.93Q36.8546-17.2853 36.8546-19.2281Q36.8546-21.0962 38.2062-22.4272L50.9567-35.1881L38.2062-47.9489Q36.8546-49.2799 36.8546-51.1481Q36.8546-53.0908 38.1931-54.3987Q39.5317-55.7066 41.4306-55.7066Q43.3187-55.7066 44.6692-54.4081L57.456-41.6549L70.3479-54.4509Q71.6892-55.8015 73.5865-55.8015Q75.5283-55.8015 76.8668-54.4675Q78.2053-53.1336 78.2053-51.2336Q78.2053-49.3227 76.811-47.9917L64.0279-35.1881L76.7682-22.47Q78.1626-21.1818 78.1626-19.2281Q78.1626-17.2853 76.8026-15.93Q75.4427-14.5747 73.5009-14.5747Q71.4753-14.5747 70.1768-15.9252L57.456-28.6682L44.7976-15.9252Q43.447-14.5747 41.4306-14.5747Z"/>
  </g>
  <g id="Regular-M" transform="matrix(1 0 0 1 1392.97 1126)">
   <path d="M95.5798-73.9117Q91.8192-77.6836 86.6454-78.6777Q81.4717-79.6718 75.2522-79.6718L38.3843-79.6718Q32.2556-79.6718 27.0931-78.672Q21.9307-77.6723 18.1701-73.9003Q14.4605-70.1907 13.4607-65.0651Q12.4609-59.9394 12.4609-53.7994L12.4609-16.8919Q12.4609-10.6497 13.455-5.51276Q14.4491-0.375787 18.1587 3.38481Q21.9307 7.09444 27.0988 8.11968Q32.2669 9.14492 38.4978 9.14492L75.2522 9.14492Q81.4717 9.14492 86.6709 8.11968Q91.8702 7.09444 95.5798 3.38481Q99.3008-0.387132 100.289-5.51843Q101.278-10.6497 101.278-16.8919L101.278-53.6463Q101.278-59.9281 100.289-65.0707Q99.3008-70.2134 95.5798-73.9117ZM40.4463-14.7349Q38.7928-14.7349 37.612-15.9354Q36.4313-17.1359 36.4313-18.8291Q36.4313-20.4827 37.6036-21.655L51.1469-35.1983L37.6036-48.7417Q36.4313-49.914 36.4313-51.5675Q36.4313-53.2607 37.612-54.4046Q38.7928-55.5485 40.4463-55.5485Q42.0376-55.5485 43.2212-54.4272L56.8438-40.8442L70.5797-54.4782Q71.7519-55.6618 73.3546-55.6618Q75.0591-55.6618 76.2398-54.4867Q77.4205-53.3117 77.4205-51.6695Q77.4205-49.9649 76.1973-48.7927L62.603-35.1983L76.1464-21.7059Q77.3696-20.5846 77.3696-18.8291Q77.3696-17.1359 76.1634-15.9354Q74.9572-14.7349 73.2526-14.7349Q71.4971-14.7349 70.3758-15.9185L56.8438-29.5015L43.3741-15.9185Q42.1905-14.7349 40.4463-14.7349Z"/>
  </g>
  <g id="Light-M" transform="matrix(1 0 0 1 1097.04 1126)">
   <path d="M94.2735-73.3413Q90.8809-76.7637 86.0567-77.8037Q81.2325-78.8438 74.6266-78.8438L37.2804-78.8438Q30.9125-78.8438 26.118-77.7889Q21.3235-76.7339 17.9309-73.3116Q14.5708-69.9515 13.5159-65.2031Q12.4609-60.4546 12.4609-54.0569L12.4609-16.7079Q12.4609-10.0426 13.501-5.26437Q14.5411-0.486181 17.9012 2.90643Q21.3235 6.26649 26.1329 7.33772Q30.9422 8.40896 37.5778 8.40896L74.6266 8.40896Q81.2325 8.40896 86.073 7.33772Q90.9135 6.26649 94.2735 2.90643Q97.6633-0.515925 98.6885-5.27924Q99.7137-10.0426 99.7137-16.7079L99.7137-53.7567Q99.7137-60.4249 98.6885-65.2179Q97.6633-70.011 94.2735-73.3413ZM39.6552-15.5996Q38.3512-15.5996 37.428-16.5242Q36.5049-17.4487 36.5049-18.7555Q36.5049-20.0595 37.4564-21.011L51.6437-35.1983L37.4564-49.3857Q36.5049-50.3371 36.5049-51.6411Q36.5049-52.948 37.428-53.8251Q38.3512-54.7022 39.6552-54.7022Q40.8969-54.7022 41.8781-53.7833L56.0711-39.5931L70.3589-53.8158Q71.3104-54.797 72.5818-54.797Q73.9184-54.797 74.8415-53.8888Q75.7646-52.9805 75.7646-51.7063Q75.7646-50.3697 74.7806-49.4182L60.5607-35.1983L74.748-21.0436Q75.7321-20.1247 75.7321-18.7555Q75.7321-17.4487 74.7926-16.5242Q73.8532-15.5996 72.5167-15.5996Q71.1476-15.5996 70.2286-16.5809L56.0711-30.771L41.9758-16.5809Q40.9946-15.5996 39.6552-15.5996Z"/>
  </g>
  <g id="Thin-M" transform="matrix(1 0 0 1 801.359 1126)">
   <path d="M92.5458-72.5869Q89.6399-75.547 85.278-76.6479Q80.9161-77.7488 73.7992-77.7488L35.8203-77.7488Q29.1361-77.7488 24.8283-76.6208Q20.5205-75.4929 17.6146-72.5329Q14.7169-69.6352 13.5889-65.3856Q12.4609-61.136 12.4609-54.3976L12.4609-16.4646Q12.4609-9.23953 13.5619-4.93586Q14.6628-0.632186 17.5605 2.27375Q20.5205 5.17145 24.8553 6.30352Q29.1901 7.43559 36.3611 7.43559L73.7992 7.43559Q80.9161 7.43559 85.2821 6.30352Q89.6481 5.17145 92.5458 2.27375Q95.4976-0.686264 96.5714-4.9629Q97.6453-9.23953 97.6453-16.4646L97.6453-53.9027Q97.6453-61.0819 96.5714-65.4126Q95.4976-69.7433 92.5458-72.5869ZM38.6088-16.7433Q37.7672-16.7433 37.1847-17.3029Q36.6023-17.8624 36.6023-18.6582Q36.6023-19.4998 37.2617-20.1593L52.3007-35.1983L37.2617-50.2374Q36.6023-50.8968 36.6023-51.7385Q36.6023-52.5343 37.1847-53.0585Q37.7672-53.5828 38.6088-53.5828Q39.3882-53.5828 40.1017-52.9316L55.049-37.9384L70.0669-52.9398Q70.7263-53.6533 71.5598-53.6533Q72.4096-53.6533 72.9921-53.0979Q73.5745-52.5425 73.5745-51.7549Q73.5745-50.9051 72.9069-50.2456L57.8596-35.1983L72.8986-20.1675Q73.5663-19.5163 73.5663-18.6582Q73.5663-17.8624 72.9797-17.3029Q72.3932-16.7433 71.5433-16.7433Q70.6852-16.7433 70.034-17.4569L55.049-32.4501L40.1264-17.4569Q39.4128-16.7433 38.6088-16.7433Z"/>
  </g>
  <g id="Ultralight-M" transform="matrix(1 0 0 1 505.175 1126)">
   <path d="M91.6608-72.2006Q89.0042-74.9238 84.8791-76.0558Q80.7541-77.1879 73.3755-77.1879L35.0725-77.1879Q28.2262-77.1879 24.1677-76.0226Q20.1092-74.8572 17.4525-72.134Q14.7916-69.4731 13.6263-65.479Q12.4609-61.485 12.4609-54.5721L12.4609-16.3399Q12.4609-8.82823 13.593-4.7676Q14.7251-0.706969 17.386 1.94969Q20.1092 4.61058 24.201 5.77381Q28.2927 6.93704 35.7379 6.93704L73.3755 6.93704Q80.7541 6.93704 84.877 5.77381Q89 4.61058 91.6608 1.94969Q94.3883-0.773511 95.4871-4.80087Q96.5859-8.82823 96.5859-16.3399L96.5859-53.9775Q96.5859-61.4184 95.4871-65.5123Q94.3883-69.6062 91.6608-72.2006ZM38.0729-17.3291Q37.468-17.3291 37.0601-17.7017Q36.6521-18.0743 36.6521-18.6083Q36.6521-19.2132 37.162-19.7231L52.6373-35.1983L37.162-50.6736Q36.6521-51.1835 36.6521-51.7883Q36.6521-52.3224 37.0601-52.6659Q37.468-53.0095 38.0729-53.0095Q38.6154-53.0095 39.1918-52.4953L54.5255-37.0908L69.9173-52.4911Q70.4272-53.0675 71.0363-53.0675Q71.6369-53.0675 72.0448-52.6928Q72.4528-52.3182 72.4528-51.7799Q72.4528-51.1793 71.9471-50.6694L56.4761-35.1983L71.9514-19.7188Q72.457-19.2047 72.457-18.6083Q72.457-18.0743 72.0512-17.7017Q71.6454-17.3291 71.0448-17.3291Q70.4484-17.3291 69.9343-17.9056L54.5255-33.3101L39.1791-17.9056Q38.6027-17.3291 38.0729-17.3291Z"/>
  </g>
  <g id="Black-S" transform="matrix(1 0 0 1 2885.99 696)">
   <path d="M79.541-67.2852Q76.4648-70.3125 72.2168-71.582Q67.9688-72.8516 61.1328-72.8516L33.6914-72.8516Q26.8555-72.8516 22.583-71.582Q18.3105-70.3125 15.2832-67.2852Q12.2559-64.2578 11.0107-60.0586Q9.76562-55.8594 9.76562-48.9258L9.76562-21.4844Q9.76562-14.5508 11.0107-10.3516Q12.2559-6.15234 15.2832-3.125Q18.3594-0.0976562 22.6074 1.17188Q26.8555 2.44141 33.6914 2.44141L61.1328 2.44141Q67.9688 2.44141 72.2412 1.17188Q76.5137-0.0976562 79.541-3.125Q82.5684-6.15234 83.8135-10.3516Q85.0586-14.5508 85.0586-21.4844L85.0586-48.9258Q85.0586-55.8594 83.8135-60.083Q82.5684-64.3066 79.541-67.2852ZM36.3281-18.457Q33.8867-18.457 32.2266-20.1172Q30.5664-21.7773 30.5664-24.2676Q30.5664-26.5625 32.3242-28.2227L39.209-35.1562L32.3242-42.0898Q30.5664-43.75 30.5664-46.0449Q30.5664-48.5352 32.2266-50.1953Q33.8867-51.8555 36.3281-51.8555Q38.9648-51.8555 40.6738-50.1465L47.4121-43.4082L54.1992-50.1465Q55.9082-51.8555 58.5449-51.8555Q60.9863-51.8555 62.6465-50.1953Q64.3066-48.5352 64.3066-46.0449Q64.3066-43.75 62.5488-42.0898L55.7129-35.1562L62.5488-28.2227Q64.3066-26.5625 64.3066-24.2676Q64.3066-21.7773 62.6465-20.1172Q60.9863-18.457 58.5449-18.457Q55.9082-18.457 54.1992-20.166L47.4121-26.8555L40.6738-20.166Q38.9648-18.457 36.3281-18.457Z"/>
  </g>
  <g id="Heavy-S" transform="matrix(1 0 0 1 2589.86 696)">
   <path d="M78.596-66.9394Q75.5083-69.9898 71.266-71.1383Q67.0237-72.2869 60.6949-72.2869L32.9654-72.2869Q26.6365-72.2869 22.3756-71.1383Q18.1146-69.9898 15.0642-66.9394Q12.0254-63.9006 10.8955-59.7013Q9.76562-55.5021 9.76562-49.0986L9.76562-21.3576Q9.76562-14.9541 10.8955-10.7549Q12.0254-6.5557 15.0642-3.50531Q18.1519-0.466439 22.3942 0.687847Q26.6365 1.84213 32.9654 1.84213L60.6949 1.84213Q67.0237 1.84213 71.2904 0.687847Q75.5571-0.466439 78.596-3.50531Q81.6349-6.5557 82.7648-10.7549Q83.8946-14.9541 83.8946-21.3576L83.8946-49.0871Q83.8946-55.5021 82.7648-59.72Q81.6349-63.9379 78.596-66.9394ZM35.3255-18.5262Q33.1146-18.5262 31.5985-20.048Q30.0824-21.5699 30.0824-23.8296Q30.0824-25.9287 31.6673-27.439L39.3588-35.1678L31.6673-42.8966Q30.0824-44.4069 30.0824-46.5059Q30.0824-48.7656 31.5985-50.276Q33.1146-51.7863 35.3255-51.7863Q37.6741-51.7863 39.2217-50.2502L46.8244-42.6591L54.4873-50.2617Q56.035-51.8094 58.3836-51.8094Q60.606-51.8094 62.1221-50.2933Q63.6382-48.7772 63.6382-46.5289Q63.6382-44.4184 62.0418-42.9081L54.3761-35.1678L62.0302-27.4505Q63.6267-25.9517 63.6267-23.8296Q63.6267-21.5699 62.1048-20.048Q60.583-18.5262 58.3605-18.5262Q55.9773-18.5262 54.4412-20.0738L46.8244-27.6276L39.2563-20.0738Q37.7087-18.5262 35.3255-18.5262Z"/>
  </g>
  <g id="Bold-S" transform="matrix(1 0 0 1 2293.8 696)">
   <path d="M77.5391-66.5527Q74.4385-69.6289 70.2026-70.6421Q65.9668-71.6553 60.2051-71.6553L32.1533-71.6553Q26.3916-71.6553 22.1436-70.6421Q17.8955-69.6289 14.8193-66.5527Q11.7676-63.501 10.7666-59.3018Q9.76562-55.1025 9.76562-49.292L9.76562-21.2158Q9.76562-15.4053 10.7666-11.2061Q11.7676-7.00684 14.8193-3.93066Q17.9199-0.878906 22.1558 0.146484Q26.3916 1.17188 32.1533 1.17188L60.2051 1.17188Q65.9668 1.17188 70.2271 0.146484Q74.4873-0.878906 77.5391-3.93066Q80.5908-7.00684 81.5918-11.2061Q82.5928-15.4053 82.5928-21.2158L82.5928-49.2676Q82.5928-55.1025 81.5918-59.314Q80.5908-63.5254 77.5391-66.5527ZM34.2041-18.6035Q32.251-18.6035 30.896-19.9707Q29.541-21.3379 29.541-23.3398Q29.541-25.2197 30.9326-26.5625L39.5264-35.1807L30.9326-43.7988Q29.541-45.1416 29.541-47.0215Q29.541-49.0234 30.896-50.3662Q32.251-51.709 34.2041-51.709Q36.2305-51.709 37.5977-50.3662L46.167-41.8213L54.8096-50.3906Q56.1768-51.7578 58.2031-51.7578Q60.1807-51.7578 61.5356-50.4028Q62.8906-49.0479 62.8906-47.0703Q62.8906-45.166 61.4746-43.8232L52.8809-35.1807L61.4502-26.5869Q62.8662-25.2686 62.8662-23.3398Q62.8662-21.3379 61.499-19.9707Q60.1318-18.6035 58.1543-18.6035Q56.0547-18.6035 54.7119-19.9707L46.167-28.4912L37.6709-19.9707Q36.3037-18.6035 34.2041-18.6035Z"/>
  </g>
  <g id="Semibold-S" transform="matrix(1 0 0 1 1997.54 696)">
   <path d="M76.8104-66.2861Q73.7009-69.3801 69.4695-70.3Q65.2381-71.2198 59.8674-71.2198L31.5935-71.2198Q26.2228-71.2198 21.9836-70.3Q17.7444-69.3801 14.6505-66.2861Q11.5898-63.2255 10.6777-59.0263Q9.76562-54.8271 9.76562-49.4253L9.76562-21.1181Q9.76562-15.7163 10.6777-11.5171Q11.5898-7.31787 14.6505-4.22393Q17.76-1.16328 21.9914-0.226758Q26.2228 0.709766 31.5935 0.709766L59.8674 0.709766Q65.2381 0.709766 69.4939-0.226758Q73.7497-1.16328 76.8104-4.22393Q79.871-7.31787 80.7831-11.5171Q81.6952-15.7163 81.6952-21.1181L81.6952-49.392Q81.6952-54.8271 80.7831-59.034Q79.871-63.241 76.8104-66.2861ZM33.431-18.6568Q31.6556-18.6568 30.4117-19.9174Q29.1678-21.1779 29.1678-23.0021Q29.1678-24.731 30.4261-25.9582L39.6419-35.1896L30.4261-44.4209Q29.1678-45.6481 29.1678-47.377Q29.1678-49.2012 30.4117-50.4284Q31.6556-51.6557 33.431-51.6557Q35.2352-51.6557 36.4779-50.4462L45.7138-41.2437L55.0317-50.4795Q56.2745-51.7223 58.0787-51.7223Q59.8874-51.7223 61.1313-50.4784Q62.3752-49.2345 62.3752-47.4436Q62.3752-45.6814 61.0836-44.4542L51.85-35.1896L61.0503-25.9915Q62.3419-24.7976 62.3419-23.0021Q62.3419-21.1779 61.0813-19.9174Q59.8208-18.6568 58.0121-18.6568Q56.108-18.6568 54.8985-19.8996L45.7138-29.0866L36.5778-19.8996Q35.3351-18.6568 33.431-18.6568Z"/>
  </g>
  <g id="Medium-S" transform="matrix(1 0 0 1 1701.17 696)">
   <path d="M76.2578-66.084Q73.1416-69.1914 68.9136-70.0405Q64.6855-70.8896 59.6113-70.8896L31.1689-70.8896Q26.0947-70.8896 21.8623-70.0405Q17.6299-69.1914 14.5225-66.084Q11.4551-63.0166 10.6104-58.8174Q9.76562-54.6182 9.76562-49.5264L9.76562-21.0439Q9.76562-15.9521 10.6104-11.7529Q11.4551-7.55371 14.5225-4.44629Q17.6387-1.37891 21.8667-0.509766Q26.0947 0.359375 31.1689 0.359375L59.6113 0.359375Q64.6855 0.359375 68.938-0.509766Q73.1904-1.37891 76.2578-4.44629Q79.3252-7.55371 80.1699-11.7529Q81.0146-15.9521 81.0146-21.0439L81.0146-49.4863Q81.0146-54.6182 80.1699-58.8218Q79.3252-63.0254 76.2578-66.084ZM32.8447-18.6973Q31.2041-18.6973 30.0444-19.877Q28.8848-21.0566 28.8848-22.7461Q28.8848-24.3604 30.042-25.5L39.7295-35.1963L30.042-44.8926Q28.8848-46.0322 28.8848-47.6465Q28.8848-49.3359 30.0444-50.4756Q31.2041-51.6152 32.8447-51.6152Q34.4805-51.6152 35.6289-50.5068L45.3701-40.8057L55.2002-50.5469Q56.3486-51.6953 57.9844-51.6953Q59.665-51.6953 60.8247-50.5356Q61.9844-49.376 61.9844-47.7266Q61.9844-46.0723 60.7871-44.9326L51.0684-35.1963L60.7471-25.54Q61.9443-24.4404 61.9443-22.7461Q61.9443-21.0566 60.7646-19.877Q59.585-18.6973 57.9043-18.6973Q56.1484-18.6973 55.04-19.8457L45.3701-29.5381L35.749-19.8457Q34.6006-18.6973 32.8447-18.6973Z"/>
  </g>
  <g id="Regular-S" transform="matrix(1 0 0 1 1404.9 696)">
   <path d="M75.5371-65.8203Q72.4121-68.9453 68.1885-69.7021Q63.9648-70.459 59.2773-70.459L30.6152-70.459Q25.9277-70.459 21.7041-69.7021Q17.4805-68.9453 14.3555-65.8203Q11.2793-62.7441 10.5225-58.5449Q9.76562-54.3457 9.76562-49.6582L9.76562-20.9473Q9.76562-16.2598 10.5225-12.0605Q11.2793-7.86133 14.3555-4.73633Q17.4805-1.66016 21.7041-0.878906Q25.9277-0.0976562 30.6152-0.0976562L59.2773-0.0976562Q63.9648-0.0976562 68.2129-0.878906Q72.4609-1.66016 75.5371-4.73633Q78.6133-7.86133 79.3701-12.0605Q80.127-16.2598 80.127-20.9473L80.127-49.6094Q80.127-54.3457 79.3701-58.5449Q78.6133-62.7441 75.5371-65.8203ZM32.0801-18.75Q30.6152-18.75 29.5654-19.8242Q28.5156-20.8984 28.5156-22.4121Q28.5156-23.877 29.541-24.9023L39.8438-35.2051L29.541-45.5078Q28.5156-46.5332 28.5156-47.998Q28.5156-49.5117 29.5654-50.5371Q30.6152-51.5625 32.0801-51.5625Q33.4961-51.5625 34.5215-50.5859L44.9219-40.2344L55.4199-50.6348Q56.4453-51.6602 57.8613-51.6602Q59.375-51.6602 60.4248-50.6104Q61.4746-49.5605 61.4746-48.0957Q61.4746-46.582 60.4004-45.5566L50.0488-35.2051L60.3516-24.9512Q61.4258-23.9746 61.4258-22.4121Q61.4258-20.8984 60.3516-19.8242Q59.2773-18.75 57.7637-18.75Q56.2012-18.75 55.2246-19.7754L44.9219-30.127L34.668-19.7754Q33.6426-18.75 32.0801-18.75Z"/>
  </g>
  <g id="Light-S" transform="matrix(1 0 0 1 1108.88 696)">
   <path d="M74.3815-65.3158Q71.582-68.1315 67.6676-68.929Q63.7533-69.7266 58.724-69.7266L29.6387-69.7266Q24.7396-69.7266 20.8415-68.9209Q16.9434-68.1152 14.1439-65.2995Q11.377-62.5326 10.5713-58.667Q9.76562-54.8014 9.76562-49.8861L9.76562-20.7845Q9.76562-15.7227 10.5632-11.8408Q11.3607-7.95898 14.1276-5.15951Q16.9434-2.39258 20.8496-1.57064Q24.7559-0.748698 29.8014-0.748698L58.724-0.748698Q63.7533-0.748698 67.6839-1.57064Q71.6146-2.39258 74.3815-5.15951Q77.1647-7.97526 77.9541-11.849Q78.7435-15.7227 78.7435-20.7845L78.7435-49.707Q78.7435-54.7852 77.9541-58.6751Q77.1647-62.5651 74.3815-65.3158ZM31.3802-19.515Q30.2246-19.515 29.4027-20.3451Q28.5807-21.1751 28.5807-22.347Q28.5807-23.5026 29.4108-24.3327L40.2832-35.2051L29.4108-46.0775Q28.5807-46.9076 28.5807-48.0632Q28.5807-49.235 29.4027-50.0244Q30.2246-50.8138 31.3802-50.8138Q32.487-50.8138 33.3333-50.0163L44.2383-39.1276L55.2246-50.0488Q56.0547-50.8952 57.1777-50.8952Q58.3659-50.8952 59.1878-50.0814Q60.0098-49.2676 60.0098-48.1283Q60.0098-46.9401 59.1471-46.11L48.2422-35.2051L59.1146-24.3652Q59.9772-23.5677 59.9772-22.347Q59.9772-21.1751 59.139-20.3451Q58.3008-19.515 57.1126-19.515Q55.8919-19.515 55.0944-20.3613L44.2383-31.25L33.431-20.3613Q32.5846-19.515 31.3802-19.515Z"/>
  </g>
  <g id="Thin-S" transform="matrix(1 0 0 1 813.076 696)">
   <path d="M72.8531-64.6484Q70.4842-67.0552 66.9788-67.9065Q63.4734-68.7579 57.9921-68.7579L28.3471-68.7579Q23.1682-68.7579 19.7006-67.8876Q16.233-67.0174 13.864-64.6106Q11.5061-62.2527 10.6359-58.8284Q9.76562-55.4042 9.76562-50.1874L9.76562-20.5692Q9.76562-15.0123 10.617-11.5502Q11.4683-8.08814 13.8262-5.71919Q16.233-3.36127 19.7195-2.48551Q23.206-1.60975 28.7251-1.60975L57.9921-1.60975Q63.4734-1.60975 66.9843-2.48551Q70.4952-3.36127 72.8531-5.71919Q75.2489-8.12595 76.0813-11.5691Q76.9137-15.0123 76.9137-20.5692L76.9137-49.8362Q76.9137-55.3664 76.0813-58.8473Q75.2489-62.3283 72.8531-64.6484ZM30.4546-20.5267Q29.708-20.5267 29.1874-21.0339Q28.6668-21.5411 28.6668-22.2609Q28.6668-23.0075 29.2386-23.5793L40.8644-35.2051L29.2386-46.8309Q28.6668-47.4027 28.6668-48.1493Q28.6668-48.8691 29.1874-49.3463Q29.708-49.8236 30.4546-49.8236Q31.1523-49.8236 31.7619-49.2629L43.3342-37.6638L54.9663-49.2739Q55.5381-49.8834 56.2736-49.8834Q57.0312-49.8834 57.5518-49.3818Q58.0724-48.8801 58.0724-48.1713Q58.0724-47.4137 57.4896-46.8419L45.8528-35.2051L57.4786-23.5903Q58.0614-23.0295 58.0614-22.2609Q58.0614-21.5411 57.5353-21.0339Q57.0092-20.5267 56.2516-20.5267Q55.4829-20.5267 54.9222-21.1363L43.3342-32.7353L31.795-21.1363Q31.1854-20.5267 30.4546-20.5267Z"/>
  </g>
  <g id="Ultralight-S" transform="matrix(1 0 0 1 516.831 696)">
   <path d="M72.0703-64.3066Q69.9219-66.5039 66.626-67.3828Q63.3301-68.2617 57.6172-68.2617L27.6855-68.2617Q22.3633-68.2617 19.1162-67.3584Q15.8691-66.4551 13.7207-64.2578Q11.5723-62.1094 10.6689-58.9111Q9.76562-55.7129 9.76562-50.3418L9.76562-20.459Q9.76562-14.6484 10.6445-11.4014Q11.5234-8.1543 13.6719-6.00586Q15.8691-3.85742 19.1406-2.9541Q22.4121-2.05078 28.1738-2.05078L57.6172-2.05078Q63.3301-2.05078 66.626-2.9541Q69.9219-3.85742 72.0703-6.00586Q74.2676-8.20312 75.1221-11.4258Q75.9766-14.6484 75.9766-20.459L75.9766-49.9023Q75.9766-55.6641 75.1221-58.9355Q74.2676-62.207 72.0703-64.3066ZM29.9805-21.0449Q29.4434-21.0449 29.0771-21.3867Q28.7109-21.7285 28.7109-22.2168Q28.7109-22.7539 29.1504-23.1934L41.1621-35.2051L29.1504-47.2168Q28.7109-47.6562 28.7109-48.1934Q28.7109-48.6816 29.0771-48.999Q29.4434-49.3164 29.9805-49.3164Q30.4688-49.3164 30.957-48.877L42.8711-36.9141L54.834-48.877Q55.2734-49.3652 55.8105-49.3652Q56.3477-49.3652 56.7139-49.0234Q57.0801-48.6816 57.0801-48.1934Q57.0801-47.6562 56.6406-47.2168L44.6289-35.2051L56.6406-23.1934Q57.0801-22.7539 57.0801-22.2168Q57.0801-21.7285 56.7139-21.3867Q56.3477-21.0449 55.8105-21.0449Q55.2734-21.0449 54.834-21.5332L42.8711-33.4961L30.957-21.5332Q30.4688-21.0449 29.9805-21.0449Z"/>
  </g>
 </g>
</svg>
