<?xml version="1.0" encoding="UTF-8"?>
<!--Generator: Apple Native CoreSVG 175-->
<!DOCTYPE svg
PUBLIC "-//W3C//DTD SVG 1.1//EN"
       "http://www.w3.org/Graphics/SVG/1.1/DTD/svg11.dtd">
<svg version="1.1" xmlns="http://www.w3.org/2000/svg" xmlns:xlink="http://www.w3.org/1999/xlink" width="3300" height="2200">
 <!--glyph: "uni100129.medium", point size: 100.0, font version: "17.0d12e1", template writer version: "65.1"-->
 <g id="Notes">
  <rect height="2200" id="artboard" style="fill:white;opacity:1" width="3300" x="0" y="0"/>
  <line style="fill:none;stroke:black;opacity:1;stroke-width:0.5;" x1="263" x2="3036" y1="292" y2="292"/>
  <text style="stroke:none;fill:black;font-family:sans-serif;font-size:13;font-weight:bold;" transform="matrix(1 0 0 1 263 322)">Weight/Scale Variations</text>
  <text style="stroke:none;fill:black;font-family:sans-serif;font-size:13;text-anchor:middle;" transform="matrix(1 0 0 1 559.711 322)">Ultralight</text>
  <text style="stroke:none;fill:black;font-family:sans-serif;font-size:13;text-anchor:middle;" transform="matrix(1 0 0 1 856.422 322)">Thin</text>
  <text style="stroke:none;fill:black;font-family:sans-serif;font-size:13;text-anchor:middle;" transform="matrix(1 0 0 1 1153.13 322)">Light</text>
  <text style="stroke:none;fill:black;font-family:sans-serif;font-size:13;text-anchor:middle;" transform="matrix(1 0 0 1 1449.84 322)">Regular</text>
  <text style="stroke:none;fill:black;font-family:sans-serif;font-size:13;text-anchor:middle;" transform="matrix(1 0 0 1 1746.56 322)">Medium</text>
  <text style="stroke:none;fill:black;font-family:sans-serif;font-size:13;text-anchor:middle;" transform="matrix(1 0 0 1 2043.27 322)">Semibold</text>
  <text style="stroke:none;fill:black;font-family:sans-serif;font-size:13;text-anchor:middle;" transform="matrix(1 0 0 1 2339.98 322)">Bold</text>
  <text style="stroke:none;fill:black;font-family:sans-serif;font-size:13;text-anchor:middle;" transform="matrix(1 0 0 1 2636.69 322)">Heavy</text>
  <text style="stroke:none;fill:black;font-family:sans-serif;font-size:13;text-anchor:middle;" transform="matrix(1 0 0 1 2933.4 322)">Black</text>
  <line style="fill:none;stroke:black;opacity:1;stroke-width:0.5;" x1="263" x2="3036" y1="1903" y2="1903"/>
  <g transform="matrix(1 0 0 1 263 1933)">
   <path d="M9.24805 0.830078Q10.8691 0.830078 12.2949 0.214844Q13.7207-0.400391 14.8096-1.49414Q15.8984-2.58789 16.5186-4.01367Q17.1387-5.43945 17.1387-7.05078Q17.1387-8.66211 16.5186-10.0879Q15.8984-11.5137 14.8047-12.6074Q13.7109-13.7012 12.2852-14.3164Q10.8594-14.9316 9.23828-14.9316Q7.62695-14.9316 6.20117-14.3164Q4.77539-13.7012 3.69141-12.6074Q2.60742-11.5137 1.9873-10.0879Q1.36719-8.66211 1.36719-7.05078Q1.36719-5.43945 1.9873-4.01367Q2.60742-2.58789 3.69629-1.49414Q4.78516-0.400391 6.21094 0.214844Q7.63672 0.830078 9.24805 0.830078ZM9.24805-0.654297Q7.91992-0.654297 6.7627-1.14746Q5.60547-1.64062 4.73145-2.51953Q3.85742-3.39844 3.36426-4.56055Q2.87109-5.72266 2.87109-7.05078Q2.87109-8.37891 3.35938-9.54102Q3.84766-10.7031 4.72168-11.582Q5.5957-12.4609 6.75293-12.9541Q7.91016-13.4473 9.23828-13.4473Q10.5762-13.4473 11.7334-12.9541Q12.8906-12.4609 13.7695-11.582Q14.6484-10.7031 15.1465-9.54102Q15.6445-8.37891 15.6445-7.05078Q15.6445-5.72266 15.1514-4.56055Q14.6582-3.39844 13.7842-2.51953Q12.9102-1.64062 11.748-1.14746Q10.5859-0.654297 9.24805-0.654297ZM5.6543-7.05078Q5.6543-6.72852 5.85938-6.52832Q6.06445-6.32812 6.40625-6.32812L8.51562-6.32812L8.51562-4.20898Q8.51562-3.88672 8.71094-3.67676Q8.90625-3.4668 9.23828-3.4668Q9.56055-3.4668 9.77051-3.67676Q9.98047-3.88672 9.98047-4.20898L9.98047-6.32812L12.0898-6.32812Q12.4219-6.32812 12.627-6.52832Q12.832-6.72852 12.832-7.05078Q12.832-7.38281 12.627-7.58789Q12.4219-7.79297 12.0898-7.79297L9.98047-7.79297L9.98047-9.90234Q9.98047-10.2344 9.77051-10.4443Q9.56055-10.6543 9.23828-10.6543Q8.90625-10.6543 8.71094-10.4443Q8.51562-10.2344 8.51562-9.90234L8.51562-7.79297L6.40625-7.79297Q6.06445-7.79297 5.85938-7.58789Q5.6543-7.38281 5.6543-7.05078Z"/>
  </g>
  <g transform="matrix(1 0 0 1 281.867 1933)">
   <path d="M11.709 2.91016Q13.75 2.91016 15.5518 2.12891Q17.3535 1.34766 18.7305-0.0292969Q20.1074-1.40625 20.8887-3.20801Q21.6699-5.00977 21.6699-7.05078Q21.6699-9.0918 20.8887-10.8936Q20.1074-12.6953 18.7305-14.0723Q17.3535-15.4492 15.5469-16.2305Q13.7402-17.0117 11.6992-17.0117Q9.6582-17.0117 7.85645-16.2305Q6.05469-15.4492 4.68262-14.0723Q3.31055-12.6953 2.5293-10.8936Q1.74805-9.0918 1.74805-7.05078Q1.74805-5.00977 2.5293-3.20801Q3.31055-1.40625 4.6875-0.0292969Q6.06445 1.34766 7.86621 2.12891Q9.66797 2.91016 11.709 2.91016ZM11.709 1.25Q9.98047 1.25 8.47656 0.605469Q6.97266-0.0390625 5.83496-1.17676Q4.69727-2.31445 4.05762-3.81836Q3.41797-5.32227 3.41797-7.05078Q3.41797-8.7793 4.05762-10.2832Q4.69727-11.7871 5.83008-12.9297Q6.96289-14.0723 8.4668-14.7119Q9.9707-15.3516 11.6992-15.3516Q13.4277-15.3516 14.9316-14.7119Q16.4355-14.0723 17.5781-12.9297Q18.7207-11.7871 19.3652-10.2832Q20.0098-8.7793 20.0098-7.05078Q20.0098-5.32227 19.3701-3.81836Q18.7305-2.31445 17.5928-1.17676Q16.4551-0.0390625 14.9463 0.605469Q13.4375 1.25 11.709 1.25ZM7.17773-7.05078Q7.17773-6.69922 7.41211-6.47461Q7.64648-6.25 8.01758-6.25L10.8887-6.25L10.8887-3.36914Q10.8887-2.99805 11.1133-2.76855Q11.3379-2.53906 11.6895-2.53906Q12.0605-2.53906 12.29-2.76855Q12.5195-2.99805 12.5195-3.36914L12.5195-6.25L15.4004-6.25Q15.7715-6.25 16.001-6.47461Q16.2305-6.69922 16.2305-7.05078Q16.2305-7.42188 16.001-7.65137Q15.7715-7.88086 15.4004-7.88086L12.5195-7.88086L12.5195-10.752Q12.5195-11.1328 12.29-11.3623Q12.0605-11.5918 11.6895-11.5918Q11.3379-11.5918 11.1133-11.3574Q10.8887-11.123 10.8887-10.752L10.8887-7.88086L8.01758-7.88086Q7.63672-7.88086 7.40723-7.65137Q7.17773-7.42188 7.17773-7.05078Z"/>
  </g>
  <g transform="matrix(1 0 0 1 305.646 1933)">
   <path d="M14.9707 5.66406Q17.0605 5.66406 18.96 5.01465Q20.8594 4.36523 22.4512 3.19336Q24.043 2.02148 25.2197 0.429688Q26.3965-1.16211 27.0459-3.06641Q27.6953-4.9707 27.6953-7.05078Q27.6953-9.14062 27.0459-11.04Q26.3965-12.9395 25.2197-14.5312Q24.043-16.123 22.4512-17.2998Q20.8594-18.4766 18.9551-19.126Q17.0508-19.7754 14.9609-19.7754Q12.8711-19.7754 10.9717-19.126Q9.07227-18.4766 7.48535-17.2998Q5.89844-16.123 4.72168-14.5312Q3.54492-12.9395 2.90039-11.04Q2.25586-9.14062 2.25586-7.05078Q2.25586-4.9707 2.90527-3.06641Q3.55469-1.16211 4.72656 0.429688Q5.89844 2.02148 7.49023 3.19336Q9.08203 4.36523 10.9814 5.01465Q12.8809 5.66406 14.9707 5.66406ZM14.9707 3.84766Q13.1641 3.84766 11.5283 3.2959Q9.89258 2.74414 8.53516 1.74805Q7.17773 0.751953 6.17676-0.610352Q5.17578-1.97266 4.62891-3.6084Q4.08203-5.24414 4.08203-7.05078Q4.08203-8.86719 4.62891-10.5029Q5.17578-12.1387 6.17188-13.501Q7.16797-14.8633 8.52539-15.8594Q9.88281-16.8555 11.5186-17.4023Q13.1543-17.9492 14.9609-17.9492Q16.7773-17.9492 18.4131-17.4023Q20.0488-16.8555 21.4111-15.8594Q22.7734-14.8633 23.7695-13.501Q24.7656-12.1387 25.3174-10.5029Q25.8691-8.86719 25.8691-7.05078Q25.8789-5.24414 25.332-3.6084Q24.7852-1.97266 23.7842-0.610352Q22.7832 0.751953 21.4209 1.74805Q20.0586 2.74414 18.4229 3.2959Q16.7871 3.84766 14.9707 3.84766ZM9.19922-7.05078Q9.19922-6.66992 9.45801-6.4209Q9.7168-6.17188 10.1172-6.17188L14.0625-6.17188L14.0625-2.2168Q14.0625-1.81641 14.3115-1.55762Q14.5605-1.29883 14.9512-1.29883Q15.3516-1.29883 15.6104-1.55273Q15.8691-1.80664 15.8691-2.2168L15.8691-6.17188L19.8242-6.17188Q20.2246-6.17188 20.4785-6.4209Q20.7324-6.66992 20.7324-7.05078Q20.7324-7.46094 20.4785-7.71484Q20.2246-7.96875 19.8242-7.96875L15.8691-7.96875L15.8691-11.9141Q15.8691-12.3242 15.6104-12.583Q15.3516-12.8418 14.9512-12.8418Q14.5605-12.8418 14.3115-12.583Q14.0625-12.3242 14.0625-11.9141L14.0625-7.96875L10.1172-7.96875Q9.70703-7.96875 9.45312-7.71484Q9.19922-7.46094 9.19922-7.05078Z"/>
  </g>
  <text style="stroke:none;fill:black;font-family:sans-serif;font-size:13;font-weight:bold;" transform="matrix(1 0 0 1 263 1953)">Design Variations</text>
  <text style="stroke:none;fill:black;font-family:sans-serif;font-size:13;" transform="matrix(1 0 0 1 263 1971)">Symbols are supported in up to nine weights and three scales.</text>
  <text style="stroke:none;fill:black;font-family:sans-serif;font-size:13;" transform="matrix(1 0 0 1 263 1989)">For optimal layout with text and other symbols, vertically align</text>
  <text style="stroke:none;fill:black;font-family:sans-serif;font-size:13;" transform="matrix(1 0 0 1 263 2007)">symbols with the adjacent text.</text>
  <line style="fill:none;stroke:#00AEEF;stroke-width:0.5;opacity:1.0;" x1="776" x2="776" y1="1919" y2="1933"/>
  <g transform="matrix(1 0 0 1 776 1933)">
   <path d="M3.31055 0.15625Q3.70117 0.15625 3.91602-0.00976562Q4.13086-0.175781 4.26758-0.585938L5.52734-4.0332L11.2891-4.0332L12.5488-0.585938Q12.6855-0.175781 12.9004-0.00976562Q13.1152 0.15625 13.4961 0.15625Q13.8867 0.15625 14.1162-0.0585938Q14.3457-0.273438 14.3457-0.644531Q14.3457-0.869141 14.2383-1.17188L9.6582-13.3691Q9.48242-13.8184 9.17969-14.043Q8.87695-14.2676 8.4082-14.2676Q7.5-14.2676 7.17773-13.3789L2.59766-1.16211Q2.49023-0.859375 2.49023-0.634766Q2.49023-0.263672 2.70996-0.0537109Q2.92969 0.15625 3.31055 0.15625ZM6.00586-5.51758L8.37891-12.0898L8.42773-12.0898L10.8008-5.51758Z"/>
  </g>
  <line style="fill:none;stroke:#00AEEF;stroke-width:0.5;opacity:1.0;" x1="793.197" x2="793.197" y1="1919" y2="1933"/>
  <text style="stroke:none;fill:black;font-family:sans-serif;font-size:13;font-weight:bold;" transform="matrix(1 0 0 1 776 1953)">Margins</text>
  <text style="stroke:none;fill:black;font-family:sans-serif;font-size:13;" transform="matrix(1 0 0 1 776 1971)">Leading and trailing margins on the left and right side of each symbol</text>
  <text style="stroke:none;fill:black;font-family:sans-serif;font-size:13;" transform="matrix(1 0 0 1 776 1989)">can be adjusted by modifying the x-location of the margin guidelines.</text>
  <text style="stroke:none;fill:black;font-family:sans-serif;font-size:13;" transform="matrix(1 0 0 1 776 2007)">Modifications are automatically applied proportionally to all</text>
  <text style="stroke:none;fill:black;font-family:sans-serif;font-size:13;" transform="matrix(1 0 0 1 776 2025)">scales and weights.</text>
  <g transform="matrix(1 0 0 1 1289 1933)">
   <path d="M2.8418 1.86523L4.54102 3.57422Q5.18555 4.22852 5.90332 4.17969Q6.62109 4.13086 7.31445 3.35938L18.0078-8.42773L17.041-9.4043L6.42578 2.27539Q6.16211 2.57812 5.89355 2.61719Q5.625 2.65625 5.27344 2.30469L4.10156 1.14258Q3.75 0.791016 3.79395 0.522461Q3.83789 0.253906 4.14062-0.0195312L15.6152-10.8203L14.6387-11.7871L3.04688-0.898438Q2.30469-0.214844 2.25098 0.498047Q2.19727 1.21094 2.8418 1.86523ZM9.25781-16.3281Q8.94531-16.0254 8.90625-15.6348Q8.86719-15.2441 9.04297-14.9512Q9.21875-14.6777 9.55566-14.541Q9.89258-14.4043 10.3809-14.5215Q11.4746-14.7754 12.5977-14.7314Q13.7207-14.6875 14.7949-13.9844L14.209-12.5293Q13.9551-11.9043 14.0674-11.4404Q14.1797-10.9766 14.5801-10.5664L16.875-8.25195Q17.2363-7.88086 17.5781-7.82227Q17.9199-7.76367 18.3398-7.8418L19.4043-8.03711L20.0684-7.36328L20.0293-6.80664Q20-6.43555 20.1221-6.12305Q20.2441-5.81055 20.6055-5.44922L21.3672-4.70703Q21.7285-4.3457 22.1533-4.33105Q22.5781-4.31641 22.9297-4.66797L25.8398-7.58789Q26.1914-7.93945 26.1816-8.35449Q26.1719-8.76953 25.8105-9.13086L25.0391-9.89258Q24.6875-10.2539 24.3799-10.3857Q24.0723-10.5176 23.7109-10.4883L23.1348-10.4395L22.4902-11.0742L22.7344-12.1973Q22.832-12.6172 22.6953-12.9834Q22.5586-13.3496 22.1191-13.7891L19.9219-15.9766Q18.6719-17.2168 17.2607-17.8369Q15.8496-18.457 14.4189-18.4814Q12.9883-18.5059 11.665-17.959Q10.3418-17.4121 9.25781-16.3281ZM10.752-15.957Q11.6602-16.6211 12.7002-16.9043Q13.7402-17.1875 14.8047-17.085Q15.8691-16.9824 16.8701-16.5137Q17.8711-16.0449 18.7012-15.2051L21.1328-12.793Q21.3086-12.6172 21.3525-12.4512Q21.3965-12.2852 21.3379-12.0312L21.0156-10.5469L22.5195-9.0625L23.5059-9.12109Q23.6914-9.13086 23.7891-9.09668Q23.8867-9.0625 24.0332-8.91602L24.6094-8.33984L22.168-5.89844L21.5918-6.47461Q21.4453-6.62109 21.4062-6.71875Q21.3672-6.81641 21.377-7.01172L21.4453-7.98828L19.9512-9.47266L18.4277-9.21875Q18.1836-9.16992 18.042-9.2041Q17.9004-9.23828 17.7148-9.41406L15.7129-11.416Q15.5176-11.5918 15.4932-11.7529Q15.4688-11.9141 15.5859-12.1875L16.4648-14.2773Q15.293-15.3711 13.8281-15.791Q12.3633-16.2109 10.8398-15.7617Q10.7227-15.7324 10.6885-15.8057Q10.6543-15.8789 10.752-15.957Z"/>
  </g>
  <text style="stroke:none;fill:black;font-family:sans-serif;font-size:13;font-weight:bold;" transform="matrix(1 0 0 1 1289 1953)">Exporting</text>
  <text style="stroke:none;fill:black;font-family:sans-serif;font-size:13;" transform="matrix(1 0 0 1 1289 1971)">Symbols should be outlined when exporting to ensure the</text>
  <text style="stroke:none;fill:black;font-family:sans-serif;font-size:13;" transform="matrix(1 0 0 1 1289 1989)">design is preserved when submitting to Xcode.</text>
  <text id="template-version" style="stroke:none;fill:black;font-family:sans-serif;font-size:13;text-anchor:end;" transform="matrix(1 0 0 1 3036 1933)">Template v.3.0</text>
  <text style="stroke:none;fill:black;font-family:sans-serif;font-size:13;text-anchor:end;" transform="matrix(1 0 0 1 3036 1951)">Requires Xcode 13 or greater</text>
  <text id="descriptive-name" style="stroke:none;fill:black;font-family:sans-serif;font-size:13;text-anchor:end;" transform="matrix(1 0 0 1 3036 1969)">Generated from arrow.down</text>
  <text style="stroke:none;fill:black;font-family:sans-serif;font-size:13;text-anchor:end;" transform="matrix(1 0 0 1 3036 1987)">Typeset at 100 points</text>
  <text style="stroke:none;fill:black;font-family:sans-serif;font-size:13;" transform="matrix(1 0 0 1 263 726)">Small</text>
  <text style="stroke:none;fill:black;font-family:sans-serif;font-size:13;" transform="matrix(1 0 0 1 263 1156)">Medium</text>
  <text style="stroke:none;fill:black;font-family:sans-serif;font-size:13;" transform="matrix(1 0 0 1 263 1586)">Large</text>
 </g>
 <g id="Guides">
  <g id="H-reference" style="fill:#27AAE1;stroke:none;" transform="matrix(1 0 0 1 339 696)">
   <path d="M0.993347 0L3.6377 0L29.3282-67.1326L30.0301-67.1326L30.0301-70.459L28.1227-70.459ZM11.6882-24.4797L46.9818-24.4797L46.2311-26.7288L12.4382-26.7288ZM55.1193 0L57.7637 0L30.6381-70.459L29.4327-70.459L29.4327-67.1326Z"/>
  </g>
  <line id="Baseline-S" style="fill:none;stroke:#27AAE1;opacity:1;stroke-width:0.5;" x1="263" x2="3036" y1="696" y2="696"/>
  <line id="Capline-S" style="fill:none;stroke:#27AAE1;opacity:1;stroke-width:0.5;" x1="263" x2="3036" y1="625.541" y2="625.541"/>
  <g id="H-reference" style="fill:#27AAE1;stroke:none;" transform="matrix(1 0 0 1 339 1126)">
   <path d="M0.993347 0L3.6377 0L29.3282-67.1326L30.0301-67.1326L30.0301-70.459L28.1227-70.459ZM11.6882-24.4797L46.9818-24.4797L46.2311-26.7288L12.4382-26.7288ZM55.1193 0L57.7637 0L30.6381-70.459L29.4327-70.459L29.4327-67.1326Z"/>
  </g>
  <line id="Baseline-M" style="fill:none;stroke:#27AAE1;opacity:1;stroke-width:0.5;" x1="263" x2="3036" y1="1126" y2="1126"/>
  <line id="Capline-M" style="fill:none;stroke:#27AAE1;opacity:1;stroke-width:0.5;" x1="263" x2="3036" y1="1055.54" y2="1055.54"/>
  <g id="H-reference" style="fill:#27AAE1;stroke:none;" transform="matrix(1 0 0 1 339 1556)">
   <path d="M0.993347 0L3.6377 0L29.3282-67.1326L30.0301-67.1326L30.0301-70.459L28.1227-70.459ZM11.6882-24.4797L46.9818-24.4797L46.2311-26.7288L12.4382-26.7288ZM55.1193 0L57.7637 0L30.6381-70.459L29.4327-70.459L29.4327-67.1326Z"/>
  </g>
  <line id="Baseline-L" style="fill:none;stroke:#27AAE1;opacity:1;stroke-width:0.5;" x1="263" x2="3036" y1="1556" y2="1556"/>
  <line id="Capline-L" style="fill:none;stroke:#27AAE1;opacity:1;stroke-width:0.5;" x1="263" x2="3036" y1="1485.54" y2="1485.54"/>
  <line id="left-margin-Regular-M" style="fill:none;stroke:#00AEEF;stroke-width:0.5;opacity:1.0;" x1="1400.38" x2="1400.38" y1="1030.79" y2="1150.12"/>
  <line id="right-margin-Regular-M" style="fill:none;stroke:#00AEEF;stroke-width:0.5;opacity:1.0;" x1="1499.31" x2="1499.31" y1="1030.79" y2="1150.12"/>
 </g>
 <g id="Symbols">
  <g id="Black-L" transform="matrix(1 0 0 1 2864.99 1556)">
   <path d="M68.4082-96.0938Q63.2324-96.0938 60.1074-92.8223Q56.9824-89.5508 56.9824-84.1309L56.9824-22.6562L58.1543 4.15039L64.5508-0.683594L48.2422-20.2637L35.0098-33.5938Q33.4473-35.2051 31.4697-36.2549Q29.4922-37.3047 26.8555-37.3047Q22.2656-37.3047 19.165-34.2529Q16.0645-31.2012 16.0645-26.3184Q16.0645-21.7285 19.6289-18.1641L60.0098 22.3145Q61.5234 23.877 63.7939 24.7559Q66.0645 25.6348 68.4082 25.6348Q70.7031 25.6348 72.9736 24.7559Q75.2441 23.877 76.8066 22.3145L117.236-18.1641Q120.752-21.7285 120.752-26.3184Q120.752-31.2012 117.676-34.2529Q114.6-37.3047 110.01-37.3047Q107.373-37.3047 105.371-36.2549Q103.369-35.2051 101.807-33.5938L88.5254-20.2637L72.2168-0.683594L78.6133 4.15039L79.834-22.6562L79.834-84.1309Q79.834-89.5508 76.6846-92.8223Q73.5352-96.0938 68.4082-96.0938Z"/>
  </g>
  <g id="Heavy-L" transform="matrix(1 0 0 1 2569.48 1556)">
   <path d="M67.2096-95.7016Q62.7716-95.7016 60.067-92.8913Q57.3624-90.081 57.3624-85.4561L57.3624-18.219L58.3847 6.44379L63.9397 2.50854L46.6171-17.7399L32.4165-31.9687Q31.073-33.3382 29.3549-34.2209Q27.6367-35.1036 25.3922-35.1036Q21.4241-35.1036 18.7443-32.4551Q16.0645-29.8065 16.0645-25.6035Q16.0645-21.6476 19.133-18.5677L59.9518 22.3259Q61.293 23.7038 63.2408 24.4732Q65.1886 25.2426 67.2096 25.2426Q69.1933 25.2426 71.1411 24.4732Q73.0888 23.7038 74.4675 22.3259L115.324-18.5677Q118.355-21.6476 118.355-25.6035Q118.355-29.8065 115.694-32.4551Q113.033-35.1036 109.064-35.1036Q106.82-35.1036 105.083-34.2209Q103.346-33.3382 102.003-31.9687L87.7647-17.7399L70.4308 2.50854L75.9972 6.44379L77.0569-18.219L77.0569-85.4561Q77.0569-90.081 74.3336-92.8913Q71.6103-95.7016 67.2096-95.7016Z"/>
  </g>
  <g id="Bold-L" transform="matrix(1 0 0 1 2274.11 1556)">
   <path d="M65.8691-95.2637Q62.2559-95.2637 60.022-92.9688Q57.7881-90.6738 57.7881-86.9385L57.7881-13.2568L58.6426 9.00879L63.2568 6.0791L44.7998-14.917L29.5166-30.1514Q28.418-31.25 26.9897-31.9458Q25.5615-32.6416 23.7549-32.6416Q20.4834-32.6416 18.2739-30.4443Q16.0645-28.2471 16.0645-24.8047Q16.0645-21.5576 18.5791-19.0186L59.8877 22.3389Q61.0352 23.5107 62.6221 24.1577Q64.209 24.8047 65.8691 24.8047Q67.5049 24.8047 69.0918 24.1577Q70.6787 23.5107 71.8506 22.3389L113.184-19.0186Q115.674-21.5576 115.674-24.8047Q115.674-28.2471 113.477-30.4443Q111.279-32.6416 108.008-32.6416Q106.201-32.6416 104.761-31.9458Q103.32-31.25 102.222-30.1514L86.9141-14.917L68.4326 6.0791L73.0713 9.00879L73.9502-13.2568L73.9502-86.9385Q73.9502-90.6738 71.7041-92.9688Q69.458-95.2637 65.8691-95.2637Z"/>
  </g>
  <g id="Semibold-L" transform="matrix(1 0 0 1 1978.32 1556)">
   <path d="M64.9452-94.9615Q61.9003-94.9615 59.9907-93.0222Q58.0811-91.0828 58.0811-87.9608L58.0811-9.83505L58.8203 10.7773L62.7861 8.54111L43.5471-12.9707L27.5169-28.8986Q26.5869-29.8103 25.359-30.3772Q24.131-30.9441 22.6265-30.9441Q19.8349-30.9441 17.9497-29.0581Q16.0645-27.1721 16.0645-24.2538Q16.0645-21.4951 18.1969-19.3298L59.8434 22.348Q60.8574 23.3772 62.1956 23.9399Q63.5338 24.5026 64.9452 24.5026Q66.3406 24.5026 67.6788 23.9399Q69.017 23.3772 70.0462 22.348L111.708-19.3298Q113.825-21.4951 113.825-24.2538Q113.825-27.1721 111.948-29.0581Q110.071-30.9441 107.279-30.9441Q105.775-30.9441 104.539-30.3772Q103.303-29.8103 102.373-28.8986L86.3274-12.9707L67.0547 8.54111L71.0541 10.7773L71.8086-9.83505L71.8086-87.9608Q71.8086-91.0828 69.8914-93.0222Q67.9741-94.9615 64.9452-94.9615Z"/>
  </g>
  <g id="Medium-L" transform="matrix(1 0 0 1 1682.31 1556)">
   <path d="M64.2441-94.7327Q61.631-94.7327 59.9674-93.0626Q58.3038-91.3925 58.3038-88.7352L58.3038-7.24106L58.9554 12.1185L62.429 10.4073L42.5964-11.4952L26.001-27.948Q25.1991-28.7186 24.1226-29.1878Q23.0461-29.657 21.7705-29.657Q19.3428-29.657 17.7036-28.0067Q16.0645-26.3565 16.0645-23.8358Q16.0645-21.4485 17.907-19.5656L59.8099 22.3541Q60.7224 23.2765 61.8717 23.7751Q63.0211 24.2737 64.2441 24.2737Q65.4579 24.2737 66.6073 23.7751Q67.7567 23.2765 68.6783 22.3541L110.59-19.5656Q112.424-21.4485 112.424-23.8358Q112.424-26.3565 110.789-28.0067Q109.155-29.657 106.727-29.657Q105.451-29.657 104.37-29.1878Q103.289-28.7186 102.487-27.948L85.8826-11.4952L66.011 10.4073L69.5244 12.1185L70.1843-7.24106L70.1843-88.7352Q70.1843-91.3925 68.5165-93.0626Q66.8488-94.7327 64.2441-94.7327Z"/>
  </g>
  <g id="Regular-L" transform="matrix(1 0 0 1 1386.51 1556)">
   <path d="M63.3301-94.4336Q61.2793-94.4336 59.9365-93.1152Q58.5938-91.7969 58.5938-89.7461L58.5938-3.85742L59.1309 13.8672L61.9629 12.8418L41.3574-9.57031L24.0234-26.709Q23.3887-27.2949 22.5098-27.6367Q21.6309-27.9785 20.6543-27.9785Q18.7012-27.9785 17.3828-26.6357Q16.0645-25.293 16.0645-23.291Q16.0645-21.3867 17.5293-19.873L59.7656 22.3633Q60.5469 23.1445 61.4502 23.5596Q62.3535 23.9746 63.3301 23.9746Q64.3066 23.9746 65.21 23.5596Q66.1133 23.1445 66.8945 22.3633L109.131-19.873Q110.596-21.3867 110.596-23.291Q110.596-25.293 109.277-26.6357Q107.959-27.9785 106.006-27.9785Q105.029-27.9785 104.15-27.6367Q103.271-27.2949 102.637-26.709L85.3027-9.57031L64.6484 12.8418L67.5293 13.8672L68.0664-3.85742L68.0664-89.7461Q68.0664-91.7969 66.7236-93.1152Q65.3809-94.4336 63.3301-94.4336Z"/>
  </g>
  <g id="Light-L" transform="matrix(1 0 0 1 1090.48 1556)">
   <path d="M62.6488-93.9949Q61.113-93.9949 60.1109-92.9943Q59.1087-91.9937 59.1087-90.4877L59.1087-0.679016L59.5093 15.638L61.4334 14.9155L43.4464-4.2572L22.0711-25.5135Q21.6026-25.9476 20.9282-26.2062Q20.2538-26.4648 19.5038-26.4648Q18.0656-26.4648 17.065-25.4551Q16.0645-24.4453 16.0645-22.9279Q16.0645-21.4928 17.1661-20.3728L59.993 22.348Q60.5774 22.9172 61.2385 23.2265Q61.8996 23.5359 62.6488 23.5359Q63.3987 23.5359 64.0598 23.2265Q64.7209 22.9172 65.3053 22.348L108.132-20.3728Q109.233-21.4928 109.233-22.9279Q109.233-24.4453 108.233-25.4551Q107.233-26.4648 105.779-26.4648Q105.029-26.4648 104.362-26.2062Q103.696-25.9476 103.227-25.5135L81.852-4.2572L63.8313 14.9155L65.7883 15.638L66.1896-0.679016L66.1896-90.4877Q66.1896-91.9937 65.1798-92.9943Q64.1701-93.9949 62.6488-93.9949Z"/>
  </g>
  <g id="Thin-L" transform="matrix(1 0 0 1 794.674 1556)">
   <path d="M61.7477-93.4143Q60.8925-93.4143 60.3409-92.8341Q59.7893-92.2539 59.7893-91.4688L59.7893 3.52478L60.0098 17.9802L60.7323 17.6582L46.209 2.76871L19.4885-23.9319Q19.2406-24.1661 18.8362-24.3145Q18.4319-24.4629 17.9825-24.4629Q17.2249-24.4629 16.6447-23.8937Q16.0645-23.3246 16.0645-22.4472Q16.0645-21.6331 16.6855-21.0335L60.2928 22.3282Q60.6171 22.6173 60.9581 22.7863Q61.2991 22.9553 61.7477 22.9553Q62.1971 22.9553 62.5381 22.7863Q62.8792 22.6173 63.2034 22.3282L106.811-21.0335Q107.432-21.6331 107.432-22.4472Q107.432-23.3246 106.852-23.8937Q106.271-24.4629 105.479-24.4629Q105.029-24.4629 104.642-24.3145Q104.256-24.1661 104.008-23.9319L77.2873 2.76871L62.7502 17.6582L63.4865 17.9802L63.707 3.52478L63.707-91.4688Q63.707-92.2539 63.1378-92.8341Q62.5687-93.4143 61.7477-93.4143Z"/>
  </g>
  <g id="Ultralight-L" transform="matrix(1 0 0 1 498.424 1556)">
   <path d="M61.2869-93.1168Q60.7796-93.1168 60.4588-92.7521Q60.1379-92.3874 60.1379-91.9708L60.1379 5.67856L60.2661 19.1803L60.3737 19.0628L47.6242 6.36826L18.1656-23.1216Q18.0305-23.2536 17.7647-23.3456Q17.4988-23.4375 17.2035-23.4375Q16.7938-23.4375 16.4291-23.0938Q16.0645-22.7501 16.0645-22.2015Q16.0645-21.7049 16.4398-21.3715L60.4469 22.3175Q60.6377 22.4632 60.8143 22.5605Q60.9909 22.6578 61.2869 22.6578Q61.5822 22.6578 61.7588 22.5605Q61.9354 22.4632 62.1262 22.3175L106.134-21.3715Q106.509-21.7049 106.509-22.2015Q106.509-22.7501 106.144-23.0938Q105.779-23.4375 105.325-23.4375Q105.029-23.4375 104.786-23.3456Q104.543-23.2536 104.408-23.1216L74.9496 6.36826L62.1964 19.0628L62.307 19.1803L62.4359 5.67856L62.4359-91.9708Q62.4359-92.3874 62.0918-92.7521Q61.7477-93.1168 61.2869-93.1168Z"/>
  </g>
  <g id="Black-M" transform="matrix(1 0 0 1 2879.57 1126)">
   <path d="M53.8086-82.6172Q49.3652-82.6172 46.6797-79.7607Q43.9941-76.9043 43.9941-72.2168L43.9941-28.1738L45.0195-6.05469L50.3906-10.498L39.502-24.0234L28.7109-34.9609Q27.3438-36.3281 25.6592-37.2559Q23.9746-38.1836 21.6797-38.1836Q17.7734-38.1836 15.1123-35.5957Q12.4512-33.0078 12.4512-28.8086Q12.4512-24.8535 15.4785-21.8262L46.6309 9.375Q47.9004 10.6445 49.8535 11.4014Q51.8066 12.1582 53.8086 12.1582Q55.7617 12.1582 57.7393 11.4014Q59.7168 10.6445 60.9863 9.375L92.1387-21.8262Q95.2148-24.8535 95.2148-28.8086Q95.2148-33.0078 92.5537-35.5957Q89.8926-38.1836 85.9863-38.1836Q83.6914-38.1836 81.9824-37.2559Q80.2734-36.3281 78.9551-34.9609L68.0664-24.0234L57.2266-10.498L62.5488-6.05469L63.5742-28.1738L63.5742-72.2168Q63.5742-76.9043 60.8887-79.7607Q58.2031-82.6172 53.8086-82.6172Z"/>
  </g>
  <g id="Heavy-M" transform="matrix(1 0 0 1 2583.89 1126)">
   <path d="M52.7832-82.3174Q48.9388-82.3174 46.5988-79.8527Q44.2589-77.388 44.2589-73.3574L44.2589-24.5323L45.1576-4.19922L49.9069-7.82471L37.4619-22.6868L26.5907-33.6243Q25.4074-34.8068 23.9304-35.5846Q22.4533-36.3625 20.4926-36.3625Q17.0822-36.3625 14.7667-34.0973Q12.4512-31.8321 12.4512-28.1975Q12.4512-24.7612 15.0864-22.1146L46.5271 9.38644Q47.67 10.5293 49.358 11.1938Q51.046 11.8584 52.7832 11.8584Q54.4937 11.8584 56.2004 11.1938Q57.9071 10.5293 59.0385 9.38644L90.4907-22.1146Q93.1519-24.7612 93.1519-28.1975Q93.1519-31.8321 90.8363-34.0973Q88.5208-36.3625 85.1105-36.3625Q83.1497-36.3625 81.654-35.5846Q80.1582-34.8068 79.0131-33.6243L68.0664-22.6868L55.648-7.82471L60.3706-4.19922L61.2694-24.5323L61.2694-73.3574Q61.2694-77.388 58.9294-79.8527Q56.5895-82.3174 52.7832-82.3174Z"/>
  </g>
  <g id="Bold-M" transform="matrix(1 0 0 1 2288.33 1126)">
   <path d="M51.6357-81.9824Q48.4619-81.9824 46.5088-79.9561Q44.5557-77.9297 44.5557-74.6338L44.5557-20.459L45.3125-2.12402L49.3652-4.83398L35.1807-21.1914L24.2188-32.1289Q23.2422-33.1055 21.9971-33.7158Q20.752-34.3262 19.165-34.3262Q16.3086-34.3262 14.3799-32.4219Q12.4512-30.5176 12.4512-27.5146Q12.4512-24.6582 14.6484-22.4365L46.4111 9.39941Q47.4121 10.4004 48.8037 10.9619Q50.1953 11.5234 51.6357 11.5234Q53.0762 11.5234 54.48 10.9619Q55.8838 10.4004 56.8604 9.39941L88.6475-22.4365Q90.8447-24.6582 90.8447-27.5146Q90.8447-30.5176 88.916-32.4219Q86.9873-34.3262 84.1309-34.3262Q82.5439-34.3262 81.2866-33.7158Q80.0293-33.1055 79.0771-32.1289L68.0664-21.1914L53.8818-4.83398L57.9346-2.12402L58.6914-20.459L58.6914-74.6338Q58.6914-77.9297 56.7383-79.9561Q54.7852-81.9824 51.6357-81.9824Z"/>
  </g>
  <g id="Semibold-M" transform="matrix(1 0 0 1 1992.41 1126)">
   <path d="M50.8446-81.7513Q48.1331-81.7513 46.4466-80.027Q44.7601-78.3028 44.7601-75.5135L44.7601-17.6506L45.4193-0.693512L48.9922-2.77252L33.6075-20.1607L22.5838-31.0982Q21.7491-31.9321 20.6638-32.4272Q19.5786-32.9224 18.2495-32.9224Q15.7753-32.9224 14.1132-31.2668Q12.4512-29.6112 12.4512-27.0439Q12.4512-24.5872 14.3463-22.6585L46.331 9.40857Q47.2343 10.3119 48.4215 10.8021Q49.6086 11.2923 50.8446 11.2923Q52.0988 11.2923 53.2936 10.8021Q54.4884 10.3119 55.3581 9.40857L87.3764-22.6585Q89.254-24.5872 89.254-27.0439Q89.254-29.6112 87.5919-31.2668Q85.9299-32.9224 83.4557-32.9224Q82.1266-32.9224 81.0337-32.4272Q79.9408-31.9321 79.1214-31.0982L68.0664-20.1607L52.6642-2.77252L56.2546-0.693512L56.9138-17.6506L56.9138-75.5135Q56.9138-78.3028 55.2273-80.027Q53.5408-81.7513 50.8446-81.7513Z"/>
  </g>
  <g id="Medium-M" transform="matrix(1 0 0 1 1696.31 1126)">
   <path d="M50.2449-81.5765Q47.8836-81.5765 46.3993-80.0812Q44.915-78.5858 44.915-76.181L44.915-15.5212L45.5002 0.391388L48.7091-1.20926L32.415-19.3787L21.344-30.3162Q20.6169-31.0432 19.6533-31.4503Q18.6897-31.8573 17.556-31.8573Q15.3709-31.8573 13.9111-30.3905Q12.4512-28.9238 12.4512-26.6869Q12.4512-24.5331 14.1174-22.8271L46.2708 9.41467Q47.0993 10.244 48.1316 10.6808Q49.1638 11.1176 50.2449 11.1176Q51.3573 11.1176 52.3941 10.6808Q53.4309 10.244 54.2198 9.41467L86.4128-22.8271Q88.0478-24.5331 88.0478-26.6869Q88.0478-28.9238 86.5879-30.3905Q85.128-31.8573 82.943-31.8573Q81.8092-31.8573 80.8411-31.4503Q79.8729-31.0432 79.155-30.3162L68.0664-19.3787L51.741-1.20926L54.9812 0.391388L55.5664-15.5212L55.5664-76.181Q55.5664-78.5858 54.0821-80.0812Q52.5978-81.5765 50.2449-81.5765Z"/>
  </g>
  <g id="Regular-M" transform="matrix(1 0 0 1 1400.38 1126)">
   <path d="M49.4629-81.3477Q47.5586-81.3477 46.3379-80.1514Q45.1172-78.9551 45.1172-77.0508L45.1172-12.7441L45.6055 1.80664L48.3398 0.830078L30.8594-18.3594L19.7266-29.2969Q19.1406-29.8828 18.335-30.1758Q17.5293-30.4688 16.6504-30.4688Q14.8438-30.4688 13.6475-29.248Q12.4512-28.0273 12.4512-26.2207Q12.4512-24.4629 13.8184-23.0469L46.1914 9.42383Q46.9238 10.1562 47.7539 10.5225Q48.584 10.8887 49.4629 10.8887Q50.3906 10.8887 51.2207 10.5225Q52.0508 10.1562 52.7344 9.42383L85.1562-23.0469Q86.4746-24.4629 86.4746-26.2207Q86.4746-28.0273 85.2783-29.248Q84.082-30.4688 82.2754-30.4688Q81.3965-30.4688 80.5908-30.1758Q79.7852-29.8828 79.1992-29.2969L68.0664-18.3594L50.5371 0.830078L53.3203 1.80664L53.8086-12.7441L53.8086-77.0508Q53.8086-78.9551 52.5879-80.1514Q51.3672-81.3477 49.4629-81.3477Z"/>
  </g>
  <g id="Light-M" transform="matrix(1 0 0 1 1104.28 1126)">
   <path d="M48.8571-80.954Q47.422-80.954 46.5042-80.0453Q45.5864-79.1367 45.5864-77.7168L45.5864-9.89838L45.9381 3.39584L47.8554 2.69165L32.7362-13.6063L17.971-28.2372Q17.5362-28.672 16.9197-28.8891Q16.3033-29.1061 15.6212-29.1061Q14.2685-29.1061 13.3598-28.1883Q12.4512-27.2705 12.4512-25.8881Q12.4512-24.5537 13.4857-23.4856L46.3882 9.40857Q46.9391 9.94415 47.5571 10.2196Q48.175 10.495 48.8571 10.495Q49.5583 10.495 50.1762 10.2196Q50.7942 9.94415 51.3115 9.40857L84.2628-23.4856Q85.2486-24.5537 85.2486-25.8881Q85.2486-27.2705 84.3399-28.1883Q83.4312-29.1061 82.0786-29.1061Q81.3965-29.1061 80.78-28.8891Q80.1636-28.672 79.7287-28.2372L64.9635-13.6063L49.8108 2.69165L51.7616 3.39584L52.1286-9.89838L52.1286-77.7168Q52.1286-79.1367 51.2032-80.0453Q50.2777-80.954 48.8571-80.954Z"/>
  </g>
  <g id="Thin-M" transform="matrix(1 0 0 1 808.383 1126)">
   <path d="M48.0568-80.4337Q47.242-80.4337 46.7243-79.9053Q46.2067-79.377 46.2067-78.5973L46.2067-6.1348L46.3791 5.49774L47.2153 5.15442L35.2188-7.3204L15.6487-26.8364Q15.4144-27.0706 15.0482-27.1877Q14.682-27.3048 14.2601-27.3048Q13.5078-27.3048 12.9795-26.7872Q12.4512-26.2695 12.4512-25.4471Q12.4512-24.6735 13.0447-24.0662L46.6484 9.38873Q46.9589 9.66415 47.2969 9.81941Q47.6349 9.97467 48.0568 9.97467Q48.4573 9.97467 48.7953 9.81941Q49.1333 9.66415 49.4301 9.38873L83.0818-24.0662Q83.6273-24.6735 83.6273-25.4471Q83.6273-26.2695 83.099-26.7872Q82.5706-27.3048 81.8184-27.3048Q81.3965-27.3048 81.0303-27.1877Q80.6641-27.0706 80.4298-26.8364L60.8597-7.3204L48.8495 5.15442L49.6994 5.49774L49.9062-6.1348L49.9062-78.5973Q49.9062-79.377 49.371-79.9053Q48.8358-80.4337 48.0568-80.4337Z"/>
  </g>
  <g id="Ultralight-M" transform="matrix(1 0 0 1 512.087 1126)">
   <path d="M47.6463-80.1666Q47.1497-80.1666 46.8372-79.8332Q46.5248-79.4998 46.5248-79.0489L46.5248-4.20685L46.6042 6.57501L46.8864 6.41556L36.4899-4.1008L14.4592-26.1185Q14.3272-26.2497 14.0892-26.3157Q13.8512-26.3817 13.5628-26.3817Q13.118-26.3817 12.7846-26.0693Q12.4512-25.7568 12.4512-25.222Q12.4512-24.7353 12.8197-24.3637L46.7819 9.37805Q46.9696 9.52072 47.1638 9.61418Q47.3579 9.70764 47.6463 9.70764Q47.8928 9.70764 48.0873 9.61418Q48.2819 9.52072 48.4657 9.37805L82.4768-24.3637Q82.7965-24.7353 82.7965-25.222Q82.7965-25.7568 82.4631-26.0693Q82.1297-26.3817 81.6849-26.3817Q81.3965-26.3817 81.1584-26.3157Q80.9204-26.2497 80.7884-26.1185L58.7578-4.1008L48.3574 6.41556L48.6427 6.57501L48.7679-4.20685L48.7679-79.0489Q48.7679-79.4998 48.4329-79.8332Q48.098-80.1666 47.6463-80.1666Z"/>
  </g>
  <g id="Black-S" transform="matrix(1 0 0 1 2890.94 696)">
   <path d="M42.4316-72.4121Q38.8184-72.4121 36.6211-70.0928Q34.4238-67.7734 34.4238-63.916L34.4238-30.6641L35.2539-12.8418L39.5996-16.5527L31.6895-26.5625L23.0469-35.3516Q21.9727-36.4746 20.5811-37.2559Q19.1895-38.0371 17.2852-38.0371Q14.1113-38.0371 11.9385-35.9375Q9.76562-33.8379 9.76562-30.3711Q9.76562-27.1484 12.2559-24.6582L36.5723-0.292969Q38.8184 1.95312 42.4316 1.95312Q46.0449 1.95312 48.291-0.292969L72.6562-24.6582Q75.1465-27.1484 75.1465-30.3711Q75.1465-33.8379 72.9736-35.9375Q70.8008-38.0371 67.627-38.0371Q65.7227-38.0371 64.3555-37.2559Q62.9883-36.4746 61.8652-35.3516L53.1738-26.5625L45.2637-16.5527L49.6094-12.8418L50.4395-30.6641L50.4395-63.916Q50.4395-67.7734 48.2422-70.0928Q46.0449-72.4121 42.4316-72.4121Z"/>
  </g>
  <g id="Heavy-S" transform="matrix(1 0 0 1 2595.03 696)">
   <path d="M41.6367-72.216Q38.4727-72.216 36.5288-70.1847Q34.5848-68.1534 34.5848-64.8033L34.5848-27.9099L35.3348-11.4586L39.2426-14.5012L29.7073-26.0323L21.4561-34.3491Q20.5208-35.3218 19.2848-35.9879Q18.0489-36.6539 16.4093-36.6539Q13.5925-36.6539 11.6791-34.7851Q9.76562-32.9163 9.76562-29.8874Q9.76562-27.0561 11.956-24.8428L36.4685-0.281525Q38.4842 1.75705 41.6367 1.75705Q44.7891 1.75705 46.804-0.281525L71.3539-24.8428Q73.5443-27.0561 73.5443-29.8874Q73.5443-32.9163 71.6309-34.7851Q69.7174-36.6539 66.9006-36.6539Q65.2618-36.6539 64.0446-35.9879Q62.8273-35.3218 61.8538-34.3491L53.566-26.0323L44.0193-14.5012L47.9385-11.4586L48.6877-27.9099L48.6877-64.8033Q48.6877-68.1534 46.7442-70.1847Q44.8006-72.216 41.6367-72.216Z"/>
  </g>
  <g id="Bold-S" transform="matrix(1 0 0 1 2299.22 696)">
   <path d="M40.7471-71.9971Q38.0859-71.9971 36.4258-70.2881Q34.7656-68.5791 34.7656-65.7959L34.7656-24.8291L35.4248-9.91211L38.8428-12.207L27.4902-25.4395L19.6777-33.2275Q18.8965-34.0332 17.8345-34.5703Q16.7725-35.1074 15.4297-35.1074Q13.0127-35.1074 11.3892-33.4961Q9.76562-31.8848 9.76562-29.3457Q9.76562-26.9531 11.6211-25.0488L36.3525-0.268555Q38.1104 1.53809 40.7471 1.53809Q43.3838 1.53809 45.1416-0.268555L69.8975-25.0488Q71.7529-26.9531 71.7529-29.3457Q71.7529-31.8848 70.1294-33.4961Q68.5059-35.1074 66.0889-35.1074Q64.7461-35.1074 63.6963-34.5703Q62.6465-34.0332 61.8408-33.2275L54.0039-25.4395L42.627-12.207L46.0693-9.91211L46.7285-24.8291L46.7285-65.7959Q46.7285-68.5791 45.0684-70.2881Q43.4082-71.9971 40.7471-71.9971Z"/>
  </g>
  <g id="Semibold-S" transform="matrix(1 0 0 1 2003.13 696)">
   <path d="M40.1337-71.846Q37.8197-71.846 36.3548-70.359Q34.89-68.8721 34.89-66.4803L34.89-22.7051L35.4874-8.84552L38.5674-10.6255L25.9613-25.0305L18.4517-32.4547Q17.7765-33.1444 16.8346-33.5926Q15.8928-34.0408 14.7545-34.0408Q12.6129-34.0408 11.1893-32.6073Q9.76562-31.1737 9.76562-28.9726Q9.76562-26.8822 11.3899-25.1907L36.2724-0.259399Q37.8525 1.38702 40.1337 1.38702Q42.4149 1.38702 43.9949-0.259399L68.8934-25.1907Q70.5177-26.8822 70.5177-28.9726Q70.5177-31.1737 69.0941-32.6073Q67.6704-34.0408 65.5289-34.0408Q64.3906-34.0408 63.4563-33.5926Q62.5221-33.1444 61.8317-32.4547L54.306-25.0305L41.6672-10.6255L44.7807-8.84552L45.3773-22.7051L45.3773-66.4803Q45.3773-68.8721 43.9129-70.359Q42.4484-71.846 40.1337-71.846Z"/>
  </g>
  <g id="Medium-S" transform="matrix(1 0 0 1 1706.88 696)">
   <path d="M39.669-71.7316Q37.6175-71.7316 36.301-70.4132Q34.9846-69.0948 34.9846-66.9991L34.9846-21.0945L35.5339-8.0368L38.3583-9.42535L24.8024-24.7208L17.5217-31.868Q16.9273-32.4707 16.0763-32.8514Q15.2252-33.2321 14.2418-33.2321Q12.3093-33.2321 11.0374-31.9336Q9.76562-30.6351 9.76562-28.6896Q9.76562-26.828 11.2152-25.2991L36.2122-0.253296Q37.6572 1.27258 39.669 1.27258Q41.6809 1.27258 43.1259-0.253296L68.132-25.2991Q69.5808-26.828 69.5808-28.6896Q69.5808-30.6351 68.309-31.9336Q67.0372-33.2321 65.1047-33.2321Q64.1212-33.2321 63.2744-32.8514Q62.4275-32.4707 61.8256-31.868L54.5349-24.7208L40.9393-9.42535L43.8034-8.0368L44.3535-21.0945L44.3535-66.9991Q44.3535-69.0948 43.037-70.4132Q41.7206-71.7316 39.669-71.7316Z"/>
  </g>
  <g id="Regular-S" transform="matrix(1 0 0 1 1410.78 696)">
   <path d="M39.0625-71.582Q37.3535-71.582 36.2305-70.4834Q35.1074-69.3848 35.1074-67.6758L35.1074-18.9941L35.5957-6.98242L38.0859-7.86133L23.291-24.3164L16.3086-31.1035Q15.8203-31.5918 15.0879-31.8848Q14.3555-32.1777 13.5742-32.1777Q11.9141-32.1777 10.8398-31.0547Q9.76562-29.9316 9.76562-28.3203Q9.76562-26.7578 10.9863-25.4395L36.1328-0.244141Q37.4023 1.12305 39.0625 1.12305Q40.7227 1.12305 41.9922-0.244141L67.1387-25.4395Q68.3594-26.7578 68.3594-28.3203Q68.3594-29.9316 67.2852-31.0547Q66.2109-32.1777 64.5508-32.1777Q63.7695-32.1777 63.0371-31.8848Q62.3047-31.5918 61.8164-31.1035L54.834-24.3164L39.9902-7.86133L42.5293-6.98242L43.0176-18.9941L43.0176-67.6758Q43.0176-69.3848 41.8945-70.4834Q40.7715-71.582 39.0625-71.582Z"/>
  </g>
  <g id="Light-S" transform="matrix(1 0 0 1 1114.62 696)">
   <path d="M38.5178-71.2189Q37.2322-71.2189 36.3819-70.385Q35.5316-69.5511 35.5316-68.2663L35.5316-16.4665L35.8833-5.5748L37.6617-6.22635L24.9413-20.1088L14.7644-30.1651Q14.3974-30.5321 13.8317-30.7495Q13.266-30.9669 12.6663-30.9669Q11.4143-30.9669 10.59-30.1163Q9.76562-29.2656 9.76562-28.0327Q9.76562-26.8333 10.6987-25.8484L36.2991-0.259399Q37.2658 0.759888 38.5178 0.759888Q39.7842 0.759888 40.7356-0.259399L66.3513-25.8484Q67.2699-26.8333 67.2699-28.0327Q67.2699-29.2656 66.4528-30.1163Q65.6357-30.9669 64.3845-30.9669Q63.7695-30.9669 63.2111-30.7495Q62.6526-30.5321 62.2856-30.1651L52.0943-20.1088L39.3394-6.22635L41.1522-5.5748L41.5192-16.4665L41.5192-68.2663Q41.5192-69.5511 40.6685-70.385Q39.8178-71.2189 38.5178-71.2189Z"/>
  </g>
  <g id="Thin-S" transform="matrix(1 0 0 1 818.625 696)">
   <path d="M37.7968-70.7382Q37.072-70.7382 36.5818-70.2549Q36.0916-69.7716 36.0916-69.0468L36.0916-13.1233L36.2633-3.71323L37.1017-4.06494L27.1233-14.5432L12.7228-28.9238Q12.516-29.1313 12.17-29.2484Q11.824-29.3655 11.4647-29.3655Q10.7536-29.3655 10.2596-28.8754Q9.76562-28.3852 9.76562-27.6527Q9.76562-26.9333 10.3188-26.3885L36.5196-0.279236Q37.0857 0.279236 37.7968 0.279236Q38.5429 0.279236 39.0747-0.279236L65.3107-26.3885Q65.8279-26.9333 65.8279-27.6527Q65.8279-28.3852 65.3515-28.8754Q64.875-29.3655 64.164-29.3655Q63.7695-29.3655 63.4415-29.2484Q63.1134-29.1313 62.9059-28.9238L48.4711-14.5432L38.4789-4.06494L39.3303-3.71323L39.537-13.1233L39.537-69.0468Q39.537-69.7716 39.0469-70.2549Q38.5567-70.7382 37.7968-70.7382Z"/>
  </g>
  <g id="Ultralight-S" transform="matrix(1 0 0 1 522.283 696)">
   <path d="M37.4275-70.4926Q36.9904-70.4926 36.6848-70.1885Q36.3792-69.8845 36.3792-69.4466L36.3792-11.4105L36.4586-2.75955L36.8141-2.95715L28.241-11.6928L11.6768-28.2883Q11.5517-28.4134 11.319-28.479Q11.0863-28.5446 10.8498-28.5446Q10.4156-28.5446 10.0906-28.2391Q9.76562-27.9335 9.76562-27.4574Q9.76562-26.9852 10.1234-26.6655L36.6325-0.289917Q36.9934 0.0335693 37.4275 0.0335693Q37.9074 0.0335693 38.2233-0.289917L64.7774-26.6655Q65.0902-26.9852 65.0902-27.4574Q65.0902-27.9335 64.7877-28.2391Q64.4852-28.5446 64.0511-28.5446Q63.7695-28.5446 63.5593-28.479Q63.3492-28.4134 63.224-28.2883L46.6148-11.6928L38.0379-2.95715L38.3972-2.75955L38.5223-11.4105L38.5223-69.4466Q38.5223-69.8845 38.2164-70.1885Q37.9105-70.4926 37.4275-70.4926Z"/>
  </g>
 </g>
</svg>
