<?xml version="1.0" encoding="UTF-8"?>
<!--Generator: Apple Native CoreSVG 175-->
<!DOCTYPE svg
PUBLIC "-//W3C//DTD SVG 1.1//EN"
       "http://www.w3.org/Graphics/SVG/1.1/DTD/svg11.dtd">
<svg version="1.1" xmlns="http://www.w3.org/2000/svg" xmlns:xlink="http://www.w3.org/1999/xlink" width="3300" height="2200">
 <!--glyph: "uni100BB5.medium", point size: 100.0, font version: "17.0d12e1", template writer version: "65.1"-->
 <g id="Notes">
  <rect height="2200" id="artboard" style="fill:white;opacity:1" width="3300" x="0" y="0"/>
  <line style="fill:none;stroke:black;opacity:1;stroke-width:0.5;" x1="263" x2="3036" y1="292" y2="292"/>
  <text style="stroke:none;fill:black;font-family:sans-serif;font-size:13;font-weight:bold;" transform="matrix(1 0 0 1 263 322)">Weight/Scale Variations</text>
  <text style="stroke:none;fill:black;font-family:sans-serif;font-size:13;text-anchor:middle;" transform="matrix(1 0 0 1 559.711 322)">Ultralight</text>
  <text style="stroke:none;fill:black;font-family:sans-serif;font-size:13;text-anchor:middle;" transform="matrix(1 0 0 1 856.422 322)">Thin</text>
  <text style="stroke:none;fill:black;font-family:sans-serif;font-size:13;text-anchor:middle;" transform="matrix(1 0 0 1 1153.13 322)">Light</text>
  <text style="stroke:none;fill:black;font-family:sans-serif;font-size:13;text-anchor:middle;" transform="matrix(1 0 0 1 1449.84 322)">Regular</text>
  <text style="stroke:none;fill:black;font-family:sans-serif;font-size:13;text-anchor:middle;" transform="matrix(1 0 0 1 1746.56 322)">Medium</text>
  <text style="stroke:none;fill:black;font-family:sans-serif;font-size:13;text-anchor:middle;" transform="matrix(1 0 0 1 2043.27 322)">Semibold</text>
  <text style="stroke:none;fill:black;font-family:sans-serif;font-size:13;text-anchor:middle;" transform="matrix(1 0 0 1 2339.98 322)">Bold</text>
  <text style="stroke:none;fill:black;font-family:sans-serif;font-size:13;text-anchor:middle;" transform="matrix(1 0 0 1 2636.69 322)">Heavy</text>
  <text style="stroke:none;fill:black;font-family:sans-serif;font-size:13;text-anchor:middle;" transform="matrix(1 0 0 1 2933.4 322)">Black</text>
  <line style="fill:none;stroke:black;opacity:1;stroke-width:0.5;" x1="263" x2="3036" y1="1903" y2="1903"/>
  <g transform="matrix(1 0 0 1 263 1933)">
   <path d="M9.24805 0.830078Q10.8691 0.830078 12.2949 0.214844Q13.7207-0.400391 14.8096-1.49414Q15.8984-2.58789 16.5186-4.01367Q17.1387-5.43945 17.1387-7.05078Q17.1387-8.66211 16.5186-10.0879Q15.8984-11.5137 14.8047-12.6074Q13.7109-13.7012 12.2852-14.3164Q10.8594-14.9316 9.23828-14.9316Q7.62695-14.9316 6.20117-14.3164Q4.77539-13.7012 3.69141-12.6074Q2.60742-11.5137 1.9873-10.0879Q1.36719-8.66211 1.36719-7.05078Q1.36719-5.43945 1.9873-4.01367Q2.60742-2.58789 3.69629-1.49414Q4.78516-0.400391 6.21094 0.214844Q7.63672 0.830078 9.24805 0.830078ZM9.24805-0.654297Q7.91992-0.654297 6.7627-1.14746Q5.60547-1.64062 4.73145-2.51953Q3.85742-3.39844 3.36426-4.56055Q2.87109-5.72266 2.87109-7.05078Q2.87109-8.37891 3.35938-9.54102Q3.84766-10.7031 4.72168-11.582Q5.5957-12.4609 6.75293-12.9541Q7.91016-13.4473 9.23828-13.4473Q10.5762-13.4473 11.7334-12.9541Q12.8906-12.4609 13.7695-11.582Q14.6484-10.7031 15.1465-9.54102Q15.6445-8.37891 15.6445-7.05078Q15.6445-5.72266 15.1514-4.56055Q14.6582-3.39844 13.7842-2.51953Q12.9102-1.64062 11.748-1.14746Q10.5859-0.654297 9.24805-0.654297ZM5.6543-7.05078Q5.6543-6.72852 5.85938-6.52832Q6.06445-6.32812 6.40625-6.32812L8.51562-6.32812L8.51562-4.20898Q8.51562-3.88672 8.71094-3.67676Q8.90625-3.4668 9.23828-3.4668Q9.56055-3.4668 9.77051-3.67676Q9.98047-3.88672 9.98047-4.20898L9.98047-6.32812L12.0898-6.32812Q12.4219-6.32812 12.627-6.52832Q12.832-6.72852 12.832-7.05078Q12.832-7.38281 12.627-7.58789Q12.4219-7.79297 12.0898-7.79297L9.98047-7.79297L9.98047-9.90234Q9.98047-10.2344 9.77051-10.4443Q9.56055-10.6543 9.23828-10.6543Q8.90625-10.6543 8.71094-10.4443Q8.51562-10.2344 8.51562-9.90234L8.51562-7.79297L6.40625-7.79297Q6.06445-7.79297 5.85938-7.58789Q5.6543-7.38281 5.6543-7.05078Z"/>
  </g>
  <g transform="matrix(1 0 0 1 281.867 1933)">
   <path d="M11.709 2.91016Q13.75 2.91016 15.5518 2.12891Q17.3535 1.34766 18.7305-0.0292969Q20.1074-1.40625 20.8887-3.20801Q21.6699-5.00977 21.6699-7.05078Q21.6699-9.0918 20.8887-10.8936Q20.1074-12.6953 18.7305-14.0723Q17.3535-15.4492 15.5469-16.2305Q13.7402-17.0117 11.6992-17.0117Q9.6582-17.0117 7.85645-16.2305Q6.05469-15.4492 4.68262-14.0723Q3.31055-12.6953 2.5293-10.8936Q1.74805-9.0918 1.74805-7.05078Q1.74805-5.00977 2.5293-3.20801Q3.31055-1.40625 4.6875-0.0292969Q6.06445 1.34766 7.86621 2.12891Q9.66797 2.91016 11.709 2.91016ZM11.709 1.25Q9.98047 1.25 8.47656 0.605469Q6.97266-0.0390625 5.83496-1.17676Q4.69727-2.31445 4.05762-3.81836Q3.41797-5.32227 3.41797-7.05078Q3.41797-8.7793 4.05762-10.2832Q4.69727-11.7871 5.83008-12.9297Q6.96289-14.0723 8.4668-14.7119Q9.9707-15.3516 11.6992-15.3516Q13.4277-15.3516 14.9316-14.7119Q16.4355-14.0723 17.5781-12.9297Q18.7207-11.7871 19.3652-10.2832Q20.0098-8.7793 20.0098-7.05078Q20.0098-5.32227 19.3701-3.81836Q18.7305-2.31445 17.5928-1.17676Q16.4551-0.0390625 14.9463 0.605469Q13.4375 1.25 11.709 1.25ZM7.17773-7.05078Q7.17773-6.69922 7.41211-6.47461Q7.64648-6.25 8.01758-6.25L10.8887-6.25L10.8887-3.36914Q10.8887-2.99805 11.1133-2.76855Q11.3379-2.53906 11.6895-2.53906Q12.0605-2.53906 12.29-2.76855Q12.5195-2.99805 12.5195-3.36914L12.5195-6.25L15.4004-6.25Q15.7715-6.25 16.001-6.47461Q16.2305-6.69922 16.2305-7.05078Q16.2305-7.42188 16.001-7.65137Q15.7715-7.88086 15.4004-7.88086L12.5195-7.88086L12.5195-10.752Q12.5195-11.1328 12.29-11.3623Q12.0605-11.5918 11.6895-11.5918Q11.3379-11.5918 11.1133-11.3574Q10.8887-11.123 10.8887-10.752L10.8887-7.88086L8.01758-7.88086Q7.63672-7.88086 7.40723-7.65137Q7.17773-7.42188 7.17773-7.05078Z"/>
  </g>
  <g transform="matrix(1 0 0 1 305.646 1933)">
   <path d="M14.9707 5.66406Q17.0605 5.66406 18.96 5.01465Q20.8594 4.36523 22.4512 3.19336Q24.043 2.02148 25.2197 0.429688Q26.3965-1.16211 27.0459-3.06641Q27.6953-4.9707 27.6953-7.05078Q27.6953-9.14062 27.0459-11.04Q26.3965-12.9395 25.2197-14.5312Q24.043-16.123 22.4512-17.2998Q20.8594-18.4766 18.9551-19.126Q17.0508-19.7754 14.9609-19.7754Q12.8711-19.7754 10.9717-19.126Q9.07227-18.4766 7.48535-17.2998Q5.89844-16.123 4.72168-14.5312Q3.54492-12.9395 2.90039-11.04Q2.25586-9.14062 2.25586-7.05078Q2.25586-4.9707 2.90527-3.06641Q3.55469-1.16211 4.72656 0.429688Q5.89844 2.02148 7.49023 3.19336Q9.08203 4.36523 10.9814 5.01465Q12.8809 5.66406 14.9707 5.66406ZM14.9707 3.84766Q13.1641 3.84766 11.5283 3.2959Q9.89258 2.74414 8.53516 1.74805Q7.17773 0.751953 6.17676-0.610352Q5.17578-1.97266 4.62891-3.6084Q4.08203-5.24414 4.08203-7.05078Q4.08203-8.86719 4.62891-10.5029Q5.17578-12.1387 6.17188-13.501Q7.16797-14.8633 8.52539-15.8594Q9.88281-16.8555 11.5186-17.4023Q13.1543-17.9492 14.9609-17.9492Q16.7773-17.9492 18.4131-17.4023Q20.0488-16.8555 21.4111-15.8594Q22.7734-14.8633 23.7695-13.501Q24.7656-12.1387 25.3174-10.5029Q25.8691-8.86719 25.8691-7.05078Q25.8789-5.24414 25.332-3.6084Q24.7852-1.97266 23.7842-0.610352Q22.7832 0.751953 21.4209 1.74805Q20.0586 2.74414 18.4229 3.2959Q16.7871 3.84766 14.9707 3.84766ZM9.19922-7.05078Q9.19922-6.66992 9.45801-6.4209Q9.7168-6.17188 10.1172-6.17188L14.0625-6.17188L14.0625-2.2168Q14.0625-1.81641 14.3115-1.55762Q14.5605-1.29883 14.9512-1.29883Q15.3516-1.29883 15.6104-1.55273Q15.8691-1.80664 15.8691-2.2168L15.8691-6.17188L19.8242-6.17188Q20.2246-6.17188 20.4785-6.4209Q20.7324-6.66992 20.7324-7.05078Q20.7324-7.46094 20.4785-7.71484Q20.2246-7.96875 19.8242-7.96875L15.8691-7.96875L15.8691-11.9141Q15.8691-12.3242 15.6104-12.583Q15.3516-12.8418 14.9512-12.8418Q14.5605-12.8418 14.3115-12.583Q14.0625-12.3242 14.0625-11.9141L14.0625-7.96875L10.1172-7.96875Q9.70703-7.96875 9.45312-7.71484Q9.19922-7.46094 9.19922-7.05078Z"/>
  </g>
  <text style="stroke:none;fill:black;font-family:sans-serif;font-size:13;font-weight:bold;" transform="matrix(1 0 0 1 263 1953)">Design Variations</text>
  <text style="stroke:none;fill:black;font-family:sans-serif;font-size:13;" transform="matrix(1 0 0 1 263 1971)">Symbols are supported in up to nine weights and three scales.</text>
  <text style="stroke:none;fill:black;font-family:sans-serif;font-size:13;" transform="matrix(1 0 0 1 263 1989)">For optimal layout with text and other symbols, vertically align</text>
  <text style="stroke:none;fill:black;font-family:sans-serif;font-size:13;" transform="matrix(1 0 0 1 263 2007)">symbols with the adjacent text.</text>
  <line style="fill:none;stroke:#00AEEF;stroke-width:0.5;opacity:1.0;" x1="776" x2="776" y1="1919" y2="1933"/>
  <g transform="matrix(1 0 0 1 776 1933)">
   <path d="M3.31055 0.15625Q3.70117 0.15625 3.91602-0.00976562Q4.13086-0.175781 4.26758-0.585938L5.52734-4.0332L11.2891-4.0332L12.5488-0.585938Q12.6855-0.175781 12.9004-0.00976562Q13.1152 0.15625 13.4961 0.15625Q13.8867 0.15625 14.1162-0.0585938Q14.3457-0.273438 14.3457-0.644531Q14.3457-0.869141 14.2383-1.17188L9.6582-13.3691Q9.48242-13.8184 9.17969-14.043Q8.87695-14.2676 8.4082-14.2676Q7.5-14.2676 7.17773-13.3789L2.59766-1.16211Q2.49023-0.859375 2.49023-0.634766Q2.49023-0.263672 2.70996-0.0537109Q2.92969 0.15625 3.31055 0.15625ZM6.00586-5.51758L8.37891-12.0898L8.42773-12.0898L10.8008-5.51758Z"/>
  </g>
  <line style="fill:none;stroke:#00AEEF;stroke-width:0.5;opacity:1.0;" x1="793.197" x2="793.197" y1="1919" y2="1933"/>
  <text style="stroke:none;fill:black;font-family:sans-serif;font-size:13;font-weight:bold;" transform="matrix(1 0 0 1 776 1953)">Margins</text>
  <text style="stroke:none;fill:black;font-family:sans-serif;font-size:13;" transform="matrix(1 0 0 1 776 1971)">Leading and trailing margins on the left and right side of each symbol</text>
  <text style="stroke:none;fill:black;font-family:sans-serif;font-size:13;" transform="matrix(1 0 0 1 776 1989)">can be adjusted by modifying the x-location of the margin guidelines.</text>
  <text style="stroke:none;fill:black;font-family:sans-serif;font-size:13;" transform="matrix(1 0 0 1 776 2007)">Modifications are automatically applied proportionally to all</text>
  <text style="stroke:none;fill:black;font-family:sans-serif;font-size:13;" transform="matrix(1 0 0 1 776 2025)">scales and weights.</text>
  <g transform="matrix(1 0 0 1 1289 1933)">
   <path d="M2.8418 1.86523L4.54102 3.57422Q5.18555 4.22852 5.90332 4.17969Q6.62109 4.13086 7.31445 3.35938L18.0078-8.42773L17.041-9.4043L6.42578 2.27539Q6.16211 2.57812 5.89355 2.61719Q5.625 2.65625 5.27344 2.30469L4.10156 1.14258Q3.75 0.791016 3.79395 0.522461Q3.83789 0.253906 4.14062-0.0195312L15.6152-10.8203L14.6387-11.7871L3.04688-0.898438Q2.30469-0.214844 2.25098 0.498047Q2.19727 1.21094 2.8418 1.86523ZM9.25781-16.3281Q8.94531-16.0254 8.90625-15.6348Q8.86719-15.2441 9.04297-14.9512Q9.21875-14.6777 9.55566-14.541Q9.89258-14.4043 10.3809-14.5215Q11.4746-14.7754 12.5977-14.7314Q13.7207-14.6875 14.7949-13.9844L14.209-12.5293Q13.9551-11.9043 14.0674-11.4404Q14.1797-10.9766 14.5801-10.5664L16.875-8.25195Q17.2363-7.88086 17.5781-7.82227Q17.9199-7.76367 18.3398-7.8418L19.4043-8.03711L20.0684-7.36328L20.0293-6.80664Q20-6.43555 20.1221-6.12305Q20.2441-5.81055 20.6055-5.44922L21.3672-4.70703Q21.7285-4.3457 22.1533-4.33105Q22.5781-4.31641 22.9297-4.66797L25.8398-7.58789Q26.1914-7.93945 26.1816-8.35449Q26.1719-8.76953 25.8105-9.13086L25.0391-9.89258Q24.6875-10.2539 24.3799-10.3857Q24.0723-10.5176 23.7109-10.4883L23.1348-10.4395L22.4902-11.0742L22.7344-12.1973Q22.832-12.6172 22.6953-12.9834Q22.5586-13.3496 22.1191-13.7891L19.9219-15.9766Q18.6719-17.2168 17.2607-17.8369Q15.8496-18.457 14.4189-18.4814Q12.9883-18.5059 11.665-17.959Q10.3418-17.4121 9.25781-16.3281ZM10.752-15.957Q11.6602-16.6211 12.7002-16.9043Q13.7402-17.1875 14.8047-17.085Q15.8691-16.9824 16.8701-16.5137Q17.8711-16.0449 18.7012-15.2051L21.1328-12.793Q21.3086-12.6172 21.3525-12.4512Q21.3965-12.2852 21.3379-12.0312L21.0156-10.5469L22.5195-9.0625L23.5059-9.12109Q23.6914-9.13086 23.7891-9.09668Q23.8867-9.0625 24.0332-8.91602L24.6094-8.33984L22.168-5.89844L21.5918-6.47461Q21.4453-6.62109 21.4062-6.71875Q21.3672-6.81641 21.377-7.01172L21.4453-7.98828L19.9512-9.47266L18.4277-9.21875Q18.1836-9.16992 18.042-9.2041Q17.9004-9.23828 17.7148-9.41406L15.7129-11.416Q15.5176-11.5918 15.4932-11.7529Q15.4688-11.9141 15.5859-12.1875L16.4648-14.2773Q15.293-15.3711 13.8281-15.791Q12.3633-16.2109 10.8398-15.7617Q10.7227-15.7324 10.6885-15.8057Q10.6543-15.8789 10.752-15.957Z"/>
  </g>
  <text style="stroke:none;fill:black;font-family:sans-serif;font-size:13;font-weight:bold;" transform="matrix(1 0 0 1 1289 1953)">Exporting</text>
  <text style="stroke:none;fill:black;font-family:sans-serif;font-size:13;" transform="matrix(1 0 0 1 1289 1971)">Symbols should be outlined when exporting to ensure the</text>
  <text style="stroke:none;fill:black;font-family:sans-serif;font-size:13;" transform="matrix(1 0 0 1 1289 1989)">design is preserved when submitting to Xcode.</text>
  <text id="template-version" style="stroke:none;fill:black;font-family:sans-serif;font-size:13;text-anchor:end;" transform="matrix(1 0 0 1 3036 1933)">Template v.3.0</text>
  <text style="stroke:none;fill:black;font-family:sans-serif;font-size:13;text-anchor:end;" transform="matrix(1 0 0 1 3036 1951)">Requires Xcode 13 or greater</text>
  <text id="descriptive-name" style="stroke:none;fill:black;font-family:sans-serif;font-size:13;text-anchor:end;" transform="matrix(1 0 0 1 3036 1969)">Generated from arrow.up.forward.app</text>
  <text style="stroke:none;fill:black;font-family:sans-serif;font-size:13;text-anchor:end;" transform="matrix(1 0 0 1 3036 1987)">Typeset at 100 points</text>
  <text style="stroke:none;fill:black;font-family:sans-serif;font-size:13;" transform="matrix(1 0 0 1 263 726)">Small</text>
  <text style="stroke:none;fill:black;font-family:sans-serif;font-size:13;" transform="matrix(1 0 0 1 263 1156)">Medium</text>
  <text style="stroke:none;fill:black;font-family:sans-serif;font-size:13;" transform="matrix(1 0 0 1 263 1586)">Large</text>
 </g>
 <g id="Guides">
  <g id="H-reference" style="fill:#27AAE1;stroke:none;" transform="matrix(1 0 0 1 339 696)">
   <path d="M0.993347 0L3.6377 0L29.3282-67.1326L30.0301-67.1326L30.0301-70.459L28.1227-70.459ZM11.6882-24.4797L46.9818-24.4797L46.2311-26.7288L12.4382-26.7288ZM55.1193 0L57.7637 0L30.6381-70.459L29.4327-70.459L29.4327-67.1326Z"/>
  </g>
  <line id="Baseline-S" style="fill:none;stroke:#27AAE1;opacity:1;stroke-width:0.5;" x1="263" x2="3036" y1="696" y2="696"/>
  <line id="Capline-S" style="fill:none;stroke:#27AAE1;opacity:1;stroke-width:0.5;" x1="263" x2="3036" y1="625.541" y2="625.541"/>
  <g id="H-reference" style="fill:#27AAE1;stroke:none;" transform="matrix(1 0 0 1 339 1126)">
   <path d="M0.993347 0L3.6377 0L29.3282-67.1326L30.0301-67.1326L30.0301-70.459L28.1227-70.459ZM11.6882-24.4797L46.9818-24.4797L46.2311-26.7288L12.4382-26.7288ZM55.1193 0L57.7637 0L30.6381-70.459L29.4327-70.459L29.4327-67.1326Z"/>
  </g>
  <line id="Baseline-M" style="fill:none;stroke:#27AAE1;opacity:1;stroke-width:0.5;" x1="263" x2="3036" y1="1126" y2="1126"/>
  <line id="Capline-M" style="fill:none;stroke:#27AAE1;opacity:1;stroke-width:0.5;" x1="263" x2="3036" y1="1055.54" y2="1055.54"/>
  <g id="H-reference" style="fill:#27AAE1;stroke:none;" transform="matrix(1 0 0 1 339 1556)">
   <path d="M0.993347 0L3.6377 0L29.3282-67.1326L30.0301-67.1326L30.0301-70.459L28.1227-70.459ZM11.6882-24.4797L46.9818-24.4797L46.2311-26.7288L12.4382-26.7288ZM55.1193 0L57.7637 0L30.6381-70.459L29.4327-70.459L29.4327-67.1326Z"/>
  </g>
  <line id="Baseline-L" style="fill:none;stroke:#27AAE1;opacity:1;stroke-width:0.5;" x1="263" x2="3036" y1="1556" y2="1556"/>
  <line id="Capline-L" style="fill:none;stroke:#27AAE1;opacity:1;stroke-width:0.5;" x1="263" x2="3036" y1="1485.54" y2="1485.54"/>
  <line id="left-margin-Regular-M" style="fill:none;stroke:#00AEEF;stroke-width:0.5;opacity:1.0;" x1="1392.37" x2="1392.37" y1="1030.79" y2="1150.12"/>
  <line id="right-margin-Regular-M" style="fill:none;stroke:#00AEEF;stroke-width:0.5;opacity:1.0;" x1="1507.32" x2="1507.32" y1="1030.79" y2="1150.12"/>
 </g>
 <g id="Symbols">
  <g id="Black-L" transform="matrix(1 0 0 1 2856.13 1556)">
   <path d="M129.785-87.5488Q126.416-90.918 122.192-92.8223Q117.969-94.7266 112.622-95.5078Q107.275-96.2891 100.391-96.2891L54.1504-96.2891Q43.8477-96.2891 36.8408-94.4336Q29.834-92.5781 24.7559-87.5488Q19.6777-82.4707 17.8711-75.5371Q16.0645-68.6035 16.0645-58.252L16.0645-12.1582Q16.0645-5.22461 16.8213 0.12207Q17.5781 5.46875 19.4824 9.64355Q21.3867 13.8184 24.7559 17.1387Q28.1738 20.5566 32.373 22.4609Q36.5723 24.3652 41.9434 25.1465Q47.3145 25.9277 54.1504 25.9277L100.391 25.9277Q107.275 25.9277 112.646 25.1465Q118.018 24.3652 122.217 22.4609Q126.416 20.5566 129.785 17.1387Q133.154 13.7695 135.059 9.61914Q136.963 5.46875 137.72 0.12207Q138.477-5.22461 138.477-12.1582L138.477-58.252Q138.477-65.1367 137.72-70.5078Q136.963-75.8789 135.059-80.0293Q133.154-84.1797 129.785-87.5488ZM118.262-60.0098L118.262-10.4004Q118.262-5.41992 117.529-2.49023Q116.797 0.439453 114.941 2.34375Q113.086 4.15039 110.083 4.93164Q107.08 5.71289 102.148 5.71289L52.3926 5.71289Q47.4609 5.71289 44.458 4.93164Q41.4551 4.15039 39.5996 2.34375Q37.7441 0.439453 37.0361-2.49023Q36.3281-5.41992 36.3281-10.4004L36.3281-60.0098Q36.3281-64.9414 37.0361-67.8955Q37.7441-70.8496 39.5996-72.7051Q41.4551-74.5117 44.458-75.293Q47.4609-76.0742 52.3926-76.0742L102.148-76.0742Q107.08-76.0742 110.083-75.293Q113.086-74.5117 114.941-72.7051Q116.797-70.8496 117.529-67.8955Q118.262-64.9414 118.262-60.0098ZM96.5332-16.0156Q99.8535-16.0156 101.807-18.2617Q103.76-20.5078 103.76-24.1699L103.76-51.8555Q103.76-56.7383 101.05-59.3506Q98.3398-61.9629 93.5059-61.9629L65.7715-61.9629Q61.9629-61.9629 59.7168-60.0342Q57.4707-58.1055 57.4707-54.7363Q57.4707-51.3672 59.6924-49.4385Q61.9141-47.5098 65.625-47.5098L72.8516-47.5098L79.1992-48.584L71.1914-41.7969L53.5645-24.1699Q50.8789-21.4844 50.8789-17.9199Q50.8789-14.1113 53.418-11.7676Q55.957-9.42383 59.5215-9.42383Q63.1836-9.42383 66.0645-12.2559L83.4473-29.541L90.2344-37.5L89.3066-30.957L89.3066-24.2676Q89.3066-20.5078 91.2354-18.2617Q93.1641-16.0156 96.5332-16.0156Z"/>
  </g>
  <g id="Heavy-L" transform="matrix(1 0 0 1 2560.35 1556)">
   <path d="M128.32-86.9629Q125-90.2344 120.874-92.0654Q116.748-93.8965 111.548-94.6045Q106.348-95.3125 99.7559-95.3125L52.832-95.3125Q43.0664-95.3125 36.2061-93.5791Q29.3457-91.8457 24.4141-86.9141Q19.4336-81.9824 17.749-75.1953Q16.0645-68.4082 16.0645-58.5938L16.0645-11.8652Q16.0645-5.22461 16.7725-0.0488281Q17.4805 5.12695 19.2871 9.22852Q21.0938 13.3301 24.3652 16.5527Q27.7344 19.873 31.8359 21.7041Q35.9375 23.5352 41.1621 24.2676Q46.3867 25 52.9297 25L99.7559 25Q106.348 25 111.572 24.2676Q116.797 23.5352 120.898 21.7041Q125 19.873 128.32 16.5527Q131.592 13.2812 133.398 9.2041Q135.205 5.12695 135.913-0.0488281Q136.621-5.22461 136.621-11.8652L136.621-58.4961Q136.621-65.0879 135.913-70.3125Q135.205-75.5371 133.398-79.6143Q131.592-83.6914 128.32-86.9629ZM119.141-60.2539L119.141-10.1074Q119.141-5.07812 118.335-1.7334Q117.529 1.61133 115.479 3.75977Q113.379 5.81055 109.961 6.66504Q106.543 7.51953 101.514 7.51953L51.1719 7.51953Q46.1426 7.51953 42.7246 6.66504Q39.3066 5.81055 37.207 3.75977Q35.1074 1.61133 34.3506-1.7334Q33.5938-5.07812 33.5938-10.1074L33.5938-60.2051Q33.5938-65.2832 34.3506-68.6523Q35.1074-72.0215 37.207-74.1211Q39.3066-76.1719 42.749-77.002Q46.1914-77.832 51.2207-77.832L101.514-77.832Q106.543-77.832 109.961-77.002Q113.379-76.1719 115.479-74.1211Q117.578-72.0215 118.359-68.6523Q119.141-65.2832 119.141-60.2539ZM95.8496-16.8945Q98.8281-16.8945 100.562-18.8965Q102.295-20.8984 102.295-24.1699L102.295-52.5879Q102.295-56.8848 99.9512-59.1064Q97.6074-61.3281 93.4082-61.3281L64.9414-61.3281Q61.5723-61.3281 59.5947-59.6191Q57.6172-57.9102 57.6172-54.9316Q57.6172-51.9043 59.5703-50.1709Q61.5234-48.4375 64.8438-48.4375L73.6328-48.4375L80.6641-49.4629L72.4121-42.2852L52.832-22.7051Q50.4883-20.3613 50.4883-17.2852Q50.4883-13.916 52.6855-11.8652Q54.8828-9.81445 58.0566-9.81445Q61.2793-9.81445 63.7695-12.2559L83.1055-31.543L90.2832-39.7461L89.4043-32.3242L89.4043-24.2188Q89.4043-20.8984 91.1377-18.8965Q92.8711-16.8945 95.8496-16.8945Z"/>
  </g>
  <g id="Bold-L" transform="matrix(1 0 0 1 2264.67 1556)">
   <path d="M126.66-86.2793Q123.438-89.502 119.409-91.2354Q115.381-92.9688 110.352-93.6279Q105.322-94.2871 99.0723-94.2871L51.3672-94.2871Q42.1875-94.2871 35.498-92.6758Q28.8086-91.0645 24.0234-86.2793Q19.1895-81.4941 17.627-74.8535Q16.0645-68.2129 16.0645-58.9844L16.0645-11.5723Q16.0645-5.27344 16.7236-0.244141Q17.3828 4.78516 19.0918 8.76465Q20.8008 12.7441 23.9746 15.918Q27.2461 19.1406 31.25 20.874Q35.2539 22.6074 40.2832 23.2666Q45.3125 23.9258 51.5625 23.9258L99.0723 23.9258Q105.322 23.9258 110.352 23.2666Q115.381 22.6074 119.409 20.874Q123.438 19.1406 126.66 15.918Q129.834 12.7441 131.567 8.76465Q133.301 4.78516 133.936-0.244141Q134.57-5.27344 134.57-11.5723L134.57-58.8379Q134.57-65.0879 133.936-70.1172Q133.301-75.1465 131.567-79.126Q129.834-83.1055 126.66-86.2793ZM120.117-60.5469L120.117-9.81445Q120.117-4.6875 119.263-0.854492Q118.408 2.97852 116.064 5.37109Q113.672 7.71484 109.814 8.61816Q105.957 9.52148 100.83 9.52148L49.8047 9.52148Q44.6777 9.52148 40.8203 8.61816Q36.9629 7.71484 34.5703 5.37109Q32.2266 2.97852 31.3721-0.854492Q30.5176-4.6875 30.5176-9.81445L30.5176-60.4004Q30.5176-65.625 31.3721-69.4824Q32.2266-73.3398 34.5703-75.7324Q36.9629-78.0762 40.8691-78.9551Q44.7754-79.834 49.9512-79.834L100.83-79.834Q105.957-79.834 109.814-78.9307Q113.672-78.0273 116.064-75.6836Q118.408-73.3398 119.263-69.5312Q120.117-65.7227 120.117-60.5469ZM95.1172-17.9688Q97.6562-17.9688 99.1699-19.7021Q100.684-21.4355 100.684-24.2188L100.684-53.4668Q100.684-57.0801 98.7305-58.9111Q96.7773-60.7422 93.3594-60.7422L63.9648-60.7422Q61.1328-60.7422 59.4482-59.2285Q57.7637-57.7148 57.7637-55.1758Q57.7637-52.5879 59.4482-51.0742Q61.1328-49.5605 63.9648-49.5605L74.5117-49.5605L82.2754-50.4883L73.7793-42.8711L52.0508-21.1426Q50.0488-19.1895 50.0488-16.6016Q50.0488-13.7695 51.8799-12.0361Q53.7109-10.3027 56.3965-10.3027Q59.1309-10.3027 61.1816-12.3535L82.7637-33.8867L90.332-42.2852L89.502-33.9355L89.502-24.2188Q89.502-21.3867 91.0156-19.6777Q92.5293-17.9688 95.1172-17.9688Z"/>
  </g>
  <g id="Semibold-L" transform="matrix(1 0 0 1 1968.68 1556)">
   <path d="M125.488-85.8398Q122.363-88.9648 118.384-90.625Q114.404-92.2852 109.497-92.8955Q104.59-93.5059 98.584-93.5059L50.3418-93.5059Q41.5527-93.5059 34.9854-91.9922Q28.418-90.4785 23.7305-85.791Q18.9941-81.1035 17.5293-74.585Q16.0645-68.0664 16.0645-59.2285L16.0645-11.3281Q16.0645-5.27344 16.6748-0.390625Q17.2852 4.49219 18.9209 8.42285Q20.5566 12.3535 23.6816 15.4785Q26.8555 18.6035 30.8105 20.2881Q34.7656 21.9727 39.6729 22.583Q44.5801 23.1934 50.5859 23.1934L98.584 23.1934Q104.59 23.1934 109.497 22.583Q114.404 21.9727 118.384 20.2881Q122.363 18.6035 125.488 15.4785Q128.613 12.3535 130.273 8.42285Q131.934 4.49219 132.52-0.390625Q133.105-5.27344 133.105-11.3281L133.105-59.0332Q133.105-65.0391 132.52-69.9463Q131.934-74.8535 130.273-78.7842Q128.613-82.7148 125.488-85.8398ZM120.801-60.7422L120.801-9.61914Q120.801-4.39453 119.873-0.268555Q118.945 3.85742 116.455 6.44531Q113.867 9.0332 109.692 9.96094Q105.518 10.8887 100.293 10.8887L48.877 10.8887Q43.6523 10.8887 39.4775 9.93652Q35.3027 8.98438 32.7637 6.44531Q30.1758 3.85742 29.2969-0.268555Q28.418-4.39453 28.418-9.61914L28.418-60.5469Q28.418-65.8691 29.2969-70.0684Q30.1758-74.2676 32.7637-76.8066Q35.3027-79.3457 39.5264-80.2734Q43.75-81.2012 49.0723-81.2012L100.293-81.2012Q105.518-81.2012 109.692-80.249Q113.867-79.2969 116.455-76.7578Q118.994-74.2188 119.897-70.0928Q120.801-65.9668 120.801-60.7422ZM94.5312-18.6523Q96.7773-18.6523 98.1445-20.2148Q99.5117-21.7773 99.5117-24.2188L99.5117-54.0039Q99.5117-57.1777 97.8271-58.7158Q96.1426-60.2539 93.2129-60.2539L63.2812-60.2539Q60.791-60.2539 59.3018-58.9111Q57.8125-57.5684 57.8125-55.2734Q57.8125-52.9785 59.3018-51.6113Q60.791-50.2441 63.2812-50.2441L75.0488-50.2441L83.3008-51.123L74.6582-43.2129L51.4648-20.0195Q49.707-18.3105 49.707-16.0645Q49.707-13.5742 51.2695-12.085Q52.832-10.5957 55.1758-10.5957Q57.5684-10.5957 59.375-12.3535L82.4219-35.4004L90.2832-43.9941L89.502-35.0098L89.502-24.1699Q89.502-21.6797 90.8691-20.166Q92.2363-18.6523 94.5312-18.6523Z"/>
  </g>
  <g id="Medium-L" transform="matrix(1 0 0 1 1672.51 1556)">
   <path d="M124.609-85.4492Q121.533-88.5742 117.603-90.1855Q113.672-91.7969 108.862-92.3828Q104.053-92.9688 98.2422-92.9688L49.6094-92.9688Q41.0645-92.9688 34.6191-91.5039Q28.1738-90.0391 23.5352-85.4492Q18.8965-80.8105 17.4805-74.3896Q16.0645-67.9688 16.0645-59.4727L16.0645-11.1328Q16.0645-5.32227 16.6504-0.512695Q17.2363 4.29688 18.7988 8.17871Q20.3613 12.0605 23.4863 15.1367Q26.6113 18.2129 30.5176 19.8486Q34.4238 21.4844 39.2334 22.0703Q44.043 22.6562 49.8535 22.6562L98.2422 22.6562Q104.053 22.6562 108.862 22.0703Q113.672 21.4844 117.603 19.8486Q121.533 18.2129 124.609 15.1367Q127.686 12.0605 129.297 8.17871Q130.908 4.29688 131.47-0.512695Q132.031-5.32227 132.031-11.1328L132.031-59.1797Q132.031-65.0391 131.47-69.8486Q130.908-74.6582 129.297-78.54Q127.686-82.4219 124.609-85.4492ZM121.289-60.8887L121.289-9.42383Q121.289-4.19922 120.337 0.170898Q119.385 4.54102 116.748 7.27539Q114.062 10.0098 109.619 10.9619Q105.176 11.9141 99.9512 11.9141L48.1445 11.9141Q42.9199 11.9141 38.4766 10.9375Q34.0332 9.96094 31.3477 7.27539Q28.6621 4.54102 27.7344 0.170898Q26.8066-4.19922 26.8066-9.42383L26.8066-60.6445Q26.8066-66.0645 27.7344-70.5078Q28.6621-74.9512 31.3477-77.6367Q34.0332-80.3223 38.5254-81.2744Q43.0176-82.2266 48.3887-82.2266L99.9512-82.2266Q105.176-82.2266 109.619-81.25Q114.062-80.2734 116.748-77.5879Q119.434-74.9023 120.361-70.5322Q121.289-66.1621 121.289-60.8887ZM94.0918-19.1895Q96.1426-19.1895 97.4121-20.6055Q98.6816-22.0215 98.6816-24.2188L98.6816-54.4434Q98.6816-57.2266 97.1924-58.5693Q95.7031-59.9121 93.1641-59.9121L62.7441-59.9121Q60.5469-59.9121 59.2041-58.667Q57.8613-57.4219 57.8613-55.3711Q57.8613-53.3203 59.2285-52.0508Q60.5957-50.7812 62.793-50.7812L75.4883-50.7812L84.1309-51.6602L75.3418-43.5059L51.0254-19.1895Q49.4629-17.627 49.4629-15.6738Q49.4629-13.4766 50.8301-12.1582Q52.1973-10.8398 54.2969-10.8398Q56.4453-10.8398 58.0078-12.4023L82.2266-36.6211L90.2832-45.3125L89.5508-35.791L89.5508-24.1699Q89.5508-21.875 90.7959-20.5322Q92.041-19.1895 94.0918-19.1895Z"/>
  </g>
  <g id="Regular-L" transform="matrix(1 0 0 1 1376.5 1556)">
   <path d="M123.486-85.0098Q120.459-88.0371 116.602-89.5996Q112.744-91.1621 108.057-91.6992Q103.369-92.2363 97.7539-92.2363L48.584-92.2363Q40.4785-92.2363 34.1309-90.8691Q27.7832-89.502 23.2422-84.9609Q18.7012-80.4688 17.3828-74.1455Q16.0645-67.8223 16.0645-59.7168L16.0645-10.9375Q16.0645-5.32227 16.6016-0.634766Q17.1387 4.05273 18.6523 7.86133Q20.166 11.6699 23.1934 14.6973Q26.2695 17.7246 30.1025 19.2871Q33.9355 20.8496 38.623 21.3867Q43.3105 21.9238 48.9258 21.9238L97.7539 21.9238Q103.369 21.9238 108.057 21.3867Q112.744 20.8496 116.602 19.2871Q120.459 17.7246 123.486 14.6973Q126.514 11.6699 128.052 7.86133Q129.59 4.05273 130.103-0.634766Q130.615-5.32227 130.615-10.9375L130.615-59.375Q130.615-64.9902 130.103-69.6777Q129.59-74.3652 128.052-78.1982Q126.514-82.0312 123.486-85.0098ZM121.973-61.084L121.973-9.22852Q121.973-3.90625 120.972 0.78125Q119.971 5.46875 117.139 8.34961Q114.258 11.2793 109.521 12.2803Q104.785 13.2812 99.4629 13.2812L47.2168 13.2812Q41.8945 13.2812 37.1582 12.2559Q32.4219 11.2305 29.541 8.34961Q26.6602 5.46875 25.6836 0.78125Q24.707-3.90625 24.707-9.22852L24.707-60.791Q24.707-66.3086 25.6836-71.0693Q26.6602-75.8301 29.541-78.7109Q32.4219-81.5918 37.2314-82.5928Q42.041-83.5938 47.5098-83.5938L99.4629-83.5938Q104.785-83.5938 109.521-82.5684Q114.258-81.543 117.139-78.6621Q120.02-75.7812 120.996-71.1182Q121.973-66.4551 121.973-61.084ZM93.6035-19.873Q95.3613-19.873 96.46-21.0938Q97.5586-22.3145 97.5586-24.2188L97.5586-54.9805Q97.5586-57.3242 96.3379-58.374Q95.1172-59.4238 93.1152-59.4238L62.1094-59.4238Q60.2539-59.4238 59.1064-58.3496Q57.959-57.2754 57.959-55.5176Q57.959-53.7109 59.1309-52.6123Q60.3027-51.5137 62.207-51.5137L76.0742-51.5137L85.2539-52.2949L76.2695-43.8477L50.4883-18.0664Q49.1699-16.7969 49.1699-15.1855Q49.1699-13.3301 50.2686-12.2314Q51.3672-11.1328 53.1738-11.1328Q54.9805-11.1328 56.25-12.4023L81.9824-38.1348L90.332-47.0215L89.5996-36.8652L89.5996-24.1211Q89.5996-22.168 90.6982-21.0205Q91.7969-19.873 93.6035-19.873Z"/>
  </g>
  <g id="Light-L" transform="matrix(1 0 0 1 1080.88 1556)">
   <path d="M121.582-84.2773Q118.848-87.0605 115.259-88.5498Q111.67-90.0391 107.08-90.625Q102.49-91.2109 96.6309-91.2109L47.3633-91.2109Q39.0137-91.2109 33.0566-89.7949Q27.0996-88.3789 22.9492-84.2285Q18.7988-80.0781 17.4316-74.1943Q16.0645-68.3105 16.0645-59.9121L16.0645-10.8887Q16.0645-4.98047 16.626-0.390625Q17.1875 4.19922 18.6523 7.71484Q20.1172 11.2305 22.9004 14.0137Q25.7324 16.748 29.2725 18.2617Q32.8125 19.7754 37.4023 20.3613Q41.9922 20.9473 47.9004 20.9473L96.6309 20.9473Q102.49 20.9473 107.08 20.3613Q111.67 19.7754 115.259 18.2617Q118.848 16.748 121.582 14.0137Q124.365 11.2305 125.854 7.69043Q127.344 4.15039 127.881-0.415039Q128.418-4.98047 128.418-10.8887L128.418-59.375Q128.418-65.2832 127.881-69.873Q127.344-74.4629 125.854-78.0029Q124.365-81.543 121.582-84.2773ZM121.826-61.0352L121.826-9.22852Q121.826-3.27148 120.679 1.46484Q119.531 6.20117 116.699 9.08203Q113.77 12.0605 108.984 13.1836Q104.199 14.3066 98.291 14.3066L46.2402 14.3066Q40.2832 14.3066 35.498 13.1592Q30.7129 12.0117 27.7832 9.08203Q24.9023 6.20117 23.7793 1.46484Q22.6562-3.27148 22.6562-9.22852L22.6562-60.5469Q22.6562-66.8457 23.7793-71.6797Q24.9023-76.5137 27.7832-79.4434Q30.6641-82.373 35.5713-83.4717Q40.4785-84.5703 46.6797-84.5703L98.291-84.5703Q104.199-84.5703 108.984-83.4229Q113.77-82.2754 116.699-79.3945Q119.58-76.4648 120.703-71.7529Q121.826-67.041 121.826-61.0352ZM93.1152-20.2148Q94.4824-20.2148 95.3369-21.1426Q96.1914-22.0703 96.1914-23.584L96.1914-55.8105Q96.1914-57.5684 95.2637-58.3984Q94.3359-59.2285 92.8223-59.2285L60.4004-59.2285Q58.9355-59.2285 58.0322-58.3984Q57.1289-57.5684 57.1289-56.2012Q57.1289-54.834 58.0322-53.9795Q58.9355-53.125 60.4492-53.125L77.4902-53.125L86.5234-53.6133L78.6133-46.1426L49.3652-16.8457Q48.3398-15.8691 48.3398-14.5996Q48.3398-13.1348 49.1943-12.2803Q50.0488-11.4258 51.4648-11.4258Q52.8809-11.4258 53.9062-12.4512L83.0566-41.6504L90.4785-49.4629L89.9902-38.8184L89.9902-23.5352Q89.9902-22.0215 90.8447-21.1182Q91.6992-20.2148 93.1152-20.2148Z"/>
  </g>
  <g id="Thin-L" transform="matrix(1 0 0 1 785.614 1556)">
   <path d="M119.092-83.3008Q116.65-85.6934 113.477-87.1338Q110.303-88.5742 105.835-89.209Q101.367-89.8438 95.1172-89.8438L45.752-89.8438Q37.0117-89.8438 31.6162-88.3545Q26.2207-86.8652 22.6074-83.2031Q18.9453-79.5898 17.5049-74.2432Q16.0645-68.8965 16.0645-60.1562L16.0645-10.8398Q16.0645-4.54102 16.6748-0.0976562Q17.2852 4.3457 18.7012 7.51953Q20.1172 10.6934 22.5098 13.0859Q25 15.4785 28.1738 16.9189Q31.3477 18.3594 35.791 18.9697Q40.2344 19.5801 46.4844 19.5801L95.1172 19.5801Q101.367 19.5801 105.835 18.9697Q110.303 18.3594 113.477 16.9189Q116.65 15.4785 119.092 13.0859Q121.533 10.6445 122.949 7.49512Q124.365 4.3457 124.951-0.0976562Q125.537-4.54102 125.537-10.8398L125.537-59.375Q125.537-65.6738 124.951-70.1416Q124.365-74.6094 122.949-77.7588Q121.533-80.9082 119.092-83.3008ZM121.631-61.0352L121.631-9.22852Q121.631-2.44141 120.312 2.34375Q118.994 7.12891 116.113 10.0586Q113.184 13.0859 108.325 14.3799Q103.467 15.6738 96.7285 15.6738L44.873 15.6738Q38.1836 15.6738 33.3252 14.3555Q28.4668 13.0371 25.4883 10.0586Q22.5586 7.12891 21.2891 2.34375Q20.0195-2.44141 20.0195-9.22852L20.0195-60.2539Q20.0195-67.4805 21.2891-72.4609Q22.5586-77.4414 25.4395-80.3711Q28.3691-83.3984 33.4229-84.668Q38.4766-85.9375 45.6055-85.9375L96.7285-85.9375Q103.467-85.9375 108.325-84.5947Q113.184-83.252 116.113-80.3223Q119.043-77.3438 120.337-72.5586Q121.631-67.7734 121.631-61.0352ZM92.5293-20.6543Q93.3105-20.6543 93.8232-21.2158Q94.3359-21.7773 94.3359-22.7051L94.3359-56.9336Q94.3359-57.8613 93.7988-58.3984Q93.2617-58.9355 92.4316-58.9355L58.1543-58.9355Q57.1777-58.9355 56.6406-58.4473Q56.1035-57.959 56.1035-57.1289Q56.1035-56.25 56.665-55.7373Q57.2266-55.2246 58.1055-55.2246L79.4434-55.2246L88.1836-55.3223L81.7871-49.1211L47.9004-15.2344Q47.2656-14.5996 47.2656-13.7695Q47.2656-12.8906 47.8027-12.3535Q48.3398-11.8164 49.2188-11.8164Q50.1465-11.8164 50.7812-12.5L84.5215-46.2891L90.6738-52.6855L90.5762-41.3574L90.5762-22.7051Q90.5762-21.7773 91.1133-21.2158Q91.6504-20.6543 92.5293-20.6543Z"/>
  </g>
  <g id="Ultralight-L" transform="matrix(1 0 0 1 489.641 1556)">
   <path d="M117.822-82.7637Q115.576-85.0586 112.573-86.4502Q109.57-87.8418 105.176-88.501Q100.781-89.1602 94.3359-89.1602L44.9707-89.1602Q36.0352-89.1602 30.9082-87.6221Q25.7812-86.084 22.4121-82.7148Q19.043-79.3457 17.5537-74.292Q16.0645-69.2383 16.0645-60.2539L16.0645-10.791Q16.0645-4.3457 16.6992 0.0488281Q17.334 4.44336 18.7012 7.42188Q20.0684 10.4004 22.3145 12.5977Q24.6582 14.7949 27.6367 16.2109Q30.6152 17.627 34.9854 18.2861Q39.3555 18.9453 45.8008 18.9453L94.3359 18.9453Q100.781 18.9453 105.176 18.2861Q109.57 17.627 112.573 16.2109Q115.576 14.7949 117.822 12.5977Q120.068 10.3516 121.436 7.37305Q122.803 4.39453 123.438 0.0244141Q124.072-4.3457 124.072-10.791L124.072-59.375Q124.072-65.918 123.438-70.3125Q122.803-74.707 121.436-77.6367Q120.068-80.5664 117.822-82.7637ZM121.533-60.9863L121.533-9.22852Q121.533-2.00195 120.117 2.80762Q118.701 7.61719 115.82 10.5957Q112.842 13.5742 107.959 14.9658Q103.076 16.3574 95.8984 16.3574L44.2383 16.3574Q37.0605 16.3574 32.1777 14.9414Q27.2949 13.5254 24.3164 10.5957Q21.3867 7.61719 19.9951 2.80762Q18.6035-2.00195 18.6035-9.22852L18.6035-60.1074Q18.6035-67.8711 19.9707-72.9004Q21.3379-77.9297 24.2676-80.8594Q27.1973-83.8867 32.2998-85.2295Q37.4023-86.5723 45.0684-86.5723L95.8984-86.5723Q103.076-86.5723 107.959-85.1562Q112.842-83.7402 115.82-80.8105Q118.75-77.832 120.142-72.998Q121.533-68.1641 121.533-60.9863ZM92.1875-20.9473Q92.7246-20.9473 93.0908-21.2891Q93.457-21.6309 93.457-22.2656L93.457-57.5195Q93.457-58.0566 93.1152-58.4229Q92.7734-58.7891 92.2852-58.7891L56.9824-58.7891Q56.2988-58.7891 55.9326-58.4717Q55.5664-58.1543 55.5664-57.6172Q55.5664-57.0312 55.9326-56.6895Q56.2988-56.3477 56.9336-56.3477L80.4199-56.3477L89.0625-56.2012L83.3984-50.6836L47.168-14.4531Q46.7285-14.0137 46.7285-13.3789Q46.7285-12.793 47.0947-12.4268Q47.4609-12.0605 48.0469-12.0605Q48.7305-12.0605 49.2188-12.5488L85.3027-48.6816L90.8203-54.3457L90.8691-42.6758L90.8691-22.3145Q90.8691-21.6797 91.2354-21.3135Q91.6016-20.9473 92.1875-20.9473Z"/>
  </g>
  <g id="Black-M" transform="matrix(1 0 0 1 2873.1 1126)">
   <path d="M101.221-76.0254Q97.3145-79.9316 91.8945-81.4941Q86.4746-83.0566 77.9297-83.0566L42.6758-83.0566Q34.1797-83.0566 28.7354-81.4941Q23.291-79.9316 19.3848-76.0254Q15.5273-72.1191 13.9893-66.7725Q12.4512-61.4258 12.4512-52.832L12.4512-17.5781Q12.4512-8.98438 13.9893-3.58887Q15.5273 1.80664 19.3848 5.61523Q23.3398 9.52148 28.7598 11.084Q34.1797 12.6465 42.6758 12.6465L77.9297 12.6465Q86.4746 12.6465 91.8945 11.084Q97.3145 9.52148 101.221 5.61523Q105.127 1.75781 106.641-3.61328Q108.154-8.98438 108.154-17.5781L108.154-52.832Q108.154-61.4258 106.641-66.7969Q105.127-72.168 101.221-76.0254ZM90.8203-54.1992L90.8203-16.2109Q90.8203-12.2559 90.2588-10.3027Q89.6973-8.34961 88.4766-7.08008Q87.2559-5.85938 85.2539-5.27344Q83.252-4.6875 79.3457-4.6875L41.3086-4.6875Q37.4023-4.6875 35.4004-5.27344Q33.3984-5.85938 32.1289-7.08008Q30.9082-8.34961 30.3467-10.3027Q29.7852-12.2559 29.7852-16.2109L29.7852-54.1992Q29.7852-58.1543 30.3467-60.1074Q30.9082-62.0605 32.1289-63.2812Q33.3984-64.502 35.4004-65.1123Q37.4023-65.7227 41.3086-65.7227L79.3457-65.7227Q83.252-65.7227 85.2539-65.1123Q87.2559-64.502 88.4766-63.2812Q89.6973-62.0605 90.2588-60.1074Q90.8203-58.1543 90.8203-54.1992ZM75.2441-19.6777Q78.0273-19.6777 79.6143-21.5332Q81.2012-23.3887 81.2012-26.4648L81.2012-47.7539Q81.2012-51.8555 78.8818-54.126Q76.5625-56.3965 72.4609-56.3965L51.123-56.3965Q47.9492-56.3965 46.0693-54.8096Q44.1895-53.2227 44.1895-50.4395Q44.1895-47.6562 46.0205-46.0693Q47.8516-44.4824 50.9766-44.4824L56.2988-44.4824L60.5957-45.2637L54.9805-40.6738L41.7969-27.4902Q39.502-25.1953 39.502-22.168Q39.502-18.9453 41.6992-16.9678Q43.8965-14.9902 46.8262-14.9902Q49.9512-14.9902 52.3926-17.3828L65.332-30.2734L69.9219-35.8887L69.2871-31.3965L69.2871-26.5625Q69.2871-23.4375 70.874-21.5576Q72.4609-19.6777 75.2441-19.6777Z"/>
  </g>
  <g id="Heavy-M" transform="matrix(1 0 0 1 2577.05 1126)">
   <path d="M100.195-75.5859Q96.2891-79.4922 90.9424-80.9082Q85.5957-82.3242 77.5879-82.3242L41.6504-82.3242Q33.7402-82.3242 28.3447-80.9082Q22.9492-79.4922 19.0918-75.5859Q15.2832-71.7285 13.8672-66.4307Q12.4512-61.1328 12.4512-53.125L12.4512-17.2852Q12.4512-9.27734 13.8672-3.93066Q15.2832 1.41602 19.0918 5.22461Q22.998 9.08203 28.3691 10.498Q33.7402 11.9141 41.6992 11.9141L77.5879 11.9141Q85.5957 11.9141 90.9424 10.498Q96.2891 9.08203 100.195 5.22461Q104.053 1.36719 105.444-3.95508Q106.836-9.27734 106.836-17.2852L106.836-53.0762Q106.836-61.1328 105.444-66.4551Q104.053-71.7773 100.195-75.5859ZM91.6992-54.4434L91.6992-15.9668Q91.6992-12.0117 91.1133-9.66797Q90.5273-7.32422 89.0625-5.85938Q87.6465-4.39453 85.2539-3.78418Q82.8613-3.17383 78.9551-3.17383L40.332-3.17383Q36.4746-3.17383 34.082-3.78418Q31.6895-4.39453 30.1758-5.85938Q28.7109-7.32422 28.125-9.66797Q27.5391-12.0117 27.5391-15.9668L27.5391-54.4434Q27.5391-58.3496 28.125-60.7178Q28.7109-63.0859 30.1758-64.502Q31.6895-65.9668 34.082-66.6016Q36.4746-67.2363 40.3809-67.2363L78.9551-67.2363Q82.8613-67.2363 85.2539-66.6016Q87.6465-65.9668 89.0625-64.502Q90.5273-63.0371 91.1133-60.6934Q91.6992-58.3496 91.6992-54.4434ZM74.707-20.5078Q77.1973-20.5078 78.6377-22.168Q80.0781-23.8281 80.0781-26.6113L80.0781-48.291Q80.0781-51.9531 78.0518-53.9062Q76.0254-55.8594 72.4609-55.8594L50.6836-55.8594Q47.8516-55.8594 46.167-54.4189Q44.4824-52.9785 44.4824-50.4395Q44.4824-47.9492 46.1426-46.5088Q47.8027-45.0684 50.5859-45.0684L56.7383-45.0684L61.7188-45.8496L55.6641-40.6738L41.3574-26.3184Q39.3066-24.3164 39.3066-21.6797Q39.3066-18.7988 41.2109-17.0654Q43.1152-15.332 45.752-15.332Q48.5352-15.332 50.6348-17.3828L64.7949-31.4941L69.9219-37.5488L69.2871-32.3242L69.2871-26.6602Q69.2871-23.8281 70.7275-22.168Q72.168-20.5078 74.707-20.5078Z"/>
  </g>
  <g id="Bold-M" transform="matrix(1 0 0 1 2281.09 1126)">
   <path d="M99.0234-75.1465Q95.166-78.9551 89.8682-80.249Q84.5703-81.543 77.1973-81.543L40.5273-81.543Q33.2031-81.543 27.9053-80.249Q22.6074-78.9551 18.7988-75.1465Q14.9902-71.3379 13.7207-66.0889Q12.4512-60.8398 12.4512-53.4668L12.4512-16.9922Q12.4512-9.57031 13.7207-4.29688Q14.9902 0.976562 18.7988 4.73633Q22.6562 8.59375 27.9297 9.86328Q33.2031 11.1328 40.5762 11.1328L77.1973 11.1328Q84.5703 11.1328 89.8682 9.86328Q95.166 8.59375 99.0234 4.73633Q102.832 0.976562 104.077-4.29688Q105.322-9.57031 105.322-16.9922L105.322-53.418Q105.322-60.8398 104.077-66.0889Q102.832-71.3379 99.0234-75.1465ZM92.7246-54.7852L92.7246-15.6738Q92.7246-11.7676 92.0898-9.00879Q91.4551-6.25 89.7461-4.49219Q88.0371-2.7832 85.2295-2.12402Q82.4219-1.46484 78.5645-1.46484L39.2578-1.46484Q35.4004-1.46484 32.5928-2.12402Q29.7852-2.7832 28.0273-4.49219Q26.3184-6.25 25.6836-9.00879Q25.0488-11.7676 25.0488-15.6738L25.0488-54.6875Q25.0488-58.5938 25.6836-61.4014Q26.3184-64.209 28.0273-65.918Q29.7363-67.627 32.5928-68.2861Q35.4492-68.9453 39.3066-68.9453L78.5645-68.9453Q82.4219-68.9453 85.2295-68.2861Q88.0371-67.627 89.7461-65.918Q91.5039-64.1602 92.1143-61.4014Q92.7246-58.6426 92.7246-54.7852ZM74.0723-21.4844Q76.2695-21.4844 77.5391-22.9492Q78.8086-24.4141 78.8086-26.8066L78.8086-48.9746Q78.8086-52.0996 77.0996-53.7109Q75.3906-55.3223 72.4121-55.3223L50.1465-55.3223Q47.7051-55.3223 46.2646-54.0283Q44.8242-52.7344 44.8242-50.5371Q44.8242-48.3398 46.2646-47.0459Q47.7051-45.752 50.1465-45.752L57.2266-45.752L62.9883-46.5332L56.3965-40.7227L40.8203-25.0977Q39.0625-23.3887 39.0625-21.1426Q39.0625-18.7012 40.6494-17.2119Q42.2363-15.7227 44.5312-15.7227Q46.9238-15.7227 48.6816-17.4805L64.1602-32.959L69.9707-39.502L69.2871-33.4473L69.2871-26.8066Q69.2871-24.3652 70.5811-22.9248Q71.875-21.4844 74.0723-21.4844Z"/>
  </g>
  <g id="Semibold-M" transform="matrix(1 0 0 1 1984.9 1126)">
   <path d="M98.1934-74.8047Q94.3848-78.6133 89.1357-79.7852Q83.8867-80.957 76.9043-80.957L39.7461-80.957Q32.8613-80.957 27.6123-79.7852Q22.3633-78.6133 18.5547-74.8047Q14.7949-70.9961 13.623-65.8203Q12.4512-60.6445 12.4512-53.7109L12.4512-16.7969Q12.4512-9.76562 13.5986-4.54102Q14.7461 0.683594 18.5547 4.39453Q22.3633 8.20312 27.6123 9.39941Q32.8613 10.5957 39.7949 10.5957L76.9043 10.5957Q83.8867 10.5957 89.1357 9.39941Q94.3848 8.20312 98.1934 4.39453Q101.953 0.634766 103.125-4.56543Q104.297-9.76562 104.297-16.7969L104.297-53.6133Q104.297-60.5957 103.125-65.8203Q101.953-71.0449 98.1934-74.8047ZM93.4082-54.9805L93.4082-15.4297Q93.4082-11.5723 92.749-8.52051Q92.0898-5.46875 90.1855-3.51562Q88.3301-1.61133 85.2051-0.952148Q82.0801-0.292969 78.2715-0.292969L38.4766-0.292969Q34.668-0.292969 31.543-0.952148Q28.418-1.61133 26.5137-3.51562Q24.6094-5.46875 23.9746-8.52051Q23.3398-11.5723 23.3398-15.4297L23.3398-54.8828Q23.3398-58.7402 23.9746-61.8408Q24.6094-64.9414 26.5137-66.8457Q28.418-68.75 31.5674-69.4092Q34.7168-70.0684 38.5742-70.0684L78.2715-70.0684Q82.0801-70.0684 85.2051-69.4092Q88.3301-68.75 90.1855-66.8457Q92.1387-64.9414 92.7734-61.8652Q93.4082-58.7891 93.4082-54.9805ZM73.584-22.0703Q75.5371-22.0703 76.709-23.4131Q77.8809-24.7559 77.8809-26.9043L77.8809-49.3652Q77.8809-52.1484 76.416-53.5156Q74.9512-54.8828 72.3633-54.8828L49.7559-54.8828Q47.5586-54.8828 46.2646-53.7109Q44.9707-52.5391 44.9707-50.5371Q44.9707-48.5352 46.2891-47.3633Q47.6074-46.1914 49.7559-46.1914L57.5195-46.1914L63.8184-46.9727L56.8848-40.6738L40.3809-24.2188Q38.8672-22.6562 38.8672-20.752Q38.8672-18.6035 40.2344-17.2852Q41.6016-15.9668 43.6035-15.9668Q45.752-15.9668 47.3145-17.4805L63.7207-33.8867L69.9219-40.7715L69.2383-34.1797L69.2383-26.8555Q69.2383-24.707 70.4102-23.3887Q71.582-22.0703 73.584-22.0703Z"/>
  </g>
  <g id="Medium-M" transform="matrix(1 0 0 1 1688.58 1126)">
   <path d="M97.5586-74.5605Q93.7988-78.3203 88.5742-79.4189Q83.3496-80.5176 76.709-80.5176L39.1602-80.5176Q32.5684-80.5176 27.3682-79.4189Q22.168-78.3203 18.3594-74.5605Q14.6484-70.8008 13.5498-65.625Q12.4512-60.4492 12.4512-53.8574L12.4512-16.6016Q12.4512-9.96094 13.5254-4.76074Q14.5996 0.439453 18.3594 4.15039Q22.168 7.95898 27.3682 9.05762Q32.5684 10.1562 39.209 10.1562L76.709 10.1562Q83.3496 10.1562 88.5742 9.05762Q93.7988 7.95898 97.5586 4.15039Q101.318 0.439453 102.417-4.76074Q103.516-9.96094 103.516-16.6016L103.516-53.7598Q103.516-60.4004 102.417-65.6006Q101.318-70.8008 97.5586-74.5605ZM93.9453-55.127L93.9453-15.2832Q93.9453-11.4746 93.2617-8.17871Q92.5781-4.88281 90.5762-2.7832Q88.5254-0.78125 85.1807-0.0976562Q81.8359 0.585938 78.0762 0.585938L37.8906 0.585938Q34.1309 0.585938 30.7861-0.0976562Q27.4414-0.78125 25.3418-2.7832Q23.3398-4.88281 22.6807-8.17871Q22.0215-11.4746 22.0215-15.2832L22.0215-54.9805Q22.0215-58.8867 22.6807-62.207Q23.3398-65.5273 25.3418-67.5781Q27.3926-69.6289 30.7861-70.2881Q34.1797-70.9473 38.0371-70.9473L78.0762-70.9473Q81.8359-70.9473 85.1807-70.2637Q88.5254-69.5801 90.5762-67.5781Q92.627-65.5273 93.2861-62.2314Q93.9453-58.9355 93.9453-55.127ZM73.2422-22.5586Q75.0488-22.5586 76.123-23.8037Q77.1973-25.0488 77.1973-27.002L77.1973-49.707Q77.1973-52.2461 75.8789-53.3936Q74.5605-54.541 72.3145-54.541L49.4629-54.541Q47.5098-54.541 46.3135-53.4668Q45.1172-52.3926 45.1172-50.5859Q45.1172-48.7305 46.3135-47.6318Q47.5098-46.5332 49.5117-46.5332L57.7637-46.5332L64.4531-47.3145L57.2266-40.6738L40.0879-23.5352Q38.7207-22.168 38.7207-20.459Q38.7207-18.5059 39.917-17.334Q41.1133-16.1621 42.9688-16.1621Q44.873-16.1621 46.2402-17.5293L63.3301-34.6191L69.9219-41.748L69.1895-34.7168L69.1895-26.9531Q69.1895-24.9512 70.2881-23.7549Q71.3867-22.5586 73.2422-22.5586Z"/>
  </g>
  <g id="Regular-M" transform="matrix(1 0 0 1 1392.37 1126)">
   <path d="M96.7773-74.2188Q93.0176-77.9785 87.8418-78.9795Q82.666-79.9805 76.416-79.9805L38.3789-79.9805Q32.2266-79.9805 27.0752-78.9795Q21.9238-77.9785 18.1641-74.2188Q14.4531-70.5078 13.4521-65.3809Q12.4512-60.2539 12.4512-54.1016L12.4512-16.4062Q12.4512-10.1562 13.4277-5.00488Q14.4043 0.146484 18.1641 3.85742Q21.9238 7.61719 27.0752 8.61816Q32.2266 9.61914 38.4766 9.61914L76.416 9.61914Q82.666 9.61914 87.8418 8.61816Q93.0176 7.61719 96.7773 3.85742Q100.488 0.146484 101.489-5.00488Q102.49-10.1562 102.49-16.4062L102.49-53.9551Q102.49-60.2051 101.489-65.3564Q100.488-70.5078 96.7773-74.2188ZM94.6289-55.3223L94.6289-15.0879Q94.6289-11.2793 93.9209-7.69043Q93.2129-4.10156 91.0156-1.85547Q88.8184 0.341797 85.1807 1.0498Q81.543 1.75781 77.7832 1.75781L37.1582 1.75781Q33.3984 1.75781 29.7607 1.0498Q26.123 0.341797 23.877-1.85547Q21.6797-4.10156 20.9961-7.69043Q20.3125-11.2793 20.3125-15.0879L20.3125-55.1758Q20.3125-59.0332 20.9961-62.6709Q21.6797-66.3086 23.877-68.5059Q26.0742-70.752 29.7607-71.4355Q33.4473-72.1191 37.3047-72.1191L77.7832-72.1191Q81.543-72.1191 85.1807-71.4111Q88.8184-70.7031 91.0156-68.5059Q93.2617-66.2598 93.9453-62.6709Q94.6289-59.082 94.6289-55.3223ZM72.8027-23.1934Q74.4141-23.1934 75.3906-24.292Q76.3672-25.3906 76.3672-27.0996L76.3672-50.0977Q76.3672-52.2949 75.2686-53.2227Q74.1699-54.1504 72.3145-54.1504L49.1211-54.1504Q47.4121-54.1504 46.3867-53.1738Q45.3613-52.1973 45.3613-50.5859Q45.3613-48.9258 46.4111-47.9492Q47.4609-46.9727 49.2188-46.9727L58.1055-46.9727L65.332-47.7539L57.7637-40.6738L39.7461-22.6562Q38.5742-21.4844 38.5742-20.0684Q38.5742-18.4082 39.5508-17.4072Q40.5273-16.4062 42.1387-16.4062Q43.7988-16.4062 44.9219-17.5293L62.9395-35.5469L69.9219-43.0176L69.1895-35.4492L69.1895-27.002Q69.1895-25.2441 70.1904-24.2188Q71.1914-23.1934 72.8027-23.1934Z"/>
  </g>
  <g id="Light-M" transform="matrix(1 0 0 1 1096.65 1126)">
   <path d="M95.0684-73.584Q91.6504-76.9531 86.8408-78.0029Q82.0312-79.0527 75.3906-79.0527L37.2559-79.0527Q30.9082-79.0527 26.123-78.0029Q21.3379-76.9531 17.9199-73.5352Q14.5508-70.166 13.501-65.4053Q12.4512-60.6445 12.4512-54.248L12.4512-16.3574Q12.4512-9.7168 13.4766-4.93164Q14.502-0.146484 17.8711 3.22266Q21.3379 6.64062 26.123 7.69043Q30.9082 8.74023 37.5488 8.74023L75.3906 8.74023Q82.0312 8.74023 86.8652 7.69043Q91.6992 6.64062 95.0684 3.22266Q98.4375-0.146484 99.4873-4.93164Q100.537-9.7168 100.537-16.3574L100.537-53.9551Q100.537-60.5957 99.4873-65.4053Q98.4375-70.2148 95.0684-73.584ZM94.4824-55.2734L94.4824-15.0879Q94.4824-10.7422 93.6523-7.10449Q92.8223-3.4668 90.625-1.2207Q88.3789 1.02539 84.6924 1.85547Q81.0059 2.68555 76.709 2.68555L36.2793 2.68555Q31.9336 2.68555 28.2471 1.85547Q24.5605 1.02539 22.3145-1.2207Q20.0684-3.4668 19.2871-7.10449Q18.5059-10.7422 18.5059-15.0879L18.5059-54.9805Q18.5059-59.4727 19.2871-63.208Q20.0684-66.9434 22.3145-69.1406Q24.5117-71.4355 28.2959-72.2412Q32.0801-73.0469 36.5723-73.0469L76.709-73.0469Q81.0059-73.0469 84.6924-72.1924Q88.3789-71.3379 90.625-69.1406Q92.8711-66.8457 93.6768-63.2324Q94.4824-59.6191 94.4824-55.2734ZM72.4121-23.4863Q73.6328-23.4863 74.3896-24.3408Q75.1465-25.1953 75.1465-26.5137L75.1465-50.8789Q75.1465-52.4902 74.3164-53.2227Q73.4863-53.9551 72.0703-53.9551L47.6074-53.9551Q46.2402-53.9551 45.4346-53.1982Q44.6289-52.4414 44.6289-51.2207Q44.6289-49.9512 45.459-49.1943Q46.2891-48.4375 47.6562-48.4375L59.4238-48.4375L66.4551-48.9258L59.9121-42.7246L38.7695-21.582Q37.8418-20.6543 37.8418-19.5312Q37.8418-18.2617 38.5986-17.4805Q39.3555-16.6992 40.625-16.6992Q41.9434-16.6992 42.8223-17.5781L63.916-38.6719L70.0684-45.2148L69.5801-37.207L69.5801-26.4648Q69.5801-25.0977 70.3613-24.292Q71.1426-23.4863 72.4121-23.4863Z"/>
  </g>
  <g id="Thin-M" transform="matrix(1 0 0 1 801.237 1126)">
   <path d="M92.8223-72.7051Q89.8926-75.6348 85.5469-76.7334Q81.2012-77.832 74.0234-77.832L35.791-77.832Q29.1504-77.832 24.8291-76.709Q20.5078-75.5859 17.5781-72.6562Q14.6484-69.7266 13.5498-65.4541Q12.4512-61.1816 12.4512-54.4922L12.4512-16.3574Q12.4512-9.13086 13.5254-4.80957Q14.5996-0.488281 17.5293 2.39258Q20.5078 5.32227 24.8535 6.44531Q29.1992 7.56836 36.3281 7.56836L74.0234 7.56836Q81.2012 7.56836 85.5713 6.44531Q89.9414 5.32227 92.8223 2.39258Q95.8008-0.537109 96.8506-4.83398Q97.9004-9.13086 97.9004-16.3574L97.9004-53.9551Q97.9004-61.1328 96.8506-65.4785Q95.8008-69.8242 92.8223-72.7051ZM94.3359-55.2246L94.3359-15.0879Q94.3359-9.96094 93.335-6.29883Q92.334-2.63672 90.0879-0.341797Q87.8418 1.95312 84.1064 2.9541Q80.3711 3.95508 75.3418 3.95508L35.1074 3.95508Q30.0293 3.95508 26.2939 2.92969Q22.5586 1.9043 20.2637-0.341797Q17.9688-2.63672 17.041-6.29883Q16.1133-9.96094 16.1133-15.0879L16.1133-54.7363Q16.1133-60.1074 17.041-63.9404Q17.9688-67.7734 20.2148-70.0195Q22.5098-72.3145 26.3672-73.2666Q30.2246-74.2188 35.5957-74.2188L75.3418-74.2188Q80.3711-74.2188 84.1064-73.2178Q87.8418-72.2168 90.0879-69.9707Q92.3828-67.6758 93.3594-63.9893Q94.3359-60.3027 94.3359-55.2246ZM71.8262-23.8281Q72.5586-23.8281 73.0225-24.3408Q73.4863-24.8535 73.4863-25.6836L73.4863-51.8066Q73.4863-52.6855 72.998-53.1494Q72.5098-53.6133 71.7285-53.6133L45.5566-53.6133Q44.6777-53.6133 44.1895-53.1738Q43.7012-52.7344 43.7012-52.002Q43.7012-51.2207 44.1895-50.7324Q44.6777-50.2441 45.5566-50.2441L61.1328-50.2441L67.9688-50.4395L62.6953-45.3125L37.4512-20.1172Q36.8652-19.4824 36.8652-18.7988Q36.8652-17.9688 37.3535-17.5049Q37.8418-17.041 38.623-17.041Q39.4531-17.041 39.9902-17.5781L65.1855-42.7734L70.2148-48.0469L70.0684-39.4531L70.0684-25.6836Q70.0684-24.8535 70.5566-24.3408Q71.0449-23.8281 71.8262-23.8281Z"/>
  </g>
  <g id="Ultralight-M" transform="matrix(1 0 0 1 505.192 1126)">
   <path d="M91.6992-72.2656Q88.9648-74.9512 84.8633-76.0742Q80.7617-77.1973 73.3398-77.1973L35.0586-77.1973Q28.2227-77.1973 24.1699-76.0498Q20.1172-74.9023 17.4316-72.168Q14.7461-69.5312 13.5986-65.5029Q12.4512-61.4746 12.4512-54.5898L12.4512-16.3086Q12.4512-8.83789 13.5742-4.76074Q14.6973-0.683594 17.334 2.00195Q20.1172 4.6875 24.2188 5.81055Q28.3203 6.93359 35.6934 6.93359L73.3398 6.93359Q80.7617 6.93359 84.8877 5.81055Q89.0137 4.6875 91.6992 2.00195Q94.3848-0.732422 95.4834-4.78516Q96.582-8.83789 96.582-16.3086L96.582-53.9551Q96.582-61.4258 95.4834-65.5029Q94.3848-69.5801 91.6992-72.2656ZM94.2383-55.1758L94.2383-15.0879Q94.2383-9.61914 93.1641-5.9082Q92.0898-2.19727 89.8438 0.0976562Q87.5488 2.44141 83.7646 3.51562Q79.9805 4.58984 74.6094 4.58984L34.4727 4.58984Q29.0527 4.58984 25.2686 3.49121Q21.4844 2.39258 19.1895 0.0976562Q16.8945-2.19727 15.8691-5.9082Q14.8438-9.61914 14.8438-15.0879L14.8438-54.5898Q14.8438-60.4004 15.8691-64.2822Q16.8945-68.1641 19.1406-70.459Q21.4355-72.8027 25.3662-73.8281Q29.2969-74.8535 35.0586-74.8535L74.6094-74.8535Q79.9805-74.8535 83.7646-73.7549Q87.5488-72.6562 89.8438-70.3613Q92.1387-68.0664 93.1885-64.3799Q94.2383-60.6934 94.2383-55.1758ZM71.582-24.0723Q72.0215-24.0723 72.3389-24.4141Q72.6562-24.7559 72.6562-25.3418L72.6562-52.3438Q72.6562-52.832 72.3633-53.1738Q72.0703-53.5156 71.582-53.5156L44.5312-53.5156Q43.8965-53.5156 43.5547-53.2227Q43.2129-52.9297 43.2129-52.4414Q43.2129-51.9531 43.5547-51.6113Q43.8965-51.2695 44.4824-51.2695L62.0605-51.2695L68.75-51.2695L64.1602-46.7285L36.8164-19.3848Q36.377-18.9453 36.377-18.457Q36.377-17.8711 36.7188-17.5537Q37.0605-17.2363 37.5977-17.2363Q38.1836-17.2363 38.5742-17.627L65.8691-44.9219L70.3125-49.5605L70.3613-40.625L70.3613-25.3418Q70.3613-24.7559 70.6787-24.4141Q70.9961-24.0723 71.582-24.0723Z"/>
  </g>
  <g id="Black-S" transform="matrix(1 0 0 1 2885.99 696)">
   <path d="M79.541-67.2852Q76.4648-70.3125 72.2168-71.582Q67.9688-72.8516 61.1328-72.8516L33.6914-72.8516Q26.8555-72.8516 22.583-71.582Q18.3105-70.3125 15.2832-67.2852Q12.2559-64.2578 11.0107-60.0586Q9.76562-55.8594 9.76562-48.9258L9.76562-21.4844Q9.76562-14.5508 11.0107-10.3516Q12.2559-6.15234 15.2832-3.125Q18.3594-0.0976562 22.6074 1.17188Q26.8555 2.44141 33.6914 2.44141L61.1328 2.44141Q67.9688 2.44141 72.2412 1.17188Q76.5137-0.0976562 79.541-3.125Q82.5684-6.15234 83.8135-10.3516Q85.0586-14.5508 85.0586-21.4844L85.0586-48.9258Q85.0586-55.8594 83.8135-60.083Q82.5684-64.3066 79.541-67.2852ZM70.8984-50L70.8984-20.4102Q70.8984-17.2852 70.459-15.8691Q70.0195-14.4531 69.1406-13.5254Q68.2129-12.6465 66.7725-12.1826Q65.332-11.7188 62.207-11.7188L32.6172-11.7188Q29.4922-11.7188 28.0518-12.1826Q26.6113-12.6465 25.6836-13.5254Q24.8047-14.4531 24.3652-15.8691Q23.9258-17.2852 23.9258-20.4102L23.9258-50Q23.9258-53.1738 24.3652-54.5654Q24.8047-55.957 25.6836-56.8848Q26.6113-57.7637 28.0518-58.2275Q29.4922-58.6914 32.6172-58.6914L62.207-58.6914Q65.332-58.6914 66.7725-58.2275Q68.2129-57.7637 69.1406-56.8848Q70.0195-55.957 70.459-54.5654Q70.8984-53.1738 70.8984-50ZM59.082-22.8027Q61.3281-22.8027 62.5977-24.292Q63.8672-25.7812 63.8672-28.2715L63.8672-44.9219Q63.8672-48.2422 61.9873-50.0977Q60.1074-51.9531 56.7383-51.9531L40.0879-51.9531Q37.5488-51.9531 36.0107-50.6836Q34.4727-49.4141 34.4727-47.168Q34.4727-44.9219 35.9619-43.6523Q37.4512-42.3828 39.9414-42.3828L44.043-42.3828L47.168-42.9688L42.9688-39.5996L32.8125-29.4434Q30.957-27.5879 30.957-25.0977Q30.957-22.5098 32.7393-20.8984Q34.5215-19.2871 36.9141-19.2871Q39.4531-19.2871 41.4551-21.2402L51.416-31.1523L54.7852-35.3516L54.2969-32.0312L54.2969-28.3691Q54.2969-25.8301 55.5664-24.3164Q56.8359-22.8027 59.082-22.8027Z"/>
  </g>
  <g id="Heavy-S" transform="matrix(1 0 0 1 2589.73 696)">
   <path d="M78.8574-66.9922Q75.7812-70.0684 71.5332-71.2158Q67.2852-72.3633 60.9375-72.3633L32.959-72.3633Q26.6602-72.3633 22.3877-71.2158Q18.1152-70.0684 15.0879-66.9922Q12.0117-63.9648 10.8887-59.7656Q9.76562-55.5664 9.76562-49.1699L9.76562-21.2402Q9.76562-14.8438 10.8887-10.6445Q12.0117-6.44531 15.0879-3.41797Q18.1641-0.341797 22.4121 0.805664Q26.6602 1.95312 32.959 1.95312L60.9375 1.95312Q67.2852 1.95312 71.5576 0.805664Q75.8301-0.341797 78.8574-3.41797Q81.8848-6.44531 83.0322-10.6445Q84.1797-14.8438 84.1797-21.2402L84.1797-49.1699Q84.1797-55.5664 83.0322-59.79Q81.8848-64.0137 78.8574-66.9922ZM71.6797-50.2441L71.6797-20.166Q71.6797-17.1387 71.2402-15.4053Q70.8008-13.6719 69.7266-12.5488Q68.6035-11.4746 66.8213-11.0107Q65.0391-10.5469 62.0117-10.5469L31.8848-10.5469Q28.8574-10.5469 27.0996-11.0107Q25.3418-11.4746 24.2188-12.5488Q23.1445-13.6719 22.7051-15.4053Q22.2656-17.1387 22.2656-20.166L22.2656-50.1953Q22.2656-53.2715 22.7051-55.0049Q23.1445-56.7383 24.2188-57.8613Q25.3418-58.9355 27.0996-59.3994Q28.8574-59.8633 31.8848-59.8633L62.0117-59.8633Q65.0391-59.8633 66.8213-59.3994Q68.6035-58.9355 69.7266-57.8613Q70.8008-56.7383 71.2402-55.0049Q71.6797-53.2715 71.6797-50.2441ZM58.6426-23.4863Q60.6934-23.4863 61.8652-24.8535Q63.0371-26.2207 63.0371-28.4668L63.0371-45.3125Q63.0371-48.291 61.377-49.9023Q59.7168-51.5137 56.7383-51.5137L39.8926-51.5137Q37.5977-51.5137 36.2061-50.3418Q34.8145-49.1699 34.8145-47.1191Q34.8145-45.0684 36.1816-43.8721Q37.5488-42.6758 39.7949-42.6758L44.2383-42.6758L47.998-43.3105L43.2617-39.3555L32.5195-28.6133Q30.8594-26.9531 30.8594-24.7559Q30.8594-22.4121 32.4219-20.9717Q33.9844-19.5312 36.1816-19.5312Q38.4277-19.5312 40.2344-21.2402L50.7812-31.7871L54.7852-36.5234L54.248-32.6172L54.248-28.5156Q54.248-26.2207 55.4199-24.8535Q56.5918-23.4863 58.6426-23.4863Z"/>
  </g>
  <g id="Bold-S" transform="matrix(1 0 0 1 2293.52 696)">
   <path d="M78.125-66.6992Q75-69.7754 70.7764-70.8008Q66.5527-71.8262 60.791-71.8262L32.1777-71.8262Q26.416-71.8262 22.168-70.8008Q17.9199-69.7754 14.8438-66.6992Q11.7676-63.623 10.7666-59.4482Q9.76562-55.2734 9.76562-49.4629L9.76562-20.9961Q9.76562-15.1855 10.7666-10.9863Q11.7676-6.78711 14.8438-3.71094Q17.9199-0.683594 22.168 0.366211Q26.416 1.41602 32.1777 1.41602L60.791 1.41602Q66.5527 1.41602 70.8008 0.366211Q75.0488-0.683594 78.125-3.71094Q81.1523-6.78711 82.1533-10.9863Q83.1543-15.1855 83.1543-20.9961L83.1543-49.4141Q83.1543-55.2734 82.1533-59.4727Q81.1523-63.6719 78.125-66.6992ZM72.5586-50.4883L72.5586-19.9219Q72.5586-17.041 72.0947-14.917Q71.6309-12.793 70.3613-11.4746Q68.9941-10.2051 66.8701-9.7168Q64.7461-9.22852 61.8652-9.22852L31.1035-9.22852Q28.1738-9.22852 26.0498-9.7168Q23.9258-10.2051 22.6074-11.4746Q21.2891-12.793 20.8252-14.917Q20.3613-17.041 20.3613-19.9219L20.3613-50.4883Q20.3613-53.418 20.8252-55.5176Q21.2891-57.6172 22.6074-58.9355Q23.9258-60.2539 26.0498-60.7422Q28.1738-61.2305 31.1035-61.2305L61.8652-61.2305Q64.7461-61.2305 66.8701-60.7422Q68.9941-60.2539 70.3613-58.9355Q71.6309-57.6172 72.0947-55.5176Q72.5586-53.418 72.5586-50.4883ZM58.1543-24.2188Q60.0098-24.2188 61.084-25.4639Q62.1582-26.709 62.1582-28.7109L62.1582-45.7031Q62.1582-48.3887 60.7178-49.707Q59.2773-51.0254 56.7871-51.0254L39.6484-51.0254Q37.6465-51.0254 36.4258-49.9512Q35.2051-48.877 35.2051-47.0703Q35.2051-45.2148 36.4258-44.1406Q37.6465-43.0664 39.6484-43.0664L44.4824-43.0664L48.9258-43.75L43.6035-39.0625L32.2266-27.6855Q30.7617-26.2207 30.7617-24.3652Q30.7617-22.3145 32.1045-21.0693Q33.4473-19.8242 35.3516-19.8242Q37.3535-19.8242 38.8672-21.2891L50.0977-32.5684L54.7852-37.8418L54.1992-33.3008L54.1992-28.7109Q54.1992-26.6602 55.249-25.4395Q56.2988-24.2188 58.1543-24.2188Z"/>
  </g>
  <g id="Semibold-S" transform="matrix(1 0 0 1 1997.15 696)">
   <path d="M77.5879-66.5039Q74.4629-69.5312 70.2393-70.4834Q66.0156-71.4355 60.6445-71.4355L31.5918-71.4355Q26.2207-71.4355 21.9727-70.4834Q17.7246-69.5312 14.6484-66.5039Q11.5723-63.3789 10.6689-59.2041Q9.76562-55.0293 9.76562-49.6094L9.76562-20.8008Q9.76562-15.3809 10.6689-11.1816Q11.5723-6.98242 14.6484-3.90625Q17.7734-0.878906 21.9971 0.0732422Q26.2207 1.02539 31.5918 1.02539L60.6445 1.02539Q66.0156 1.02539 70.2393 0.0732422Q74.4629-0.878906 77.5879-3.90625Q80.6152-6.98242 81.543-11.1816Q82.4707-15.3809 82.4707-20.8008L82.4707-49.6094Q82.4707-55.0293 81.543-59.2285Q80.6152-63.4277 77.5879-66.5039ZM73.1445-50.6836L73.1445-19.7266Q73.1445-16.8945 72.6807-14.5508Q72.2168-12.207 70.752-10.7422Q69.2871-9.27734 66.9189-8.78906Q64.5508-8.30078 61.7188-8.30078L30.5176-8.30078Q27.6855-8.30078 25.293-8.78906Q22.9004-9.27734 21.4355-10.7422Q20.0195-12.207 19.5312-14.5508Q19.043-16.8945 19.043-19.7266L19.043-50.6348Q19.043-53.5156 19.5312-55.8594Q20.0195-58.2031 21.4355-59.668Q22.9004-61.1328 25.293-61.6211Q27.6855-62.1094 30.5664-62.1094L61.7188-62.1094Q64.5508-62.1094 66.9189-61.6211Q69.2871-61.1328 70.752-59.668Q72.2168-58.2031 72.6807-55.8594Q73.1445-53.5156 73.1445-50.6836ZM57.8613-24.7559Q59.5703-24.7559 60.5469-25.8789Q61.5234-27.002 61.5234-28.8574L61.5234-45.9961Q61.5234-48.3887 60.2539-49.5361Q58.9844-50.6836 56.7871-50.6836L39.502-50.6836Q37.6953-50.6836 36.5723-49.6826Q35.4492-48.6816 35.4492-47.0215Q35.4492-45.3125 36.5723-44.2871Q37.6953-43.2617 39.5508-43.2617L44.6289-43.2617L49.5605-43.9941L43.8477-38.8184L31.9824-27.002Q30.7129-25.7324 30.7129-24.0723Q30.7129-22.2656 31.8848-21.1426Q33.0566-20.0195 34.7656-20.0195Q36.5723-20.0195 37.8906-21.2891L49.6582-33.0566L54.7852-38.7207L54.1504-33.7402L54.1504-28.8086Q54.1504-26.9531 55.127-25.8545Q56.1035-24.7559 57.8613-24.7559Z"/>
  </g>
  <g id="Medium-S" transform="matrix(1 0 0 1 1700.7 696)">
   <path d="M77.1973-66.3086Q74.0723-69.3848 69.8486-70.2637Q65.625-71.1426 60.5469-71.1426L31.1523-71.1426Q26.0742-71.1426 21.8506-70.2637Q17.627-69.3848 14.502-66.3086Q11.4746-63.2324 10.6201-59.0332Q9.76562-54.834 9.76562-49.7559L9.76562-20.7031Q9.76562-15.5762 10.6201-11.377Q11.4746-7.17773 14.502-4.10156Q17.627-1.02539 21.8506-0.146484Q26.0742 0.732422 31.1523 0.732422L60.5469 0.732422Q65.625 0.732422 69.8486-0.146484Q74.0723-1.02539 77.1973-4.10156Q80.2246-7.17773 81.0791-11.377Q81.9336-15.5762 81.9336-20.7031L81.9336-49.707Q81.9336-54.834 81.0791-59.0576Q80.2246-63.2812 77.1973-66.3086ZM73.6328-50.7812L73.6328-19.6289Q73.6328-16.8457 73.1445-14.2822Q72.6562-11.7188 71.0938-10.1562Q69.4824-8.59375 66.9189-8.10547Q64.3555-7.61719 61.6211-7.61719L30.0781-7.61719Q27.3438-7.61719 24.7559-8.10547Q22.168-8.59375 20.6055-10.1562Q19.043-11.7188 18.5547-14.2822Q18.0664-16.8457 18.0664-19.6289L18.0664-50.7812Q18.0664-53.5645 18.5547-56.1279Q19.043-58.6914 20.6055-60.2539Q22.168-61.8164 24.7559-62.3047Q27.3438-62.793 30.127-62.793L61.6211-62.793Q64.3555-62.793 66.9189-62.3047Q69.4824-61.8164 71.0938-60.2539Q72.6562-58.6914 73.1445-56.1279Q73.6328-53.5645 73.6328-50.7812ZM57.5195-25.1465Q59.1309-25.1465 60.0586-26.1963Q60.9863-27.2461 60.9863-28.9551L60.9863-46.1914Q60.9863-48.4375 59.8633-49.4385Q58.7402-50.4395 56.7383-50.4395L39.3555-50.4395Q37.6465-50.4395 36.6211-49.4873Q35.5957-48.5352 35.5957-46.9727Q35.5957-45.3613 36.6455-44.4092Q37.6953-43.457 39.4043-43.457L44.7266-43.457L50-44.1895L43.9453-38.6719L31.7871-26.5137Q30.6152-25.3418 30.6152-23.877Q30.6152-22.168 31.665-21.167Q32.7148-20.166 34.2773-20.166Q35.9375-20.166 37.1582-21.3379L49.2188-33.4473L54.7363-39.4043L54.0527-34.082L54.0527-28.9062Q54.0527-27.1484 55.0049-26.1475Q55.957-25.1465 57.5195-25.1465Z"/>
  </g>
  <g id="Regular-S" transform="matrix(1 0 0 1 1404.34 696)">
   <path d="M76.6602-66.1133Q73.5352-69.1895 69.3115-69.9707Q65.0879-70.752 60.4004-70.752L30.6152-70.752Q25.9277-70.752 21.7041-69.9707Q17.4805-69.1895 14.3555-66.1133Q11.2793-62.9883 10.5225-58.8135Q9.76562-54.6387 9.76562-49.9512L9.76562-20.5078Q9.76562-15.7715 10.5225-11.5723Q11.2793-7.37305 14.3555-4.29688Q17.4805-1.2207 21.7041-0.439453Q25.9277 0.341797 30.6152 0.341797L60.4004 0.341797Q65.0879 0.341797 69.3115-0.439453Q73.5352-1.2207 76.6602-4.29688Q79.7363-7.37305 80.4932-11.5723Q81.25-15.7715 81.25-20.5078L81.25-49.9023Q81.25-54.6387 80.4932-58.8379Q79.7363-63.0371 76.6602-66.1133ZM74.2188-50.9766L74.2188-19.4336Q74.2188-16.748 73.7305-13.9404Q73.2422-11.1328 71.5332-9.42383Q69.7754-7.71484 66.9678-7.20215Q64.1602-6.68945 61.4746-6.68945L29.541-6.68945Q26.8555-6.68945 24.0234-7.20215Q21.1914-7.71484 19.4824-9.42383Q17.7734-11.1328 17.2852-13.9404Q16.7969-16.748 16.7969-19.4336L16.7969-50.9277Q16.7969-53.6621 17.2852-56.4697Q17.7734-59.2773 19.4824-60.9863Q21.1914-62.6953 24.0234-63.208Q26.8555-63.7207 29.5898-63.7207L61.4746-63.7207Q64.1602-63.7207 66.9678-63.208Q69.7754-62.6953 71.5332-60.9863Q73.2422-59.2773 73.7305-56.4697Q74.2188-53.6621 74.2188-50.9766ZM57.2266-25.6348Q58.6914-25.6348 59.5459-26.6113Q60.4004-27.5879 60.4004-29.1016L60.4004-46.4844Q60.4004-48.4863 59.4238-49.292Q58.4473-50.0977 56.7871-50.0977L39.209-50.0977Q37.6953-50.0977 36.792-49.2188Q35.8887-48.3398 35.8887-46.9238Q35.8887-45.459 36.8408-44.5801Q37.793-43.7012 39.3066-43.7012L44.873-43.7012L50.6348-44.4824L44.1895-38.4766L31.5918-25.8789Q30.5664-24.8535 30.5664-23.584Q30.5664-22.1191 31.4453-21.2402Q32.3242-20.3613 33.7402-20.3613Q35.2051-20.3613 36.2305-21.3379L48.7793-33.9355L54.7363-40.2832L54.0527-34.5215L54.0527-29.0039Q54.0527-27.4414 54.9072-26.5381Q55.7617-25.6348 57.2266-25.6348Z"/>
  </g>
  <g id="Light-S" transform="matrix(1 0 0 1 1108.49 696)">
   <path d="M75.1465-65.5273Q72.3633-68.3105 68.457-69.1162Q64.5508-69.9219 59.4727-69.9219L29.6387-69.9219Q24.7559-69.9219 20.8496-69.0918Q16.9434-68.2617 14.1602-65.5273Q11.377-62.6953 10.5713-58.8379Q9.76562-54.9805 9.76562-50.0977L9.76562-20.459Q9.76562-15.3809 10.5713-11.499Q11.377-7.61719 14.1113-4.83398Q16.9434-2.09961 20.8496-1.26953Q24.7559-0.439453 29.7852-0.439453L59.4727-0.439453Q64.5508-0.439453 68.457-1.26953Q72.3633-2.09961 75.1465-4.83398Q77.9297-7.61719 78.7354-11.499Q79.541-15.3809 79.541-20.459L79.541-49.9023Q79.541-54.9805 78.7354-58.8623Q77.9297-62.7441 75.1465-65.5273ZM74.1211-50.9277L74.1211-19.4336Q74.1211-16.2598 73.5107-13.4277Q72.9004-10.5957 71.1914-8.83789Q69.4336-7.08008 66.5771-6.46973Q63.7207-5.85938 60.5469-5.85938L28.7598-5.85938Q25.5859-5.85938 22.7051-6.46973Q19.8242-7.08008 18.1152-8.83789Q16.3574-10.5957 15.7715-13.4277Q15.1855-16.2598 15.1855-19.4336L15.1855-50.7812Q15.1855-54.0527 15.7715-56.9336Q16.3574-59.8145 18.0664-61.5723Q19.8242-63.2812 22.7295-63.8916Q25.6348-64.502 28.9551-64.502L60.5469-64.502Q63.7207-64.502 66.5771-63.8916Q69.4336-63.2812 71.1914-61.5234Q72.9004-59.8145 73.5107-56.9824Q74.1211-54.1504 74.1211-50.9277ZM56.8848-25.9277Q58.0078-25.9277 58.667-26.6846Q59.3262-27.4414 59.3262-28.6133L59.3262-47.168Q59.3262-48.6816 58.5693-49.3164Q57.8125-49.9512 56.5918-49.9512L37.8418-49.9512Q36.6699-49.9512 35.9619-49.2676Q35.2539-48.584 35.2539-47.5098Q35.2539-46.3379 36.0107-45.6543Q36.7676-44.9707 37.9395-44.9707L46.0449-44.9707L51.6602-45.5078L46.0938-40.2832L30.7617-24.9512Q29.9316-24.1211 29.9316-23.0957Q29.9316-21.9727 30.6152-21.2891Q31.2988-20.6055 32.4219-20.6055Q33.5938-20.6055 34.375-21.3867L49.6582-36.7188L54.834-42.2363L54.3945-36.084L54.3945-28.5156Q54.3945-27.3438 55.0537-26.6357Q55.7129-25.9277 56.8848-25.9277Z"/>
  </g>
  <g id="Thin-S" transform="matrix(1 0 0 1 812.918 696)">
   <path d="M73.1934-64.7461Q70.752-67.1387 67.2607-67.9932Q63.7695-68.8477 58.3008-68.8477L28.3691-68.8477Q23.1934-68.8477 19.7266-67.9688Q16.2598-67.0898 13.8672-64.6973Q11.4746-62.3047 10.6201-58.8867Q9.76562-55.4688 9.76562-50.2441L9.76562-20.459Q9.76562-14.8926 10.6201-11.4258Q11.4746-7.95898 13.8184-5.61523Q16.2109-3.22266 19.7266-2.34375Q23.2422-1.46484 28.7109-1.46484L58.3008-1.46484Q63.7695-1.46484 67.2852-2.34375Q70.8008-3.22266 73.1934-5.61523Q75.5371-7.95898 76.3916-11.4258Q77.2461-14.8926 77.2461-20.459L77.2461-49.9023Q77.2461-55.4688 76.3916-58.9355Q75.5371-62.4023 73.1934-64.7461ZM73.9258-50.9277L73.9258-19.4336Q73.9258-15.5762 73.1934-12.6953Q72.4609-9.81445 70.7031-8.05664Q68.9453-6.25 66.0156-5.51758Q63.0859-4.78516 59.2773-4.78516L27.7344-4.78516Q23.9258-4.78516 20.9961-5.51758Q18.0664-6.25 16.2598-8.05664Q14.502-9.81445 13.7939-12.6953Q13.0859-15.5762 13.0859-19.4336L13.0859-50.5371Q13.0859-54.5898 13.7939-57.5684Q14.502-60.5469 16.2598-62.3047Q18.0176-64.1113 21.0205-64.8193Q24.0234-65.5273 28.0762-65.5273L59.2773-65.5273Q63.0859-65.5273 66.0156-64.7949Q68.9453-64.0625 70.7031-62.3047Q72.4609-60.498 73.1934-57.6172Q73.9258-54.7363 73.9258-50.9277ZM56.3477-26.2207Q57.0312-26.2207 57.4463-26.6846Q57.8613-27.1484 57.8613-27.8809L57.8613-47.998Q57.8613-48.8281 57.4219-49.2676Q56.9824-49.707 56.25-49.707L36.0352-49.707Q35.3027-49.707 34.8633-49.292Q34.4238-48.877 34.4238-48.1934Q34.4238-47.4609 34.8877-47.0459Q35.3516-46.6309 36.084-46.6309L47.5586-46.6309L52.9297-46.8262L48.584-42.627L29.5898-23.6328Q29.0527-23.0957 29.0527-22.4609Q29.0527-21.7285 29.4678-21.2891Q29.8828-20.8496 30.6152-20.8496Q31.3477-20.8496 31.8848-21.3867L50.8301-40.332L54.9805-44.7266L54.7852-38.0371L54.7852-27.8809Q54.7852-27.0996 55.2246-26.6602Q55.6641-26.2207 56.3477-26.2207Z"/>
  </g>
  <g id="Ultralight-S" transform="matrix(1 0 0 1 516.792 696)">
   <path d="M72.168-64.3555Q69.9707-66.5039 66.6992-67.4072Q63.4277-68.3105 57.666-68.3105L27.6855-68.3105Q22.3633-68.3105 19.1162-67.3828Q15.8691-66.4551 13.7207-64.3066Q11.5723-62.1094 10.6689-58.9111Q9.76562-55.7129 9.76562-50.3418L9.76562-20.4102Q9.76562-14.6484 10.6445-11.377Q11.5234-8.10547 13.6719-5.95703Q15.8691-3.80859 19.1406-2.90527Q22.4121-2.00195 28.1738-2.00195L57.666-2.00195Q63.4277-2.00195 66.6992-2.90527Q69.9707-3.80859 72.168-5.95703Q74.3164-8.1543 75.1953-11.4014Q76.0742-14.6484 76.0742-20.4102L76.0742-49.9023Q76.0742-55.6641 75.1953-58.9355Q74.3164-62.207 72.168-64.3555ZM73.877-50.8789L73.877-19.4336Q73.877-15.2344 73.0713-12.3535Q72.2656-9.47266 70.459-7.66602Q68.7012-5.85938 65.7471-5.05371Q62.793-4.24805 58.6426-4.24805L27.1973-4.24805Q23.0469-4.24805 20.0928-5.05371Q17.1387-5.85938 15.332-7.66602Q13.5742-9.47266 12.7686-12.3535Q11.9629-15.2344 11.9629-19.4336L11.9629-50.4395Q11.9629-54.8828 12.7686-57.8857Q13.5742-60.8887 15.2832-62.6953Q17.0898-64.502 20.166-65.2832Q23.2422-66.0645 27.6367-66.0645L58.6426-66.0645Q62.793-66.0645 65.7471-65.2588Q68.7012-64.4531 70.459-62.6465Q72.2656-60.8887 73.0713-57.9834Q73.877-55.0781 73.877-50.8789ZM56.1035-26.416Q56.543-26.416 56.8359-26.7334Q57.1289-27.0508 57.1289-27.5879L57.1289-48.4863Q57.1289-48.9746 56.8359-49.292Q56.543-49.6094 56.1035-49.6094L35.1074-49.6094Q34.6191-49.6094 34.3018-49.3408Q33.9844-49.0723 33.9844-48.6328Q33.9844-48.0957 34.3018-47.8027Q34.6191-47.5098 35.1074-47.5098L48.3887-47.5098L53.6133-47.5098L49.8535-43.8965L29.0039-23.0469Q28.6133-22.6562 28.6133-22.1191Q28.6133-21.6797 28.9062-21.3623Q29.1992-21.0449 29.6875-21.0449Q30.2734-21.0449 30.6152-21.4355L51.416-42.2363L55.0293-46.0449L55.0293-39.1113L55.0293-27.5391Q55.0293-27.0508 55.3223-26.7334Q55.6152-26.416 56.1035-26.416Z"/>
  </g>
 </g>
</svg>
