<?xml version="1.0" encoding="UTF-8"?>
<!--Generator: Apple Native CoreSVG 175-->
<!DOCTYPE svg
PUBLIC "-//W3C//DTD SVG 1.1//EN"
       "http://www.w3.org/Graphics/SVG/1.1/DTD/svg11.dtd">
<svg version="1.1" xmlns="http://www.w3.org/2000/svg" xmlns:xlink="http://www.w3.org/1999/xlink" width="3300" height="2200">
 <!--glyph: "uni100BF5.medium", point size: 100.0, font version: "17.3d3e1", template writer version: "65.1"-->
 <g id="Notes">
  <rect height="2200" id="artboard" style="fill:white;opacity:1" width="3300" x="0" y="0"/>
  <line style="fill:none;stroke:black;opacity:1;stroke-width:0.5;" x1="263" x2="3036" y1="292" y2="292"/>
  <text style="stroke:none;fill:black;font-family:sans-serif;font-size:13;font-weight:bold;" transform="matrix(1 0 0 1 263 322)">Weight/Scale Variations</text>
  <text style="stroke:none;fill:black;font-family:sans-serif;font-size:13;text-anchor:middle;" transform="matrix(1 0 0 1 559.711 322)">Ultralight</text>
  <text style="stroke:none;fill:black;font-family:sans-serif;font-size:13;text-anchor:middle;" transform="matrix(1 0 0 1 856.422 322)">Thin</text>
  <text style="stroke:none;fill:black;font-family:sans-serif;font-size:13;text-anchor:middle;" transform="matrix(1 0 0 1 1153.13 322)">Light</text>
  <text style="stroke:none;fill:black;font-family:sans-serif;font-size:13;text-anchor:middle;" transform="matrix(1 0 0 1 1449.84 322)">Regular</text>
  <text style="stroke:none;fill:black;font-family:sans-serif;font-size:13;text-anchor:middle;" transform="matrix(1 0 0 1 1746.56 322)">Medium</text>
  <text style="stroke:none;fill:black;font-family:sans-serif;font-size:13;text-anchor:middle;" transform="matrix(1 0 0 1 2043.27 322)">Semibold</text>
  <text style="stroke:none;fill:black;font-family:sans-serif;font-size:13;text-anchor:middle;" transform="matrix(1 0 0 1 2339.98 322)">Bold</text>
  <text style="stroke:none;fill:black;font-family:sans-serif;font-size:13;text-anchor:middle;" transform="matrix(1 0 0 1 2636.69 322)">Heavy</text>
  <text style="stroke:none;fill:black;font-family:sans-serif;font-size:13;text-anchor:middle;" transform="matrix(1 0 0 1 2933.4 322)">Black</text>
  <line style="fill:none;stroke:black;opacity:1;stroke-width:0.5;" x1="263" x2="3036" y1="1903" y2="1903"/>
  <g transform="matrix(1 0 0 1 263 1933)">
   <path d="M9.24805 0.830078Q10.8691 0.830078 12.2949 0.214844Q13.7207-0.400391 14.8096-1.49414Q15.8984-2.58789 16.5186-4.01367Q17.1387-5.43945 17.1387-7.05078Q17.1387-8.66211 16.5186-10.0879Q15.8984-11.5137 14.8047-12.6074Q13.7109-13.7012 12.2852-14.3164Q10.8594-14.9316 9.23828-14.9316Q7.62695-14.9316 6.20117-14.3164Q4.77539-13.7012 3.69141-12.6074Q2.60742-11.5137 1.9873-10.0879Q1.36719-8.66211 1.36719-7.05078Q1.36719-5.43945 1.9873-4.01367Q2.60742-2.58789 3.69629-1.49414Q4.78516-0.400391 6.21094 0.214844Q7.63672 0.830078 9.24805 0.830078ZM9.24805-0.654297Q7.91992-0.654297 6.7627-1.14746Q5.60547-1.64062 4.73145-2.51953Q3.85742-3.39844 3.36426-4.56055Q2.87109-5.72266 2.87109-7.05078Q2.87109-8.37891 3.35938-9.54102Q3.84766-10.7031 4.72168-11.582Q5.5957-12.4609 6.75293-12.9541Q7.91016-13.4473 9.23828-13.4473Q10.5762-13.4473 11.7334-12.9541Q12.8906-12.4609 13.7695-11.582Q14.6484-10.7031 15.1465-9.54102Q15.6445-8.37891 15.6445-7.05078Q15.6445-5.72266 15.1514-4.56055Q14.6582-3.39844 13.7842-2.51953Q12.9102-1.64062 11.748-1.14746Q10.5859-0.654297 9.24805-0.654297ZM5.6543-7.05078Q5.6543-6.72852 5.85938-6.52832Q6.06445-6.32812 6.40625-6.32812L8.51562-6.32812L8.51562-4.20898Q8.51562-3.88672 8.71094-3.67676Q8.90625-3.4668 9.23828-3.4668Q9.56055-3.4668 9.77051-3.67676Q9.98047-3.88672 9.98047-4.20898L9.98047-6.32812L12.0898-6.32812Q12.4219-6.32812 12.627-6.52832Q12.832-6.72852 12.832-7.05078Q12.832-7.38281 12.627-7.58789Q12.4219-7.79297 12.0898-7.79297L9.98047-7.79297L9.98047-9.90234Q9.98047-10.2344 9.77051-10.4443Q9.56055-10.6543 9.23828-10.6543Q8.90625-10.6543 8.71094-10.4443Q8.51562-10.2344 8.51562-9.90234L8.51562-7.79297L6.40625-7.79297Q6.06445-7.79297 5.85938-7.58789Q5.6543-7.38281 5.6543-7.05078Z"/>
  </g>
  <g transform="matrix(1 0 0 1 281.867 1933)">
   <path d="M11.709 2.91016Q13.75 2.91016 15.5518 2.12891Q17.3535 1.34766 18.7305-0.0292969Q20.1074-1.40625 20.8887-3.20801Q21.6699-5.00977 21.6699-7.05078Q21.6699-9.0918 20.8887-10.8936Q20.1074-12.6953 18.7305-14.0723Q17.3535-15.4492 15.5469-16.2305Q13.7402-17.0117 11.6992-17.0117Q9.6582-17.0117 7.85645-16.2305Q6.05469-15.4492 4.68262-14.0723Q3.31055-12.6953 2.5293-10.8936Q1.74805-9.0918 1.74805-7.05078Q1.74805-5.00977 2.5293-3.20801Q3.31055-1.40625 4.6875-0.0292969Q6.06445 1.34766 7.86621 2.12891Q9.66797 2.91016 11.709 2.91016ZM11.709 1.25Q9.98047 1.25 8.47656 0.605469Q6.97266-0.0390625 5.83496-1.17676Q4.69727-2.31445 4.05762-3.81836Q3.41797-5.32227 3.41797-7.05078Q3.41797-8.7793 4.05762-10.2832Q4.69727-11.7871 5.83008-12.9297Q6.96289-14.0723 8.4668-14.7119Q9.9707-15.3516 11.6992-15.3516Q13.4277-15.3516 14.9316-14.7119Q16.4355-14.0723 17.5781-12.9297Q18.7207-11.7871 19.3652-10.2832Q20.0098-8.7793 20.0098-7.05078Q20.0098-5.32227 19.3701-3.81836Q18.7305-2.31445 17.5928-1.17676Q16.4551-0.0390625 14.9463 0.605469Q13.4375 1.25 11.709 1.25ZM7.17773-7.05078Q7.17773-6.69922 7.41211-6.47461Q7.64648-6.25 8.01758-6.25L10.8887-6.25L10.8887-3.36914Q10.8887-2.99805 11.1133-2.76855Q11.3379-2.53906 11.6895-2.53906Q12.0605-2.53906 12.29-2.76855Q12.5195-2.99805 12.5195-3.36914L12.5195-6.25L15.4004-6.25Q15.7715-6.25 16.001-6.47461Q16.2305-6.69922 16.2305-7.05078Q16.2305-7.42188 16.001-7.65137Q15.7715-7.88086 15.4004-7.88086L12.5195-7.88086L12.5195-10.752Q12.5195-11.1328 12.29-11.3623Q12.0605-11.5918 11.6895-11.5918Q11.3379-11.5918 11.1133-11.3574Q10.8887-11.123 10.8887-10.752L10.8887-7.88086L8.01758-7.88086Q7.63672-7.88086 7.40723-7.65137Q7.17773-7.42188 7.17773-7.05078Z"/>
  </g>
  <g transform="matrix(1 0 0 1 305.646 1933)">
   <path d="M14.9707 5.66406Q17.0605 5.66406 18.96 5.01465Q20.8594 4.36523 22.4512 3.19336Q24.043 2.02148 25.2197 0.429688Q26.3965-1.16211 27.0459-3.06641Q27.6953-4.9707 27.6953-7.05078Q27.6953-9.14062 27.0459-11.04Q26.3965-12.9395 25.2197-14.5312Q24.043-16.123 22.4512-17.2998Q20.8594-18.4766 18.9551-19.126Q17.0508-19.7754 14.9609-19.7754Q12.8711-19.7754 10.9717-19.126Q9.07227-18.4766 7.48535-17.2998Q5.89844-16.123 4.72168-14.5312Q3.54492-12.9395 2.90039-11.04Q2.25586-9.14062 2.25586-7.05078Q2.25586-4.9707 2.90527-3.06641Q3.55469-1.16211 4.72656 0.429688Q5.89844 2.02148 7.49023 3.19336Q9.08203 4.36523 10.9814 5.01465Q12.8809 5.66406 14.9707 5.66406ZM14.9707 3.84766Q13.1641 3.84766 11.5283 3.2959Q9.89258 2.74414 8.53516 1.74805Q7.17773 0.751953 6.17676-0.610352Q5.17578-1.97266 4.62891-3.6084Q4.08203-5.24414 4.08203-7.05078Q4.08203-8.86719 4.62891-10.5029Q5.17578-12.1387 6.17188-13.501Q7.16797-14.8633 8.52539-15.8594Q9.88281-16.8555 11.5186-17.4023Q13.1543-17.9492 14.9609-17.9492Q16.7773-17.9492 18.4131-17.4023Q20.0488-16.8555 21.4111-15.8594Q22.7734-14.8633 23.7695-13.501Q24.7656-12.1387 25.3174-10.5029Q25.8691-8.86719 25.8691-7.05078Q25.8789-5.24414 25.332-3.6084Q24.7852-1.97266 23.7842-0.610352Q22.7832 0.751953 21.4209 1.74805Q20.0586 2.74414 18.4229 3.2959Q16.7871 3.84766 14.9707 3.84766ZM9.19922-7.05078Q9.19922-6.66992 9.45801-6.4209Q9.7168-6.17188 10.1172-6.17188L14.0625-6.17188L14.0625-2.2168Q14.0625-1.81641 14.3115-1.55762Q14.5605-1.29883 14.9512-1.29883Q15.3516-1.29883 15.6104-1.55273Q15.8691-1.80664 15.8691-2.2168L15.8691-6.17188L19.8242-6.17188Q20.2246-6.17188 20.4785-6.4209Q20.7324-6.66992 20.7324-7.05078Q20.7324-7.46094 20.4785-7.71484Q20.2246-7.96875 19.8242-7.96875L15.8691-7.96875L15.8691-11.9141Q15.8691-12.3242 15.6104-12.583Q15.3516-12.8418 14.9512-12.8418Q14.5605-12.8418 14.3115-12.583Q14.0625-12.3242 14.0625-11.9141L14.0625-7.96875L10.1172-7.96875Q9.70703-7.96875 9.45312-7.71484Q9.19922-7.46094 9.19922-7.05078Z"/>
  </g>
  <text style="stroke:none;fill:black;font-family:sans-serif;font-size:13;font-weight:bold;" transform="matrix(1 0 0 1 263 1953)">Design Variations</text>
  <text style="stroke:none;fill:black;font-family:sans-serif;font-size:13;" transform="matrix(1 0 0 1 263 1971)">Symbols are supported in up to nine weights and three scales.</text>
  <text style="stroke:none;fill:black;font-family:sans-serif;font-size:13;" transform="matrix(1 0 0 1 263 1989)">For optimal layout with text and other symbols, vertically align</text>
  <text style="stroke:none;fill:black;font-family:sans-serif;font-size:13;" transform="matrix(1 0 0 1 263 2007)">symbols with the adjacent text.</text>
  <line style="fill:none;stroke:#00AEEF;stroke-width:0.5;opacity:1.0;" x1="776" x2="776" y1="1919" y2="1933"/>
  <g transform="matrix(1 0 0 1 776 1933)">
   <path d="M3.31055 0.15625Q3.70117 0.15625 3.91602-0.00976562Q4.13086-0.175781 4.26758-0.585938L5.52734-4.0332L11.2891-4.0332L12.5488-0.585938Q12.6855-0.175781 12.9004-0.00976562Q13.1152 0.15625 13.4961 0.15625Q13.8867 0.15625 14.1162-0.0585938Q14.3457-0.273438 14.3457-0.644531Q14.3457-0.869141 14.2383-1.17188L9.6582-13.3691Q9.48242-13.8184 9.17969-14.043Q8.87695-14.2676 8.4082-14.2676Q7.5-14.2676 7.17773-13.3789L2.59766-1.16211Q2.49023-0.859375 2.49023-0.634766Q2.49023-0.263672 2.70996-0.0537109Q2.92969 0.15625 3.31055 0.15625ZM6.00586-5.51758L8.37891-12.0898L8.42773-12.0898L10.8008-5.51758Z"/>
  </g>
  <line style="fill:none;stroke:#00AEEF;stroke-width:0.5;opacity:1.0;" x1="793.197" x2="793.197" y1="1919" y2="1933"/>
  <text style="stroke:none;fill:black;font-family:sans-serif;font-size:13;font-weight:bold;" transform="matrix(1 0 0 1 776 1953)">Margins</text>
  <text style="stroke:none;fill:black;font-family:sans-serif;font-size:13;" transform="matrix(1 0 0 1 776 1971)">Leading and trailing margins on the left and right side of each symbol</text>
  <text style="stroke:none;fill:black;font-family:sans-serif;font-size:13;" transform="matrix(1 0 0 1 776 1989)">can be adjusted by modifying the x-location of the margin guidelines.</text>
  <text style="stroke:none;fill:black;font-family:sans-serif;font-size:13;" transform="matrix(1 0 0 1 776 2007)">Modifications are automatically applied proportionally to all</text>
  <text style="stroke:none;fill:black;font-family:sans-serif;font-size:13;" transform="matrix(1 0 0 1 776 2025)">scales and weights.</text>
  <g transform="matrix(1 0 0 1 1289 1933)">
   <path d="M2.8418 1.86523L4.54102 3.57422Q5.18555 4.22852 5.90332 4.17969Q6.62109 4.13086 7.31445 3.35938L18.0078-8.42773L17.041-9.4043L6.42578 2.27539Q6.16211 2.57812 5.89355 2.61719Q5.625 2.65625 5.27344 2.30469L4.10156 1.14258Q3.75 0.791016 3.79395 0.522461Q3.83789 0.253906 4.14062-0.0195312L15.6152-10.8203L14.6387-11.7871L3.04688-0.898438Q2.30469-0.214844 2.25098 0.498047Q2.19727 1.21094 2.8418 1.86523ZM9.25781-16.3281Q8.94531-16.0254 8.90625-15.6348Q8.86719-15.2441 9.04297-14.9512Q9.21875-14.6777 9.55566-14.541Q9.89258-14.4043 10.3809-14.5215Q11.4746-14.7754 12.5977-14.7314Q13.7207-14.6875 14.7949-13.9844L14.209-12.5293Q13.9551-11.9043 14.0674-11.4404Q14.1797-10.9766 14.5801-10.5664L16.875-8.25195Q17.2363-7.88086 17.5781-7.82227Q17.9199-7.76367 18.3398-7.8418L19.4043-8.03711L20.0684-7.36328L20.0293-6.80664Q20-6.43555 20.1221-6.12305Q20.2441-5.81055 20.6055-5.44922L21.3672-4.70703Q21.7285-4.3457 22.1533-4.33105Q22.5781-4.31641 22.9297-4.66797L25.8398-7.58789Q26.1914-7.93945 26.1816-8.35449Q26.1719-8.76953 25.8105-9.13086L25.0391-9.89258Q24.6875-10.2539 24.3799-10.3857Q24.0723-10.5176 23.7109-10.4883L23.1348-10.4395L22.4902-11.0742L22.7344-12.1973Q22.832-12.6172 22.6953-12.9834Q22.5586-13.3496 22.1191-13.7891L19.9219-15.9766Q18.6719-17.2168 17.2607-17.8369Q15.8496-18.457 14.4189-18.4814Q12.9883-18.5059 11.665-17.959Q10.3418-17.4121 9.25781-16.3281ZM10.752-15.957Q11.6602-16.6211 12.7002-16.9043Q13.7402-17.1875 14.8047-17.085Q15.8691-16.9824 16.8701-16.5137Q17.8711-16.0449 18.7012-15.2051L21.1328-12.793Q21.3086-12.6172 21.3525-12.4512Q21.3965-12.2852 21.3379-12.0312L21.0156-10.5469L22.5195-9.0625L23.5059-9.12109Q23.6914-9.13086 23.7891-9.09668Q23.8867-9.0625 24.0332-8.91602L24.6094-8.33984L22.168-5.89844L21.5918-6.47461Q21.4453-6.62109 21.4062-6.71875Q21.3672-6.81641 21.377-7.01172L21.4453-7.98828L19.9512-9.47266L18.4277-9.21875Q18.1836-9.16992 18.042-9.2041Q17.9004-9.23828 17.7148-9.41406L15.7129-11.416Q15.5176-11.5918 15.4932-11.7529Q15.4688-11.9141 15.5859-12.1875L16.4648-14.2773Q15.293-15.3711 13.8281-15.791Q12.3633-16.2109 10.8398-15.7617Q10.7227-15.7324 10.6885-15.8057Q10.6543-15.8789 10.752-15.957Z"/>
  </g>
  <text style="stroke:none;fill:black;font-family:sans-serif;font-size:13;font-weight:bold;" transform="matrix(1 0 0 1 1289 1953)">Exporting</text>
  <text style="stroke:none;fill:black;font-family:sans-serif;font-size:13;" transform="matrix(1 0 0 1 1289 1971)">Symbols should be outlined when exporting to ensure the</text>
  <text style="stroke:none;fill:black;font-family:sans-serif;font-size:13;" transform="matrix(1 0 0 1 1289 1989)">design is preserved when submitting to Xcode.</text>
  <text id="template-version" style="stroke:none;fill:black;font-family:sans-serif;font-size:13;text-anchor:end;" transform="matrix(1 0 0 1 3036 1933)">Template v.3.0</text>
  <text style="stroke:none;fill:black;font-family:sans-serif;font-size:13;text-anchor:end;" transform="matrix(1 0 0 1 3036 1951)">Requires Xcode 13 or greater</text>
  <text id="descriptive-name" style="stroke:none;fill:black;font-family:sans-serif;font-size:13;text-anchor:end;" transform="matrix(1 0 0 1 3036 1969)">Generated from arrow.down.app.fill</text>
  <text style="stroke:none;fill:black;font-family:sans-serif;font-size:13;text-anchor:end;" transform="matrix(1 0 0 1 3036 1987)">Typeset at 100 points</text>
  <text style="stroke:none;fill:black;font-family:sans-serif;font-size:13;" transform="matrix(1 0 0 1 263 726)">Small</text>
  <text style="stroke:none;fill:black;font-family:sans-serif;font-size:13;" transform="matrix(1 0 0 1 263 1156)">Medium</text>
  <text style="stroke:none;fill:black;font-family:sans-serif;font-size:13;" transform="matrix(1 0 0 1 263 1586)">Large</text>
 </g>
 <g id="Guides">
  <g id="H-reference" style="fill:#27AAE1;stroke:none;" transform="matrix(1 0 0 1 339 696)">
   <path d="M0.993347 0L3.6377 0L29.3282-67.1326L30.0301-67.1326L30.0301-70.459L28.1227-70.459ZM11.6882-24.4797L46.9818-24.4797L46.2311-26.7288L12.4382-26.7288ZM55.1193 0L57.7637 0L30.6381-70.459L29.4327-70.459L29.4327-67.1326Z"/>
  </g>
  <line id="Baseline-S" style="fill:none;stroke:#27AAE1;opacity:1;stroke-width:0.5;" x1="263" x2="3036" y1="696" y2="696"/>
  <line id="Capline-S" style="fill:none;stroke:#27AAE1;opacity:1;stroke-width:0.5;" x1="263" x2="3036" y1="625.541" y2="625.541"/>
  <g id="H-reference" style="fill:#27AAE1;stroke:none;" transform="matrix(1 0 0 1 339 1126)">
   <path d="M0.993347 0L3.6377 0L29.3282-67.1326L30.0301-67.1326L30.0301-70.459L28.1227-70.459ZM11.6882-24.4797L46.9818-24.4797L46.2311-26.7288L12.4382-26.7288ZM55.1193 0L57.7637 0L30.6381-70.459L29.4327-70.459L29.4327-67.1326Z"/>
  </g>
  <line id="Baseline-M" style="fill:none;stroke:#27AAE1;opacity:1;stroke-width:0.5;" x1="263" x2="3036" y1="1126" y2="1126"/>
  <line id="Capline-M" style="fill:none;stroke:#27AAE1;opacity:1;stroke-width:0.5;" x1="263" x2="3036" y1="1055.54" y2="1055.54"/>
  <g id="H-reference" style="fill:#27AAE1;stroke:none;" transform="matrix(1 0 0 1 339 1556)">
   <path d="M0.993347 0L3.6377 0L29.3282-67.1326L30.0301-67.1326L30.0301-70.459L28.1227-70.459ZM11.6882-24.4797L46.9818-24.4797L46.2311-26.7288L12.4382-26.7288ZM55.1193 0L57.7637 0L30.6381-70.459L29.4327-70.459L29.4327-67.1326Z"/>
  </g>
  <line id="Baseline-L" style="fill:none;stroke:#27AAE1;opacity:1;stroke-width:0.5;" x1="263" x2="3036" y1="1556" y2="1556"/>
  <line id="Capline-L" style="fill:none;stroke:#27AAE1;opacity:1;stroke-width:0.5;" x1="263" x2="3036" y1="1485.54" y2="1485.54"/>
  <line id="left-margin-Regular-M" style="fill:none;stroke:#00AEEF;stroke-width:0.5;opacity:1.0;" x1="1392.97" x2="1392.97" y1="1030.79" y2="1150.12"/>
  <line id="right-margin-Regular-M" style="fill:none;stroke:#00AEEF;stroke-width:0.5;opacity:1.0;" x1="1506.72" x2="1506.72" y1="1030.79" y2="1150.12"/>
 </g>
 <g id="Symbols">
  <g id="Black-L" transform="matrix(1 0 0 1 2856.48 1556)">
   <path d="M129.108-87.3249Q124.045-92.3305 117.084-94.1935Q110.123-96.0565 99.8055-96.0565L54.0257-96.0565Q43.7188-96.0565 36.7298-94.1929Q29.7408-92.3292 24.7365-87.3236Q19.7529-82.34 17.9184-75.4503Q16.084-68.5605 16.084-58.1355L16.084-12.3363Q16.084-1.89967 17.9178 4.99136Q19.7516 11.8824 24.7352 16.8867Q29.7992 21.8703 36.7596 23.7443Q43.7201 25.6183 54.0386 25.6183L99.8055 25.6183Q110.123 25.6183 117.123 23.7443Q124.124 21.8703 129.108 16.8867Q134.093 11.8811 135.926 4.99071Q137.759-1.89967 137.759-12.3363L137.759-58.1032Q137.759-68.5592 135.926-75.4801Q134.093-82.401 129.108-87.3249ZM76.9318-70.5171Q80.8605-70.5171 83.4918-68.148Q86.1232-65.7788 86.1232-62.0473L86.1232-36.9133L85.1942-24.214L89.0837-30.2703L94.9648-37.0689Q97.0627-39.6548 100.675-39.6548Q104.091-39.6548 106.227-37.6075Q108.362-35.5602 108.362-32.3413Q108.362-29.0407 105.915-26.3405L84.517-3.50441Q81.4966-0.132258 76.9318-0.132258Q72.3902-0.132258 69.3672-3.50441L47.9523-26.3405Q45.526-29.0199 45.526-32.3413Q45.526-35.5602 47.6506-37.6075Q49.7751-39.6548 53.1912-39.6548Q56.8995-39.6548 58.9013-37.0689L64.8628-29.9783L68.69-24.236L67.7623-36.9133L67.7623-62.0473Q67.7623-65.7788 70.4242-68.148Q73.086-70.5171 76.9318-70.5171Z"/>
  </g>
  <g id="Heavy-L" transform="matrix(1 0 0 1 2560.66 1556)">
   <path d="M127.64-86.7642Q122.659-91.7071 115.795-93.4372Q108.931-95.1674 99.1202-95.1674L52.8724-95.1674Q43.1102-95.1674 36.23-93.4342Q29.3497-91.7011 24.4128-86.7581Q19.5057-81.851 17.7948-75.0586Q16.084-68.2662 16.084-58.4087L16.084-12.1372Q16.084-2.22539 17.7918 4.57303Q19.4996 11.3715 24.4068 16.3084Q29.3944 21.2155 36.2553 22.9636Q43.1163 24.7116 52.9327 24.7116L99.1202 24.7116Q108.931 24.7116 115.832 22.9636Q122.733 21.2155 127.64 16.3084Q132.553 11.3654 134.258 4.57001Q135.963-2.22539 135.963-12.1372L135.963-58.3247Q135.963-68.2602 134.258-75.0839Q132.553-81.9077 127.64-86.7642ZM76.0384-69.9564Q79.5323-69.9564 81.8445-67.8419Q84.1567-65.7275 84.1567-62.4033L84.1567-35.2491L83.3204-22.4007L87.8848-28.899L94.2766-36.0196Q96.1844-38.3142 99.4073-38.3142Q102.467-38.3142 104.403-36.4482Q106.339-34.5822 106.339-31.6925Q106.339-28.7164 104.169-26.3447L82.6803-3.77626Q79.9664-0.788559 76.0384-0.788559Q72.1522-0.788559 69.4262-3.77626L47.9258-26.3447Q45.7861-28.6867 45.7861-31.6925Q45.7861-34.5822 47.7041-36.4482Q49.6222-38.3142 52.6815-38.3142Q55.9639-38.3142 57.8122-36.0196L64.2844-28.6759L68.786-22.4365L67.9558-35.2491L67.9558-62.4033Q67.9558-65.7275 70.2964-67.8419Q72.6369-69.9564 76.0384-69.9564Z"/>
  </g>
  <g id="Bold-L" transform="matrix(1 0 0 1 2265.08 1556)">
   <path d="M125.794-86.0477Q120.961-90.8658 114.26-92.4545Q107.56-94.0433 98.2558-94.0433L51.4095-94.0433Q42.2193-94.0433 35.5183-92.4474Q28.8173-90.8516 24.0134-86.0334Q19.2464-81.2665 17.6652-74.642Q16.084-68.0175 16.084-58.7547L16.084-11.8856Q16.084-2.49478 17.6581 4.14393Q19.2322 10.7826 23.9992 15.5866Q28.8465 20.3535 35.54 21.9679Q42.2336 23.5822 51.5518 23.5822L98.2558 23.5822Q107.56 23.5822 114.294 21.9679Q121.027 20.3535 125.794 15.5866Q130.575 10.7684 132.142 4.13681Q133.709-2.49478 133.709-11.8856L133.709-58.5897Q133.709-68.0033 132.142-74.6637Q130.575-81.3241 125.794-86.0477ZM74.9152-69.2399Q77.868-69.2399 79.7844-67.4478Q81.7008-65.6557 81.7008-62.8417L81.7008-32.8549L80.9825-20.0585L86.3766-27.0685L93.5239-34.7278Q95.1874-36.6619 97.9145-36.6619Q100.517-36.6619 102.192-35.0376Q103.868-33.4132 103.868-30.9495Q103.868-28.3912 102.043-26.4271L80.3897-4.09476Q78.079-1.59468 74.9152-1.59468Q71.8168-1.59468 69.4777-4.09476L47.83-26.4271Q46.0424-28.3542 46.0424-30.9495Q46.0424-33.4132 47.6921-35.0376Q49.3418-36.6619 51.9443-36.6619Q54.6928-36.6619 56.3349-34.7278L63.5626-26.9225L68.8848-20.1097L68.1808-32.8549L68.1808-62.8417Q68.1808-65.6557 70.126-67.4478Q72.0713-69.2399 74.9152-69.2399Z"/>
  </g>
  <g id="Semibold-L" transform="matrix(1 0 0 1 1969.14 1556)">
   <path d="M124.522-85.5537Q119.791-90.2859 113.203-91.7771Q106.615-93.2683 97.6599-93.2683L50.4011-93.2683Q41.6052-93.2683 35.0277-91.7671Q28.4503-90.266 23.738-85.5338Q19.0677-80.8635 17.5758-74.3548Q16.084-67.8461 16.084-58.9932L16.084-11.7122Q16.084-2.68049 17.5659 3.84811Q19.0478 10.3767 23.7181 15.089Q28.4689 19.7593 35.0469 21.2814Q41.625 22.8035 50.5998 22.8035L97.6599 22.8035Q106.615 22.8035 113.233 21.2814Q119.851 19.7593 124.522 15.089Q129.212 10.3568 130.684 3.83817Q132.156-2.68049 132.156-11.7122L132.156-58.7724Q132.156-67.8262 130.684-74.374Q129.212-80.9219 124.522-85.5537ZM74.1409-68.746Q76.7207-68.746 78.3642-67.1761Q80.0077-65.6062 80.0077-63.144L80.0077-31.2044L79.3708-18.4438L85.3369-25.8066L93.005-33.8372Q94.5001-35.5229 96.8854-35.5229Q99.1731-35.5229 100.669-34.0651Q102.164-32.6073 102.164-30.4373Q102.164-28.1669 100.578-26.4839L78.8105-4.31434Q76.7779-2.15041 74.1409-2.15041Q71.5856-2.15041 69.5133-4.31434L47.7639-26.4839Q46.2192-28.125 46.2192-30.4373Q46.2192-32.6073 47.6838-34.0651Q49.1485-35.5229 51.4361-35.5229Q53.8166-35.5229 55.3165-33.8372L63.065-25.7137L68.9529-18.5057L68.3359-31.2044L68.3359-63.144Q68.3359-65.6062 70.0086-67.1761Q71.6813-68.746 74.1409-68.746Z"/>
  </g>
  <g id="Medium-L" transform="matrix(1 0 0 1 1673.02 1556)">
   <path d="M123.557-85.1792Q118.903-89.8461 112.401-91.2634Q105.898-92.6807 97.208-92.6807L49.6364-92.6807Q41.1395-92.6807 34.6557-91.2513Q28.172-89.822 23.5292-85.155Q18.9322-80.558 17.5081-74.1371Q16.084-67.7161 16.084-59.174L16.084-11.5808Q16.084-2.82131 17.496 3.6238Q18.908 10.0689 23.5051 14.7117Q28.1825 19.3087 34.6731 20.7609Q41.1636 22.2132 49.8779 22.2132L97.208 22.2132Q105.898 22.2132 112.429 20.7609Q118.96 19.3087 123.557 14.7117Q128.178 10.0448 129.578 3.61173Q130.978-2.82131 130.978-11.5808L130.978-58.9109Q130.978-67.692 129.578-74.1544Q128.178-80.6168 123.557-85.1792ZM73.5538-68.3714Q75.8507-68.3714 77.2873-66.9701Q78.7239-65.5687 78.7239-63.3732L78.7239-29.9529L78.1488-17.2195L84.5486-24.8497L92.6116-33.162Q93.979-34.6592 96.1051-34.6592Q98.154-34.6592 99.5133-33.3278Q100.873-31.9963 100.873-30.0489Q100.873-27.9969 99.4663-26.5269L77.6131-4.48083Q75.7913-2.57179 73.5538-2.57179Q71.4103-2.57179 69.5402-4.48083L47.7137-26.5269Q46.3532-27.9512 46.3532-30.0489Q46.3532-31.9963 47.6775-33.3278Q49.0019-34.6592 51.0507-34.6592Q53.1521-34.6592 54.5443-33.162L62.6877-24.7972L69.0046-17.2894L68.4536-29.9529L68.4536-63.3732Q68.4536-65.5687 69.9196-66.9701Q71.3856-68.3714 73.5538-68.3714Z"/>
  </g>
  <g id="Regular-L" transform="matrix(1 0 0 1 1377.08 1556)">
   <path d="M122.298-84.6907Q117.746-89.2725 111.355-90.5934Q104.963-91.9142 96.6187-91.9142L48.639-91.9142Q40.5321-91.9142 34.1705-90.5785Q27.809-89.2428 23.2569-84.6609Q18.7554-80.1595 17.4197-73.853Q16.084-67.5466 16.084-59.4099L16.084-11.4093Q16.084-3.00498 17.4048 3.33123Q18.7257 9.66744 23.2271 14.2195Q27.809 18.721 34.1854 20.082Q40.5618 21.4431 48.9364 21.4431L96.6187 21.4431Q104.963 21.4431 111.38 20.082Q117.797 18.721 122.298 14.2195Q126.829 9.6377 128.135 3.31636Q129.441-3.00498 129.441-11.4093L129.441-59.0916Q129.441-67.5168 128.135-73.8679Q126.829-80.219 122.298-84.6907ZM72.788-67.8829Q74.716-67.8829 75.8827-66.7013Q77.0494-65.5197 77.0494-63.6722L77.0494-28.3205L76.5547-15.6225L83.5203-23.6017L92.0984-32.2812Q93.2993-33.5327 95.0873-33.5327Q96.8247-33.5327 98.0063-32.366Q99.1879-31.1993 99.1879-29.5423Q99.1879-27.7752 98.0168-26.5831L76.0513-4.69798Q74.5045-3.12142 72.788-3.12142Q71.1817-3.12142 69.5754-4.69798L47.6484-26.5831Q46.528-27.7245 46.528-29.5423Q46.528-31.1993 47.6693-32.366Q48.8107-33.5327 50.5481-33.5327Q52.2855-33.5327 53.5371-32.2812L62.1956-23.6017L69.0719-15.703L68.607-28.3205L68.607-63.6722Q68.607-65.5197 69.8034-66.7013Q70.9999-67.8829 72.788-67.8829Z"/>
  </g>
  <g id="Light-L" transform="matrix(1 0 0 1 1081.23 1556)">
   <path d="M120.841-84.0545Q116.699-88.2464 110.698-89.6186Q104.697-90.9907 95.9209-90.9907L47.4077-90.9907Q39.034-90.9907 33.0828-89.5935Q27.1317-88.1962 22.9901-84.0042Q18.8786-79.8927 17.4813-74.007Q16.084-68.1212 16.084-59.6972L16.084-11.2041Q16.084-2.32775 17.4561 3.60828Q18.8283 9.54431 22.9398 13.686Q27.1317 17.7975 33.108 19.2098Q39.0842 20.6222 47.9103 20.6222L95.9209 20.6222Q104.697 20.6222 110.713 19.2098Q116.73 17.7975 120.841 13.686Q125.003 9.49405 126.35 3.58315Q127.697-2.32775 127.697-11.2041L127.697-59.2147Q127.697-68.0709 126.35-74.0321Q125.003-79.9933 120.841-84.0545ZM71.9055-67.2467Q73.4436-67.2467 74.3333-66.3319Q75.223-65.4171 75.223-63.9595L75.223-24.5239L74.8309-13.3856L82.33-21.4879L92.2215-31.4398Q93.1966-32.4451 94.5538-32.4451Q95.8807-32.4451 96.7955-31.5554Q97.7103-30.6657 97.7103-29.4192Q97.7103-28.0419 96.7855-27.1372L74.3685-4.80059Q73.2526-3.63447 71.9055-3.63447Q70.6892-3.63447 69.4728-4.80059L47.1764-27.1372Q46.2817-28.0118 46.2817-29.4192Q46.2817-30.6657 47.1563-31.5554Q48.0309-32.4451 49.3578-32.4451Q50.6848-32.4451 51.6901-31.4398L61.662-21.4879L69.0104-13.4661L68.6686-24.5239L68.6686-63.9595Q68.6686-65.4171 69.6085-66.3319Q70.5484-67.2467 71.9055-67.2467Z"/>
  </g>
  <g id="Thin-L" transform="matrix(1 0 0 1 785.671 1556)">
   <path d="M118.914-83.2131Q115.315-86.8893 109.83-88.3293Q104.344-89.7694 94.9981-89.7694L45.7791-89.7694Q37.0526-89.7694 31.6443-88.2906Q26.236-86.8119 22.6372-83.1357Q19.0414-79.5399 17.5627-74.2105Q16.084-68.8812 16.084-60.0772L16.084-10.9326Q16.084-1.43207 17.524 3.97469Q18.964 9.38146 22.5598 12.9803Q26.236 16.5761 31.683 18.0563Q37.13 19.5365 46.5532 19.5365L94.9981 19.5365Q104.344 19.5365 109.831 18.0563Q115.318 16.5761 118.914 12.9803Q122.587 9.30406 123.989 3.93599Q125.39-1.43207 125.39-10.9326L125.39-59.3776Q125.39-68.8038 123.989-74.2492Q122.587-79.6947 118.914-83.2131ZM70.7384-66.4053Q71.7608-66.4053 72.2841-65.8434Q72.8073-65.2814 72.8073-64.3395L72.8073-19.5027L72.551-10.4272L80.7558-18.6923L92.3844-30.327Q93.0609-31.0065 93.8481-31.0065Q94.6322-31.0065 95.1942-30.4833Q95.7561-29.96 95.7561-29.2563Q95.7561-28.3948 95.157-27.87L72.1428-4.9363Q71.597-4.31302 70.7384-4.31302Q70.0377-4.31302 69.3371-4.9363L46.5521-27.87Q45.956-28.3918 45.956-29.2563Q45.956-29.96 46.4777-30.4833Q46.9995-31.0065 47.7836-31.0065Q48.5677-31.0065 49.2473-30.327L60.9563-18.6923L68.9289-10.5076L68.75-19.5027L68.75-64.3395Q68.75-65.2814 69.3506-65.8434Q69.9513-66.4053 70.7384-66.4053Z"/>
  </g>
  <g id="Ultralight-L" transform="matrix(1 0 0 1 489.548 1556)">
   <path d="M117.927-82.7821Q114.606-86.1942 109.385-87.669Q104.163-89.1438 94.5254-89.1438L44.945-89.1438Q36.0378-89.1438 30.9075-87.6233Q25.7773-86.1029 22.4565-82.6908Q19.1248-79.3592 17.6044-74.3148Q16.084-69.2704 16.084-60.2718L16.084-10.7936Q16.084-0.973305 17.5588 4.16237Q19.0335 9.29805 22.3652 12.6188Q25.7773 15.9505 30.9532 17.4655Q36.1291 18.9805 45.8581 18.9805L94.5254 18.9805Q104.163 18.9805 109.379 17.4655Q114.595 15.9505 117.927 12.6188Q121.35 9.20674 122.779 4.11672Q124.208-0.973305 124.208-10.7936L124.208-59.461Q124.208-69.1791 122.779-74.3604Q121.35-79.5418 117.927-82.7821ZM70.1407-65.9744Q70.8989-65.9744 71.2345-65.5931Q71.57-65.2119 71.57-64.5341L71.57-16.9308L71.3832-8.91185L79.9495-17.2604L92.4678-29.757Q92.9914-30.2697 93.4866-30.2697Q93.9927-30.2697 94.3739-29.9341Q94.7552-29.5986 94.7552-29.1729Q94.7552-28.5755 94.3229-28.2454L71.0029-5.00581Q70.7489-4.66057 70.1407-4.66057Q69.7041-4.66057 69.2675-5.00581L46.2324-28.2454Q45.7892-28.5864 45.7892-29.1729Q45.7892-29.5986 46.1302-29.9341Q46.4712-30.2697 46.9773-30.2697Q47.4834-30.2697 47.9961-29.757L60.5949-17.2604L68.8872-8.99227L68.7917-16.9308L68.7917-64.5341Q68.7917-65.2119 69.2186-65.5931Q69.6455-65.9744 70.1407-65.9744Z"/>
  </g>
  <g id="Black-M" transform="matrix(1 0 0 1 2873.15 1126)">
   <path d="M101.089-75.9857Q97.1524-79.8648 91.7287-81.4293Q86.305-82.9937 77.8179-82.9937L42.6804-82.9937Q34.1908-82.9937 28.7383-81.4294Q23.2858-79.8651 19.4064-75.986Q15.5325-72.1121 13.9967-66.7477Q12.4609-61.3832 12.4609-52.7798L12.4609-17.6365Q12.4609-9.03579 13.9969-3.67165Q15.5328 1.69248 19.4067 5.57188Q23.3429 9.44576 28.7667 11.0128Q34.1905 12.5799 42.6773 12.5799L77.8179 12.5799Q86.305 12.5799 91.76 11.0128Q97.215 9.44576 101.089 5.57188Q104.962 1.69279 106.499-3.6715Q108.035-9.03579 108.035-17.6365L108.035-52.777Q108.035-61.3835 106.499-66.7761Q104.962-72.1686 101.089-75.9857ZM60.2505-62.964Q63.6152-62.964 65.8905-60.9458Q68.1658-58.9275 68.1658-55.7394L68.1658-37.45L67.3804-27.9507L69.8861-32.2796L74.1814-37.4424Q75.9395-39.6628 79.0141-39.6628Q81.9119-39.6628 83.7017-37.9584Q85.4916-36.254 85.4916-33.5328Q85.4916-30.7495 83.3906-28.4143L66.8295-10.431Q64.2844-7.54366 60.2505-7.54366Q56.2216-7.54366 53.6771-10.431L37.1095-28.4143Q35.0141-30.744 35.0141-33.5328Q35.0141-36.254 36.8013-37.9584Q38.5886-39.6628 41.4863-39.6628Q44.6696-39.6628 46.319-37.4424L50.6767-31.9941L53.1262-27.9559L52.3404-37.45L52.3404-55.7394Q52.3404-58.9275 54.644-60.9458Q56.9476-62.964 60.2505-62.964Z"/>
  </g>
  <g id="Heavy-M" transform="matrix(1 0 0 1 2577.24 1126)">
   <path d="M99.7887-75.4962Q95.8938-79.35 90.529-80.7799Q85.1643-82.2098 77.2124-82.2098L41.6665-82.2098Q33.7341-82.2098 28.35-80.7787Q22.966-79.3476 19.1146-75.4938Q15.2795-71.6587 13.8702-66.3506Q12.4609-61.0425 12.4609-53.0204L12.4609-17.4608Q12.4609-9.41668 13.869-4.10615Q15.277 1.20437 19.1122 5.05573Q23.0096 8.89085 28.3731 10.3301Q33.7366 11.7693 41.691 11.7693L77.2124 11.7693Q85.1643 11.7693 90.559 10.3301Q95.9536 8.89085 99.7887 5.05573Q103.626 1.20193 105.033-4.10738Q106.44-9.41668 106.44-17.4608L106.44-52.9822Q106.44-61.0401 105.033-66.3736Q103.626-71.7072 99.7887-75.4962ZM59.4586-62.4746Q62.4341-62.4746 64.423-60.6807Q66.412-58.8868 66.412-56.0609L66.412-36.1733L65.7076-26.3844L68.8238-31.134L73.4973-36.4942Q75.0904-38.4526 77.8242-38.4526Q80.411-38.4526 82.0303-36.8998Q83.6497-35.3471 83.6497-32.9099Q83.6497-30.408 81.7973-28.3673L65.1892-10.6873Q62.904-8.13791 59.4586-8.13791Q56.0343-8.13791 53.7442-10.6873L37.1272-28.3673Q35.291-30.3917 35.291-32.9099Q35.291-35.3471 36.901-36.8998Q38.5111-38.4526 41.0978-38.4526Q43.9027-38.4526 45.4248-36.4942L50.1605-30.9159L53.2257-26.4031L52.5238-36.1733L52.5238-56.0609Q52.5238-58.8868 54.537-60.6807Q56.5502-62.4746 59.4586-62.4746Z"/>
  </g>
  <g id="Bold-M" transform="matrix(1 0 0 1 2281.42 1126)">
   <path d="M98.3343-74.9487Q94.4858-78.7742 89.1871-80.0535Q83.8883-81.3328 76.535-81.3328L40.5323-81.3328Q33.2232-81.3328 27.9157-80.0507Q22.6082-78.7687 18.7882-74.9432Q14.9965-71.1514 13.7287-65.9064Q12.4609-60.6613 12.4609-53.2896L12.4609-17.2642Q12.4609-9.84276 13.7259-4.59221Q14.9909 0.658349 18.7827 4.47834Q22.6368 8.2701 27.9328 9.56626Q33.2287 10.8624 40.5876 10.8624L76.535 10.8624Q83.8883 10.8624 89.2155 9.56626Q94.5426 8.2701 98.3343 4.47834Q102.132 0.652828 103.394-4.59497Q104.656-9.84276 104.656-17.2642L104.656-53.2117Q104.656-60.6558 103.394-65.9234Q102.132-71.191 98.3343-74.9487ZM58.5726-61.927Q61.1129-61.927 62.7815-60.3842Q64.45-58.8413 64.45-56.4205L64.45-34.7451L63.8364-24.6323L67.6355-29.8525L72.7319-35.4336Q74.1404-37.0988 76.4932-37.0988Q78.732-37.0988 80.1607-35.7157Q81.5893-34.3326 81.5893-32.2132Q81.5893-30.0259 80.015-28.3147L63.3543-10.974Q61.3597-8.80266 58.5726-8.80266Q55.8248-8.80266 53.8193-10.974L37.1469-28.3147Q35.6008-29.9977 35.6008-32.2132Q35.6008-34.3326 37.0126-35.7157Q38.4243-37.0988 40.6632-37.0988Q43.0448-37.0988 44.4244-35.4336L49.5831-29.7098L53.3371-24.666L52.729-34.7451L52.729-56.4205Q52.729-58.8413 54.4174-60.3842Q56.1057-61.927 58.5726-61.927Z"/>
  </g>
  <g id="Semibold-M" transform="matrix(1 0 0 1 1985.32 1126)">
   <path d="M97.3317-74.5712Q93.5152-78.3772 88.2619-79.5527Q83.0087-80.7282 76.0681-80.7282L39.7505-80.7282Q32.871-80.7282 27.6163-79.5489Q22.3616-78.3696 18.5632-74.5636Q14.8014-70.8017 13.6311-65.6001Q12.4609-60.3986 12.4609-53.4751L12.4609-17.1287Q12.4609-10.1365 13.6273-4.92729Q14.7937 0.281923 18.5556 4.0803Q22.3798 7.84216 27.6292 9.0397Q32.8786 10.2372 39.8269 10.2372L76.0681 10.2372Q83.0087 10.2372 88.2892 9.0397Q93.5698 7.84216 97.3317 4.0803Q101.101 0.274283 102.264-4.93111Q103.426-10.1365 103.426-17.1287L103.426-53.3699Q103.426-60.3909 102.264-65.613Q101.101-70.8351 97.3317-74.5712ZM57.9619-61.5495Q60.2021-61.5495 61.6498-60.1797Q63.0975-58.8099 63.0975-56.6684L63.0975-33.7606L62.5464-23.4244L66.8163-28.9691L72.2042-34.7024Q73.4856-36.1655 75.5755-36.1655Q77.5745-36.1655 78.8717-34.8993Q80.1689-33.6332 80.1689-31.7328Q80.1689-29.7625 78.7863-28.2784L62.0893-11.1716Q60.2952-9.26094 57.9619-9.26094Q55.6804-9.26094 53.871-11.1716L37.1604-28.2784Q35.8143-29.726 35.8143-31.7328Q35.8143-33.6332 37.0894-34.8993Q38.3646-36.1655 40.3635-36.1655Q42.4533-36.1655 43.7348-34.7024L49.1851-28.8783L53.4139-23.4685L52.8705-33.7606L52.8705-56.6684Q52.8705-58.8099 54.3349-60.1797Q55.7993-61.5495 57.9619-61.5495Z"/>
  </g>
  <g id="Medium-M" transform="matrix(1 0 0 1 1689.08 1126)">
   <path d="M96.5715-74.285Q92.7792-78.0762 87.5604-79.173Q82.3417-80.2697 75.714-80.2697L39.1576-80.2697Q32.6039-80.2697 27.3893-79.1684Q22.1746-78.067 18.3926-74.2758Q14.6534-70.5366 13.5572-65.3679Q12.4609-60.1993 12.4609-53.6158L12.4609-17.0259Q12.4609-10.3592 13.5526-5.18136Q14.6442-0.00349793 18.3834 3.77848Q22.1849 7.51768 27.399 8.64045Q32.6132 9.76322 39.2501 9.76322L75.714 9.76322Q82.3417 9.76322 87.587 8.64045Q92.8323 7.51768 96.5715 3.77848Q100.32-0.0127463 101.407-5.18598Q102.494-10.3592 102.494-17.0259L102.494-53.4898Q102.494-60.1901 101.407-65.3777Q100.32-70.5653 96.5715-74.285ZM57.4988-61.2633Q59.5115-61.2633 60.7917-60.0247Q62.0719-58.7861 62.0719-56.8563L62.0719-33.014L61.5683-22.5085L66.1951-28.2992L71.8042-34.148Q72.989-35.4578 74.8797-35.4578Q76.6969-35.4578 77.8944-34.2803Q79.0919-33.1029 79.0919-31.3686Q79.0919-29.5628 77.8546-28.2509L61.1301-11.3215Q59.488-9.60842 57.4988-9.60842Q55.5709-9.60842 53.9103-11.3215L37.1707-28.2509Q35.9763-29.52 35.9763-31.3686Q35.9763-33.1029 37.1477-34.2803Q38.3192-35.4578 40.1364-35.4578Q42.0049-35.4578 43.2119-34.148L48.8833-28.2478L53.4721-22.5605L52.9777-33.014L52.9777-56.8563Q52.9777-58.7861 54.2723-60.0247Q55.5669-61.2633 57.4988-61.2633Z"/>
  </g>
  <g id="Regular-M" transform="matrix(1 0 0 1 1392.97 1126)">
   <path d="M95.5798-73.9117Q91.8192-77.6836 86.6454-78.6777Q81.4717-79.6718 75.2522-79.6718L38.3843-79.6718Q32.2556-79.6718 27.0931-78.672Q21.9307-77.6723 18.1701-73.9003Q14.4605-70.1907 13.4607-65.0651Q12.4609-59.9394 12.4609-53.7994L12.4609-16.8919Q12.4609-10.6497 13.455-5.51276Q14.4491-0.375787 18.1587 3.38481Q21.9307 7.09444 27.0988 8.11968Q32.2669 9.14492 38.4978 9.14492L75.2522 9.14492Q81.4717 9.14492 86.6709 8.11968Q91.8702 7.09444 95.5798 3.38481Q99.3008-0.387132 100.289-5.51843Q101.278-10.6497 101.278-16.8919L101.278-53.6463Q101.278-59.9281 100.289-65.0707Q99.3008-70.2134 95.5798-73.9117ZM56.8948-60.89Q58.6107-60.89 59.6724-59.8225Q60.7342-58.7551 60.7342-57.1015L60.7342-32.0403L60.2925-21.3139L65.3849-27.4255L71.2823-33.4248Q72.3413-34.5347 73.9722-34.5347Q75.5521-34.5347 76.6196-33.473Q77.687-32.4112 77.687-30.8935Q77.687-29.3023 76.6394-28.215L59.8791-11.517Q58.4351-10.0617 56.8948-10.0617Q55.4281-10.0617 53.9614-11.517L37.1842-28.215Q36.1875-29.2513 36.1875-30.8935Q36.1875-32.4112 37.2238-33.473Q38.2601-34.5347 39.84-34.5347Q41.42-34.5347 42.5299-33.4248L48.4896-27.4255L53.548-21.3762L53.1176-32.0403L53.1176-57.1015Q53.1176-58.7551 54.1908-59.8225Q55.2639-60.89 56.8948-60.89Z"/>
  </g>
  <g id="Light-M" transform="matrix(1 0 0 1 1097.04 1126)">
   <path d="M94.2735-73.3413Q90.8809-76.7637 86.0567-77.8037Q81.2325-78.8438 74.6266-78.8438L37.2804-78.8438Q30.9125-78.8438 26.118-77.7889Q21.3235-76.7339 17.9309-73.3116Q14.5708-69.9515 13.5159-65.2031Q12.4609-60.4546 12.4609-54.0569L12.4609-16.7079Q12.4609-10.0426 13.501-5.26437Q14.5411-0.486181 17.9012 2.90643Q21.3235 6.26649 26.1329 7.33772Q30.9422 8.40896 37.5778 8.40896L74.6266 8.40896Q81.2325 8.40896 86.073 7.33772Q90.9135 6.26649 94.2735 2.90643Q97.6633-0.515925 98.6885-5.27924Q99.7137-10.0426 99.7137-16.7079L99.7137-53.7567Q99.7137-60.4249 98.6885-65.2179Q97.6633-70.011 94.2735-73.3413ZM56.1036-60.3196Q57.4699-60.3196 58.2833-59.4914Q59.0967-58.6631 59.0967-57.3591L59.0967-28.6365L58.747-19.3084L64.3178-25.5304L71.3927-32.6704Q72.2493-33.5596 73.4938-33.5596Q74.7058-33.5596 75.5341-32.7462Q76.3623-31.9328 76.3623-30.7832Q76.3623-29.5415 75.5355-28.7118L58.3703-11.609Q57.3127-10.5216 56.1036-10.5216Q54.9865-10.5216 53.8694-11.609L36.761-28.7118Q35.9667-29.5089 35.9667-30.7832Q35.9667-31.9328 36.7638-32.7462Q37.5609-33.5596 38.7729-33.5596Q39.9848-33.5596 40.874-32.6704L48.0112-25.5304L53.4928-19.3707L53.1728-28.6365L53.1728-57.3591Q53.1728-58.6631 54.016-59.4914Q54.8591-60.3196 56.1036-60.3196Z"/>
  </g>
  <g id="Thin-M" transform="matrix(1 0 0 1 801.359 1126)">
   <path d="M92.5458-72.5869Q89.6399-75.547 85.278-76.6479Q80.9161-77.7488 73.7992-77.7488L35.8203-77.7488Q29.1361-77.7488 24.8283-76.6208Q20.5205-75.4929 17.6146-72.5329Q14.7169-69.6352 13.5889-65.3856Q12.4609-61.136 12.4609-54.3976L12.4609-16.4646Q12.4609-9.23953 13.5619-4.93586Q14.6628-0.632186 17.5605 2.27375Q20.5205 5.17145 24.8553 6.30352Q29.1901 7.43559 36.3611 7.43559L73.7992 7.43559Q80.9161 7.43559 85.2821 6.30352Q89.6481 5.17145 92.5458 2.27375Q95.4976-0.686264 96.5714-4.9629Q97.6453-9.23953 97.6453-16.4646L97.6453-53.9027Q97.6453-61.0819 96.5714-65.4126Q95.4976-69.7433 92.5458-72.5869ZM55.0572-59.5653Q55.9612-59.5653 56.4461-59.0533Q56.931-58.5414 56.931-57.6998L56.931-24.1346L56.7029-16.6559L62.9064-23.024L71.5387-31.6727Q72.1277-32.2699 72.8611-32.2699Q73.5864-32.2699 74.0983-31.785Q74.6103-31.3001 74.6103-30.6372Q74.6103-29.8578 74.0754-29.3688L56.3749-11.7306Q55.8284-11.13 55.0572-11.13Q54.4025-11.13 53.7478-11.7306L36.2013-29.3688Q35.6747-29.8496 35.6747-30.6372Q35.6747-31.3001 36.1555-31.785Q36.6362-32.2699 37.3615-32.2699Q38.0868-32.2699 38.6839-31.6727L47.3785-23.024L53.4198-16.7182L53.2458-24.1346L53.2458-57.6998Q53.2458-58.5414 53.7848-59.0533Q54.3238-59.5653 55.0572-59.5653Z"/>
  </g>
  <g id="Ultralight-M" transform="matrix(1 0 0 1 505.175 1126)">
   <path d="M91.6608-72.2006Q89.0042-74.9238 84.8791-76.0558Q80.7541-77.1879 73.3755-77.1879L35.0725-77.1879Q28.2262-77.1879 24.1677-76.0226Q20.1092-74.8572 17.4525-72.134Q14.7916-69.4731 13.6263-65.479Q12.4609-61.485 12.4609-54.5721L12.4609-16.3399Q12.4609-8.82823 13.593-4.7676Q14.7251-0.706969 17.386 1.94969Q20.1092 4.61058 24.201 5.77381Q28.2927 6.93704 35.7379 6.93704L73.3755 6.93704Q80.7541 6.93704 84.877 5.77381Q89 4.61058 91.6608 1.94969Q94.3883-0.773511 95.4871-4.80087Q96.5859-8.82823 96.5859-16.3399L96.5859-53.9775Q96.5859-61.4184 95.4871-65.5123Q94.3883-69.6062 91.6608-72.2006ZM54.5213-59.1789Q55.1884-59.1789 55.5051-58.829Q55.8217-58.4791 55.8217-57.8743L55.8217-21.8288L55.656-15.2974L62.1835-21.7402L71.6135-31.1617Q72.0653-31.6093 72.5371-31.6093Q73.0131-31.6093 73.363-31.2927Q73.7129-30.9761 73.7129-30.5624Q73.7129-30.0198 73.3276-29.7053L55.3529-11.793Q55.0681-11.4416 54.5213-11.4416Q54.1034-11.4416 53.6855-11.793L35.9146-29.7053Q35.5251-30.0241 35.5251-30.5624Q35.5251-30.9761 35.8439-31.2927Q36.1626-31.6093 36.6386-31.6093Q37.1146-31.6093 37.5622-31.1617L47.0545-21.7402L53.3824-15.3597L53.2832-21.8288L53.2832-57.8743Q53.2832-58.4791 53.6664-58.829Q54.0495-59.1789 54.5213-59.1789Z"/>
  </g>
  <g id="Black-S" transform="matrix(1 0 0 1 2885.99 696)">
   <path d="M79.541-67.2852Q76.4648-70.3125 72.2168-71.582Q67.9688-72.8516 61.1328-72.8516L33.6914-72.8516Q26.8555-72.8516 22.583-71.582Q18.3105-70.3125 15.2832-67.2852Q12.2559-64.2578 11.0107-60.0586Q9.76562-55.8594 9.76562-48.9258L9.76562-21.4844Q9.76562-14.5508 11.0107-10.3516Q12.2559-6.15234 15.2832-3.125Q18.3594-0.0976562 22.6074 1.17188Q26.8555 2.44141 33.6914 2.44141L61.1328 2.44141Q67.9688 2.44141 72.2412 1.17188Q76.5137-0.0976562 79.541-3.125Q82.5684-6.15234 83.8135-10.3516Q85.0586-14.5508 85.0586-21.4844L85.0586-48.9258Q85.0586-55.8594 83.8135-60.083Q82.5684-64.3066 79.541-67.2852ZM47.4121-57.0801Q50.1465-57.0801 52.002-55.4443Q53.8574-53.8086 53.8574-51.2207L53.8574-37.1582L53.2227-29.8828L55.0293-33.1543L58.3496-37.207Q59.7656-39.0137 62.2559-39.0137Q64.5996-39.0137 66.04-37.6465Q67.4805-36.2793 67.4805-34.082Q67.4805-31.8359 65.7715-29.9316L52.7832-15.7227Q50.7324-13.3789 47.4121-13.3789Q44.0918-13.3789 42.041-15.7227L29.0527-29.9316Q27.3438-31.8359 27.3438-34.082Q27.3438-36.2793 28.7842-37.6465Q30.2246-39.0137 32.5684-39.0137Q35.1562-39.0137 36.4746-37.207L39.8438-32.9102L41.6016-29.8828L40.9668-37.1582L40.9668-51.2207Q40.9668-53.8086 42.8467-55.4443Q44.7266-57.0801 47.4121-57.0801Z"/>
  </g>
  <g id="Heavy-S" transform="matrix(1 0 0 1 2589.86 696)">
   <path d="M78.596-66.9394Q75.5083-69.9898 71.266-71.1383Q67.0237-72.2869 60.6949-72.2869L32.9654-72.2869Q26.6365-72.2869 22.3756-71.1383Q18.1146-69.9898 15.0642-66.9394Q12.0254-63.9006 10.8955-59.7013Q9.76562-55.5021 9.76562-49.0986L9.76562-21.3576Q9.76562-14.9541 10.8955-10.7549Q12.0254-6.5557 15.0642-3.50531Q18.1519-0.466439 22.3942 0.687847Q26.6365 1.84213 32.9654 1.84213L60.6949 1.84213Q67.0237 1.84213 71.2904 0.687847Q75.5571-0.466439 78.596-3.50531Q81.6349-6.5557 82.7648-10.7549Q83.8946-14.9541 83.8946-21.3576L83.8946-49.0871Q83.8946-55.5021 82.7648-59.72Q81.6349-63.9379 78.596-66.9394ZM46.8359-56.7343Q49.2821-56.7343 50.9244-55.2599Q52.5667-53.7855 52.5667-51.4627L52.5667-36.5013L51.9895-28.7995L54.2572-32.4167L57.7503-36.4925Q59.0511-38.1032 61.2993-38.1032Q63.4241-38.1032 64.7493-36.834Q66.0745-35.5648 66.0745-33.5634Q66.0745-31.5133 64.5499-29.8279L51.5731-15.9301Q49.6952-13.8284 46.8359-13.8284Q43.9881-13.8284 42.1102-15.9301L29.1219-29.8279Q27.6088-31.5017 27.6088-33.5634Q27.6088-35.5648 28.9282-36.834Q30.2477-38.1032 32.3724-38.1032Q34.6837-38.1032 35.9214-36.4925L39.4634-32.2302L41.6938-28.811L41.1166-36.5013L41.1166-51.4627Q41.1166-53.7855 42.7775-55.2599Q44.4385-56.7343 46.8359-56.7343Z"/>
  </g>
  <g id="Bold-S" transform="matrix(1 0 0 1 2293.8 696)">
   <path d="M77.5391-66.5527Q74.4385-69.6289 70.2026-70.6421Q65.9668-71.6553 60.2051-71.6553L32.1533-71.6553Q26.3916-71.6553 22.1436-70.6421Q17.8955-69.6289 14.8193-66.5527Q11.7676-63.501 10.7666-59.3018Q9.76562-55.1025 9.76562-49.292L9.76562-21.2158Q9.76562-15.4053 10.7666-11.2061Q11.7676-7.00684 14.8193-3.93066Q17.9199-0.878906 22.1558 0.146484Q26.3916 1.17188 32.1533 1.17188L60.2051 1.17188Q65.9668 1.17188 70.2271 0.146484Q74.4873-0.878906 77.5391-3.93066Q80.5908-7.00684 81.5918-11.2061Q82.5928-15.4053 82.5928-21.2158L82.5928-49.2676Q82.5928-55.1025 81.5918-59.314Q80.5908-63.5254 77.5391-66.5527ZM46.1914-56.3477Q48.3154-56.3477 49.7192-55.0537Q51.123-53.7598 51.123-51.7334L51.123-35.7666L50.6104-27.5879L53.3936-31.5918L57.0801-35.6934Q58.252-37.085 60.2295-37.085Q62.1094-37.085 63.3057-35.9253Q64.502-34.7656 64.502-32.9834Q64.502-31.1523 63.1836-29.7119L50.2197-16.1621Q48.5352-14.3311 46.1914-14.3311Q43.8721-14.3311 42.1875-16.1621L29.1992-29.7119Q27.9053-31.1279 27.9053-32.9834Q27.9053-34.7656 29.0894-35.9253Q30.2734-37.085 32.1533-37.085Q34.1553-37.085 35.3027-35.6934L39.0381-31.4697L41.7969-27.6123L41.2842-35.7666L41.2842-51.7334Q41.2842-53.7598 42.7002-55.0537Q44.1162-56.3477 46.1914-56.3477Z"/>
  </g>
  <g id="Semibold-S" transform="matrix(1 0 0 1 1997.54 696)">
   <path d="M76.8104-66.2861Q73.7009-69.3801 69.4695-70.3Q65.2381-71.2198 59.8674-71.2198L31.5935-71.2198Q26.2228-71.2198 21.9836-70.3Q17.7444-69.3801 14.6505-66.2861Q11.5898-63.2255 10.6777-59.0263Q9.76562-54.8271 9.76562-49.4253L9.76562-21.1181Q9.76562-15.7163 10.6777-11.5171Q11.5898-7.31787 14.6505-4.22393Q17.76-1.16328 21.9914-0.226758Q26.2228 0.709766 31.5935 0.709766L59.8674 0.709766Q65.2381 0.709766 69.4939-0.226758Q73.7497-1.16328 76.8104-4.22393Q79.871-7.31787 80.7831-11.5171Q81.6952-15.7163 81.6952-21.1181L81.6952-49.392Q81.6952-54.8271 80.7831-59.034Q79.871-63.241 76.8104-66.2861ZM45.7471-56.0811Q47.6489-56.0811 48.8883-54.9115Q50.1277-53.742 50.1277-51.92L50.1277-35.2601L49.6595-26.7525L52.7981-31.023L56.618-35.1424Q57.701-36.3829 59.4919-36.3829Q61.2029-36.3829 62.3104-35.2988Q63.4178-34.2146 63.4178-32.5835Q63.4178-30.9035 62.2416-29.6319L49.2866-16.3221Q47.7354-14.6776 45.7471-14.6776Q43.7921-14.6776 42.2408-16.3221L29.2525-29.6319Q28.1097-30.8702 28.1097-32.5835Q28.1097-34.2146 29.2004-35.2988Q30.2912-36.3829 32.0022-36.3829Q33.7909-36.3829 34.8762-35.1424L38.7448-30.9454L41.868-26.7858L41.3997-35.2601L41.3997-51.92Q41.3997-53.742 42.6469-54.9115Q43.894-56.0811 45.7471-56.0811Z"/>
  </g>
  <g id="Medium-S" transform="matrix(1 0 0 1 1701.17 696)">
   <path d="M76.2578-66.084Q73.1416-69.1914 68.9136-70.0405Q64.6855-70.8896 59.6113-70.8896L31.1689-70.8896Q26.0947-70.8896 21.8623-70.0405Q17.6299-69.1914 14.5225-66.084Q11.4551-63.0166 10.6104-58.8174Q9.76562-54.6182 9.76562-49.5264L9.76562-21.0439Q9.76562-15.9521 10.6104-11.7529Q11.4551-7.55371 14.5225-4.44629Q17.6387-1.37891 21.8667-0.509766Q26.0947 0.359375 31.1689 0.359375L59.6113 0.359375Q64.6855 0.359375 68.938-0.509766Q73.1904-1.37891 76.2578-4.44629Q79.3252-7.55371 80.1699-11.7529Q81.0146-15.9521 81.0146-21.0439L81.0146-49.4863Q81.0146-54.6182 80.1699-58.8218Q79.3252-63.0254 76.2578-66.084ZM45.4102-55.8789Q47.1436-55.8789 48.2583-54.8037Q49.373-53.7285 49.373-52.0615L49.373-34.876L48.9385-26.1191L52.3467-30.5918L56.2676-34.7246Q57.2832-35.8506 58.9326-35.8506Q60.5156-35.8506 61.5557-34.8237Q62.5957-33.7969 62.5957-32.2803Q62.5957-30.7148 61.5273-29.5713L48.5791-16.4434Q47.1289-14.9404 45.4102-14.9404Q43.7314-14.9404 42.2812-16.4434L29.293-29.5713Q28.2646-30.6748 28.2646-32.2803Q28.2646-33.7969 29.2847-34.8237Q30.3047-35.8506 31.8877-35.8506Q33.5146-35.8506 34.5527-34.7246L38.5225-30.5479L41.9219-26.1592L41.4873-34.876L41.4873-52.0615Q41.4873-53.7285 42.6064-54.8037Q43.7256-55.8789 45.4102-55.8789Z"/>
  </g>
  <g id="Regular-S" transform="matrix(1 0 0 1 1404.9 696)">
   <path d="M75.5371-65.8203Q72.4121-68.9453 68.1885-69.7021Q63.9648-70.459 59.2773-70.459L30.6152-70.459Q25.9277-70.459 21.7041-69.7021Q17.4805-68.9453 14.3555-65.8203Q11.2793-62.7441 10.5225-58.5449Q9.76562-54.3457 9.76562-49.6582L9.76562-20.9473Q9.76562-16.2598 10.5225-12.0605Q11.2793-7.86133 14.3555-4.73633Q17.4805-1.66016 21.7041-0.878906Q25.9277-0.0976562 30.6152-0.0976562L59.2773-0.0976562Q63.9648-0.0976562 68.2129-0.878906Q72.4609-1.66016 75.5371-4.73633Q78.6133-7.86133 79.3701-12.0605Q80.127-16.2598 80.127-20.9473L80.127-49.6094Q80.127-54.3457 79.3701-58.5449Q78.6133-62.7441 75.5371-65.8203ZM44.9707-55.6152Q46.4844-55.6152 47.4365-54.6631Q48.3887-53.7109 48.3887-52.2461L48.3887-34.375L47.998-25.293L51.7578-30.0293L55.8105-34.1797Q56.7383-35.1562 58.2031-35.1562Q59.6191-35.1562 60.5713-34.2041Q61.5234-33.252 61.5234-31.8848Q61.5234-30.4688 60.5957-29.4922L47.6562-16.6016Q46.3379-15.2832 44.9707-15.2832Q43.6523-15.2832 42.334-16.6016L29.3457-29.4922Q28.4668-30.4199 28.4668-31.8848Q28.4668-33.252 29.3945-34.2041Q30.3223-35.1562 31.7383-35.1562Q33.1543-35.1562 34.1309-34.1797L38.2324-30.0293L41.9922-25.3418L41.6016-34.375L41.6016-52.2461Q41.6016-53.7109 42.5537-54.6631Q43.5059-55.6152 44.9707-55.6152Z"/>
  </g>
  <g id="Light-S" transform="matrix(1 0 0 1 1108.88 696)">
   <path d="M74.3815-65.3158Q71.582-68.1315 67.6676-68.929Q63.7533-69.7266 58.724-69.7266L29.6387-69.7266Q24.7396-69.7266 20.8415-68.9209Q16.9434-68.1152 14.1439-65.2995Q11.377-62.5326 10.5713-58.667Q9.76562-54.8014 9.76562-49.8861L9.76562-20.7845Q9.76562-15.7227 10.5632-11.8408Q11.3607-7.95898 14.1276-5.15951Q16.9434-2.39258 20.8496-1.57064Q24.7559-0.748698 29.8014-0.748698L58.724-0.748698Q63.7533-0.748698 67.6839-1.57064Q71.6146-2.39258 74.3815-5.15951Q77.1647-7.97526 77.9541-11.849Q78.7435-15.7227 78.7435-20.7845L78.7435-49.707Q78.7435-54.7852 77.9541-58.6751Q77.1647-62.5651 74.3815-65.3158ZM44.2708-55.1107Q45.4753-55.1107 46.2077-54.3701Q46.9401-53.6296 46.9401-52.474L46.9401-31.3639L46.6309-23.5189L50.8138-28.3529L55.9082-33.5124Q56.6569-34.2936 57.7799-34.2936Q58.8704-34.2936 59.611-33.5612Q60.3516-32.8288 60.3516-31.7871Q60.3516-30.6803 59.6191-29.9316L46.3216-16.6829Q45.3451-15.6901 44.2708-15.6901Q43.2617-15.6901 42.2526-16.6829L28.9714-29.9316Q28.2715-30.6478 28.2715-31.7871Q28.2715-32.8288 28.9876-33.5612Q29.7038-34.2936 30.7943-34.2936Q31.8848-34.2936 32.666-33.5124L37.8092-28.3529L41.9434-23.5677L41.6504-31.3639L41.6504-52.474Q41.6504-53.6296 42.3991-54.3701Q43.1478-55.1107 44.2708-55.1107Z"/>
  </g>
  <g id="Thin-S" transform="matrix(1 0 0 1 813.076 696)">
   <path d="M72.8531-64.6484Q70.4842-67.0552 66.9788-67.9065Q63.4734-68.7579 57.9921-68.7579L28.3471-68.7579Q23.1682-68.7579 19.7006-67.8876Q16.233-67.0174 13.864-64.6106Q11.5061-62.2527 10.6359-58.8284Q9.76562-55.4042 9.76562-50.1874L9.76562-20.5692Q9.76562-15.0123 10.617-11.5502Q11.4683-8.08814 13.8262-5.71919Q16.233-3.36127 19.7195-2.48551Q23.206-1.60975 28.7251-1.60975L57.9921-1.60975Q63.4734-1.60975 66.9843-2.48551Q70.4952-3.36127 72.8531-5.71919Q75.2489-8.12595 76.0813-11.5691Q76.9137-15.0123 76.9137-20.5692L76.9137-49.8362Q76.9137-55.3664 76.0813-58.8473Q75.2489-62.3283 72.8531-64.6484ZM43.3452-54.4434Q44.1406-54.4434 44.5824-53.9826Q45.0243-53.5219 45.0243-52.7753L45.0243-27.3816L44.8226-21.1725L49.5653-26.1356L56.0374-32.6298Q56.5493-33.1527 57.2203-33.1527Q57.8802-33.1527 58.3409-32.7109Q58.8017-32.2691 58.8017-31.658Q58.8017-30.9602 58.3276-30.5129L44.5565-16.7906Q44.0319-16.2283 43.3452-16.2283Q42.7451-16.2283 42.145-16.7906L28.4762-30.5129Q28.0132-30.9492 28.0132-31.658Q28.0132-32.2691 28.4495-32.7109Q28.8858-33.1527 29.5457-33.1527Q30.2057-33.1527 30.7286-32.6298L37.2496-26.1356L41.8788-21.2213L41.715-27.3816L41.715-52.7753Q41.715-53.5219 42.1946-53.9826Q42.6742-54.4434 43.3452-54.4434Z"/>
  </g>
  <g id="Ultralight-S" transform="matrix(1 0 0 1 516.831 696)">
   <path d="M72.0703-64.3066Q69.9219-66.5039 66.626-67.3828Q63.3301-68.2617 57.6172-68.2617L27.6855-68.2617Q22.3633-68.2617 19.1162-67.3584Q15.8691-66.4551 13.7207-64.2578Q11.5723-62.1094 10.6689-58.9111Q9.76562-55.7129 9.76562-50.3418L9.76562-20.459Q9.76562-14.6484 10.6445-11.4014Q11.5234-8.1543 13.6719-6.00586Q15.8691-3.85742 19.1406-2.9541Q22.4121-2.05078 28.1738-2.05078L57.6172-2.05078Q63.3301-2.05078 66.626-2.9541Q69.9219-3.85742 72.0703-6.00586Q74.2676-8.20312 75.1221-11.4258Q75.9766-14.6484 75.9766-20.459L75.9766-49.9023Q75.9766-55.6641 75.1221-58.9355Q74.2676-62.207 72.0703-64.3066ZM42.8711-54.1016Q43.457-54.1016 43.75-53.7842Q44.043-53.4668 44.043-52.9297L44.043-25.3418L43.8965-19.9707L48.9258-25L56.1035-32.1777Q56.4941-32.5684 56.9336-32.5684Q57.373-32.5684 57.6904-32.2754Q58.0078-31.9824 58.0078-31.5918Q58.0078-31.1035 57.666-30.8105L43.6523-16.8457Q43.3594-16.5039 42.8711-16.5039Q42.4805-16.5039 42.0898-16.8457L28.2227-30.8105Q27.8809-31.1035 27.8809-31.5918Q27.8809-31.9824 28.1738-32.2754Q28.4668-32.5684 28.9062-32.5684Q29.3457-32.5684 29.7363-32.1777L36.9629-25L41.8457-20.0195L41.748-25.3418L41.748-52.9297Q41.748-53.4668 42.0898-53.7842Q42.4316-54.1016 42.8711-54.1016Z"/>
  </g>
 </g>
</svg>
