<?xml version="1.0" encoding="UTF-8"?>
<!--Generator: Apple Native CoreSVG 175-->
<!DOCTYPE svg
PUBLIC "-//W3C//DTD SVG 1.1//EN"
       "http://www.w3.org/Graphics/SVG/1.1/DTD/svg11.dtd">
<svg version="1.1" xmlns="http://www.w3.org/2000/svg" xmlns:xlink="http://www.w3.org/1999/xlink" width="3300" height="2200">
 <!--glyph: "uni10044D.medium", point size: 100.0, font version: "17.0d12e1", template writer version: "65.1"-->
 <g id="Notes">
  <rect height="2200" id="artboard" style="fill:white;opacity:1" width="3300" x="0" y="0"/>
  <line style="fill:none;stroke:black;opacity:1;stroke-width:0.5;" x1="263" x2="3036" y1="292" y2="292"/>
  <text style="stroke:none;fill:black;font-family:sans-serif;font-size:13;font-weight:bold;" transform="matrix(1 0 0 1 263 322)">Weight/Scale Variations</text>
  <text style="stroke:none;fill:black;font-family:sans-serif;font-size:13;text-anchor:middle;" transform="matrix(1 0 0 1 559.711 322)">Ultralight</text>
  <text style="stroke:none;fill:black;font-family:sans-serif;font-size:13;text-anchor:middle;" transform="matrix(1 0 0 1 856.422 322)">Thin</text>
  <text style="stroke:none;fill:black;font-family:sans-serif;font-size:13;text-anchor:middle;" transform="matrix(1 0 0 1 1153.13 322)">Light</text>
  <text style="stroke:none;fill:black;font-family:sans-serif;font-size:13;text-anchor:middle;" transform="matrix(1 0 0 1 1449.84 322)">Regular</text>
  <text style="stroke:none;fill:black;font-family:sans-serif;font-size:13;text-anchor:middle;" transform="matrix(1 0 0 1 1746.56 322)">Medium</text>
  <text style="stroke:none;fill:black;font-family:sans-serif;font-size:13;text-anchor:middle;" transform="matrix(1 0 0 1 2043.27 322)">Semibold</text>
  <text style="stroke:none;fill:black;font-family:sans-serif;font-size:13;text-anchor:middle;" transform="matrix(1 0 0 1 2339.98 322)">Bold</text>
  <text style="stroke:none;fill:black;font-family:sans-serif;font-size:13;text-anchor:middle;" transform="matrix(1 0 0 1 2636.69 322)">Heavy</text>
  <text style="stroke:none;fill:black;font-family:sans-serif;font-size:13;text-anchor:middle;" transform="matrix(1 0 0 1 2933.4 322)">Black</text>
  <line style="fill:none;stroke:black;opacity:1;stroke-width:0.5;" x1="263" x2="3036" y1="1903" y2="1903"/>
  <g transform="matrix(1 0 0 1 263 1933)">
   <path d="M9.24805 0.830078Q10.8691 0.830078 12.2949 0.214844Q13.7207-0.400391 14.8096-1.49414Q15.8984-2.58789 16.5186-4.01367Q17.1387-5.43945 17.1387-7.05078Q17.1387-8.66211 16.5186-10.0879Q15.8984-11.5137 14.8047-12.6074Q13.7109-13.7012 12.2852-14.3164Q10.8594-14.9316 9.23828-14.9316Q7.62695-14.9316 6.20117-14.3164Q4.77539-13.7012 3.69141-12.6074Q2.60742-11.5137 1.9873-10.0879Q1.36719-8.66211 1.36719-7.05078Q1.36719-5.43945 1.9873-4.01367Q2.60742-2.58789 3.69629-1.49414Q4.78516-0.400391 6.21094 0.214844Q7.63672 0.830078 9.24805 0.830078ZM9.24805-0.654297Q7.91992-0.654297 6.7627-1.14746Q5.60547-1.64062 4.73145-2.51953Q3.85742-3.39844 3.36426-4.56055Q2.87109-5.72266 2.87109-7.05078Q2.87109-8.37891 3.35938-9.54102Q3.84766-10.7031 4.72168-11.582Q5.5957-12.4609 6.75293-12.9541Q7.91016-13.4473 9.23828-13.4473Q10.5762-13.4473 11.7334-12.9541Q12.8906-12.4609 13.7695-11.582Q14.6484-10.7031 15.1465-9.54102Q15.6445-8.37891 15.6445-7.05078Q15.6445-5.72266 15.1514-4.56055Q14.6582-3.39844 13.7842-2.51953Q12.9102-1.64062 11.748-1.14746Q10.5859-0.654297 9.24805-0.654297ZM5.6543-7.05078Q5.6543-6.72852 5.85938-6.52832Q6.06445-6.32812 6.40625-6.32812L8.51562-6.32812L8.51562-4.20898Q8.51562-3.88672 8.71094-3.67676Q8.90625-3.4668 9.23828-3.4668Q9.56055-3.4668 9.77051-3.67676Q9.98047-3.88672 9.98047-4.20898L9.98047-6.32812L12.0898-6.32812Q12.4219-6.32812 12.627-6.52832Q12.832-6.72852 12.832-7.05078Q12.832-7.38281 12.627-7.58789Q12.4219-7.79297 12.0898-7.79297L9.98047-7.79297L9.98047-9.90234Q9.98047-10.2344 9.77051-10.4443Q9.56055-10.6543 9.23828-10.6543Q8.90625-10.6543 8.71094-10.4443Q8.51562-10.2344 8.51562-9.90234L8.51562-7.79297L6.40625-7.79297Q6.06445-7.79297 5.85938-7.58789Q5.6543-7.38281 5.6543-7.05078Z"/>
  </g>
  <g transform="matrix(1 0 0 1 281.867 1933)">
   <path d="M11.709 2.91016Q13.75 2.91016 15.5518 2.12891Q17.3535 1.34766 18.7305-0.0292969Q20.1074-1.40625 20.8887-3.20801Q21.6699-5.00977 21.6699-7.05078Q21.6699-9.0918 20.8887-10.8936Q20.1074-12.6953 18.7305-14.0723Q17.3535-15.4492 15.5469-16.2305Q13.7402-17.0117 11.6992-17.0117Q9.6582-17.0117 7.85645-16.2305Q6.05469-15.4492 4.68262-14.0723Q3.31055-12.6953 2.5293-10.8936Q1.74805-9.0918 1.74805-7.05078Q1.74805-5.00977 2.5293-3.20801Q3.31055-1.40625 4.6875-0.0292969Q6.06445 1.34766 7.86621 2.12891Q9.66797 2.91016 11.709 2.91016ZM11.709 1.25Q9.98047 1.25 8.47656 0.605469Q6.97266-0.0390625 5.83496-1.17676Q4.69727-2.31445 4.05762-3.81836Q3.41797-5.32227 3.41797-7.05078Q3.41797-8.7793 4.05762-10.2832Q4.69727-11.7871 5.83008-12.9297Q6.96289-14.0723 8.4668-14.7119Q9.9707-15.3516 11.6992-15.3516Q13.4277-15.3516 14.9316-14.7119Q16.4355-14.0723 17.5781-12.9297Q18.7207-11.7871 19.3652-10.2832Q20.0098-8.7793 20.0098-7.05078Q20.0098-5.32227 19.3701-3.81836Q18.7305-2.31445 17.5928-1.17676Q16.4551-0.0390625 14.9463 0.605469Q13.4375 1.25 11.709 1.25ZM7.17773-7.05078Q7.17773-6.69922 7.41211-6.47461Q7.64648-6.25 8.01758-6.25L10.8887-6.25L10.8887-3.36914Q10.8887-2.99805 11.1133-2.76855Q11.3379-2.53906 11.6895-2.53906Q12.0605-2.53906 12.29-2.76855Q12.5195-2.99805 12.5195-3.36914L12.5195-6.25L15.4004-6.25Q15.7715-6.25 16.001-6.47461Q16.2305-6.69922 16.2305-7.05078Q16.2305-7.42188 16.001-7.65137Q15.7715-7.88086 15.4004-7.88086L12.5195-7.88086L12.5195-10.752Q12.5195-11.1328 12.29-11.3623Q12.0605-11.5918 11.6895-11.5918Q11.3379-11.5918 11.1133-11.3574Q10.8887-11.123 10.8887-10.752L10.8887-7.88086L8.01758-7.88086Q7.63672-7.88086 7.40723-7.65137Q7.17773-7.42188 7.17773-7.05078Z"/>
  </g>
  <g transform="matrix(1 0 0 1 305.646 1933)">
   <path d="M14.9707 5.66406Q17.0605 5.66406 18.96 5.01465Q20.8594 4.36523 22.4512 3.19336Q24.043 2.02148 25.2197 0.429688Q26.3965-1.16211 27.0459-3.06641Q27.6953-4.9707 27.6953-7.05078Q27.6953-9.14062 27.0459-11.04Q26.3965-12.9395 25.2197-14.5312Q24.043-16.123 22.4512-17.2998Q20.8594-18.4766 18.9551-19.126Q17.0508-19.7754 14.9609-19.7754Q12.8711-19.7754 10.9717-19.126Q9.07227-18.4766 7.48535-17.2998Q5.89844-16.123 4.72168-14.5312Q3.54492-12.9395 2.90039-11.04Q2.25586-9.14062 2.25586-7.05078Q2.25586-4.9707 2.90527-3.06641Q3.55469-1.16211 4.72656 0.429688Q5.89844 2.02148 7.49023 3.19336Q9.08203 4.36523 10.9814 5.01465Q12.8809 5.66406 14.9707 5.66406ZM14.9707 3.84766Q13.1641 3.84766 11.5283 3.2959Q9.89258 2.74414 8.53516 1.74805Q7.17773 0.751953 6.17676-0.610352Q5.17578-1.97266 4.62891-3.6084Q4.08203-5.24414 4.08203-7.05078Q4.08203-8.86719 4.62891-10.5029Q5.17578-12.1387 6.17188-13.501Q7.16797-14.8633 8.52539-15.8594Q9.88281-16.8555 11.5186-17.4023Q13.1543-17.9492 14.9609-17.9492Q16.7773-17.9492 18.4131-17.4023Q20.0488-16.8555 21.4111-15.8594Q22.7734-14.8633 23.7695-13.501Q24.7656-12.1387 25.3174-10.5029Q25.8691-8.86719 25.8691-7.05078Q25.8789-5.24414 25.332-3.6084Q24.7852-1.97266 23.7842-0.610352Q22.7832 0.751953 21.4209 1.74805Q20.0586 2.74414 18.4229 3.2959Q16.7871 3.84766 14.9707 3.84766ZM9.19922-7.05078Q9.19922-6.66992 9.45801-6.4209Q9.7168-6.17188 10.1172-6.17188L14.0625-6.17188L14.0625-2.2168Q14.0625-1.81641 14.3115-1.55762Q14.5605-1.29883 14.9512-1.29883Q15.3516-1.29883 15.6104-1.55273Q15.8691-1.80664 15.8691-2.2168L15.8691-6.17188L19.8242-6.17188Q20.2246-6.17188 20.4785-6.4209Q20.7324-6.66992 20.7324-7.05078Q20.7324-7.46094 20.4785-7.71484Q20.2246-7.96875 19.8242-7.96875L15.8691-7.96875L15.8691-11.9141Q15.8691-12.3242 15.6104-12.583Q15.3516-12.8418 14.9512-12.8418Q14.5605-12.8418 14.3115-12.583Q14.0625-12.3242 14.0625-11.9141L14.0625-7.96875L10.1172-7.96875Q9.70703-7.96875 9.45312-7.71484Q9.19922-7.46094 9.19922-7.05078Z"/>
  </g>
  <text style="stroke:none;fill:black;font-family:sans-serif;font-size:13;font-weight:bold;" transform="matrix(1 0 0 1 263 1953)">Design Variations</text>
  <text style="stroke:none;fill:black;font-family:sans-serif;font-size:13;" transform="matrix(1 0 0 1 263 1971)">Symbols are supported in up to nine weights and three scales.</text>
  <text style="stroke:none;fill:black;font-family:sans-serif;font-size:13;" transform="matrix(1 0 0 1 263 1989)">For optimal layout with text and other symbols, vertically align</text>
  <text style="stroke:none;fill:black;font-family:sans-serif;font-size:13;" transform="matrix(1 0 0 1 263 2007)">symbols with the adjacent text.</text>
  <line style="fill:none;stroke:#00AEEF;stroke-width:0.5;opacity:1.0;" x1="776" x2="776" y1="1919" y2="1933"/>
  <g transform="matrix(1 0 0 1 776 1933)">
   <path d="M3.31055 0.15625Q3.70117 0.15625 3.91602-0.00976562Q4.13086-0.175781 4.26758-0.585938L5.52734-4.0332L11.2891-4.0332L12.5488-0.585938Q12.6855-0.175781 12.9004-0.00976562Q13.1152 0.15625 13.4961 0.15625Q13.8867 0.15625 14.1162-0.0585938Q14.3457-0.273438 14.3457-0.644531Q14.3457-0.869141 14.2383-1.17188L9.6582-13.3691Q9.48242-13.8184 9.17969-14.043Q8.87695-14.2676 8.4082-14.2676Q7.5-14.2676 7.17773-13.3789L2.59766-1.16211Q2.49023-0.859375 2.49023-0.634766Q2.49023-0.263672 2.70996-0.0537109Q2.92969 0.15625 3.31055 0.15625ZM6.00586-5.51758L8.37891-12.0898L8.42773-12.0898L10.8008-5.51758Z"/>
  </g>
  <line style="fill:none;stroke:#00AEEF;stroke-width:0.5;opacity:1.0;" x1="793.197" x2="793.197" y1="1919" y2="1933"/>
  <text style="stroke:none;fill:black;font-family:sans-serif;font-size:13;font-weight:bold;" transform="matrix(1 0 0 1 776 1953)">Margins</text>
  <text style="stroke:none;fill:black;font-family:sans-serif;font-size:13;" transform="matrix(1 0 0 1 776 1971)">Leading and trailing margins on the left and right side of each symbol</text>
  <text style="stroke:none;fill:black;font-family:sans-serif;font-size:13;" transform="matrix(1 0 0 1 776 1989)">can be adjusted by modifying the x-location of the margin guidelines.</text>
  <text style="stroke:none;fill:black;font-family:sans-serif;font-size:13;" transform="matrix(1 0 0 1 776 2007)">Modifications are automatically applied proportionally to all</text>
  <text style="stroke:none;fill:black;font-family:sans-serif;font-size:13;" transform="matrix(1 0 0 1 776 2025)">scales and weights.</text>
  <g transform="matrix(1 0 0 1 1289 1933)">
   <path d="M2.8418 1.86523L4.54102 3.57422Q5.18555 4.22852 5.90332 4.17969Q6.62109 4.13086 7.31445 3.35938L18.0078-8.42773L17.041-9.4043L6.42578 2.27539Q6.16211 2.57812 5.89355 2.61719Q5.625 2.65625 5.27344 2.30469L4.10156 1.14258Q3.75 0.791016 3.79395 0.522461Q3.83789 0.253906 4.14062-0.0195312L15.6152-10.8203L14.6387-11.7871L3.04688-0.898438Q2.30469-0.214844 2.25098 0.498047Q2.19727 1.21094 2.8418 1.86523ZM9.25781-16.3281Q8.94531-16.0254 8.90625-15.6348Q8.86719-15.2441 9.04297-14.9512Q9.21875-14.6777 9.55566-14.541Q9.89258-14.4043 10.3809-14.5215Q11.4746-14.7754 12.5977-14.7314Q13.7207-14.6875 14.7949-13.9844L14.209-12.5293Q13.9551-11.9043 14.0674-11.4404Q14.1797-10.9766 14.5801-10.5664L16.875-8.25195Q17.2363-7.88086 17.5781-7.82227Q17.9199-7.76367 18.3398-7.8418L19.4043-8.03711L20.0684-7.36328L20.0293-6.80664Q20-6.43555 20.1221-6.12305Q20.2441-5.81055 20.6055-5.44922L21.3672-4.70703Q21.7285-4.3457 22.1533-4.33105Q22.5781-4.31641 22.9297-4.66797L25.8398-7.58789Q26.1914-7.93945 26.1816-8.35449Q26.1719-8.76953 25.8105-9.13086L25.0391-9.89258Q24.6875-10.2539 24.3799-10.3857Q24.0723-10.5176 23.7109-10.4883L23.1348-10.4395L22.4902-11.0742L22.7344-12.1973Q22.832-12.6172 22.6953-12.9834Q22.5586-13.3496 22.1191-13.7891L19.9219-15.9766Q18.6719-17.2168 17.2607-17.8369Q15.8496-18.457 14.4189-18.4814Q12.9883-18.5059 11.665-17.959Q10.3418-17.4121 9.25781-16.3281ZM10.752-15.957Q11.6602-16.6211 12.7002-16.9043Q13.7402-17.1875 14.8047-17.085Q15.8691-16.9824 16.8701-16.5137Q17.8711-16.0449 18.7012-15.2051L21.1328-12.793Q21.3086-12.6172 21.3525-12.4512Q21.3965-12.2852 21.3379-12.0312L21.0156-10.5469L22.5195-9.0625L23.5059-9.12109Q23.6914-9.13086 23.7891-9.09668Q23.8867-9.0625 24.0332-8.91602L24.6094-8.33984L22.168-5.89844L21.5918-6.47461Q21.4453-6.62109 21.4062-6.71875Q21.3672-6.81641 21.377-7.01172L21.4453-7.98828L19.9512-9.47266L18.4277-9.21875Q18.1836-9.16992 18.042-9.2041Q17.9004-9.23828 17.7148-9.41406L15.7129-11.416Q15.5176-11.5918 15.4932-11.7529Q15.4688-11.9141 15.5859-12.1875L16.4648-14.2773Q15.293-15.3711 13.8281-15.791Q12.3633-16.2109 10.8398-15.7617Q10.7227-15.7324 10.6885-15.8057Q10.6543-15.8789 10.752-15.957Z"/>
  </g>
  <text style="stroke:none;fill:black;font-family:sans-serif;font-size:13;font-weight:bold;" transform="matrix(1 0 0 1 1289 1953)">Exporting</text>
  <text style="stroke:none;fill:black;font-family:sans-serif;font-size:13;" transform="matrix(1 0 0 1 1289 1971)">Symbols should be outlined when exporting to ensure the</text>
  <text style="stroke:none;fill:black;font-family:sans-serif;font-size:13;" transform="matrix(1 0 0 1 1289 1989)">design is preserved when submitting to Xcode.</text>
  <text id="template-version" style="stroke:none;fill:black;font-family:sans-serif;font-size:13;text-anchor:end;" transform="matrix(1 0 0 1 3036 1933)">Template v.3.0</text>
  <text style="stroke:none;fill:black;font-family:sans-serif;font-size:13;text-anchor:end;" transform="matrix(1 0 0 1 3036 1951)">Requires Xcode 13 or greater</text>
  <text id="descriptive-name" style="stroke:none;fill:black;font-family:sans-serif;font-size:13;text-anchor:end;" transform="matrix(1 0 0 1 3036 1969)">Generated from plus.app</text>
  <text style="stroke:none;fill:black;font-family:sans-serif;font-size:13;text-anchor:end;" transform="matrix(1 0 0 1 3036 1987)">Typeset at 100 points</text>
  <text style="stroke:none;fill:black;font-family:sans-serif;font-size:13;" transform="matrix(1 0 0 1 263 726)">Small</text>
  <text style="stroke:none;fill:black;font-family:sans-serif;font-size:13;" transform="matrix(1 0 0 1 263 1156)">Medium</text>
  <text style="stroke:none;fill:black;font-family:sans-serif;font-size:13;" transform="matrix(1 0 0 1 263 1586)">Large</text>
 </g>
 <g id="Guides">
  <g id="H-reference" style="fill:#27AAE1;stroke:none;" transform="matrix(1 0 0 1 339 696)">
   <path d="M0.993347 0L3.6377 0L29.3282-67.1326L30.0301-67.1326L30.0301-70.459L28.1227-70.459ZM11.6882-24.4797L46.9818-24.4797L46.2311-26.7288L12.4382-26.7288ZM55.1193 0L57.7637 0L30.6381-70.459L29.4327-70.459L29.4327-67.1326Z"/>
  </g>
  <line id="Baseline-S" style="fill:none;stroke:#27AAE1;opacity:1;stroke-width:0.5;" x1="263" x2="3036" y1="696" y2="696"/>
  <line id="Capline-S" style="fill:none;stroke:#27AAE1;opacity:1;stroke-width:0.5;" x1="263" x2="3036" y1="625.541" y2="625.541"/>
  <g id="H-reference" style="fill:#27AAE1;stroke:none;" transform="matrix(1 0 0 1 339 1126)">
   <path d="M0.993347 0L3.6377 0L29.3282-67.1326L30.0301-67.1326L30.0301-70.459L28.1227-70.459ZM11.6882-24.4797L46.9818-24.4797L46.2311-26.7288L12.4382-26.7288ZM55.1193 0L57.7637 0L30.6381-70.459L29.4327-70.459L29.4327-67.1326Z"/>
  </g>
  <line id="Baseline-M" style="fill:none;stroke:#27AAE1;opacity:1;stroke-width:0.5;" x1="263" x2="3036" y1="1126" y2="1126"/>
  <line id="Capline-M" style="fill:none;stroke:#27AAE1;opacity:1;stroke-width:0.5;" x1="263" x2="3036" y1="1055.54" y2="1055.54"/>
  <g id="H-reference" style="fill:#27AAE1;stroke:none;" transform="matrix(1 0 0 1 339 1556)">
   <path d="M0.993347 0L3.6377 0L29.3282-67.1326L30.0301-67.1326L30.0301-70.459L28.1227-70.459ZM11.6882-24.4797L46.9818-24.4797L46.2311-26.7288L12.4382-26.7288ZM55.1193 0L57.7637 0L30.6381-70.459L29.4327-70.459L29.4327-67.1326Z"/>
  </g>
  <line id="Baseline-L" style="fill:none;stroke:#27AAE1;opacity:1;stroke-width:0.5;" x1="263" x2="3036" y1="1556" y2="1556"/>
  <line id="Capline-L" style="fill:none;stroke:#27AAE1;opacity:1;stroke-width:0.5;" x1="263" x2="3036" y1="1485.54" y2="1485.54"/>
  <line id="left-margin-Regular-M" style="fill:none;stroke:#00AEEF;stroke-width:0.5;opacity:1.0;" x1="1392.37" x2="1392.37" y1="1030.79" y2="1150.12"/>
  <line id="right-margin-Regular-M" style="fill:none;stroke:#00AEEF;stroke-width:0.5;opacity:1.0;" x1="1507.32" x2="1507.32" y1="1030.79" y2="1150.12"/>
 </g>
 <g id="Symbols">
  <g id="Black-L" transform="matrix(1 0 0 1 2856.13 1556)">
   <path d="M129.785-87.5488Q126.416-90.918 122.192-92.8223Q117.969-94.7266 112.622-95.5078Q107.275-96.2891 100.391-96.2891L54.1504-96.2891Q43.8477-96.2891 36.8408-94.4336Q29.834-92.5781 24.7559-87.5488Q19.6777-82.4707 17.8711-75.5371Q16.0645-68.6035 16.0645-58.252L16.0645-12.1582Q16.0645-5.22461 16.8213 0.12207Q17.5781 5.46875 19.4824 9.64355Q21.3867 13.8184 24.7559 17.1387Q28.1738 20.5566 32.373 22.4609Q36.5723 24.3652 41.9434 25.1465Q47.3145 25.9277 54.1504 25.9277L100.391 25.9277Q107.275 25.9277 112.646 25.1465Q118.018 24.3652 122.217 22.4609Q126.416 20.5566 129.785 17.1387Q133.154 13.7695 135.059 9.61914Q136.963 5.46875 137.72 0.12207Q138.477-5.22461 138.477-12.1582L138.477-58.252Q138.477-65.1367 137.72-70.5078Q136.963-75.8789 135.059-80.0293Q133.154-84.1797 129.785-87.5488ZM118.262-60.0098L118.262-10.4004Q118.262-5.41992 117.529-2.49023Q116.797 0.439453 114.941 2.34375Q113.086 4.15039 110.083 4.93164Q107.08 5.71289 102.148 5.71289L52.3926 5.71289Q47.4609 5.71289 44.458 4.93164Q41.4551 4.15039 39.5996 2.34375Q37.7441 0.439453 37.0361-2.49023Q36.3281-5.41992 36.3281-10.4004L36.3281-60.0098Q36.3281-64.9414 37.0361-67.8955Q37.7441-70.8496 39.5996-72.7051Q41.4551-74.5117 44.458-75.293Q47.4609-76.0742 52.3926-76.0742L102.148-76.0742Q107.08-76.0742 110.083-75.293Q113.086-74.5117 114.941-72.7051Q116.797-70.8496 117.529-67.8955Q118.262-64.9414 118.262-60.0098ZM48.3887-35.2539Q48.3887-31.7383 50.6592-29.4189Q52.9297-27.0996 56.3965-27.0996L69.0918-27.0996L69.0918-14.3555Q69.0918-10.9375 71.4355-8.66699Q73.7793-6.39648 77.2949-6.39648Q80.8105-6.39648 83.1543-8.66699Q85.498-10.9375 85.498-14.3555L85.498-27.0996L98.2422-27.0996Q101.66-27.0996 103.931-29.4189Q106.201-31.7383 106.201-35.2539Q106.201-38.8184 103.931-41.1621Q101.66-43.5059 98.2422-43.5059L85.498-43.5059L85.498-56.2012Q85.498-59.668 83.1543-61.9385Q80.8105-64.209 77.2949-64.209Q73.7793-64.209 71.4355-61.9385Q69.0918-59.668 69.0918-56.2012L69.0918-43.5059L56.3965-43.5059Q52.9297-43.5059 50.6592-41.1621Q48.3887-38.8184 48.3887-35.2539Z"/>
  </g>
  <g id="Heavy-L" transform="matrix(1 0 0 1 2560.35 1556)">
   <path d="M128.32-86.9629Q125-90.2344 120.874-92.0654Q116.748-93.8965 111.548-94.6045Q106.348-95.3125 99.7559-95.3125L52.832-95.3125Q43.0664-95.3125 36.2061-93.5791Q29.3457-91.8457 24.4141-86.9141Q19.4336-81.9824 17.749-75.1953Q16.0645-68.4082 16.0645-58.5938L16.0645-11.8652Q16.0645-5.22461 16.7725-0.0488281Q17.4805 5.12695 19.2871 9.22852Q21.0938 13.3301 24.3652 16.5527Q27.7344 19.873 31.8359 21.7041Q35.9375 23.5352 41.1621 24.2676Q46.3867 25 52.9297 25L99.7559 25Q106.348 25 111.572 24.2676Q116.797 23.5352 120.898 21.7041Q125 19.873 128.32 16.5527Q131.592 13.2812 133.398 9.2041Q135.205 5.12695 135.913-0.0488281Q136.621-5.22461 136.621-11.8652L136.621-58.4961Q136.621-65.0879 135.913-70.3125Q135.205-75.5371 133.398-79.6143Q131.592-83.6914 128.32-86.9629ZM119.141-60.2539L119.141-10.1074Q119.141-5.07812 118.335-1.7334Q117.529 1.61133 115.479 3.75977Q113.379 5.81055 109.961 6.66504Q106.543 7.51953 101.514 7.51953L51.1719 7.51953Q46.1426 7.51953 42.7246 6.66504Q39.3066 5.81055 37.207 3.75977Q35.1074 1.61133 34.3506-1.7334Q33.5938-5.07812 33.5938-10.1074L33.5938-60.2051Q33.5938-65.2832 34.3506-68.6523Q35.1074-72.0215 37.207-74.1211Q39.3066-76.1719 42.749-77.002Q46.1914-77.832 51.2207-77.832L101.514-77.832Q106.543-77.832 109.961-77.002Q113.379-76.1719 115.479-74.1211Q117.578-72.0215 118.359-68.6523Q119.141-65.2832 119.141-60.2539ZM47.4609-35.2539Q47.4609-32.1289 49.5117-30.0537Q51.5625-27.9785 54.6387-27.9785L68.9941-27.9785L68.9941-13.5742Q68.9941-10.498 71.0938-8.44727Q73.1934-6.39648 76.3184-6.39648Q79.4922-6.39648 81.5918-8.44727Q83.6914-10.498 83.6914-13.5742L83.6914-27.9785L98.0957-27.9785Q101.172-27.9785 103.198-30.0537Q105.225-32.1289 105.225-35.2539Q105.225-38.4766 103.198-40.5518Q101.172-42.627 98.0957-42.627L83.6914-42.627L83.6914-56.9824Q83.6914-60.1074 81.5918-62.1582Q79.4922-64.209 76.3184-64.209Q73.1934-64.209 71.0938-62.1582Q68.9941-60.1074 68.9941-56.9824L68.9941-42.627L54.6387-42.627Q51.5137-42.627 49.4873-40.5518Q47.4609-38.4766 47.4609-35.2539Z"/>
  </g>
  <g id="Bold-L" transform="matrix(1 0 0 1 2264.67 1556)">
   <path d="M126.66-86.2793Q123.438-89.502 119.409-91.2354Q115.381-92.9688 110.352-93.6279Q105.322-94.2871 99.0723-94.2871L51.3672-94.2871Q42.1875-94.2871 35.498-92.6758Q28.8086-91.0645 24.0234-86.2793Q19.1895-81.4941 17.627-74.8535Q16.0645-68.2129 16.0645-58.9844L16.0645-11.5723Q16.0645-5.27344 16.7236-0.244141Q17.3828 4.78516 19.0918 8.76465Q20.8008 12.7441 23.9746 15.918Q27.2461 19.1406 31.25 20.874Q35.2539 22.6074 40.2832 23.2666Q45.3125 23.9258 51.5625 23.9258L99.0723 23.9258Q105.322 23.9258 110.352 23.2666Q115.381 22.6074 119.409 20.874Q123.438 19.1406 126.66 15.918Q129.834 12.7441 131.567 8.76465Q133.301 4.78516 133.936-0.244141Q134.57-5.27344 134.57-11.5723L134.57-58.8379Q134.57-65.0879 133.936-70.1172Q133.301-75.1465 131.567-79.126Q129.834-83.1055 126.66-86.2793ZM120.117-60.5469L120.117-9.81445Q120.117-4.6875 119.263-0.854492Q118.408 2.97852 116.064 5.37109Q113.672 7.71484 109.814 8.61816Q105.957 9.52148 100.83 9.52148L49.8047 9.52148Q44.6777 9.52148 40.8203 8.61816Q36.9629 7.71484 34.5703 5.37109Q32.2266 2.97852 31.3721-0.854492Q30.5176-4.6875 30.5176-9.81445L30.5176-60.4004Q30.5176-65.625 31.3721-69.4824Q32.2266-73.3398 34.5703-75.7324Q36.9629-78.0762 40.8691-78.9551Q44.7754-79.834 49.9512-79.834L100.83-79.834Q105.957-79.834 109.814-78.9307Q113.672-78.0273 116.064-75.6836Q118.408-73.3398 119.263-69.5312Q120.117-65.7227 120.117-60.5469ZM46.4844-35.2539Q46.4844-32.5684 48.2666-30.7861Q50.0488-29.0039 52.7832-29.0039L68.9941-29.0039L68.9941-12.7441Q68.9941-10.0098 70.8008-8.22754Q72.6074-6.44531 75.3418-6.44531Q78.0762-6.44531 79.9072-8.22754Q81.7383-10.0098 81.7383-12.7441L81.7383-29.0039L97.998-29.0039Q100.684-29.0039 102.466-30.7861Q104.248-32.5684 104.248-35.2539Q104.248-38.0859 102.466-39.8926Q100.684-41.6992 97.998-41.6992L81.7383-41.6992L81.7383-57.9102Q81.7383-60.6445 79.9072-62.4268Q78.0762-64.209 75.3418-64.209Q72.6074-64.209 70.8008-62.4268Q68.9941-60.6445 68.9941-57.9102L68.9941-41.6992L52.7832-41.6992Q50.0488-41.6992 48.2666-39.8926Q46.4844-38.0859 46.4844-35.2539Z"/>
  </g>
  <g id="Semibold-L" transform="matrix(1 0 0 1 1968.68 1556)">
   <path d="M125.488-85.8398Q122.363-88.9648 118.384-90.625Q114.404-92.2852 109.497-92.8955Q104.59-93.5059 98.584-93.5059L50.3418-93.5059Q41.5527-93.5059 34.9854-91.9922Q28.418-90.4785 23.7305-85.791Q18.9941-81.1035 17.5293-74.585Q16.0645-68.0664 16.0645-59.2285L16.0645-11.3281Q16.0645-5.27344 16.6748-0.390625Q17.2852 4.49219 18.9209 8.42285Q20.5566 12.3535 23.6816 15.4785Q26.8555 18.6035 30.8105 20.2881Q34.7656 21.9727 39.6729 22.583Q44.5801 23.1934 50.5859 23.1934L98.584 23.1934Q104.59 23.1934 109.497 22.583Q114.404 21.9727 118.384 20.2881Q122.363 18.6035 125.488 15.4785Q128.613 12.3535 130.273 8.42285Q131.934 4.49219 132.52-0.390625Q133.105-5.27344 133.105-11.3281L133.105-59.0332Q133.105-65.0391 132.52-69.9463Q131.934-74.8535 130.273-78.7842Q128.613-82.7148 125.488-85.8398ZM120.801-60.7422L120.801-9.61914Q120.801-4.39453 119.873-0.268555Q118.945 3.85742 116.455 6.44531Q113.867 9.0332 109.692 9.96094Q105.518 10.8887 100.293 10.8887L48.877 10.8887Q43.6523 10.8887 39.4775 9.93652Q35.3027 8.98438 32.7637 6.44531Q30.1758 3.85742 29.2969-0.268555Q28.418-4.39453 28.418-9.61914L28.418-60.5469Q28.418-65.8691 29.2969-70.0684Q30.1758-74.2676 32.7637-76.8066Q35.3027-79.3457 39.5264-80.2734Q43.75-81.2012 49.0723-81.2012L100.293-81.2012Q105.518-81.2012 109.692-80.249Q113.867-79.2969 116.455-76.7578Q118.994-74.2188 119.897-70.0928Q120.801-65.9668 120.801-60.7422ZM45.752-35.2539Q45.752-32.8613 47.3633-31.2744Q48.9746-29.6875 51.416-29.6875L68.8965-29.6875L68.8965-12.1094Q68.8965-9.66797 70.5078-8.05664Q72.1191-6.44531 74.5605-6.44531Q77.0508-6.44531 78.6621-8.03223Q80.2734-9.61914 80.2734-12.1094L80.2734-29.6875L97.8516-29.6875Q100.293-29.6875 101.88-31.2744Q103.467-32.8613 103.467-35.2539Q103.467-37.793 101.88-39.4043Q100.293-41.0156 97.8516-41.0156L80.2734-41.0156L80.2734-58.4961Q80.2734-60.9863 78.6621-62.5977Q77.0508-64.209 74.5605-64.209Q72.1191-64.209 70.5078-62.5977Q68.8965-60.9863 68.8965-58.4961L68.8965-41.0156L51.416-41.0156Q48.9258-41.0156 47.3389-39.4043Q45.752-37.793 45.752-35.2539Z"/>
  </g>
  <g id="Medium-L" transform="matrix(1 0 0 1 1672.51 1556)">
   <path d="M124.609-85.4492Q121.533-88.5742 117.603-90.1855Q113.672-91.7969 108.862-92.3828Q104.053-92.9688 98.2422-92.9688L49.6094-92.9688Q41.0645-92.9688 34.6191-91.5039Q28.1738-90.0391 23.5352-85.4492Q18.8965-80.8105 17.4805-74.3896Q16.0645-67.9688 16.0645-59.4727L16.0645-11.1328Q16.0645-5.32227 16.6504-0.512695Q17.2363 4.29688 18.7988 8.17871Q20.3613 12.0605 23.4863 15.1367Q26.6113 18.2129 30.5176 19.8486Q34.4238 21.4844 39.2334 22.0703Q44.043 22.6562 49.8535 22.6562L98.2422 22.6562Q104.053 22.6562 108.862 22.0703Q113.672 21.4844 117.603 19.8486Q121.533 18.2129 124.609 15.1367Q127.686 12.0605 129.297 8.17871Q130.908 4.29688 131.47-0.512695Q132.031-5.32227 132.031-11.1328L132.031-59.1797Q132.031-65.0391 131.47-69.8486Q130.908-74.6582 129.297-78.54Q127.686-82.4219 124.609-85.4492ZM121.289-60.8887L121.289-9.42383Q121.289-4.19922 120.337 0.170898Q119.385 4.54102 116.748 7.27539Q114.062 10.0098 109.619 10.9619Q105.176 11.9141 99.9512 11.9141L48.1445 11.9141Q42.9199 11.9141 38.4766 10.9375Q34.0332 9.96094 31.3477 7.27539Q28.6621 4.54102 27.7344 0.170898Q26.8066-4.19922 26.8066-9.42383L26.8066-60.6445Q26.8066-66.0645 27.7344-70.5078Q28.6621-74.9512 31.3477-77.6367Q34.0332-80.3223 38.5254-81.2744Q43.0176-82.2266 48.3887-82.2266L99.9512-82.2266Q105.176-82.2266 109.619-81.25Q114.062-80.2734 116.748-77.5879Q119.434-74.9023 120.361-70.5322Q121.289-66.1621 121.289-60.8887ZM45.2148-35.2539Q45.2148-33.0566 46.6797-31.6162Q48.1445-30.1758 50.4395-30.1758L68.8965-30.1758L68.8965-11.6699Q68.8965-9.42383 70.3369-7.95898Q71.7773-6.49414 74.0234-6.49414Q76.2695-6.49414 77.7588-7.93457Q79.248-9.375 79.248-11.6699L79.248-30.1758L97.7539-30.1758Q100-30.1758 101.465-31.6162Q102.93-33.0566 102.93-35.2539Q102.93-37.5977 101.465-39.0381Q100-40.4785 97.7539-40.4785L79.248-40.4785L79.248-58.9844Q79.248-61.2793 77.7588-62.7441Q76.2695-64.209 74.0234-64.209Q71.7773-64.209 70.3369-62.7441Q68.8965-61.2793 68.8965-58.9844L68.8965-40.4785L50.4395-40.4785Q48.0957-40.4785 46.6553-39.0381Q45.2148-37.5977 45.2148-35.2539Z"/>
  </g>
  <g id="Regular-L" transform="matrix(1 0 0 1 1376.5 1556)">
   <path d="M123.486-85.0098Q120.459-88.0371 116.602-89.5996Q112.744-91.1621 108.057-91.6992Q103.369-92.2363 97.7539-92.2363L48.584-92.2363Q40.4785-92.2363 34.1309-90.8691Q27.7832-89.502 23.2422-84.9609Q18.7012-80.4688 17.3828-74.1455Q16.0645-67.8223 16.0645-59.7168L16.0645-10.9375Q16.0645-5.32227 16.6016-0.634766Q17.1387 4.05273 18.6523 7.86133Q20.166 11.6699 23.1934 14.6973Q26.2695 17.7246 30.1025 19.2871Q33.9355 20.8496 38.623 21.3867Q43.3105 21.9238 48.9258 21.9238L97.7539 21.9238Q103.369 21.9238 108.057 21.3867Q112.744 20.8496 116.602 19.2871Q120.459 17.7246 123.486 14.6973Q126.514 11.6699 128.052 7.86133Q129.59 4.05273 130.103-0.634766Q130.615-5.32227 130.615-10.9375L130.615-59.375Q130.615-64.9902 130.103-69.6777Q129.59-74.3652 128.052-78.1982Q126.514-82.0312 123.486-85.0098ZM121.973-61.084L121.973-9.22852Q121.973-3.90625 120.972 0.78125Q119.971 5.46875 117.139 8.34961Q114.258 11.2793 109.521 12.2803Q104.785 13.2812 99.4629 13.2812L47.2168 13.2812Q41.8945 13.2812 37.1582 12.2559Q32.4219 11.2305 29.541 8.34961Q26.6602 5.46875 25.6836 0.78125Q24.707-3.90625 24.707-9.22852L24.707-60.791Q24.707-66.3086 25.6836-71.0693Q26.6602-75.8301 29.541-78.7109Q32.4219-81.5918 37.2314-82.5928Q42.041-83.5938 47.5098-83.5938L99.4629-83.5938Q104.785-83.5938 109.521-82.5684Q114.258-81.543 117.139-78.6621Q120.02-75.7812 120.996-71.1182Q121.973-66.4551 121.973-61.084ZM44.5312-35.2539Q44.5312-33.3496 45.8252-32.1045Q47.1191-30.8594 49.1211-30.8594L68.8477-30.8594L68.8477-11.084Q68.8477-9.08203 70.0928-7.78809Q71.3379-6.49414 73.291-6.49414Q75.293-6.49414 76.5869-7.76367Q77.8809-9.0332 77.8809-11.084L77.8809-30.8594L97.6562-30.8594Q99.6582-30.8594 100.928-32.1045Q102.197-33.3496 102.197-35.2539Q102.197-37.3047 100.928-38.5742Q99.6582-39.8438 97.6562-39.8438L77.8809-39.8438L77.8809-59.5703Q77.8809-61.6211 76.5869-62.915Q75.293-64.209 73.291-64.209Q71.3379-64.209 70.0928-62.915Q68.8477-61.6211 68.8477-59.5703L68.8477-39.8438L49.1211-39.8438Q47.0703-39.8438 45.8008-38.5742Q44.5312-37.3047 44.5312-35.2539Z"/>
  </g>
  <g id="Light-L" transform="matrix(1 0 0 1 1080.88 1556)">
   <path d="M121.582-84.2773Q118.848-87.0605 115.259-88.5498Q111.67-90.0391 107.08-90.625Q102.49-91.2109 96.6309-91.2109L47.3633-91.2109Q39.0137-91.2109 33.0566-89.7949Q27.0996-88.3789 22.9492-84.2285Q18.7988-80.0781 17.4316-74.1943Q16.0645-68.3105 16.0645-59.9121L16.0645-10.8887Q16.0645-4.98047 16.626-0.390625Q17.1875 4.19922 18.6523 7.71484Q20.1172 11.2305 22.9004 14.0137Q25.7324 16.748 29.2725 18.2617Q32.8125 19.7754 37.4023 20.3613Q41.9922 20.9473 47.9004 20.9473L96.6309 20.9473Q102.49 20.9473 107.08 20.3613Q111.67 19.7754 115.259 18.2617Q118.848 16.748 121.582 14.0137Q124.365 11.2305 125.854 7.69043Q127.344 4.15039 127.881-0.415039Q128.418-4.98047 128.418-10.8887L128.418-59.375Q128.418-65.2832 127.881-69.873Q127.344-74.4629 125.854-78.0029Q124.365-81.543 121.582-84.2773ZM121.826-61.0352L121.826-9.22852Q121.826-3.27148 120.679 1.46484Q119.531 6.20117 116.699 9.08203Q113.77 12.0605 108.984 13.1836Q104.199 14.3066 98.291 14.3066L46.2402 14.3066Q40.2832 14.3066 35.498 13.1592Q30.7129 12.0117 27.7832 9.08203Q24.9023 6.20117 23.7793 1.46484Q22.6562-3.27148 22.6562-9.22852L22.6562-60.5469Q22.6562-66.8457 23.7793-71.6797Q24.9023-76.5137 27.7832-79.4434Q30.6641-82.373 35.5713-83.4717Q40.4785-84.5703 46.6797-84.5703L98.291-84.5703Q104.199-84.5703 108.984-83.4229Q113.77-82.2754 116.699-79.3945Q119.58-76.4648 120.703-71.7529Q121.826-67.041 121.826-61.0352ZM43.9453-35.2539Q43.9453-33.8379 44.9463-32.8613Q45.9473-31.8848 47.4609-31.8848L68.7988-31.8848L68.7988-10.498Q68.7988-8.98438 69.7754-7.9834Q70.752-6.98242 72.2168-6.98242Q73.7305-6.98242 74.7314-7.95898Q75.7324-8.93555 75.7324-10.498L75.7324-31.8848L97.168-31.8848Q98.6328-31.8848 99.6338-32.8613Q100.635-33.8379 100.635-35.2539Q100.635-36.8164 99.6582-37.8174Q98.6816-38.8184 97.168-38.8184L75.7324-38.8184L75.7324-60.1562Q75.7324-61.7188 74.7314-62.7197Q73.7305-63.7207 72.2168-63.7207Q70.752-63.7207 69.7754-62.7197Q68.7988-61.7188 68.7988-60.1562L68.7988-38.8184L47.4609-38.8184Q45.8984-38.8184 44.9219-37.8174Q43.9453-36.8164 43.9453-35.2539Z"/>
  </g>
  <g id="Thin-L" transform="matrix(1 0 0 1 785.614 1556)">
   <path d="M119.092-83.3008Q116.65-85.6934 113.477-87.1338Q110.303-88.5742 105.835-89.209Q101.367-89.8438 95.1172-89.8438L45.752-89.8438Q37.0117-89.8438 31.6162-88.3545Q26.2207-86.8652 22.6074-83.2031Q18.9453-79.5898 17.5049-74.2432Q16.0645-68.8965 16.0645-60.1562L16.0645-10.8398Q16.0645-4.54102 16.6748-0.0976562Q17.2852 4.3457 18.7012 7.51953Q20.1172 10.6934 22.5098 13.0859Q25 15.4785 28.1738 16.9189Q31.3477 18.3594 35.791 18.9697Q40.2344 19.5801 46.4844 19.5801L95.1172 19.5801Q101.367 19.5801 105.835 18.9697Q110.303 18.3594 113.477 16.9189Q116.65 15.4785 119.092 13.0859Q121.533 10.6445 122.949 7.49512Q124.365 4.3457 124.951-0.0976562Q125.537-4.54102 125.537-10.8398L125.537-59.375Q125.537-65.6738 124.951-70.1416Q124.365-74.6094 122.949-77.7588Q121.533-80.9082 119.092-83.3008ZM121.631-61.0352L121.631-9.22852Q121.631-2.44141 120.312 2.34375Q118.994 7.12891 116.113 10.0586Q113.184 13.0859 108.325 14.3799Q103.467 15.6738 96.7285 15.6738L44.873 15.6738Q38.1836 15.6738 33.3252 14.3555Q28.4668 13.0371 25.4883 10.0586Q22.5586 7.12891 21.2891 2.34375Q20.0195-2.44141 20.0195-9.22852L20.0195-60.2539Q20.0195-67.4805 21.2891-72.4609Q22.5586-77.4414 25.4395-80.3711Q28.3691-83.3984 33.4229-84.668Q38.4766-85.9375 45.6055-85.9375L96.7285-85.9375Q103.467-85.9375 108.325-84.5947Q113.184-83.252 116.113-80.3223Q119.043-77.3438 120.337-72.5586Q121.631-67.7734 121.631-61.0352ZM43.1641-35.2539Q43.1641-34.5215 43.7744-33.9111Q44.3848-33.3008 45.2148-33.3008L68.7988-33.3008L68.7988-9.76562Q68.7988-8.88672 69.3848-8.27637Q69.9707-7.66602 70.752-7.66602Q71.6309-7.66602 72.2656-8.25195Q72.9004-8.83789 72.9004-9.76562L72.9004-33.3008L96.4844-33.3008Q97.3145-33.3008 97.9004-33.9111Q98.4863-34.5215 98.4863-35.2539Q98.4863-36.1816 97.9248-36.792Q97.3633-37.4023 96.4844-37.4023L72.9004-37.4023L72.9004-60.9375Q72.9004-61.8652 72.2656-62.4512Q71.6309-63.0371 70.752-63.0371Q69.9707-63.0371 69.3848-62.4268Q68.7988-61.8164 68.7988-60.9375L68.7988-37.4023L45.2148-37.4023Q44.3359-37.4023 43.75-36.792Q43.1641-36.1816 43.1641-35.2539Z"/>
  </g>
  <g id="Ultralight-L" transform="matrix(1 0 0 1 489.641 1556)">
   <path d="M117.822-82.7637Q115.576-85.0586 112.573-86.4502Q109.57-87.8418 105.176-88.501Q100.781-89.1602 94.3359-89.1602L44.9707-89.1602Q36.0352-89.1602 30.9082-87.6221Q25.7812-86.084 22.4121-82.7148Q19.043-79.3457 17.5537-74.292Q16.0645-69.2383 16.0645-60.2539L16.0645-10.791Q16.0645-4.3457 16.6992 0.0488281Q17.334 4.44336 18.7012 7.42188Q20.0684 10.4004 22.3145 12.5977Q24.6582 14.7949 27.6367 16.2109Q30.6152 17.627 34.9854 18.2861Q39.3555 18.9453 45.8008 18.9453L94.3359 18.9453Q100.781 18.9453 105.176 18.2861Q109.57 17.627 112.573 16.2109Q115.576 14.7949 117.822 12.5977Q120.068 10.3516 121.436 7.37305Q122.803 4.39453 123.438 0.0244141Q124.072-4.3457 124.072-10.791L124.072-59.375Q124.072-65.918 123.438-70.3125Q122.803-74.707 121.436-77.6367Q120.068-80.5664 117.822-82.7637ZM121.533-60.9863L121.533-9.22852Q121.533-2.00195 120.117 2.80762Q118.701 7.61719 115.82 10.5957Q112.842 13.5742 107.959 14.9658Q103.076 16.3574 95.8984 16.3574L44.2383 16.3574Q37.0605 16.3574 32.1777 14.9414Q27.2949 13.5254 24.3164 10.5957Q21.3867 7.61719 19.9951 2.80762Q18.6035-2.00195 18.6035-9.22852L18.6035-60.1074Q18.6035-67.8711 19.9707-72.9004Q21.3379-77.9297 24.2676-80.8594Q27.1973-83.8867 32.2998-85.2295Q37.4023-86.5723 45.0684-86.5723L95.8984-86.5723Q103.076-86.5723 107.959-85.1562Q112.842-83.7402 115.82-80.8105Q118.75-77.832 120.142-72.998Q121.533-68.1641 121.533-60.9863ZM42.7734-35.2539Q42.7734-34.8633 43.1885-34.4238Q43.6035-33.9844 44.0918-33.9844L68.75-33.9844L68.75-9.375Q68.75-8.83789 69.165-8.42285Q69.5801-8.00781 70.0195-8.00781Q70.6055-8.00781 71.0205-8.37402Q71.4355-8.74023 71.4355-9.375L71.4355-33.9844L96.1426-33.9844Q96.6309-33.9844 97.0459-34.4238Q97.4609-34.8633 97.4609-35.2539Q97.4609-35.8398 97.0703-36.2793Q96.6797-36.7188 96.1426-36.7188L71.4355-36.7188L71.4355-61.3281Q71.4355-61.9629 71.0205-62.3291Q70.6055-62.6953 70.0195-62.6953Q69.5801-62.6953 69.165-62.2803Q68.75-61.8652 68.75-61.3281L68.75-36.7188L44.0918-36.7188Q43.5547-36.7188 43.1641-36.2793Q42.7734-35.8398 42.7734-35.2539Z"/>
  </g>
  <g id="Black-M" transform="matrix(1 0 0 1 2873.1 1126)">
   <path d="M101.221-76.0254Q97.3145-79.9316 91.8945-81.4941Q86.4746-83.0566 77.9297-83.0566L42.6758-83.0566Q34.1797-83.0566 28.7354-81.4941Q23.291-79.9316 19.3848-76.0254Q15.5273-72.1191 13.9893-66.7725Q12.4512-61.4258 12.4512-52.832L12.4512-17.5781Q12.4512-8.98438 13.9893-3.58887Q15.5273 1.80664 19.3848 5.61523Q23.3398 9.52148 28.7598 11.084Q34.1797 12.6465 42.6758 12.6465L77.9297 12.6465Q86.4746 12.6465 91.8945 11.084Q97.3145 9.52148 101.221 5.61523Q105.127 1.75781 106.641-3.61328Q108.154-8.98438 108.154-17.5781L108.154-52.832Q108.154-61.4258 106.641-66.7969Q105.127-72.168 101.221-76.0254ZM90.8203-54.1992L90.8203-16.2109Q90.8203-12.2559 90.2588-10.3027Q89.6973-8.34961 88.4766-7.08008Q87.2559-5.85938 85.2539-5.27344Q83.252-4.6875 79.3457-4.6875L41.3086-4.6875Q37.4023-4.6875 35.4004-5.27344Q33.3984-5.85938 32.1289-7.08008Q30.9082-8.34961 30.3467-10.3027Q29.7852-12.2559 29.7852-16.2109L29.7852-54.1992Q29.7852-58.1543 30.3467-60.1074Q30.9082-62.0605 32.1289-63.2812Q33.3984-64.502 35.4004-65.1123Q37.4023-65.7227 41.3086-65.7227L79.3457-65.7227Q83.252-65.7227 85.2539-65.1123Q87.2559-64.502 88.4766-63.2812Q89.6973-62.0605 90.2588-60.1074Q90.8203-58.1543 90.8203-54.1992ZM38.0859-35.2539Q38.0859-32.373 39.9414-30.4443Q41.7969-28.5156 44.6289-28.5156L53.6133-28.5156L53.6133-19.5312Q53.6133-16.748 55.542-14.8682Q57.4707-12.9883 60.3516-12.9883Q63.2324-12.9883 65.1611-14.8682Q67.0898-16.748 67.0898-19.5312L67.0898-28.5156L76.0742-28.5156Q78.8574-28.5156 80.7373-30.4443Q82.6172-32.373 82.6172-35.2539Q82.6172-38.1348 80.7373-40.0635Q78.8574-41.9922 76.0742-41.9922L67.0898-41.9922L67.0898-50.9766Q67.0898-53.8086 65.1611-55.6641Q63.2324-57.5195 60.3516-57.5195Q57.4707-57.5195 55.542-55.6641Q53.6133-53.8086 53.6133-50.9766L53.6133-41.9922L44.6289-41.9922Q41.7969-41.9922 39.9414-40.0635Q38.0859-38.1348 38.0859-35.2539Z"/>
  </g>
  <g id="Heavy-M" transform="matrix(1 0 0 1 2577.05 1126)">
   <path d="M100.195-75.5859Q96.2891-79.4922 90.9424-80.9082Q85.5957-82.3242 77.5879-82.3242L41.6504-82.3242Q33.7402-82.3242 28.3447-80.9082Q22.9492-79.4922 19.0918-75.5859Q15.2832-71.7285 13.8672-66.4307Q12.4512-61.1328 12.4512-53.125L12.4512-17.2852Q12.4512-9.27734 13.8672-3.93066Q15.2832 1.41602 19.0918 5.22461Q22.998 9.08203 28.3691 10.498Q33.7402 11.9141 41.6992 11.9141L77.5879 11.9141Q85.5957 11.9141 90.9424 10.498Q96.2891 9.08203 100.195 5.22461Q104.053 1.36719 105.444-3.95508Q106.836-9.27734 106.836-17.2852L106.836-53.0762Q106.836-61.1328 105.444-66.4551Q104.053-71.7773 100.195-75.5859ZM91.6992-54.4434L91.6992-15.9668Q91.6992-12.0117 91.1133-9.66797Q90.5273-7.32422 89.0625-5.85938Q87.6465-4.39453 85.2539-3.78418Q82.8613-3.17383 78.9551-3.17383L40.332-3.17383Q36.4746-3.17383 34.082-3.78418Q31.6895-4.39453 30.1758-5.85938Q28.7109-7.32422 28.125-9.66797Q27.5391-12.0117 27.5391-15.9668L27.5391-54.4434Q27.5391-58.3496 28.125-60.7178Q28.7109-63.0859 30.1758-64.502Q31.6895-65.9668 34.082-66.6016Q36.4746-67.2363 40.3809-67.2363L78.9551-67.2363Q82.8613-67.2363 85.2539-66.6016Q87.6465-65.9668 89.0625-64.502Q90.5273-63.0371 91.1133-60.6934Q91.6992-58.3496 91.6992-54.4434ZM37.3047-35.2539Q37.3047-32.6172 38.9893-30.8838Q40.6738-29.1504 43.3105-29.1504L53.5645-29.1504L53.5645-18.8965Q53.5645-16.3574 55.2979-14.6484Q57.0312-12.9395 59.6191-12.9395Q62.2559-12.9395 64.0137-14.6484Q65.7715-16.3574 65.7715-18.8965L65.7715-29.1504L76.0254-29.1504Q78.6133-29.1504 80.3223-30.8838Q82.0312-32.6172 82.0312-35.2539Q82.0312-37.8906 80.3223-39.624Q78.6133-41.3574 76.0254-41.3574L65.7715-41.3574L65.7715-51.6113Q65.7715-54.248 64.0137-55.9326Q62.2559-57.6172 59.6191-57.6172Q57.0312-57.6172 55.2979-55.9326Q53.5645-54.248 53.5645-51.6113L53.5645-41.3574L43.3105-41.3574Q40.6738-41.3574 38.9893-39.624Q37.3047-37.8906 37.3047-35.2539Z"/>
  </g>
  <g id="Bold-M" transform="matrix(1 0 0 1 2281.09 1126)">
   <path d="M99.0234-75.1465Q95.166-78.9551 89.8682-80.249Q84.5703-81.543 77.1973-81.543L40.5273-81.543Q33.2031-81.543 27.9053-80.249Q22.6074-78.9551 18.7988-75.1465Q14.9902-71.3379 13.7207-66.0889Q12.4512-60.8398 12.4512-53.4668L12.4512-16.9922Q12.4512-9.57031 13.7207-4.29688Q14.9902 0.976562 18.7988 4.73633Q22.6562 8.59375 27.9297 9.86328Q33.2031 11.1328 40.5762 11.1328L77.1973 11.1328Q84.5703 11.1328 89.8682 9.86328Q95.166 8.59375 99.0234 4.73633Q102.832 0.976562 104.077-4.29688Q105.322-9.57031 105.322-16.9922L105.322-53.418Q105.322-60.8398 104.077-66.0889Q102.832-71.3379 99.0234-75.1465ZM92.7246-54.7852L92.7246-15.6738Q92.7246-11.7676 92.0898-9.00879Q91.4551-6.25 89.7461-4.49219Q88.0371-2.7832 85.2295-2.12402Q82.4219-1.46484 78.5645-1.46484L39.2578-1.46484Q35.4004-1.46484 32.5928-2.12402Q29.7852-2.7832 28.0273-4.49219Q26.3184-6.25 25.6836-9.00879Q25.0488-11.7676 25.0488-15.6738L25.0488-54.6875Q25.0488-58.5938 25.6836-61.4014Q26.3184-64.209 28.0273-65.918Q29.7363-67.627 32.5928-68.2861Q35.4492-68.9453 39.3066-68.9453L78.5645-68.9453Q82.4219-68.9453 85.2295-68.2861Q88.0371-67.627 89.7461-65.918Q91.5039-64.1602 92.1143-61.4014Q92.7246-58.6426 92.7246-54.7852ZM36.4746-35.2539Q36.4746-32.959 37.9883-31.4209Q39.502-29.8828 41.8457-29.8828L53.5156-29.8828L53.5156-18.2129Q53.5156-15.8691 55.0537-14.3555Q56.5918-12.8418 58.8867-12.8418Q61.2793-12.8418 62.8174-14.3555Q64.3555-15.8691 64.3555-18.2129L64.3555-29.8828L76.0254-29.8828Q78.3691-29.8828 79.8828-31.4209Q81.3965-32.959 81.3965-35.2539Q81.3965-37.6465 79.8828-39.1846Q78.3691-40.7227 76.0254-40.7227L64.3555-40.7227L64.3555-52.3926Q64.3555-54.7363 62.8174-56.25Q61.2793-57.7637 58.8867-57.7637Q56.5918-57.7637 55.0537-56.25Q53.5156-54.7363 53.5156-52.3926L53.5156-40.7227L41.8457-40.7227Q39.502-40.7227 37.9883-39.1846Q36.4746-37.6465 36.4746-35.2539Z"/>
  </g>
  <g id="Semibold-M" transform="matrix(1 0 0 1 1984.9 1126)">
   <path d="M98.1934-74.8047Q94.3848-78.6133 89.1357-79.7852Q83.8867-80.957 76.9043-80.957L39.7461-80.957Q32.8613-80.957 27.6123-79.7852Q22.3633-78.6133 18.5547-74.8047Q14.7949-70.9961 13.623-65.8203Q12.4512-60.6445 12.4512-53.7109L12.4512-16.7969Q12.4512-9.76562 13.5986-4.54102Q14.7461 0.683594 18.5547 4.39453Q22.3633 8.20312 27.6123 9.39941Q32.8613 10.5957 39.7949 10.5957L76.9043 10.5957Q83.8867 10.5957 89.1357 9.39941Q94.3848 8.20312 98.1934 4.39453Q101.953 0.634766 103.125-4.56543Q104.297-9.76562 104.297-16.7969L104.297-53.6133Q104.297-60.5957 103.125-65.8203Q101.953-71.0449 98.1934-74.8047ZM93.4082-54.9805L93.4082-15.4297Q93.4082-11.5723 92.749-8.52051Q92.0898-5.46875 90.1855-3.51562Q88.3301-1.61133 85.2051-0.952148Q82.0801-0.292969 78.2715-0.292969L38.4766-0.292969Q34.668-0.292969 31.543-0.952148Q28.418-1.61133 26.5137-3.51562Q24.6094-5.46875 23.9746-8.52051Q23.3398-11.5723 23.3398-15.4297L23.3398-54.8828Q23.3398-58.7402 23.9746-61.8408Q24.6094-64.9414 26.5137-66.8457Q28.418-68.75 31.5674-69.4092Q34.7168-70.0684 38.5742-70.0684L78.2715-70.0684Q82.0801-70.0684 85.2051-69.4092Q88.3301-68.75 90.1855-66.8457Q92.1387-64.9414 92.7734-61.8652Q93.4082-58.7891 93.4082-54.9805ZM35.8887-35.2539Q35.8887-33.1543 37.2803-31.7627Q38.6719-30.3711 40.8203-30.3711L53.4668-30.3711L53.4668-17.6758Q53.4668-15.5273 54.8584-14.1602Q56.25-12.793 58.3496-12.793Q60.5469-12.793 61.9385-14.1602Q63.3301-15.5273 63.3301-17.6758L63.3301-30.3711L76.0254-30.3711Q78.1738-30.3711 79.541-31.7627Q80.9082-33.1543 80.9082-35.2539Q80.9082-37.4512 79.541-38.8428Q78.1738-40.2344 76.0254-40.2344L63.3301-40.2344L63.3301-52.8809Q63.3301-55.0781 61.9385-56.4453Q60.5469-57.8125 58.3496-57.8125Q56.25-57.8125 54.8584-56.4209Q53.4668-55.0293 53.4668-52.8809L53.4668-40.2344L40.8203-40.2344Q38.623-40.2344 37.2559-38.8428Q35.8887-37.4512 35.8887-35.2539Z"/>
  </g>
  <g id="Medium-M" transform="matrix(1 0 0 1 1688.58 1126)">
   <path d="M97.5586-74.5605Q93.7988-78.3203 88.5742-79.4189Q83.3496-80.5176 76.709-80.5176L39.1602-80.5176Q32.5684-80.5176 27.3682-79.4189Q22.168-78.3203 18.3594-74.5605Q14.6484-70.8008 13.5498-65.625Q12.4512-60.4492 12.4512-53.8574L12.4512-16.6016Q12.4512-9.96094 13.5254-4.76074Q14.5996 0.439453 18.3594 4.15039Q22.168 7.95898 27.3682 9.05762Q32.5684 10.1562 39.209 10.1562L76.709 10.1562Q83.3496 10.1562 88.5742 9.05762Q93.7988 7.95898 97.5586 4.15039Q101.318 0.439453 102.417-4.76074Q103.516-9.96094 103.516-16.6016L103.516-53.7598Q103.516-60.4004 102.417-65.6006Q101.318-70.8008 97.5586-74.5605ZM93.9453-55.127L93.9453-15.2832Q93.9453-11.4746 93.2617-8.17871Q92.5781-4.88281 90.5762-2.7832Q88.5254-0.78125 85.1807-0.0976562Q81.8359 0.585938 78.0762 0.585938L37.8906 0.585938Q34.1309 0.585938 30.7861-0.0976562Q27.4414-0.78125 25.3418-2.7832Q23.3398-4.88281 22.6807-8.17871Q22.0215-11.4746 22.0215-15.2832L22.0215-54.9805Q22.0215-58.8867 22.6807-62.207Q23.3398-65.5273 25.3418-67.5781Q27.3926-69.6289 30.7861-70.2881Q34.1797-70.9473 38.0371-70.9473L78.0762-70.9473Q81.8359-70.9473 85.1807-70.2637Q88.5254-69.5801 90.5762-67.5781Q92.627-65.5273 93.2861-62.2314Q93.9453-58.9355 93.9453-55.127ZM35.4492-35.2539Q35.4492-33.3008 36.7432-32.0312Q38.0371-30.7617 40.0879-30.7617L53.4668-30.7617L53.4668-17.334Q53.4668-15.2832 54.7363-14.0137Q56.0059-12.7441 57.959-12.7441Q60.0098-12.7441 61.2793-14.0137Q62.5488-15.2832 62.5488-17.334L62.5488-30.7617L75.9766-30.7617Q78.0273-30.7617 79.2969-32.0312Q80.5664-33.3008 80.5664-35.2539Q80.5664-37.3047 79.2969-38.5986Q78.0273-39.8926 75.9766-39.8926L62.5488-39.8926L62.5488-53.2715Q62.5488-55.3223 61.2793-56.5918Q60.0098-57.8613 57.959-57.8613Q56.0059-57.8613 54.7363-56.5674Q53.4668-55.2734 53.4668-53.2715L53.4668-39.8926L40.0879-39.8926Q37.9883-39.8926 36.7188-38.5986Q35.4492-37.3047 35.4492-35.2539Z"/>
  </g>
  <g id="Regular-M" transform="matrix(1 0 0 1 1392.37 1126)">
   <path d="M96.7773-74.2188Q93.0176-77.9785 87.8418-78.9795Q82.666-79.9805 76.416-79.9805L38.3789-79.9805Q32.2266-79.9805 27.0752-78.9795Q21.9238-77.9785 18.1641-74.2188Q14.4531-70.5078 13.4521-65.3809Q12.4512-60.2539 12.4512-54.1016L12.4512-16.4062Q12.4512-10.1562 13.4277-5.00488Q14.4043 0.146484 18.1641 3.85742Q21.9238 7.61719 27.0752 8.61816Q32.2266 9.61914 38.4766 9.61914L76.416 9.61914Q82.666 9.61914 87.8418 8.61816Q93.0176 7.61719 96.7773 3.85742Q100.488 0.146484 101.489-5.00488Q102.49-10.1562 102.49-16.4062L102.49-53.9551Q102.49-60.2051 101.489-65.3564Q100.488-70.5078 96.7773-74.2188ZM94.6289-55.3223L94.6289-15.0879Q94.6289-11.2793 93.9209-7.69043Q93.2129-4.10156 91.0156-1.85547Q88.8184 0.341797 85.1807 1.0498Q81.543 1.75781 77.7832 1.75781L37.1582 1.75781Q33.3984 1.75781 29.7607 1.0498Q26.123 0.341797 23.877-1.85547Q21.6797-4.10156 20.9961-7.69043Q20.3125-11.2793 20.3125-15.0879L20.3125-55.1758Q20.3125-59.0332 20.9961-62.6709Q21.6797-66.3086 23.877-68.5059Q26.0742-70.752 29.7607-71.4355Q33.4473-72.1191 37.3047-72.1191L77.7832-72.1191Q81.543-72.1191 85.1807-71.4111Q88.8184-70.7031 91.0156-68.5059Q93.2617-66.2598 93.9453-62.6709Q94.6289-59.082 94.6289-55.3223ZM34.8633-35.2539Q34.8633-33.4961 36.0352-32.373Q37.207-31.25 39.0625-31.25L53.418-31.25L53.418-16.8457Q53.418-14.9902 54.541-13.8428Q55.6641-12.6953 57.4219-12.6953Q59.2773-12.6953 60.4248-13.8428Q61.5723-14.9902 61.5723-16.8457L61.5723-31.25L75.9766-31.25Q77.832-31.25 78.9795-32.373Q80.127-33.4961 80.127-35.2539Q80.127-37.1094 78.9795-38.2568Q77.832-39.4043 75.9766-39.4043L61.5723-39.4043L61.5723-53.7598Q61.5723-55.6641 60.4248-56.8115Q59.2773-57.959 57.4219-57.959Q55.6641-57.959 54.541-56.7871Q53.418-55.6152 53.418-53.7598L53.418-39.4043L39.0625-39.4043Q37.1582-39.4043 36.0107-38.2568Q34.8633-37.1094 34.8633-35.2539Z"/>
  </g>
  <g id="Light-M" transform="matrix(1 0 0 1 1096.65 1126)">
   <path d="M95.0684-73.584Q91.6504-76.9531 86.8408-78.0029Q82.0312-79.0527 75.3906-79.0527L37.2559-79.0527Q30.9082-79.0527 26.123-78.0029Q21.3379-76.9531 17.9199-73.5352Q14.5508-70.166 13.501-65.4053Q12.4512-60.6445 12.4512-54.248L12.4512-16.3574Q12.4512-9.7168 13.4766-4.93164Q14.502-0.146484 17.8711 3.22266Q21.3379 6.64062 26.123 7.69043Q30.9082 8.74023 37.5488 8.74023L75.3906 8.74023Q82.0312 8.74023 86.8652 7.69043Q91.6992 6.64062 95.0684 3.22266Q98.4375-0.146484 99.4873-4.93164Q100.537-9.7168 100.537-16.3574L100.537-53.9551Q100.537-60.5957 99.4873-65.4053Q98.4375-70.2148 95.0684-73.584ZM94.4824-55.2734L94.4824-15.0879Q94.4824-10.7422 93.6523-7.10449Q92.8223-3.4668 90.625-1.2207Q88.3789 1.02539 84.6924 1.85547Q81.0059 2.68555 76.709 2.68555L36.2793 2.68555Q31.9336 2.68555 28.2471 1.85547Q24.5605 1.02539 22.3145-1.2207Q20.0684-3.4668 19.2871-7.10449Q18.5059-10.7422 18.5059-15.0879L18.5059-54.9805Q18.5059-59.4727 19.2871-63.208Q20.0684-66.9434 22.3145-69.1406Q24.5117-71.4355 28.2959-72.2412Q32.0801-73.0469 36.5723-73.0469L76.709-73.0469Q81.0059-73.0469 84.6924-72.1924Q88.3789-71.3379 90.625-69.1406Q92.8711-66.8457 93.6768-63.2324Q94.4824-59.6191 94.4824-55.2734ZM34.3262-35.2539Q34.3262-33.9355 35.2295-33.0566Q36.1328-32.1777 37.5488-32.1777L53.3691-32.1777L53.3691-16.3086Q53.3691-14.9414 54.248-14.0381Q55.127-13.1348 56.4453-13.1348Q57.8613-13.1348 58.7402-14.0137Q59.6191-14.8926 59.6191-16.3086L59.6191-32.1777L75.5371-32.1777Q76.9043-32.1777 77.8076-33.0566Q78.7109-33.9355 78.7109-35.2539Q78.7109-36.6699 77.832-37.5732Q76.9531-38.4766 75.5371-38.4766L59.6191-38.4766L59.6191-54.2969Q59.6191-55.7617 58.7402-56.6406Q57.8613-57.5195 56.4453-57.5195Q55.127-57.5195 54.248-56.6162Q53.3691-55.7129 53.3691-54.2969L53.3691-38.4766L37.5488-38.4766Q36.084-38.4766 35.2051-37.5732Q34.3262-36.6699 34.3262-35.2539Z"/>
  </g>
  <g id="Thin-M" transform="matrix(1 0 0 1 801.237 1126)">
   <path d="M92.8223-72.7051Q89.8926-75.6348 85.5469-76.7334Q81.2012-77.832 74.0234-77.832L35.791-77.832Q29.1504-77.832 24.8291-76.709Q20.5078-75.5859 17.5781-72.6562Q14.6484-69.7266 13.5498-65.4541Q12.4512-61.1816 12.4512-54.4922L12.4512-16.3574Q12.4512-9.13086 13.5254-4.80957Q14.5996-0.488281 17.5293 2.39258Q20.5078 5.32227 24.8535 6.44531Q29.1992 7.56836 36.3281 7.56836L74.0234 7.56836Q81.2012 7.56836 85.5713 6.44531Q89.9414 5.32227 92.8223 2.39258Q95.8008-0.537109 96.8506-4.83398Q97.9004-9.13086 97.9004-16.3574L97.9004-53.9551Q97.9004-61.1328 96.8506-65.4785Q95.8008-69.8242 92.8223-72.7051ZM94.3359-55.2246L94.3359-15.0879Q94.3359-9.96094 93.335-6.29883Q92.334-2.63672 90.0879-0.341797Q87.8418 1.95312 84.1064 2.9541Q80.3711 3.95508 75.3418 3.95508L35.1074 3.95508Q30.0293 3.95508 26.2939 2.92969Q22.5586 1.9043 20.2637-0.341797Q17.9688-2.63672 17.041-6.29883Q16.1133-9.96094 16.1133-15.0879L16.1133-54.7363Q16.1133-60.1074 17.041-63.9404Q17.9688-67.7734 20.2148-70.0195Q22.5098-72.3145 26.3672-73.2666Q30.2246-74.2188 35.5957-74.2188L75.3418-74.2188Q80.3711-74.2188 84.1064-73.2178Q87.8418-72.2168 90.0879-69.9707Q92.3828-67.6758 93.3594-63.9893Q94.3359-60.3027 94.3359-55.2246ZM33.6426-35.2539Q33.6426-34.5215 34.2041-33.9844Q34.7656-33.4473 35.5469-33.4473L53.3691-33.4473L53.3691-15.6738Q53.3691-14.8438 53.9062-14.2822Q54.4434-13.7207 55.1758-13.7207Q56.0059-13.7207 56.5674-14.2578Q57.1289-14.7949 57.1289-15.6738L57.1289-33.4473L74.9512-33.4473Q75.7324-33.4473 76.2939-33.9844Q76.8555-34.5215 76.8555-35.2539Q76.8555-36.084 76.3184-36.6455Q75.7812-37.207 74.9512-37.207L57.1289-37.207L57.1289-54.9805Q57.1289-55.8594 56.5674-56.3721Q56.0059-56.8848 55.1758-56.8848Q54.4434-56.8848 53.9062-56.3477Q53.3691-55.8105 53.3691-54.9805L53.3691-37.207L35.5469-37.207Q34.7168-37.207 34.1797-36.6455Q33.6426-36.084 33.6426-35.2539Z"/>
  </g>
  <g id="Ultralight-M" transform="matrix(1 0 0 1 505.192 1126)">
   <path d="M91.6992-72.2656Q88.9648-74.9512 84.8633-76.0742Q80.7617-77.1973 73.3398-77.1973L35.0586-77.1973Q28.2227-77.1973 24.1699-76.0498Q20.1172-74.9023 17.4316-72.168Q14.7461-69.5312 13.5986-65.5029Q12.4512-61.4746 12.4512-54.5898L12.4512-16.3086Q12.4512-8.83789 13.5742-4.76074Q14.6973-0.683594 17.334 2.00195Q20.1172 4.6875 24.2188 5.81055Q28.3203 6.93359 35.6934 6.93359L73.3398 6.93359Q80.7617 6.93359 84.8877 5.81055Q89.0137 4.6875 91.6992 2.00195Q94.3848-0.732422 95.4834-4.78516Q96.582-8.83789 96.582-16.3086L96.582-53.9551Q96.582-61.4258 95.4834-65.5029Q94.3848-69.5801 91.6992-72.2656ZM94.2383-55.1758L94.2383-15.0879Q94.2383-9.61914 93.1641-5.9082Q92.0898-2.19727 89.8438 0.0976562Q87.5488 2.44141 83.7646 3.51562Q79.9805 4.58984 74.6094 4.58984L34.4727 4.58984Q29.0527 4.58984 25.2686 3.49121Q21.4844 2.39258 19.1895 0.0976562Q16.8945-2.19727 15.8691-5.9082Q14.8438-9.61914 14.8438-15.0879L14.8438-54.5898Q14.8438-60.4004 15.8691-64.2822Q16.8945-68.1641 19.1406-70.459Q21.4355-72.8027 25.3662-73.8281Q29.2969-74.8535 35.0586-74.8535L74.6094-74.8535Q79.9805-74.8535 83.7646-73.7549Q87.5488-72.6562 89.8438-70.3613Q92.1387-68.0664 93.1885-64.3799Q94.2383-60.6934 94.2383-55.1758ZM33.252-35.2539Q33.252-34.8145 33.6182-34.4482Q33.9844-34.082 34.5215-34.082L53.3203-34.082L53.3203-15.2832Q53.3203-14.7949 53.6865-14.4043Q54.0527-14.0137 54.4922-14.0137Q55.0293-14.0137 55.3955-14.3799Q55.7617-14.7461 55.7617-15.2832L55.7617-34.082L74.6094-34.082Q75.0977-34.082 75.4639-34.4482Q75.8301-34.8145 75.8301-35.2539Q75.8301-35.791 75.4883-36.1816Q75.1465-36.5723 74.6094-36.5723L55.7617-36.5723L55.7617-55.3711Q55.7617-55.9082 55.3955-56.25Q55.0293-56.5918 54.4922-56.5918Q54.0527-56.5918 53.6865-56.2256Q53.3203-55.8594 53.3203-55.3711L53.3203-36.5723L34.5215-36.5723Q33.9355-36.5723 33.5938-36.1816Q33.252-35.791 33.252-35.2539Z"/>
  </g>
  <g id="Black-S" transform="matrix(1 0 0 1 2885.99 696)">
   <path d="M79.541-67.2852Q76.4648-70.3125 72.2168-71.582Q67.9688-72.8516 61.1328-72.8516L33.6914-72.8516Q26.8555-72.8516 22.583-71.582Q18.3105-70.3125 15.2832-67.2852Q12.2559-64.2578 11.0107-60.0586Q9.76562-55.8594 9.76562-48.9258L9.76562-21.4844Q9.76562-14.5508 11.0107-10.3516Q12.2559-6.15234 15.2832-3.125Q18.3594-0.0976562 22.6074 1.17188Q26.8555 2.44141 33.6914 2.44141L61.1328 2.44141Q67.9688 2.44141 72.2412 1.17188Q76.5137-0.0976562 79.541-3.125Q82.5684-6.15234 83.8135-10.3516Q85.0586-14.5508 85.0586-21.4844L85.0586-48.9258Q85.0586-55.8594 83.8135-60.083Q82.5684-64.3066 79.541-67.2852ZM70.8984-50L70.8984-20.4102Q70.8984-17.2852 70.459-15.8691Q70.0195-14.4531 69.1406-13.5254Q68.2129-12.6465 66.7725-12.1826Q65.332-11.7188 62.207-11.7188L32.6172-11.7188Q29.4922-11.7188 28.0518-12.1826Q26.6113-12.6465 25.6836-13.5254Q24.8047-14.4531 24.3652-15.8691Q23.9258-17.2852 23.9258-20.4102L23.9258-50Q23.9258-53.1738 24.3652-54.5654Q24.8047-55.957 25.6836-56.8848Q26.6113-57.7637 28.0518-58.2275Q29.4922-58.6914 32.6172-58.6914L62.207-58.6914Q65.332-58.6914 66.7725-58.2275Q68.2129-57.7637 69.1406-56.8848Q70.0195-55.957 70.459-54.5654Q70.8984-53.1738 70.8984-50ZM30.0293-35.2539Q30.0293-32.959 31.5186-31.3965Q33.0078-29.834 35.2539-29.834L41.9922-29.834L41.9922-23.0957Q41.9922-20.8496 43.5547-19.3604Q45.1172-17.8711 47.4121-17.8711Q49.707-17.8711 51.2695-19.3604Q52.832-20.8496 52.832-23.0957L52.832-29.834L59.5703-29.834Q61.8164-29.834 63.3057-31.3965Q64.7949-32.959 64.7949-35.2539Q64.7949-37.5488 63.3057-39.1113Q61.8164-40.6738 59.5703-40.6738L52.832-40.6738L52.832-47.4121Q52.832-49.6582 51.2695-51.1475Q49.707-52.6367 47.4121-52.6367Q45.1172-52.6367 43.5547-51.1475Q41.9922-49.6582 41.9922-47.4121L41.9922-40.6738L35.2539-40.6738Q33.0078-40.6738 31.5186-39.1113Q30.0293-37.5488 30.0293-35.2539Z"/>
  </g>
  <g id="Heavy-S" transform="matrix(1 0 0 1 2589.73 696)">
   <path d="M78.8574-66.9922Q75.7812-70.0684 71.5332-71.2158Q67.2852-72.3633 60.9375-72.3633L32.959-72.3633Q26.6602-72.3633 22.3877-71.2158Q18.1152-70.0684 15.0879-66.9922Q12.0117-63.9648 10.8887-59.7656Q9.76562-55.5664 9.76562-49.1699L9.76562-21.2402Q9.76562-14.8438 10.8887-10.6445Q12.0117-6.44531 15.0879-3.41797Q18.1641-0.341797 22.4121 0.805664Q26.6602 1.95312 32.959 1.95312L60.9375 1.95312Q67.2852 1.95312 71.5576 0.805664Q75.8301-0.341797 78.8574-3.41797Q81.8848-6.44531 83.0322-10.6445Q84.1797-14.8438 84.1797-21.2402L84.1797-49.1699Q84.1797-55.5664 83.0322-59.79Q81.8848-64.0137 78.8574-66.9922ZM71.6797-50.2441L71.6797-20.166Q71.6797-17.1387 71.2402-15.4053Q70.8008-13.6719 69.7266-12.5488Q68.6035-11.4746 66.8213-11.0107Q65.0391-10.5469 62.0117-10.5469L31.8848-10.5469Q28.8574-10.5469 27.0996-11.0107Q25.3418-11.4746 24.2188-12.5488Q23.1445-13.6719 22.7051-15.4053Q22.2656-17.1387 22.2656-20.166L22.2656-50.1953Q22.2656-53.2715 22.7051-55.0049Q23.1445-56.7383 24.2188-57.8613Q25.3418-58.9355 27.0996-59.3994Q28.8574-59.8633 31.8848-59.8633L62.0117-59.8633Q65.0391-59.8633 66.8213-59.3994Q68.6035-58.9355 69.7266-57.8613Q70.8008-56.7383 71.2402-55.0049Q71.6797-53.2715 71.6797-50.2441ZM29.4434-35.2539Q29.4434-33.1055 30.835-31.6895Q32.2266-30.2734 34.3262-30.2734L41.9434-30.2734L41.9434-22.6074Q41.9434-20.5078 43.3838-19.1162Q44.8242-17.7246 46.9727-17.7246Q49.0723-17.7246 50.5127-19.1162Q51.9531-20.5078 51.9531-22.6074L51.9531-30.2734L59.6191-30.2734Q61.7188-30.2734 63.0859-31.6895Q64.4531-33.1055 64.4531-35.2539Q64.4531-37.4023 63.0859-38.8428Q61.7188-40.2832 59.6191-40.2832L51.9531-40.2832L51.9531-47.9004Q51.9531-50 50.5127-51.3916Q49.0723-52.7832 46.9727-52.7832Q44.8242-52.7832 43.3838-51.3916Q41.9434-50 41.9434-47.9004L41.9434-40.2832L34.3262-40.2832Q32.2266-40.2832 30.835-38.8428Q29.4434-37.4023 29.4434-35.2539Z"/>
  </g>
  <g id="Bold-S" transform="matrix(1 0 0 1 2293.52 696)">
   <path d="M78.125-66.6992Q75-69.7754 70.7764-70.8008Q66.5527-71.8262 60.791-71.8262L32.1777-71.8262Q26.416-71.8262 22.168-70.8008Q17.9199-69.7754 14.8438-66.6992Q11.7676-63.623 10.7666-59.4482Q9.76562-55.2734 9.76562-49.4629L9.76562-20.9961Q9.76562-15.1855 10.7666-10.9863Q11.7676-6.78711 14.8438-3.71094Q17.9199-0.683594 22.168 0.366211Q26.416 1.41602 32.1777 1.41602L60.791 1.41602Q66.5527 1.41602 70.8008 0.366211Q75.0488-0.683594 78.125-3.71094Q81.1523-6.78711 82.1533-10.9863Q83.1543-15.1855 83.1543-20.9961L83.1543-49.4141Q83.1543-55.2734 82.1533-59.4727Q81.1523-63.6719 78.125-66.6992ZM72.5586-50.4883L72.5586-19.9219Q72.5586-17.041 72.0947-14.917Q71.6309-12.793 70.3613-11.4746Q68.9941-10.2051 66.8701-9.7168Q64.7461-9.22852 61.8652-9.22852L31.1035-9.22852Q28.1738-9.22852 26.0498-9.7168Q23.9258-10.2051 22.6074-11.4746Q21.2891-12.793 20.8252-14.917Q20.3613-17.041 20.3613-19.9219L20.3613-50.4883Q20.3613-53.418 20.8252-55.5176Q21.2891-57.6172 22.6074-58.9355Q23.9258-60.2539 26.0498-60.7422Q28.1738-61.2305 31.1035-61.2305L61.8652-61.2305Q64.7461-61.2305 66.8701-60.7422Q68.9941-60.2539 70.3613-58.9355Q71.6309-57.6172 72.0947-55.5176Q72.5586-53.418 72.5586-50.4883ZM28.8086-35.2539Q28.8086-33.3008 30.0781-32.0312Q31.3477-30.7617 33.3008-30.7617L41.9434-30.7617L41.9434-22.0703Q41.9434-20.166 43.2129-18.8965Q44.4824-17.627 46.4844-17.627Q48.4375-17.627 49.7314-18.8965Q51.0254-20.166 51.0254-22.0703L51.0254-30.7617L59.668-30.7617Q61.6211-30.7617 62.8906-32.0312Q64.1602-33.3008 64.1602-35.2539Q64.1602-37.2559 62.8906-38.5498Q61.6211-39.8438 59.668-39.8438L51.0254-39.8438L51.0254-48.4863Q51.0254-50.4395 49.7314-51.709Q48.4375-52.9785 46.4844-52.9785Q44.4824-52.9785 43.2129-51.709Q41.9434-50.4395 41.9434-48.4863L41.9434-39.8438L33.3008-39.8438Q31.3477-39.8438 30.0781-38.5498Q28.8086-37.2559 28.8086-35.2539Z"/>
  </g>
  <g id="Semibold-S" transform="matrix(1 0 0 1 1997.15 696)">
   <path d="M77.5879-66.5039Q74.4629-69.5312 70.2393-70.4834Q66.0156-71.4355 60.6445-71.4355L31.5918-71.4355Q26.2207-71.4355 21.9727-70.4834Q17.7246-69.5312 14.6484-66.5039Q11.5723-63.3789 10.6689-59.2041Q9.76562-55.0293 9.76562-49.6094L9.76562-20.8008Q9.76562-15.3809 10.6689-11.1816Q11.5723-6.98242 14.6484-3.90625Q17.7734-0.878906 21.9971 0.0732422Q26.2207 1.02539 31.5918 1.02539L60.6445 1.02539Q66.0156 1.02539 70.2393 0.0732422Q74.4629-0.878906 77.5879-3.90625Q80.6152-6.98242 81.543-11.1816Q82.4707-15.3809 82.4707-20.8008L82.4707-49.6094Q82.4707-55.0293 81.543-59.2285Q80.6152-63.4277 77.5879-66.5039ZM73.1445-50.6836L73.1445-19.7266Q73.1445-16.8945 72.6807-14.5508Q72.2168-12.207 70.752-10.7422Q69.2871-9.27734 66.9189-8.78906Q64.5508-8.30078 61.7188-8.30078L30.5176-8.30078Q27.6855-8.30078 25.293-8.78906Q22.9004-9.27734 21.4355-10.7422Q20.0195-12.207 19.5312-14.5508Q19.043-16.8945 19.043-19.7266L19.043-50.6348Q19.043-53.5156 19.5312-55.8594Q20.0195-58.2031 21.4355-59.668Q22.9004-61.1328 25.293-61.6211Q27.6855-62.1094 30.5664-62.1094L61.7188-62.1094Q64.5508-62.1094 66.9189-61.6211Q69.2871-61.1328 70.752-59.668Q72.2168-58.2031 72.6807-55.8594Q73.1445-53.5156 73.1445-50.6836ZM28.3203-35.2539Q28.3203-33.4473 29.4922-32.251Q30.6641-31.0547 32.5684-31.0547L41.8945-31.0547L41.8945-21.6797Q41.8945-19.873 43.042-18.6768Q44.1895-17.4805 46.0938-17.4805Q47.9004-17.4805 49.1211-18.6768Q50.3418-19.873 50.3418-21.6797L50.3418-31.0547L59.668-31.0547Q61.5234-31.0547 62.6953-32.251Q63.8672-33.4473 63.8672-35.2539Q63.8672-37.1094 62.6953-38.3057Q61.5234-39.502 59.668-39.502L50.3418-39.502L50.3418-48.8281Q50.3418-50.6836 49.1211-51.8799Q47.9004-53.0762 46.0938-53.0762Q44.1895-53.0762 43.042-51.8799Q41.8945-50.6836 41.8945-48.8281L41.8945-39.502L32.5684-39.502Q30.6641-39.502 29.4922-38.3057Q28.3203-37.1094 28.3203-35.2539Z"/>
  </g>
  <g id="Medium-S" transform="matrix(1 0 0 1 1700.7 696)">
   <path d="M77.1973-66.3086Q74.0723-69.3848 69.8486-70.2637Q65.625-71.1426 60.5469-71.1426L31.1523-71.1426Q26.0742-71.1426 21.8506-70.2637Q17.627-69.3848 14.502-66.3086Q11.4746-63.2324 10.6201-59.0332Q9.76562-54.834 9.76562-49.7559L9.76562-20.7031Q9.76562-15.5762 10.6201-11.377Q11.4746-7.17773 14.502-4.10156Q17.627-1.02539 21.8506-0.146484Q26.0742 0.732422 31.1523 0.732422L60.5469 0.732422Q65.625 0.732422 69.8486-0.146484Q74.0723-1.02539 77.1973-4.10156Q80.2246-7.17773 81.0791-11.377Q81.9336-15.5762 81.9336-20.7031L81.9336-49.707Q81.9336-54.834 81.0791-59.0576Q80.2246-63.2812 77.1973-66.3086ZM73.6328-50.7812L73.6328-19.6289Q73.6328-16.8457 73.1445-14.2822Q72.6562-11.7188 71.0938-10.1562Q69.4824-8.59375 66.9189-8.10547Q64.3555-7.61719 61.6211-7.61719L30.0781-7.61719Q27.3438-7.61719 24.7559-8.10547Q22.168-8.59375 20.6055-10.1562Q19.043-11.7188 18.5547-14.2822Q18.0664-16.8457 18.0664-19.6289L18.0664-50.7812Q18.0664-53.5645 18.5547-56.1279Q19.043-58.6914 20.6055-60.2539Q22.168-61.8164 24.7559-62.3047Q27.3438-62.793 30.127-62.793L61.6211-62.793Q64.3555-62.793 66.9189-62.3047Q69.4824-61.8164 71.0938-60.2539Q72.6562-58.6914 73.1445-56.1279Q73.6328-53.5645 73.6328-50.7812ZM27.9785-35.2539Q27.9785-33.4961 29.0771-32.3975Q30.1758-31.2988 31.9824-31.2988L41.8457-31.2988L41.8457-21.4355Q41.8457-19.6777 42.9443-18.5547Q44.043-17.4316 45.8008-17.4316Q47.5586-17.4316 48.6816-18.5547Q49.8047-19.6777 49.8047-21.4355L49.8047-31.2988L59.668-31.2988Q61.4258-31.2988 62.5488-32.3975Q63.6719-33.4961 63.6719-35.2539Q63.6719-37.0117 62.5488-38.1348Q61.4258-39.2578 59.668-39.2578L49.8047-39.2578L49.8047-49.1211Q49.8047-50.8789 48.6816-52.0264Q47.5586-53.1738 45.8008-53.1738Q44.043-53.1738 42.9443-52.0264Q41.8457-50.8789 41.8457-49.1211L41.8457-39.2578L31.9824-39.2578Q30.1758-39.2578 29.0771-38.1348Q27.9785-37.0117 27.9785-35.2539Z"/>
  </g>
  <g id="Regular-S" transform="matrix(1 0 0 1 1404.34 696)">
   <path d="M76.6602-66.1133Q73.5352-69.1895 69.3115-69.9707Q65.0879-70.752 60.4004-70.752L30.6152-70.752Q25.9277-70.752 21.7041-69.9707Q17.4805-69.1895 14.3555-66.1133Q11.2793-62.9883 10.5225-58.8135Q9.76562-54.6387 9.76562-49.9512L9.76562-20.5078Q9.76562-15.7715 10.5225-11.5723Q11.2793-7.37305 14.3555-4.29688Q17.4805-1.2207 21.7041-0.439453Q25.9277 0.341797 30.6152 0.341797L60.4004 0.341797Q65.0879 0.341797 69.3115-0.439453Q73.5352-1.2207 76.6602-4.29688Q79.7363-7.37305 80.4932-11.5723Q81.25-15.7715 81.25-20.5078L81.25-49.9023Q81.25-54.6387 80.4932-58.8379Q79.7363-63.0371 76.6602-66.1133ZM74.2188-50.9766L74.2188-19.4336Q74.2188-16.748 73.7305-13.9404Q73.2422-11.1328 71.5332-9.42383Q69.7754-7.71484 66.9678-7.20215Q64.1602-6.68945 61.4746-6.68945L29.541-6.68945Q26.8555-6.68945 24.0234-7.20215Q21.1914-7.71484 19.4824-9.42383Q17.7734-11.1328 17.2852-13.9404Q16.7969-16.748 16.7969-19.4336L16.7969-50.9277Q16.7969-53.6621 17.2852-56.4697Q17.7734-59.2773 19.4824-60.9863Q21.1914-62.6953 24.0234-63.208Q26.8555-63.7207 29.5898-63.7207L61.4746-63.7207Q64.1602-63.7207 66.9678-63.208Q69.7754-62.6953 71.5332-60.9863Q73.2422-59.2773 73.7305-56.4697Q74.2188-53.6621 74.2188-50.9766ZM27.5391-35.2539Q27.5391-33.6426 28.5645-32.6416Q29.5898-31.6406 31.2988-31.6406L41.8457-31.6406L41.8457-21.0449Q41.8457-19.4336 42.8223-18.3838Q43.7988-17.334 45.459-17.334Q47.0703-17.334 48.1201-18.3838Q49.1699-19.4336 49.1699-21.0449L49.1699-31.6406L59.7168-31.6406Q61.377-31.6406 62.4023-32.6416Q63.4277-33.6426 63.4277-35.2539Q63.4277-36.9141 62.4023-37.9395Q61.377-38.9648 59.7168-38.9648L49.1699-38.9648L49.1699-49.5117Q49.1699-51.1719 48.1201-52.2217Q47.0703-53.2715 45.459-53.2715Q43.7988-53.2715 42.8223-52.2217Q41.8457-51.1719 41.8457-49.5117L41.8457-38.9648L31.2988-38.9648Q29.5898-38.9648 28.5645-37.9395Q27.5391-36.9141 27.5391-35.2539Z"/>
  </g>
  <g id="Light-S" transform="matrix(1 0 0 1 1108.49 696)">
   <path d="M75.1465-65.5273Q72.3633-68.3105 68.457-69.1162Q64.5508-69.9219 59.4727-69.9219L29.6387-69.9219Q24.7559-69.9219 20.8496-69.0918Q16.9434-68.2617 14.1602-65.5273Q11.377-62.6953 10.5713-58.8379Q9.76562-54.9805 9.76562-50.0977L9.76562-20.459Q9.76562-15.3809 10.5713-11.499Q11.377-7.61719 14.1113-4.83398Q16.9434-2.09961 20.8496-1.26953Q24.7559-0.439453 29.7852-0.439453L59.4727-0.439453Q64.5508-0.439453 68.457-1.26953Q72.3633-2.09961 75.1465-4.83398Q77.9297-7.61719 78.7354-11.499Q79.541-15.3809 79.541-20.459L79.541-49.9023Q79.541-54.9805 78.7354-58.8623Q77.9297-62.7441 75.1465-65.5273ZM74.1211-50.9277L74.1211-19.4336Q74.1211-16.2598 73.5107-13.4277Q72.9004-10.5957 71.1914-8.83789Q69.4336-7.08008 66.5771-6.46973Q63.7207-5.85938 60.5469-5.85938L28.7598-5.85938Q25.5859-5.85938 22.7051-6.46973Q19.8242-7.08008 18.1152-8.83789Q16.3574-10.5957 15.7715-13.4277Q15.1855-16.2598 15.1855-19.4336L15.1855-50.7812Q15.1855-54.0527 15.7715-56.9336Q16.3574-59.8145 18.0664-61.5723Q19.8242-63.2812 22.7295-63.8916Q25.6348-64.502 28.9551-64.502L60.5469-64.502Q63.7207-64.502 66.5771-63.8916Q69.4336-63.2812 71.1914-61.5234Q72.9004-59.8145 73.5107-56.9824Q74.1211-54.1504 74.1211-50.9277ZM27.0508-35.2539Q27.0508-34.0332 27.8564-33.252Q28.6621-32.4707 29.9316-32.4707L41.7969-32.4707L41.7969-20.6055Q41.7969-19.3848 42.5537-18.5547Q43.3105-17.7246 44.5801-17.7246Q45.8008-17.7246 46.6309-18.5303Q47.4609-19.3359 47.4609-20.6055L47.4609-32.4707L59.2773-32.4707Q60.5469-32.4707 61.3525-33.252Q62.1582-34.0332 62.1582-35.2539Q62.1582-36.5234 61.3525-37.3291Q60.5469-38.1348 59.2773-38.1348L47.4609-38.1348L47.4609-50Q47.4609-51.2695 46.6309-52.0752Q45.8008-52.8809 44.5801-52.8809Q43.3105-52.8809 42.5537-52.0508Q41.7969-51.2207 41.7969-50L41.7969-38.1348L29.9316-38.1348Q28.6133-38.1348 27.832-37.3291Q27.0508-36.5234 27.0508-35.2539Z"/>
  </g>
  <g id="Thin-S" transform="matrix(1 0 0 1 812.918 696)">
   <path d="M73.1934-64.7461Q70.752-67.1387 67.2607-67.9932Q63.7695-68.8477 58.3008-68.8477L28.3691-68.8477Q23.1934-68.8477 19.7266-67.9688Q16.2598-67.0898 13.8672-64.6973Q11.4746-62.3047 10.6201-58.8867Q9.76562-55.4688 9.76562-50.2441L9.76562-20.459Q9.76562-14.8926 10.6201-11.4258Q11.4746-7.95898 13.8184-5.61523Q16.2109-3.22266 19.7266-2.34375Q23.2422-1.46484 28.7109-1.46484L58.3008-1.46484Q63.7695-1.46484 67.2852-2.34375Q70.8008-3.22266 73.1934-5.61523Q75.5371-7.95898 76.3916-11.4258Q77.2461-14.8926 77.2461-20.459L77.2461-49.9023Q77.2461-55.4688 76.3916-58.9355Q75.5371-62.4023 73.1934-64.7461ZM73.9258-50.9277L73.9258-19.4336Q73.9258-15.5762 73.1934-12.6953Q72.4609-9.81445 70.7031-8.05664Q68.9453-6.25 66.0156-5.51758Q63.0859-4.78516 59.2773-4.78516L27.7344-4.78516Q23.9258-4.78516 20.9961-5.51758Q18.0664-6.25 16.2598-8.05664Q14.502-9.81445 13.7939-12.6953Q13.0859-15.5762 13.0859-19.4336L13.0859-50.5371Q13.0859-54.5898 13.7939-57.5684Q14.502-60.5469 16.2598-62.3047Q18.0176-64.1113 21.0205-64.8193Q24.0234-65.5273 28.0762-65.5273L59.2773-65.5273Q63.0859-65.5273 66.0156-64.7949Q68.9453-64.0625 70.7031-62.3047Q72.4609-60.498 73.1934-57.6172Q73.9258-54.7363 73.9258-50.9277ZM26.4648-35.2539Q26.4648-34.5703 26.9531-34.082Q27.4414-33.5938 28.2227-33.5938L41.7969-33.5938L41.7969-19.9707Q41.7969-19.2871 42.2852-18.7744Q42.7734-18.2617 43.457-18.2617Q44.1895-18.2617 44.7021-18.75Q45.2148-19.2383 45.2148-19.9707L45.2148-33.5938L58.7891-33.5938Q59.5215-33.5938 60.0342-34.082Q60.5469-34.5703 60.5469-35.2539Q60.5469-35.9863 60.0586-36.499Q59.5703-37.0117 58.7891-37.0117L45.2148-37.0117L45.2148-50.5859Q45.2148-51.3672 44.7021-51.8555Q44.1895-52.3438 43.457-52.3438Q42.7734-52.3438 42.2852-51.8311Q41.7969-51.3184 41.7969-50.5859L41.7969-37.0117L28.2227-37.0117Q27.4414-37.0117 26.9531-36.499Q26.4648-35.9863 26.4648-35.2539Z"/>
  </g>
  <g id="Ultralight-S" transform="matrix(1 0 0 1 516.792 696)">
   <path d="M72.168-64.3555Q69.9707-66.5039 66.6992-67.4072Q63.4277-68.3105 57.666-68.3105L27.6855-68.3105Q22.3633-68.3105 19.1162-67.3828Q15.8691-66.4551 13.7207-64.3066Q11.5723-62.1094 10.6689-58.9111Q9.76562-55.7129 9.76562-50.3418L9.76562-20.4102Q9.76562-14.6484 10.6445-11.377Q11.5234-8.10547 13.6719-5.95703Q15.8691-3.80859 19.1406-2.90527Q22.4121-2.00195 28.1738-2.00195L57.666-2.00195Q63.4277-2.00195 66.6992-2.90527Q69.9707-3.80859 72.168-5.95703Q74.3164-8.1543 75.1953-11.4014Q76.0742-14.6484 76.0742-20.4102L76.0742-49.9023Q76.0742-55.6641 75.1953-58.9355Q74.3164-62.207 72.168-64.3555ZM73.877-50.8789L73.877-19.4336Q73.877-15.2344 73.0713-12.3535Q72.2656-9.47266 70.459-7.66602Q68.7012-5.85938 65.7471-5.05371Q62.793-4.24805 58.6426-4.24805L27.1973-4.24805Q23.0469-4.24805 20.0928-5.05371Q17.1387-5.85938 15.332-7.66602Q13.5742-9.47266 12.7686-12.3535Q11.9629-15.2344 11.9629-19.4336L11.9629-50.4395Q11.9629-54.8828 12.7686-57.8857Q13.5742-60.8887 15.2832-62.6953Q17.0898-64.502 20.166-65.2832Q23.2422-66.0645 27.6367-66.0645L58.6426-66.0645Q62.793-66.0645 65.7471-65.2588Q68.7012-64.4531 70.459-62.6465Q72.2656-60.8887 73.0713-57.9834Q73.877-55.0781 73.877-50.8789ZM26.123-35.2539Q26.123-34.8145 26.4648-34.4727Q26.8066-34.1309 27.2949-34.1309L41.748-34.1309L41.748-19.6777Q41.748-19.2383 42.0898-18.8965Q42.4316-18.5547 42.8223-18.5547Q43.3594-18.5547 43.7012-18.8721Q44.043-19.1895 44.043-19.6777L44.043-34.1309L58.4961-34.1309Q58.9844-34.1309 59.3262-34.4727Q59.668-34.8145 59.668-35.2539Q59.668-35.7422 59.3262-36.1084Q58.9844-36.4746 58.4961-36.4746L44.043-36.4746L44.043-50.9277Q44.043-51.416 43.7012-51.7334Q43.3594-52.0508 42.8223-52.0508Q42.4316-52.0508 42.0898-51.709Q41.748-51.3672 41.748-50.9277L41.748-36.4746L27.2949-36.4746Q26.7578-36.4746 26.4404-36.1084Q26.123-35.7422 26.123-35.2539Z"/>
  </g>
 </g>
</svg>
