<?xml version="1.0" encoding="UTF-8"?>
<!--Generator: Apple Native CoreSVG 175.5-->
<!DOCTYPE svg
PUBLIC "-//W3C//DTD SVG 1.1//EN"
       "http://www.w3.org/Graphics/SVG/1.1/DTD/svg11.dtd">
<svg version="1.1" xmlns="http://www.w3.org/2000/svg" xmlns:xlink="http://www.w3.org/1999/xlink" width="3300" height="2200">
 <!--glyph: "uni1008F7.medium", point size: 100.0, font version: "18.0d10e1", template writer version: "90"-->
 <g id="Notes">
  <rect height="2200" id="artboard" style="fill:white;opacity:1" width="3300" x="0" y="0"/>
  <line style="fill:none;stroke:black;opacity:1;stroke-width:0.5;" x1="263" x2="3036" y1="292" y2="292"/>
  <text style="stroke:none;fill:black;font-family:sans-serif;font-size:13;font-weight:bold;" transform="matrix(1 0 0 1 263 322)">Weight/Scale Variations</text>
  <text style="stroke:none;fill:black;font-family:sans-serif;font-size:13;text-anchor:middle;" transform="matrix(1 0 0 1 559.711 322)">Ultralight</text>
  <text style="stroke:none;fill:black;font-family:sans-serif;font-size:13;text-anchor:middle;" transform="matrix(1 0 0 1 856.422 322)">Thin</text>
  <text style="stroke:none;fill:black;font-family:sans-serif;font-size:13;text-anchor:middle;" transform="matrix(1 0 0 1 1153.13 322)">Light</text>
  <text style="stroke:none;fill:black;font-family:sans-serif;font-size:13;text-anchor:middle;" transform="matrix(1 0 0 1 1449.84 322)">Regular</text>
  <text style="stroke:none;fill:black;font-family:sans-serif;font-size:13;text-anchor:middle;" transform="matrix(1 0 0 1 1746.56 322)">Medium</text>
  <text style="stroke:none;fill:black;font-family:sans-serif;font-size:13;text-anchor:middle;" transform="matrix(1 0 0 1 2043.27 322)">Semibold</text>
  <text style="stroke:none;fill:black;font-family:sans-serif;font-size:13;text-anchor:middle;" transform="matrix(1 0 0 1 2339.98 322)">Bold</text>
  <text style="stroke:none;fill:black;font-family:sans-serif;font-size:13;text-anchor:middle;" transform="matrix(1 0 0 1 2636.69 322)">Heavy</text>
  <text style="stroke:none;fill:black;font-family:sans-serif;font-size:13;text-anchor:middle;" transform="matrix(1 0 0 1 2933.4 322)">Black</text>
  <line style="fill:none;stroke:black;opacity:1;stroke-width:0.5;" x1="263" x2="3036" y1="1903" y2="1903"/>
  <g transform="matrix(1 0 0 1 263 1933)">
   <path d="M9.24805 0.830078C13.5547 0.830078 17.1387-2.74414 17.1387-7.05078C17.1387-11.3574 13.5449-14.9316 9.23828-14.9316C4.94141-14.9316 1.36719-11.3574 1.36719-7.05078C1.36719-2.74414 4.95117 0.830078 9.24805 0.830078ZM9.24805-0.654297C5.70312-0.654297 2.87109-3.49609 2.87109-7.05078C2.87109-10.6055 5.69336-13.4473 9.23828-13.4473C12.793-13.4473 15.6445-10.6055 15.6445-7.05078C15.6445-3.49609 12.8027-0.654297 9.24805-0.654297ZM5.6543-7.05078C5.6543-6.62109 5.95703-6.32812 6.40625-6.32812L8.50586-6.32812L8.50586-4.20898C8.50586-3.76953 8.79883-3.4668 9.22852-3.4668C9.67773-3.4668 9.9707-3.76953 9.9707-4.20898L9.9707-6.32812L12.0898-6.32812C12.5293-6.32812 12.832-6.62109 12.832-7.05078C12.832-7.49023 12.5293-7.79297 12.0898-7.79297L9.9707-7.79297L9.9707-9.90234C9.9707-10.3516 9.67773-10.6543 9.22852-10.6543C8.79883-10.6543 8.50586-10.3516 8.50586-9.90234L8.50586-7.79297L6.40625-7.79297C5.95703-7.79297 5.6543-7.49023 5.6543-7.05078Z"/>
  </g>
  <g transform="matrix(1 0 0 1 281.867 1933)">
   <path d="M11.709 2.91016C17.1582 2.91016 21.6699-1.61133 21.6699-7.05078C21.6699-12.5 17.1484-17.0117 11.6992-17.0117C6.25977-17.0117 1.74805-12.5 1.74805-7.05078C1.74805-1.61133 6.26953 2.91016 11.709 2.91016ZM11.709 1.25C7.09961 1.25 3.41797-2.44141 3.41797-7.05078C3.41797-11.6602 7.08984-15.3516 11.6992-15.3516C16.3086-15.3516 20.0098-11.6602 20.0098-7.05078C20.0098-2.44141 16.3184 1.25 11.709 1.25ZM7.17773-7.05078C7.17773-6.57227 7.50977-6.25 8.00781-6.25L10.8789-6.25L10.8789-3.36914C10.8789-2.88086 11.2109-2.53906 11.6895-2.53906C12.1777-2.53906 12.5195-2.87109 12.5195-3.36914L12.5195-6.25L15.4004-6.25C15.8887-6.25 16.2305-6.57227 16.2305-7.05078C16.2305-7.53906 15.8887-7.88086 15.4004-7.88086L12.5195-7.88086L12.5195-10.752C12.5195-11.25 12.1777-11.5918 11.6895-11.5918C11.2109-11.5918 10.8789-11.25 10.8789-10.752L10.8789-7.88086L8.00781-7.88086C7.50977-7.88086 7.17773-7.53906 7.17773-7.05078Z"/>
  </g>
  <g transform="matrix(1 0 0 1 305.646 1933)">
   <path d="M14.9707 5.66406C21.9336 5.66406 27.6953-0.0976562 27.6953-7.05078C27.6953-14.0137 21.9238-19.7754 14.9609-19.7754C8.00781-19.7754 2.25586-14.0137 2.25586-7.05078C2.25586-0.0976562 8.01758 5.66406 14.9707 5.66406ZM14.9707 3.84766C8.93555 3.84766 4.08203-1.01562 4.08203-7.05078C4.08203-13.0957 8.92578-17.9492 14.9609-17.9492C21.0059-17.9492 25.8691-13.0957 25.8691-7.05078C25.8691-1.01562 21.0156 3.84766 14.9707 3.84766ZM9.19922-7.05078C9.19922-6.5332 9.57031-6.17188 10.1172-6.17188L14.0625-6.17188L14.0625-2.2168C14.0625-1.67969 14.4336-1.29883 14.9512-1.29883C15.4883-1.29883 15.8594-1.66992 15.8594-2.2168L15.8594-6.17188L19.8145-6.17188C20.3516-6.17188 20.7324-6.5332 20.7324-7.05078C20.7324-7.59766 20.3613-7.96875 19.8145-7.96875L15.8594-7.96875L15.8594-11.9141C15.8594-12.4609 15.4883-12.8418 14.9512-12.8418C14.4336-12.8418 14.0625-12.4609 14.0625-11.9141L14.0625-7.96875L10.1172-7.96875C9.57031-7.96875 9.19922-7.59766 9.19922-7.05078Z"/>
  </g>
  <text style="stroke:none;fill:black;font-family:sans-serif;font-size:13;font-weight:bold;" transform="matrix(1 0 0 1 263 1953)">Design Variations</text>
  <text style="stroke:none;fill:black;font-family:sans-serif;font-size:13;" transform="matrix(1 0 0 1 263 1971)">Symbols are supported in up to nine weights and three scales.</text>
  <text style="stroke:none;fill:black;font-family:sans-serif;font-size:13;" transform="matrix(1 0 0 1 263 1989)">For optimal layout with text and other symbols, vertically align</text>
  <text style="stroke:none;fill:black;font-family:sans-serif;font-size:13;" transform="matrix(1 0 0 1 263 2007)">symbols with the adjacent text.</text>
  <line style="fill:none;stroke:#00AEEF;stroke-width:0.5;opacity:1.0;" x1="776" x2="776" y1="1919" y2="1933"/>
  <g transform="matrix(1 0 0 1 776 1933)">
   <path d="M3.31055 0.15625C3.82812 0.15625 4.08203-0.0390625 4.26758-0.585938L5.52734-4.0332L11.2891-4.0332L12.5488-0.585938C12.7344-0.0390625 12.9883 0.15625 13.4961 0.15625C14.0137 0.15625 14.3457-0.15625 14.3457-0.644531C14.3457-0.810547 14.3164-0.966797 14.2383-1.17188L9.6582-13.3691C9.43359-13.9648 9.0332-14.2676 8.4082-14.2676C7.80273-14.2676 7.39258-13.9746 7.17773-13.3789L2.59766-1.16211C2.51953-0.957031 2.49023-0.800781 2.49023-0.634766C2.49023-0.146484 2.80273 0.15625 3.31055 0.15625ZM6.00586-5.51758L8.37891-12.0898L8.42773-12.0898L10.8008-5.51758Z"/>
  </g>
  <line style="fill:none;stroke:#00AEEF;stroke-width:0.5;opacity:1.0;" x1="793.197" x2="793.197" y1="1919" y2="1933"/>
  <text style="stroke:none;fill:black;font-family:sans-serif;font-size:13;font-weight:bold;" transform="matrix(1 0 0 1 776 1953)">Margins</text>
  <text style="stroke:none;fill:black;font-family:sans-serif;font-size:13;" transform="matrix(1 0 0 1 776 1971)">Leading and trailing margins on the left and right side of each symbol</text>
  <text style="stroke:none;fill:black;font-family:sans-serif;font-size:13;" transform="matrix(1 0 0 1 776 1989)">can be adjusted by modifying the x-location of the margin guidelines.</text>
  <text style="stroke:none;fill:black;font-family:sans-serif;font-size:13;" transform="matrix(1 0 0 1 776 2007)">Modifications are automatically applied proportionally to all</text>
  <text style="stroke:none;fill:black;font-family:sans-serif;font-size:13;" transform="matrix(1 0 0 1 776 2025)">scales and weights.</text>
  <g transform="matrix(1 0 0 1 1289 1933)">
   <path d="M2.8418 1.86523L4.54102 3.57422C5.40039 4.44336 6.38672 4.38477 7.31445 3.35938L18.0078-8.42773L17.041-9.4043L6.42578 2.27539C6.07422 2.67578 5.74219 2.77344 5.27344 2.30469L4.10156 1.14258C3.63281 0.683594 3.74023 0.341797 4.14062-0.0195312L15.6152-10.8203L14.6387-11.7871L3.04688-0.898438C2.06055 0.0195312 1.98242 0.996094 2.8418 1.86523ZM9.25781-16.3281C8.83789-15.918 8.80859-15.3418 9.04297-14.9512C9.27734-14.5898 9.73633-14.3555 10.3809-14.5215C11.8457-14.8633 13.3691-14.9219 14.7949-13.9844L14.209-12.5293C13.8672-11.6992 14.043-11.1133 14.5801-10.5664L16.875-8.25195C17.3633-7.76367 17.7734-7.74414 18.3398-7.8418L19.4043-8.03711L20.0684-7.36328L20.0293-6.80664C19.9902-6.30859 20.1172-5.92773 20.6055-5.44922L21.3672-4.70703C21.8457-4.22852 22.4609-4.19922 22.9297-4.66797L25.8398-7.58789C26.3086-8.05664 26.2891-8.65234 25.8105-9.13086L25.0391-9.89258C24.5605-10.3711 24.1895-10.5273 23.7109-10.4883L23.1348-10.4395L22.4902-11.0742L22.7344-12.1973C22.8613-12.7637 22.7051-13.2031 22.1191-13.7891L19.9219-15.9766C16.582-19.2969 12.1484-19.2188 9.25781-16.3281ZM10.752-15.957C13.1836-17.7344 16.4746-17.4316 18.7012-15.2051L21.1328-12.793C21.3672-12.5586 21.4062-12.373 21.3379-12.0312L21.0156-10.5469L22.5195-9.0625L23.5059-9.12109C23.7598-9.13086 23.8379-9.11133 24.0332-8.91602L24.6094-8.33984L22.168-5.89844L21.5918-6.47461C21.3965-6.66992 21.3672-6.74805 21.377-7.01172L21.4453-7.98828L19.9512-9.47266L18.4277-9.21875C18.1055-9.15039 17.959-9.17969 17.7148-9.41406L15.7129-11.416C15.459-11.6504 15.4297-11.8164 15.5859-12.1875L16.4648-14.2773C14.9023-15.7324 12.8711-16.3574 10.8398-15.7617C10.6836-15.7227 10.625-15.8496 10.752-15.957Z"/>
  </g>
  <text style="stroke:none;fill:black;font-family:sans-serif;font-size:13;font-weight:bold;" transform="matrix(1 0 0 1 1289 1953)">Exporting</text>
  <text style="stroke:none;fill:black;font-family:sans-serif;font-size:13;" transform="matrix(1 0 0 1 1289 1971)">Symbols should be outlined when exporting to ensure the</text>
  <text style="stroke:none;fill:black;font-family:sans-serif;font-size:13;" transform="matrix(1 0 0 1 1289 1989)">design is preserved when submitting to Xcode.</text>
  <text id="template-version" style="stroke:none;fill:black;font-family:sans-serif;font-size:13;text-anchor:end;" transform="matrix(1 0 0 1 3036 1933)">Template v.4.0</text>
  <text style="stroke:none;fill:black;font-family:sans-serif;font-size:13;text-anchor:end;" transform="matrix(1 0 0 1 3036 1951)">Requires Xcode 14 or greater</text>
  <text id="descriptive-name" style="stroke:none;fill:black;font-family:sans-serif;font-size:13;text-anchor:end;" transform="matrix(1 0 0 1 3036 1969)">Generated from paintbrush.pointed.fill</text>
  <text style="stroke:none;fill:black;font-family:sans-serif;font-size:13;text-anchor:end;" transform="matrix(1 0 0 1 3036 1987)">Typeset at 100 points</text>
  <text style="stroke:none;fill:black;font-family:sans-serif;font-size:13;" transform="matrix(1 0 0 1 263 726)">Small</text>
  <text style="stroke:none;fill:black;font-family:sans-serif;font-size:13;" transform="matrix(1 0 0 1 263 1156)">Medium</text>
  <text style="stroke:none;fill:black;font-family:sans-serif;font-size:13;" transform="matrix(1 0 0 1 263 1586)">Large</text>
 </g>
 <g id="Guides">
  <g id="H-reference" style="fill:#27AAE1;stroke:none;" transform="matrix(1 0 0 1 339 696)">
   <path d="M0.993654 0L3.63775 0L29.3281-67.1323L30.0303-67.1323L30.0303-70.459L28.1226-70.459ZM11.6885-24.4799L46.9815-24.4799L46.2315-26.7285L12.4385-26.7285ZM55.1196 0L57.7637 0L30.6382-70.459L29.4326-70.459L29.4326-67.1323Z"/>
  </g>
  <line id="Baseline-S" style="fill:none;stroke:#27AAE1;opacity:1;stroke-width:0.5;" x1="263" x2="3036" y1="696" y2="696"/>
  <line id="Capline-S" style="fill:none;stroke:#27AAE1;opacity:1;stroke-width:0.5;" x1="263" x2="3036" y1="625.541" y2="625.541"/>
  <g id="H-reference" style="fill:#27AAE1;stroke:none;" transform="matrix(1 0 0 1 339 1126)">
   <path d="M0.993654 0L3.63775 0L29.3281-67.1323L30.0303-67.1323L30.0303-70.459L28.1226-70.459ZM11.6885-24.4799L46.9815-24.4799L46.2315-26.7285L12.4385-26.7285ZM55.1196 0L57.7637 0L30.6382-70.459L29.4326-70.459L29.4326-67.1323Z"/>
  </g>
  <line id="Baseline-M" style="fill:none;stroke:#27AAE1;opacity:1;stroke-width:0.5;" x1="263" x2="3036" y1="1126" y2="1126"/>
  <line id="Capline-M" style="fill:none;stroke:#27AAE1;opacity:1;stroke-width:0.5;" x1="263" x2="3036" y1="1055.54" y2="1055.54"/>
  <g id="H-reference" style="fill:#27AAE1;stroke:none;" transform="matrix(1 0 0 1 339 1556)">
   <path d="M0.993654 0L3.63775 0L29.3281-67.1323L30.0303-67.1323L30.0303-70.459L28.1226-70.459ZM11.6885-24.4799L46.9815-24.4799L46.2315-26.7285L12.4385-26.7285ZM55.1196 0L57.7637 0L30.6382-70.459L29.4326-70.459L29.4326-67.1323Z"/>
  </g>
  <line id="Baseline-L" style="fill:none;stroke:#27AAE1;opacity:1;stroke-width:0.5;" x1="263" x2="3036" y1="1556" y2="1556"/>
  <line id="Capline-L" style="fill:none;stroke:#27AAE1;opacity:1;stroke-width:0.5;" x1="263" x2="3036" y1="1485.54" y2="1485.54"/>
  <line id="left-margin-Regular-M" style="fill:none;stroke:#00AEEF;stroke-width:0.5;opacity:1.0;" x1="1385.64" x2="1385.64" y1="1030.79" y2="1150.12"/>
  <line id="right-margin-Regular-M" style="fill:none;stroke:#00AEEF;stroke-width:0.5;opacity:1.0;" x1="1514.05" x2="1514.05" y1="1030.79" y2="1150.12"/>
 </g>
 <g id="Symbols">
  <g id="Black-L" transform="matrix(1 0 0 1 2841.43 1556)">
   <path d="M19.638 23.1281C33.9419 38.7004 60.1217 41.4675 75.8044 27.0556C88.464 15.4686 88.7845-1.21402 77.5048-13.5015C67.2629-24.6447 51.6524-26.5486 40.978-16.5969C31.9319-8.40457 35.4509 0.143438 31.027 4.04253C26.5234 8.13152 20.703 5.37088 16.6953 9.03638C12.5053 12.893 14.9355 18.1835 19.638 23.1281ZM84.4132-22.3672C90.1653-16.6152 94.0047-9.75309 95.5306-3.02969C99.589-3.89709 103.079-5.58918 106.465-8.33287C107.202-8.89507 107.859-9.49246 108.575-10.1339C106.683-28.2868 90.7625-44.6934 72.2031-46.4508C71.6201-45.7926 71.0203-45.1928 70.5165-44.5138C67.5964-41.0096 65.8459-37.3238 65.0369-33.341C71.7591-31.8783 78.7196-28.0621 84.4132-22.3672ZM145.808-104.495C142.621-102.237 108.486-79.0964 85.6864-59.2228C102.517-53.2581 115.421-40.2479 121.349-23.5796C141.22-46.3592 164.423-80.4932 166.622-83.6815C176.217-97.7134 159.421-114.154 145.808-104.495Z"/>
  </g>
  <g id="Heavy-L" transform="matrix(1 0 0 1 2546.94 1556)">
   <path d="M18.7376 20.8022C32.1383 36.2399 57.588 39.5594 73.0577 26.1378C85.7338 15.1877 86.6431-0.803997 76.0417-13.0297C66.4229-24.1105 51.2646-26.2817 40.9927-17.1743C31.6136-9.16885 35.3035-0.250954 30.405 3.80524C25.7255 7.82144 20.4008 5.15233 16.6176 8.43683C12.9371 11.6869 14.6229 16.2938 18.7376 20.8022ZM81.8428-21.9403C87.3192-16.4639 91.0549-9.78775 92.4247-3.46515C96.6887-4.33643 100.309-6.18898 103.902-9.29105C104.622-9.87747 105.262-10.4671 105.947-11.1283C103.861-28.5799 88.7306-43.9916 71.0722-45.975C70.4556-45.3295 69.8548-44.7287 69.313-44.053C66.0714-40.3652 64.1742-36.5807 63.3476-32.3747C69.6646-31.0719 76.4111-27.3777 81.8428-21.9403ZM142.838-102.347C139.625-100.061 105.11-76.593 82.6614-56.9256C98.8465-51.3427 111.334-38.8161 116.909-22.7031C136.565-45.1274 160.094-79.6369 162.33-82.8551C171.37-95.9921 155.56-111.454 142.838-102.347Z"/>
  </g>
  <g id="Bold-L" transform="matrix(1 0 0 1 2252.87 1556)">
   <path d="M17.7277 18.0773C30.0886 33.3161 54.6466 37.2375 69.8327 24.9559C82.487 14.745 84.0443-0.430974 74.2283-12.55C65.3333-23.5316 50.721-25.9886 40.9261-17.8442C31.2068-10.0693 35.0744-0.772438 29.6664 3.44612C24.8089 7.37017 20.0467 4.80882 16.5252 7.66176C13.4227 10.2334 14.2759 14.0621 17.7277 18.0773ZM78.7212-21.3878C83.8892-16.2198 87.4794-9.78904 88.672-3.89874C93.1151-4.78507 96.8522-6.82247 100.676-10.3254C101.359-10.9202 101.961-11.4797 102.592-12.1417C100.312-28.7846 86.1284-42.9817 69.5395-45.2045C68.9068-44.5894 68.3208-44.0034 67.7552-43.3502C64.1514-39.4543 62.0848-35.5917 61.2277-31.1761C67.1047-30.0656 73.5824-26.5399 78.7212-21.3878ZM139.403-99.8518C136.13-97.5207 100.893-73.4366 78.8894-54.008C94.3126-48.9162 106.308-36.9815 111.422-21.5003C130.824-43.4792 154.977-78.7032 157.266-81.9896C165.6-94.0423 151.056-108.268 139.403-99.8518Z"/>
  </g>
  <g id="Semibold-L" transform="matrix(1 0 0 1 1957.98 1556)">
   <path d="M17.0315 16.1987C28.6756 31.3005 52.6188 35.6369 67.6093 24.1411C80.2487 14.4398 82.2526-0.173814 72.9781-12.2193C64.5821-23.1325 50.3463-25.7865 40.8803-18.306C30.9263-10.6901 34.9165-1.13195 29.1571 3.19855C24.177 7.05907 19.8026 4.572 16.4616 7.12743C13.7575 9.23138 14.0366 12.5235 17.0315 16.1987ZM76.5692-21.0069C81.5246-16.0515 85.0145-9.78993 86.0849-4.19766C90.6515-5.09436 94.469-7.25919 98.4526-11.0385C99.1089-11.6391 99.6847-12.1779 100.279-12.8403C97.8661-28.9257 84.3345-42.2854 68.4829-44.6734C67.839-44.0791 67.2633-43.5033 66.6813-42.8657C62.8278-38.8264 60.6443-34.9098 59.7662-30.3497C65.34-29.3718 71.6324-25.9622 76.5692-21.0069ZM137.036-98.1319C133.721-95.7693 97.9856-71.2606 76.2889-51.9965C91.187-47.2434 102.843-35.7167 107.639-20.6712C126.866-42.3429 151.449-78.0596 153.775-81.3929C161.622-92.6982 147.951-106.071 137.036-98.1319Z"/>
  </g>
  <g id="Medium-L" transform="matrix(1 0 0 1 1662.64 1556)">
   <path d="M16.5036 14.7743C27.6042 29.7722 51.0813 34.4232 65.9235 23.5232C78.5515 14.2083 80.8942 0.0211752 72.0302-11.9686C64.0126-22.83 50.0621-25.6332 40.8455-18.6562C30.7136-11.1608 34.7968-1.40454 28.771 3.01083C23.6978 6.82319 19.6175 4.39244 16.4133 6.72228C14.0113 8.47158 13.8552 11.3569 16.5036 14.7743ZM74.9374-20.7181C79.7316-15.9239 83.1455-9.79061 84.1233-4.42431C88.7834-5.32887 92.6619-7.59033 96.7665-11.5792C97.4029-12.1841 97.9589-12.7072 98.5255-13.3701C96.0113-29.0327 82.9742-41.7575 67.6817-44.2707C67.0294-43.6922 66.4614-43.1242 65.867-42.4983C61.8241-38.3502 59.5521-34.3928 58.6581-29.7232C64.0019-28.8458 70.1537-25.5243 74.9374-20.7181ZM135.24-96.8278C131.894-94.4413 95.7811-69.6107 74.3172-50.4714C88.817-45.9751 100.215-34.7578 104.771-20.0424C123.866-41.4813 148.774-77.5715 151.128-80.9405C158.605-91.679 145.597-104.406 135.24-96.8278Z"/>
  </g>
  <g id="Regular-L" transform="matrix(1 0 0 1 1367.73 1556)">
   <path d="M15.8151 12.9163C26.2067 27.7787 49.0758 32.8401 63.7245 22.7174C76.3377 13.9065 79.1222 0.275509 70.7938-11.6415C63.2697-22.4353 49.6915-25.4334 40.8002-19.1129C30.4362-11.7747 34.6406-1.7601 28.2674 2.76598C23.0729 6.51551 19.3761 4.15822 16.3504 6.19383C14.3424 7.48055 13.6186 9.83528 15.8151 12.9163ZM72.8091-20.3414C77.393-15.7575 80.7077-9.79149 81.5646-4.71994C86.3469-5.63476 90.3049-8.02225 94.5672-12.2845C95.1778-12.8951 95.7079-13.3976 96.2381-14.061C93.5919-29.1723 81.2-41.069 66.6367-43.7454C65.9734-43.1875 65.4155-42.6297 64.8049-42.0191C60.515-37.7292 58.1275-33.7184 57.2127-28.9059C62.2566-28.1596 68.2251-24.953 72.8091-20.3414ZM132.898-95.1268C129.511-92.7091 92.9056-67.4587 71.7453-48.4821C85.7257-44.3207 96.7883-33.5069 101.03-19.2224C119.951-40.3575 145.285-76.9349 147.675-80.3504C154.671-90.3497 142.526-102.234 132.898-95.1268Z"/>
  </g>
  <g id="Light-L" transform="matrix(1 0 0 1 1072.04 1556)">
   <path d="M15.796 12.0384C25.9777 26.5573 48.3124 31.5041 62.6367 21.6104C74.9636 12.9904 77.6717-0.33522 69.5342-11.9851C62.2009-22.5689 48.909-25.4715 40.2085-19.2847C30.0736-12.0992 34.1825-2.33265 27.962 2.09799C22.9011 5.77118 19.2616 3.45207 16.3122 5.4495C14.3615 6.73622 13.6377 8.99553 15.796 12.0384ZM71.0532-19.807C75.6371-15.2231 78.7419-9.5243 79.5798-4.33823C83.9994-5.3294 87.7475-7.75506 92.0097-12.0173C92.4867-12.4943 92.8833-12.8442 93.2799-13.3548C90.8055-28.2944 78.8525-39.4658 64.7282-42.0468C64.2175-41.6035 63.7742-41.1601 63.2972-40.6831C58.9882-36.3741 56.5625-32.5923 55.5714-28.0662C60.7107-27.4153 66.4693-24.4377 71.0532-19.807ZM132.097-94.4779C128.48-91.9457 89.7565-64.9203 68.978-46.001C82.672-42.2976 93.5438-31.8465 97.3276-17.6383C116.153-38.4299 143.319-77.1066 145.805-80.7702C152.19-90.1779 141.209-101.05 132.097-94.4779Z"/>
  </g>
  <g id="Thin-L" transform="matrix(1 0 0 1 776.677 1556)">
   <path d="M15.7707 10.8773C25.6748 24.9418 47.3027 29.7372 61.1979 20.1464C73.1462 11.7788 75.7534-1.14296 67.8683-12.4394C60.7874-22.7456 47.8741-25.522 39.426-19.5119C29.594-12.5283 33.5767-3.08991 27.5582 1.21453C22.6739 4.78675 19.1101 2.51812 16.2617 4.46507C14.3867 5.75179 13.663 7.88489 15.7707 10.8773ZM68.731-19.1003C73.3149-14.5163 76.142-9.17091 76.9546-3.8334C80.8946-4.92553 84.3651-7.40168 88.6273-11.6639C88.9276-11.9642 89.1475-12.1122 89.3674-12.4209C87.1202-27.1333 75.7478-37.3455 62.204-39.8003C61.8953-39.5084 61.6034-39.2165 61.3031-38.9162C56.9688-34.582 54.4927-31.1031 53.4006-26.9555C58.6661-26.4308 64.147-23.7562 68.731-19.1003ZM131.037-93.6197C127.117-90.9361 85.5916-61.5631 65.3179-42.7196C78.6333-39.622 89.2527-29.6505 92.4307-15.5432C111.13-35.8805 140.719-77.3338 143.331-81.3256C148.909-89.9508 139.467-99.4853 131.037-93.6197Z"/>
  </g>
  <g id="Ultralight-L" transform="matrix(1 0 0 1 480.657 1556)">
   <path d="M15.7578 10.2826C25.5196 24.1144 46.7855 28.8322 60.461 19.3965C72.2153 11.1582 74.7708-1.55668 67.015-12.6722C60.0634-22.8361 47.344-25.5479 39.0252-19.6283C29.3483-12.7481 33.2664-3.47777 27.3513 0.762022C22.5576 4.28253 19.0326 2.03976 16.2358 3.96085C14.3997 5.24757 13.6759 7.31602 15.7578 10.2826ZM67.5415-18.7382C72.1255-14.1543 74.8103-8.98991 75.61-3.57482C79.3044-4.71867 82.6326-7.22067 86.8949-11.4829C87.1047-11.6927 87.2341-11.7372 87.3635-11.9425C85.2326-26.5385 74.1575-36.2595 60.9111-38.6496C60.7058-38.4353 60.4915-38.221 60.2817-38.0112C55.9345-33.664 53.4325-30.3403 52.2887-26.3867C57.6189-25.9266 62.9576-23.4071 67.5415-18.7382ZM130.494-93.1801C126.419-90.4189 83.4584-59.8436 63.4433-41.0388C76.5647-38.2515 87.0548-28.5257 89.9225-14.4702C108.557-34.5747 139.388-77.4502 142.064-81.61C147.228-89.8344 138.575-98.6837 130.494-93.1801Z"/>
  </g>
  <g id="Black-M" transform="matrix(1 0 0 1 2860.37 1126)">
   <path d="M15.9856 11.8626C27.8152 23.9963 48.6529 25.6497 60.942 13.6642C70.697 4.16577 70.4289-9.31142 61.133-18.848C52.6886-27.5063 40.2446-28.7385 31.6545-20.3212C24.9633-13.8342 27.5298-7.56322 24.5312-4.69039C21.2112-1.47024 16.2837-3.68253 12.9962-0.520439C9.31996 2.98868 11.8424 7.66216 15.9856 11.8626ZM67.3697-25.5591C72.063-20.8658 75.0982-15.4259 76.4119-9.857C79.3303-10.536 81.8933-11.7142 84.339-13.5319C84.907-13.9285 85.4126-14.3773 85.9753-14.8365C84.7004-29.4799 71.7458-42.9475 56.6521-44.1019C56.2499-43.5965 55.8017-43.1483 55.4621-42.6374C53.4735-40.0778 52.2382-37.338 51.6163-34.483C57.1854-33.2253 62.7335-30.195 67.3697-25.5591ZM115.407-90.6516C112.929-88.9088 86.5225-71.0226 68.6097-55.4562C82.1646-50.5692 92.494-40.123 97.3291-26.7426C112.896-44.6496 130.838-71.0563 132.524-73.5344C140.352-85.0946 126.65-98.5354 115.407-90.6516Z"/>
  </g>
  <g id="Heavy-M" transform="matrix(1 0 0 1 2565.74 1126)">
   <path d="M15.1072 9.66987C26.0732 21.7036 46.2465 23.9077 58.3573 12.8691C68.1548 3.97567 68.4694-8.85425 59.8189-18.355C51.966-26.9717 39.9377-28.4741 31.7235-20.8697C24.6857-14.5514 27.4281-7.89595 23.9513-4.86072C20.4471-1.70471 15.9988-3.83103 12.9237-1.03787C9.74024 1.87835 11.5351 5.89227 15.1072 9.66987ZM65.0189-25.191C69.4427-20.7672 72.3959-15.4844 73.5588-10.3179C76.7117-10.9937 79.4217-12.3252 82.0695-14.4932C82.633-14.9258 83.1342-15.3811 83.6791-15.8738C82.1981-29.8474 69.976-42.4093 55.7226-43.7934C55.2736-43.29 54.8137-42.8301 54.4247-42.3102C52.1236-39.5729 50.7484-36.7156 50.1163-33.6159C55.2805-32.5057 60.6387-29.5735 65.0189-25.191ZM112.578-88.6108C110.096-86.8526 83.5135-68.8095 65.9079-53.4394C78.8584-48.8833 88.7984-38.8765 93.3296-26.0318C108.695-43.6233 126.789-70.2034 128.501-72.6878C135.843-83.4276 122.997-96.0053 112.578-88.6108Z"/>
  </g>
  <g id="Bold-M" transform="matrix(1 0 0 1 2271.36 1126)">
   <path d="M14.1245 7.21699C24.1246 19.139 43.5545 21.9589 55.466 11.9797C65.311 3.76301 66.2774-8.34284 58.3489-17.8036C51.1576-26.3737 39.5943-28.1784 31.8006-21.4833C24.3751-15.3537 27.3142-8.26815 23.3026-5.05127C19.5923-1.96699 15.6802-3.99715 12.8426-1.6167C10.2104 0.636298 11.1912 3.91239 14.1245 7.21699ZM62.3892-24.7793C66.5116-20.657 69.373-15.5499 70.3672-10.8335C73.7823-11.5056 76.6568-13.0087 79.5308-15.5686C80.0893-16.0415 80.5856-16.5041 81.1104-17.0342C79.3989-30.2585 67.9963-41.8073 54.683-43.4484C54.1814-42.9471 53.7086-42.4742 53.2642-41.9442C50.6135-39.008 49.0819-36.0192 48.4383-32.6459C53.1496-31.7008 58.2954-28.8782 62.3892-24.7793ZM109.413-86.3279C106.927-84.5526 80.1474-66.3339 62.8854-51.1834C75.16-46.9974 84.6644-37.4821 88.8556-25.2367C103.996-42.4752 122.258-69.2494 124-71.7408C130.798-81.5629 118.91-93.175 109.413-86.3279Z"/>
  </g>
  <g id="Semibold-M" transform="matrix(1 0 0 1 1976.26 1126)">
   <path d="M13.4471 5.52599C22.7812 17.3709 41.6987 20.6155 53.4727 11.3665C63.3506 3.6164 64.7662-7.99027 57.3355-17.4234C50.6004-25.9614 39.3576-27.9745 31.8538-21.9063C24.161-15.9068 27.2357-8.52474 22.8553-5.18263C19.003-2.14781 15.4605-4.11167 12.7867-2.01573C10.5345-0.219968 10.9542 2.54747 13.4471 5.52599ZM60.5764-24.4955C64.4909-20.581 67.289-15.595 68.167-11.1889C71.7628-11.8586 74.7508-13.4799 77.7806-16.31C78.3357-16.8106 78.8285-17.2782 79.3395-17.8341C77.4692-30.5419 66.6314-41.3923 53.9662-43.2106C53.4285-42.7107 52.9467-42.2289 52.4642-41.6919C49.5725-38.6187 47.933-35.5392 47.2816-31.9773C51.6805-31.1459 56.68-28.399 60.5764-24.4955ZM107.231-84.7541C104.742-82.9669 77.8269-64.6272 60.8018-49.6282C72.6103-45.6973 81.8144-36.5208 85.7713-24.6886C100.756-41.6837 119.135-68.5917 120.897-71.088C127.32-80.2774 116.093-91.2239 107.231-84.7541Z"/>
  </g>
  <g id="Medium-M" transform="matrix(1 0 0 1 1680.76 1126)">
   <path d="M12.9334 4.24381C21.7626 16.0303 40.2915 19.5968 51.9614 10.9016C61.864 3.50524 63.6204-7.72294 56.567-17.1351C50.1779-25.6489 39.1781-27.8199 31.8941-22.2271C23.9986-16.3262 27.1762-8.7193 22.5163-5.28224C18.5562-2.28491 15.294-4.19851 12.7443-2.3183C10.7802-0.869224 10.7745 1.51253 12.9334 4.24381ZM59.2018-24.2803C62.9587-20.5234 65.7089-15.6292 66.4987-11.4584C70.2315-12.1262 73.3055-13.8372 76.4535-16.8721C77.006-17.3938 77.4963-17.8652 77.9968-18.4406C76.006-30.7567 65.5966-41.0776 53.4227-43.0303C52.8576-42.5314 52.369-42.0428 51.8575-41.5005C48.7832-38.3234 47.0619-35.1752 46.4044-31.4702C50.5666-30.7251 55.4551-28.0355 59.2018-24.2803ZM105.577-83.5608C103.085-81.7646 76.0674-63.3332 59.2219-48.4489C70.677-44.7115 79.6535-35.7919 83.4326-24.2729C98.2997-41.0836 116.767-68.093 118.545-70.5929C124.683-79.3027 113.957-89.7444 105.577-83.5608Z"/>
  </g>
  <g id="Regular-M" transform="matrix(1 0 0 1 1385.64 1126)">
   <path d="M12.2635 2.57139C20.4339 14.2817 38.4561 18.2682 49.99 10.2952C59.9251 3.36025 62.1259-7.37425 55.5648-16.7592C49.6267-25.2411 38.944-27.6183 31.9467-22.6454C23.7868-16.8732 27.0985-8.97307 22.074-5.41216C17.9734-2.46374 15.0767-4.31178 12.6891-2.71296C11.1008-1.71608 10.54 0.16261 12.2635 2.57139ZM57.4088-23.9996C60.9602-20.4482 63.6478-15.6739 64.3226-11.81C68.2343-12.4752 71.4203-14.3032 74.7225-17.6053C75.2717-18.1545 75.7586-18.6308 76.2454-19.2318C74.0974-31.037 64.2468-40.6671 52.7138-42.795C52.1129-42.2976 51.6155-41.8002 51.0663-41.251C47.7536-37.9383 45.9256-34.7004 45.2604-30.8089C49.1137-30.1763 53.8574-27.5615 57.4088-23.9996ZM103.419-82.0043C100.925-80.1964 73.7724-61.6452 57.1611-46.9107C68.1554-43.4256 76.8348-34.8411 80.3822-23.7308C95.0957-40.3008 113.678-67.4425 115.476-69.9473C121.244-78.0313 111.171-87.8147 103.419-82.0043Z"/>
  </g>
  <g id="Light-M" transform="matrix(1 0 0 1 1089.85 1126)">
   <path d="M12.2464 1.78429C20.2286 13.1866 37.7716 17.0704 49.0147 9.30273C58.6931 2.53892 60.8254-7.9218 54.4354-17.0672C48.6685-25.3609 38.2424-27.6525 31.4163-22.7994C23.4617-17.1641 26.6879-9.4864 21.8002-6.01104C17.8194-3.13106 14.9741-4.94488 12.6548-3.38028C11.1179-2.38341 10.5572-0.590271 12.2464 1.78429ZM55.8346-23.5205C59.386-19.9691 61.8854-15.4343 62.5431-11.4678C66.1296-12.2015 69.1275-14.0636 72.4296-17.3658C72.859-17.7952 73.2261-18.1346 73.5933-18.5987C71.5992-30.2499 62.1421-39.2298 51.0027-41.2722C50.5387-40.8774 50.1439-40.4826 49.7145-40.0532C46.3847-36.7234 44.5225-33.6909 43.7888-30.056C47.7277-29.509 52.2832-27.0995 55.8346-23.5205ZM102.7-81.4225C100.001-79.512 70.9491-59.3695 54.68-44.6863C65.4176-41.6119 73.926-33.3525 77.0627-22.3106C91.6906-38.5726 111.916-67.5965 113.799-70.3237C119.02-77.8773 109.991-86.7538 102.7-81.4225Z"/>
  </g>
  <g id="Thin-M" transform="matrix(1 0 0 1 794.347 1126)">
   <path d="M12.2237 0.74328C19.957 11.7382 36.8664 15.4863 47.7247 7.99016C57.0637 1.45266 59.1055-8.64598 52.9418-17.4745C47.4012-25.5193 37.3146-27.6978 30.7148-23.0031C23.0317-17.5488 26.1447-10.1653 21.4381-6.80311C17.6157-4.01366 14.8383-5.78221 12.6096-4.26288C11.1405-3.266 10.5798-1.58602 12.2237 0.74328ZM53.7526-22.8868C57.3039-19.3355 59.5544-15.1175 60.1895-11.0151C63.346-11.8394 66.095-13.7468 69.3971-17.0489C69.6681-17.3199 69.8768-17.4783 70.0855-17.7613C68.2952-29.2089 59.3585-37.3288 48.7397-39.258C48.4567-38.9991 48.1977-38.7401 47.9267-38.4691C44.5743-35.1166 42.6668-32.3557 41.8426-29.0603C45.8947-28.6264 50.2012-26.4885 53.7526-22.8868ZM101.75-80.653C98.7785-78.6068 67.215-56.3596 51.3986-41.7443C61.7967-39.213 70.0788-31.3836 72.6723-20.4323C87.1871-36.287 109.585-67.8002 111.581-70.8216C116.078-77.6736 108.429-85.3507 101.75-80.653Z"/>
  </g>
  <g id="Ultralight-M" transform="matrix(1 0 0 1 498.256 1126)">
   <path d="M12.2121 0.210081C19.8179 10.9964 36.4028 14.6749 47.064 7.31787C56.2291 0.896274 58.2246-9.0169 52.1768-17.6831C46.7521-25.6005 36.8393-27.7209 30.3554-23.1074C22.8115-17.7459 25.8665-10.5131 21.2526-7.20881C17.5114-4.46572 14.7687-6.21109 12.5864-4.71494C11.1521-3.71806 10.5914-2.09603 12.2121 0.210081ZM52.6862-22.5623C56.2375-19.0109 58.3605-14.9552 58.984-10.7833C61.9203-11.6539 64.5417-13.5845 67.8439-16.8867C68.0338-17.0765 68.1613-17.1422 68.2889-17.3325C66.6028-28.6757 57.9328-36.3552 47.5806-38.2264C47.3903-38.037 47.2008-37.8475 47.011-37.6577C43.6469-34.2936 41.7163-31.6718 40.8458-28.5503C44.9558-28.1743 49.1348-26.1755 52.6862-22.5623ZM101.263-80.2589C98.1526-78.1431 65.3024-54.818 49.7179-40.2374C59.9421-37.9844 68.1083-30.3752 70.4236-19.4702C84.8804-35.1162 108.391-67.9045 110.445-71.0766C114.571-77.5693 107.629-84.632 101.263-80.2589Z"/>
  </g>
  <g id="Black-S" transform="matrix(1 0 0 1 2875.59 696)">
   <path d="M12.793 2.29492C22.3145 11.8164 38.8184 12.9395 48.4863 3.27148C56.1035-4.3457 55.7129-15.0879 48.2422-22.5586C41.4551-29.3457 31.5918-30.2246 24.7559-23.3887C19.6289-18.2617 21.582-13.4766 19.3848-11.2793C16.8457-8.74023 12.8418-10.498 10.2051-7.91016C7.17773-4.98047 9.375-1.12305 12.793 2.29492ZM53.418-27.7344C57.1777-23.9746 59.5703-19.6777 60.6445-15.1855C62.8418-15.7227 64.7949-16.6016 66.6504-17.9199C67.0898-18.2129 67.4805-18.5547 67.9199-18.8965C66.9922-30.5664 56.6406-41.3574 44.5801-42.1875C44.2871-41.7969 43.9453-41.4551 43.7012-41.0645C42.2363-39.1113 41.3086-37.0117 40.8203-34.8633C45.3125-33.8379 49.707-31.4453 53.418-27.7344ZM91.2598-79.248C89.3066-77.8809 68.5547-63.8184 54.4434-51.5625C65.2344-47.6562 73.4375-39.3555 77.2949-28.7109C89.5508-42.8223 103.662-63.5742 104.98-65.5273C111.23-74.8047 100.293-85.5469 91.2598-79.248Z"/>
  </g>
  <g id="Heavy-S" transform="matrix(1 0 0 1 2580.54 696)">
   <path d="M12.0439 0.520154C20.8508 9.99554 36.8477 11.6026 46.4004 2.71831C54.0867-4.40333 54.2032-14.6269 47.2626-22.0976C40.9595-28.8732 31.4189-29.9941 24.8826-23.8381C19.433-18.8379 21.5475-13.6955 18.9238-11.3484C16.2119-8.85548 12.6113-10.5441 10.1475-8.26741C7.53499-5.8448 9.10994-2.54056 12.0439 0.520154ZM51.6086-27.4808C55.1379-23.9516 57.4844-19.7584 58.4318-15.6235C60.8711-16.1491 62.9741-17.1547 65.0024-18.7727C65.4534-19.1118 65.8555-19.4766 66.295-19.8645C65.1713-30.9813 55.396-41.0808 44.0039-42.1184C43.6533-41.7162 43.2884-41.3514 42.9867-40.9377C41.2567-38.8347 40.2138-36.6084 39.7255-34.2179C43.8604-33.3078 48.1167-30.9728 51.6086-27.4808ZM88.9318-77.577C87.0017-76.2098 66.342-62.2165 52.4496-50.1219C62.7566-46.4462 70.6486-38.4796 74.2986-28.2845C86.3931-42.1654 100.424-62.8251 101.754-64.7552C107.658-73.3987 97.3197-83.5186 88.9318-77.577Z"/>
  </g>
  <g id="Bold-S" transform="matrix(1 0 0 1 2285.69 696)">
   <path d="M11.2061-1.46484C19.2139 7.95898 34.6436 10.1074 44.0674 2.09961C51.8311-4.46777 52.5146-14.1113 46.167-21.582C40.4053-28.3447 31.2256-29.7363 25.0244-24.3408C19.2139-19.4824 21.5088-13.9404 18.4082-11.4258C15.5029-8.98438 12.3535-10.5957 10.083-8.66699C7.93457-6.81152 8.81348-4.12598 11.2061-1.46484ZM49.585-27.1973C52.8564-23.9258 55.1514-19.8486 55.957-16.1133C58.667-16.626 60.9375-17.7734 63.1592-19.7266C63.623-20.1172 64.0381-20.5078 64.4775-20.9473C63.1348-31.4453 54.0039-40.7715 43.3594-42.041C42.9443-41.626 42.5537-41.2354 42.1875-40.7959C40.1611-38.5254 38.9893-36.1572 38.501-33.4961C42.2363-32.7148 46.3379-30.4443 49.585-27.1973ZM86.3281-75.708C84.4238-74.3408 63.8672-60.4248 50.2197-48.5107C59.9854-45.0928 67.5293-37.5 70.9473-27.8076C82.8613-41.4307 96.8018-61.9873 98.1445-63.8916C103.662-71.8262 93.9941-81.25 86.3281-75.708Z"/>
  </g>
  <g id="Semibold-S" transform="matrix(1 0 0 1 1990.27 696)">
   <path d="M10.6284-2.8334C18.0853 6.55488 33.1239 9.07656 42.4589 1.67305C50.2759-4.51221 51.3505-13.7559 45.4116-21.2266C40.0231-27.9804 31.0923-29.5586 25.1222-24.6874C19.0628-19.9268 21.4821-14.1093 18.0527-11.4791C15.0142-9.07324 12.1758-10.6312 10.0386-8.94248C8.21006-7.47803 8.60908-5.21904 10.6284-2.8334ZM48.1897-27.0018C51.2835-23.908 53.5429-19.9108 54.2508-16.451C57.1474-16.9548 59.5334-18.2 61.8884-20.3842C62.3611-20.8104 62.7851-21.2188 63.2245-21.6938C61.7307-31.7652 53.0441-40.5582 42.915-41.9877C42.4556-41.5638 42.0472-41.1554 41.6365-40.6981C39.4058-38.3121 38.145-35.8462 37.6567-32.9984C41.1166-32.3061 45.1115-30.08 48.1897-27.0018ZM84.533-74.4194C82.6465-73.0522 62.1609-59.1896 48.6823-47.3999C58.0747-44.1597 65.3787-36.8246 68.6367-27.4788C80.4264-40.9241 94.3046-61.4097 95.6562-63.2962C100.907-70.742 91.7014-79.6859 84.533-74.4194Z"/>
  </g>
  <g id="Medium-S" transform="matrix(1 0 0 1 1694.53 696)">
   <path d="M10.1904-3.87109C17.2295 5.49023 31.9717 8.29492 41.2393 1.34961C49.0967-4.5459 50.4678-13.4863 44.8389-20.957C39.7334-27.7041 30.9912-29.4238 25.1963-24.9502C18.9482-20.2637 21.4619-14.2373 17.7832-11.5195C14.6436-9.14062 12.041-10.6582 10.0049-9.15137C8.41895-7.9834 8.4541-6.04785 10.1904-3.87109ZM47.1318-26.8535C50.0908-23.8945 52.3232-19.958 52.957-16.707C55.9951-17.2041 58.4688-18.5234 60.9248-20.8828C61.4043-21.3359 61.835-21.7578 62.2744-22.2598C60.666-32.0078 52.3164-40.3965 42.5781-41.9473C42.085-41.5166 41.6631-41.0947 41.2188-40.624C38.833-38.1504 37.5049-35.6104 37.0166-32.6211C40.2676-31.9961 44.1816-29.8037 47.1318-26.8535ZM83.1719-73.4424C81.2988-72.0752 60.8672-58.2529 47.5166-46.5576C56.626-43.4521 63.748-36.3125 66.8848-27.2295C78.5801-40.54 92.4111-60.9717 93.7695-62.8447C98.8184-69.9199 89.9629-78.5 83.1719-73.4424Z"/>
  </g>
  <g id="Regular-S" transform="matrix(1 0 0 1 1399.09 696)">
   <path d="M9.61914-5.22461C16.1133 4.10156 30.4688 7.27539 39.6484 0.927734C47.5586-4.58984 49.3164-13.1348 44.0918-20.6055C39.3555-27.3438 30.8594-29.248 25.293-25.293C18.7988-20.7031 21.4355-14.4043 17.4316-11.5723C14.1602-9.22852 11.8652-10.6934 9.96094-9.42383C8.69141-8.64258 8.25195-7.12891 9.61914-5.22461ZM45.752-26.6602C48.5352-23.877 50.7324-20.0195 51.2695-17.041C54.4922-17.5293 57.0801-18.9453 59.668-21.5332C60.1562-22.0215 60.5957-22.4609 61.0352-22.998C59.2773-32.3242 51.3672-40.1855 42.1387-41.8945C41.6016-41.4551 41.1621-41.0156 40.6738-40.5273C38.0859-37.9395 36.6699-35.3027 36.1816-32.1289C39.1602-31.5918 42.9688-29.4434 45.752-26.6602ZM81.3965-72.168C79.541-70.8008 59.1797-57.0312 45.9961-45.459C54.7363-42.5293 61.6211-35.6445 64.5996-26.9043C76.1719-40.0391 89.9414-60.4004 91.3086-62.2559C96.0938-68.8477 87.6953-76.9531 81.3965-72.168Z"/>
  </g>
  <g id="Light-S" transform="matrix(1 0 0 1 1103.19 696)">
   <path d="M9.604-5.92089C15.9316 3.13282 29.8633 6.21583 38.7857 0.0498116C46.4688-5.3164 48.166-13.6191 43.0928-20.8779C38.5078-27.4497 30.2388-29.2783 24.8237-25.4292C18.5112-20.9604 21.0723-14.8584 17.1895-12.102C14.0239-9.81884 11.7744-11.2534 9.93066-10.0142C8.70654-9.23291 8.26709-7.79492 9.604-5.92089ZM44.3594-26.2363C47.1426-23.4531 49.1734-19.8076 49.6953-16.7383C52.6304-17.2871 55.0518-18.7334 57.6397-21.3213C58.022-21.7036 58.3555-22.022 58.689-22.438C57.0674-31.6279 49.5054-38.9141 40.625-40.5474C40.209-40.1987 39.8604-39.8501 39.478-39.4678C36.875-36.8648 35.4287-34.4097 34.8799-31.4629C37.9341-31.0015 41.5762-29.0347 44.3594-26.2363ZM80.7607-71.6533C78.7236-70.1953 56.6821-55.0181 43.8013-43.4912C52.3145-40.9248 59.0479-34.3276 61.6631-25.648C73.1597-38.5103 88.3823-60.5366 89.8252-62.5889C94.126-68.7114 86.6509-76.0147 80.7607-71.6533Z"/>
  </g>
  <g id="Thin-S" transform="matrix(1 0 0 1 807.546 696)">
   <path d="M9.58398-6.84178C15.6914 1.85158 29.0625 4.81447 37.6445-1.11131C45.0274-6.27733 46.6446-14.2598 41.7715-21.2383C37.3867-27.5898 29.418-29.3184 24.2031-25.6094C18.1309-21.3008 20.5918-15.459 16.8691-12.8027C13.8438-10.5996 11.6543-11.9941 9.89063-10.7949C8.72656-10.0137 8.28711-8.67577 9.58398-6.84178ZM42.5176-25.6758C45.3008-22.8926 47.1114-19.5273 47.6133-16.3379C50.168-16.9668 52.3692-18.4531 54.9571-21.041C55.1993-21.2832 55.3926-21.4414 55.586-21.6973C54.1446-30.707 47.043-37.2324 38.6231-38.7656C38.3672-38.5371 38.1387-38.3086 37.8965-38.0664C35.2735-35.4434 33.7871-33.2285 33.1582-30.582C36.3125-30.2207 39.7344-28.4941 42.5176-25.6758ZM79.9199-70.9727C77.6426-69.3945 53.379-52.3555 40.8985-40.8887C49.1114-38.8028 55.6446-32.586 57.7794-23.9864C69.1758-36.4883 86.3203-60.7168 87.8633-63.0293C91.5235-68.5313 85.2696-74.7735 79.9199-70.9727Z"/>
  </g>
  <g id="Ultralight-S" transform="matrix(1 0 0 1 511.384 696)">
   <path d="M9.57373-7.31346C15.5684 1.19534 28.6524 4.0967 37.0601-1.70603C44.2891-6.76951 45.8653-14.5879 41.0948-21.4228C36.8125-27.6616 28.9976-29.3389 23.8853-25.7017C17.936-21.4751 20.3457-15.7666 16.7051-13.1616C13.7515-10.9995 11.5928-12.3735 9.87012-11.1948C8.73682-10.4136 8.29736-9.12694 9.57373-7.31346ZM41.5743-25.3887C44.3575-22.6055 46.0552-19.3838 46.5469-16.1328C48.9068-16.8027 50.9952-18.3096 53.5831-20.8975C53.7535-21.0679 53.8751-21.1441 53.9966-21.3179C52.6475-30.2354 45.7818-36.3711 37.5977-37.8531C37.4239-37.6861 37.2569-37.5191 37.0865-37.3487C34.4532-34.7154 32.9463-32.6236 32.2764-30.1309C35.482-29.8208 38.791-28.2173 41.5743-25.3887ZM79.4893-70.624C77.0889-68.9844 51.6871-50.9917 39.4117-39.5557C47.4708-37.7159 53.9014-31.6939 55.7901-23.1353C67.1353-35.4527 85.2642-60.8091 86.8584-63.2549C90.1905-68.439 84.562-74.1377 79.4893-70.624Z"/>
  </g>
 </g>
</svg>
