<?xml version="1.0" encoding="UTF-8"?>
<!--Generator: Apple Native CoreSVG 175-->
<!DOCTYPE svg
PUBLIC "-//W3C//DTD SVG 1.1//EN"
       "http://www.w3.org/Graphics/SVG/1.1/DTD/svg11.dtd">
<svg version="1.1" xmlns="http://www.w3.org/2000/svg" xmlns:xlink="http://www.w3.org/1999/xlink" width="3300" height="2200">
 <!--glyph: "uni10044B.medium", point size: 100.0, font version: "17.1d1e1", template writer version: "65.1"-->
 <g id="Notes">
  <rect height="2200" id="artboard" style="fill:white;opacity:1" width="3300" x="0" y="0"/>
  <line style="fill:none;stroke:black;opacity:1;stroke-width:0.5;" x1="263" x2="3036" y1="292" y2="292"/>
  <text style="stroke:none;fill:black;font-family:sans-serif;font-size:13;font-weight:bold;" transform="matrix(1 0 0 1 263 322)">Weight/Scale Variations</text>
  <text style="stroke:none;fill:black;font-family:sans-serif;font-size:13;text-anchor:middle;" transform="matrix(1 0 0 1 559.711 322)">Ultralight</text>
  <text style="stroke:none;fill:black;font-family:sans-serif;font-size:13;text-anchor:middle;" transform="matrix(1 0 0 1 856.422 322)">Thin</text>
  <text style="stroke:none;fill:black;font-family:sans-serif;font-size:13;text-anchor:middle;" transform="matrix(1 0 0 1 1153.13 322)">Light</text>
  <text style="stroke:none;fill:black;font-family:sans-serif;font-size:13;text-anchor:middle;" transform="matrix(1 0 0 1 1449.84 322)">Regular</text>
  <text style="stroke:none;fill:black;font-family:sans-serif;font-size:13;text-anchor:middle;" transform="matrix(1 0 0 1 1746.56 322)">Medium</text>
  <text style="stroke:none;fill:black;font-family:sans-serif;font-size:13;text-anchor:middle;" transform="matrix(1 0 0 1 2043.27 322)">Semibold</text>
  <text style="stroke:none;fill:black;font-family:sans-serif;font-size:13;text-anchor:middle;" transform="matrix(1 0 0 1 2339.98 322)">Bold</text>
  <text style="stroke:none;fill:black;font-family:sans-serif;font-size:13;text-anchor:middle;" transform="matrix(1 0 0 1 2636.69 322)">Heavy</text>
  <text style="stroke:none;fill:black;font-family:sans-serif;font-size:13;text-anchor:middle;" transform="matrix(1 0 0 1 2933.4 322)">Black</text>
  <line style="fill:none;stroke:black;opacity:1;stroke-width:0.5;" x1="263" x2="3036" y1="1903" y2="1903"/>
  <g transform="matrix(1 0 0 1 263 1933)">
   <path d="M9.24805 0.830078Q10.8691 0.830078 12.2949 0.214844Q13.7207-0.400391 14.8096-1.49414Q15.8984-2.58789 16.5186-4.01367Q17.1387-5.43945 17.1387-7.05078Q17.1387-8.66211 16.5186-10.0879Q15.8984-11.5137 14.8047-12.6074Q13.7109-13.7012 12.2852-14.3164Q10.8594-14.9316 9.23828-14.9316Q7.62695-14.9316 6.20117-14.3164Q4.77539-13.7012 3.69141-12.6074Q2.60742-11.5137 1.9873-10.0879Q1.36719-8.66211 1.36719-7.05078Q1.36719-5.43945 1.9873-4.01367Q2.60742-2.58789 3.69629-1.49414Q4.78516-0.400391 6.21094 0.214844Q7.63672 0.830078 9.24805 0.830078ZM9.24805-0.654297Q7.91992-0.654297 6.7627-1.14746Q5.60547-1.64062 4.73145-2.51953Q3.85742-3.39844 3.36426-4.56055Q2.87109-5.72266 2.87109-7.05078Q2.87109-8.37891 3.35938-9.54102Q3.84766-10.7031 4.72168-11.582Q5.5957-12.4609 6.75293-12.9541Q7.91016-13.4473 9.23828-13.4473Q10.5762-13.4473 11.7334-12.9541Q12.8906-12.4609 13.7695-11.582Q14.6484-10.7031 15.1465-9.54102Q15.6445-8.37891 15.6445-7.05078Q15.6445-5.72266 15.1514-4.56055Q14.6582-3.39844 13.7842-2.51953Q12.9102-1.64062 11.748-1.14746Q10.5859-0.654297 9.24805-0.654297ZM5.6543-7.05078Q5.6543-6.72852 5.85938-6.52832Q6.06445-6.32812 6.40625-6.32812L8.51562-6.32812L8.51562-4.20898Q8.51562-3.88672 8.71094-3.67676Q8.90625-3.4668 9.23828-3.4668Q9.56055-3.4668 9.77051-3.67676Q9.98047-3.88672 9.98047-4.20898L9.98047-6.32812L12.0898-6.32812Q12.4219-6.32812 12.627-6.52832Q12.832-6.72852 12.832-7.05078Q12.832-7.38281 12.627-7.58789Q12.4219-7.79297 12.0898-7.79297L9.98047-7.79297L9.98047-9.90234Q9.98047-10.2344 9.77051-10.4443Q9.56055-10.6543 9.23828-10.6543Q8.90625-10.6543 8.71094-10.4443Q8.51562-10.2344 8.51562-9.90234L8.51562-7.79297L6.40625-7.79297Q6.06445-7.79297 5.85938-7.58789Q5.6543-7.38281 5.6543-7.05078Z"/>
  </g>
  <g transform="matrix(1 0 0 1 281.867 1933)">
   <path d="M11.709 2.91016Q13.75 2.91016 15.5518 2.12891Q17.3535 1.34766 18.7305-0.0292969Q20.1074-1.40625 20.8887-3.20801Q21.6699-5.00977 21.6699-7.05078Q21.6699-9.0918 20.8887-10.8936Q20.1074-12.6953 18.7305-14.0723Q17.3535-15.4492 15.5469-16.2305Q13.7402-17.0117 11.6992-17.0117Q9.6582-17.0117 7.85645-16.2305Q6.05469-15.4492 4.68262-14.0723Q3.31055-12.6953 2.5293-10.8936Q1.74805-9.0918 1.74805-7.05078Q1.74805-5.00977 2.5293-3.20801Q3.31055-1.40625 4.6875-0.0292969Q6.06445 1.34766 7.86621 2.12891Q9.66797 2.91016 11.709 2.91016ZM11.709 1.25Q9.98047 1.25 8.47656 0.605469Q6.97266-0.0390625 5.83496-1.17676Q4.69727-2.31445 4.05762-3.81836Q3.41797-5.32227 3.41797-7.05078Q3.41797-8.7793 4.05762-10.2832Q4.69727-11.7871 5.83008-12.9297Q6.96289-14.0723 8.4668-14.7119Q9.9707-15.3516 11.6992-15.3516Q13.4277-15.3516 14.9316-14.7119Q16.4355-14.0723 17.5781-12.9297Q18.7207-11.7871 19.3652-10.2832Q20.0098-8.7793 20.0098-7.05078Q20.0098-5.32227 19.3701-3.81836Q18.7305-2.31445 17.5928-1.17676Q16.4551-0.0390625 14.9463 0.605469Q13.4375 1.25 11.709 1.25ZM7.17773-7.05078Q7.17773-6.69922 7.41211-6.47461Q7.64648-6.25 8.01758-6.25L10.8887-6.25L10.8887-3.36914Q10.8887-2.99805 11.1133-2.76855Q11.3379-2.53906 11.6895-2.53906Q12.0605-2.53906 12.29-2.76855Q12.5195-2.99805 12.5195-3.36914L12.5195-6.25L15.4004-6.25Q15.7715-6.25 16.001-6.47461Q16.2305-6.69922 16.2305-7.05078Q16.2305-7.42188 16.001-7.65137Q15.7715-7.88086 15.4004-7.88086L12.5195-7.88086L12.5195-10.752Q12.5195-11.1328 12.29-11.3623Q12.0605-11.5918 11.6895-11.5918Q11.3379-11.5918 11.1133-11.3574Q10.8887-11.123 10.8887-10.752L10.8887-7.88086L8.01758-7.88086Q7.63672-7.88086 7.40723-7.65137Q7.17773-7.42188 7.17773-7.05078Z"/>
  </g>
  <g transform="matrix(1 0 0 1 305.646 1933)">
   <path d="M14.9707 5.66406Q17.0605 5.66406 18.96 5.01465Q20.8594 4.36523 22.4512 3.19336Q24.043 2.02148 25.2197 0.429688Q26.3965-1.16211 27.0459-3.06641Q27.6953-4.9707 27.6953-7.05078Q27.6953-9.14062 27.0459-11.04Q26.3965-12.9395 25.2197-14.5312Q24.043-16.123 22.4512-17.2998Q20.8594-18.4766 18.9551-19.126Q17.0508-19.7754 14.9609-19.7754Q12.8711-19.7754 10.9717-19.126Q9.07227-18.4766 7.48535-17.2998Q5.89844-16.123 4.72168-14.5312Q3.54492-12.9395 2.90039-11.04Q2.25586-9.14062 2.25586-7.05078Q2.25586-4.9707 2.90527-3.06641Q3.55469-1.16211 4.72656 0.429688Q5.89844 2.02148 7.49023 3.19336Q9.08203 4.36523 10.9814 5.01465Q12.8809 5.66406 14.9707 5.66406ZM14.9707 3.84766Q13.1641 3.84766 11.5283 3.2959Q9.89258 2.74414 8.53516 1.74805Q7.17773 0.751953 6.17676-0.610352Q5.17578-1.97266 4.62891-3.6084Q4.08203-5.24414 4.08203-7.05078Q4.08203-8.86719 4.62891-10.5029Q5.17578-12.1387 6.17188-13.501Q7.16797-14.8633 8.52539-15.8594Q9.88281-16.8555 11.5186-17.4023Q13.1543-17.9492 14.9609-17.9492Q16.7773-17.9492 18.4131-17.4023Q20.0488-16.8555 21.4111-15.8594Q22.7734-14.8633 23.7695-13.501Q24.7656-12.1387 25.3174-10.5029Q25.8691-8.86719 25.8691-7.05078Q25.8789-5.24414 25.332-3.6084Q24.7852-1.97266 23.7842-0.610352Q22.7832 0.751953 21.4209 1.74805Q20.0586 2.74414 18.4229 3.2959Q16.7871 3.84766 14.9707 3.84766ZM9.19922-7.05078Q9.19922-6.66992 9.45801-6.4209Q9.7168-6.17188 10.1172-6.17188L14.0625-6.17188L14.0625-2.2168Q14.0625-1.81641 14.3115-1.55762Q14.5605-1.29883 14.9512-1.29883Q15.3516-1.29883 15.6104-1.55273Q15.8691-1.80664 15.8691-2.2168L15.8691-6.17188L19.8242-6.17188Q20.2246-6.17188 20.4785-6.4209Q20.7324-6.66992 20.7324-7.05078Q20.7324-7.46094 20.4785-7.71484Q20.2246-7.96875 19.8242-7.96875L15.8691-7.96875L15.8691-11.9141Q15.8691-12.3242 15.6104-12.583Q15.3516-12.8418 14.9512-12.8418Q14.5605-12.8418 14.3115-12.583Q14.0625-12.3242 14.0625-11.9141L14.0625-7.96875L10.1172-7.96875Q9.70703-7.96875 9.45312-7.71484Q9.19922-7.46094 9.19922-7.05078Z"/>
  </g>
  <text style="stroke:none;fill:black;font-family:sans-serif;font-size:13;font-weight:bold;" transform="matrix(1 0 0 1 263 1953)">Design Variations</text>
  <text style="stroke:none;fill:black;font-family:sans-serif;font-size:13;" transform="matrix(1 0 0 1 263 1971)">Symbols are supported in up to nine weights and three scales.</text>
  <text style="stroke:none;fill:black;font-family:sans-serif;font-size:13;" transform="matrix(1 0 0 1 263 1989)">For optimal layout with text and other symbols, vertically align</text>
  <text style="stroke:none;fill:black;font-family:sans-serif;font-size:13;" transform="matrix(1 0 0 1 263 2007)">symbols with the adjacent text.</text>
  <line style="fill:none;stroke:#00AEEF;stroke-width:0.5;opacity:1.0;" x1="776" x2="776" y1="1919" y2="1933"/>
  <g transform="matrix(1 0 0 1 776 1933)">
   <path d="M3.31055 0.15625Q3.70117 0.15625 3.91602-0.00976562Q4.13086-0.175781 4.26758-0.585938L5.52734-4.0332L11.2891-4.0332L12.5488-0.585938Q12.6855-0.175781 12.9004-0.00976562Q13.1152 0.15625 13.4961 0.15625Q13.8867 0.15625 14.1162-0.0585938Q14.3457-0.273438 14.3457-0.644531Q14.3457-0.869141 14.2383-1.17188L9.6582-13.3691Q9.48242-13.8184 9.17969-14.043Q8.87695-14.2676 8.4082-14.2676Q7.5-14.2676 7.17773-13.3789L2.59766-1.16211Q2.49023-0.859375 2.49023-0.634766Q2.49023-0.263672 2.70996-0.0537109Q2.92969 0.15625 3.31055 0.15625ZM6.00586-5.51758L8.37891-12.0898L8.42773-12.0898L10.8008-5.51758Z"/>
  </g>
  <line style="fill:none;stroke:#00AEEF;stroke-width:0.5;opacity:1.0;" x1="793.197" x2="793.197" y1="1919" y2="1933"/>
  <text style="stroke:none;fill:black;font-family:sans-serif;font-size:13;font-weight:bold;" transform="matrix(1 0 0 1 776 1953)">Margins</text>
  <text style="stroke:none;fill:black;font-family:sans-serif;font-size:13;" transform="matrix(1 0 0 1 776 1971)">Leading and trailing margins on the left and right side of each symbol</text>
  <text style="stroke:none;fill:black;font-family:sans-serif;font-size:13;" transform="matrix(1 0 0 1 776 1989)">can be adjusted by modifying the x-location of the margin guidelines.</text>
  <text style="stroke:none;fill:black;font-family:sans-serif;font-size:13;" transform="matrix(1 0 0 1 776 2007)">Modifications are automatically applied proportionally to all</text>
  <text style="stroke:none;fill:black;font-family:sans-serif;font-size:13;" transform="matrix(1 0 0 1 776 2025)">scales and weights.</text>
  <g transform="matrix(1 0 0 1 1289 1933)">
   <path d="M2.8418 1.86523L4.54102 3.57422Q5.18555 4.22852 5.90332 4.17969Q6.62109 4.13086 7.31445 3.35938L18.0078-8.42773L17.041-9.4043L6.42578 2.27539Q6.16211 2.57812 5.89355 2.61719Q5.625 2.65625 5.27344 2.30469L4.10156 1.14258Q3.75 0.791016 3.79395 0.522461Q3.83789 0.253906 4.14062-0.0195312L15.6152-10.8203L14.6387-11.7871L3.04688-0.898438Q2.30469-0.214844 2.25098 0.498047Q2.19727 1.21094 2.8418 1.86523ZM9.25781-16.3281Q8.94531-16.0254 8.90625-15.6348Q8.86719-15.2441 9.04297-14.9512Q9.21875-14.6777 9.55566-14.541Q9.89258-14.4043 10.3809-14.5215Q11.4746-14.7754 12.5977-14.7314Q13.7207-14.6875 14.7949-13.9844L14.209-12.5293Q13.9551-11.9043 14.0674-11.4404Q14.1797-10.9766 14.5801-10.5664L16.875-8.25195Q17.2363-7.88086 17.5781-7.82227Q17.9199-7.76367 18.3398-7.8418L19.4043-8.03711L20.0684-7.36328L20.0293-6.80664Q20-6.43555 20.1221-6.12305Q20.2441-5.81055 20.6055-5.44922L21.3672-4.70703Q21.7285-4.3457 22.1533-4.33105Q22.5781-4.31641 22.9297-4.66797L25.8398-7.58789Q26.1914-7.93945 26.1816-8.35449Q26.1719-8.76953 25.8105-9.13086L25.0391-9.89258Q24.6875-10.2539 24.3799-10.3857Q24.0723-10.5176 23.7109-10.4883L23.1348-10.4395L22.4902-11.0742L22.7344-12.1973Q22.832-12.6172 22.6953-12.9834Q22.5586-13.3496 22.1191-13.7891L19.9219-15.9766Q18.6719-17.2168 17.2607-17.8369Q15.8496-18.457 14.4189-18.4814Q12.9883-18.5059 11.665-17.959Q10.3418-17.4121 9.25781-16.3281ZM10.752-15.957Q11.6602-16.6211 12.7002-16.9043Q13.7402-17.1875 14.8047-17.085Q15.8691-16.9824 16.8701-16.5137Q17.8711-16.0449 18.7012-15.2051L21.1328-12.793Q21.3086-12.6172 21.3525-12.4512Q21.3965-12.2852 21.3379-12.0312L21.0156-10.5469L22.5195-9.0625L23.5059-9.12109Q23.6914-9.13086 23.7891-9.09668Q23.8867-9.0625 24.0332-8.91602L24.6094-8.33984L22.168-5.89844L21.5918-6.47461Q21.4453-6.62109 21.4062-6.71875Q21.3672-6.81641 21.377-7.01172L21.4453-7.98828L19.9512-9.47266L18.4277-9.21875Q18.1836-9.16992 18.042-9.2041Q17.9004-9.23828 17.7148-9.41406L15.7129-11.416Q15.5176-11.5918 15.4932-11.7529Q15.4688-11.9141 15.5859-12.1875L16.4648-14.2773Q15.293-15.3711 13.8281-15.791Q12.3633-16.2109 10.8398-15.7617Q10.7227-15.7324 10.6885-15.8057Q10.6543-15.8789 10.752-15.957Z"/>
  </g>
  <text style="stroke:none;fill:black;font-family:sans-serif;font-size:13;font-weight:bold;" transform="matrix(1 0 0 1 1289 1953)">Exporting</text>
  <text style="stroke:none;fill:black;font-family:sans-serif;font-size:13;" transform="matrix(1 0 0 1 1289 1971)">Symbols should be outlined when exporting to ensure the</text>
  <text style="stroke:none;fill:black;font-family:sans-serif;font-size:13;" transform="matrix(1 0 0 1 1289 1989)">design is preserved when submitting to Xcode.</text>
  <text id="template-version" style="stroke:none;fill:black;font-family:sans-serif;font-size:13;text-anchor:end;" transform="matrix(1 0 0 1 3036 1933)">Template v.3.0</text>
  <text style="stroke:none;fill:black;font-family:sans-serif;font-size:13;text-anchor:end;" transform="matrix(1 0 0 1 3036 1951)">Requires Xcode 13 or greater</text>
  <text id="descriptive-name" style="stroke:none;fill:black;font-family:sans-serif;font-size:13;text-anchor:end;" transform="matrix(1 0 0 1 3036 1969)">Generated from app</text>
  <text style="stroke:none;fill:black;font-family:sans-serif;font-size:13;text-anchor:end;" transform="matrix(1 0 0 1 3036 1987)">Typeset at 100 points</text>
  <text style="stroke:none;fill:black;font-family:sans-serif;font-size:13;" transform="matrix(1 0 0 1 263 726)">Small</text>
  <text style="stroke:none;fill:black;font-family:sans-serif;font-size:13;" transform="matrix(1 0 0 1 263 1156)">Medium</text>
  <text style="stroke:none;fill:black;font-family:sans-serif;font-size:13;" transform="matrix(1 0 0 1 263 1586)">Large</text>
 </g>
 <g id="Guides">
  <g id="H-reference" style="fill:#27AAE1;stroke:none;" transform="matrix(1 0 0 1 339 696)">
   <path d="M0.993347 0L3.6377 0L29.3282-67.1326L30.0301-67.1326L30.0301-70.459L28.1227-70.459ZM11.6882-24.4797L46.9818-24.4797L46.2311-26.7288L12.4382-26.7288ZM55.1193 0L57.7637 0L30.6381-70.459L29.4327-70.459L29.4327-67.1326Z"/>
  </g>
  <line id="Baseline-S" style="fill:none;stroke:#27AAE1;opacity:1;stroke-width:0.5;" x1="263" x2="3036" y1="696" y2="696"/>
  <line id="Capline-S" style="fill:none;stroke:#27AAE1;opacity:1;stroke-width:0.5;" x1="263" x2="3036" y1="625.541" y2="625.541"/>
  <g id="H-reference" style="fill:#27AAE1;stroke:none;" transform="matrix(1 0 0 1 339 1126)">
   <path d="M0.993347 0L3.6377 0L29.3282-67.1326L30.0301-67.1326L30.0301-70.459L28.1227-70.459ZM11.6882-24.4797L46.9818-24.4797L46.2311-26.7288L12.4382-26.7288ZM55.1193 0L57.7637 0L30.6381-70.459L29.4327-70.459L29.4327-67.1326Z"/>
  </g>
  <line id="Baseline-M" style="fill:none;stroke:#27AAE1;opacity:1;stroke-width:0.5;" x1="263" x2="3036" y1="1126" y2="1126"/>
  <line id="Capline-M" style="fill:none;stroke:#27AAE1;opacity:1;stroke-width:0.5;" x1="263" x2="3036" y1="1055.54" y2="1055.54"/>
  <g id="H-reference" style="fill:#27AAE1;stroke:none;" transform="matrix(1 0 0 1 339 1556)">
   <path d="M0.993347 0L3.6377 0L29.3282-67.1326L30.0301-67.1326L30.0301-70.459L28.1227-70.459ZM11.6882-24.4797L46.9818-24.4797L46.2311-26.7288L12.4382-26.7288ZM55.1193 0L57.7637 0L30.6381-70.459L29.4327-70.459L29.4327-67.1326Z"/>
  </g>
  <line id="Baseline-L" style="fill:none;stroke:#27AAE1;opacity:1;stroke-width:0.5;" x1="263" x2="3036" y1="1556" y2="1556"/>
  <line id="Capline-L" style="fill:none;stroke:#27AAE1;opacity:1;stroke-width:0.5;" x1="263" x2="3036" y1="1485.54" y2="1485.54"/>
  <line id="left-margin-Regular-M" style="fill:none;stroke:#00AEEF;stroke-width:0.5;opacity:1.0;" x1="1392.38" x2="1392.38" y1="1030.79" y2="1150.12"/>
  <line id="right-margin-Regular-M" style="fill:none;stroke:#00AEEF;stroke-width:0.5;opacity:1.0;" x1="1507.31" x2="1507.31" y1="1030.79" y2="1150.12"/>
 </g>
 <g id="Symbols">
  <g id="Black-L" transform="matrix(1 0 0 1 2856.24 1556)">
   <path d="M129.587-87.4502Q124.522-92.4343 117.562-94.3081Q110.601-96.1819 100.284-96.1819L54.0263-96.1819Q43.7194-96.1819 36.7304-94.3075Q29.7414-92.4331 24.7364-87.449Q19.7523-82.4441 17.9181-75.5647Q16.084-68.6853 16.084-58.2603L16.084-12.1486Q16.084-1.69208 17.9176 5.19951Q19.7511 12.0911 24.7352 17.074Q29.7986 22.0581 36.7596 23.9319Q43.7206 25.8057 54.0383 25.8057L100.284 25.8057Q110.601 25.8057 117.592 23.9319Q124.582 22.0581 129.587 17.074Q134.571 12.0899 136.405 5.19891Q138.238-1.69208 138.238-12.1486L138.238-58.2275Q138.238-68.6841 136.405-75.6049Q134.571-82.5257 129.587-87.4502ZM118.257-59.9944L118.257-10.3818Q118.257-5.39355 117.503-2.4316Q116.749 0.530353 114.925 2.41294Q113.022 4.23711 110.03 5.0309Q107.038 5.82468 102.051 5.82468L52.2715 5.82468Q47.2844 5.82468 44.2817 5.0309Q41.2789 4.23711 39.3963 2.41294Q37.5721 0.530353 36.8186-2.4316Q36.065-5.39355 36.065-10.3818L36.065-59.9616Q36.065-65.0362 36.8186-67.972Q37.5721-70.9077 39.3951-72.7903Q41.2777-74.6145 44.2834-75.4077Q47.2892-76.2009 52.3042-76.2009L102.051-76.2009Q107.038-76.2009 110.03-75.4071Q113.022-74.6133 114.925-72.7891Q116.749-70.9065 117.503-67.9738Q118.257-65.041 118.257-59.9944Z"/>
  </g>
  <g id="Heavy-L" transform="matrix(1 0 0 1 2560.32 1556)">
   <path d="M128.336-86.9472Q123.346-91.8567 116.486-93.6037Q109.625-95.3507 99.812-95.3507L52.8753-95.3507Q43.113-95.3507 36.2327-93.6009Q29.3525-91.8511 24.4127-86.9415Q19.5031-82.0017 17.7936-75.2242Q16.084-68.4466 16.084-58.5896L16.084-11.8641Q16.084-1.92626 17.7908 4.8748Q19.4976 11.6759 24.4071 16.5798Q29.3914 21.4893 36.255 23.2363Q43.1186 24.9833 52.9314 24.9833L99.812 24.9833Q109.625 24.9833 116.511 23.2363Q123.397 21.4893 128.336 16.5798Q133.246 11.6702 134.953 4.87197Q136.659-1.92626 136.659-11.8641L136.659-58.5032Q136.659-68.4411 134.953-75.2645Q133.246-82.0878 128.336-86.9472ZM119.159-60.2612L119.159-10.1061Q119.159-5.09619 118.36-1.73256Q117.561 1.63106 115.494 3.74302Q113.357 5.81035 109.966 6.64663Q106.574 7.48292 101.57 7.48292L51.1734 7.48292Q46.1691 7.48292 42.7624 6.64663Q39.3558 5.81035 37.2439 3.74302Q35.1765 1.63106 34.3805-1.73256Q33.5844-5.09619 33.5844-10.1061L33.5844-60.1749Q33.5844-65.2933 34.3805-68.6487Q35.1765-72.0041 37.2382-74.116Q39.3502-76.1834 42.7708-77.0168Q46.1915-77.8503 51.2598-77.8503L101.57-77.8503Q106.574-77.8503 109.966-77.014Q113.357-76.1777 115.494-74.1104Q117.561-71.9984 118.36-68.6571Q119.159-65.3158 119.159-60.2612Z"/>
  </g>
  <g id="Bold-L" transform="matrix(1 0 0 1 2264.64 1556)">
   <path d="M126.673-86.2801Q121.819-91.0526 115.126-92.6644Q108.433-94.2763 99.1237-94.2763L51.4164-94.2763Q42.2258-94.2763 35.5248-92.6579Q28.8238-91.0395 24.0132-86.2667Q19.2404-81.4561 17.6622-74.85Q16.084-68.2439 16.084-58.982L16.084-11.5405Q16.084-2.12131 17.6556 4.52361Q19.2273 11.1685 23.9998 15.9279Q28.8396 20.7005 35.5394 22.3123Q42.2391 23.9242 51.5487 23.9242L99.1237 23.9242Q108.433 23.9242 115.148 22.3123Q121.862 20.7005 126.673 15.9279Q131.445 11.1552 133.017 4.51695Q134.588-2.12131 134.588-11.5405L134.588-58.8116Q134.588-68.2308 133.017-74.8903Q131.445-81.5499 126.673-86.2801ZM120.147-60.5544L120.147-9.79771Q120.147-4.67523 119.279-0.856922Q118.411 2.96138 116.067 5.33528Q113.668 7.67997 109.822 8.5812Q105.976 9.48243 100.867 9.48243L49.8059 9.48243Q44.6965 9.48243 40.8315 8.5812Q36.9664 7.67997 34.5925 5.33528Q32.2478 2.96138 31.3868-0.856922Q30.5258-4.67523 30.5258-9.79771L30.5258-60.384Q30.5258-65.6532 31.3868-69.49Q32.2478-73.3268 34.5791-75.7007Q36.953-78.0454 40.8512-78.94Q44.7494-79.8345 49.9763-79.8345L100.867-79.8345Q105.976-79.8345 109.822-78.9333Q113.668-78.0321 116.067-75.6874Q118.411-73.3135 119.279-69.5098Q120.147-65.7061 120.147-60.5544Z"/>
  </g>
  <g id="Semibold-L" transform="matrix(1 0 0 1 1968.64 1556)">
   <path d="M125.526-85.8202Q120.767-90.4982 114.189-92.0169Q107.612-93.5357 98.6492-93.5357L50.4107-93.5357Q41.6142-93.5357 35.0367-92.0078Q28.4593-90.4799 23.7377-85.8015Q19.0593-81.0799 17.5717-74.592Q16.084-68.1042 16.084-59.2525L16.084-11.3174Q16.084-2.25578 17.5625 4.28151Q19.041 10.8188 23.7191 15.4785Q28.4592 20.1566 35.046 21.6753Q41.6328 23.194 50.5954 23.194L98.6492 23.194Q107.612 23.194 114.208 21.6753Q120.804 20.1566 125.526 15.4785Q130.204 10.8002 131.682 4.27219Q133.161-2.25578 133.161-11.3174L133.161-59.0242Q133.161-68.0858 131.682-74.6324Q130.204-81.179 125.526-85.8202ZM120.827-60.7565L120.827-9.58511Q120.827-4.38502 119.913-0.253259Q118.998 3.8785 116.462 6.43297Q113.882 8.96888 109.723 9.91488Q105.563 10.8609 100.381 10.8609L48.8631 10.8609Q43.6814 10.8609 39.5002 9.91488Q35.3191 8.96888 32.7646 6.43297Q30.2287 3.8785 29.3229-0.253259Q28.4171-4.38502 28.4171-9.58511L28.4171-60.5282Q28.4171-65.9013 29.3229-70.07Q30.2287-74.2387 32.746-76.7932Q35.3005-79.3291 39.5279-80.2658Q43.7553-81.2025 49.0914-81.2025L100.381-81.2025Q105.563-81.2025 109.723-80.2565Q113.882-79.3105 116.462-76.7746Q118.998-74.2201 119.913-70.0976Q120.827-65.9752 120.827-60.7565Z"/>
  </g>
  <g id="Medium-L" transform="matrix(1 0 0 1 1672.47 1556)">
   <path d="M124.656-85.4714Q119.969-90.0779 113.479-91.526Q106.989-92.9741 98.2894-92.9741L49.6481-92.9741Q41.1504-92.9741 34.6667-91.5148Q28.1829-90.0556 23.5288-85.4488Q18.922-80.7947 17.503-74.3964Q16.084-67.9982 16.084-59.4576L16.084-11.1482Q16.084-2.35774 17.4919 4.09793Q18.8997 10.5536 23.5062 15.1378Q28.1708 19.7442 34.6719 21.1923Q41.1731 22.6404 49.8726 22.6404L98.2894 22.6404Q106.989 22.6404 113.495 21.1923Q120.001 19.7442 124.656 15.1378Q129.262 10.531 130.67 4.08661Q132.078-2.35774 132.078-11.1482L132.078-59.1854Q132.078-67.9759 130.67-74.4368Q129.262-80.8978 124.656-85.4714ZM121.344-60.9097L121.344-9.42391Q121.344-4.16497 120.393 0.204463Q119.442 4.57389 116.761 7.26529Q114.045 9.94618 109.647 10.9261Q105.25 11.9061 100.014 11.9061L48.1483 11.9061Q42.9116 11.9061 38.4909 10.9261Q34.0701 9.94618 31.3787 7.26529Q28.6978 4.57389 27.7581 0.204463Q26.8183-4.16497 26.8183-9.42391L26.8183-60.6375Q26.8183-66.0894 27.7581-70.5098Q28.6978-74.9302 31.356-77.6216Q34.0474-80.3025 38.5244-81.2711Q43.0015-82.2397 48.4205-82.2397L100.014-82.2397Q105.25-82.2397 109.647-81.2598Q114.045-80.2798 116.761-77.5989Q119.442-74.9075 120.393-70.5434Q121.344-66.1792 121.344-60.9097Z"/>
  </g>
  <g id="Regular-L" transform="matrix(1 0 0 1 1376.47 1556)">
   <path d="M123.521-85.0166Q118.928-89.5296 112.552-90.8856Q106.177-92.2416 97.8201-92.2416L48.6534-92.2416Q40.5455-92.2416 34.184-90.8719Q27.8224-89.5022 23.2564-84.9887Q18.7429-80.4227 17.4134-74.1413Q16.084-67.86 16.084-59.7252L16.084-10.9276Q16.084-2.49073 17.3997 3.85849Q18.7155 10.2077 23.2285 14.6933Q27.7946 19.2064 34.184 20.5623Q40.5734 21.9183 48.9299 21.9183L97.8201 21.9183Q106.177 21.9183 112.566 20.5623Q118.955 19.2064 123.521 14.6933Q128.035 10.1798 129.35 3.84455Q130.666-2.49073 130.666-10.9276L130.666-59.3957Q130.666-67.8325 129.35-74.1818Q128.035-80.531 123.521-85.0166ZM122.017-61.1096L122.017-9.21365Q122.017-3.87795 121.019 0.801492Q120.022 5.48093 117.152 8.35092Q114.257 11.2209 109.549 12.2452Q104.842 13.2694 99.5341 13.2694L47.2159 13.2694Q41.9076 13.2694 37.1743 12.2452Q32.4409 11.2209 29.5709 8.35092Q26.7009 5.48093 25.7169 0.801492Q24.7329-3.87795 24.7329-9.21365L24.7329-60.7801Q24.7329-66.3347 25.7169-71.0834Q26.7009-75.8321 29.543-78.7021Q32.413-81.5721 37.2156-82.5824Q42.0182-83.5927 47.5454-83.5927L99.5341-83.5927Q104.842-83.5927 109.549-82.5684Q114.257-81.5442 117.152-78.6742Q120.022-75.8042 121.019-71.1248Q122.017-66.4453 122.017-61.1096Z"/>
  </g>
  <g id="Light-L" transform="matrix(1 0 0 1 1080.85 1556)">
   <path d="M121.632-84.2724Q117.42-88.4035 111.445-89.8072Q105.47-91.211 96.6751-91.211L47.432-91.211Q39.0567-91.211 33.1056-89.7841Q27.1545-88.3572 22.9893-84.2252Q18.8574-80.06 17.4707-74.1889Q16.084-68.3178 16.084-59.897L16.084-10.8894Q16.084-2.0136 17.4475 3.94443Q18.811 9.90245 22.9422 13.9873Q27.1074 18.1184 33.1056 19.5221Q39.1039 20.9259 47.8993 20.9259L96.6751 20.9259Q105.47 20.9259 111.468 19.5221Q117.466 18.1184 121.632 13.9873Q125.763 9.85533 127.127 3.92087Q128.49-2.0136 128.49-10.8894L128.49-59.3957Q128.49-68.2715 127.127-74.2295Q125.763-80.1876 121.632-84.2724ZM121.864-61.0715L121.864-9.21365Q121.864-3.24818 120.733 1.46942Q119.602 6.18702 116.694 9.09517Q113.799 12.0033 109.034 13.1516Q104.269 14.3 98.3508 14.3L46.2235 14.3Q40.3044 14.3 35.5234 13.1516Q30.7424 12.0033 27.8342 9.09517Q24.9261 6.18702 23.818 1.46942Q22.7099-3.24818 22.7099-9.21365L22.7099-60.5701Q22.7099-66.85 23.818-71.6846Q24.9261-76.5192 27.7871-79.4274Q30.6953-82.3355 35.5933-83.4603Q40.4913-84.5851 46.7248-84.5851L98.3508-84.5851Q104.269-84.5851 109.034-83.4368Q113.799-82.2884 116.694-79.3803Q119.602-76.4721 120.733-71.7545Q121.864-67.0369 121.864-61.0715Z"/>
  </g>
  <g id="Thin-L" transform="matrix(1 0 0 1 785.574 1556)">
   <path d="M119.133-83.288Q115.426-86.9141 109.981-88.381Q104.537-89.8479 95.1606-89.8479L45.8166-89.8479Q37.0877-89.8479 31.6794-88.3453Q26.2711-86.8427 22.636-83.2155Q19.0088-79.5804 17.5464-74.2519Q16.084-68.9235 16.084-60.1243L16.084-10.839Q16.084-1.38255 17.5107 4.05808Q18.9374 9.49871 22.5635 13.0534Q26.1986 16.6794 31.6794 18.1464Q37.1602 19.6133 46.5362 19.6133L95.1606 19.6133Q104.537 19.6133 110.017 18.1464Q115.497 16.6794 119.133 13.0534Q122.759 9.42615 124.186 4.0218Q125.613-1.38255 125.613-10.839L125.613-59.3957Q125.613-68.8521 124.186-74.2927Q122.759-79.7334 119.133-83.288ZM121.663-61.021L121.663-9.21365Q121.663-2.41526 120.355 2.3528Q119.047 7.12087 116.088 10.0795Q113.193 13.0381 108.352 14.3506Q103.512 15.663 96.7859 15.663L44.9109 15.663Q38.1839 15.663 33.3399 14.3506Q28.496 13.0381 25.5374 10.0795Q22.5787 7.12087 21.3065 2.3528Q20.0343-2.41526 20.0343-9.21365L20.0343-60.2923Q20.0343-67.5315 21.3065-72.4798Q22.5787-77.4281 25.4648-80.3867Q28.4234-83.3453 33.4476-84.6215Q38.4717-85.8977 45.6396-85.8977L96.7859-85.8977Q103.512-85.8977 108.352-84.5852Q113.193-83.2727 116.088-80.3141Q119.047-77.3555 120.355-72.5874Q121.663-67.8194 121.663-61.021Z"/>
  </g>
  <g id="Ultralight-L" transform="matrix(1 0 0 1 489.6 1556)">
   <path d="M117.854-82.7839Q114.404-86.1512 109.231-87.6505Q104.058-89.1498 94.3849-89.1498L44.9892-89.1498Q36.0791-89.1498 30.9489-87.6084Q25.8187-86.067 22.4551-82.6983Q19.0863-79.3347 17.5851-74.2842Q16.084-69.2336 16.084-60.2408L16.084-10.8131Q16.084-1.05932 17.5431 4.1163Q19.0021 9.29192 22.3695 12.5751Q25.7331 15.9424 30.9489 17.4417Q36.1647 18.941 45.8381 18.941L94.3849 18.941Q104.058 18.941 109.273 17.4417Q114.489 15.9424 117.854 12.5751Q121.221 9.20632 122.68 4.0735Q124.139-1.05932 124.139-10.8131L124.139-59.3957Q124.139-69.1495 122.68-74.3251Q121.221-79.5007 117.854-82.7839ZM121.559-60.9951L121.559-9.21365Q121.559-1.98865 120.161 2.80527Q118.762 7.59918 115.778 10.5837Q112.883 13.5681 108.003 14.9646Q103.124 16.3611 95.9844 16.3611L44.2386 16.3611Q37.0978 16.3611 32.2216 14.9646Q27.3454 13.5681 24.3609 10.5837Q21.3764 7.59918 20.0201 2.80527Q18.6638-1.98865 18.6638-9.21365L18.6638-60.1501Q18.6638-67.8806 20.0201-72.8871Q21.3764-77.8936 24.2753-80.878Q27.2598-83.8625 32.3486-85.2162Q37.4373-86.5699 45.0837-86.5699L95.9844-86.5699Q103.124-86.5699 108.003-85.1734Q112.883-83.7769 115.778-80.7924Q118.762-77.808 120.161-73.0141Q121.559-68.2201 121.559-60.9951Z"/>
  </g>
  <g id="Black-M" transform="matrix(1 0 0 1 2873.09 1126)">
   <path d="M101.215-76.0186Q97.279-79.8923 91.8552-81.4595Q86.4313-83.0266 77.9443-83.0266L42.6802-83.0266Q34.1907-83.0266 28.7382-81.4596Q23.2856-79.8926 19.4064-76.0188Q15.5326-72.1396 13.9968-66.7779Q12.4609-61.4162 12.4609-52.8128L12.4609-17.5871Q12.4609-8.98074 13.9969-3.61674Q15.5329 1.74727 19.4067 5.62131Q23.343 9.49508 28.7667 11.0622Q34.1904 12.6293 42.6774 12.6293L77.9443 12.6293Q86.4313 12.6293 91.8836 11.0622Q97.3358 9.49508 101.215 5.62131Q105.089 1.74755 106.625-3.61659Q108.161-8.98074 108.161-17.5871L108.161-52.8101Q108.161-61.4165 106.625-66.8091Q105.089-72.2016 101.215-76.0186ZM90.8228-54.1814L90.8228-16.2159Q90.8228-12.2846 90.2589-10.3299Q89.6949-8.37515 88.4854-7.1086Q87.2131-5.89914 85.2301-5.30387Q83.2472-4.70861 79.3156-4.70861L41.3061-4.70861Q37.3746-4.70861 35.3888-5.30387Q33.4031-5.89914 32.1366-7.1086Q30.9271-8.37515 30.363-10.3299Q29.7989-12.2846 29.7989-16.2159L29.7989-54.1787Q29.7989-58.1709 30.363-60.0964Q30.9271-62.0218 32.1368-63.2884Q33.4034-64.4978 35.3884-65.0932Q37.3734-65.6886 41.3088-65.6886L79.3156-65.6886Q83.2472-65.6886 85.2301-65.0934Q87.2131-64.4981 88.4854-63.2886Q89.6949-62.0221 90.2589-60.0959Q90.8228-58.1698 90.8228-54.1814Z"/>
  </g>
  <g id="Heavy-M" transform="matrix(1 0 0 1 2577.05 1126)">
   <path d="M100.167-75.5955Q96.2685-79.4315 90.9051-80.8703Q85.5417-82.3091 77.5888-82.3091L41.6677-82.3091Q33.7352-82.3091 28.3511-80.8692Q22.9671-79.4293 19.1146-75.5932Q15.2785-71.7407 13.8697-66.4407Q12.4609-61.1407 12.4609-53.1188L12.4609-17.3125Q12.4609-9.25369 13.8686-3.94209Q15.2762 1.3695 19.1123 5.20332Q23.0084 9.0394 28.373 10.4782Q33.7375 11.917 41.6904 11.917L77.5888 11.917Q85.5417 11.917 90.9281 10.4782Q96.3144 9.0394 100.167 5.20332Q104.003 1.36721 105.411-3.94324Q106.818-9.25369 106.818-17.3125L106.818-53.0796Q106.818-61.1384 105.411-66.4719Q104.003-71.8053 100.167-75.5955ZM91.7187-54.4458L91.7187-15.9464Q91.7187-12.052 91.1233-9.70813Q90.528-7.36428 89.0844-5.87701Q87.583-4.43337 85.215-3.80801Q82.847-3.18265 78.955-3.18265L40.3243-3.18265Q36.4321-3.18265 34.056-3.80801Q31.6799-4.43337 30.1926-5.87701Q28.749-7.36428 28.1548-9.70813Q27.5605-12.052 27.5605-15.9464L27.5605-54.4066Q27.5605-58.3747 28.1548-60.7024Q28.749-63.0301 30.1903-64.5174Q31.6776-65.9611 34.0594-66.5853Q36.4412-67.2095 40.3634-67.2095L78.955-67.2095Q82.847-67.2095 85.215-66.5841Q87.583-65.9588 89.0844-64.5151Q90.528-63.0279 91.1233-60.7058Q91.7187-58.3838 91.7187-54.4458Z"/>
  </g>
  <g id="Bold-M" transform="matrix(1 0 0 1 2281.09 1126)">
   <path d="M98.9945-75.1222Q95.1382-78.9161 89.8424-80.2113Q84.5466-81.5065 77.1911-81.5065L40.535-81.5065Q33.2257-81.5065 27.9182-80.2087Q22.6107-78.911 18.7881-75.117Q14.9941-71.2944 13.7275-66.0634Q12.4609-60.8325 12.4609-53.4611L12.4609-17.0053Q12.4609-9.55902 13.725-4.30605Q14.9891 0.94692 18.783 4.73575Q22.6341 8.52966 27.9325 9.82487Q33.2309 11.1201 40.5863 11.1201L77.1911 11.1201Q84.5466 11.1201 89.8592 9.82487Q95.1718 8.52966 98.9945 4.73575Q102.788 0.941744 104.052-4.30864Q105.317-9.55902 105.317-17.0053L105.317-53.3811Q105.317-60.8274 104.052-66.0946Q102.788-71.3619 98.9945-75.1222ZM92.7208-54.7415L92.7208-15.6449Q92.7208-11.7918 92.0904-9.01263Q91.4599-6.23347 89.7543-4.49931Q87.9967-2.7937 85.1981-2.13467Q82.3995-1.47563 78.5515-1.47563L39.2259-1.47563Q35.3779-1.47563 32.565-2.13467Q29.7522-2.7937 28.018-4.49931Q26.3124-6.23347 25.6845-9.01263Q25.0566-11.7918 25.0566-15.6449L25.0566-54.6615Q25.0566-58.6026 25.6845-61.3804Q26.3124-64.1581 28.0128-65.8923Q29.747-67.5979 32.5727-68.2543Q35.3984-68.9108 39.3059-68.9108L78.5515-68.9108Q82.3995-68.9108 85.1981-68.2517Q87.9967-67.5927 89.7543-65.8871Q91.4599-64.1529 92.0904-61.3881Q92.7208-58.6232 92.7208-54.7415Z"/>
  </g>
  <g id="Semibold-M" transform="matrix(1 0 0 1 1984.9 1126)">
   <path d="M98.1862-74.7959Q94.3589-78.5607 89.1097-79.757Q83.8605-80.9532 76.9169-80.9532L39.7542-80.9532Q32.8745-80.9532 27.6198-79.7534Q22.3651-78.5537 18.5631-74.7887Q14.7981-70.9868 13.6295-65.8034Q12.4609-60.62 12.4609-53.6971L12.4609-16.7936Q12.4609-9.76951 13.626-4.55696Q14.7911 0.655593 18.5559 4.4134Q22.3761 8.17825 27.6288 9.37448Q32.8816 10.5707 39.8252 10.5707L76.9169 10.5707Q83.8605 10.5707 89.1223 9.37448Q94.3841 8.17825 98.1862 4.4134Q101.951 0.648429 103.116-4.56054Q104.281-9.76951 104.281-16.7936L104.281-53.5889Q104.281-60.613 103.116-65.8346Q101.951-71.0562 98.1862-74.7959ZM93.4116-54.9454L93.4116-15.4371Q93.4116-11.6124 92.757-8.53315Q92.1024-5.45389 90.2162-3.54953Q88.2819-1.66332 85.1864-0.981075Q82.0909-0.29883 78.2734-0.29883L38.4687-0.29883Q34.6511-0.29883 31.5372-0.981075Q28.4232-1.66332 26.5189-3.54953Q24.6327-5.45389 23.9816-8.53315Q23.3305-11.6124 23.3305-15.4371L23.3305-54.8373Q23.3305-58.7598 23.9816-61.8478Q24.6327-64.9357 26.5117-66.8401Q28.4161-68.7263 31.5478-69.405Q34.6795-70.0836 38.5768-70.0836L78.2734-70.0836Q82.0909-70.0836 85.1864-69.4014Q88.2819-68.7192 90.2162-66.8329Q92.1024-64.9286 92.757-61.8584Q93.4116-58.7882 93.4116-54.9454Z"/>
  </g>
  <g id="Medium-M" transform="matrix(1 0 0 1 1688.58 1126)">
   <path d="M97.5733-74.5485Q93.768-78.2913 88.5542-79.4125Q83.3403-80.5336 76.709-80.5336L39.1621-80.5336Q32.6081-80.5336 27.3935-79.4082Q22.1788-78.2828 18.3925-74.5398Q14.6495-70.7535 13.5552-65.6062Q12.4609-60.4589 12.4609-53.876L12.4609-16.633Q12.4609-9.92912 13.551-4.74721Q14.641 0.434696 18.3838 4.16898Q22.1804 7.91179 27.3986 9.03297Q32.6168 10.1542 39.2481 10.1542L76.709 10.1542Q83.3403 10.1542 88.5636 9.03297Q93.7868 7.91179 97.5733 4.16898Q101.316 0.426026 102.406-4.75155Q103.496-9.92912 103.496-16.633L103.496-53.7465Q103.496-60.4504 102.406-65.6374Q101.316-70.8245 97.5733-74.5485ZM93.9355-55.1L93.9355-15.2795Q93.9355-11.4764 93.2625-8.1696Q92.5896-4.86279 90.5664-2.82936Q88.4982-0.806219 85.1775-0.106374Q81.8569 0.593472 78.0625 0.593472L37.8946 0.593472Q34.1 0.593472 30.7578-0.106374Q27.4156-0.806219 25.3822-2.82936Q23.359-4.86279 22.6903-8.1696Q22.0216-11.4764 22.0216-15.2795L22.0216-54.9705Q22.0216-58.879 22.6903-62.2022Q23.359-65.5254 25.3735-67.5588Q27.4069-69.5819 30.7707-70.2774Q34.1344-70.973 38.024-70.973L78.0625-70.973Q81.8569-70.973 85.1775-70.2731Q88.4982-69.5733 90.5664-67.5501Q92.5896-65.5167 93.2625-62.215Q93.9355-58.9134 93.9355-55.1Z"/>
  </g>
  <g id="Regular-M" transform="matrix(1 0 0 1 1392.38 1126)">
   <path d="M96.7739-74.2258Q92.9973-77.9398 87.8296-78.9631Q82.6618-79.9864 76.4379-79.9864L38.3898-79.9864Q32.2607-79.9864 27.0983-78.9579Q21.9358-77.9294 18.1699-74.2151Q14.4557-70.4492 13.4583-65.349Q12.4609-60.2487 12.4609-54.1094L12.4609-16.4235Q12.4609-10.1373 13.4531-4.99536Q14.4452 0.146571 18.1593 3.85018Q21.9252 7.56424 27.0983 8.58753Q32.2714 9.61082 38.4953 9.61082L76.4379 9.61082Q82.6618 9.61082 87.8348 8.58753Q93.0078 7.56424 96.7739 3.85018Q100.488 0.135935 101.48-5.00068Q102.472-10.1373 102.472-16.4235L102.472-53.9521Q102.472-60.2383 101.48-65.3802Q100.488-70.5222 96.7739-74.2258ZM94.6187-55.3017L94.6187-15.0739Q94.6187-11.299 93.9219-7.69539Q93.225-4.09178 91.0232-1.89002Q88.7803 0.311738 85.166 1.03454Q81.5518 1.75734 77.7875 1.75734L37.1457 1.75734Q33.3812 1.75734 29.7412 1.03454Q26.1012 0.311738 23.8995-1.89002Q21.6977-4.09178 21.0061-7.69539Q20.3144-11.299 20.3144-15.0739L20.3144-55.1443Q20.3144-59.0344 21.0061-62.6644Q21.6977-66.2944 23.8888-68.4962Q26.0906-70.698 29.757-71.4154Q33.4234-72.1329 37.303-72.1329L77.7875-72.1329Q81.5518-72.1329 85.166-71.4101Q88.7803-70.6873 91.0232-68.4856Q93.225-66.2838 93.9219-62.6802Q94.6187-59.0766 94.6187-55.3017Z"/>
  </g>
  <g id="Light-M" transform="matrix(1 0 0 1 1096.64 1126)">
   <path d="M95.08-73.5585Q91.6456-76.9302 86.8372-77.9963Q82.0288-79.0624 75.4113-79.0624L37.2948-79.0624Q30.9259-79.0624 26.1315-77.9826Q21.337-76.9028 17.9304-73.5306Q14.5583-70.1241 13.5096-65.3917Q12.4609-60.6593 12.4609-54.2635L12.4609-16.3893Q12.4609-9.70952 13.4959-4.91832Q14.5309-0.127114 17.9026 3.21714Q21.3091 6.58881 26.1315 7.65493Q30.9538 8.72106 37.5713 8.72106L75.4113 8.72106Q82.0288 8.72106 86.8509 7.65493Q91.673 6.58881 95.08 3.21714Q98.4517-0.155 99.4867-4.93226Q100.522-9.70952 100.522-16.3893L100.522-53.9521Q100.522-60.6319 99.4867-65.4231Q98.4517-70.2143 95.08-73.5585ZM94.4819-55.2674L94.4819-15.0739Q94.4819-10.7344 93.6653-7.09656Q92.8487-3.45874 90.6127-1.22277Q88.3697 1.0132 84.704 1.84726Q81.0383 2.68132 76.7267 2.68132L36.2559 2.68132Q31.9438 2.68132 28.2611 1.84726Q24.5784 1.0132 22.3425-1.22277Q20.1065-3.45874 19.3036-7.09656Q18.5007-10.7344 18.5007-15.0739L18.5007-54.956Q18.5007-59.4964 19.3036-63.2034Q20.1065-66.9105 22.3146-69.1465Q24.5505-71.3825 28.3025-72.2026Q32.0544-73.0227 36.5673-73.0227L76.7267-73.0227Q81.0383-73.0227 84.704-72.1886Q88.3697-71.3546 90.6127-69.1186Q92.8487-66.8826 93.6653-63.2448Q94.4819-59.607 94.4819-55.2674Z"/>
  </g>
  <g id="Thin-M" transform="matrix(1 0 0 1 801.221 1126)">
   <path d="M92.8398-72.676Q89.8578-75.5948 85.5246-76.7176Q81.1915-77.8404 74.0535-77.8404L35.8465-77.8404Q29.1606-77.8404 24.8528-76.6927Q20.545-75.545 17.6137-72.6253Q14.694-69.694 13.5775-65.4481Q12.4609-61.2022 12.4609-54.4673L12.4609-16.3441Q12.4609-9.14375 13.5526-4.81642Q14.6442-0.489085 17.563 2.37989Q20.4943 5.29872 24.8528 6.4215Q29.2113 7.54427 36.3493 7.54427L74.0535 7.54427Q81.1915 7.54427 85.5496 6.4215Q89.9076 5.29872 92.8398 2.37989Q95.7586-0.539784 96.8502-4.84177Q97.9418-9.14375 97.9418-16.3441L97.9418-53.9521Q97.9418-61.1524 96.8502-65.4797Q95.7586-69.807 92.8398-72.676ZM94.3009-55.2222L94.3009-15.0739Q94.3009-9.98764 93.3259-6.30456Q92.351-2.62149 90.0697-0.340276Q87.8268 1.94094 84.093 2.92215Q80.3592 3.90335 75.3236 3.90335L35.0791 3.90335Q30.0427 3.90335 26.3035 2.92215Q22.5644 1.94094 20.2832-0.340276Q18.002-2.62149 17.0519-6.30456Q16.1019-9.98764 16.1019-15.0739L16.1019-54.707Q16.1019-60.1074 17.0519-63.9164Q18.002-67.7253 20.2325-70.0066Q22.5137-72.2878 26.3788-73.2436Q30.2438-74.1995 35.5943-74.1995L75.3236-74.1995Q80.3592-74.1995 84.093-73.2183Q87.8268-72.2371 90.0697-69.9559Q92.351-67.6746 93.3259-63.9916Q94.3009-60.3085 94.3009-55.2222Z"/>
  </g>
  <g id="Ultralight-M" transform="matrix(1 0 0 1 505.171 1126)">
   <path d="M91.6923-72.224Q88.9421-74.9109 84.8524-76.0627Q80.7627-77.2145 73.358-77.2145L35.1047-77.2145Q28.2564-77.2145 24.1978-76.032Q20.1393-74.8495 17.4515-72.1616Q14.7636-69.4738 13.6123-65.4771Q12.4609-61.4803 12.4609-54.5716L12.4609-16.3209Q12.4609-8.85397 13.5816-4.76423Q14.7022-0.674485 17.3891 1.95106Q20.077 4.63794 24.1978 5.78973Q28.3187 6.94153 35.7234 6.94153L73.358 6.94153Q80.7627 6.94153 84.8831 5.78973Q89.0034 4.63794 91.6923 1.95106Q94.3792-0.736868 95.4998-4.79542Q96.6205-8.85397 96.6205-16.3209L96.6205-53.9521Q96.6205-61.419 95.4998-65.5087Q94.3792-69.5985 91.6923-72.224ZM94.2082-55.199L94.2082-15.0739Q94.2082-9.60515 93.1521-5.8989Q92.096-2.19266 89.7916 0.111733Q87.5487 2.41612 83.78 3.4727Q80.0114 4.52927 74.605 4.52927L34.4764 4.52927Q29.069 4.52927 25.3009 3.4727Q21.5328 2.41612 19.2284 0.111733Q16.924-2.19266 15.8986-5.8989Q14.8732-9.60515 14.8732-15.0739L14.8732-54.5794Q14.8732-60.4203 15.8986-64.2815Q16.924-68.1427 19.166-70.4471Q21.4704-72.7515 25.3934-73.7768Q29.3164-74.8022 35.096-74.8022L74.605-74.8022Q80.0114-74.8022 83.78-73.7456Q87.5487-72.6891 89.7916-70.3847Q92.096-68.0803 93.1521-64.374Q94.2082-60.6678 94.2082-55.199Z"/>
  </g>
  <g id="Black-S" transform="matrix(1 0 0 1 2885.99 696)">
   <path d="M79.541-67.2852Q76.4648-70.3125 72.2168-71.582Q67.9688-72.8516 61.1328-72.8516L33.6914-72.8516Q26.8555-72.8516 22.583-71.582Q18.3105-70.3125 15.2832-67.2852Q12.2559-64.2578 11.0107-60.0586Q9.76562-55.8594 9.76562-48.9258L9.76562-21.4844Q9.76562-14.5508 11.0107-10.3516Q12.2559-6.15234 15.2832-3.125Q18.3594-0.0976562 22.6074 1.17188Q26.8555 2.44141 33.6914 2.44141L61.1328 2.44141Q67.9688 2.44141 72.2412 1.17188Q76.5137-0.0976562 79.541-3.125Q82.5684-6.15234 83.8135-10.3516Q85.0586-14.5508 85.0586-21.4844L85.0586-48.9258Q85.0586-55.8594 83.8135-60.083Q82.5684-64.3066 79.541-67.2852ZM70.8984-50L70.8984-20.4102Q70.8984-17.2852 70.459-15.8691Q70.0195-14.4531 69.1406-13.5254Q68.2129-12.6465 66.7725-12.1826Q65.332-11.7188 62.207-11.7188L32.6172-11.7188Q29.4922-11.7188 28.0518-12.1826Q26.6113-12.6465 25.6836-13.5254Q24.8047-14.4531 24.3652-15.8691Q23.9258-17.2852 23.9258-20.4102L23.9258-50Q23.9258-53.1738 24.3652-54.5654Q24.8047-55.957 25.6836-56.8848Q26.6113-57.7637 28.0518-58.2275Q29.4922-58.6914 32.6172-58.6914L62.207-58.6914Q65.332-58.6914 66.7725-58.2275Q68.2129-57.7637 69.1406-56.8848Q70.0195-55.957 70.459-54.5654Q70.8984-53.1738 70.8984-50Z"/>
  </g>
  <g id="Heavy-S" transform="matrix(1 0 0 1 2589.73 696)">
   <path d="M78.8611-67.0086Q75.7734-70.0474 71.5311-71.2017Q67.2888-72.356 60.9599-72.356L32.9654-72.356Q26.6365-72.356 22.3756-71.2017Q18.1146-70.0474 15.0642-67.0086Q12.0254-63.9582 10.8955-59.7647Q9.76562-55.5713 9.76562-49.1678L9.76562-21.2539Q9.76562-14.8389 10.8955-10.6397Q12.0254-6.44046 15.0642-3.40159Q18.1519-0.362719 22.3942 0.791568Q26.6365 1.94585 32.9654 1.94585L60.9599 1.94585Q67.2888 1.94585 71.5497 0.791568Q75.8107-0.362719 78.8611-3.40159Q81.8999-6.44046 83.0298-10.6397Q84.1597-14.8389 84.1597-21.2539L84.1597-49.1563Q84.1597-55.5713 83.0298-59.7891Q81.8999-64.007 78.8611-67.0086ZM71.6821-50.2305L71.6821-20.1797Q71.6821-17.1584 71.2311-15.4139Q70.7801-13.6695 69.7053-12.5573Q68.5817-11.4825 66.8186-11.0071Q65.0554-10.5317 62.0342-10.5317L31.8911-10.5317Q28.8699-10.5317 27.101-11.0071Q25.3321-11.4825 24.22-12.5573Q23.1452-13.6695 22.6942-15.4139Q22.2432-17.1584 22.2432-20.1797L22.2432-50.219Q22.2432-53.2891 22.6942-55.0149Q23.1452-56.7407 24.22-57.8528Q25.3321-58.9276 27.101-59.403Q28.8699-59.8784 31.9027-59.8784L62.0342-59.8784Q65.0554-59.8784 66.8186-59.403Q68.5817-58.9276 69.7053-57.8528Q70.7801-56.7407 71.2311-55.0149Q71.6821-53.2891 71.6821-50.2305Z"/>
  </g>
  <g id="Bold-S" transform="matrix(1 0 0 1 2293.52 696)">
   <path d="M78.1006-66.6992Q75-69.751 70.7642-70.7764Q66.5283-71.8018 60.7666-71.8018L32.1533-71.8018Q26.3916-71.8018 22.1436-70.7764Q17.8955-69.751 14.8193-66.6992Q11.7676-63.623 10.7666-59.436Q9.76562-55.249 9.76562-49.4385L9.76562-20.9961Q9.76562-15.1611 10.7666-10.9619Q11.7676-6.7627 14.8193-3.71094Q17.9199-0.65918 22.1558 0.366211Q26.3916 1.3916 32.1533 1.3916L60.7666 1.3916Q66.5283 1.3916 70.7764 0.366211Q75.0244-0.65918 78.1006-3.71094Q81.1523-6.7627 82.1533-10.9619Q83.1543-15.1611 83.1543-20.9961L83.1543-49.4141Q83.1543-55.249 82.1533-59.4604Q81.1523-63.6719 78.1006-66.6992ZM72.5586-50.4883L72.5586-19.9219Q72.5586-17.0166 72.0947-14.9048Q71.6309-12.793 70.3369-11.4746Q68.9941-10.1807 66.8701-9.69238Q64.7461-9.2041 61.8408-9.2041L31.0791-9.2041Q28.1738-9.2041 26.0376-9.69238Q23.9014-10.1807 22.583-11.4746Q21.2891-12.793 20.8252-14.9048Q20.3613-17.0166 20.3613-19.9219L20.3613-50.4639Q20.3613-53.418 20.8252-55.5176Q21.2891-57.6172 22.583-58.9355Q23.9014-60.2295 26.0376-60.7178Q28.1738-61.2061 31.1035-61.2061L61.8408-61.2061Q64.7461-61.2061 66.8701-60.7178Q68.9941-60.2295 70.3369-58.9355Q71.6309-57.6172 72.0947-55.5176Q72.5586-53.418 72.5586-50.4883Z"/>
  </g>
  <g id="Semibold-S" transform="matrix(1 0 0 1 1997.15 696)">
   <path d="M77.5763-66.4859Q74.4668-69.5466 70.2354-70.4831Q66.004-71.4196 60.6333-71.4196L31.5935-71.4196Q26.2228-71.4196 21.9836-70.4831Q17.7444-69.5466 14.6505-66.4859Q11.5898-63.392 10.6777-59.2094Q9.76562-55.0269 9.76562-49.6251L9.76562-20.8184Q9.76562-15.3833 10.6777-11.1841Q11.5898-6.98486 14.6505-3.92422Q17.76-0.863574 21.9914 0.0729492Q26.2228 1.00947 31.5935 1.00947L60.6333 1.00947Q66.004 1.00947 70.2432 0.0729492Q74.4823-0.863574 77.5763-3.92422Q80.6369-6.98486 81.549-11.1841Q82.4611-15.3833 82.4611-20.8184L82.4611-49.5918Q82.4611-55.0269 81.549-59.2338Q80.6369-63.4408 77.5763-66.4859ZM73.1629-50.666L73.1629-19.7441Q73.1629-16.9188 72.6901-14.5538Q72.2174-12.1887 70.7724-10.7281Q69.2785-9.28311 66.9057-8.78594Q64.5328-8.28877 61.7075-8.28877L30.5192-8.28877Q27.6939-8.28877 25.3044-8.78594Q22.9149-9.28311 21.4544-10.7281Q20.0094-12.1887 19.5366-14.5538Q19.0639-16.9188 19.0639-19.7441L19.0639-50.6327Q19.0639-53.5068 19.5366-55.8642Q20.0094-58.2215 21.4544-59.682Q22.9149-61.1271 25.3044-61.6242Q27.6939-62.1214 30.5525-62.1214L61.7075-62.1214Q64.5328-62.1214 66.9057-61.6242Q69.2785-61.1271 70.7724-59.682Q72.2174-58.2215 72.6901-55.8642Q73.1629-53.5068 73.1629-50.666Z"/>
  </g>
  <g id="Medium-S" transform="matrix(1 0 0 1 1700.7 696)">
   <path d="M77.1787-66.3242Q74.0625-69.3916 69.8345-70.2607Q65.6064-71.1299 60.5322-71.1299L31.1689-71.1299Q26.0947-71.1299 21.8623-70.2607Q17.6299-69.3916 14.5225-66.3242Q11.4551-63.2168 10.6104-59.0376Q9.76562-54.8584 9.76562-49.7666L9.76562-20.6836Q9.76562-15.5518 10.6104-11.3525Q11.4551-7.15332 14.5225-4.08594Q17.6387-1.01855 21.8667-0.149414Q26.0947 0.719727 31.1689 0.719727L60.5322 0.719727Q65.6064 0.719727 69.8389-0.149414Q74.0713-1.01855 77.1787-4.08594Q80.2461-7.15332 81.0908-11.3525Q81.9355-15.5518 81.9355-20.6836L81.9355-49.7266Q81.9355-54.8584 81.0908-59.062Q80.2461-63.2656 77.1787-66.3242ZM73.6211-50.8008L73.6211-19.6094Q73.6211-16.8447 73.1416-14.2876Q72.6621-11.7305 71.1025-10.1621Q69.4941-8.60254 66.9326-8.09863Q64.3711-7.59473 61.6064-7.59473L30.0947-7.59473Q27.3301-7.59473 24.7485-8.09863Q22.167-8.60254 20.5986-10.1621Q19.0391-11.7305 18.5596-14.2876Q18.0801-16.8447 18.0801-19.6094L18.0801-50.7607Q18.0801-53.5742 18.5596-56.127Q19.0391-58.6797 20.5986-60.248Q22.167-61.8076 24.7485-62.3115Q27.3301-62.8154 30.1348-62.8154L61.6064-62.8154Q64.3711-62.8154 66.9326-62.3115Q69.4941-61.8076 71.1025-60.248Q72.6621-58.6797 73.1416-56.127Q73.6211-53.5742 73.6211-50.8008Z"/>
  </g>
  <g id="Regular-S" transform="matrix(1 0 0 1 1404.34 696)">
   <path d="M76.6602-66.1133Q73.5352-69.1895 69.3115-69.9707Q65.0879-70.752 60.4004-70.752L30.6152-70.752Q25.9277-70.752 21.7041-69.9707Q17.4805-69.1895 14.3555-66.1133Q11.2793-62.9883 10.5225-58.8135Q9.76562-54.6387 9.76562-49.9512L9.76562-20.5078Q9.76562-15.7715 10.5225-11.5723Q11.2793-7.37305 14.3555-4.29688Q17.4805-1.2207 21.7041-0.439453Q25.9277 0.341797 30.6152 0.341797L60.4004 0.341797Q65.0879 0.341797 69.3115-0.439453Q73.5352-1.2207 76.6602-4.29688Q79.7363-7.37305 80.4932-11.5723Q81.25-15.7715 81.25-20.5078L81.25-49.9023Q81.25-54.6387 80.4932-58.8379Q79.7363-63.0371 76.6602-66.1133ZM74.2188-50.9766L74.2188-19.4336Q74.2188-16.748 73.7305-13.9404Q73.2422-11.1328 71.5332-9.42383Q69.7754-7.71484 66.9678-7.20215Q64.1602-6.68945 61.4746-6.68945L29.541-6.68945Q26.8555-6.68945 24.0234-7.20215Q21.1914-7.71484 19.4824-9.42383Q17.7734-11.1328 17.2852-13.9404Q16.7969-16.748 16.7969-19.4336L16.7969-50.9277Q16.7969-53.6621 17.2852-56.4697Q17.7734-59.2773 19.4824-60.9863Q21.1914-62.6953 24.0234-63.208Q26.8555-63.7207 29.5898-63.7207L61.4746-63.7207Q64.1602-63.7207 66.9678-63.208Q69.7754-62.6953 71.5332-60.9863Q73.2422-59.2773 73.7305-56.4697Q74.2188-53.6621 74.2188-50.9766Z"/>
  </g>
  <g id="Light-S" transform="matrix(1 0 0 1 1108.49 696)">
   <path d="M75.1617-65.523Q72.3394-68.2963 68.4336-69.1154Q64.5279-69.9346 59.4922-69.9346L29.6466-69.9346Q24.747-69.9346 20.8488-69.1079Q16.9507-68.2813 14.1436-65.5078Q11.3701-62.7007 10.5679-58.8512Q9.76562-55.0018 9.76562-50.0875L9.76562-20.4775Q9.76562-15.3931 10.5604-11.5041Q11.3551-7.61515 14.1284-4.85687Q16.9355-2.08359 20.8488-1.26444Q24.7622-0.445302 29.7979-0.445302L59.4922-0.445302Q64.5279-0.445302 68.4411-1.26444Q72.3544-2.08359 75.1617-4.85687Q77.935-7.63041 78.7298-11.5117Q79.5245-15.3931 79.5245-20.4775L79.5245-49.9023Q79.5245-54.9868 78.7298-58.8758Q77.935-62.7647 75.1617-65.523ZM74.0977-50.9463L74.0977-19.4336Q74.0977-16.2486 73.5035-13.4107Q72.9093-10.5728 71.17-8.83357Q69.4122-7.09432 66.5591-6.48321Q63.706-5.87209 60.5362-5.87209L28.7539-5.87209Q25.5839-5.87209 22.7141-6.48321Q19.8443-7.09432 18.1051-8.83357Q16.3658-10.5728 15.7791-13.4107Q15.1924-16.2486 15.1924-19.4336L15.1924-50.7612Q15.1924-54.0708 15.7791-56.9466Q16.3658-59.8223 18.0898-61.5616Q19.8291-63.3008 22.7367-63.9043Q25.6444-64.5078 28.9391-64.5078L60.5362-64.5078Q63.706-64.5078 66.5591-63.8967Q69.4122-63.2856 71.17-61.5463Q72.9093-59.8071 73.5035-56.9692Q74.0977-54.1313 74.0977-50.9463Z"/>
  </g>
  <g id="Thin-S" transform="matrix(1 0 0 1 812.918 696)">
   <path d="M73.18-64.7424Q70.7579-67.115 67.2726-67.9843Q63.7873-68.8536 58.2911-68.8536L28.3654-68.8536Q23.1853-68.8536 19.7177-67.9669Q16.2501-67.0802 13.8634-64.7069Q11.4902-62.3202 10.6279-58.9012Q9.76562-55.4821 9.76562-50.2678L9.76562-20.4375Q9.76562-14.8926 10.6105-11.414Q11.4553-7.93536 13.828-5.59751Q16.2147-3.22482 19.7177-2.35556Q23.2207-1.4863 28.7168-1.4863L58.2911-1.4863Q63.7873-1.4863 67.29-2.35556Q70.7927-3.22482 73.18-5.59751Q75.5527-7.9708 76.3975-11.4317Q77.2424-14.8926 77.2424-20.4375L77.2424-49.9023Q77.2424-55.4473 76.3975-58.9259Q75.5527-62.4045 73.18-64.7424ZM73.9376-50.9063L73.9376-19.4336Q73.9376-15.588 73.2033-12.7101Q72.469-9.83217 70.6897-8.0529Q68.9319-6.27363 66.0186-5.53234Q63.1052-4.79106 59.2951-4.79106L27.7129-4.79106Q23.9022-4.79106 20.9824-5.53234Q18.0627-6.27363 16.2834-8.0529Q14.5041-9.83217 13.7873-12.7101Q13.0704-15.588 13.0704-19.4336L13.0704-50.5409Q13.0704-54.6113 13.7873-57.5772Q14.5041-60.5431 16.248-62.3224Q18.0272-64.1017 21.035-64.8252Q24.0427-65.5488 28.0783-65.5488L59.2951-65.5488Q63.1052-65.5488 66.0186-64.8075Q68.9319-64.0662 70.6897-62.287Q72.469-60.5077 73.2033-57.6298Q73.9376-54.7519 73.9376-50.9063Z"/>
  </g>
  <g id="Ultralight-S" transform="matrix(1 0 0 1 516.792 696)">
   <path d="M72.1649-64.3425Q69.9478-66.51 66.6779-67.4049Q63.4079-68.2999 57.6759-68.2999L27.7092-68.2999Q22.3854-68.2999 19.1383-67.3824Q15.8913-66.465 13.7199-64.2967Q11.5517-62.1254 10.6586-58.9268Q9.76562-55.7281 9.76562-50.3601L9.76562-20.417Q9.76562-14.6362 10.6361-11.3678Q11.5067-8.09937 13.6742-5.97687Q15.8455-3.80936 19.1383-2.91443Q22.4312-2.0195 28.1631-2.0195L57.6759-2.0195Q63.4079-2.0195 66.7004-2.91443Q69.9928-3.80936 72.1649-5.97687Q74.3324-8.14514 75.2029-11.3907Q76.0735-14.6362 76.0735-20.417L76.0735-49.9023Q76.0735-55.6831 75.2029-58.9516Q74.3324-62.22 72.1649-64.3425ZM73.8556-50.8858L73.8556-19.4336Q73.8556-15.2496 73.0495-12.3512Q72.2435-9.45282 70.4437-7.65305Q68.6859-5.85327 65.7417-5.04532Q62.7975-4.23737 58.6594-4.23737L27.1797-4.23737Q23.0408-4.23737 20.0954-5.04532Q17.1501-5.85327 15.3503-7.65305Q13.5506-9.45282 12.767-12.3512Q11.9835-15.2496 11.9835-19.4336L11.9835-50.428Q11.9835-54.8882 12.767-57.9002Q13.5506-60.9123 15.3046-62.7121Q17.1043-64.5119 20.1633-65.2969Q23.2224-66.082 27.6375-66.082L58.6594-66.082Q62.7975-66.082 65.7417-65.274Q68.6859-64.4661 70.4437-62.6663Q72.2435-60.8665 73.0495-57.9681Q73.8556-55.0697 73.8556-50.8858Z"/>
  </g>
 </g>
</svg>
