<?xml version="1.0" encoding="UTF-8"?>
<!--Generator: Apple Native CoreSVG 175-->
<!DOCTYPE svg
PUBLIC "-//W3C//DTD SVG 1.1//EN"
       "http://www.w3.org/Graphics/SVG/1.1/DTD/svg11.dtd">
<svg version="1.1" xmlns="http://www.w3.org/2000/svg" xmlns:xlink="http://www.w3.org/1999/xlink" width="3300" height="2200">
 <!--glyph: "uni100A8F.medium", point size: 100.0, font version: "17.0d12e1", template writer version: "65.1"-->
 <g id="Notes">
  <rect height="2200" id="artboard" style="fill:white;opacity:1" width="3300" x="0" y="0"/>
  <line style="fill:none;stroke:black;opacity:1;stroke-width:0.5;" x1="263" x2="3036" y1="292" y2="292"/>
  <text style="stroke:none;fill:black;font-family:sans-serif;font-size:13;font-weight:bold;" transform="matrix(1 0 0 1 263 322)">Weight/Scale Variations</text>
  <text style="stroke:none;fill:black;font-family:sans-serif;font-size:13;text-anchor:middle;" transform="matrix(1 0 0 1 559.711 322)">Ultralight</text>
  <text style="stroke:none;fill:black;font-family:sans-serif;font-size:13;text-anchor:middle;" transform="matrix(1 0 0 1 856.422 322)">Thin</text>
  <text style="stroke:none;fill:black;font-family:sans-serif;font-size:13;text-anchor:middle;" transform="matrix(1 0 0 1 1153.13 322)">Light</text>
  <text style="stroke:none;fill:black;font-family:sans-serif;font-size:13;text-anchor:middle;" transform="matrix(1 0 0 1 1449.84 322)">Regular</text>
  <text style="stroke:none;fill:black;font-family:sans-serif;font-size:13;text-anchor:middle;" transform="matrix(1 0 0 1 1746.56 322)">Medium</text>
  <text style="stroke:none;fill:black;font-family:sans-serif;font-size:13;text-anchor:middle;" transform="matrix(1 0 0 1 2043.27 322)">Semibold</text>
  <text style="stroke:none;fill:black;font-family:sans-serif;font-size:13;text-anchor:middle;" transform="matrix(1 0 0 1 2339.98 322)">Bold</text>
  <text style="stroke:none;fill:black;font-family:sans-serif;font-size:13;text-anchor:middle;" transform="matrix(1 0 0 1 2636.69 322)">Heavy</text>
  <text style="stroke:none;fill:black;font-family:sans-serif;font-size:13;text-anchor:middle;" transform="matrix(1 0 0 1 2933.4 322)">Black</text>
  <line style="fill:none;stroke:black;opacity:1;stroke-width:0.5;" x1="263" x2="3036" y1="1903" y2="1903"/>
  <g transform="matrix(1 0 0 1 263 1933)">
   <path d="M9.24805 0.830078Q10.8691 0.830078 12.2949 0.214844Q13.7207-0.400391 14.8096-1.49414Q15.8984-2.58789 16.5186-4.01367Q17.1387-5.43945 17.1387-7.05078Q17.1387-8.66211 16.5186-10.0879Q15.8984-11.5137 14.8047-12.6074Q13.7109-13.7012 12.2852-14.3164Q10.8594-14.9316 9.23828-14.9316Q7.62695-14.9316 6.20117-14.3164Q4.77539-13.7012 3.69141-12.6074Q2.60742-11.5137 1.9873-10.0879Q1.36719-8.66211 1.36719-7.05078Q1.36719-5.43945 1.9873-4.01367Q2.60742-2.58789 3.69629-1.49414Q4.78516-0.400391 6.21094 0.214844Q7.63672 0.830078 9.24805 0.830078ZM9.24805-0.654297Q7.91992-0.654297 6.7627-1.14746Q5.60547-1.64062 4.73145-2.51953Q3.85742-3.39844 3.36426-4.56055Q2.87109-5.72266 2.87109-7.05078Q2.87109-8.37891 3.35938-9.54102Q3.84766-10.7031 4.72168-11.582Q5.5957-12.4609 6.75293-12.9541Q7.91016-13.4473 9.23828-13.4473Q10.5762-13.4473 11.7334-12.9541Q12.8906-12.4609 13.7695-11.582Q14.6484-10.7031 15.1465-9.54102Q15.6445-8.37891 15.6445-7.05078Q15.6445-5.72266 15.1514-4.56055Q14.6582-3.39844 13.7842-2.51953Q12.9102-1.64062 11.748-1.14746Q10.5859-0.654297 9.24805-0.654297ZM5.6543-7.05078Q5.6543-6.72852 5.85938-6.52832Q6.06445-6.32812 6.40625-6.32812L8.51562-6.32812L8.51562-4.20898Q8.51562-3.88672 8.71094-3.67676Q8.90625-3.4668 9.23828-3.4668Q9.56055-3.4668 9.77051-3.67676Q9.98047-3.88672 9.98047-4.20898L9.98047-6.32812L12.0898-6.32812Q12.4219-6.32812 12.627-6.52832Q12.832-6.72852 12.832-7.05078Q12.832-7.38281 12.627-7.58789Q12.4219-7.79297 12.0898-7.79297L9.98047-7.79297L9.98047-9.90234Q9.98047-10.2344 9.77051-10.4443Q9.56055-10.6543 9.23828-10.6543Q8.90625-10.6543 8.71094-10.4443Q8.51562-10.2344 8.51562-9.90234L8.51562-7.79297L6.40625-7.79297Q6.06445-7.79297 5.85938-7.58789Q5.6543-7.38281 5.6543-7.05078Z"/>
  </g>
  <g transform="matrix(1 0 0 1 281.867 1933)">
   <path d="M11.709 2.91016Q13.75 2.91016 15.5518 2.12891Q17.3535 1.34766 18.7305-0.0292969Q20.1074-1.40625 20.8887-3.20801Q21.6699-5.00977 21.6699-7.05078Q21.6699-9.0918 20.8887-10.8936Q20.1074-12.6953 18.7305-14.0723Q17.3535-15.4492 15.5469-16.2305Q13.7402-17.0117 11.6992-17.0117Q9.6582-17.0117 7.85645-16.2305Q6.05469-15.4492 4.68262-14.0723Q3.31055-12.6953 2.5293-10.8936Q1.74805-9.0918 1.74805-7.05078Q1.74805-5.00977 2.5293-3.20801Q3.31055-1.40625 4.6875-0.0292969Q6.06445 1.34766 7.86621 2.12891Q9.66797 2.91016 11.709 2.91016ZM11.709 1.25Q9.98047 1.25 8.47656 0.605469Q6.97266-0.0390625 5.83496-1.17676Q4.69727-2.31445 4.05762-3.81836Q3.41797-5.32227 3.41797-7.05078Q3.41797-8.7793 4.05762-10.2832Q4.69727-11.7871 5.83008-12.9297Q6.96289-14.0723 8.4668-14.7119Q9.9707-15.3516 11.6992-15.3516Q13.4277-15.3516 14.9316-14.7119Q16.4355-14.0723 17.5781-12.9297Q18.7207-11.7871 19.3652-10.2832Q20.0098-8.7793 20.0098-7.05078Q20.0098-5.32227 19.3701-3.81836Q18.7305-2.31445 17.5928-1.17676Q16.4551-0.0390625 14.9463 0.605469Q13.4375 1.25 11.709 1.25ZM7.17773-7.05078Q7.17773-6.69922 7.41211-6.47461Q7.64648-6.25 8.01758-6.25L10.8887-6.25L10.8887-3.36914Q10.8887-2.99805 11.1133-2.76855Q11.3379-2.53906 11.6895-2.53906Q12.0605-2.53906 12.29-2.76855Q12.5195-2.99805 12.5195-3.36914L12.5195-6.25L15.4004-6.25Q15.7715-6.25 16.001-6.47461Q16.2305-6.69922 16.2305-7.05078Q16.2305-7.42188 16.001-7.65137Q15.7715-7.88086 15.4004-7.88086L12.5195-7.88086L12.5195-10.752Q12.5195-11.1328 12.29-11.3623Q12.0605-11.5918 11.6895-11.5918Q11.3379-11.5918 11.1133-11.3574Q10.8887-11.123 10.8887-10.752L10.8887-7.88086L8.01758-7.88086Q7.63672-7.88086 7.40723-7.65137Q7.17773-7.42188 7.17773-7.05078Z"/>
  </g>
  <g transform="matrix(1 0 0 1 305.646 1933)">
   <path d="M14.9707 5.66406Q17.0605 5.66406 18.96 5.01465Q20.8594 4.36523 22.4512 3.19336Q24.043 2.02148 25.2197 0.429688Q26.3965-1.16211 27.0459-3.06641Q27.6953-4.9707 27.6953-7.05078Q27.6953-9.14062 27.0459-11.04Q26.3965-12.9395 25.2197-14.5312Q24.043-16.123 22.4512-17.2998Q20.8594-18.4766 18.9551-19.126Q17.0508-19.7754 14.9609-19.7754Q12.8711-19.7754 10.9717-19.126Q9.07227-18.4766 7.48535-17.2998Q5.89844-16.123 4.72168-14.5312Q3.54492-12.9395 2.90039-11.04Q2.25586-9.14062 2.25586-7.05078Q2.25586-4.9707 2.90527-3.06641Q3.55469-1.16211 4.72656 0.429688Q5.89844 2.02148 7.49023 3.19336Q9.08203 4.36523 10.9814 5.01465Q12.8809 5.66406 14.9707 5.66406ZM14.9707 3.84766Q13.1641 3.84766 11.5283 3.2959Q9.89258 2.74414 8.53516 1.74805Q7.17773 0.751953 6.17676-0.610352Q5.17578-1.97266 4.62891-3.6084Q4.08203-5.24414 4.08203-7.05078Q4.08203-8.86719 4.62891-10.5029Q5.17578-12.1387 6.17188-13.501Q7.16797-14.8633 8.52539-15.8594Q9.88281-16.8555 11.5186-17.4023Q13.1543-17.9492 14.9609-17.9492Q16.7773-17.9492 18.4131-17.4023Q20.0488-16.8555 21.4111-15.8594Q22.7734-14.8633 23.7695-13.501Q24.7656-12.1387 25.3174-10.5029Q25.8691-8.86719 25.8691-7.05078Q25.8789-5.24414 25.332-3.6084Q24.7852-1.97266 23.7842-0.610352Q22.7832 0.751953 21.4209 1.74805Q20.0586 2.74414 18.4229 3.2959Q16.7871 3.84766 14.9707 3.84766ZM9.19922-7.05078Q9.19922-6.66992 9.45801-6.4209Q9.7168-6.17188 10.1172-6.17188L14.0625-6.17188L14.0625-2.2168Q14.0625-1.81641 14.3115-1.55762Q14.5605-1.29883 14.9512-1.29883Q15.3516-1.29883 15.6104-1.55273Q15.8691-1.80664 15.8691-2.2168L15.8691-6.17188L19.8242-6.17188Q20.2246-6.17188 20.4785-6.4209Q20.7324-6.66992 20.7324-7.05078Q20.7324-7.46094 20.4785-7.71484Q20.2246-7.96875 19.8242-7.96875L15.8691-7.96875L15.8691-11.9141Q15.8691-12.3242 15.6104-12.583Q15.3516-12.8418 14.9512-12.8418Q14.5605-12.8418 14.3115-12.583Q14.0625-12.3242 14.0625-11.9141L14.0625-7.96875L10.1172-7.96875Q9.70703-7.96875 9.45312-7.71484Q9.19922-7.46094 9.19922-7.05078Z"/>
  </g>
  <text style="stroke:none;fill:black;font-family:sans-serif;font-size:13;font-weight:bold;" transform="matrix(1 0 0 1 263 1953)">Design Variations</text>
  <text style="stroke:none;fill:black;font-family:sans-serif;font-size:13;" transform="matrix(1 0 0 1 263 1971)">Symbols are supported in up to nine weights and three scales.</text>
  <text style="stroke:none;fill:black;font-family:sans-serif;font-size:13;" transform="matrix(1 0 0 1 263 1989)">For optimal layout with text and other symbols, vertically align</text>
  <text style="stroke:none;fill:black;font-family:sans-serif;font-size:13;" transform="matrix(1 0 0 1 263 2007)">symbols with the adjacent text.</text>
  <line style="fill:none;stroke:#00AEEF;stroke-width:0.5;opacity:1.0;" x1="776" x2="776" y1="1919" y2="1933"/>
  <g transform="matrix(1 0 0 1 776 1933)">
   <path d="M3.31055 0.15625Q3.70117 0.15625 3.91602-0.00976562Q4.13086-0.175781 4.26758-0.585938L5.52734-4.0332L11.2891-4.0332L12.5488-0.585938Q12.6855-0.175781 12.9004-0.00976562Q13.1152 0.15625 13.4961 0.15625Q13.8867 0.15625 14.1162-0.0585938Q14.3457-0.273438 14.3457-0.644531Q14.3457-0.869141 14.2383-1.17188L9.6582-13.3691Q9.48242-13.8184 9.17969-14.043Q8.87695-14.2676 8.4082-14.2676Q7.5-14.2676 7.17773-13.3789L2.59766-1.16211Q2.49023-0.859375 2.49023-0.634766Q2.49023-0.263672 2.70996-0.0537109Q2.92969 0.15625 3.31055 0.15625ZM6.00586-5.51758L8.37891-12.0898L8.42773-12.0898L10.8008-5.51758Z"/>
  </g>
  <line style="fill:none;stroke:#00AEEF;stroke-width:0.5;opacity:1.0;" x1="793.197" x2="793.197" y1="1919" y2="1933"/>
  <text style="stroke:none;fill:black;font-family:sans-serif;font-size:13;font-weight:bold;" transform="matrix(1 0 0 1 776 1953)">Margins</text>
  <text style="stroke:none;fill:black;font-family:sans-serif;font-size:13;" transform="matrix(1 0 0 1 776 1971)">Leading and trailing margins on the left and right side of each symbol</text>
  <text style="stroke:none;fill:black;font-family:sans-serif;font-size:13;" transform="matrix(1 0 0 1 776 1989)">can be adjusted by modifying the x-location of the margin guidelines.</text>
  <text style="stroke:none;fill:black;font-family:sans-serif;font-size:13;" transform="matrix(1 0 0 1 776 2007)">Modifications are automatically applied proportionally to all</text>
  <text style="stroke:none;fill:black;font-family:sans-serif;font-size:13;" transform="matrix(1 0 0 1 776 2025)">scales and weights.</text>
  <g transform="matrix(1 0 0 1 1289 1933)">
   <path d="M2.8418 1.86523L4.54102 3.57422Q5.18555 4.22852 5.90332 4.17969Q6.62109 4.13086 7.31445 3.35938L18.0078-8.42773L17.041-9.4043L6.42578 2.27539Q6.16211 2.57812 5.89355 2.61719Q5.625 2.65625 5.27344 2.30469L4.10156 1.14258Q3.75 0.791016 3.79395 0.522461Q3.83789 0.253906 4.14062-0.0195312L15.6152-10.8203L14.6387-11.7871L3.04688-0.898438Q2.30469-0.214844 2.25098 0.498047Q2.19727 1.21094 2.8418 1.86523ZM9.25781-16.3281Q8.94531-16.0254 8.90625-15.6348Q8.86719-15.2441 9.04297-14.9512Q9.21875-14.6777 9.55566-14.541Q9.89258-14.4043 10.3809-14.5215Q11.4746-14.7754 12.5977-14.7314Q13.7207-14.6875 14.7949-13.9844L14.209-12.5293Q13.9551-11.9043 14.0674-11.4404Q14.1797-10.9766 14.5801-10.5664L16.875-8.25195Q17.2363-7.88086 17.5781-7.82227Q17.9199-7.76367 18.3398-7.8418L19.4043-8.03711L20.0684-7.36328L20.0293-6.80664Q20-6.43555 20.1221-6.12305Q20.2441-5.81055 20.6055-5.44922L21.3672-4.70703Q21.7285-4.3457 22.1533-4.33105Q22.5781-4.31641 22.9297-4.66797L25.8398-7.58789Q26.1914-7.93945 26.1816-8.35449Q26.1719-8.76953 25.8105-9.13086L25.0391-9.89258Q24.6875-10.2539 24.3799-10.3857Q24.0723-10.5176 23.7109-10.4883L23.1348-10.4395L22.4902-11.0742L22.7344-12.1973Q22.832-12.6172 22.6953-12.9834Q22.5586-13.3496 22.1191-13.7891L19.9219-15.9766Q18.6719-17.2168 17.2607-17.8369Q15.8496-18.457 14.4189-18.4814Q12.9883-18.5059 11.665-17.959Q10.3418-17.4121 9.25781-16.3281ZM10.752-15.957Q11.6602-16.6211 12.7002-16.9043Q13.7402-17.1875 14.8047-17.085Q15.8691-16.9824 16.8701-16.5137Q17.8711-16.0449 18.7012-15.2051L21.1328-12.793Q21.3086-12.6172 21.3525-12.4512Q21.3965-12.2852 21.3379-12.0312L21.0156-10.5469L22.5195-9.0625L23.5059-9.12109Q23.6914-9.13086 23.7891-9.09668Q23.8867-9.0625 24.0332-8.91602L24.6094-8.33984L22.168-5.89844L21.5918-6.47461Q21.4453-6.62109 21.4062-6.71875Q21.3672-6.81641 21.377-7.01172L21.4453-7.98828L19.9512-9.47266L18.4277-9.21875Q18.1836-9.16992 18.042-9.2041Q17.9004-9.23828 17.7148-9.41406L15.7129-11.416Q15.5176-11.5918 15.4932-11.7529Q15.4688-11.9141 15.5859-12.1875L16.4648-14.2773Q15.293-15.3711 13.8281-15.791Q12.3633-16.2109 10.8398-15.7617Q10.7227-15.7324 10.6885-15.8057Q10.6543-15.8789 10.752-15.957Z"/>
  </g>
  <text style="stroke:none;fill:black;font-family:sans-serif;font-size:13;font-weight:bold;" transform="matrix(1 0 0 1 1289 1953)">Exporting</text>
  <text style="stroke:none;fill:black;font-family:sans-serif;font-size:13;" transform="matrix(1 0 0 1 1289 1971)">Symbols should be outlined when exporting to ensure the</text>
  <text style="stroke:none;fill:black;font-family:sans-serif;font-size:13;" transform="matrix(1 0 0 1 1289 1989)">design is preserved when submitting to Xcode.</text>
  <text id="template-version" style="stroke:none;fill:black;font-family:sans-serif;font-size:13;text-anchor:end;" transform="matrix(1 0 0 1 3036 1933)">Template v.3.0</text>
  <text style="stroke:none;fill:black;font-family:sans-serif;font-size:13;text-anchor:end;" transform="matrix(1 0 0 1 3036 1951)">Requires Xcode 13 or greater</text>
  <text id="descriptive-name" style="stroke:none;fill:black;font-family:sans-serif;font-size:13;text-anchor:end;" transform="matrix(1 0 0 1 3036 1969)">Generated from terminal.fill</text>
  <text style="stroke:none;fill:black;font-family:sans-serif;font-size:13;text-anchor:end;" transform="matrix(1 0 0 1 3036 1987)">Typeset at 100 points</text>
  <text style="stroke:none;fill:black;font-family:sans-serif;font-size:13;" transform="matrix(1 0 0 1 263 726)">Small</text>
  <text style="stroke:none;fill:black;font-family:sans-serif;font-size:13;" transform="matrix(1 0 0 1 263 1156)">Medium</text>
  <text style="stroke:none;fill:black;font-family:sans-serif;font-size:13;" transform="matrix(1 0 0 1 263 1586)">Large</text>
 </g>
 <g id="Guides">
  <g id="H-reference" style="fill:#27AAE1;stroke:none;" transform="matrix(1 0 0 1 339 696)">
   <path d="M0.993347 0L3.6377 0L29.3282-67.1326L30.0301-67.1326L30.0301-70.459L28.1227-70.459ZM11.6882-24.4797L46.9818-24.4797L46.2311-26.7288L12.4382-26.7288ZM55.1193 0L57.7637 0L30.6381-70.459L29.4327-70.459L29.4327-67.1326Z"/>
  </g>
  <line id="Baseline-S" style="fill:none;stroke:#27AAE1;opacity:1;stroke-width:0.5;" x1="263" x2="3036" y1="696" y2="696"/>
  <line id="Capline-S" style="fill:none;stroke:#27AAE1;opacity:1;stroke-width:0.5;" x1="263" x2="3036" y1="625.541" y2="625.541"/>
  <g id="H-reference" style="fill:#27AAE1;stroke:none;" transform="matrix(1 0 0 1 339 1126)">
   <path d="M0.993347 0L3.6377 0L29.3282-67.1326L30.0301-67.1326L30.0301-70.459L28.1227-70.459ZM11.6882-24.4797L46.9818-24.4797L46.2311-26.7288L12.4382-26.7288ZM55.1193 0L57.7637 0L30.6381-70.459L29.4327-70.459L29.4327-67.1326Z"/>
  </g>
  <line id="Baseline-M" style="fill:none;stroke:#27AAE1;opacity:1;stroke-width:0.5;" x1="263" x2="3036" y1="1126" y2="1126"/>
  <line id="Capline-M" style="fill:none;stroke:#27AAE1;opacity:1;stroke-width:0.5;" x1="263" x2="3036" y1="1055.54" y2="1055.54"/>
  <g id="H-reference" style="fill:#27AAE1;stroke:none;" transform="matrix(1 0 0 1 339 1556)">
   <path d="M0.993347 0L3.6377 0L29.3282-67.1326L30.0301-67.1326L30.0301-70.459L28.1227-70.459ZM11.6882-24.4797L46.9818-24.4797L46.2311-26.7288L12.4382-26.7288ZM55.1193 0L57.7637 0L30.6381-70.459L29.4327-70.459L29.4327-67.1326Z"/>
  </g>
  <line id="Baseline-L" style="fill:none;stroke:#27AAE1;opacity:1;stroke-width:0.5;" x1="263" x2="3036" y1="1556" y2="1556"/>
  <line id="Capline-L" style="fill:none;stroke:#27AAE1;opacity:1;stroke-width:0.5;" x1="263" x2="3036" y1="1485.54" y2="1485.54"/>
  <line id="left-margin-Regular-M" style="fill:none;stroke:#00AEEF;stroke-width:0.5;opacity:1.0;" x1="1379.82" x2="1379.82" y1="1030.79" y2="1150.12"/>
  <line id="right-margin-Regular-M" style="fill:none;stroke:#00AEEF;stroke-width:0.5;opacity:1.0;" x1="1519.86" x2="1519.86" y1="1030.79" y2="1150.12"/>
 </g>
 <g id="Symbols">
  <g id="Black-L" transform="matrix(1 0 0 1 2841.51 1556)">
   <path d="M47.7051-43.1152L59.1797-50.0488L47.6562-57.0801Q45.2637-58.4473 44.5557-60.498Q43.8477-62.5488 44.4336-64.5996Q45.0195-66.6504 46.5576-68.0908Q48.0957-69.5312 50.3174-69.7754Q52.5391-70.0195 55.0781-68.4082L72.9004-57.2754Q75.4883-55.6641 76.3672-52.8809Q77.2461-50.0977 76.3916-47.3389Q75.5371-44.5801 72.9004-42.9199L55.0781-31.6406Q52.5391-30.0293 50.3174-30.2979Q48.0957-30.5664 46.5332-32.0068Q44.9707-33.4473 44.4092-35.498Q43.8477-37.5488 44.5801-39.5996Q45.3125-41.6504 47.7051-43.1152ZM75.7324-33.4473Q75.7324-36.2305 77.6855-38.1348Q79.6387-40.0391 82.4219-40.0391L106.348-40.0391Q109.131-40.0391 111.035-38.1348Q112.939-36.2305 112.939-33.4473Q112.939-30.6641 111.035-28.7109Q109.131-26.7578 106.348-26.7578L82.4219-26.7578Q79.5898-26.7578 77.6611-28.7109Q75.7324-30.6641 75.7324-33.4473ZM39.9902 26.5137L143.799 26.5137Q155.225 26.5137 161.475 20.3125Q167.725 14.1113 167.725 2.68555L167.725-73.0957Q167.725-84.4727 161.475-90.6738Q155.225-96.875 143.799-96.875L39.9902-96.875Q28.5645-96.875 22.3145-90.6738Q16.0645-84.4727 16.0645-73.0957L16.0645 2.68555Q16.0645 14.1113 22.3145 20.3125Q28.5645 26.5137 39.9902 26.5137Z"/>
  </g>
  <g id="Heavy-L" transform="matrix(1 0 0 1 2545.23 1556)">
   <path d="M46.3333-43.438L58.9149-51.0513L46.2967-58.728Q44.146-59.9686 43.5013-61.8118Q42.8566-63.6551 43.3792-65.4926Q43.9018-67.3302 45.2843-68.6207Q46.6667-69.9112 48.6637-70.1267Q50.6607-70.3423 52.9457-68.8919L70.9869-57.621Q73.333-56.16 74.1314-53.6301Q74.9298-51.1002 74.1615-48.5836Q73.3932-46.067 70.9869-44.5679L52.9457-33.1734Q50.6607-31.7238 48.6637-31.9576Q46.6667-32.1915 45.2656-33.482Q43.8644-34.7725 43.3662-36.61Q42.868-38.4476 43.5257-40.2908Q44.1833-42.1341 46.3333-43.438ZM74.0501-34.4612Q74.0501-36.9568 75.79-38.6593Q77.5299-40.3618 80.0133-40.3618L104.089-40.3618Q106.584-40.3618 108.292-38.6593Q110.001-36.9568 110.001-34.4612Q110.001-31.9778 108.292-30.2322Q106.584-28.4866 104.089-28.4866L80.0133-28.4866Q77.4925-28.4866 75.7713-30.2322Q74.0501-31.9778 74.0501-34.4612ZM38.826 25.4883L144.076 25.4883Q155.04 25.4883 160.944 19.6327Q166.849 13.7772 166.849 2.84653L166.849-73.2567Q166.849-84.1499 160.944-90.0112Q155.04-95.8725 144.076-95.8725L38.826-95.8725Q27.8732-95.8725 21.9688-90.0169Q16.0645-84.1614 16.0645-73.2567L16.0645 2.84653Q16.0645 13.7886 21.9688 19.6384Q27.8732 25.4883 38.826 25.4883Z"/>
  </g>
  <g id="Bold-L" transform="matrix(1 0 0 1 2249.01 1556)">
   <path d="M44.7998-43.7988L58.6182-52.1729L44.7754-60.5713Q42.8955-61.6699 42.3218-63.2812Q41.748-64.8926 42.1997-66.4917Q42.6514-68.0908 43.8599-69.2139Q45.0684-70.3369 46.814-70.52Q48.5596-70.7031 50.5615-69.4336L68.8477-58.0078Q70.9229-56.7139 71.6309-54.4678Q72.3389-52.2217 71.6675-49.9756Q70.9961-47.7295 68.8477-46.4111L50.5615-34.8877Q48.5596-33.6182 46.814-33.8135Q45.0684-34.0088 43.8477-35.1318Q42.627-36.2549 42.1997-37.854Q41.7725-39.4531 42.3462-41.0645Q42.9199-42.6758 44.7998-43.7988ZM72.168-35.5957Q72.168-37.7686 73.6694-39.2456Q75.1709-40.7227 77.3193-40.7227L101.562-40.7227Q103.735-40.7227 105.225-39.2456Q106.714-37.7686 106.714-35.5957Q106.714-33.4473 105.225-31.9336Q103.735-30.4199 101.562-30.4199L77.3193-30.4199Q75.1465-30.4199 73.6572-31.9336Q72.168-33.4473 72.168-35.5957ZM37.5244 24.3408L144.385 24.3408Q154.834 24.3408 160.352 18.8721Q165.869 13.4033 165.869 3.02734L165.869-73.4375Q165.869-83.7891 160.352-89.27Q154.834-94.751 144.385-94.751L37.5244-94.751Q27.0996-94.751 21.582-89.2822Q16.0645-83.8135 16.0645-73.4375L16.0645 3.02734Q16.0645 13.4277 21.582 18.8843Q27.0996 24.3408 37.5244 24.3408Z"/>
  </g>
  <g id="Semibold-L" transform="matrix(1 0 0 1 1952.64 1556)">
   <path d="M43.7424-44.0475L58.4137-52.9457L43.7263-61.8423Q42.0334-62.8433 41.5085-64.2944Q40.9836-65.7455 41.3864-67.1803Q41.7892-68.615 42.878-69.6224Q43.9667-70.6299 45.5387-70.7909Q47.1107-70.9518 48.9174-69.8067L67.3721-58.2741Q69.2612-57.0961 69.907-55.0453Q70.5528-52.9945 69.9478-50.9354Q69.3428-48.8762 67.3721-47.6822L48.9174-36.0695Q47.1107-34.9243 45.5387-35.0929Q43.9667-35.2615 42.8703-36.2694Q41.774-37.2772 41.3956-38.7119Q41.0172-40.1466 41.5329-41.5977Q42.0486-43.0489 43.7424-44.0475ZM70.8702-36.3777Q70.8702-38.3286 72.2073-39.65Q73.5443-40.9714 75.4616-40.9714L99.8207-40.9714Q101.772-40.9714 103.11-39.65Q104.448-38.3286 104.448-36.3777Q104.448-34.4604 103.11-33.1066Q101.772-31.7528 99.8207-31.7528L75.4616-31.7528Q73.5291-31.7528 72.1996-33.1066Q70.8702-34.4604 70.8702-36.3777ZM36.6272 23.5497L144.598 23.5497Q154.692 23.5497 159.943 18.3475Q165.194 13.1454 165.194 3.1517L165.194-73.5619Q165.194-83.5403 159.943-88.7592Q154.692-93.9781 144.598-93.9781L36.6272-93.9781Q26.5663-93.9781 21.3154-88.7756Q16.0645-83.5732 16.0645-73.5619L16.0645 3.1517Q16.0645 13.179 21.3154 18.3643Q26.5663 23.5497 36.6272 23.5497Z"/>
  </g>
  <g id="Medium-L" transform="matrix(1 0 0 1 1656.18 1556)">
   <path d="M42.9405-44.236L58.2588-53.5324L42.9314-62.8059Q41.3795-63.7321 40.892-65.0623Q40.4045-66.3925 40.77-67.7025Q41.1354-69.0125 42.1329-69.9326Q43.1305-70.8527 44.5717-70.9965Q46.0129-71.1403 47.6707-70.0897L66.2537-58.4763Q68.0008-57.386 68.5993-55.4836Q69.1978-53.5812 68.644-51.6632Q68.0901-49.7452 66.2537-48.6458L47.6707-36.9659Q46.0129-35.9154 44.5717-36.0638Q43.1305-36.2122 42.1288-37.1319Q41.127-38.0516 40.7856-39.3616Q40.4442-40.6715 40.9164-42.0017Q41.3887-43.3319 42.9405-44.236ZM69.8868-36.9705Q69.8868-38.7527 71.0991-39.9563Q72.3114-41.1598 74.054-41.1598L98.5001-41.1598Q100.282-41.1598 101.506-39.9563Q102.729-38.7527 102.729-36.9705Q102.729-35.2287 101.506-33.9962Q100.282-32.7637 98.5001-32.7637L74.054-32.7637Q72.303-32.7637 71.0949-33.9962Q69.8868-35.2287 69.8868-36.9705ZM35.9459 22.95L144.76 22.95Q154.584 22.95 159.632 17.9501Q164.681 12.9501 164.681 3.24631L164.681-73.6565Q164.681-83.3519 159.632-88.3717Q154.584-93.3914 144.76-93.3914L35.9459-93.3914Q26.162-93.3914 21.1132-88.3915Q16.0645-83.3916 16.0645-73.6565L16.0645 3.24631Q16.0645 12.9906 21.1132 17.9703Q26.162 22.95 35.9459 22.95Z"/>
  </g>
  <g id="Regular-L" transform="matrix(1 0 0 1 1359.81 1556)">
   <path d="M41.8945-44.4824L58.0566-54.2969L41.8945-64.0625Q40.5273-64.8926 40.0879-66.0645Q39.6484-67.2363 39.9658-68.3838Q40.2832-69.5312 41.1621-70.3369Q42.041-71.1426 43.3105-71.2646Q44.5801-71.3867 46.0449-70.459L64.7949-58.7402Q66.3574-57.7637 66.8945-56.0547Q67.4316-54.3457 66.9434-52.6123Q66.4551-50.8789 64.7949-49.9023L46.0449-38.1348Q44.5801-37.207 43.3105-37.3291Q42.041-37.4512 41.1621-38.2568Q40.2832-39.0625 39.9902-40.21Q39.6973-41.3574 40.1123-42.5293Q40.5273-43.7012 41.8945-44.4824ZM68.6035-37.7441Q68.6035-39.3066 69.6533-40.3564Q70.7031-41.4062 72.2168-41.4062L96.7773-41.4062Q98.3398-41.4062 99.4141-40.3564Q100.488-39.3066 100.488-37.7441Q100.488-36.2305 99.4141-35.1562Q98.3398-34.082 96.7773-34.082L72.2168-34.082Q70.7031-34.082 69.6533-35.1562Q68.6035-36.2305 68.6035-37.7441ZM35.0586 22.168L144.971 22.168Q154.443 22.168 159.229 17.4316Q164.014 12.6953 164.014 3.36914L164.014-73.7793Q164.014-83.1055 159.229-87.8662Q154.443-92.627 144.971-92.627L35.0586-92.627Q25.6348-92.627 20.8496-87.8906Q16.0645-83.1543 16.0645-73.7793L16.0645 3.36914Q16.0645 12.7441 20.8496 17.4561Q25.6348 22.168 35.0586 22.168Z"/>
  </g>
  <g id="Light-L" transform="matrix(1 0 0 1 1063.54 1556)">
   <path d="M41.3193-44.7701L58.3138-55.0537L41.3193-65.3191Q40.1947-66.0126 39.8384-66.9498Q39.4821-67.8871 39.7388-68.7923Q39.9956-69.6976 40.7005-70.3369Q41.4055-70.9763 42.4175-71.0678Q43.4296-71.1594 44.577-70.4437L63.4781-58.6189Q64.7224-57.8545 65.1611-56.4785Q65.5998-55.1025 65.21-53.7098Q64.8201-52.317 63.4781-51.5221L44.577-39.679Q43.4296-38.9626 42.4252-39.0621Q41.4207-39.1617 40.7158-39.8006Q40.0108-40.4396 39.7785-41.3525Q39.5462-42.2653 39.8853-43.2026Q40.2245-44.1399 41.3193-44.7701ZM67.1204-38.652Q67.1204-39.8972 67.9432-40.72Q68.766-41.5428 69.9768-41.5428L94.3253-41.5428Q95.5696-41.5428 96.4092-40.72Q97.2488-39.8972 97.2488-38.652Q97.2488-37.4413 96.4092-36.6016Q95.5696-35.762 94.3253-35.762L69.9768-35.762Q68.766-35.762 67.9432-36.6016Q67.1204-37.4413 67.1204-38.652ZM34.0294 21.3203L145.122 21.3203Q154.034 21.3203 158.577 16.7809Q163.12 12.2414 163.12 3.47519L163.12-73.9304Q163.12-82.6965 158.577-87.2532Q154.034-91.8098 145.122-91.8098L34.0294-91.8098Q25.1503-91.8098 20.6074-87.2929Q16.0645-82.7759 16.0645-73.9304L16.0645 3.47519Q16.0645 12.3199 20.6074 16.8201Q25.1503 21.3203 34.0294 21.3203Z"/>
  </g>
  <g id="Thin-L" transform="matrix(1 0 0 1 767.42 1556)">
   <path d="M40.5586-45.15L58.654-56.0547L40.5586-66.98Q39.7537-67.4942 39.5077-68.121Q39.2616-68.7477 39.4386-69.3329Q39.6156-69.9181 40.0902-70.3369Q40.5647-70.7558 41.2365-70.8076Q41.9083-70.8595 42.6346-70.4239L61.7363-58.4587Q62.561-57.9742 62.8696-57.0389Q63.1783-56.1035 62.9185-55.1609Q62.6587-54.2183 61.7363-53.6636L42.6346-41.7206Q41.9083-41.2849 41.254-41.3544Q40.5998-41.4238 40.1253-41.8427Q39.6507-42.2615 39.4981-42.8642Q39.3456-43.4669 39.5847-44.0937Q39.8239-44.7205 40.5586-45.15ZM65.1581-39.8537Q65.1581-40.6776 65.6807-41.2003Q66.2033-41.7229 67.0135-41.7229L91.082-41.7229Q91.9067-41.7229 92.4358-41.2003Q92.9649-40.6776 92.9649-39.8537Q92.9649-39.0427 92.4358-38.5136Q91.9067-37.9845 91.082-37.9845L67.0135-37.9845Q66.2033-37.9845 65.6807-38.5136Q65.1581-39.0427 65.1581-39.8537ZM32.6683 20.1996L145.322 20.1996Q153.494 20.1996 157.717 15.9203Q161.939 11.6409 161.939 3.61557L161.939-74.131Q161.939-82.1564 157.717-86.4426Q153.494-90.7288 145.322-90.7288L32.6683-90.7288Q24.5102-90.7288 20.2873-86.5021Q16.0645-82.2754 16.0645-74.131L16.0645 3.61557Q16.0645 11.7599 20.2873 15.9798Q24.5102 20.1996 32.6683 20.1996Z"/>
  </g>
  <g id="Ultralight-L" transform="matrix(1 0 0 1 471.012 1556)">
   <path d="M40.1688-45.3453L58.8287-56.5674L40.1688-67.8314Q39.5287-68.2526 39.3387-68.7206Q39.1487-69.1887 39.2845-69.6098Q39.4203-70.031 39.777-70.3369Q40.1337-70.6429 40.6315-70.6741Q41.1293-70.7054 41.6405-70.4132L60.8444-58.3771Q61.4532-58.036 61.6951-57.3261Q61.937-56.6162 61.7439-55.9044Q61.5509-55.1926 60.8444-54.7615L41.6405-42.7666Q41.1293-42.4744 40.6544-42.5285Q40.1794-42.5827 39.8228-42.8886Q39.4661-43.1946 39.3547-43.6382Q39.2433-44.0819 39.4314-44.5499Q39.6194-45.018 40.1688-45.3453ZM64.1533-40.4686Q64.1533-41.0774 64.5222-41.4463Q64.8911-41.8152 65.4961-41.8152L89.4211-41.8152Q90.0299-41.8152 90.4003-41.4463Q90.7707-41.0774 90.7707-40.4686Q90.7707-39.8636 90.4003-39.4932Q90.0299-39.1228 89.4211-39.1228L65.4961-39.1228Q64.8911-39.1228 64.5222-39.4932Q64.1533-39.8636 64.1533-40.4686ZM31.971 19.6251L145.425 19.6251Q153.217 19.6251 157.276 15.4789Q161.334 11.3327 161.334 3.68729L161.334-74.2332Q161.334-81.8794 157.276-86.0271Q153.217-90.1749 145.425-90.1749L31.971-90.1749Q24.1814-90.1749 20.1229-86.097Q16.0645-82.019 16.0645-74.2332L16.0645 3.68729Q16.0645 11.4723 20.1229 15.5487Q24.1814 19.6251 31.971 19.6251Z"/>
  </g>
  <g id="Black-M" transform="matrix(1 0 0 1 2861.96 1126)">
   <path d="M37.9395-41.1621L46.1426-46.1426L37.8906-51.1719Q35.4492-52.5879 35.1074-54.8096Q34.7656-57.0312 35.9375-58.9355Q37.1094-60.8398 39.2578-61.499Q41.4062-62.1582 43.9941-60.498L57.666-52.002Q59.7656-50.6836 60.4736-48.4375Q61.1816-46.1914 60.498-43.9209Q59.8145-41.6504 57.666-40.332L43.9941-31.6895Q41.4062-30.0293 39.2334-30.6885Q37.0605-31.3477 35.9131-33.2764Q34.7656-35.2051 35.1318-37.4268Q35.498-39.6484 37.9395-41.1621ZM59.668-33.252Q59.668-35.5957 61.2793-37.1582Q62.8906-38.7207 65.1367-38.7207L83.4961-38.7207Q85.8398-38.7207 87.4023-37.1582Q88.9648-35.5957 88.9648-33.252Q88.9648-31.0059 87.4023-29.3701Q85.8398-27.7344 83.4961-27.7344L65.1367-27.7344Q62.8418-27.7344 61.2549-29.3701Q59.668-31.0059 59.668-33.252ZM31.5918 13.2324L111.279 13.2324Q120.312 13.2324 125.366 8.17871Q130.42 3.125 130.42-5.9082L130.42-64.4531Q130.42-73.5352 125.366-78.5645Q120.312-83.5938 111.279-83.5938L31.5918-83.5938Q22.5586-83.5938 17.5049-78.5645Q12.4512-73.5352 12.4512-64.4531L12.4512-5.9082Q12.4512 3.125 17.5049 8.17871Q22.5586 13.2324 31.5918 13.2324Z"/>
  </g>
  <g id="Heavy-M" transform="matrix(1 0 0 1 2565.59 1126)">
   <path d="M36.718-41.4154L45.8427-46.9604L36.6806-52.52Q34.4696-53.8094 34.1507-55.8292Q33.8318-57.8491 34.8942-59.5749Q35.9566-61.3007 37.9093-61.8965Q39.8621-62.4924 42.231-60.9818L56.0875-52.359Q58.0139-51.1444 58.67-49.0711Q59.3262-46.9978 58.7002-44.9062Q58.0742-42.8146 56.0875-41.5878L42.231-32.8423Q39.8621-31.3316 37.891-31.9275Q35.92-32.5233 34.8759-34.2731Q33.8318-36.0229 34.1694-38.0375Q34.507-40.052 36.718-41.4154ZM58.3313-34.0584Q58.3313-36.1717 59.7813-37.5904Q61.2312-39.0091 63.2698-39.0091L81.8253-39.0091Q83.9386-39.0091 85.3569-37.5904Q86.7752-36.1717 86.7752-34.0584Q86.7752-32.0198 85.3569-30.5454Q83.9386-29.071 81.8253-29.071L63.2698-29.071Q61.1938-29.071 59.7626-30.5454Q58.3313-32.0198 58.3313-34.0584ZM30.6931 12.4023L111.51 12.4023Q120.232 12.4023 124.992 7.64847Q129.752 2.89459 129.752-5.78156L129.752-64.5912Q129.752-73.3047 124.992-78.046Q120.232-82.7873 111.51-82.7873L30.6931-82.7873Q21.9826-82.7873 17.2169-78.0518Q12.4512-73.3162 12.4512-64.5912L12.4512-5.78156Q12.4512 2.89459 17.2169 7.64847Q21.9826 12.4023 30.6931 12.4023Z"/>
  </g>
  <g id="Bold-M" transform="matrix(1 0 0 1 2269.25 1126)">
   <path d="M35.3516-41.6992L45.5078-47.876L35.3271-54.0283Q33.374-55.1758 33.0811-56.9702Q32.7881-58.7646 33.728-60.2905Q34.668-61.8164 36.4014-62.3413Q38.1348-62.8662 40.2588-61.5234L54.3213-52.7588Q56.0547-51.6602 56.6528-49.7803Q57.251-47.9004 56.6895-46.0083Q56.1279-44.1162 54.3213-42.9932L40.2588-34.1309Q38.1348-32.7881 36.3892-33.313Q34.6436-33.8379 33.7158-35.3882Q32.7881-36.9385 33.0933-38.7207Q33.3984-40.5029 35.3516-41.6992ZM56.8359-34.9609Q56.8359-36.8164 58.1055-38.0737Q59.375-39.3311 61.1816-39.3311L79.9561-39.3311Q81.8115-39.3311 83.0688-38.0737Q84.3262-36.8164 84.3262-34.9609Q84.3262-33.1543 83.0688-31.8604Q81.8115-30.5664 79.9561-30.5664L61.1816-30.5664Q59.3506-30.5664 58.0933-31.8604Q56.8359-33.1543 56.8359-34.9609ZM29.6875 11.4746L111.768 11.4746Q120.142 11.4746 124.573 7.05566Q129.004 2.63672 129.004-5.63965L129.004-64.7461Q129.004-73.0469 124.573-77.4658Q120.142-81.8848 111.768-81.8848L29.6875-81.8848Q21.3379-81.8848 16.8945-77.478Q12.4512-73.0713 12.4512-64.7461L12.4512-5.63965Q12.4512 2.63672 16.8945 7.05566Q21.3379 11.4746 29.6875 11.4746Z"/>
  </g>
  <g id="Semibold-M" transform="matrix(1 0 0 1 1972.8 1126)">
   <path d="M34.4093-41.8945L45.2766-48.5069L34.3941-55.0682Q32.6187-56.118 32.3433-57.7568Q32.0679-59.3956 32.9235-60.7838Q33.7791-62.1719 35.3615-62.648Q36.9438-63.1241 38.8992-61.8965L53.1036-53.0342Q54.7035-52.0157 55.262-50.2689Q55.8205-48.5222 55.3032-46.7678Q54.7859-45.0134 53.1036-43.9621L38.8992-35.0197Q36.9438-33.7921 35.3539-34.2682Q33.7639-34.7443 32.9159-36.1568Q32.0679-37.5694 32.3509-39.1918Q32.634-40.8142 34.4093-41.8945ZM55.8052-35.5827Q55.8052-37.2604 56.9504-38.4068Q58.0956-39.5531 59.742-39.5531L78.6674-39.5531Q80.3452-39.5531 81.4915-38.4068Q82.6378-37.2604 82.6378-35.5827Q82.6378-33.9363 81.4915-32.7667Q80.3452-31.5971 78.6674-31.5971L59.742-31.5971Q58.0795-31.5971 56.9424-32.7667Q55.8052-33.9363 55.8052-35.5827ZM28.994 10.8345L111.945 10.8345Q120.079 10.8345 124.284 6.64673Q128.488 2.45895 128.488-5.54199L128.488-64.8529Q128.488-72.8691 124.284-77.066Q120.079-81.263 111.945-81.263L28.994-81.263Q20.8939-81.263 16.6725-77.0828Q12.4512-72.9027 12.4512-64.8529L12.4512-5.54199Q12.4512 2.45895 16.6725 6.64673Q20.8939 10.8345 28.994 10.8345Z"/>
  </g>
  <g id="Medium-M" transform="matrix(1 0 0 1 1676.28 1126)">
   <path d="M33.6952-42.0433L45.1019-48.9853L33.6868-55.8563Q32.0457-56.8321 31.7841-58.353Q31.5224-59.874 32.3139-61.1576Q33.1055-62.4413 34.5734-62.8803Q36.0413-63.3194 37.8677-62.1796L52.1805-53.2433Q53.6797-52.285 54.2076-50.6397Q54.7356-48.9944 54.2519-47.3446Q53.7682-45.6947 52.1805-44.696L37.8677-35.6934Q36.0413-34.5535 34.5688-34.9926Q33.0963-35.4317 32.3093-36.7397Q31.5224-38.0478 31.7886-39.5489Q32.0549-41.05 33.6952-42.0433ZM55.0232-36.055Q55.0232-37.5977 56.0741-38.6597Q57.1251-39.7217 58.6502-39.7217L77.6901-39.7217Q79.2336-39.7217 80.2956-38.6597Q81.3576-37.5977 81.3576-36.055Q81.3576-34.5291 80.2956-33.4541Q79.2336-32.3792 77.6901-32.3792L58.6502-32.3792Q57.1159-32.3792 56.0696-33.4541Q55.0232-34.5291 55.0232-36.055ZM28.4691 10.3493L112.08 10.3493Q120.033 10.3493 124.065 6.33659Q128.098 2.32391 128.098-5.46799L128.098-64.9338Q128.098-72.7341 124.065-76.7624Q120.033-80.7907 112.08-80.7907L28.4691-80.7907Q20.5566-80.7907 16.5039-76.7826Q12.4512-72.7745 12.4512-64.9338L12.4512-5.46799Q12.4512 2.32391 16.5039 6.33659Q20.5566 10.3493 28.4691 10.3493Z"/>
  </g>
  <g id="Regular-M" transform="matrix(1 0 0 1 1379.82 1126)">
   <path d="M32.7637-42.2363L44.873-49.6094L32.7637-56.8848Q31.2988-57.7637 31.0547-59.1309Q30.8105-60.498 31.5186-61.6455Q32.2266-62.793 33.5449-63.1836Q34.8633-63.5742 36.5234-62.5488L50.9766-53.5156Q52.3438-52.6367 52.832-51.123Q53.3203-49.6094 52.8809-48.0957Q52.4414-46.582 50.9766-45.6543L36.5234-36.5723Q34.8633-35.5469 33.5449-35.9375Q32.2266-36.3281 31.5186-37.5Q30.8105-38.6719 31.0547-40.0146Q31.2988-41.3574 32.7637-42.2363ZM54.0039-36.6699Q54.0039-38.0371 54.9316-38.9893Q55.8594-39.9414 57.2266-39.9414L76.416-39.9414Q77.7832-39.9414 78.7354-38.9893Q79.6875-38.0371 79.6875-36.6699Q79.6875-35.3027 78.7354-34.3506Q77.7832-33.3984 76.416-33.3984L57.2266-33.3984Q55.8594-33.3984 54.9316-34.3506Q54.0039-35.3027 54.0039-36.6699ZM27.7832 9.7168L112.256 9.7168Q119.971 9.7168 123.779 5.93262Q127.588 2.14844 127.588-5.37109L127.588-65.0391Q127.588-72.5586 123.779-76.3672Q119.971-80.1758 112.256-80.1758L27.7832-80.1758Q20.1172-80.1758 16.2842-76.3916Q12.4512-72.6074 12.4512-65.0391L12.4512-5.37109Q12.4512 2.14844 16.2842 5.93262Q20.1172 9.7168 27.7832 9.7168Z"/>
  </g>
  <g id="Light-M" transform="matrix(1 0 0 1 1083.51 1126)">
   <path d="M32.2639-42.4934L45.1004-50.2754L32.2639-58.0048Q31.057-58.7326 30.8582-59.8198Q30.6595-60.907 31.2309-61.8122Q31.8024-62.7174 32.856-63.0249Q33.9096-63.3324 35.2066-62.5336L49.781-53.4096Q50.8759-52.7122 51.273-51.5015Q51.6701-50.2907 51.3218-49.0723Q50.9735-47.8539 49.781-47.1222L35.2066-37.9646Q33.9096-37.1666 32.856-37.4813Q31.8024-37.796 31.2458-38.7184Q30.6892-39.6408 30.8804-40.7112Q31.0715-41.7816 32.2639-42.4934ZM52.6718-37.487Q52.6718-38.5818 53.4027-39.3223Q54.1336-40.0627 55.2284-40.0627L74.2058-40.0627Q75.3006-40.0627 76.0487-39.3223Q76.7967-38.5818 76.7967-37.487Q76.7967-36.3922 76.0487-35.6445Q75.3006-34.8969 74.2058-34.8969L55.2284-34.8969Q54.1336-34.8969 53.4027-35.6445Q52.6718-36.3922 52.6718-37.487ZM26.8448 8.95996L112.392 8.95996Q119.592 8.95996 123.196 5.35736Q126.801 1.75476 126.801-5.2803L126.801-65.1756Q126.801-72.1954 123.196-75.8224Q119.592-79.4495 112.392-79.4495L26.8448-79.4495Q19.693-79.4495 16.0721-75.8545Q12.4512-72.2595 12.4512-65.1756L12.4512-5.2803Q12.4512 1.78528 16.0721 5.37262Q19.693 8.95996 26.8448 8.95996Z"/>
  </g>
  <g id="Thin-M" transform="matrix(1 0 0 1 787.317 1126)">
   <path d="M31.6032-42.8337L45.4002-51.1559L31.6032-59.4864Q30.7365-60.0136 30.5977-60.7304Q30.4588-61.4471 30.8506-62.0323Q31.2424-62.6175 31.9454-62.8147Q32.6485-63.0119 33.4648-62.5137L48.1995-53.2692Q48.9334-52.8122 49.2107-52.002Q49.4881-51.1917 49.2596-50.3635Q49.0311-49.5354 48.1995-49.0646L33.4648-39.8064Q32.6485-39.3082 31.9454-39.5233Q31.2424-39.7385 30.8857-40.3301Q30.529-40.9218 30.6503-41.6317Q30.7716-42.3416 31.6032-42.8337ZM50.9102-38.5681Q50.9102-39.3028 51.3809-39.7629Q51.8517-40.2229 52.5864-40.2229L71.2837-40.2229Q72.0177-40.2229 72.4953-39.7629Q72.9729-39.3028 72.9729-38.5681Q72.9729-37.8342 72.4953-37.3566Q72.0177-36.879 71.2837-36.879L52.5864-36.879Q51.8517-36.879 51.3809-37.3566Q50.9102-37.8342 50.9102-38.5681ZM25.6035 7.95898L112.572 7.95898Q119.092 7.95898 122.426 4.59671Q125.76 1.23444 125.76-5.16052L125.76-65.3557Q125.76-71.7148 122.426-75.1015Q119.092-78.4882 112.572-78.4882L25.6035-78.4882Q19.133-78.4882 15.7921-75.1434Q12.4512-71.7987 12.4512-65.3557L12.4512-5.16052Q12.4512 1.30463 15.7921 4.63181Q19.133 7.95898 25.6035 7.95898Z"/>
  </g>
  <g id="Ultralight-M" transform="matrix(1 0 0 1 490.872 1126)">
   <path d="M31.2653-43.0084L45.5544-51.6075L31.2653-60.2448Q30.5725-60.6697 30.4646-61.1969Q30.3566-61.7241 30.6557-62.1449Q30.9547-62.5656 31.4785-62.7068Q32.0023-62.8479 32.5729-62.5031L47.3892-53.1975Q47.9393-52.8641 48.1548-52.2583Q48.3704-51.6525 48.2037-51.0246Q48.037-50.3967 47.3892-50.0587L32.5729-40.7501Q32.0023-40.406 31.4785-40.5693Q30.9547-40.7326 30.7011-41.1552Q30.4474-41.5779 30.5325-42.1036Q30.6175-42.6292 31.2653-43.0084ZM50.0076-39.122Q50.0076-39.6721 50.3452-39.9883Q50.6828-40.3046 51.2321-40.3046L69.7861-40.3046Q70.3362-40.3046 70.6753-39.9883Q71.0144-39.6721 71.0144-39.122Q71.0144-38.5719 70.6753-38.2328Q70.3362-37.8937 69.7861-37.8937L51.2321-37.8937Q50.6828-37.8937 50.3452-38.2328Q50.0076-38.5719 50.0076-39.122ZM24.968 7.44629L112.665 7.44629Q118.835 7.44629 122.031 4.20685Q125.227 0.967407 125.227-5.09872L125.227-65.448Q125.227-71.4691 122.031-74.7326Q118.835-77.9961 112.665-77.9961L24.968-77.9961Q18.8454-77.9961 15.6483-74.7795Q12.4512-71.563 12.4512-65.448L12.4512-5.09872Q12.4512 1.05896 15.6483 4.25262Q18.8454 7.44629 24.968 7.44629Z"/>
  </g>
  <g id="Black-S" transform="matrix(1 0 0 1 2877.35 696)">
   <path d="M30.0781-39.7949L36.2793-43.5547L30.0293-47.3633Q28.0762-48.5352 27.8076-50.293Q27.5391-52.0508 28.4668-53.6133Q29.3945-55.1758 31.1279-55.6885Q32.8613-56.2012 34.9609-54.8828L45.6055-48.2422Q47.3145-47.2168 47.876-45.4102Q48.4375-43.6035 47.876-41.7969Q47.3145-39.9902 45.6055-38.916L34.9609-32.1777Q32.8613-30.8594 31.1279-31.3965Q29.3945-31.9336 28.4668-33.4717Q27.5391-35.0098 27.832-36.8164Q28.125-38.623 30.0781-39.7949ZM47.0703-33.4961Q47.0703-35.3516 48.3887-36.6211Q49.707-37.8906 51.5137-37.8906L65.8203-37.8906Q67.6758-37.8906 68.9453-36.6211Q70.2148-35.3516 70.2148-33.4961Q70.2148-31.6895 68.9453-30.3711Q67.6758-29.0527 65.8203-29.0527L51.5137-29.0527Q49.6582-29.0527 48.3643-30.3711Q47.0703-31.6895 47.0703-33.4961ZM25 2.92969L87.1094 2.92969Q94.2871 2.92969 98.3154-1.09863Q102.344-5.12695 102.344-12.3047L102.344-58.1055Q102.344-65.2832 98.3154-69.3115Q94.2871-73.3398 87.1094-73.3398L25-73.3398Q17.8223-73.3398 13.7939-69.3115Q9.76562-65.2832 9.76562-58.1055L9.76562-12.3047Q9.76562-5.12695 13.7939-1.09863Q17.8223 2.92969 25 2.92969Z"/>
  </g>
  <g id="Heavy-S" transform="matrix(1 0 0 1 2580.87 696)">
   <path d="M29.0985-39.991L35.9909-44.1658L29.0611-48.3772Q27.2697-49.4568 27.0126-51.0822Q26.7555-52.7077 27.6081-54.1435Q28.4607-55.5794 30.0617-56.0516Q31.6628-56.5239 33.6128-55.2979L44.4069-48.5649Q46.0007-47.5967 46.5275-45.8996Q47.0543-44.2024 46.5332-42.5114Q46.0121-40.8203 44.4069-39.8148L33.6128-32.9842Q31.6628-31.7696 30.0617-32.2605Q28.4607-32.7515 27.6081-34.1686Q26.7555-35.5858 27.0313-37.2486Q27.3071-38.9114 29.0985-39.991ZM46.1021-34.0836Q46.1021-35.778 47.3053-36.9438Q48.5085-38.1096 50.177-38.1096L64.6675-38.1096Q66.3734-38.1096 67.5449-36.9438Q68.7164-35.778 68.7164-34.0836Q68.7164-32.4158 67.5449-31.2069Q66.3734-29.998 64.6675-29.998L50.177-29.998Q48.4711-29.998 47.2866-31.2069Q46.1021-32.4158 46.1021-34.0836ZM24.3431 2.33078L87.294 2.33078Q94.2642 2.33078 98.0679-1.47285Q101.871-5.27649 101.871-12.2124L101.871-58.1978Q101.871-65.1337 98.0679-68.9373Q94.2642-72.7409 87.294-72.7409L24.3431-72.7409Q17.3958-72.7409 13.5807-68.9373Q9.76562-65.1337 9.76562-58.1978L9.76562-12.2124Q9.76562-5.27649 13.5807-1.47285Q17.3958 2.33078 24.3431 2.33078Z"/>
  </g>
  <g id="Bold-S" transform="matrix(1 0 0 1 2284.42 696)">
   <path d="M28.0029-40.21L35.6689-44.8486L27.9785-49.5117Q26.3672-50.4883 26.123-51.9653Q25.8789-53.4424 26.6479-54.7363Q27.417-56.0303 28.8696-56.4575Q30.3223-56.8848 32.1045-55.7617L43.0664-48.9258Q44.5312-48.0225 45.0195-46.4478Q45.5078-44.873 45.0317-43.3105Q44.5557-41.748 43.0664-40.8203L32.1045-33.8867Q30.3223-32.7881 28.8696-33.2275Q27.417-33.667 26.6479-34.9487Q25.8789-36.2305 26.1353-37.7319Q26.3916-39.2334 28.0029-40.21ZM45.0195-34.7412Q45.0195-36.2549 46.0938-37.3047Q47.168-38.3545 48.6816-38.3545L63.3789-38.3545Q64.917-38.3545 65.979-37.3047Q67.041-36.2549 67.041-34.7412Q67.041-33.2275 65.979-32.1411Q64.917-31.0547 63.3789-31.0547L48.6816-31.0547Q47.1436-31.0547 46.0815-32.1411Q45.0195-33.2275 45.0195-34.7412ZM23.6084 1.66016L87.5 1.66016Q94.2383 1.66016 97.7905-1.89209Q101.343-5.44434 101.343-12.1094L101.343-58.3008Q101.343-64.9658 97.7905-68.5181Q94.2383-72.0703 87.5-72.0703L23.6084-72.0703Q16.9189-72.0703 13.3423-68.5181Q9.76562-64.9658 9.76562-58.3008L9.76562-12.1094Q9.76562-5.44434 13.3423-1.89209Q16.9189 1.66016 23.6084 1.66016Z"/>
  </g>
  <g id="Semibold-S" transform="matrix(1 0 0 1 1987.89 696)">
   <path d="M27.2476-40.361L35.4469-45.3194L27.2324-50.2937Q25.7454-51.1993 25.51-52.5742Q25.2747-53.949 25.9857-55.1453Q26.6968-56.3416 28.0476-56.7375Q29.3983-57.1335 31.0646-56.0814L42.1425-49.1745Q43.5181-48.3154 43.9796-46.8254Q44.4412-45.3354 43.9964-43.8618Q43.5516-42.3882 42.1425-41.5138L31.0646-34.5085Q29.3983-33.49 28.0476-33.894Q26.6968-34.2979 25.9857-35.4862Q25.2747-36.6745 25.5177-38.065Q25.7607-39.4554 27.2476-40.361ZM44.2734-35.1944Q44.2734-36.5837 45.2587-37.5534Q46.244-38.5231 47.6509-38.5231L62.4901-38.5231Q63.913-38.5231 64.8994-37.5534Q65.8859-36.5837 65.8859-35.1944Q65.8859-33.7875 64.8994-32.7854Q63.913-31.7833 62.4901-31.7833L47.6509-31.7833Q46.228-31.7833 45.2507-32.7854Q44.2734-33.7875 44.2734-35.1944ZM23.1018 1.19781L87.6419 1.19781Q94.2207 1.19781 97.5994-2.18086Q100.978-5.55954 100.978-12.0384L100.978-58.3717Q100.978-64.8506 97.5994-68.2293Q94.2207-71.608 87.6419-71.608L23.1018-71.608Q16.5901-71.608 13.1779-68.2293Q9.76562-64.8506 9.76562-58.3717L9.76562-12.0384Q9.76562-5.55954 13.1779-2.18086Q16.5901 1.19781 23.1018 1.19781Z"/>
  </g>
  <g id="Medium-S" transform="matrix(1 0 0 1 1691.32 696)">
   <path d="M26.6747-40.4755L35.2783-45.6764L26.6663-50.8865Q25.2731-51.738 25.0446-53.0354Q24.8161-54.3327 25.4837-55.455Q26.1513-56.5773 27.4242-56.9496Q28.6972-57.3219 30.2765-56.324L41.4413-49.3629Q42.7498-48.5382 43.1911-47.1119Q43.6325-45.6856 43.2114-44.2795Q42.7902-42.8734 41.4413-42.0387L30.2765-34.9808Q28.6972-34.0225 27.4242-34.3994Q26.1513-34.7763 25.4837-35.894Q24.8161-37.0117 25.0492-38.3179Q25.2823-39.624 26.6747-40.4755ZM43.7073-35.5385Q43.7073-36.8332 44.6251-37.7422Q45.5429-38.6513 46.8689-38.6513L61.8164-38.6513Q63.1516-38.6513 64.0808-37.7422Q65.0101-36.8332 65.0101-35.5385Q65.0101-34.2117 64.0808-33.2737Q63.1516-32.3357 61.8164-32.3357L46.8689-32.3357Q45.5345-32.3357 44.6209-33.2737Q43.7073-34.2117 43.7073-35.5385ZM22.718 0.847626L87.7502 0.847626Q94.207 0.847626 97.4545-2.39983Q100.702-5.64728 100.702-11.9843L100.702-58.4259Q100.702-64.7629 97.4545-68.0103Q94.207-71.2578 87.7502-71.2578L22.718-71.2578Q16.3406-71.2578 13.0531-68.0103Q9.76562-64.7629 9.76562-58.4259L9.76562-11.9843Q9.76562-5.64728 13.0531-2.39983Q16.3406 0.847626 22.718 0.847626Z"/>
  </g>
  <g id="Regular-S" transform="matrix(1 0 0 1 1394.79 696)">
   <path d="M25.9277-40.625L35.0586-46.1426L25.9277-51.6602Q24.6582-52.4414 24.4385-53.6377Q24.2188-54.834 24.8291-55.8594Q25.4395-56.8848 26.6113-57.2266Q27.7832-57.5684 29.248-56.6406L40.5273-49.6094Q41.748-48.8281 42.1631-47.4854Q42.5781-46.1426 42.1875-44.8242Q41.7969-43.5059 40.5273-42.7246L29.248-35.5957Q27.7832-34.7168 26.6113-35.0586Q25.4395-35.4004 24.8291-36.4258Q24.2188-37.4512 24.4385-38.6475Q24.6582-39.8438 25.9277-40.625ZM42.9688-35.9863Q42.9688-37.1582 43.7988-37.9883Q44.6289-38.8184 45.8496-38.8184L60.9375-38.8184Q62.1582-38.8184 63.0127-37.9883Q63.8672-37.1582 63.8672-35.9863Q63.8672-34.7656 63.0127-33.9111Q62.1582-33.0566 60.9375-33.0566L45.8496-33.0566Q44.6289-33.0566 43.7988-33.9111Q42.9688-34.7656 42.9688-35.9863ZM22.2168 0.390625L87.8906 0.390625Q94.1895 0.390625 97.2656-2.68555Q100.342-5.76172 100.342-11.9141L100.342-58.4961Q100.342-64.6484 97.2656-67.7246Q94.1895-70.8008 87.8906-70.8008L22.2168-70.8008Q16.0156-70.8008 12.8906-67.7246Q9.76562-64.6484 9.76562-58.4961L9.76562-11.9141Q9.76562-5.76172 12.8906-2.68555Q16.0156 0.390625 22.2168 0.390625Z"/>
  </g>
  <g id="Light-S" transform="matrix(1 0 0 1 1098.43 696)">
   <path d="M25.4738-40.8371L35.2554-46.7484L25.4738-52.6443Q24.4461-53.289 24.2718-54.2431Q24.0974-55.1971 24.5869-56.0032Q25.0763-56.8092 26.0059-57.0827Q26.9356-57.3563 28.0823-56.6254L39.4676-49.5186Q40.4465-48.9037 40.7856-47.826Q41.1247-46.7484 40.81-45.6947Q40.4953-44.6411 39.4676-44.0109L28.0823-36.837Q26.9356-36.1397 26.0059-36.4132Q25.0763-36.6867 24.5869-37.5004Q24.0974-38.3141 24.2794-39.2681Q24.4614-40.2222 25.4738-40.8371ZM41.7877-36.6974Q41.7877-37.6427 42.4438-38.2912Q43.1-38.9397 44.0636-38.9397L58.9851-38.9397Q59.9632-38.9397 60.6285-38.2912Q61.2938-37.6427 61.2938-36.6974Q61.2938-35.7193 60.6285-35.054Q59.9632-34.3887 58.9851-34.3887L44.0636-34.3887Q43.1-34.3887 42.4438-35.054Q41.7877-35.7193 41.7877-36.6974ZM21.3997-0.29068L88.0119-0.29068Q93.8568-0.29068 96.751-3.20015Q99.6452-6.10962 99.6452-11.8233L99.6452-58.6174Q99.6452-64.3303 96.751-67.2401Q93.8568-70.15 88.0119-70.15L21.3997-70.15Q15.6219-70.15 12.6938-67.2554Q9.76562-64.3608 9.76562-58.6174L9.76562-11.8233Q9.76562-6.07986 12.6938-3.18527Q15.6219-0.29068 21.3997-0.29068Z"/>
  </g>
  <g id="Thin-S" transform="matrix(1 0 0 1 802.177 696)">
   <path d="M24.8734-41.1171L35.5156-47.5487L24.8734-53.9452Q24.1661-54.4098 24.0517-55.0438Q23.9372-55.6778 24.2664-56.1935Q24.5956-56.7093 25.2052-56.8928Q25.8148-57.0763 26.5411-56.6055L38.0669-49.3988Q38.7245-49.0036 38.9641-48.2761Q39.2036-47.5487 38.9885-46.8456Q38.7733-46.1426 38.0669-45.713L26.5411-38.4781Q25.8148-38.0211 25.2052-38.205Q24.5956-38.3888 24.2664-38.9217Q23.9372-39.4547 24.0692-40.0887Q24.2012-40.7227 24.8734-41.1171ZM40.2267-37.6389Q40.2267-38.2835 40.6525-38.6917Q41.0782-39.0999 41.7015-39.0999L56.4026-39.0999Q57.061-39.0999 57.476-38.6917Q57.8911-38.2835 57.8911-37.6389Q57.8911-36.9804 57.476-36.5654Q57.061-36.1504 56.4026-36.1504L41.7015-36.1504Q41.0782-36.1504 40.6525-36.5654Q40.2267-36.9804 40.2267-37.6389ZM20.3186-1.19171L88.1721-1.19171Q93.4158-1.19171 96.0701-3.88107Q98.7244-6.57043 98.7244-11.7035L98.7244-58.7776Q98.7244-63.9099 96.0701-66.5997Q93.4158-69.2894 88.1721-69.2894L20.3186-69.2894Q15.1016-69.2894 12.4336-66.6351Q9.76562-63.9809 9.76562-58.7776L9.76562-11.7035Q9.76562-6.50024 12.4336-3.84598Q15.1016-1.19171 20.3186-1.19171Z"/>
  </g>
  <g id="Ultralight-S" transform="matrix(1 0 0 1 505.702 696)">
   <path d="M24.5651-41.2605L35.6491-47.9591L24.5651-54.612Q24.0227-54.9843 23.9391-55.4539Q23.8556-55.9235 24.1028-56.2904Q24.35-56.6574 24.7952-56.7951Q25.2403-56.9328 25.7515-56.5948L37.3489-49.337Q37.8426-49.0555 38.0306-48.5073Q38.2187-47.9591 38.055-47.4354Q37.8914-46.9116 37.3489-46.5843L25.7515-39.3196Q25.2403-38.9854 24.7952-39.1228Q24.35-39.2601 24.1028-39.65Q23.8556-40.0398 23.9616-40.5094Q24.0677-40.979 24.5651-41.2605ZM39.4264-38.1203Q39.4264-38.6116 39.7346-38.8966Q40.0429-39.1815 40.4915-39.1815L55.0797-39.1815Q55.574-39.1815 55.8609-38.8966Q56.1478-38.6116 56.1478-38.1203Q56.1478-37.6266 55.8609-37.3398Q55.574-37.0529 55.0797-37.0529L40.4915-37.0529Q40.0429-37.0529 39.7346-37.3398Q39.4264-37.6266 39.4264-38.1203ZM19.7647-1.65253L88.2538-1.65253Q93.1908-1.65253 95.7218-4.22935Q98.2529-6.80618 98.2529-11.6417L98.2529-58.8593Q98.2529-63.6948 95.7218-66.2716Q93.1908-68.8484 88.2538-68.8484L19.7647-68.8484Q14.8346-68.8484 12.3001-66.317Q9.76562-63.7856 9.76562-58.8593L9.76562-11.6417Q9.76562-6.71539 12.3001-4.18396Q14.8346-1.65253 19.7647-1.65253Z"/>
  </g>
 </g>
</svg>
