<?xml version="1.0" encoding="UTF-8"?>
<!--Generator: Apple Native CoreSVG 175-->
<!DOCTYPE svg
PUBLIC "-//W3C//DTD SVG 1.1//EN"
       "http://www.w3.org/Graphics/SVG/1.1/DTD/svg11.dtd">
<svg version="1.1" xmlns="http://www.w3.org/2000/svg" xmlns:xlink="http://www.w3.org/1999/xlink" width="3300" height="2200">
 <!--glyph: "uni100BB6.medium", point size: 100.0, font version: "17.0d12e1", template writer version: "65.1"-->
 <g id="Notes">
  <rect height="2200" id="artboard" style="fill:white;opacity:1" width="3300" x="0" y="0"/>
  <line style="fill:none;stroke:black;opacity:1;stroke-width:0.5;" x1="263" x2="3036" y1="292" y2="292"/>
  <text style="stroke:none;fill:black;font-family:sans-serif;font-size:13;font-weight:bold;" transform="matrix(1 0 0 1 263 322)">Weight/Scale Variations</text>
  <text style="stroke:none;fill:black;font-family:sans-serif;font-size:13;text-anchor:middle;" transform="matrix(1 0 0 1 559.711 322)">Ultralight</text>
  <text style="stroke:none;fill:black;font-family:sans-serif;font-size:13;text-anchor:middle;" transform="matrix(1 0 0 1 856.422 322)">Thin</text>
  <text style="stroke:none;fill:black;font-family:sans-serif;font-size:13;text-anchor:middle;" transform="matrix(1 0 0 1 1153.13 322)">Light</text>
  <text style="stroke:none;fill:black;font-family:sans-serif;font-size:13;text-anchor:middle;" transform="matrix(1 0 0 1 1449.84 322)">Regular</text>
  <text style="stroke:none;fill:black;font-family:sans-serif;font-size:13;text-anchor:middle;" transform="matrix(1 0 0 1 1746.56 322)">Medium</text>
  <text style="stroke:none;fill:black;font-family:sans-serif;font-size:13;text-anchor:middle;" transform="matrix(1 0 0 1 2043.27 322)">Semibold</text>
  <text style="stroke:none;fill:black;font-family:sans-serif;font-size:13;text-anchor:middle;" transform="matrix(1 0 0 1 2339.98 322)">Bold</text>
  <text style="stroke:none;fill:black;font-family:sans-serif;font-size:13;text-anchor:middle;" transform="matrix(1 0 0 1 2636.69 322)">Heavy</text>
  <text style="stroke:none;fill:black;font-family:sans-serif;font-size:13;text-anchor:middle;" transform="matrix(1 0 0 1 2933.4 322)">Black</text>
  <line style="fill:none;stroke:black;opacity:1;stroke-width:0.5;" x1="263" x2="3036" y1="1903" y2="1903"/>
  <g transform="matrix(1 0 0 1 263 1933)">
   <path d="M9.24805 0.830078Q10.8691 0.830078 12.2949 0.214844Q13.7207-0.400391 14.8096-1.49414Q15.8984-2.58789 16.5186-4.01367Q17.1387-5.43945 17.1387-7.05078Q17.1387-8.66211 16.5186-10.0879Q15.8984-11.5137 14.8047-12.6074Q13.7109-13.7012 12.2852-14.3164Q10.8594-14.9316 9.23828-14.9316Q7.62695-14.9316 6.20117-14.3164Q4.77539-13.7012 3.69141-12.6074Q2.60742-11.5137 1.9873-10.0879Q1.36719-8.66211 1.36719-7.05078Q1.36719-5.43945 1.9873-4.01367Q2.60742-2.58789 3.69629-1.49414Q4.78516-0.400391 6.21094 0.214844Q7.63672 0.830078 9.24805 0.830078ZM9.24805-0.654297Q7.91992-0.654297 6.7627-1.14746Q5.60547-1.64062 4.73145-2.51953Q3.85742-3.39844 3.36426-4.56055Q2.87109-5.72266 2.87109-7.05078Q2.87109-8.37891 3.35938-9.54102Q3.84766-10.7031 4.72168-11.582Q5.5957-12.4609 6.75293-12.9541Q7.91016-13.4473 9.23828-13.4473Q10.5762-13.4473 11.7334-12.9541Q12.8906-12.4609 13.7695-11.582Q14.6484-10.7031 15.1465-9.54102Q15.6445-8.37891 15.6445-7.05078Q15.6445-5.72266 15.1514-4.56055Q14.6582-3.39844 13.7842-2.51953Q12.9102-1.64062 11.748-1.14746Q10.5859-0.654297 9.24805-0.654297ZM5.6543-7.05078Q5.6543-6.72852 5.85938-6.52832Q6.06445-6.32812 6.40625-6.32812L8.51562-6.32812L8.51562-4.20898Q8.51562-3.88672 8.71094-3.67676Q8.90625-3.4668 9.23828-3.4668Q9.56055-3.4668 9.77051-3.67676Q9.98047-3.88672 9.98047-4.20898L9.98047-6.32812L12.0898-6.32812Q12.4219-6.32812 12.627-6.52832Q12.832-6.72852 12.832-7.05078Q12.832-7.38281 12.627-7.58789Q12.4219-7.79297 12.0898-7.79297L9.98047-7.79297L9.98047-9.90234Q9.98047-10.2344 9.77051-10.4443Q9.56055-10.6543 9.23828-10.6543Q8.90625-10.6543 8.71094-10.4443Q8.51562-10.2344 8.51562-9.90234L8.51562-7.79297L6.40625-7.79297Q6.06445-7.79297 5.85938-7.58789Q5.6543-7.38281 5.6543-7.05078Z"/>
  </g>
  <g transform="matrix(1 0 0 1 281.867 1933)">
   <path d="M11.709 2.91016Q13.75 2.91016 15.5518 2.12891Q17.3535 1.34766 18.7305-0.0292969Q20.1074-1.40625 20.8887-3.20801Q21.6699-5.00977 21.6699-7.05078Q21.6699-9.0918 20.8887-10.8936Q20.1074-12.6953 18.7305-14.0723Q17.3535-15.4492 15.5469-16.2305Q13.7402-17.0117 11.6992-17.0117Q9.6582-17.0117 7.85645-16.2305Q6.05469-15.4492 4.68262-14.0723Q3.31055-12.6953 2.5293-10.8936Q1.74805-9.0918 1.74805-7.05078Q1.74805-5.00977 2.5293-3.20801Q3.31055-1.40625 4.6875-0.0292969Q6.06445 1.34766 7.86621 2.12891Q9.66797 2.91016 11.709 2.91016ZM11.709 1.25Q9.98047 1.25 8.47656 0.605469Q6.97266-0.0390625 5.83496-1.17676Q4.69727-2.31445 4.05762-3.81836Q3.41797-5.32227 3.41797-7.05078Q3.41797-8.7793 4.05762-10.2832Q4.69727-11.7871 5.83008-12.9297Q6.96289-14.0723 8.4668-14.7119Q9.9707-15.3516 11.6992-15.3516Q13.4277-15.3516 14.9316-14.7119Q16.4355-14.0723 17.5781-12.9297Q18.7207-11.7871 19.3652-10.2832Q20.0098-8.7793 20.0098-7.05078Q20.0098-5.32227 19.3701-3.81836Q18.7305-2.31445 17.5928-1.17676Q16.4551-0.0390625 14.9463 0.605469Q13.4375 1.25 11.709 1.25ZM7.17773-7.05078Q7.17773-6.69922 7.41211-6.47461Q7.64648-6.25 8.01758-6.25L10.8887-6.25L10.8887-3.36914Q10.8887-2.99805 11.1133-2.76855Q11.3379-2.53906 11.6895-2.53906Q12.0605-2.53906 12.29-2.76855Q12.5195-2.99805 12.5195-3.36914L12.5195-6.25L15.4004-6.25Q15.7715-6.25 16.001-6.47461Q16.2305-6.69922 16.2305-7.05078Q16.2305-7.42188 16.001-7.65137Q15.7715-7.88086 15.4004-7.88086L12.5195-7.88086L12.5195-10.752Q12.5195-11.1328 12.29-11.3623Q12.0605-11.5918 11.6895-11.5918Q11.3379-11.5918 11.1133-11.3574Q10.8887-11.123 10.8887-10.752L10.8887-7.88086L8.01758-7.88086Q7.63672-7.88086 7.40723-7.65137Q7.17773-7.42188 7.17773-7.05078Z"/>
  </g>
  <g transform="matrix(1 0 0 1 305.646 1933)">
   <path d="M14.9707 5.66406Q17.0605 5.66406 18.96 5.01465Q20.8594 4.36523 22.4512 3.19336Q24.043 2.02148 25.2197 0.429688Q26.3965-1.16211 27.0459-3.06641Q27.6953-4.9707 27.6953-7.05078Q27.6953-9.14062 27.0459-11.04Q26.3965-12.9395 25.2197-14.5312Q24.043-16.123 22.4512-17.2998Q20.8594-18.4766 18.9551-19.126Q17.0508-19.7754 14.9609-19.7754Q12.8711-19.7754 10.9717-19.126Q9.07227-18.4766 7.48535-17.2998Q5.89844-16.123 4.72168-14.5312Q3.54492-12.9395 2.90039-11.04Q2.25586-9.14062 2.25586-7.05078Q2.25586-4.9707 2.90527-3.06641Q3.55469-1.16211 4.72656 0.429688Q5.89844 2.02148 7.49023 3.19336Q9.08203 4.36523 10.9814 5.01465Q12.8809 5.66406 14.9707 5.66406ZM14.9707 3.84766Q13.1641 3.84766 11.5283 3.2959Q9.89258 2.74414 8.53516 1.74805Q7.17773 0.751953 6.17676-0.610352Q5.17578-1.97266 4.62891-3.6084Q4.08203-5.24414 4.08203-7.05078Q4.08203-8.86719 4.62891-10.5029Q5.17578-12.1387 6.17188-13.501Q7.16797-14.8633 8.52539-15.8594Q9.88281-16.8555 11.5186-17.4023Q13.1543-17.9492 14.9609-17.9492Q16.7773-17.9492 18.4131-17.4023Q20.0488-16.8555 21.4111-15.8594Q22.7734-14.8633 23.7695-13.501Q24.7656-12.1387 25.3174-10.5029Q25.8691-8.86719 25.8691-7.05078Q25.8789-5.24414 25.332-3.6084Q24.7852-1.97266 23.7842-0.610352Q22.7832 0.751953 21.4209 1.74805Q20.0586 2.74414 18.4229 3.2959Q16.7871 3.84766 14.9707 3.84766ZM9.19922-7.05078Q9.19922-6.66992 9.45801-6.4209Q9.7168-6.17188 10.1172-6.17188L14.0625-6.17188L14.0625-2.2168Q14.0625-1.81641 14.3115-1.55762Q14.5605-1.29883 14.9512-1.29883Q15.3516-1.29883 15.6104-1.55273Q15.8691-1.80664 15.8691-2.2168L15.8691-6.17188L19.8242-6.17188Q20.2246-6.17188 20.4785-6.4209Q20.7324-6.66992 20.7324-7.05078Q20.7324-7.46094 20.4785-7.71484Q20.2246-7.96875 19.8242-7.96875L15.8691-7.96875L15.8691-11.9141Q15.8691-12.3242 15.6104-12.583Q15.3516-12.8418 14.9512-12.8418Q14.5605-12.8418 14.3115-12.583Q14.0625-12.3242 14.0625-11.9141L14.0625-7.96875L10.1172-7.96875Q9.70703-7.96875 9.45312-7.71484Q9.19922-7.46094 9.19922-7.05078Z"/>
  </g>
  <text style="stroke:none;fill:black;font-family:sans-serif;font-size:13;font-weight:bold;" transform="matrix(1 0 0 1 263 1953)">Design Variations</text>
  <text style="stroke:none;fill:black;font-family:sans-serif;font-size:13;" transform="matrix(1 0 0 1 263 1971)">Symbols are supported in up to nine weights and three scales.</text>
  <text style="stroke:none;fill:black;font-family:sans-serif;font-size:13;" transform="matrix(1 0 0 1 263 1989)">For optimal layout with text and other symbols, vertically align</text>
  <text style="stroke:none;fill:black;font-family:sans-serif;font-size:13;" transform="matrix(1 0 0 1 263 2007)">symbols with the adjacent text.</text>
  <line style="fill:none;stroke:#00AEEF;stroke-width:0.5;opacity:1.0;" x1="776" x2="776" y1="1919" y2="1933"/>
  <g transform="matrix(1 0 0 1 776 1933)">
   <path d="M3.31055 0.15625Q3.70117 0.15625 3.91602-0.00976562Q4.13086-0.175781 4.26758-0.585938L5.52734-4.0332L11.2891-4.0332L12.5488-0.585938Q12.6855-0.175781 12.9004-0.00976562Q13.1152 0.15625 13.4961 0.15625Q13.8867 0.15625 14.1162-0.0585938Q14.3457-0.273438 14.3457-0.644531Q14.3457-0.869141 14.2383-1.17188L9.6582-13.3691Q9.48242-13.8184 9.17969-14.043Q8.87695-14.2676 8.4082-14.2676Q7.5-14.2676 7.17773-13.3789L2.59766-1.16211Q2.49023-0.859375 2.49023-0.634766Q2.49023-0.263672 2.70996-0.0537109Q2.92969 0.15625 3.31055 0.15625ZM6.00586-5.51758L8.37891-12.0898L8.42773-12.0898L10.8008-5.51758Z"/>
  </g>
  <line style="fill:none;stroke:#00AEEF;stroke-width:0.5;opacity:1.0;" x1="793.197" x2="793.197" y1="1919" y2="1933"/>
  <text style="stroke:none;fill:black;font-family:sans-serif;font-size:13;font-weight:bold;" transform="matrix(1 0 0 1 776 1953)">Margins</text>
  <text style="stroke:none;fill:black;font-family:sans-serif;font-size:13;" transform="matrix(1 0 0 1 776 1971)">Leading and trailing margins on the left and right side of each symbol</text>
  <text style="stroke:none;fill:black;font-family:sans-serif;font-size:13;" transform="matrix(1 0 0 1 776 1989)">can be adjusted by modifying the x-location of the margin guidelines.</text>
  <text style="stroke:none;fill:black;font-family:sans-serif;font-size:13;" transform="matrix(1 0 0 1 776 2007)">Modifications are automatically applied proportionally to all</text>
  <text style="stroke:none;fill:black;font-family:sans-serif;font-size:13;" transform="matrix(1 0 0 1 776 2025)">scales and weights.</text>
  <g transform="matrix(1 0 0 1 1289 1933)">
   <path d="M2.8418 1.86523L4.54102 3.57422Q5.18555 4.22852 5.90332 4.17969Q6.62109 4.13086 7.31445 3.35938L18.0078-8.42773L17.041-9.4043L6.42578 2.27539Q6.16211 2.57812 5.89355 2.61719Q5.625 2.65625 5.27344 2.30469L4.10156 1.14258Q3.75 0.791016 3.79395 0.522461Q3.83789 0.253906 4.14062-0.0195312L15.6152-10.8203L14.6387-11.7871L3.04688-0.898438Q2.30469-0.214844 2.25098 0.498047Q2.19727 1.21094 2.8418 1.86523ZM9.25781-16.3281Q8.94531-16.0254 8.90625-15.6348Q8.86719-15.2441 9.04297-14.9512Q9.21875-14.6777 9.55566-14.541Q9.89258-14.4043 10.3809-14.5215Q11.4746-14.7754 12.5977-14.7314Q13.7207-14.6875 14.7949-13.9844L14.209-12.5293Q13.9551-11.9043 14.0674-11.4404Q14.1797-10.9766 14.5801-10.5664L16.875-8.25195Q17.2363-7.88086 17.5781-7.82227Q17.9199-7.76367 18.3398-7.8418L19.4043-8.03711L20.0684-7.36328L20.0293-6.80664Q20-6.43555 20.1221-6.12305Q20.2441-5.81055 20.6055-5.44922L21.3672-4.70703Q21.7285-4.3457 22.1533-4.33105Q22.5781-4.31641 22.9297-4.66797L25.8398-7.58789Q26.1914-7.93945 26.1816-8.35449Q26.1719-8.76953 25.8105-9.13086L25.0391-9.89258Q24.6875-10.2539 24.3799-10.3857Q24.0723-10.5176 23.7109-10.4883L23.1348-10.4395L22.4902-11.0742L22.7344-12.1973Q22.832-12.6172 22.6953-12.9834Q22.5586-13.3496 22.1191-13.7891L19.9219-15.9766Q18.6719-17.2168 17.2607-17.8369Q15.8496-18.457 14.4189-18.4814Q12.9883-18.5059 11.665-17.959Q10.3418-17.4121 9.25781-16.3281ZM10.752-15.957Q11.6602-16.6211 12.7002-16.9043Q13.7402-17.1875 14.8047-17.085Q15.8691-16.9824 16.8701-16.5137Q17.8711-16.0449 18.7012-15.2051L21.1328-12.793Q21.3086-12.6172 21.3525-12.4512Q21.3965-12.2852 21.3379-12.0312L21.0156-10.5469L22.5195-9.0625L23.5059-9.12109Q23.6914-9.13086 23.7891-9.09668Q23.8867-9.0625 24.0332-8.91602L24.6094-8.33984L22.168-5.89844L21.5918-6.47461Q21.4453-6.62109 21.4062-6.71875Q21.3672-6.81641 21.377-7.01172L21.4453-7.98828L19.9512-9.47266L18.4277-9.21875Q18.1836-9.16992 18.042-9.2041Q17.9004-9.23828 17.7148-9.41406L15.7129-11.416Q15.5176-11.5918 15.4932-11.7529Q15.4688-11.9141 15.5859-12.1875L16.4648-14.2773Q15.293-15.3711 13.8281-15.791Q12.3633-16.2109 10.8398-15.7617Q10.7227-15.7324 10.6885-15.8057Q10.6543-15.8789 10.752-15.957Z"/>
  </g>
  <text style="stroke:none;fill:black;font-family:sans-serif;font-size:13;font-weight:bold;" transform="matrix(1 0 0 1 1289 1953)">Exporting</text>
  <text style="stroke:none;fill:black;font-family:sans-serif;font-size:13;" transform="matrix(1 0 0 1 1289 1971)">Symbols should be outlined when exporting to ensure the</text>
  <text style="stroke:none;fill:black;font-family:sans-serif;font-size:13;" transform="matrix(1 0 0 1 1289 1989)">design is preserved when submitting to Xcode.</text>
  <text id="template-version" style="stroke:none;fill:black;font-family:sans-serif;font-size:13;text-anchor:end;" transform="matrix(1 0 0 1 3036 1933)">Template v.3.0</text>
  <text style="stroke:none;fill:black;font-family:sans-serif;font-size:13;text-anchor:end;" transform="matrix(1 0 0 1 3036 1951)">Requires Xcode 13 or greater</text>
  <text id="descriptive-name" style="stroke:none;fill:black;font-family:sans-serif;font-size:13;text-anchor:end;" transform="matrix(1 0 0 1 3036 1969)">Generated from arrow.up.forward.app.fill</text>
  <text style="stroke:none;fill:black;font-family:sans-serif;font-size:13;text-anchor:end;" transform="matrix(1 0 0 1 3036 1987)">Typeset at 100 points</text>
  <text style="stroke:none;fill:black;font-family:sans-serif;font-size:13;" transform="matrix(1 0 0 1 263 726)">Small</text>
  <text style="stroke:none;fill:black;font-family:sans-serif;font-size:13;" transform="matrix(1 0 0 1 263 1156)">Medium</text>
  <text style="stroke:none;fill:black;font-family:sans-serif;font-size:13;" transform="matrix(1 0 0 1 263 1586)">Large</text>
 </g>
 <g id="Guides">
  <g id="H-reference" style="fill:#27AAE1;stroke:none;" transform="matrix(1 0 0 1 339 696)">
   <path d="M0.993347 0L3.6377 0L29.3282-67.1326L30.0301-67.1326L30.0301-70.459L28.1227-70.459ZM11.6882-24.4797L46.9818-24.4797L46.2311-26.7288L12.4382-26.7288ZM55.1193 0L57.7637 0L30.6381-70.459L29.4327-70.459L29.4327-67.1326Z"/>
  </g>
  <line id="Baseline-S" style="fill:none;stroke:#27AAE1;opacity:1;stroke-width:0.5;" x1="263" x2="3036" y1="696" y2="696"/>
  <line id="Capline-S" style="fill:none;stroke:#27AAE1;opacity:1;stroke-width:0.5;" x1="263" x2="3036" y1="625.541" y2="625.541"/>
  <g id="H-reference" style="fill:#27AAE1;stroke:none;" transform="matrix(1 0 0 1 339 1126)">
   <path d="M0.993347 0L3.6377 0L29.3282-67.1326L30.0301-67.1326L30.0301-70.459L28.1227-70.459ZM11.6882-24.4797L46.9818-24.4797L46.2311-26.7288L12.4382-26.7288ZM55.1193 0L57.7637 0L30.6381-70.459L29.4327-70.459L29.4327-67.1326Z"/>
  </g>
  <line id="Baseline-M" style="fill:none;stroke:#27AAE1;opacity:1;stroke-width:0.5;" x1="263" x2="3036" y1="1126" y2="1126"/>
  <line id="Capline-M" style="fill:none;stroke:#27AAE1;opacity:1;stroke-width:0.5;" x1="263" x2="3036" y1="1055.54" y2="1055.54"/>
  <g id="H-reference" style="fill:#27AAE1;stroke:none;" transform="matrix(1 0 0 1 339 1556)">
   <path d="M0.993347 0L3.6377 0L29.3282-67.1326L30.0301-67.1326L30.0301-70.459L28.1227-70.459ZM11.6882-24.4797L46.9818-24.4797L46.2311-26.7288L12.4382-26.7288ZM55.1193 0L57.7637 0L30.6381-70.459L29.4327-70.459L29.4327-67.1326Z"/>
  </g>
  <line id="Baseline-L" style="fill:none;stroke:#27AAE1;opacity:1;stroke-width:0.5;" x1="263" x2="3036" y1="1556" y2="1556"/>
  <line id="Capline-L" style="fill:none;stroke:#27AAE1;opacity:1;stroke-width:0.5;" x1="263" x2="3036" y1="1485.54" y2="1485.54"/>
  <line id="left-margin-Regular-M" style="fill:none;stroke:#00AEEF;stroke-width:0.5;opacity:1.0;" x1="1392.96" x2="1392.96" y1="1030.79" y2="1150.12"/>
  <line id="right-margin-Regular-M" style="fill:none;stroke:#00AEEF;stroke-width:0.5;opacity:1.0;" x1="1506.73" x2="1506.73" y1="1030.79" y2="1150.12"/>
 </g>
 <g id="Symbols">
  <g id="Black-L" transform="matrix(1 0 0 1 2856.4 1556)">
   <path d="M129.248-87.4023Q125.879-90.7715 121.655-92.6758Q117.432-94.5801 112.085-95.3857Q106.738-96.1914 99.8535-96.1914L54.1504-96.1914Q43.8477-96.1914 36.8408-94.3359Q29.834-92.4805 24.7559-87.4023Q19.6777-82.373 17.8711-75.415Q16.0645-68.457 16.0645-58.1055L16.0645-12.3535Q16.0645-5.46875 16.8213-0.0976562Q17.5781 5.27344 19.4824 9.44824Q21.3867 13.623 24.7559 16.9434Q28.1738 20.3125 32.373 22.2168Q36.5723 24.1211 41.9434 24.9268Q47.3145 25.7324 54.1504 25.7324L99.8535 25.7324Q106.738 25.7324 112.109 24.9268Q117.48 24.1211 121.68 22.2168Q125.879 20.3125 129.248 16.9434Q132.617 13.5742 134.521 9.39941Q136.426 5.22461 137.183-0.12207Q137.939-5.46875 137.939-12.3535L137.939-58.1055Q137.939-64.9902 137.183-70.3613Q136.426-75.7324 134.521-79.9072Q132.617-84.082 129.248-87.4023ZM97.6562-14.5996Q94.043-14.5996 91.9678-16.9922Q89.8926-19.3848 89.8926-23.4375L89.8926-30.6152L90.8203-37.5977L83.6426-29.1016L65.0879-10.5957Q62.0117-7.61719 57.959-7.61719Q54.1992-7.61719 51.4893-10.1074Q48.7793-12.5977 48.7793-16.6504Q48.7793-20.5566 51.6602-23.4375L70.5078-42.2363L79.0039-49.4141L72.2168-48.291L64.5508-48.291Q60.5469-48.291 58.1543-50.3662Q55.7617-52.4414 55.7617-56.0547Q55.7617-59.668 58.2031-61.7432Q60.6445-63.8184 64.6973-63.8184L94.3848-63.8184Q99.5117-63.8184 102.417-61.0107Q105.322-58.2031 105.322-52.9785L105.322-23.3887Q105.322-19.3848 103.247-16.9922Q101.172-14.5996 97.6562-14.5996Z"/>
  </g>
  <g id="Heavy-L" transform="matrix(1 0 0 1 2560.69 1556)">
   <path d="M127.588-86.7676Q124.316-90.0391 120.19-91.8701Q116.064-93.7012 110.864-94.4336Q105.664-95.166 99.0723-95.166L52.832-95.166Q43.0664-95.166 36.2061-93.4326Q29.3457-91.6992 24.4141-86.7676Q19.4336-81.8359 17.749-75.0488Q16.0645-68.2617 16.0645-58.3984L16.0645-12.1582Q16.0645-5.56641 16.7725-0.341797Q17.4805 4.88281 19.2871 8.95996Q21.0938 13.0371 24.3652 16.3086Q27.7344 19.5801 31.8359 21.4111Q35.9375 23.2422 41.1621 23.9746Q46.3867 24.707 52.9297 24.707L99.0723 24.707Q105.664 24.707 110.864 23.9746Q116.064 23.2422 120.19 21.4111Q124.316 19.5801 127.588 16.3086Q130.908 12.9883 132.715 8.91113Q134.521 4.83398 135.229-0.366211Q135.938-5.56641 135.938-12.1582L135.938-58.3496Q135.938-64.9414 135.229-70.1416Q134.521-75.3418 132.715-79.4189Q130.908-83.4961 127.588-86.7676ZM96.6797-15.7227Q93.457-15.7227 91.6016-17.8467Q89.7461-19.9707 89.7461-23.5352L89.7461-32.0801L90.625-39.8438L83.1055-31.2012L62.793-10.8887Q60.1074-8.30078 56.543-8.30078Q53.2715-8.30078 50.9277-10.4736Q48.584-12.6465 48.584-16.2109Q48.584-19.5801 51.123-22.0703L71.7285-42.627L80.3711-50.1465L72.9492-49.1211L63.7695-49.1211Q60.2539-49.1211 58.1543-50.9766Q56.0547-52.832 56.0547-56.0059Q56.0547-59.2285 58.1787-61.0596Q60.3027-62.8906 63.8672-62.8906L94.043-62.8906Q98.4375-62.8906 100.952-60.498Q103.467-58.1055 103.467-53.5645L103.467-23.5352Q103.467-19.9707 101.611-17.8467Q99.7559-15.7227 96.6797-15.7227Z"/>
  </g>
  <g id="Bold-L" transform="matrix(1 0 0 1 2265.1 1556)">
   <path d="M125.781-86.084Q122.559-89.2578 118.53-90.9912Q114.502-92.7246 109.497-93.4082Q104.492-94.0918 98.2422-94.0918L51.3672-94.0918Q42.1875-94.0918 35.498-92.4805Q28.8086-90.8691 24.0234-86.0352Q19.1895-81.2988 17.627-74.6582Q16.0645-68.0176 16.0645-58.7891L16.0645-11.9141Q16.0645-5.66406 16.7236-0.610352Q17.3828 4.44336 19.0918 8.42285Q20.8008 12.4023 23.9746 15.5762Q27.2461 18.7988 31.25 20.5078Q35.2539 22.2168 40.2832 22.9004Q45.3125 23.584 51.5625 23.584L98.2422 23.584Q104.492 23.584 109.521 22.9004Q114.551 22.2168 118.579 20.5078Q122.607 18.7988 125.781 15.5762Q128.955 12.4023 130.688 8.39844Q132.422 4.39453 133.057-0.634766Q133.691-5.66406 133.691-11.9141L133.691-58.5938Q133.691-64.8438 133.057-69.873Q132.422-74.9023 130.688-78.9062Q128.955-82.9102 125.781-86.084ZM95.6055-17.0898Q92.8711-17.0898 91.2598-18.8721Q89.6484-20.6543 89.6484-23.6816L89.6484-33.7402L90.4785-42.4316L82.5684-33.6426L60.2051-11.2793Q58.0078-9.13086 55.0293-9.13086Q52.2461-9.13086 50.3174-10.9375Q48.3887-12.7441 48.3887-15.7227Q48.3887-18.5059 50.5371-20.6055L73.0957-43.1152L81.9336-51.0742L73.8281-50.0977L62.9883-50.0977Q59.9609-50.0977 58.1787-51.709Q56.3965-53.3203 56.3965-56.0547Q56.3965-58.7891 58.2031-60.376Q60.0098-61.9629 62.9883-61.9629L93.7012-61.9629Q97.3145-61.9629 99.3896-60.0098Q101.465-58.0566 101.465-54.248L101.465-23.7305Q101.465-20.7031 99.8535-18.8965Q98.2422-17.0898 95.6055-17.0898Z"/>
  </g>
  <g id="Semibold-L" transform="matrix(1 0 0 1 1969.16 1556)">
   <path d="M124.512-85.5469Q121.338-88.7207 117.383-90.3809Q113.428-92.041 108.545-92.6758Q103.662-93.3105 97.6074-93.3105L50.3418-93.3105Q41.5527-93.3105 34.9854-91.7725Q28.418-90.2344 23.7305-85.5469Q18.9941-80.8594 17.5293-74.3408Q16.0645-67.8223 16.0645-58.9844L16.0645-11.7188Q16.0645-5.71289 16.6748-0.805664Q17.2852 4.10156 18.9209 8.03223Q20.5566 11.9629 23.6816 15.0879Q26.8555 18.2129 30.8105 19.873Q34.7656 21.5332 39.6729 22.168Q44.5801 22.8027 50.5859 22.8027L97.6074 22.8027Q103.662 22.8027 108.545 22.168Q113.428 21.5332 117.407 19.873Q121.387 18.2129 124.512 15.0879Q127.637 11.9629 129.272 8.03223Q130.908 4.10156 131.519-0.805664Q132.129-5.71289 132.129-11.7188L132.129-58.7891Q132.129-64.7949 131.519-69.7021Q130.908-74.6094 129.272-78.54Q127.637-82.4707 124.512-85.5469ZM94.7754-17.9688Q92.334-17.9688 90.8936-19.5068Q89.4531-21.0449 89.4531-23.7305L89.4531-34.8633L90.2832-44.1895L82.1289-35.2539L58.3984-11.4746Q56.4941-9.61914 53.9062-9.61914Q51.4648-9.61914 49.8291-11.2061Q48.1934-12.793 48.1934-15.3809Q48.1934-17.7246 50.0488-19.5801L73.9746-43.4082L82.959-51.6113L74.3652-50.7324L62.3535-50.7324Q59.7168-50.7324 58.1299-52.1729Q56.543-53.6133 56.543-56.0059Q56.543-58.3984 58.1055-59.8145Q59.668-61.2305 62.3047-61.2305L93.3594-61.2305Q96.4355-61.2305 98.1934-59.6191Q99.9512-58.0078 99.9512-54.6387L99.9512-23.8281Q99.9512-21.1426 98.5352-19.5557Q97.1191-17.9688 94.7754-17.9688Z"/>
  </g>
  <g id="Medium-L" transform="matrix(1 0 0 1 1673.04 1556)">
   <path d="M123.584-85.2051Q120.41-88.2812 116.528-89.917Q112.646-91.5527 107.837-92.1387Q103.027-92.7246 97.168-92.7246L49.6094-92.7246Q41.0645-92.7246 34.6191-91.2598Q28.1738-89.7949 23.5352-85.1562Q18.8965-80.5664 17.4805-74.1211Q16.0645-67.6758 16.0645-59.1797L16.0645-11.5723Q16.0645-5.76172 16.6504-0.952148Q17.2363 3.85742 18.7988 7.73926Q20.3613 11.6211 23.4863 14.6973Q26.6113 17.7734 30.5176 19.3848Q34.4238 20.9961 39.2334 21.6064Q44.043 22.2168 49.8535 22.2168L97.168 22.2168Q103.027 22.2168 107.837 21.6064Q112.646 20.9961 116.553 19.3848Q120.459 17.7734 123.584 14.6973Q126.611 11.6211 128.223 7.73926Q129.834 3.85742 130.396-0.952148Q130.957-5.76172 130.957-11.5723L130.957-58.8867Q130.957-64.7461 130.396-69.5557Q129.834-74.3652 128.223-78.2471Q126.611-82.1289 123.584-85.2051ZM94.1895-18.6035Q92.041-18.6035 90.7227-19.9951Q89.4043-21.3867 89.4043-23.8281L89.4043-35.6934L90.2344-45.5078L81.8359-36.4746L57.0312-11.6699Q55.4199-10.0098 53.125-10.0098Q50.9277-10.0098 49.5117-11.4014Q48.0957-12.793 48.0957-15.0879Q48.0957-17.1387 49.7559-18.75L74.6582-43.6523L83.7891-52.0508L74.8047-51.2207L61.9141-51.2207Q59.5215-51.2207 58.1299-52.5146Q56.7383-53.8086 56.7383-56.0059Q56.7383-58.1543 58.1299-59.4238Q59.5215-60.6934 61.8652-60.6934L93.1641-60.6934Q95.8008-60.6934 97.3633-59.3018Q98.9258-57.9102 98.9258-54.9805L98.9258-23.877Q98.9258-21.5332 97.6318-20.0684Q96.3379-18.6035 94.1895-18.6035Z"/>
  </g>
  <g id="Regular-L" transform="matrix(1 0 0 1 1377.09 1556)">
   <path d="M122.314-84.7168Q119.238-87.7441 115.405-89.3066Q111.572-90.8691 106.885-91.4062Q102.197-91.9434 96.582-91.9434L48.584-91.9434Q40.4785-91.9434 34.1309-90.5762Q27.7832-89.209 23.2422-84.668Q18.7012-80.1758 17.3828-73.8525Q16.0645-67.5293 16.0645-59.4238L16.0645-11.4258Q16.0645-5.81055 16.6016-1.12305Q17.1387 3.56445 18.6523 7.37305Q20.166 11.1816 23.1934 14.209Q26.2695 17.2363 30.1025 18.7744Q33.9355 20.3125 38.623 20.874Q43.3105 21.4355 48.9258 21.4355L96.582 21.4355Q102.197 21.4355 106.885 20.874Q111.572 20.3125 115.43 18.7744Q119.287 17.2363 122.314 14.209Q125.293 11.1816 126.831 7.37305Q128.369 3.56445 128.906-1.12305Q129.443-5.81055 129.443-11.4258L129.443-59.082Q129.443-64.6973 128.906-69.3848Q128.369-74.0723 126.831-77.8809Q125.293-81.6895 122.314-84.7168ZM93.457-19.4824Q91.6016-19.4824 90.4541-20.6543Q89.3066-21.8262 89.3066-23.877L89.3066-36.8164L90.0879-47.2168L81.4453-38.0859L55.2734-11.8652Q53.9551-10.5469 52.0508-10.5469Q50.1953-10.5469 49.0723-11.6943Q47.9492-12.8418 47.9492-14.7461Q47.9492-16.4062 49.3164-17.7246L75.5859-43.9453L84.8145-52.6367L75.3906-51.8555L61.3281-51.8555Q59.3262-51.8555 58.1299-52.9785Q56.9336-54.1016 56.9336-55.957Q56.9336-57.8125 58.1055-58.9111Q59.2773-60.0098 61.2305-60.0098L92.9199-60.0098Q95.0195-60.0098 96.2646-58.9355Q97.5098-57.8613 97.5098-55.4199L97.5098-23.9746Q97.5098-21.9727 96.3867-20.7275Q95.2637-19.4824 93.457-19.4824Z"/>
  </g>
  <g id="Light-L" transform="matrix(1 0 0 1 1081.25 1556)">
   <path d="M120.85-84.082Q118.066-86.8652 114.502-88.3789Q110.938-89.8926 106.348-90.4541Q101.758-91.0156 95.8984-91.0156L47.3633-91.0156Q39.0137-91.0156 33.0566-89.5996Q27.0996-88.1836 22.9492-84.0332Q18.7988-79.8828 17.4316-73.999Q16.0645-68.1152 16.0645-59.7168L16.0645-11.1816Q16.0645-5.27344 16.626-0.683594Q17.1875 3.90625 18.6523 7.42188Q20.1172 10.9375 22.9004 13.6719Q25.7324 16.4551 29.2725 17.9443Q32.8125 19.4336 37.4023 20.0195Q41.9922 20.6055 47.9004 20.6055L95.8984 20.6055Q101.758 20.6055 106.348 20.0195Q110.938 19.4336 114.526 17.9443Q118.115 16.4551 120.85 13.6719Q123.584 10.9375 125.073 7.39746Q126.562 3.85742 127.124-0.708008Q127.686-5.27344 127.686-11.1816L127.686-59.1797Q127.686-65.0879 127.124-69.6777Q126.562-74.2676 125.073-77.8076Q123.584-81.3477 120.85-84.082ZM93.0664-19.9707Q91.6016-19.9707 90.7227-20.874Q89.8438-21.7773 89.8438-23.3887L89.8438-38.7695L90.332-49.5605L82.7637-41.6016L53.3203-12.1094Q52.2461-11.084 50.7812-11.084Q49.3164-11.084 48.4619-11.9629Q47.6074-12.8418 47.6074-14.3066Q47.6074-15.625 48.6816-16.6504L78.2227-46.1914L86.2793-53.8086L77.0996-53.3203L59.9121-53.3203Q58.3984-53.3203 57.4707-54.1992Q56.543-55.0781 56.543-56.4941Q56.543-57.9102 57.4463-58.7402Q58.3496-59.5703 59.8633-59.5703L92.7246-59.5703Q94.2871-59.5703 95.2393-58.7402Q96.1914-57.9102 96.1914-56.1035L96.1914-23.4375Q96.1914-21.875 95.3125-20.9229Q94.4336-19.9707 93.0664-19.9707Z"/>
  </g>
  <g id="Thin-L" transform="matrix(1 0 0 1 785.69 1556)">
   <path d="M118.945-83.252Q116.504-85.6934 113.306-87.1094Q110.107-88.5254 105.664-89.1602Q101.221-89.7949 94.9707-89.7949L45.752-89.7949Q37.0117-89.7949 31.6162-88.3057Q26.2207-86.8164 22.6074-83.2031Q18.9453-79.541 17.5049-74.1943Q16.0645-68.8477 16.0645-60.1074L16.0645-10.8887Q16.0645-4.63867 16.6748-0.170898Q17.2852 4.29688 18.7012 7.44629Q20.1172 10.5957 22.5098 13.0371Q25 15.4297 28.1738 16.8457Q31.3477 18.2617 35.791 18.8965Q40.2344 19.5312 46.4844 19.5312L94.9707 19.5312Q101.221 19.5312 105.664 18.8965Q110.107 18.2617 113.306 16.8457Q116.504 15.4297 118.945 13.0371Q121.338 10.5957 122.754 7.42188Q124.17 4.24805 124.78-0.195312Q125.391-4.63867 125.391-10.8887L125.391-59.375Q125.391-65.625 124.78-70.0928Q124.17-74.5605 122.754-77.71Q121.338-80.8594 118.945-83.252ZM92.4805-20.6543Q91.6016-20.6543 91.0645-21.1914Q90.5273-21.7285 90.5273-22.6562L90.5273-41.3574L90.6738-52.6855L84.4727-46.2891L50.6836-12.4023Q50-11.7676 49.0234-11.7676Q48.1934-11.7676 47.6562-12.3047Q47.1191-12.8418 47.1191-13.7207Q47.1191-14.5508 47.8027-15.2344L81.7383-49.1211L88.1348-55.3711L79.3945-55.2734L58.0566-55.2734Q57.0801-55.2734 56.543-55.7861Q56.0059-56.2988 56.0059-57.2266Q56.0059-58.0078 56.543-58.4961Q57.0801-58.9844 58.0078-58.9844L92.4316-58.9844Q93.2617-58.9844 93.7988-58.4473Q94.3359-57.9102 94.3359-56.9824L94.3359-22.6562Q94.3359-21.7285 93.8232-21.1914Q93.3105-20.6543 92.4805-20.6543Z"/>
  </g>
  <g id="Ultralight-L" transform="matrix(1 0 0 1 489.568 1556)">
   <path d="M117.969-82.8613Q115.674-85.0586 112.695-86.4746Q109.717-87.8906 105.322-88.5254Q100.928-89.1602 94.4824-89.1602L44.9707-89.1602Q36.0352-89.1602 30.9082-87.6465Q25.7812-86.1328 22.4121-82.7637Q19.043-79.3457 17.5537-74.292Q16.0645-69.2383 16.0645-60.3027L16.0645-10.7422Q16.0645-4.24805 16.6992 0.146484Q17.334 4.54102 18.7012 7.49512Q20.0684 10.4492 22.3145 12.6465Q24.6582 14.9414 27.6367 16.3086Q30.6152 17.6758 34.9854 18.335Q39.3555 18.9941 45.8008 18.9941L94.4824 18.9941Q100.928 18.9941 105.322 18.335Q109.717 17.6758 112.72 16.3086Q115.723 14.9414 117.969 12.6465Q120.215 10.4004 121.582 7.44629Q122.949 4.49219 123.584 0.12207Q124.219-4.24805 124.219-10.7422L124.219-59.4238Q124.219-65.918 123.584-70.3125Q122.949-74.707 121.582-77.6855Q120.215-80.6641 117.969-82.8613ZM92.1875-20.9961Q91.6016-20.9961 91.2598-21.3379Q90.918-21.6797 90.918-22.3633L90.918-42.6758L90.8203-54.2969L85.3516-48.6816L49.3164-12.5977Q48.8281-12.1582 48.1445-12.1582Q47.5586-12.1582 47.2168-12.5Q46.875-12.8418 46.875-13.4277Q46.875-14.0625 47.3145-14.502L83.4961-50.6348L89.1113-56.2012L80.5176-56.25L57.0801-56.25Q56.4453-56.25 56.0791-56.6162Q55.7129-56.9824 55.7129-57.6172Q55.7129-58.1055 56.0791-58.3984Q56.4453-58.6914 57.0801-58.6914L92.2852-58.6914Q92.7734-58.6914 93.1152-58.3252Q93.457-57.959 93.457-57.4707L93.457-22.3145Q93.457-21.6797 93.0908-21.3379Q92.7246-20.9961 92.1875-20.9961Z"/>
  </g>
  <g id="Black-M" transform="matrix(1 0 0 1 2873.15 1126)">
   <path d="M101.123-75.9766Q97.168-79.8828 91.748-81.4453Q86.3281-83.0078 77.832-83.0078L42.6758-83.0078Q34.1797-83.0078 28.7354-81.4453Q23.291-79.8828 19.3848-75.9766Q15.5273-72.1191 13.9893-66.748Q12.4512-61.377 12.4512-52.7832L12.4512-17.627Q12.4512-9.0332 13.9893-3.66211Q15.5273 1.70898 19.3848 5.56641Q23.3398 9.47266 28.7598 11.0352Q34.1797 12.5977 42.6758 12.5977L77.832 12.5977Q86.3281 12.5977 91.7725 11.0352Q97.2168 9.47266 101.123 5.56641Q104.98 1.70898 106.519-3.66211Q108.057-9.0332 108.057-17.627L108.057-52.7832Q108.057-61.377 106.519-66.7725Q104.98-72.168 101.123-75.9766ZM76.3672-18.4082Q73.3887-18.4082 71.6797-20.4346Q69.9707-22.4609 69.9707-25.8301L69.9707-31.0547L70.6055-35.8887L65.7227-29.8828L51.7578-15.9668Q50.293-14.5508 48.8037-13.9648Q47.3145-13.3789 45.7031-13.3789Q42.5293-13.3789 40.1855-15.5029Q37.8418-17.627 37.8418-21.0938Q37.8418-24.4141 40.2832-26.8555L54.4922-41.0645L60.5469-45.9473L55.9082-45.166L50.1953-45.166Q46.8262-45.166 44.8242-46.875Q42.8223-48.584 42.8223-51.5625Q42.8223-54.541 44.873-56.2744Q46.9238-58.0078 50.3418-58.0078L73.3398-58.0078Q77.7832-58.0078 80.249-55.542Q82.7148-53.0762 82.7148-48.7305L82.7148-25.7324Q82.7148-22.4121 81.0303-20.4102Q79.3457-18.4082 76.3672-18.4082Z"/>
  </g>
  <g id="Heavy-M" transform="matrix(1 0 0 1 2577.23 1126)">
   <path d="M99.8047-75.4883Q95.8984-79.3457 90.5518-80.7861Q85.2051-82.2266 77.1973-82.2266L41.6504-82.2266Q33.7402-82.2266 28.3447-80.7861Q22.9492-79.3457 19.0918-75.4883Q15.2832-71.6797 13.8672-66.3574Q12.4512-61.0352 12.4512-53.0273L12.4512-17.4316Q12.4512-9.42383 13.8672-4.10156Q15.2832 1.2207 19.0918 5.0293Q22.998 8.93555 28.3691 10.3516Q33.7402 11.7676 41.6992 11.7676L77.1973 11.7676Q85.2051 11.7676 90.5762 10.3516Q95.9473 8.93555 99.8047 5.0293Q103.662 1.2207 105.054-4.10156Q106.445-9.42383 106.445-17.4316L106.445-52.9785Q106.445-61.0352 105.054-66.3818Q103.662-71.7285 99.8047-75.4883ZM75.4883-19.4336Q72.8516-19.4336 71.2891-21.2402Q69.7266-23.0469 69.7266-26.0254L69.7266-32.0801L70.4102-37.5977L64.9414-31.2012L49.9512-16.2109Q48.6816-14.9902 47.3633-14.4775Q46.0449-13.9648 44.6289-13.9648Q41.7969-13.9648 39.7705-15.8203Q37.7441-17.6758 37.7441-20.752Q37.7441-23.6328 39.8926-25.7812L55.127-40.9668L61.5723-46.4355L56.2988-45.6543L49.7559-45.6543Q46.7773-45.6543 44.9951-47.2168Q43.2129-48.7793 43.2129-51.416Q43.2129-54.1016 45.0195-55.6641Q46.8262-57.2266 49.8535-57.2266L73.0469-57.2266Q76.9043-57.2266 79.0527-55.1025Q81.2012-52.9785 81.2012-49.1211L81.2012-25.9766Q81.2012-23.0469 79.6875-21.2402Q78.1738-19.4336 75.4883-19.4336Z"/>
  </g>
  <g id="Bold-M" transform="matrix(1 0 0 1 2281.41 1126)">
   <path d="M98.3887-74.9512Q94.5312-78.8086 89.2334-80.0781Q83.9355-81.3477 76.5625-81.3477L40.5273-81.3477Q33.2031-81.3477 27.9053-80.0781Q22.6074-78.8086 18.7988-74.9512Q14.9902-71.1914 13.7207-65.9424Q12.4512-60.6934 12.4512-53.3203L12.4512-17.2852Q12.4512-9.86328 13.7207-4.58984Q14.9902 0.683594 18.7988 4.49219Q22.6562 8.30078 27.9297 9.59473Q33.2031 10.8887 40.5762 10.8887L76.5625 10.8887Q83.9355 10.8887 89.2334 9.59473Q94.5312 8.30078 98.3887 4.49219Q102.148 0.683594 103.418-4.58984Q104.688-9.86328 104.688-17.2852L104.688-53.2227Q104.688-60.6445 103.418-65.918Q102.148-71.1914 98.3887-74.9512ZM74.5605-20.6543Q72.2168-20.6543 70.8496-22.1924Q69.4824-23.7305 69.4824-26.3184L69.4824-33.252L70.166-39.5996L64.1113-32.7148L47.9004-16.5039Q46.9238-15.5273 45.8008-15.0879Q44.6777-14.6484 43.4082-14.6484Q41.0156-14.6484 39.3311-16.2109Q37.6465-17.7734 37.6465-20.4102Q37.6465-22.8027 39.502-24.6094L55.8594-40.9668L62.793-47.0703L56.7383-46.2891L49.3164-46.2891Q46.7285-46.2891 45.1904-47.6562Q43.6523-49.0234 43.6523-51.3184Q43.6523-53.6621 45.2148-55.0293Q46.7773-56.3965 49.3652-56.3965L72.8027-56.3965Q75.9766-56.3965 77.7832-54.6875Q79.5898-52.9785 79.5898-49.6582L79.5898-26.3184Q79.5898-23.7793 78.2471-22.2168Q76.9043-20.6543 74.5605-20.6543Z"/>
  </g>
  <g id="Semibold-M" transform="matrix(1 0 0 1 1985.31 1126)">
   <path d="M97.3633-74.5605Q93.5547-78.3691 88.2812-79.5654Q83.0078-80.7617 76.0742-80.7617L39.7461-80.7617Q32.8613-80.7617 27.6123-79.5654Q22.3633-78.3691 18.5547-74.5605Q14.7949-70.8008 13.623-65.6006Q12.4512-60.4004 12.4512-53.4668L12.4512-17.1387Q12.4512-10.1562 13.5986-4.93164Q14.7461 0.292969 18.5547 4.05273Q22.3633 7.86133 27.6123 9.05762Q32.8613 10.2539 39.7949 10.2539L76.0742 10.2539Q83.0078 10.2539 88.2812 9.05762Q93.5547 7.86133 97.3633 4.05273Q101.123 0.292969 102.295-4.93164Q103.467-10.1562 103.467-17.1387L103.467-53.3691Q103.467-60.4004 102.295-65.625Q101.123-70.8496 97.3633-74.5605ZM73.877-21.4355Q71.7773-21.4355 70.5322-22.7783Q69.2871-24.1211 69.2871-26.4648L69.2871-34.0332L69.9707-40.918L63.4766-33.7402L46.4844-16.6992Q45.6543-15.8691 44.6777-15.4541Q43.7012-15.0391 42.5293-15.0391Q40.4297-15.0391 38.9893-16.4307Q37.5488-17.8223 37.5488-20.1172Q37.5488-22.168 39.1602-23.7793L56.2988-40.8691L63.5742-47.4121L56.9824-46.6309L48.9746-46.6309Q46.6797-46.6309 45.2881-47.876Q43.8965-49.1211 43.8965-51.2207Q43.8965-53.2715 45.2881-54.541Q46.6797-55.8105 48.9258-55.8105L72.5586-55.8105Q75.293-55.8105 76.8311-54.3457Q78.3691-52.8809 78.3691-50L78.3691-26.5137Q78.3691-24.2188 77.1729-22.8271Q75.9766-21.4355 73.877-21.4355Z"/>
  </g>
  <g id="Medium-M" transform="matrix(1 0 0 1 1689.06 1126)">
   <path d="M96.582-74.3164Q92.8223-78.0762 87.5977-79.1748Q82.373-80.2734 75.7324-80.2734L39.1602-80.2734Q32.5684-80.2734 27.3682-79.1748Q22.168-78.0762 18.3594-74.3164Q14.6484-70.5566 13.5498-65.3809Q12.4512-60.2051 12.4512-53.6133L12.4512-17.041Q12.4512-10.3516 13.5254-5.15137Q14.5996 0.0488281 18.3594 3.75977Q22.168 7.56836 27.3682 8.66699Q32.5684 9.76562 39.209 9.76562L75.7324 9.76562Q82.373 9.76562 87.5977 8.66699Q92.8223 7.56836 96.582 3.75977Q100.342 0.0488281 101.44-5.15137Q102.539-10.3516 102.539-17.041L102.539-53.5156Q102.539-60.1562 101.44-65.3564Q100.342-70.5566 96.582-74.3164ZM73.3887-22.0215Q71.4355-22.0215 70.2881-23.2422Q69.1406-24.4629 69.1406-26.6113L69.1406-34.6191L69.873-41.8945L63.0371-34.4727L45.4102-16.7969Q44.7266-16.1133 43.8477-15.7471Q42.9688-15.3809 41.8945-15.3809Q40.0391-15.3809 38.7695-16.6016Q37.5-17.8223 37.5-19.9219Q37.5-21.6797 38.916-23.1445L56.6895-40.8203L64.1602-47.7051L57.2266-46.9238L48.7305-46.9238Q46.6309-46.9238 45.3857-48.0713Q44.1406-49.2188 44.1406-51.123Q44.1406-53.0273 45.3857-54.1748Q46.6309-55.3223 48.6816-55.3223L72.4121-55.3223Q74.8047-55.3223 76.1719-54.0771Q77.5391-52.832 77.5391-50.2441L77.5391-26.6602Q77.5391-24.5605 76.416-23.291Q75.293-22.0215 73.3887-22.0215Z"/>
  </g>
  <g id="Regular-M" transform="matrix(1 0 0 1 1392.96 1126)">
   <path d="M95.6055-73.9258Q91.8457-77.6855 86.6699-78.6865Q81.4941-79.6875 75.2441-79.6875L38.3789-79.6875Q32.2266-79.6875 27.0752-78.6865Q21.9238-77.6855 18.1641-73.9258Q14.4531-70.2148 13.4521-65.0879Q12.4512-59.9609 12.4512-53.8086L12.4512-16.8945Q12.4512-10.6445 13.4277-5.49316Q14.4043-0.341797 18.1641 3.36914Q21.9238 7.12891 27.0752 8.12988Q32.2266 9.13086 38.4766 9.13086L75.2441 9.13086Q81.4941 9.13086 86.6699 8.12988Q91.8457 7.12891 95.6055 3.36914Q99.3164-0.341797 100.317-5.49316Q101.318-10.6445 101.318-16.8945L101.318-53.6621Q101.318-59.9121 100.317-65.0635Q99.3164-70.2148 95.6055-73.9258ZM72.7051-22.8027Q70.9961-22.8027 69.9707-23.8525Q68.9453-24.9023 68.9453-26.7578L68.9453-35.4004L69.6777-43.2129L62.4512-35.498L43.9941-16.9922Q43.457-16.4551 42.7246-16.1377Q41.9922-15.8203 41.0645-15.8203Q39.4531-15.8203 38.4277-16.8457Q37.4023-17.8711 37.4023-19.6289Q37.4023-21.0938 38.623-22.3145L57.1289-40.7715L64.9414-48.0957L57.4707-47.3145L48.3887-47.3145Q46.582-47.3145 45.4834-48.3398Q44.3848-49.3652 44.3848-51.0254Q44.3848-52.6855 45.459-53.7109Q46.5332-54.7363 48.291-54.7363L72.168-54.7363Q74.1211-54.7363 75.2441-53.7598Q76.3672-52.7832 76.3672-50.5371L76.3672-26.8555Q76.3672-25.0488 75.3662-23.9258Q74.3652-22.8027 72.7051-22.8027Z"/>
  </g>
  <g id="Light-M" transform="matrix(1 0 0 1 1097.03 1126)">
   <path d="M94.2871-73.3887Q90.8691-76.7578 86.0596-77.8076Q81.25-78.8574 74.6094-78.8574L37.2559-78.8574Q30.9082-78.8574 26.123-77.8076Q21.3379-76.7578 17.9199-73.3398Q14.5508-69.9707 13.501-65.2344Q12.4512-60.498 12.4512-54.0527L12.4512-16.6992Q12.4512-10.0586 13.4766-5.24902Q14.502-0.439453 17.8711 2.88086Q21.3379 6.29883 26.123 7.34863Q30.9082 8.39844 37.5488 8.39844L74.6094 8.39844Q81.25 8.39844 86.084 7.34863Q90.918 6.29883 94.2871 2.88086Q97.7051-0.439453 98.7305-5.24902Q99.7559-10.0586 99.7559-16.6992L99.7559-53.7598Q99.7559-60.4004 98.7305-65.21Q97.7051-70.0195 94.2871-73.3887ZM72.3145-23.2422Q70.9961-23.2422 70.1904-24.0479Q69.3848-24.8535 69.3848-26.3184L69.3848-37.1582L69.873-45.3125L63.5742-38.6719L42.1875-17.2363Q41.7969-16.7969 41.2109-16.5527Q40.625-16.3086 39.8926-16.3086Q38.623-16.3086 37.8418-17.0898Q37.0605-17.8711 37.0605-19.2383Q37.0605-20.4102 37.9883-21.3867L59.4727-42.7734L66.2109-49.1699L58.9844-48.6328L47.0703-48.6328Q45.7031-48.6328 44.8486-49.4385Q43.9941-50.2441 43.9941-51.5137Q43.9941-52.7832 44.8242-53.5645Q45.6543-54.3457 47.0215-54.3457L71.9727-54.3457Q73.4375-54.3457 74.292-53.5889Q75.1465-52.832 75.1465-51.123L75.1465-26.3672Q75.1465-24.9512 74.3652-24.0967Q73.584-23.2422 72.3145-23.2422Z"/>
  </g>
  <g id="Thin-M" transform="matrix(1 0 0 1 801.348 1126)">
   <path d="M92.5781-72.6074Q89.6484-75.5859 85.2783-76.6846Q80.9082-77.7832 73.7793-77.7832L35.791-77.7832Q29.1504-77.7832 24.8291-76.6357Q20.5078-75.4883 17.5781-72.6074Q14.6484-69.6289 13.5498-65.3809Q12.4512-61.1328 12.4512-54.3945L12.4512-16.4551Q12.4512-9.22852 13.5254-4.90723Q14.5996-0.585938 17.5293 2.29492Q20.5078 5.22461 24.8535 6.32324Q29.1992 7.42188 36.3281 7.42188L73.7793 7.42188Q80.9082 7.42188 85.2783 6.32324Q89.6484 5.22461 92.5781 2.29492Q95.5078-0.634766 96.6064-4.93164Q97.7051-9.22852 97.7051-16.4551L97.7051-53.9062Q97.7051-61.084 96.6064-65.4297Q95.5078-69.7754 92.5781-72.6074ZM71.8262-23.7793Q70.9961-23.7793 70.5078-24.2676Q70.0195-24.7559 70.0195-25.6348L70.0195-39.4043L70.2148-48.0957L65.1367-42.7734L39.8438-17.4805Q39.5996-17.1875 39.2334-17.041Q38.8672-16.8945 38.3789-16.8945Q37.5977-16.8945 37.1094-17.3828Q36.6211-17.8711 36.6211-18.6523Q36.6211-19.4336 37.207-20.0195L62.5488-45.3613L67.8711-50.4883L61.0352-50.293L45.4102-50.293Q44.5312-50.293 44.0186-50.8057Q43.5059-51.3184 43.5059-52.0996Q43.5059-52.832 44.0186-53.2959Q44.5312-53.7598 45.3613-53.7598L71.6797-53.7598Q72.5098-53.7598 73.0225-53.2715Q73.5352-52.7832 73.5352-51.9043L73.5352-25.6836Q73.5352-24.8047 73.0469-24.292Q72.5586-23.7793 71.8262-23.7793Z"/>
  </g>
  <g id="Ultralight-M" transform="matrix(1 0 0 1 505.165 1126)">
   <path d="M91.6992-72.2656Q88.9648-74.9512 84.8633-76.0986Q80.7617-77.2461 73.3887-77.2461L35.0586-77.2461Q28.2227-77.2461 24.1699-76.0498Q20.1172-74.8535 17.4316-72.2168Q14.7461-69.4824 13.5986-65.5029Q12.4512-61.5234 12.4512-54.5898L12.4512-16.3086Q12.4512-8.83789 13.5742-4.76074Q14.6973-0.683594 17.334 1.95312Q20.1172 4.6875 24.2188 5.81055Q28.3203 6.93359 35.6934 6.93359L73.3887 6.93359Q80.7617 6.93359 84.8877 5.81055Q89.0137 4.6875 91.6992 1.95312Q94.4336-0.683594 95.5322-4.76074Q96.6309-8.83789 96.6309-16.3086L96.6309-54.0039Q96.6309-61.4258 95.5322-65.5273Q94.4336-69.6289 91.6992-72.2656ZM71.582-24.0723Q70.9961-24.0723 70.6787-24.4141Q70.3613-24.7559 70.3613-25.3418L70.3613-40.625L70.3613-49.5117L65.918-44.9707L38.6719-17.627Q38.4766-17.4805 38.2324-17.3584Q37.9883-17.2363 37.6465-17.2363Q37.0605-17.2363 36.7432-17.5537Q36.4258-17.8711 36.4258-18.4082Q36.4258-18.9453 36.8164-19.4336L64.209-46.7285L68.7988-51.2207L62.0605-51.2207L44.5312-51.2207Q43.9941-51.2207 43.6279-51.5625Q43.2617-51.9043 43.2617-52.4414Q43.2617-52.9297 43.6035-53.2227Q43.9453-53.5156 44.5312-53.5156L71.582-53.5156Q72.0703-53.5156 72.3877-53.1738Q72.7051-52.832 72.7051-52.2949L72.7051-25.3418Q72.7051-24.7559 72.3877-24.4141Q72.0703-24.0723 71.582-24.0723Z"/>
  </g>
  <g id="Black-S" transform="matrix(1 0 0 1 2885.99 696)">
   <path d="M79.541-67.2852Q76.4648-70.3125 72.2168-71.582Q67.9688-72.8516 61.1328-72.8516L33.6914-72.8516Q26.8555-72.8516 22.583-71.582Q18.3105-70.3125 15.2832-67.2852Q12.2559-64.2578 11.0107-60.0586Q9.76562-55.8594 9.76562-48.9258L9.76562-21.4844Q9.76562-14.5508 11.0107-10.3516Q12.2559-6.15234 15.2832-3.125Q18.3594-0.0976562 22.6074 1.17188Q26.8555 2.44141 33.6914 2.44141L61.1328 2.44141Q67.9688 2.44141 72.2412 1.17188Q76.5137-0.0976562 79.541-3.125Q82.5684-6.15234 83.8135-10.3516Q85.0586-14.5508 85.0586-21.4844L85.0586-48.9258Q85.0586-55.8594 83.8135-60.083Q82.5684-64.3066 79.541-67.2852ZM60.0586-21.7773Q57.666-21.7773 56.2744-23.4131Q54.8828-25.0488 54.8828-27.7832L54.8828-31.7383L55.3711-35.3516L51.7578-30.8105L40.9668-20.0684Q38.8184-17.9688 36.0352-17.9688Q33.4961-17.9688 31.5674-19.7021Q29.6387-21.4355 29.6387-24.2188Q29.6387-26.9531 31.6406-28.9551L42.627-39.9414L47.168-43.5547L43.75-42.9199L39.3555-42.9199Q36.6699-42.9199 35.0342-44.3115Q33.3984-45.7031 33.3984-48.0957Q33.3984-50.5371 35.0586-51.9043Q36.7188-53.2715 39.502-53.2715L57.5195-53.2715Q61.1328-53.2715 63.1592-51.2695Q65.1855-49.2676 65.1855-45.7031L65.1855-27.6855Q65.1855-25 63.8184-23.3887Q62.4512-21.7773 60.0586-21.7773Z"/>
  </g>
  <g id="Heavy-S" transform="matrix(1 0 0 1 2589.86 696)">
   <path d="M78.6133-66.9434Q75.4883-69.9707 71.2646-71.1182Q67.041-72.2656 60.6934-72.2656L32.959-72.2656Q26.6602-72.2656 22.3877-71.1182Q18.1152-69.9707 15.0879-66.9434Q12.0117-63.916 10.8887-59.7168Q9.76562-55.5176 9.76562-49.1211L9.76562-21.3379Q9.76562-14.9414 10.8887-10.7422Q12.0117-6.54297 15.0879-3.51562Q18.1641-0.488281 22.4121 0.683594Q26.6602 1.85547 32.959 1.85547L60.6934 1.85547Q67.041 1.85547 71.2891 0.683594Q75.5371-0.488281 78.6133-3.51562Q81.6406-6.54297 82.7637-10.7422Q83.8867-14.9414 83.8867-21.3379L83.8867-49.0723Q83.8867-55.5176 82.7637-59.7168Q81.6406-63.916 78.6133-66.9434ZM59.375-22.6074Q57.1777-22.6074 55.9082-24.0723Q54.6387-25.5371 54.6387-28.0273L54.6387-32.373L55.1758-36.5723L50.9277-31.543L39.6484-20.2637Q37.7441-18.4082 35.2539-18.4082Q32.959-18.4082 31.2744-19.9463Q29.5898-21.4844 29.5898-23.9746Q29.5898-26.3672 31.3965-28.1738L42.8711-39.5996L47.9004-43.8477L43.8965-43.1641L39.1602-43.1641Q36.7188-43.1641 35.2295-44.458Q33.7402-45.752 33.7402-47.9004Q33.7402-50.1465 35.2539-51.3916Q36.7676-52.6367 39.2578-52.6367L57.2754-52.6367Q60.4492-52.6367 62.2559-50.9033Q64.0625-49.1699 64.0625-45.9961L64.0625-27.9785Q64.0625-25.5371 62.793-24.0723Q61.5234-22.6074 59.375-22.6074Z"/>
  </g>
  <g id="Bold-S" transform="matrix(1 0 0 1 2293.8 696)">
   <path d="M77.5391-66.5527Q74.4629-69.6289 70.2148-70.6543Q65.9668-71.6797 60.2051-71.6797L32.1777-71.6797Q26.416-71.6797 22.168-70.6543Q17.9199-69.6289 14.8438-66.5527Q11.7676-63.5254 10.7666-59.3262Q9.76562-55.127 9.76562-49.3164L9.76562-21.2402Q9.76562-15.4297 10.7666-11.2305Q11.7676-7.03125 14.8438-3.95508Q17.9199-0.878906 22.168 0.146484Q26.416 1.17188 32.1777 1.17188L60.2051 1.17188Q65.9668 1.17188 70.2393 0.146484Q74.5117-0.878906 77.5391-3.95508Q80.6152-7.03125 81.6162-11.2305Q82.6172-15.4297 82.6172-21.2402L82.6172-49.2676Q82.6172-55.127 81.6162-59.3262Q80.6152-63.5254 77.5391-66.5527ZM58.5938-23.5352Q56.6406-23.5352 55.4932-24.8291Q54.3457-26.123 54.3457-28.2715L54.3457-33.1055L54.9316-37.9395L50.0488-32.373L38.1348-20.459Q36.5723-18.8965 34.375-18.8965Q32.373-18.8965 30.957-20.2148Q29.541-21.5332 29.541-23.7305Q29.541-25.7324 31.1035-27.2949L43.1152-39.2578L48.7305-44.1895L44.043-43.5059L38.9648-43.5059Q36.8164-43.5059 35.498-44.6533Q34.1797-45.8008 34.1797-47.7051Q34.1797-49.707 35.498-50.8545Q36.8164-52.002 38.9648-52.002L57.0801-52.002Q59.7656-52.002 61.2793-50.5615Q62.793-49.1211 62.793-46.3379L62.793-28.2715Q62.793-26.1719 61.6699-24.8535Q60.5469-23.5352 58.5938-23.5352Z"/>
  </g>
  <g id="Semibold-S" transform="matrix(1 0 0 1 1997.54 696)">
   <path d="M76.8066-66.3086Q73.6816-69.3848 69.458-70.3125Q65.2344-71.2402 59.8633-71.2402L31.5918-71.2402Q26.2207-71.2402 21.9727-70.3125Q17.7246-69.3848 14.6484-66.3086Q11.5723-63.2324 10.6689-59.0332Q9.76562-54.834 9.76562-49.4141L9.76562-21.0938Q9.76562-15.7227 10.6689-11.5234Q11.5723-7.32422 14.6484-4.24805Q17.7734-1.17188 21.9971-0.219727Q26.2207 0.732422 31.5918 0.732422L59.8633 0.732422Q65.2344 0.732422 69.4824-0.219727Q73.7305-1.17188 76.8066-4.24805Q79.8828-7.32422 80.7861-11.5234Q81.6895-15.7227 81.6895-21.0938L81.6895-49.4141Q81.6895-54.834 80.7861-59.0332Q79.8828-63.2324 76.8066-66.3086ZM58.0566-24.1211Q56.25-24.1211 55.2002-25.293Q54.1504-26.4648 54.1504-28.4668L54.1504-33.5938L54.7363-38.8672L49.4141-32.9102L37.1094-20.6055Q35.6934-19.1895 33.7402-19.1895Q31.9336-19.1895 30.7129-20.3857Q29.4922-21.582 29.4922-23.5352Q29.4922-25.293 30.8594-26.6602L43.2617-39.0137L49.2676-44.3848L44.0918-43.7012L38.7695-43.7012Q36.8164-43.7012 35.6445-44.751Q34.4727-45.8008 34.4727-47.5586Q34.4727-49.3652 35.6445-50.4395Q36.8164-51.5137 38.7695-51.5137L56.8848-51.5137Q59.2285-51.5137 60.5713-50.2686Q61.9141-49.0234 61.9141-46.5332L61.9141-28.4668Q61.9141-26.5625 60.8643-25.3418Q59.8145-24.1211 58.0566-24.1211Z"/>
  </g>
  <g id="Medium-S" transform="matrix(1 0 0 1 1701.17 696)">
   <path d="M76.2695-66.0645Q73.1445-69.1895 68.9209-70.0439Q64.6973-70.8984 59.6191-70.8984L31.1523-70.8984Q26.0742-70.8984 21.8506-70.0439Q17.627-69.1895 14.502-66.0645Q11.4746-63.0371 10.6201-58.8379Q9.76562-54.6387 9.76562-49.5117L9.76562-21.0449Q9.76562-15.9668 10.6201-11.7676Q11.4746-7.56836 14.502-4.44336Q17.627-1.36719 21.8506-0.512695Q26.0742 0.341797 31.1523 0.341797L59.6191 0.341797Q64.6973 0.341797 68.9453-0.512695Q73.1934-1.36719 76.2695-4.44336Q79.3457-7.56836 80.1758-11.7676Q81.0059-15.9668 81.0059-21.0449L81.0059-49.4629Q81.0059-54.6387 80.1758-58.8379Q79.3457-63.0371 76.2695-66.0645ZM57.666-24.6094Q56.0059-24.6094 55.0049-25.6836Q54.0039-26.7578 54.0039-28.5645L54.0039-33.9844L54.6875-39.5508L48.9746-33.3496L36.3281-20.7031Q35.1074-19.4336 33.3496-19.4336Q31.6895-19.4336 30.5908-20.5078Q29.4922-21.582 29.4922-23.3887Q29.4922-24.9512 30.7129-26.1719L43.457-38.8184L49.707-44.5801L44.1895-43.8477L38.6719-43.8477Q36.8652-43.8477 35.791-44.8242Q34.7168-45.8008 34.7168-47.4609Q34.7168-49.1211 35.791-50.1465Q36.8652-51.1719 38.623-51.1719L56.7871-51.1719Q58.8867-51.1719 60.083-50.0732Q61.2793-48.9746 61.2793-46.7285L61.2793-28.6621Q61.2793-26.9043 60.2783-25.7568Q59.2773-24.6094 57.666-24.6094Z"/>
  </g>
  <g id="Regular-S" transform="matrix(1 0 0 1 1404.9 696)">
   <path d="M75.5371-65.8203Q72.4121-68.9453 68.1885-69.7021Q63.9648-70.459 59.2773-70.459L30.6152-70.459Q25.9277-70.459 21.7041-69.7021Q17.4805-68.9453 14.3555-65.8203Q11.2793-62.7441 10.5225-58.5449Q9.76562-54.3457 9.76562-49.6582L9.76562-20.9473Q9.76562-16.2598 10.5225-12.0605Q11.2793-7.86133 14.3555-4.73633Q17.4805-1.66016 21.7041-0.878906Q25.9277-0.0976562 30.6152-0.0976562L59.2773-0.0976562Q63.9648-0.0976562 68.2129-0.878906Q72.4609-1.66016 75.5371-4.73633Q78.6133-7.86133 79.3701-12.0605Q80.127-16.2598 80.127-20.9473L80.127-49.6094Q80.127-54.3457 79.3701-58.5449Q78.6133-62.7441 75.5371-65.8203ZM57.1289-25.2441Q55.6152-25.2441 54.7119-26.1963Q53.8086-27.1484 53.8086-28.7598L53.8086-34.4727L54.4922-40.4785L48.3398-33.8867L35.3027-20.8496Q34.2773-19.7754 32.7148-19.7754Q31.25-19.7754 30.3467-20.7031Q29.4434-21.6309 29.4434-23.1934Q29.4434-24.5117 30.5176-25.5859L43.6035-38.5742L50.2441-44.7754L44.2871-44.043L38.5254-44.043Q36.9141-44.043 35.9375-44.9463Q34.9609-45.8496 34.9609-47.3145Q34.9609-48.8281 35.9131-49.7559Q36.8652-50.6836 38.4277-50.6836L56.5918-50.6836Q58.3496-50.6836 59.375-49.8047Q60.4004-48.9258 60.4004-46.9238L60.4004-28.8574Q60.4004-27.2949 59.4971-26.2695Q58.5938-25.2441 57.1289-25.2441Z"/>
  </g>
  <g id="Light-S" transform="matrix(1 0 0 1 1108.88 696)">
   <path d="M74.3652-65.332Q71.582-68.1152 67.6758-68.9209Q63.7695-69.7266 58.7402-69.7266L29.6387-69.7266Q24.7559-69.7266 20.8496-68.9209Q16.9434-68.1152 14.1602-65.2832Q11.377-62.5488 10.5713-58.667Q9.76562-54.7852 9.76562-49.9023L9.76562-20.8008Q9.76562-15.7227 10.5713-11.8408Q11.377-7.95898 14.1113-5.17578Q16.9434-2.39258 20.8496-1.5625Q24.7559-0.732422 29.7852-0.732422L58.7402-0.732422Q63.7695-0.732422 67.7002-1.5625Q71.6309-2.39258 74.3652-5.17578Q77.1484-7.95898 77.9541-11.8408Q78.7598-15.7227 78.7598-20.8008L78.7598-49.707Q78.7598-54.7852 77.9541-58.667Q77.1484-62.5488 74.3652-65.332ZM56.7871-25.6348Q55.6152-25.6348 54.9072-26.3672Q54.1992-27.0996 54.1992-28.3691L54.1992-36.0352L54.6875-42.3828L49.3652-36.6699L33.7402-21.0449Q32.9102-20.2148 31.6895-20.2148Q30.5664-20.2148 29.8584-20.9229Q29.1504-21.6309 29.1504-22.8516Q29.1504-23.877 29.9805-24.7559L45.6543-40.332L51.3672-45.7031L45.6055-45.2148L37.4023-45.2148Q36.1328-45.2148 35.376-45.9229Q34.6191-46.6309 34.6191-47.7539Q34.6191-48.9258 35.3516-49.6338Q36.084-50.3418 37.3047-50.3418L56.3965-50.3418Q57.7637-50.3418 58.5449-49.6582Q59.3262-48.9746 59.3262-47.4609L59.3262-28.418Q59.3262-27.2461 58.6182-26.4404Q57.9102-25.6348 56.7871-25.6348Z"/>
  </g>
  <g id="Thin-S" transform="matrix(1 0 0 1 813.075 696)">
   <path d="M72.8516-64.6484Q70.459-67.041 66.9678-67.8955Q63.4766-68.75 57.959-68.75L28.3691-68.75Q23.1934-68.75 19.7266-67.8711Q16.2598-66.9922 13.8672-64.6484Q11.4746-62.2559 10.6201-58.8379Q9.76562-55.4199 9.76562-50.1953L9.76562-20.5566Q9.76562-15.0391 10.6201-11.5479Q11.4746-8.05664 13.8184-5.71289Q16.2109-3.36914 19.7266-2.49023Q23.2422-1.61133 28.7109-1.61133L57.959-1.61133Q63.4766-1.61133 66.9922-2.49023Q70.5078-3.36914 72.8516-5.71289Q75.2441-8.10547 76.0742-11.5723Q76.9043-15.0391 76.9043-20.5566L76.9043-49.8047Q76.9043-55.3711 76.0742-58.8379Q75.2441-62.3047 72.8516-64.6484ZM56.3477-26.123Q55.6152-26.123 55.1758-26.5625Q54.7363-27.002 54.7363-27.7832L54.7363-38.0371L54.9316-44.7754L50.7324-40.332L31.6406-21.2402Q31.1035-20.752 30.3223-20.752Q29.6387-20.752 29.1992-21.1914Q28.7598-21.6309 28.7598-22.3145Q28.7598-22.998 29.2969-23.584L48.3887-42.627L52.8809-46.875L47.4121-46.7285L35.8887-46.7285Q35.1074-46.7285 34.6436-47.168Q34.1797-47.6074 34.1797-48.291Q34.1797-48.9746 34.6436-49.3896Q35.1074-49.8047 35.8398-49.8047L56.2012-49.8047Q56.9824-49.8047 57.4463-49.3896Q57.9102-48.9746 57.9102-48.1445L57.9102-27.832Q57.9102-27.0508 57.4707-26.5869Q57.0312-26.123 56.3477-26.123Z"/>
  </g>
  <g id="Ultralight-S" transform="matrix(1 0 0 1 516.831 696)">
   <path d="M72.0703-64.3066Q69.9219-66.5039 66.626-67.3828Q63.3301-68.2617 57.6172-68.2617L27.6855-68.2617Q22.3633-68.2617 19.1162-67.3584Q15.8691-66.4551 13.7207-64.2578Q11.5723-62.1094 10.6689-58.9111Q9.76562-55.7129 9.76562-50.3418L9.76562-20.459Q9.76562-14.6484 10.6445-11.4014Q11.5234-8.1543 13.6719-6.00586Q15.8691-3.85742 19.1406-2.9541Q22.4121-2.05078 28.1738-2.05078L57.6172-2.05078Q63.3301-2.05078 66.626-2.9541Q69.9219-3.85742 72.0703-6.00586Q74.2676-8.20312 75.1221-11.4258Q75.9766-14.6484 75.9766-20.459L75.9766-49.9023Q75.9766-55.6641 75.1221-58.9355Q74.2676-62.207 72.0703-64.3066ZM56.1035-26.416Q55.6152-26.416 55.3223-26.709Q55.0293-27.002 55.0293-27.5391L55.0293-39.1113L55.0781-46.0938L51.416-42.2363L30.5664-21.3867Q30.1758-21.0449 29.6387-21.0449Q29.1504-21.0449 28.8574-21.3379Q28.5645-21.6309 28.5645-22.1191Q28.5645-22.6074 28.9551-22.998L49.8047-43.8477L53.6133-47.5586L48.291-47.5586L35.1074-47.5586Q34.5703-47.5586 34.2529-47.8516Q33.9355-48.1445 33.9355-48.6328Q33.9355-49.0723 34.2529-49.3408Q34.5703-49.6094 35.1074-49.6094L56.0547-49.6094Q56.543-49.6094 56.8604-49.3164Q57.1777-49.0234 57.1777-48.5352L57.1777-27.5391Q57.1777-27.0508 56.8848-26.7334Q56.5918-26.416 56.1035-26.416Z"/>
  </g>
 </g>
</svg>
