<?xml version="1.0" encoding="UTF-8"?>
<!--Generator: Apple Native CoreSVG 175-->
<!DOCTYPE svg
PUBLIC "-//W3C//DTD SVG 1.1//EN"
       "http://www.w3.org/Graphics/SVG/1.1/DTD/svg11.dtd">
<svg version="1.1" xmlns="http://www.w3.org/2000/svg" xmlns:xlink="http://www.w3.org/1999/xlink" width="3300" height="2200">
 <!--glyph: "uni10044E.medium", point size: 100.0, font version: "17.0d12e1", template writer version: "65.1"-->
 <g id="Notes">
  <rect height="2200" id="artboard" style="fill:white;opacity:1" width="3300" x="0" y="0"/>
  <line style="fill:none;stroke:black;opacity:1;stroke-width:0.5;" x1="263" x2="3036" y1="292" y2="292"/>
  <text style="stroke:none;fill:black;font-family:sans-serif;font-size:13;font-weight:bold;" transform="matrix(1 0 0 1 263 322)">Weight/Scale Variations</text>
  <text style="stroke:none;fill:black;font-family:sans-serif;font-size:13;text-anchor:middle;" transform="matrix(1 0 0 1 559.711 322)">Ultralight</text>
  <text style="stroke:none;fill:black;font-family:sans-serif;font-size:13;text-anchor:middle;" transform="matrix(1 0 0 1 856.422 322)">Thin</text>
  <text style="stroke:none;fill:black;font-family:sans-serif;font-size:13;text-anchor:middle;" transform="matrix(1 0 0 1 1153.13 322)">Light</text>
  <text style="stroke:none;fill:black;font-family:sans-serif;font-size:13;text-anchor:middle;" transform="matrix(1 0 0 1 1449.84 322)">Regular</text>
  <text style="stroke:none;fill:black;font-family:sans-serif;font-size:13;text-anchor:middle;" transform="matrix(1 0 0 1 1746.56 322)">Medium</text>
  <text style="stroke:none;fill:black;font-family:sans-serif;font-size:13;text-anchor:middle;" transform="matrix(1 0 0 1 2043.27 322)">Semibold</text>
  <text style="stroke:none;fill:black;font-family:sans-serif;font-size:13;text-anchor:middle;" transform="matrix(1 0 0 1 2339.98 322)">Bold</text>
  <text style="stroke:none;fill:black;font-family:sans-serif;font-size:13;text-anchor:middle;" transform="matrix(1 0 0 1 2636.69 322)">Heavy</text>
  <text style="stroke:none;fill:black;font-family:sans-serif;font-size:13;text-anchor:middle;" transform="matrix(1 0 0 1 2933.4 322)">Black</text>
  <line style="fill:none;stroke:black;opacity:1;stroke-width:0.5;" x1="263" x2="3036" y1="1903" y2="1903"/>
  <g transform="matrix(1 0 0 1 263 1933)">
   <path d="M9.24805 0.830078Q10.8691 0.830078 12.2949 0.214844Q13.7207-0.400391 14.8096-1.49414Q15.8984-2.58789 16.5186-4.01367Q17.1387-5.43945 17.1387-7.05078Q17.1387-8.66211 16.5186-10.0879Q15.8984-11.5137 14.8047-12.6074Q13.7109-13.7012 12.2852-14.3164Q10.8594-14.9316 9.23828-14.9316Q7.62695-14.9316 6.20117-14.3164Q4.77539-13.7012 3.69141-12.6074Q2.60742-11.5137 1.9873-10.0879Q1.36719-8.66211 1.36719-7.05078Q1.36719-5.43945 1.9873-4.01367Q2.60742-2.58789 3.69629-1.49414Q4.78516-0.400391 6.21094 0.214844Q7.63672 0.830078 9.24805 0.830078ZM9.24805-0.654297Q7.91992-0.654297 6.7627-1.14746Q5.60547-1.64062 4.73145-2.51953Q3.85742-3.39844 3.36426-4.56055Q2.87109-5.72266 2.87109-7.05078Q2.87109-8.37891 3.35938-9.54102Q3.84766-10.7031 4.72168-11.582Q5.5957-12.4609 6.75293-12.9541Q7.91016-13.4473 9.23828-13.4473Q10.5762-13.4473 11.7334-12.9541Q12.8906-12.4609 13.7695-11.582Q14.6484-10.7031 15.1465-9.54102Q15.6445-8.37891 15.6445-7.05078Q15.6445-5.72266 15.1514-4.56055Q14.6582-3.39844 13.7842-2.51953Q12.9102-1.64062 11.748-1.14746Q10.5859-0.654297 9.24805-0.654297ZM5.6543-7.05078Q5.6543-6.72852 5.85938-6.52832Q6.06445-6.32812 6.40625-6.32812L8.51562-6.32812L8.51562-4.20898Q8.51562-3.88672 8.71094-3.67676Q8.90625-3.4668 9.23828-3.4668Q9.56055-3.4668 9.77051-3.67676Q9.98047-3.88672 9.98047-4.20898L9.98047-6.32812L12.0898-6.32812Q12.4219-6.32812 12.627-6.52832Q12.832-6.72852 12.832-7.05078Q12.832-7.38281 12.627-7.58789Q12.4219-7.79297 12.0898-7.79297L9.98047-7.79297L9.98047-9.90234Q9.98047-10.2344 9.77051-10.4443Q9.56055-10.6543 9.23828-10.6543Q8.90625-10.6543 8.71094-10.4443Q8.51562-10.2344 8.51562-9.90234L8.51562-7.79297L6.40625-7.79297Q6.06445-7.79297 5.85938-7.58789Q5.6543-7.38281 5.6543-7.05078Z"/>
  </g>
  <g transform="matrix(1 0 0 1 281.867 1933)">
   <path d="M11.709 2.91016Q13.75 2.91016 15.5518 2.12891Q17.3535 1.34766 18.7305-0.0292969Q20.1074-1.40625 20.8887-3.20801Q21.6699-5.00977 21.6699-7.05078Q21.6699-9.0918 20.8887-10.8936Q20.1074-12.6953 18.7305-14.0723Q17.3535-15.4492 15.5469-16.2305Q13.7402-17.0117 11.6992-17.0117Q9.6582-17.0117 7.85645-16.2305Q6.05469-15.4492 4.68262-14.0723Q3.31055-12.6953 2.5293-10.8936Q1.74805-9.0918 1.74805-7.05078Q1.74805-5.00977 2.5293-3.20801Q3.31055-1.40625 4.6875-0.0292969Q6.06445 1.34766 7.86621 2.12891Q9.66797 2.91016 11.709 2.91016ZM11.709 1.25Q9.98047 1.25 8.47656 0.605469Q6.97266-0.0390625 5.83496-1.17676Q4.69727-2.31445 4.05762-3.81836Q3.41797-5.32227 3.41797-7.05078Q3.41797-8.7793 4.05762-10.2832Q4.69727-11.7871 5.83008-12.9297Q6.96289-14.0723 8.4668-14.7119Q9.9707-15.3516 11.6992-15.3516Q13.4277-15.3516 14.9316-14.7119Q16.4355-14.0723 17.5781-12.9297Q18.7207-11.7871 19.3652-10.2832Q20.0098-8.7793 20.0098-7.05078Q20.0098-5.32227 19.3701-3.81836Q18.7305-2.31445 17.5928-1.17676Q16.4551-0.0390625 14.9463 0.605469Q13.4375 1.25 11.709 1.25ZM7.17773-7.05078Q7.17773-6.69922 7.41211-6.47461Q7.64648-6.25 8.01758-6.25L10.8887-6.25L10.8887-3.36914Q10.8887-2.99805 11.1133-2.76855Q11.3379-2.53906 11.6895-2.53906Q12.0605-2.53906 12.29-2.76855Q12.5195-2.99805 12.5195-3.36914L12.5195-6.25L15.4004-6.25Q15.7715-6.25 16.001-6.47461Q16.2305-6.69922 16.2305-7.05078Q16.2305-7.42188 16.001-7.65137Q15.7715-7.88086 15.4004-7.88086L12.5195-7.88086L12.5195-10.752Q12.5195-11.1328 12.29-11.3623Q12.0605-11.5918 11.6895-11.5918Q11.3379-11.5918 11.1133-11.3574Q10.8887-11.123 10.8887-10.752L10.8887-7.88086L8.01758-7.88086Q7.63672-7.88086 7.40723-7.65137Q7.17773-7.42188 7.17773-7.05078Z"/>
  </g>
  <g transform="matrix(1 0 0 1 305.646 1933)">
   <path d="M14.9707 5.66406Q17.0605 5.66406 18.96 5.01465Q20.8594 4.36523 22.4512 3.19336Q24.043 2.02148 25.2197 0.429688Q26.3965-1.16211 27.0459-3.06641Q27.6953-4.9707 27.6953-7.05078Q27.6953-9.14062 27.0459-11.04Q26.3965-12.9395 25.2197-14.5312Q24.043-16.123 22.4512-17.2998Q20.8594-18.4766 18.9551-19.126Q17.0508-19.7754 14.9609-19.7754Q12.8711-19.7754 10.9717-19.126Q9.07227-18.4766 7.48535-17.2998Q5.89844-16.123 4.72168-14.5312Q3.54492-12.9395 2.90039-11.04Q2.25586-9.14062 2.25586-7.05078Q2.25586-4.9707 2.90527-3.06641Q3.55469-1.16211 4.72656 0.429688Q5.89844 2.02148 7.49023 3.19336Q9.08203 4.36523 10.9814 5.01465Q12.8809 5.66406 14.9707 5.66406ZM14.9707 3.84766Q13.1641 3.84766 11.5283 3.2959Q9.89258 2.74414 8.53516 1.74805Q7.17773 0.751953 6.17676-0.610352Q5.17578-1.97266 4.62891-3.6084Q4.08203-5.24414 4.08203-7.05078Q4.08203-8.86719 4.62891-10.5029Q5.17578-12.1387 6.17188-13.501Q7.16797-14.8633 8.52539-15.8594Q9.88281-16.8555 11.5186-17.4023Q13.1543-17.9492 14.9609-17.9492Q16.7773-17.9492 18.4131-17.4023Q20.0488-16.8555 21.4111-15.8594Q22.7734-14.8633 23.7695-13.501Q24.7656-12.1387 25.3174-10.5029Q25.8691-8.86719 25.8691-7.05078Q25.8789-5.24414 25.332-3.6084Q24.7852-1.97266 23.7842-0.610352Q22.7832 0.751953 21.4209 1.74805Q20.0586 2.74414 18.4229 3.2959Q16.7871 3.84766 14.9707 3.84766ZM9.19922-7.05078Q9.19922-6.66992 9.45801-6.4209Q9.7168-6.17188 10.1172-6.17188L14.0625-6.17188L14.0625-2.2168Q14.0625-1.81641 14.3115-1.55762Q14.5605-1.29883 14.9512-1.29883Q15.3516-1.29883 15.6104-1.55273Q15.8691-1.80664 15.8691-2.2168L15.8691-6.17188L19.8242-6.17188Q20.2246-6.17188 20.4785-6.4209Q20.7324-6.66992 20.7324-7.05078Q20.7324-7.46094 20.4785-7.71484Q20.2246-7.96875 19.8242-7.96875L15.8691-7.96875L15.8691-11.9141Q15.8691-12.3242 15.6104-12.583Q15.3516-12.8418 14.9512-12.8418Q14.5605-12.8418 14.3115-12.583Q14.0625-12.3242 14.0625-11.9141L14.0625-7.96875L10.1172-7.96875Q9.70703-7.96875 9.45312-7.71484Q9.19922-7.46094 9.19922-7.05078Z"/>
  </g>
  <text style="stroke:none;fill:black;font-family:sans-serif;font-size:13;font-weight:bold;" transform="matrix(1 0 0 1 263 1953)">Design Variations</text>
  <text style="stroke:none;fill:black;font-family:sans-serif;font-size:13;" transform="matrix(1 0 0 1 263 1971)">Symbols are supported in up to nine weights and three scales.</text>
  <text style="stroke:none;fill:black;font-family:sans-serif;font-size:13;" transform="matrix(1 0 0 1 263 1989)">For optimal layout with text and other symbols, vertically align</text>
  <text style="stroke:none;fill:black;font-family:sans-serif;font-size:13;" transform="matrix(1 0 0 1 263 2007)">symbols with the adjacent text.</text>
  <line style="fill:none;stroke:#00AEEF;stroke-width:0.5;opacity:1.0;" x1="776" x2="776" y1="1919" y2="1933"/>
  <g transform="matrix(1 0 0 1 776 1933)">
   <path d="M3.31055 0.15625Q3.70117 0.15625 3.91602-0.00976562Q4.13086-0.175781 4.26758-0.585938L5.52734-4.0332L11.2891-4.0332L12.5488-0.585938Q12.6855-0.175781 12.9004-0.00976562Q13.1152 0.15625 13.4961 0.15625Q13.8867 0.15625 14.1162-0.0585938Q14.3457-0.273438 14.3457-0.644531Q14.3457-0.869141 14.2383-1.17188L9.6582-13.3691Q9.48242-13.8184 9.17969-14.043Q8.87695-14.2676 8.4082-14.2676Q7.5-14.2676 7.17773-13.3789L2.59766-1.16211Q2.49023-0.859375 2.49023-0.634766Q2.49023-0.263672 2.70996-0.0537109Q2.92969 0.15625 3.31055 0.15625ZM6.00586-5.51758L8.37891-12.0898L8.42773-12.0898L10.8008-5.51758Z"/>
  </g>
  <line style="fill:none;stroke:#00AEEF;stroke-width:0.5;opacity:1.0;" x1="793.197" x2="793.197" y1="1919" y2="1933"/>
  <text style="stroke:none;fill:black;font-family:sans-serif;font-size:13;font-weight:bold;" transform="matrix(1 0 0 1 776 1953)">Margins</text>
  <text style="stroke:none;fill:black;font-family:sans-serif;font-size:13;" transform="matrix(1 0 0 1 776 1971)">Leading and trailing margins on the left and right side of each symbol</text>
  <text style="stroke:none;fill:black;font-family:sans-serif;font-size:13;" transform="matrix(1 0 0 1 776 1989)">can be adjusted by modifying the x-location of the margin guidelines.</text>
  <text style="stroke:none;fill:black;font-family:sans-serif;font-size:13;" transform="matrix(1 0 0 1 776 2007)">Modifications are automatically applied proportionally to all</text>
  <text style="stroke:none;fill:black;font-family:sans-serif;font-size:13;" transform="matrix(1 0 0 1 776 2025)">scales and weights.</text>
  <g transform="matrix(1 0 0 1 1289 1933)">
   <path d="M2.8418 1.86523L4.54102 3.57422Q5.18555 4.22852 5.90332 4.17969Q6.62109 4.13086 7.31445 3.35938L18.0078-8.42773L17.041-9.4043L6.42578 2.27539Q6.16211 2.57812 5.89355 2.61719Q5.625 2.65625 5.27344 2.30469L4.10156 1.14258Q3.75 0.791016 3.79395 0.522461Q3.83789 0.253906 4.14062-0.0195312L15.6152-10.8203L14.6387-11.7871L3.04688-0.898438Q2.30469-0.214844 2.25098 0.498047Q2.19727 1.21094 2.8418 1.86523ZM9.25781-16.3281Q8.94531-16.0254 8.90625-15.6348Q8.86719-15.2441 9.04297-14.9512Q9.21875-14.6777 9.55566-14.541Q9.89258-14.4043 10.3809-14.5215Q11.4746-14.7754 12.5977-14.7314Q13.7207-14.6875 14.7949-13.9844L14.209-12.5293Q13.9551-11.9043 14.0674-11.4404Q14.1797-10.9766 14.5801-10.5664L16.875-8.25195Q17.2363-7.88086 17.5781-7.82227Q17.9199-7.76367 18.3398-7.8418L19.4043-8.03711L20.0684-7.36328L20.0293-6.80664Q20-6.43555 20.1221-6.12305Q20.2441-5.81055 20.6055-5.44922L21.3672-4.70703Q21.7285-4.3457 22.1533-4.33105Q22.5781-4.31641 22.9297-4.66797L25.8398-7.58789Q26.1914-7.93945 26.1816-8.35449Q26.1719-8.76953 25.8105-9.13086L25.0391-9.89258Q24.6875-10.2539 24.3799-10.3857Q24.0723-10.5176 23.7109-10.4883L23.1348-10.4395L22.4902-11.0742L22.7344-12.1973Q22.832-12.6172 22.6953-12.9834Q22.5586-13.3496 22.1191-13.7891L19.9219-15.9766Q18.6719-17.2168 17.2607-17.8369Q15.8496-18.457 14.4189-18.4814Q12.9883-18.5059 11.665-17.959Q10.3418-17.4121 9.25781-16.3281ZM10.752-15.957Q11.6602-16.6211 12.7002-16.9043Q13.7402-17.1875 14.8047-17.085Q15.8691-16.9824 16.8701-16.5137Q17.8711-16.0449 18.7012-15.2051L21.1328-12.793Q21.3086-12.6172 21.3525-12.4512Q21.3965-12.2852 21.3379-12.0312L21.0156-10.5469L22.5195-9.0625L23.5059-9.12109Q23.6914-9.13086 23.7891-9.09668Q23.8867-9.0625 24.0332-8.91602L24.6094-8.33984L22.168-5.89844L21.5918-6.47461Q21.4453-6.62109 21.4062-6.71875Q21.3672-6.81641 21.377-7.01172L21.4453-7.98828L19.9512-9.47266L18.4277-9.21875Q18.1836-9.16992 18.042-9.2041Q17.9004-9.23828 17.7148-9.41406L15.7129-11.416Q15.5176-11.5918 15.4932-11.7529Q15.4688-11.9141 15.5859-12.1875L16.4648-14.2773Q15.293-15.3711 13.8281-15.791Q12.3633-16.2109 10.8398-15.7617Q10.7227-15.7324 10.6885-15.8057Q10.6543-15.8789 10.752-15.957Z"/>
  </g>
  <text style="stroke:none;fill:black;font-family:sans-serif;font-size:13;font-weight:bold;" transform="matrix(1 0 0 1 1289 1953)">Exporting</text>
  <text style="stroke:none;fill:black;font-family:sans-serif;font-size:13;" transform="matrix(1 0 0 1 1289 1971)">Symbols should be outlined when exporting to ensure the</text>
  <text style="stroke:none;fill:black;font-family:sans-serif;font-size:13;" transform="matrix(1 0 0 1 1289 1989)">design is preserved when submitting to Xcode.</text>
  <text id="template-version" style="stroke:none;fill:black;font-family:sans-serif;font-size:13;text-anchor:end;" transform="matrix(1 0 0 1 3036 1933)">Template v.3.0</text>
  <text style="stroke:none;fill:black;font-family:sans-serif;font-size:13;text-anchor:end;" transform="matrix(1 0 0 1 3036 1951)">Requires Xcode 13 or greater</text>
  <text id="descriptive-name" style="stroke:none;fill:black;font-family:sans-serif;font-size:13;text-anchor:end;" transform="matrix(1 0 0 1 3036 1969)">Generated from plus.app.fill</text>
  <text style="stroke:none;fill:black;font-family:sans-serif;font-size:13;text-anchor:end;" transform="matrix(1 0 0 1 3036 1987)">Typeset at 100 points</text>
  <text style="stroke:none;fill:black;font-family:sans-serif;font-size:13;" transform="matrix(1 0 0 1 263 726)">Small</text>
  <text style="stroke:none;fill:black;font-family:sans-serif;font-size:13;" transform="matrix(1 0 0 1 263 1156)">Medium</text>
  <text style="stroke:none;fill:black;font-family:sans-serif;font-size:13;" transform="matrix(1 0 0 1 263 1586)">Large</text>
 </g>
 <g id="Guides">
  <g id="H-reference" style="fill:#27AAE1;stroke:none;" transform="matrix(1 0 0 1 339 696)">
   <path d="M0.993347 0L3.6377 0L29.3282-67.1326L30.0301-67.1326L30.0301-70.459L28.1227-70.459ZM11.6882-24.4797L46.9818-24.4797L46.2311-26.7288L12.4382-26.7288ZM55.1193 0L57.7637 0L30.6381-70.459L29.4327-70.459L29.4327-67.1326Z"/>
  </g>
  <line id="Baseline-S" style="fill:none;stroke:#27AAE1;opacity:1;stroke-width:0.5;" x1="263" x2="3036" y1="696" y2="696"/>
  <line id="Capline-S" style="fill:none;stroke:#27AAE1;opacity:1;stroke-width:0.5;" x1="263" x2="3036" y1="625.541" y2="625.541"/>
  <g id="H-reference" style="fill:#27AAE1;stroke:none;" transform="matrix(1 0 0 1 339 1126)">
   <path d="M0.993347 0L3.6377 0L29.3282-67.1326L30.0301-67.1326L30.0301-70.459L28.1227-70.459ZM11.6882-24.4797L46.9818-24.4797L46.2311-26.7288L12.4382-26.7288ZM55.1193 0L57.7637 0L30.6381-70.459L29.4327-70.459L29.4327-67.1326Z"/>
  </g>
  <line id="Baseline-M" style="fill:none;stroke:#27AAE1;opacity:1;stroke-width:0.5;" x1="263" x2="3036" y1="1126" y2="1126"/>
  <line id="Capline-M" style="fill:none;stroke:#27AAE1;opacity:1;stroke-width:0.5;" x1="263" x2="3036" y1="1055.54" y2="1055.54"/>
  <g id="H-reference" style="fill:#27AAE1;stroke:none;" transform="matrix(1 0 0 1 339 1556)">
   <path d="M0.993347 0L3.6377 0L29.3282-67.1326L30.0301-67.1326L30.0301-70.459L28.1227-70.459ZM11.6882-24.4797L46.9818-24.4797L46.2311-26.7288L12.4382-26.7288ZM55.1193 0L57.7637 0L30.6381-70.459L29.4327-70.459L29.4327-67.1326Z"/>
  </g>
  <line id="Baseline-L" style="fill:none;stroke:#27AAE1;opacity:1;stroke-width:0.5;" x1="263" x2="3036" y1="1556" y2="1556"/>
  <line id="Capline-L" style="fill:none;stroke:#27AAE1;opacity:1;stroke-width:0.5;" x1="263" x2="3036" y1="1485.54" y2="1485.54"/>
  <line id="left-margin-Regular-M" style="fill:none;stroke:#00AEEF;stroke-width:0.5;opacity:1.0;" x1="1392.96" x2="1392.96" y1="1030.79" y2="1150.12"/>
  <line id="right-margin-Regular-M" style="fill:none;stroke:#00AEEF;stroke-width:0.5;opacity:1.0;" x1="1506.73" x2="1506.73" y1="1030.79" y2="1150.12"/>
 </g>
 <g id="Symbols">
  <g id="Black-L" transform="matrix(1 0 0 1 2856.4 1556)">
   <path d="M129.248-87.4023Q125.879-90.7715 121.655-92.6758Q117.432-94.5801 112.085-95.3857Q106.738-96.1914 99.8535-96.1914L54.1504-96.1914Q43.8477-96.1914 36.8408-94.3359Q29.834-92.4805 24.7559-87.4023Q19.6777-82.373 17.8711-75.415Q16.0645-68.457 16.0645-58.1055L16.0645-12.3535Q16.0645-5.46875 16.8213-0.0976562Q17.5781 5.27344 19.4824 9.44824Q21.3867 13.623 24.7559 16.9434Q28.1738 20.3125 32.373 22.2168Q36.5723 24.1211 41.9434 24.9268Q47.3145 25.7324 54.1504 25.7324L99.8535 25.7324Q106.738 25.7324 112.109 24.9268Q117.48 24.1211 121.68 22.2168Q125.879 20.3125 129.248 16.9434Q132.617 13.5742 134.521 9.39941Q136.426 5.22461 137.183-0.12207Q137.939-5.46875 137.939-12.3535L137.939-58.1055Q137.939-64.9902 137.183-70.3613Q136.426-75.7324 134.521-79.9072Q132.617-84.082 129.248-87.4023ZM45.8984-35.2539Q45.8984-39.0625 48.3398-41.5771Q50.7812-44.0918 54.4922-44.0918L68.2617-44.0918L68.2617-57.8613Q68.2617-61.5723 70.752-64.0137Q73.2422-66.4551 77.0508-66.4551Q80.8105-66.4551 83.3252-64.0137Q85.8398-61.5723 85.8398-57.8613L85.8398-44.0918L99.6582-44.0918Q103.32-44.0918 105.762-41.5771Q108.203-39.0625 108.203-35.2539Q108.203-31.4941 105.762-29.0039Q103.32-26.5137 99.6582-26.5137L85.8398-26.5137L85.8398-12.6953Q85.8398-9.0332 83.3252-6.5918Q80.8105-4.15039 77.0508-4.15039Q73.2422-4.15039 70.752-6.5918Q68.2617-9.0332 68.2617-12.6953L68.2617-26.5137L54.4922-26.5137Q50.7812-26.5137 48.3398-29.0039Q45.8984-31.4941 45.8984-35.2539Z"/>
  </g>
  <g id="Heavy-L" transform="matrix(1 0 0 1 2560.69 1556)">
   <path d="M127.588-86.7676Q124.316-90.0391 120.19-91.8701Q116.064-93.7012 110.864-94.4336Q105.664-95.166 99.0723-95.166L52.832-95.166Q43.0664-95.166 36.2061-93.4326Q29.3457-91.6992 24.4141-86.7676Q19.4336-81.8359 17.749-75.0488Q16.0645-68.2617 16.0645-58.3984L16.0645-12.1582Q16.0645-5.56641 16.7725-0.341797Q17.4805 4.88281 19.2871 8.95996Q21.0938 13.0371 24.3652 16.3086Q27.7344 19.5801 31.8359 21.4111Q35.9375 23.2422 41.1621 23.9746Q46.3867 24.707 52.9297 24.707L99.0723 24.707Q105.664 24.707 110.864 23.9746Q116.064 23.2422 120.19 21.4111Q124.316 19.5801 127.588 16.3086Q130.908 12.9883 132.715 8.91113Q134.521 4.83398 135.229-0.366211Q135.938-5.56641 135.938-12.1582L135.938-58.3496Q135.938-64.9414 135.229-70.1416Q134.521-75.3418 132.715-79.4189Q130.908-83.4961 127.588-86.7676ZM45.166-35.2539Q45.166-38.6719 47.3389-40.8936Q49.5117-43.1152 52.832-43.1152L68.2617-43.1152L68.2617-58.5449Q68.2617-61.8652 70.459-64.0381Q72.6562-66.2109 76.0254-66.2109Q79.3945-66.2109 81.6406-64.0381Q83.8867-61.8652 83.8867-58.5449L83.8867-43.1152L99.3164-43.1152Q102.588-43.1152 104.785-40.8936Q106.982-38.6719 106.982-35.2539Q106.982-31.8848 104.785-29.6875Q102.588-27.4902 99.3164-27.4902L83.8867-27.4902L83.8867-12.0605Q83.8867-8.78906 81.6406-6.5918Q79.3945-4.39453 76.0254-4.39453Q72.6562-4.39453 70.459-6.5918Q68.2617-8.78906 68.2617-12.0605L68.2617-27.4902L52.832-27.4902Q49.5117-27.4902 47.3389-29.6875Q45.166-31.8848 45.166-35.2539Z"/>
  </g>
  <g id="Bold-L" transform="matrix(1 0 0 1 2265.1 1556)">
   <path d="M125.781-86.084Q122.559-89.2578 118.53-90.9912Q114.502-92.7246 109.497-93.4082Q104.492-94.0918 98.2422-94.0918L51.3672-94.0918Q42.1875-94.0918 35.498-92.4805Q28.8086-90.8691 24.0234-86.0352Q19.1895-81.2988 17.627-74.6582Q16.0645-68.0176 16.0645-58.7891L16.0645-11.9141Q16.0645-5.66406 16.7236-0.610352Q17.3828 4.44336 19.0918 8.42285Q20.8008 12.4023 23.9746 15.5762Q27.2461 18.7988 31.25 20.5078Q35.2539 22.2168 40.2832 22.9004Q45.3125 23.584 51.5625 23.584L98.2422 23.584Q104.492 23.584 109.521 22.9004Q114.551 22.2168 118.579 20.5078Q122.607 18.7988 125.781 15.5762Q128.955 12.4023 130.688 8.39844Q132.422 4.39453 133.057-0.634766Q133.691-5.66406 133.691-11.9141L133.691-58.5938Q133.691-64.8438 133.057-69.873Q132.422-74.9023 130.688-78.9062Q128.955-82.9102 125.781-86.084ZM44.3359-35.2051Q44.3359-38.1836 46.2158-40.0879Q48.0957-41.9922 51.0254-41.9922L68.2617-41.9922L68.2617-59.2285Q68.2617-62.1094 70.1416-64.0137Q72.0215-65.918 74.9023-65.918Q77.832-65.918 79.7607-64.0137Q81.6895-62.1094 81.6895-59.2285L81.6895-41.9922L98.9258-41.9922Q101.807-41.9922 103.687-40.0879Q105.566-38.1836 105.566-35.2051Q105.566-32.3242 103.687-30.4443Q101.807-28.5645 98.9258-28.5645L81.6895-28.5645L81.6895-11.2793Q81.6895-8.44727 79.7607-6.56738Q77.832-4.6875 74.9023-4.6875Q72.0215-4.6875 70.1416-6.56738Q68.2617-8.44727 68.2617-11.2793L68.2617-28.5645L51.0254-28.5645Q48.1445-28.5645 46.2402-30.4443Q44.3359-32.3242 44.3359-35.2051Z"/>
  </g>
  <g id="Semibold-L" transform="matrix(1 0 0 1 1969.16 1556)">
   <path d="M124.512-85.5469Q121.338-88.7207 117.383-90.3809Q113.428-92.041 108.545-92.6758Q103.662-93.3105 97.6074-93.3105L50.3418-93.3105Q41.5527-93.3105 34.9854-91.7725Q28.418-90.2344 23.7305-85.5469Q18.9941-80.8594 17.5293-74.3408Q16.0645-67.8223 16.0645-58.9844L16.0645-11.7188Q16.0645-5.71289 16.6748-0.805664Q17.2852 4.10156 18.9209 8.03223Q20.5566 11.9629 23.6816 15.0879Q26.8555 18.2129 30.8105 19.873Q34.7656 21.5332 39.6729 22.168Q44.5801 22.8027 50.5859 22.8027L97.6074 22.8027Q103.662 22.8027 108.545 22.168Q113.428 21.5332 117.407 19.873Q121.387 18.2129 124.512 15.0879Q127.637 11.9629 129.272 8.03223Q130.908 4.10156 131.519-0.805664Q132.129-5.71289 132.129-11.7188L132.129-58.7891Q132.129-64.7949 131.519-69.7021Q130.908-74.6094 129.272-78.54Q127.637-82.4707 124.512-85.5469ZM43.75-35.2051Q43.75-37.8418 45.4346-39.5508Q47.1191-41.2598 49.707-41.2598L68.2129-41.2598L68.2129-59.7656Q68.2129-62.3047 69.873-64.0137Q71.5332-65.7227 74.1211-65.7227Q76.709-65.7227 78.418-64.0137Q80.127-62.3047 80.127-59.7656L80.127-41.2598L98.6328-41.2598Q101.221-41.2598 102.905-39.5508Q104.59-37.8418 104.59-35.2051Q104.59-32.666 102.905-31.0059Q101.221-29.3457 98.6328-29.3457L80.127-29.3457L80.127-10.791Q80.127-8.20312 78.418-6.54297Q76.709-4.88281 74.1211-4.88281Q71.5332-4.88281 69.873-6.56738Q68.2129-8.25195 68.2129-10.791L68.2129-29.3457L49.707-29.3457Q47.1191-29.3457 45.4346-31.0059Q43.75-32.666 43.75-35.2051Z"/>
  </g>
  <g id="Medium-L" transform="matrix(1 0 0 1 1673.04 1556)">
   <path d="M123.584-85.2051Q120.41-88.2812 116.528-89.917Q112.646-91.5527 107.837-92.1387Q103.027-92.7246 97.168-92.7246L49.6094-92.7246Q41.0645-92.7246 34.6191-91.2598Q28.1738-89.7949 23.5352-85.1562Q18.8965-80.5664 17.4805-74.1211Q16.0645-67.6758 16.0645-59.1797L16.0645-11.5723Q16.0645-5.76172 16.6504-0.952148Q17.2363 3.85742 18.7988 7.73926Q20.3613 11.6211 23.4863 14.6973Q26.6113 17.7734 30.5176 19.3848Q34.4238 20.9961 39.2334 21.6064Q44.043 22.2168 49.8535 22.2168L97.168 22.2168Q103.027 22.2168 107.837 21.6064Q112.646 20.9961 116.553 19.3848Q120.459 17.7734 123.584 14.6973Q126.611 11.6211 128.223 7.73926Q129.834 3.85742 130.396-0.952148Q130.957-5.76172 130.957-11.5723L130.957-58.8867Q130.957-64.7461 130.396-69.5557Q129.834-74.3652 128.223-78.2471Q126.611-82.1289 123.584-85.2051ZM43.3105-35.2051Q43.3105-37.5977 44.8242-39.1357Q46.3379-40.6738 48.7305-40.6738L68.2129-40.6738L68.2129-60.1562Q68.2129-62.5 69.7021-64.0381Q71.1914-65.5762 73.4863-65.5762Q75.8789-65.5762 77.417-64.0381Q78.9551-62.5 78.9551-60.1562L78.9551-40.6738L98.4375-40.6738Q100.83-40.6738 102.344-39.1357Q103.857-37.5977 103.857-35.2051Q103.857-32.9102 102.319-31.4209Q100.781-29.9316 98.4375-29.9316L78.9551-29.9316L78.9551-10.4004Q78.9551-8.05664 77.417-6.54297Q75.8789-5.0293 73.4863-5.0293Q71.1914-5.0293 69.7021-6.56738Q68.2129-8.10547 68.2129-10.4004L68.2129-29.9316L48.7305-29.9316Q46.3867-29.9316 44.8486-31.4209Q43.3105-32.9102 43.3105-35.2051Z"/>
  </g>
  <g id="Regular-L" transform="matrix(1 0 0 1 1377.09 1556)">
   <path d="M122.314-84.7168Q119.238-87.7441 115.405-89.3066Q111.572-90.8691 106.885-91.4062Q102.197-91.9434 96.582-91.9434L48.584-91.9434Q40.4785-91.9434 34.1309-90.5762Q27.7832-89.209 23.2422-84.668Q18.7012-80.1758 17.3828-73.8525Q16.0645-67.5293 16.0645-59.4238L16.0645-11.4258Q16.0645-5.81055 16.6016-1.12305Q17.1387 3.56445 18.6523 7.37305Q20.166 11.1816 23.1934 14.209Q26.2695 17.2363 30.1025 18.7744Q33.9355 20.3125 38.623 20.874Q43.3105 21.4355 48.9258 21.4355L96.582 21.4355Q102.197 21.4355 106.885 20.874Q111.572 20.3125 115.43 18.7744Q119.287 17.2363 122.314 14.209Q125.293 11.1816 126.831 7.37305Q128.369 3.56445 128.906-1.12305Q129.443-5.81055 129.443-11.4258L129.443-59.082Q129.443-64.6973 128.906-69.3848Q128.369-74.0723 126.831-77.8809Q125.293-81.6895 122.314-84.7168ZM42.7246-35.2051Q42.7246-37.3047 44.043-38.623Q45.3613-39.9414 47.4609-39.9414L68.1641-39.9414L68.1641-60.6445Q68.1641-62.6953 69.4336-64.0381Q70.7031-65.3809 72.7051-65.3809Q74.8047-65.3809 76.123-64.0381Q77.4414-62.6953 77.4414-60.6445L77.4414-39.9414L98.1445-39.9414Q100.244-39.9414 101.562-38.623Q102.881-37.3047 102.881-35.2051Q102.881-33.2031 101.538-31.9336Q100.195-30.6641 98.1445-30.6641L77.4414-30.6641L77.4414-9.91211Q77.4414-7.86133 76.123-6.54297Q74.8047-5.22461 72.7051-5.22461Q70.7031-5.22461 69.4336-6.56738Q68.1641-7.91016 68.1641-9.91211L68.1641-30.6641L47.4609-30.6641Q45.4102-30.6641 44.0674-31.9336Q42.7246-33.2031 42.7246-35.2051Z"/>
  </g>
  <g id="Light-L" transform="matrix(1 0 0 1 1081.25 1556)">
   <path d="M120.85-84.082Q118.066-86.8652 114.502-88.3789Q110.938-89.8926 106.348-90.4541Q101.758-91.0156 95.8984-91.0156L47.3633-91.0156Q39.0137-91.0156 33.0566-89.5996Q27.0996-88.1836 22.9492-84.0332Q18.7988-79.8828 17.4316-73.999Q16.0645-68.1152 16.0645-59.7168L16.0645-11.1816Q16.0645-5.27344 16.626-0.683594Q17.1875 3.90625 18.6523 7.42188Q20.1172 10.9375 22.9004 13.6719Q25.7324 16.4551 29.2725 17.9443Q32.8125 19.4336 37.4023 20.0195Q41.9922 20.6055 47.9004 20.6055L95.8984 20.6055Q101.758 20.6055 106.348 20.0195Q110.938 19.4336 114.526 17.9443Q118.115 16.4551 120.85 13.6719Q123.584 10.9375 125.073 7.39746Q126.562 3.85742 127.124-0.708008Q127.686-5.27344 127.686-11.1816L127.686-59.1797Q127.686-65.0879 127.124-69.6777Q126.562-74.2676 125.073-77.8076Q123.584-81.3477 120.85-84.082ZM42.8223-35.2051Q42.8223-36.7676 43.8232-37.793Q44.8242-38.8184 46.4355-38.8184L68.4082-38.8184L68.4082-60.8398Q68.4082-62.3535 69.3848-63.3789Q70.3613-64.4043 71.8262-64.4043Q73.4375-64.4043 74.4629-63.3789Q75.4883-62.3535 75.4883-60.8398L75.4883-38.8184L97.4609-38.8184Q99.0234-38.8184 100.049-37.793Q101.074-36.7676 101.074-35.2051Q101.074-33.7402 100.024-32.7637Q98.9746-31.7871 97.4609-31.7871L75.4883-31.7871L75.4883-9.76562Q75.4883-8.20312 74.4629-7.20215Q73.4375-6.20117 71.8262-6.20117Q70.3613-6.20117 69.3848-7.22656Q68.4082-8.25195 68.4082-9.76562L68.4082-31.7871L46.4355-31.7871Q44.873-31.7871 43.8477-32.7637Q42.8223-33.7402 42.8223-35.2051Z"/>
  </g>
  <g id="Thin-L" transform="matrix(1 0 0 1 785.69 1556)">
   <path d="M118.945-83.252Q116.504-85.6934 113.306-87.1094Q110.107-88.5254 105.664-89.1602Q101.221-89.7949 94.9707-89.7949L45.752-89.7949Q37.0117-89.7949 31.6162-88.3057Q26.2207-86.8164 22.6074-83.2031Q18.9453-79.541 17.5049-74.1943Q16.0645-68.8477 16.0645-60.1074L16.0645-10.8887Q16.0645-4.63867 16.6748-0.170898Q17.2852 4.29688 18.7012 7.44629Q20.1172 10.5957 22.5098 13.0371Q25 15.4297 28.1738 16.8457Q31.3477 18.2617 35.791 18.8965Q40.2344 19.5312 46.4844 19.5312L94.9707 19.5312Q101.221 19.5312 105.664 18.8965Q110.107 18.2617 113.306 16.8457Q116.504 15.4297 118.945 13.0371Q121.338 10.5957 122.754 7.42188Q124.17 4.24805 124.78-0.195312Q125.391-4.63867 125.391-10.8887L125.391-59.375Q125.391-65.625 124.78-70.0928Q124.17-74.5605 122.754-77.71Q121.338-80.8594 118.945-83.252ZM42.9199-35.2539Q42.9199-36.1816 43.5059-36.792Q44.0918-37.4023 45.0195-37.4023L68.6523-37.4023L68.6523-61.1328Q68.6523-61.9141 69.2627-62.5488Q69.873-63.1836 70.7031-63.1836Q71.582-63.1836 72.1924-62.5977Q72.8027-62.0117 72.8027-61.1328L72.8027-37.4023L96.5332-37.4023Q97.4121-37.4023 98.0225-36.792Q98.6328-36.1816 98.6328-35.2539Q98.6328-34.4727 97.998-33.8867Q97.3633-33.3008 96.5332-33.3008L72.8027-33.3008L72.8027-9.57031Q72.8027-8.69141 72.1924-8.10547Q71.582-7.51953 70.7031-7.51953Q69.873-7.51953 69.2627-8.1543Q68.6523-8.78906 68.6523-9.57031L68.6523-33.3008L45.0195-33.3008Q44.1406-33.3008 43.5303-33.8867Q42.9199-34.4727 42.9199-35.2539Z"/>
  </g>
  <g id="Ultralight-L" transform="matrix(1 0 0 1 489.568 1556)">
   <path d="M117.969-82.8613Q115.674-85.0586 112.695-86.4746Q109.717-87.8906 105.322-88.5254Q100.928-89.1602 94.4824-89.1602L44.9707-89.1602Q36.0352-89.1602 30.9082-87.6465Q25.7812-86.1328 22.4121-82.7637Q19.043-79.3457 17.5537-74.292Q16.0645-69.2383 16.0645-60.3027L16.0645-10.7422Q16.0645-4.24805 16.6992 0.146484Q17.334 4.54102 18.7012 7.49512Q20.0684 10.4492 22.3145 12.6465Q24.6582 14.9414 27.6367 16.3086Q30.6152 17.6758 34.9854 18.335Q39.3555 18.9941 45.8008 18.9941L94.4824 18.9941Q100.928 18.9941 105.322 18.335Q109.717 17.6758 112.72 16.3086Q115.723 14.9414 117.969 12.6465Q120.215 10.4004 121.582 7.44629Q122.949 4.49219 123.584 0.12207Q124.219-4.24805 124.219-10.7422L124.219-59.4238Q124.219-65.918 123.584-70.3125Q122.949-74.707 121.582-77.6855Q120.215-80.6641 117.969-82.8613ZM43.0176-35.2539Q43.0176-35.791 43.4082-36.2305Q43.7988-36.6699 44.3359-36.6699L68.8477-36.6699L68.8477-61.2305Q68.8477-61.7188 69.2627-62.1094Q69.6777-62.5 70.1172-62.5Q70.7031-62.5 71.1182-62.1338Q71.5332-61.7676 71.5332-61.2305L71.5332-36.6699L96.0938-36.6699Q96.6309-36.6699 97.0215-36.2305Q97.4121-35.791 97.4121-35.2539Q97.4121-34.8633 96.9971-34.4482Q96.582-34.0332 96.0938-34.0332L71.5332-34.0332L71.5332-9.47266Q71.5332-8.88672 71.1182-8.54492Q70.7031-8.20312 70.1172-8.20312Q69.6777-8.20312 69.2627-8.59375Q68.8477-8.98438 68.8477-9.47266L68.8477-34.0332L44.3359-34.0332Q43.8477-34.0332 43.4326-34.4482Q43.0176-34.8633 43.0176-35.2539Z"/>
  </g>
  <g id="Black-M" transform="matrix(1 0 0 1 2873.15 1126)">
   <path d="M101.123-75.9766Q97.168-79.8828 91.748-81.4453Q86.3281-83.0078 77.832-83.0078L42.6758-83.0078Q34.1797-83.0078 28.7354-81.4453Q23.291-79.8828 19.3848-75.9766Q15.5273-72.1191 13.9893-66.748Q12.4512-61.377 12.4512-52.7832L12.4512-17.627Q12.4512-9.0332 13.9893-3.66211Q15.5273 1.70898 19.3848 5.56641Q23.3398 9.47266 28.7598 11.0352Q34.1797 12.5977 42.6758 12.5977L77.832 12.5977Q86.3281 12.5977 91.7725 11.0352Q97.2168 9.47266 101.123 5.56641Q104.98 1.70898 106.519-3.66211Q108.057-9.0332 108.057-17.627L108.057-52.7832Q108.057-61.377 106.519-66.7725Q104.98-72.168 101.123-75.9766ZM36.2305-35.2539Q36.2305-38.3789 38.2568-40.4541Q40.2832-42.5293 43.3105-42.5293L52.9785-42.5293L52.9785-52.2461Q52.9785-55.2734 55.0781-57.2998Q57.1777-59.3262 60.2539-59.3262Q63.3789-59.3262 65.4541-57.2998Q67.5293-55.2734 67.5293-52.2461L67.5293-42.5293L77.2461-42.5293Q80.2734-42.5293 82.2998-40.4541Q84.3262-38.3789 84.3262-35.2539Q84.3262-32.1777 82.2998-30.0781Q80.2734-27.9785 77.2461-27.9785L67.5293-27.9785L67.5293-18.2617Q67.5293-15.2832 65.4541-13.2568Q63.3789-11.2305 60.2539-11.2305Q57.1777-11.2305 55.0781-13.2568Q52.9785-15.2832 52.9785-18.2617L52.9785-27.9785L43.3105-27.9785Q40.2832-27.9785 38.2568-30.0781Q36.2305-32.1777 36.2305-35.2539Z"/>
  </g>
  <g id="Heavy-M" transform="matrix(1 0 0 1 2577.23 1126)">
   <path d="M99.8047-75.4883Q95.8984-79.3457 90.5518-80.7861Q85.2051-82.2266 77.1973-82.2266L41.6504-82.2266Q33.7402-82.2266 28.3447-80.7861Q22.9492-79.3457 19.0918-75.4883Q15.2832-71.6797 13.8672-66.3574Q12.4512-61.0352 12.4512-53.0273L12.4512-17.4316Q12.4512-9.42383 13.8672-4.10156Q15.2832 1.2207 19.0918 5.0293Q22.998 8.93555 28.3691 10.3516Q33.7402 11.7676 41.6992 11.7676L77.1973 11.7676Q85.2051 11.7676 90.5762 10.3516Q95.9473 8.93555 99.8047 5.0293Q103.662 1.2207 105.054-4.10156Q106.445-9.42383 106.445-17.4316L106.445-52.9785Q106.445-61.0352 105.054-66.3818Q103.662-71.7285 99.8047-75.4883ZM35.498-35.2539Q35.498-38.0859 37.3291-39.9658Q39.1602-41.8457 41.9434-41.8457L52.9297-41.8457L52.9297-52.8809Q52.9297-55.6152 54.8096-57.4463Q56.6895-59.2773 59.4727-59.2773Q62.3047-59.2773 64.1602-57.4463Q66.0156-55.6152 66.0156-52.8809L66.0156-41.8457L77.0996-41.8457Q79.834-41.8457 81.665-39.9658Q83.4961-38.0859 83.4961-35.2539Q83.4961-32.4707 81.665-30.5908Q79.834-28.7109 77.0996-28.7109L66.0156-28.7109L66.0156-17.6758Q66.0156-14.9414 64.1602-13.1104Q62.3047-11.2793 59.4727-11.2793Q56.6895-11.2793 54.8096-13.1104Q52.9297-14.9414 52.9297-17.6758L52.9297-28.7109L41.9434-28.7109Q39.1602-28.7109 37.3291-30.5908Q35.498-32.4707 35.498-35.2539Z"/>
  </g>
  <g id="Bold-M" transform="matrix(1 0 0 1 2281.41 1126)">
   <path d="M98.3887-74.9512Q94.5312-78.8086 89.2334-80.0781Q83.9355-81.3477 76.5625-81.3477L40.5273-81.3477Q33.2031-81.3477 27.9053-80.0781Q22.6074-78.8086 18.7988-74.9512Q14.9902-71.1914 13.7207-65.9424Q12.4512-60.6934 12.4512-53.3203L12.4512-17.2852Q12.4512-9.86328 13.7207-4.58984Q14.9902 0.683594 18.7988 4.49219Q22.6562 8.30078 27.9297 9.59473Q33.2031 10.8887 40.5762 10.8887L76.5625 10.8887Q83.9355 10.8887 89.2334 9.59473Q94.5312 8.30078 98.3887 4.49219Q102.148 0.683594 103.418-4.58984Q104.688-9.86328 104.688-17.2852L104.688-53.2227Q104.688-60.6445 103.418-65.918Q102.148-71.1914 98.3887-74.9512ZM34.668-35.2051Q34.668-37.7441 36.3037-39.3799Q37.9395-41.0156 40.3809-41.0156L52.8809-41.0156L52.8809-53.5156Q52.8809-55.957 54.4922-57.5928Q56.1035-59.2285 58.5938-59.2285Q61.084-59.2285 62.7197-57.5928Q64.3555-55.957 64.3555-53.5156L64.3555-41.0156L76.9043-41.0156Q79.3457-41.0156 80.957-39.3799Q82.5684-37.7441 82.5684-35.2051Q82.5684-32.7637 80.957-31.1279Q79.3457-29.4922 76.9043-29.4922L64.3555-29.4922L64.3555-16.9922Q64.3555-14.5508 62.7197-12.9395Q61.084-11.3281 58.5938-11.3281Q56.1035-11.3281 54.4922-12.9395Q52.8809-14.5508 52.8809-16.9922L52.8809-29.4922L40.3809-29.4922Q37.9395-29.4922 36.3037-31.1279Q34.668-32.7637 34.668-35.2051Z"/>
  </g>
  <g id="Semibold-M" transform="matrix(1 0 0 1 1985.31 1126)">
   <path d="M97.3633-74.5605Q93.5547-78.3691 88.2812-79.5654Q83.0078-80.7617 76.0742-80.7617L39.7461-80.7617Q32.8613-80.7617 27.6123-79.5654Q22.3633-78.3691 18.5547-74.5605Q14.7949-70.8008 13.623-65.6006Q12.4512-60.4004 12.4512-53.4668L12.4512-17.1387Q12.4512-10.1562 13.5986-4.93164Q14.7461 0.292969 18.5547 4.05273Q22.3633 7.86133 27.6123 9.05762Q32.8613 10.2539 39.7949 10.2539L76.0742 10.2539Q83.0078 10.2539 88.2812 9.05762Q93.5547 7.86133 97.3633 4.05273Q101.123 0.292969 102.295-4.93164Q103.467-10.1562 103.467-17.1387L103.467-53.3691Q103.467-60.4004 102.295-65.625Q101.123-70.8496 97.3633-74.5605ZM34.082-35.2051Q34.082-37.5 35.5469-38.9648Q37.0117-40.4297 39.3066-40.4297L52.7832-40.4297L52.7832-53.9551Q52.7832-56.2012 54.248-57.6904Q55.7129-59.1797 57.959-59.1797Q60.2539-59.1797 61.7188-57.6904Q63.1836-56.2012 63.1836-53.9551L63.1836-40.4297L76.709-40.4297Q79.0039-40.4297 80.4688-38.9648Q81.9336-37.5 81.9336-35.2051Q81.9336-32.959 80.4443-31.5186Q78.9551-30.0781 76.709-30.0781L63.1836-30.0781L63.1836-16.5039Q63.1836-14.2578 61.7188-12.793Q60.2539-11.3281 57.959-11.3281Q55.7129-11.3281 54.248-12.793Q52.7832-14.2578 52.7832-16.5039L52.7832-30.0781L39.3066-30.0781Q37.0117-30.0781 35.5469-31.5186Q34.082-32.959 34.082-35.2051Z"/>
  </g>
  <g id="Medium-M" transform="matrix(1 0 0 1 1689.06 1126)">
   <path d="M96.582-74.3164Q92.8223-78.0762 87.5977-79.1748Q82.373-80.2734 75.7324-80.2734L39.1602-80.2734Q32.5684-80.2734 27.3682-79.1748Q22.168-78.0762 18.3594-74.3164Q14.6484-70.5566 13.5498-65.3809Q12.4512-60.2051 12.4512-53.6133L12.4512-17.041Q12.4512-10.3516 13.5254-5.15137Q14.5996 0.0488281 18.3594 3.75977Q22.168 7.56836 27.3682 8.66699Q32.5684 9.76562 39.209 9.76562L75.7324 9.76562Q82.373 9.76562 87.5977 8.66699Q92.8223 7.56836 96.582 3.75977Q100.342 0.0488281 101.44-5.15137Q102.539-10.3516 102.539-17.041L102.539-53.5156Q102.539-60.1562 101.44-65.3564Q100.342-70.5566 96.582-74.3164ZM33.6426-35.2051Q33.6426-37.3047 35.0098-38.6719Q36.377-40.0391 38.4766-40.0391L52.7344-40.0391L52.7344-54.2969Q52.7344-56.4453 54.0527-57.8125Q55.3711-59.1797 57.4707-59.1797Q59.5703-59.1797 60.9375-57.8125Q62.3047-56.4453 62.3047-54.2969L62.3047-40.0391L76.6113-40.0391Q78.7109-40.0391 80.0537-38.6719Q81.3965-37.3047 81.3965-35.2051Q81.3965-33.1543 80.0537-31.8115Q78.7109-30.4688 76.6113-30.4688L62.3047-30.4688L62.3047-16.1621Q62.3047-14.0625 60.9375-12.7197Q59.5703-11.377 57.4707-11.377Q55.3711-11.377 54.0527-12.7197Q52.7344-14.0625 52.7344-16.1621L52.7344-30.4688L38.4766-30.4688Q36.377-30.4688 35.0098-31.8115Q33.6426-33.1543 33.6426-35.2051Z"/>
  </g>
  <g id="Regular-M" transform="matrix(1 0 0 1 1392.96 1126)">
   <path d="M95.6055-73.9258Q91.8457-77.6855 86.6699-78.6865Q81.4941-79.6875 75.2441-79.6875L38.3789-79.6875Q32.2266-79.6875 27.0752-78.6865Q21.9238-77.6855 18.1641-73.9258Q14.4531-70.2148 13.4521-65.0879Q12.4512-59.9609 12.4512-53.8086L12.4512-16.8945Q12.4512-10.6445 13.4277-5.49316Q14.4043-0.341797 18.1641 3.36914Q21.9238 7.12891 27.0752 8.12988Q32.2266 9.13086 38.4766 9.13086L75.2441 9.13086Q81.4941 9.13086 86.6699 8.12988Q91.8457 7.12891 95.6055 3.36914Q99.3164-0.341797 100.317-5.49316Q101.318-10.6445 101.318-16.8945L101.318-53.6621Q101.318-59.9121 100.317-65.0635Q99.3164-70.2148 95.6055-73.9258ZM33.0566-35.2051Q33.0566-37.1094 34.2773-38.3057Q35.498-39.502 37.4023-39.502L52.6855-39.502L52.6855-54.7852Q52.6855-56.6895 53.833-57.9102Q54.9805-59.1309 56.8359-59.1309Q58.7402-59.1309 59.9365-57.9102Q61.1328-56.6895 61.1328-54.7852L61.1328-39.502L76.4648-39.502Q78.3691-39.502 79.5654-38.3057Q80.7617-37.1094 80.7617-35.2051Q80.7617-33.3496 79.541-32.2021Q78.3203-31.0547 76.4648-31.0547L61.1328-31.0547L61.1328-15.7227Q61.1328-13.8184 59.9365-12.6221Q58.7402-11.4258 56.8359-11.4258Q54.9805-11.4258 53.833-12.6221Q52.6855-13.8184 52.6855-15.7227L52.6855-31.0547L37.4023-31.0547Q35.498-31.0547 34.2773-32.2021Q33.0566-33.3496 33.0566-35.2051Z"/>
  </g>
  <g id="Light-M" transform="matrix(1 0 0 1 1097.03 1126)">
   <path d="M94.2871-73.3887Q90.8691-76.7578 86.0596-77.8076Q81.25-78.8574 74.6094-78.8574L37.2559-78.8574Q30.9082-78.8574 26.123-77.8076Q21.3379-76.7578 17.9199-73.3398Q14.5508-69.9707 13.501-65.2344Q12.4512-60.498 12.4512-54.0527L12.4512-16.6992Q12.4512-10.0586 13.4766-5.24902Q14.502-0.439453 17.8711 2.88086Q21.3379 6.29883 26.123 7.34863Q30.9082 8.39844 37.5488 8.39844L74.6094 8.39844Q81.25 8.39844 86.084 7.34863Q90.918 6.29883 94.2871 2.88086Q97.7051-0.439453 98.7305-5.24902Q99.7559-10.0586 99.7559-16.6992L99.7559-53.7598Q99.7559-60.4004 98.7305-65.21Q97.7051-70.0195 94.2871-73.3887ZM33.1543-35.2051Q33.1543-36.6699 34.082-37.5977Q35.0098-38.5254 36.4746-38.5254L52.8809-38.5254L52.8809-54.9316Q52.8809-56.3965 53.7842-57.3242Q54.6875-58.252 56.0547-58.252Q57.5195-58.252 58.4473-57.3242Q59.375-56.3965 59.375-54.9316L59.375-38.5254L75.8301-38.5254Q77.2949-38.5254 78.2227-37.5977Q79.1504-36.6699 79.1504-35.2051Q79.1504-33.8379 78.1982-32.9346Q77.2461-32.0312 75.8301-32.0312L59.375-32.0312L59.375-15.5762Q59.375-14.1113 58.4473-13.208Q57.5195-12.3047 56.0547-12.3047Q54.6875-12.3047 53.7842-13.2324Q52.8809-14.1602 52.8809-15.5762L52.8809-32.0312L36.4746-32.0312Q35.0586-32.0312 34.1064-32.9346Q33.1543-33.8379 33.1543-35.2051Z"/>
  </g>
  <g id="Thin-M" transform="matrix(1 0 0 1 801.348 1126)">
   <path d="M92.5781-72.6074Q89.6484-75.5859 85.2783-76.6846Q80.9082-77.7832 73.7793-77.7832L35.791-77.7832Q29.1504-77.7832 24.8291-76.6357Q20.5078-75.4883 17.5781-72.6074Q14.6484-69.6289 13.5498-65.3809Q12.4512-61.1328 12.4512-54.3945L12.4512-16.4551Q12.4512-9.22852 13.5254-4.90723Q14.5996-0.585938 17.5293 2.29492Q20.5078 5.22461 24.8535 6.32324Q29.1992 7.42188 36.3281 7.42188L73.7793 7.42188Q80.9082 7.42188 85.2783 6.32324Q89.6484 5.22461 92.5781 2.29492Q95.5078-0.634766 96.6064-4.93164Q97.7051-9.22852 97.7051-16.4551L97.7051-53.9062Q97.7051-61.084 96.6064-65.4297Q95.5078-69.7754 92.5781-72.6074ZM33.252-35.2539Q33.252-36.084 33.8135-36.6455Q34.375-37.207 35.2051-37.207L53.1738-37.207L53.1738-55.2246Q53.1738-56.0547 53.7109-56.6162Q54.248-57.1777 55.0293-57.1777Q55.8594-57.1777 56.4453-56.6162Q57.0312-56.0547 57.0312-55.2246L57.0312-37.207L75-37.207Q75.8789-37.207 76.416-36.6455Q76.9531-36.084 76.9531-35.2539Q76.9531-34.4727 76.3916-33.9355Q75.8301-33.3984 75-33.3984L57.0312-33.3984L57.0312-15.4297Q57.0312-14.5508 56.4453-14.0137Q55.8594-13.4766 55.0293-13.4766Q54.248-13.4766 53.7109-14.0381Q53.1738-14.5996 53.1738-15.4297L53.1738-33.3984L35.2051-33.3984Q34.375-33.3984 33.8135-33.9355Q33.252-34.4727 33.252-35.2539Z"/>
  </g>
  <g id="Ultralight-M" transform="matrix(1 0 0 1 505.165 1126)">
   <path d="M91.6992-72.2656Q88.9648-74.9512 84.8633-76.0986Q80.7617-77.2461 73.3887-77.2461L35.0586-77.2461Q28.2227-77.2461 24.1699-76.0498Q20.1172-74.8535 17.4316-72.2168Q14.7461-69.4824 13.5986-65.5029Q12.4512-61.5234 12.4512-54.5898L12.4512-16.3086Q12.4512-8.83789 13.5742-4.76074Q14.6973-0.683594 17.334 1.95312Q20.1172 4.6875 24.2188 5.81055Q28.3203 6.93359 35.6934 6.93359L73.3887 6.93359Q80.7617 6.93359 84.8877 5.81055Q89.0137 4.6875 91.6992 1.95312Q94.4336-0.683594 95.5322-4.76074Q96.6309-8.83789 96.6309-16.3086L96.6309-54.0039Q96.6309-61.4258 95.5322-65.5273Q94.4336-69.6289 91.6992-72.2656ZM33.3008-35.2539Q33.3008-35.791 33.667-36.1816Q34.0332-36.5723 34.5703-36.5723L53.2715-36.5723L53.2715-55.3223Q53.2715-55.8105 53.6621-56.2012Q54.0527-56.5918 54.4922-56.5918Q55.0293-56.5918 55.4443-56.2256Q55.8594-55.8594 55.8594-55.3223L55.8594-36.5723L74.5605-36.5723Q75.0977-36.5723 75.4639-36.1816Q75.8301-35.791 75.8301-35.2539Q75.8301-34.8145 75.4395-34.4238Q75.0488-34.0332 74.5605-34.0332L55.8594-34.0332L55.8594-15.332Q55.8594-14.7949 55.4443-14.4287Q55.0293-14.0625 54.4922-14.0625Q54.0527-14.0625 53.6621-14.4531Q53.2715-14.8438 53.2715-15.332L53.2715-34.0332L34.5703-34.0332Q34.082-34.0332 33.6914-34.4238Q33.3008-34.8145 33.3008-35.2539Z"/>
  </g>
  <g id="Black-S" transform="matrix(1 0 0 1 2885.99 696)">
   <path d="M79.541-67.2852Q76.4648-70.3125 72.2168-71.582Q67.9688-72.8516 61.1328-72.8516L33.6914-72.8516Q26.8555-72.8516 22.583-71.582Q18.3105-70.3125 15.2832-67.2852Q12.2559-64.2578 11.0107-60.0586Q9.76562-55.8594 9.76562-48.9258L9.76562-21.4844Q9.76562-14.5508 11.0107-10.3516Q12.2559-6.15234 15.2832-3.125Q18.3594-0.0976562 22.6074 1.17188Q26.8555 2.44141 33.6914 2.44141L61.1328 2.44141Q67.9688 2.44141 72.2412 1.17188Q76.5137-0.0976562 79.541-3.125Q82.5684-6.15234 83.8135-10.3516Q85.0586-14.5508 85.0586-21.4844L85.0586-48.9258Q85.0586-55.8594 83.8135-60.083Q82.5684-64.3066 79.541-67.2852ZM28.6133-35.2539Q28.6133-37.7441 30.249-39.4287Q31.8848-41.1133 34.2773-41.1133L41.5527-41.1133L41.5527-48.3887Q41.5527-50.8301 43.2373-52.4414Q44.9219-54.0527 47.4121-54.0527Q49.9023-54.0527 51.5869-52.4414Q53.2715-50.8301 53.2715-48.3887L53.2715-41.1133L60.5469-41.1133Q62.9883-41.1133 64.5996-39.4287Q66.2109-37.7441 66.2109-35.2539Q66.2109-32.7637 64.5996-31.0791Q62.9883-29.3945 60.5469-29.3945L53.2715-29.3945L53.2715-22.1191Q53.2715-19.7266 51.5869-18.0908Q49.9023-16.4551 47.4121-16.4551Q44.9219-16.4551 43.2373-18.0908Q41.5527-19.7266 41.5527-22.1191L41.5527-29.3945L34.2773-29.3945Q31.8848-29.3945 30.249-31.0791Q28.6133-32.7637 28.6133-35.2539Z"/>
  </g>
  <g id="Heavy-S" transform="matrix(1 0 0 1 2589.86 696)">
   <path d="M78.6133-66.9434Q75.4883-69.9707 71.2646-71.1182Q67.041-72.2656 60.6934-72.2656L32.959-72.2656Q26.6602-72.2656 22.3877-71.1182Q18.1152-69.9707 15.0879-66.9434Q12.0117-63.916 10.8887-59.7168Q9.76562-55.5176 9.76562-49.1211L9.76562-21.3379Q9.76562-14.9414 10.8887-10.7422Q12.0117-6.54297 15.0879-3.51562Q18.1641-0.488281 22.4121 0.683594Q26.6602 1.85547 32.959 1.85547L60.6934 1.85547Q67.041 1.85547 71.2891 0.683594Q75.5371-0.488281 78.6133-3.51562Q81.6406-6.54297 82.7637-10.7422Q83.8867-14.9414 83.8867-21.3379L83.8867-49.0723Q83.8867-55.5176 82.7637-59.7168Q81.6406-63.916 78.6133-66.9434ZM27.9785-35.2539Q27.9785-37.5488 29.4922-39.0869Q31.0059-40.625 33.252-40.625L41.4551-40.625L41.4551-48.877Q41.4551-51.1719 42.9932-52.6611Q44.5312-54.1504 46.8262-54.1504Q49.1699-54.1504 50.708-52.6611Q52.2461-51.1719 52.2461-48.877L52.2461-40.625L60.498-40.625Q62.7441-40.625 64.2334-39.0869Q65.7227-37.5488 65.7227-35.2539Q65.7227-32.959 64.2334-31.4209Q62.7441-29.8828 60.498-29.8828L52.2461-29.8828L52.2461-21.6309Q52.2461-19.3848 50.708-17.8955Q49.1699-16.4062 46.8262-16.4062Q44.5312-16.4062 42.9932-17.8955Q41.4551-19.3848 41.4551-21.6309L41.4551-29.8828L33.252-29.8828Q31.0059-29.8828 29.4922-31.4209Q27.9785-32.959 27.9785-35.2539Z"/>
  </g>
  <g id="Bold-S" transform="matrix(1 0 0 1 2293.8 696)">
   <path d="M77.5391-66.5527Q74.4629-69.6289 70.2148-70.6543Q65.9668-71.6797 60.2051-71.6797L32.1777-71.6797Q26.416-71.6797 22.168-70.6543Q17.9199-69.6289 14.8438-66.5527Q11.7676-63.5254 10.7666-59.3262Q9.76562-55.127 9.76562-49.3164L9.76562-21.2402Q9.76562-15.4297 10.7666-11.2305Q11.7676-7.03125 14.8438-3.95508Q17.9199-0.878906 22.168 0.146484Q26.416 1.17188 32.1777 1.17188L60.2051 1.17188Q65.9668 1.17188 70.2393 0.146484Q74.5117-0.878906 77.5391-3.95508Q80.6152-7.03125 81.6162-11.2305Q82.6172-15.4297 82.6172-21.2402L82.6172-49.2676Q82.6172-55.127 81.6162-59.3262Q80.6152-63.5254 77.5391-66.5527ZM27.2461-35.2051Q27.2461-37.3047 28.6133-38.6963Q29.9805-40.0879 32.0312-40.0879L41.3574-40.0879L41.3574-49.4141Q41.3574-51.5137 42.7246-52.8564Q44.0918-54.1992 46.1914-54.1992Q48.291-54.1992 49.6582-52.8564Q51.0254-51.5137 51.0254-49.4141L51.0254-40.0879L60.4004-40.0879Q62.4512-40.0879 63.8184-38.6963Q65.1855-37.3047 65.1855-35.2051Q65.1855-33.1543 63.8184-31.7871Q62.4512-30.4199 60.4004-30.4199L51.0254-30.4199L51.0254-21.0449Q51.0254-18.9941 49.6582-17.6514Q48.291-16.3086 46.1914-16.3086Q44.0918-16.3086 42.7246-17.6514Q41.3574-18.9941 41.3574-21.0449L41.3574-30.4199L32.0312-30.4199Q29.9805-30.4199 28.6133-31.7871Q27.2461-33.1543 27.2461-35.2051Z"/>
  </g>
  <g id="Semibold-S" transform="matrix(1 0 0 1 1997.54 696)">
   <path d="M76.8066-66.3086Q73.6816-69.3848 69.458-70.3125Q65.2344-71.2402 59.8633-71.2402L31.5918-71.2402Q26.2207-71.2402 21.9727-70.3125Q17.7246-69.3848 14.6484-66.3086Q11.5723-63.2324 10.6689-59.0332Q9.76562-54.834 9.76562-49.4141L9.76562-21.0938Q9.76562-15.7227 10.6689-11.5234Q11.5723-7.32422 14.6484-4.24805Q17.7734-1.17188 21.9971-0.219727Q26.2207 0.732422 31.5918 0.732422L59.8633 0.732422Q65.2344 0.732422 69.4824-0.219727Q73.7305-1.17188 76.8066-4.24805Q79.8828-7.32422 80.7861-11.5234Q81.6895-15.7227 81.6895-21.0938L81.6895-49.4141Q81.6895-54.834 80.7861-59.0332Q79.8828-63.2324 76.8066-66.3086ZM26.709-35.2051Q26.709-37.1582 27.9541-38.4277Q29.1992-39.6973 31.1523-39.6973L41.2598-39.6973L41.2598-49.8047Q41.2598-51.7578 42.5049-53.0029Q43.75-54.248 45.6543-54.248Q47.6562-54.248 48.9014-53.0029Q50.1465-51.7578 50.1465-49.8047L50.1465-39.6973L60.3027-39.6973Q62.207-39.6973 63.4766-38.4277Q64.7461-37.1582 64.7461-35.2051Q64.7461-33.3008 63.4766-32.0312Q62.207-30.7617 60.3027-30.7617L50.1465-30.7617L50.1465-20.6543Q50.1465-18.75 48.9014-17.5049Q47.6562-16.2598 45.6543-16.2598Q43.75-16.2598 42.5049-17.5049Q41.2598-18.75 41.2598-20.6543L41.2598-30.7617L31.1523-30.7617Q29.1992-30.7617 27.9541-32.0312Q26.709-33.3008 26.709-35.2051Z"/>
  </g>
  <g id="Medium-S" transform="matrix(1 0 0 1 1701.17 696)">
   <path d="M76.2695-66.0645Q73.1445-69.1895 68.9209-70.0439Q64.6973-70.8984 59.6191-70.8984L31.1523-70.8984Q26.0742-70.8984 21.8506-70.0439Q17.627-69.1895 14.502-66.0645Q11.4746-63.0371 10.6201-58.8379Q9.76562-54.6387 9.76562-49.5117L9.76562-21.0449Q9.76562-15.9668 10.6201-11.7676Q11.4746-7.56836 14.502-4.44336Q17.627-1.36719 21.8506-0.512695Q26.0742 0.341797 31.1523 0.341797L59.6191 0.341797Q64.6973 0.341797 68.9453-0.512695Q73.1934-1.36719 76.2695-4.44336Q79.3457-7.56836 80.1758-11.7676Q81.0059-15.9668 81.0059-21.0449L81.0059-49.4629Q81.0059-54.6387 80.1758-58.8379Q79.3457-63.0371 76.2695-66.0645ZM26.3184-35.2051Q26.3184-37.0605 27.4902-38.2324Q28.6621-39.4043 30.5176-39.4043L41.1621-39.4043L41.1621-50.0977Q41.1621-51.9531 42.334-53.125Q43.5059-54.2969 45.3125-54.2969Q47.2168-54.2969 48.3643-53.125Q49.5117-51.9531 49.5117-50.0977L49.5117-39.4043L60.2539-39.4043Q62.0605-39.4043 63.2568-38.2324Q64.4531-37.0605 64.4531-35.2051Q64.4531-33.3984 63.2568-32.2266Q62.0605-31.0547 60.2539-31.0547L49.5117-31.0547L49.5117-20.4102Q49.5117-18.5547 48.3643-17.3828Q47.2168-16.2109 45.3125-16.2109Q43.5059-16.2109 42.334-17.3828Q41.1621-18.5547 41.1621-20.4102L41.1621-31.0547L30.5176-31.0547Q28.6621-31.0547 27.4902-32.2266Q26.3184-33.3984 26.3184-35.2051Z"/>
  </g>
  <g id="Regular-S" transform="matrix(1 0 0 1 1404.9 696)">
   <path d="M75.5371-65.8203Q72.4121-68.9453 68.1885-69.7021Q63.9648-70.459 59.2773-70.459L30.6152-70.459Q25.9277-70.459 21.7041-69.7021Q17.4805-68.9453 14.3555-65.8203Q11.2793-62.7441 10.5225-58.5449Q9.76562-54.3457 9.76562-49.6582L9.76562-20.9473Q9.76562-16.2598 10.5225-12.0605Q11.2793-7.86133 14.3555-4.73633Q17.4805-1.66016 21.7041-0.878906Q25.9277-0.0976562 30.6152-0.0976562L59.2773-0.0976562Q63.9648-0.0976562 68.2129-0.878906Q72.4609-1.66016 75.5371-4.73633Q78.6133-7.86133 79.3701-12.0605Q80.127-16.2598 80.127-20.9473L80.127-49.6094Q80.127-54.3457 79.3701-58.5449Q78.6133-62.7441 75.5371-65.8203ZM25.8301-35.2051Q25.8301-36.9141 26.9043-37.9883Q27.9785-39.0625 29.7363-39.0625L41.1133-39.0625L41.1133-50.4883Q41.1133-52.1973 42.1631-53.2715Q43.2129-54.3457 44.873-54.3457Q46.6309-54.3457 47.6807-53.2715Q48.7305-52.1973 48.7305-50.4883L48.7305-39.0625L60.2051-39.0625Q61.8652-39.0625 62.9639-37.9883Q64.0625-36.9141 64.0625-35.2051Q64.0625-33.5449 62.9639-32.4951Q61.8652-31.4453 60.2051-31.4453L48.7305-31.4453L48.7305-20.0195Q48.7305-18.3105 47.6807-17.2363Q46.6309-16.1621 44.873-16.1621Q43.2129-16.1621 42.1631-17.2363Q41.1133-18.3105 41.1133-20.0195L41.1133-31.4453L29.7363-31.4453Q27.9785-31.4453 26.9043-32.4951Q25.8301-33.5449 25.8301-35.2051Z"/>
  </g>
  <g id="Light-S" transform="matrix(1 0 0 1 1108.88 696)">
   <path d="M74.3652-65.332Q71.582-68.1152 67.6758-68.9209Q63.7695-69.7266 58.7402-69.7266L29.6387-69.7266Q24.7559-69.7266 20.8496-68.9209Q16.9434-68.1152 14.1602-65.2832Q11.377-62.5488 10.5713-58.667Q9.76562-54.7852 9.76562-49.9023L9.76562-20.8008Q9.76562-15.7227 10.5713-11.8408Q11.377-7.95898 14.1113-5.17578Q16.9434-2.39258 20.8496-1.5625Q24.7559-0.732422 29.7852-0.732422L58.7402-0.732422Q63.7695-0.732422 67.7002-1.5625Q71.6309-2.39258 74.3652-5.17578Q77.1484-7.95898 77.9541-11.8408Q78.7598-15.7227 78.7598-20.8008L78.7598-49.707Q78.7598-54.7852 77.9541-58.667Q77.1484-62.5488 74.3652-65.332ZM25.9277-35.2051Q25.9277-36.5234 26.7578-37.3535Q27.5879-38.1836 28.9062-38.1836L41.3086-38.1836L41.3086-50.6348Q41.3086-51.9043 42.1387-52.7588Q42.9688-53.6133 44.2383-53.6133Q45.5566-53.6133 46.3867-52.7832Q47.2168-51.9531 47.2168-50.6348L47.2168-38.1836L59.668-38.1836Q60.9375-38.1836 61.792-37.3535Q62.6465-36.5234 62.6465-35.2051Q62.6465-33.9355 61.792-33.1299Q60.9375-32.3242 59.668-32.3242L47.2168-32.3242L47.2168-19.873Q47.2168-18.5547 46.3867-17.7246Q45.5566-16.8945 44.2383-16.8945Q42.9688-16.8945 42.1387-17.749Q41.3086-18.6035 41.3086-19.873L41.3086-32.3242L28.9062-32.3242Q27.5879-32.3242 26.7578-33.1299Q25.9277-33.9355 25.9277-35.2051Z"/>
  </g>
  <g id="Thin-S" transform="matrix(1 0 0 1 813.075 696)">
   <path d="M72.8516-64.6484Q70.459-67.041 66.9678-67.8955Q63.4766-68.75 57.959-68.75L28.3691-68.75Q23.1934-68.75 19.7266-67.8711Q16.2598-66.9922 13.8672-64.6484Q11.4746-62.2559 10.6201-58.8379Q9.76562-55.4199 9.76562-50.1953L9.76562-20.5566Q9.76562-15.0391 10.6201-11.5479Q11.4746-8.05664 13.8184-5.71289Q16.2109-3.36914 19.7266-2.49023Q23.2422-1.61133 28.7109-1.61133L57.959-1.61133Q63.4766-1.61133 66.9922-2.49023Q70.5078-3.36914 72.8516-5.71289Q75.2441-8.10547 76.0742-11.5723Q76.9043-15.0391 76.9043-20.5566L76.9043-49.8047Q76.9043-55.3711 76.0742-58.8379Q75.2441-62.3047 72.8516-64.6484ZM26.0254-35.2539Q26.0254-36.0352 26.5137-36.5479Q27.002-37.0605 27.832-37.0605L41.6016-37.0605L41.6016-50.8301Q41.6016-51.6113 42.0898-52.124Q42.5781-52.6367 43.3105-52.6367Q44.0918-52.6367 44.6045-52.1484Q45.1172-51.6602 45.1172-50.8301L45.1172-37.0605L58.9355-37.0605Q59.7168-37.0605 60.2051-36.5479Q60.6934-36.0352 60.6934-35.2539Q60.6934-34.5215 60.1807-34.0332Q59.668-33.5449 58.9355-33.5449L45.1172-33.5449L45.1172-19.7754Q45.1172-18.9453 44.6045-18.457Q44.0918-17.9688 43.3105-17.9688Q42.5781-17.9688 42.0898-18.4814Q41.6016-18.9941 41.6016-19.7754L41.6016-33.5449L27.832-33.5449Q27.0508-33.5449 26.5381-34.0332Q26.0254-34.5215 26.0254-35.2539Z"/>
  </g>
  <g id="Ultralight-S" transform="matrix(1 0 0 1 516.831 696)">
   <path d="M72.0703-64.3066Q69.9219-66.5039 66.626-67.3828Q63.3301-68.2617 57.6172-68.2617L27.6855-68.2617Q22.3633-68.2617 19.1162-67.3584Q15.8691-66.4551 13.7207-64.2578Q11.5723-62.1094 10.6689-58.9111Q9.76562-55.7129 9.76562-50.3418L9.76562-20.459Q9.76562-14.6484 10.6445-11.4014Q11.5234-8.1543 13.6719-6.00586Q15.8691-3.85742 19.1406-2.9541Q22.4121-2.05078 28.1738-2.05078L57.6172-2.05078Q63.3301-2.05078 66.626-2.9541Q69.9219-3.85742 72.0703-6.00586Q74.2676-8.20312 75.1221-11.4258Q75.9766-14.6484 75.9766-20.459L75.9766-49.9023Q75.9766-55.6641 75.1221-58.9355Q74.2676-62.207 72.0703-64.3066ZM26.0742-35.2539Q26.0742-35.7422 26.3916-36.1084Q26.709-36.4746 27.2461-36.4746L41.6992-36.4746L41.6992-50.9277Q41.6992-51.416 42.0654-51.7822Q42.4316-52.1484 42.8711-52.1484Q43.3105-52.1484 43.7012-51.8066Q44.0918-51.4648 44.0918-50.9277L44.0918-36.4746L58.5449-36.4746Q59.082-36.4746 59.3994-36.1084Q59.7168-35.7422 59.7168-35.2539Q59.7168-34.8145 59.375-34.4727Q59.0332-34.1309 58.5449-34.1309L44.0918-34.1309L44.0918-19.6777Q44.0918-19.1406 43.7012-18.7988Q43.3105-18.457 42.8711-18.457Q42.4316-18.457 42.0654-18.8232Q41.6992-19.1895 41.6992-19.6777L41.6992-34.1309L27.2461-34.1309Q26.7578-34.1309 26.416-34.4727Q26.0742-34.8145 26.0742-35.2539Z"/>
  </g>
 </g>
</svg>
