<?xml version="1.0" encoding="UTF-8"?>
<!--Generator: Apple Native CoreSVG 149-->
<!DOCTYPE svg
PUBLIC "-//W3C//DTD SVG 1.1//EN"
       "http://www.w3.org/Graphics/SVG/1.1/DTD/svg11.dtd">
<svg version="1.1" xmlns="http://www.w3.org/2000/svg" xmlns:xlink="http://www.w3.org/1999/xlink" width="3300" height="2200">
 <!--glyph: "uni1002C2.medium", point size: 100.000000, font version: "Version 16.0d18e1", template writer version: "8"-->
 <g id="Notes">
  <rect height="2200" id="artboard" style="fill:white;opacity:1" width="3300" x="0" y="0"/>
  <line id="" style="fill:none;stroke:black;opacity:1;stroke-width:0.5;" x1="263" x2="3036" y1="292" y2="292"/>
  <text style="stroke:none;fill:black;font-family:-apple-system,&quot;SF Pro Display&quot;,&quot;SF Pro Text&quot;,Helvetica,sans-serif;font-weight:bold;" transform="matrix(1 0 0 1 263 322)">Weight/Scale Variations</text>
  <text style="stroke:none;fill:black;font-family:-apple-system,&quot;SF Pro Display&quot;,&quot;SF Pro Text&quot;,Helvetica,sans-serif;text-anchor:middle;" transform="matrix(1 0 0 1 559.711 322)">Ultralight</text>
  <text style="stroke:none;fill:black;font-family:-apple-system,&quot;SF Pro Display&quot;,&quot;SF Pro Text&quot;,Helvetica,sans-serif;text-anchor:middle;" transform="matrix(1 0 0 1 856.422 322)">Thin</text>
  <text style="stroke:none;fill:black;font-family:-apple-system,&quot;SF Pro Display&quot;,&quot;SF Pro Text&quot;,Helvetica,sans-serif;text-anchor:middle;" transform="matrix(1 0 0 1 1153.13 322)">Light</text>
  <text style="stroke:none;fill:black;font-family:-apple-system,&quot;SF Pro Display&quot;,&quot;SF Pro Text&quot;,Helvetica,sans-serif;text-anchor:middle;" transform="matrix(1 0 0 1 1449.84 322)">Regular</text>
  <text style="stroke:none;fill:black;font-family:-apple-system,&quot;SF Pro Display&quot;,&quot;SF Pro Text&quot;,Helvetica,sans-serif;text-anchor:middle;" transform="matrix(1 0 0 1 1746.56 322)">Medium</text>
  <text style="stroke:none;fill:black;font-family:-apple-system,&quot;SF Pro Display&quot;,&quot;SF Pro Text&quot;,Helvetica,sans-serif;text-anchor:middle;" transform="matrix(1 0 0 1 2043.27 322)">Semibold</text>
  <text style="stroke:none;fill:black;font-family:-apple-system,&quot;SF Pro Display&quot;,&quot;SF Pro Text&quot;,Helvetica,sans-serif;text-anchor:middle;" transform="matrix(1 0 0 1 2339.98 322)">Bold</text>
  <text style="stroke:none;fill:black;font-family:-apple-system,&quot;SF Pro Display&quot;,&quot;SF Pro Text&quot;,Helvetica,sans-serif;text-anchor:middle;" transform="matrix(1 0 0 1 2636.69 322)">Heavy</text>
  <text style="stroke:none;fill:black;font-family:-apple-system,&quot;SF Pro Display&quot;,&quot;SF Pro Text&quot;,Helvetica,sans-serif;text-anchor:middle;" transform="matrix(1 0 0 1 2933.4 322)">Black</text>
  <line id="" style="fill:none;stroke:black;opacity:1;stroke-width:0.5;" x1="263" x2="3036" y1="1903" y2="1903"/>
  <g id="" transform="matrix(1 0 0 1 263 1933)">
   <path d="M9.24805 0.830078C13.5547 0.830078 17.1387-2.74414 17.1387-7.05078C17.1387-11.3574 13.5449-14.9316 9.23828-14.9316C4.94141-14.9316 1.36719-11.3574 1.36719-7.05078C1.36719-2.74414 4.95117 0.830078 9.24805 0.830078ZM9.24805-0.654297C5.70312-0.654297 2.87109-3.49609 2.87109-7.05078C2.87109-10.6055 5.69336-13.4473 9.23828-13.4473C12.793-13.4473 15.6348-10.6055 15.6445-7.05078C15.6543-3.49609 12.8027-0.654297 9.24805-0.654297ZM6.39648-6.31836L8.50586-6.31836L8.50586-4.19922C8.50586-3.75977 8.79883-3.45703 9.22852-3.45703C9.67773-3.45703 9.9707-3.75977 9.9707-4.19922L9.9707-6.31836L12.0996-6.31836C12.5391-6.31836 12.8418-6.61133 12.8418-7.04102C12.8418-7.48047 12.5391-7.7832 12.0996-7.7832L9.9707-7.7832L9.9707-9.89258C9.9707-10.3418 9.67773-10.6445 9.22852-10.6445C8.79883-10.6445 8.50586-10.3418 8.50586-9.89258L8.50586-7.7832L6.39648-7.7832C5.94727-7.7832 5.64453-7.48047 5.64453-7.04102C5.64453-6.61133 5.94727-6.31836 6.39648-6.31836Z"/>
  </g>
  <g id="" transform="matrix(1 0 0 1 281.506 1933)">
   <path d="M11.709 2.91016C17.1582 2.91016 21.6699-1.61133 21.6699-7.05078C21.6699-12.5 17.1484-17.0117 11.6992-17.0117C6.25977-17.0117 1.74805-12.5 1.74805-7.05078C1.74805-1.61133 6.26953 2.91016 11.709 2.91016ZM11.709 1.25C7.09961 1.25 3.41797-2.44141 3.41797-7.05078C3.41797-11.6602 7.08984-15.3516 11.6992-15.3516C16.3086-15.3516 20-11.6602 20.0098-7.05078C20.0195-2.44141 16.3184 1.25 11.709 1.25ZM7.98828-6.23047L10.8789-6.23047L10.8789-3.32031C10.8789-2.83203 11.2109-2.5 11.6895-2.5C12.1777-2.5 12.5195-2.83203 12.5195-3.32031L12.5195-6.23047L15.4297-6.23047C15.918-6.23047 16.25-6.5625 16.25-7.04102C16.25-7.5293 15.918-7.87109 15.4297-7.87109L12.5195-7.87109L12.5195-10.7617C12.5195-11.2695 12.1777-11.6016 11.6895-11.6016C11.2109-11.6016 10.8789-11.2598 10.8789-10.7617L10.8789-7.87109L7.98828-7.87109C7.48047-7.87109 7.14844-7.5293 7.14844-7.04102C7.14844-6.5625 7.49023-6.23047 7.98828-6.23047Z"/>
  </g>
  <g id="" transform="matrix(1 0 0 1 304.924 1933)">
   <path d="M14.9707 5.66406C21.9336 5.66406 27.6953-0.0976562 27.6953-7.05078C27.6953-14.0137 21.9238-19.7754 14.9609-19.7754C8.00781-19.7754 2.25586-14.0137 2.25586-7.05078C2.25586-0.0976562 8.01758 5.66406 14.9707 5.66406ZM14.9707 3.84766C8.93555 3.84766 4.08203-1.01562 4.08203-7.05078C4.08203-13.0957 8.92578-17.9492 14.9609-17.9492C21.0059-17.9492 25.8594-13.0957 25.8691-7.05078C25.8789-1.01562 21.0156 3.84766 14.9707 3.84766ZM10.0586-6.14258L14.0625-6.14258L14.0625-2.12891C14.0625-1.5918 14.4336-1.2207 14.9512-1.2207C15.4883-1.2207 15.8594-1.5918 15.8594-2.12891L15.8594-6.14258L19.8828-6.14258C20.4102-6.14258 20.791-6.51367 20.791-7.03125C20.791-7.56836 20.4199-7.94922 19.8828-7.94922L15.8594-7.94922L15.8594-11.9531C15.8594-12.5098 15.4883-12.8809 14.9512-12.8809C14.4336-12.8809 14.0625-12.5 14.0625-11.9531L14.0625-7.94922L10.0586-7.94922C9.50195-7.94922 9.13086-7.56836 9.13086-7.03125C9.13086-6.51367 9.51172-6.14258 10.0586-6.14258Z"/>
  </g>
  <text style="stroke:none;fill:black;font-family:-apple-system,&quot;SF Pro Display&quot;,&quot;SF Pro Text&quot;,Helvetica,sans-serif;font-weight:bold;" transform="matrix(1 0 0 1 263 1953)">Design Variations</text>
  <text style="stroke:none;fill:black;font-family:-apple-system,&quot;SF Pro Display&quot;,&quot;SF Pro Text&quot;,Helvetica,sans-serif;" transform="matrix(1 0 0 1 263 1971)">Symbols are supported in up to nine weights and three scales.</text>
  <text style="stroke:none;fill:black;font-family:-apple-system,&quot;SF Pro Display&quot;,&quot;SF Pro Text&quot;,Helvetica,sans-serif;" transform="matrix(1 0 0 1 263 1989)">For optimal layout with text and other symbols, vertically align</text>
  <text style="stroke:none;fill:black;font-family:-apple-system,&quot;SF Pro Display&quot;,&quot;SF Pro Text&quot;,Helvetica,sans-serif;" transform="matrix(1 0 0 1 263 2007)">symbols with the adjacent text.</text>
  <line id="" style="fill:none;stroke:#00AEEF;stroke-width:0.5;opacity:1.0;" x1="776" x2="776" y1="1919" y2="1933"/>
  <g id="" transform="matrix(1 0 0 1 776 1933)">
   <path d="M3.31055 0.126953C3.82812 0.126953 4.08203-0.0683594 4.26758-0.605469L5.52734-4.0625L11.2891-4.0625L12.5488-0.605469C12.7344-0.0683594 12.9883 0.126953 13.4961 0.126953C14.0137 0.126953 14.3457-0.185547 14.3457-0.673828C14.3457-0.839844 14.3164-0.986328 14.2383-1.20117L9.6582-13.3887C9.43359-13.9941 9.0332-14.2871 8.4082-14.2871C7.80273-14.2871 7.39258-13.9941 7.17773-13.3984L2.59766-1.19141C2.51953-0.976562 2.49023-0.830078 2.49023-0.664062C2.49023-0.175781 2.80273 0.126953 3.31055 0.126953ZM6.00586-5.53711L8.37891-12.1094L8.42773-12.1094L10.8008-5.53711Z"/>
  </g>
  <line id="" style="fill:none;stroke:#00AEEF;stroke-width:0.5;opacity:1.0;" x1="792.836" x2="792.836" y1="1919" y2="1933"/>
  <text style="stroke:none;fill:black;font-family:-apple-system,&quot;SF Pro Display&quot;,&quot;SF Pro Text&quot;,Helvetica,sans-serif;font-weight:bold;" transform="matrix(1 0 0 1 776 1953)">Margins</text>
  <text style="stroke:none;fill:black;font-family:-apple-system,&quot;SF Pro Display&quot;,&quot;SF Pro Text&quot;,Helvetica,sans-serif;" transform="matrix(1 0 0 1 776 1971)">Leading and trailing margins on the left and right side of each symbol</text>
  <text style="stroke:none;fill:black;font-family:-apple-system,&quot;SF Pro Display&quot;,&quot;SF Pro Text&quot;,Helvetica,sans-serif;" transform="matrix(1 0 0 1 776 1989)">can be adjusted by modifying the x-location of the margin guidelines.</text>
  <text style="stroke:none;fill:black;font-family:-apple-system,&quot;SF Pro Display&quot;,&quot;SF Pro Text&quot;,Helvetica,sans-serif;" transform="matrix(1 0 0 1 776 2007)">Modifications are automatically applied proportionally to all</text>
  <text style="stroke:none;fill:black;font-family:-apple-system,&quot;SF Pro Display&quot;,&quot;SF Pro Text&quot;,Helvetica,sans-serif;" transform="matrix(1 0 0 1 776 2025)">scales and weights.</text>
  <g id="" transform="matrix(1 0 0 1 1289 1933)">
   <path d="M2.8418 1.86523L4.54102 3.57422C5.40039 4.44336 6.38672 4.38477 7.31445 3.35938L17.4902-7.85156C17.7539-7.76367 18.0273-7.7832 18.3398-7.8418L19.4043-8.03711L20.0684-7.36328L20.0293-6.80664C19.9902-6.30859 20.1172-5.92773 20.6055-5.44922L21.3672-4.70703C21.8457-4.22852 22.4609-4.19922 22.9297-4.66797L25.8398-7.58789C26.3086-8.05664 26.2891-8.65234 25.8105-9.13086L25.0391-9.89258C24.5605-10.3711 24.1895-10.5273 23.7109-10.4883L23.1348-10.4395L22.4902-11.0742L22.7344-12.1973C22.8613-12.7637 22.7051-13.2031 22.1191-13.7891L19.9219-15.9766C16.582-19.2969 12.1484-19.2188 9.25781-16.3281C8.83789-15.918 8.80859-15.3418 9.04297-14.9512C9.27734-14.5898 9.73633-14.3555 10.3809-14.5215C11.8457-14.8633 13.3691-14.9219 14.7949-13.9844L14.209-12.5293C14.0137-12.0508 13.9844-11.6504 14.1113-11.2891L3.04688-0.898438C2.06055 0.0195312 1.98242 0.996094 2.8418 1.86523ZM10.752-15.957C13.1836-17.7344 16.4746-17.4316 18.7012-15.2051L21.1328-12.793C21.3672-12.5586 21.4062-12.373 21.3379-12.0312L21.0156-10.5469L22.5195-9.0625L23.5059-9.12109C23.7598-9.13086 23.8379-9.11133 24.0332-8.91602L24.6094-8.33984L22.168-5.89844L21.5918-6.47461C21.3965-6.66992 21.3672-6.74805 21.377-7.01172L21.4453-7.98828L19.9512-9.47266L18.4277-9.21875C18.1055-9.15039 17.959-9.17969 17.7148-9.41406L15.7129-11.416C15.459-11.6504 15.4297-11.8164 15.5859-12.1875L16.4648-14.2773C14.9023-15.7324 12.8711-16.3574 10.8398-15.7617C10.6836-15.7227 10.625-15.8496 10.752-15.957ZM5.27344 2.30469L4.10156 1.14258C3.63281 0.683594 3.74023 0.341797 4.14062-0.0195312L14.9512-10.1953L16.416-8.71094L6.42578 2.27539C6.07422 2.67578 5.74219 2.77344 5.27344 2.30469Z"/>
  </g>
  <text style="stroke:none;fill:black;font-family:-apple-system,&quot;SF Pro Display&quot;,&quot;SF Pro Text&quot;,Helvetica,sans-serif;font-weight:bold;" transform="matrix(1 0 0 1 1289 1953)">Exporting</text>
  <text style="stroke:none;fill:black;font-family:-apple-system,&quot;SF Pro Display&quot;,&quot;SF Pro Text&quot;,Helvetica,sans-serif;" transform="matrix(1 0 0 1 1289 1971)">Symbols should be outlined when exporting to ensure the</text>
  <text style="stroke:none;fill:black;font-family:-apple-system,&quot;SF Pro Display&quot;,&quot;SF Pro Text&quot;,Helvetica,sans-serif;" transform="matrix(1 0 0 1 1289 1989)">design is preserved when submitting to Xcode.</text>
  <text id="template-version" style="stroke:none;fill:black;font-family:-apple-system,&quot;SF Pro Display&quot;,&quot;SF Pro Text&quot;,Helvetica,sans-serif;text-anchor:end;" transform="matrix(1 0 0 1 3036 1933)">Template v.2.0</text>
  <text style="stroke:none;fill:black;font-family:-apple-system,&quot;SF Pro Display&quot;,&quot;SF Pro Text&quot;,Helvetica,sans-serif;text-anchor:end;" transform="matrix(1 0 0 1 3036 1951)">Requires Xcode 12 or greater</text>
  <text style="stroke:none;fill:black;font-family:-apple-system,&quot;SF Pro Display&quot;,&quot;SF Pro Text&quot;,Helvetica,sans-serif;text-anchor:end;" transform="matrix(1 0 0 1 3036 1969)">Generated from star</text>
  <text style="stroke:none;fill:black;font-family:-apple-system,&quot;SF Pro Display&quot;,&quot;SF Pro Text&quot;,Helvetica,sans-serif;text-anchor:end;" transform="matrix(1 0 0 1 3036 1987)">Typeset at 100 points</text>
  <text style="stroke:none;fill:black;font-family:-apple-system,&quot;SF Pro Display&quot;,&quot;SF Pro Text&quot;,Helvetica,sans-serif;" transform="matrix(1 0 0 1 263 726)">Small</text>
  <text style="stroke:none;fill:black;font-family:-apple-system,&quot;SF Pro Display&quot;,&quot;SF Pro Text&quot;,Helvetica,sans-serif;" transform="matrix(1 0 0 1 263 1156)">Medium</text>
  <text style="stroke:none;fill:black;font-family:-apple-system,&quot;SF Pro Display&quot;,&quot;SF Pro Text&quot;,Helvetica,sans-serif;" transform="matrix(1 0 0 1 263 1586)">Large</text>
 </g>
 <g id="Guides">
  <g id="H-reference" style="fill:#27AAE1;stroke:none;" transform="matrix(1 0 0 1 339 696)">
   <path d="M0.976562 0L3.66211 0L12.9883-24.4629L45.752-24.4629L55.127 0L57.7637 0L30.6152-70.459L28.125-70.459ZM29.3457-67.1387L29.4434-67.1387L44.873-26.709L13.8672-26.709Z"/>
  </g>
  <line id="Baseline-S" style="fill:none;stroke:#27AAE1;opacity:1;stroke-width:0.5;" x1="263" x2="3036" y1="696" y2="696"/>
  <line id="Capline-S" style="fill:none;stroke:#27AAE1;opacity:1;stroke-width:0.5;" x1="263" x2="3036" y1="625.541" y2="625.541"/>
  <g id="H-reference" style="fill:#27AAE1;stroke:none;" transform="matrix(1 0 0 1 339 1126)">
   <path d="M0.976562 0L3.66211 0L12.9883-24.4629L45.752-24.4629L55.127 0L57.7637 0L30.6152-70.459L28.125-70.459ZM29.3457-67.1387L29.4434-67.1387L44.873-26.709L13.8672-26.709Z"/>
  </g>
  <line id="Baseline-M" style="fill:none;stroke:#27AAE1;opacity:1;stroke-width:0.5;" x1="263" x2="3036" y1="1126" y2="1126"/>
  <line id="Capline-M" style="fill:none;stroke:#27AAE1;opacity:1;stroke-width:0.5;" x1="263" x2="3036" y1="1055.54" y2="1055.54"/>
  <g id="H-reference" style="fill:#27AAE1;stroke:none;" transform="matrix(1 0 0 1 339 1556)">
   <path d="M0.976562 0L3.66211 0L12.9883-24.4629L45.752-24.4629L55.127 0L57.7637 0L30.6152-70.459L28.125-70.459ZM29.3457-67.1387L29.4434-67.1387L44.873-26.709L13.8672-26.709Z"/>
  </g>
  <line id="Baseline-L" style="fill:none;stroke:#27AAE1;opacity:1;stroke-width:0.5;" x1="263" x2="3036" y1="1556" y2="1556"/>
  <line id="Capline-L" style="fill:none;stroke:#27AAE1;opacity:1;stroke-width:0.5;" x1="263" x2="3036" y1="1485.54" y2="1485.54"/>
  <line id="left-margin" style="fill:none;stroke:#00AEEF;stroke-width:0.5;opacity:1.0;" x1="1385.66" x2="1385.66" y1="1030.79" y2="1150.12"/>
  <line id="right-margin" style="fill:none;stroke:#00AEEF;stroke-width:0.5;opacity:1.0;" x1="1514.03" x2="1514.03" y1="1030.79" y2="1150.12"/>
 </g>
 <g id="Symbols">
  <g id="Black-L" transform="matrix(1 0 0 1 2846.24 1556)">
   <path d="M41.4062 28.418C45.7031 31.6895 50.9277 30.7617 56.4941 26.6602L87.1582 4.10156L117.822 26.6602C123.438 30.7617 128.662 31.6895 132.959 28.418C137.158 25.2441 137.988 19.9219 135.84 13.623L123.633-22.3633L154.59-44.5312C160.107-48.4863 162.646-53.2227 160.889-58.3008C159.18-63.3301 154.443-65.7227 147.656-65.6738L109.766-65.332L98.2422-101.611C96.1426-108.154 92.4805-111.914 87.1582-111.914C81.8848-111.914 78.2227-108.154 76.123-101.611L64.5996-65.332L26.6113-65.6738C19.9219-65.7227 15.1855-63.3301 13.4766-58.3496C11.6699-53.2227 14.2578-48.4863 19.7754-44.5312L50.7324-22.3633L38.5254 13.623C36.377 19.9219 37.207 25.2441 41.4062 28.418ZM59.6191 3.4668C59.5215 3.36914 59.4727 3.32031 59.5703 3.02734L69.5312-22.9492C71.3867-28.125 71.3867-30.0293 66.3086-33.3008L43.0176-48.5352C42.8223-48.6328 42.7246-48.7793 42.7734-48.877C42.7734-48.9746 42.9199-49.0234 43.2129-49.0234L70.9473-47.6562C76.4648-47.5098 78.3203-48.5352 79.7363-53.8574L86.9141-80.7129C87.0117-80.957 87.0605-81.0547 87.1582-81.0547C87.3047-81.0547 87.3535-80.957 87.4512-80.7129L94.6289-53.8574C96.0449-48.5352 97.9004-47.5098 103.467-47.6562L131.25-49.0234C131.494-49.0234 131.641-48.9746 131.641-48.877C131.689-48.7793 131.592-48.6816 131.396-48.5352L108.057-33.2031C103.027-29.9805 102.979-28.125 104.834-22.9492L114.795 3.02734C114.893 3.32031 114.795 3.36914 114.746 3.4668C114.648 3.56445 114.551 3.4668 114.355 3.36914L92.7246-14.1602C88.2324-17.627 86.1328-17.627 81.6406-14.1602L60.0098 3.36914C59.8145 3.4668 59.7168 3.56445 59.6191 3.4668Z"/>
  </g>
  <g id="Heavy-L" transform="matrix(1 0 0 1 2550.75 1556)">
   <path d="M40.918 27.6855C44.7754 30.6152 49.4141 29.7852 54.4922 26.0254L85.9375 2.92969L117.383 26.0254C122.461 29.7852 127.148 30.6152 130.957 27.6855C134.717 24.8535 135.498 20.166 133.496 14.3555L121.045-22.5586L152.783-45.3125C157.812-48.9258 160.059-53.125 158.545-57.666C156.982-62.1582 152.783-64.3066 146.582-64.209L107.715-63.916L95.8984-101.123C93.9453-107.08 90.6738-110.449 85.9375-110.449C81.25-110.449 77.9297-107.08 76.0254-101.123L64.209-63.916L25.293-64.209C19.1406-64.3066 14.8926-62.1582 13.3789-57.7148C11.8164-53.125 14.0625-48.9258 19.1406-45.3125L50.8789-22.5586L38.4277 14.3555C36.4258 20.166 37.207 24.8535 40.918 27.6855ZM56.6406 6.15234C56.543 6.05469 56.4941 6.00586 56.5918 5.71289L67.2363-22.998C68.8477-27.4414 68.7012-29.3457 64.3555-32.1289L38.916-49.1211C38.7207-49.2676 38.623-49.4141 38.6719-49.5117C38.6719-49.6582 38.8184-49.707 39.1602-49.707L69.6777-48.4863C74.4629-48.3887 76.2207-49.3652 77.4414-54.0039L85.6445-83.4473C85.7422-83.7402 85.8398-83.8379 85.9375-83.8379C86.084-83.8379 86.1816-83.7402 86.2305-83.4473L94.4336-54.0039C95.7031-49.3652 97.4609-48.3887 102.295-48.4863L132.812-49.707C133.105-49.707 133.252-49.6582 133.301-49.5117C133.301-49.4141 133.252-49.3164 133.008-49.1211L107.52-32.1289C103.223-29.2969 103.076-27.4414 104.639-22.998L115.283 5.71289C115.381 6.00586 115.381 6.05469 115.283 6.15234C115.186 6.29883 115.039 6.20117 114.844 6.05469L90.8691-12.9395C87.0117-15.918 84.9121-15.918 81.0547-12.9395L57.0801 6.05469C56.8359 6.20117 56.7383 6.29883 56.6406 6.15234Z"/>
  </g>
  <g id="Bold-L" transform="matrix(1 0 0 1 2255.41 1556)">
   <path d="M40.3809 26.9043C43.7012 29.3945 47.7539 28.6621 52.2461 25.3418L84.5703 1.61133L116.895 25.3418C121.436 28.6621 125.488 29.3945 128.76 26.9043C131.982 24.4629 132.666 20.4102 130.908 15.1855L118.164-22.8027L150.732-46.1914C155.273-49.4141 157.178-53.0762 155.859-56.9336C154.541-60.791 150.928-62.6953 145.361-62.6465L105.371-62.3535L93.2129-100.537C91.5039-105.908 88.6719-108.789 84.5703-108.789C80.5176-108.789 77.6367-105.908 75.9277-100.537L63.7695-62.3535L23.7793-62.6465C18.2617-62.6953 14.5996-60.791 13.2812-56.9824C11.9629-53.0762 13.916-49.4141 18.4082-46.1914L51.0254-22.8027L38.2324 15.1855C36.4746 20.4102 37.1582 24.4629 40.3809 26.9043ZM53.2715 9.22852C53.1738 9.08203 53.1738 8.98438 53.2715 8.64258L64.6484-22.998C65.9668-26.709 65.7227-28.5645 62.207-30.8594L34.375-49.8047C34.1309-49.9512 33.9844-50.0977 34.0332-50.2441C34.1309-50.3906 34.2773-50.4395 34.6191-50.4395L68.2129-49.4629C72.168-49.3652 73.8281-50.3418 74.9023-54.1992L84.2285-86.4746C84.3262-86.8164 84.4238-86.9629 84.5703-86.9629C84.7168-86.9629 84.8145-86.8164 84.9121-86.4746L94.2383-54.1992C95.3125-50.3418 96.9727-49.3652 100.977-49.4629L134.57-50.4395C134.912-50.4395 135.059-50.3906 135.107-50.2441C135.156-50.0977 135.059-50 134.814-49.8047L106.934-30.8594C103.418-28.5156 103.174-26.709 104.492-22.998L115.869 8.64258C115.967 8.98438 115.967 9.08203 115.869 9.22852C115.771 9.32617 115.625 9.22852 115.332 9.08203L88.7695-11.5723C85.6445-14.0137 83.5449-14.0137 80.3711-11.5723L53.8086 9.08203C53.5645 9.22852 53.418 9.32617 53.2715 9.22852Z"/>
  </g>
  <g id="Semibold-L" transform="matrix(1 0 0 1 1959.65 1556)">
   <path d="M39.9902 26.3184C42.9688 28.5645 46.582 27.8809 50.6836 24.8535L83.6426 0.683594L116.553 24.8535C120.703 27.8809 124.316 28.5645 127.246 26.3184C130.127 24.1699 130.762 20.5566 129.102 15.7227L116.162-22.9492L149.365-46.7773C153.467-49.707 155.176-52.9785 154.053-56.4453C152.881-59.9121 149.609-61.5723 144.482-61.5234L103.809-61.2793L91.4062-100.146C89.7949-105.078 87.2559-107.666 83.6426-107.666C79.9805-107.666 77.4414-105.078 75.8789-100.146L63.4766-61.2793L22.7539-61.5234C17.627-61.5723 14.4043-59.9121 13.2324-56.4941C12.0605-52.9785 13.7695-49.707 17.9199-46.7773L51.123-22.9492L38.1348 15.7227C36.4746 20.5566 37.1094 24.1699 39.9902 26.3184ZM50.9766 11.2793C50.8789 11.1328 50.8789 11.084 50.9766 10.6934L62.8906-23.0469C64.0137-26.1719 63.6719-28.0273 60.6934-30.0293L31.25-50.2441C30.957-50.4395 30.8105-50.5859 30.9082-50.7324C30.957-50.9277 31.1035-50.9277 31.4941-50.9277L67.2363-50.0977C70.6055-50.0488 72.2168-51.0254 73.1445-54.2969L83.252-88.5742C83.3496-88.9648 83.4473-89.0625 83.6426-89.0625C83.7891-89.0625 83.8867-88.9648 83.9844-88.5742L94.0918-54.2969C95.0684-51.0254 96.6797-50.0488 100.049-50.0977L135.791-50.9277C136.182-50.9277 136.328-50.9277 136.377-50.7324C136.426-50.5859 136.328-50.4395 136.035-50.2441L106.543-29.9805C103.564-28.0273 103.271-26.1719 104.346-23.0469L116.26 10.6934C116.357 11.084 116.406 11.1328 116.26 11.2793C116.162 11.4258 115.967 11.3281 115.674 11.1328L87.3535-10.6445C84.668-12.7441 82.5684-12.7441 79.8828-10.6445L51.5625 11.1328C51.2695 11.3281 51.123 11.4258 50.9766 11.2793Z"/>
  </g>
  <g id="Medium-L" transform="matrix(1 0 0 1 1663.65 1556)">
   <path d="M39.7461 25.9277C42.3828 27.9297 45.6543 27.3438 49.5117 24.5117L82.9102 0L116.26 24.5117C120.166 27.3438 123.438 27.9297 126.074 25.9277C128.711 23.9746 129.297 20.7031 127.734 16.1621L114.648-23.0469L148.291-47.2168C152.148-49.9512 153.711-52.9297 152.637-56.1035C151.611-59.1797 148.633-60.7422 143.848-60.6934L102.588-60.4492L89.9902-99.8535C88.5254-104.443 86.1816-106.787 82.9102-106.787C79.6387-106.787 77.2949-104.443 75.8301-99.8535L63.2324-60.4492L21.9238-60.6934C17.1875-60.7422 14.209-59.1797 13.1836-56.1035C12.1094-52.9297 13.6719-49.9512 17.5293-47.2168L51.1719-23.0469L38.0371 16.1621C36.5234 20.7031 37.1094 23.9746 39.7461 25.9277ZM49.2188 12.8906C49.1211 12.7441 49.1699 12.6465 49.2676 12.2559L61.5234-23.0469C62.5-25.7812 62.1582-27.6367 59.5703-29.3457L28.8574-50.5859C28.5645-50.8301 28.418-50.9766 28.4668-51.123C28.5645-51.3184 28.7109-51.3184 29.1016-51.3184L66.4551-50.5859C69.3848-50.5371 70.9473-51.5137 71.8262-54.3945L82.5195-90.1855C82.6172-90.5762 82.7148-90.7227 82.9102-90.7227C83.1055-90.7227 83.2031-90.5762 83.3008-90.1855L93.9941-54.3945C94.873-51.5137 96.4355-50.5371 99.3652-50.5859L136.719-51.3184C137.109-51.3184 137.256-51.3184 137.354-51.123C137.402-50.9766 137.305-50.8301 136.963-50.5859L106.25-29.3457C103.711-27.6367 103.32-25.7812 104.297-23.0469L116.553 12.2559C116.65 12.6465 116.699 12.7441 116.602 12.8906C116.455 13.0371 116.26 12.9395 115.967 12.7441L86.2793-9.96094C83.9355-11.7188 81.8848-11.7188 79.541-9.96094L49.8535 12.7441C49.5605 12.9395 49.3652 13.0371 49.2188 12.8906Z"/>
  </g>
  <g id="Regular-L" transform="matrix(1 0 0 1 1367.86 1556)">
   <path d="M39.3555 25.3906C41.6504 27.0996 44.5312 26.5625 47.998 24.0234L81.9824-0.878906L115.918 24.0234C119.434 26.5625 122.266 27.0996 124.609 25.3906C126.855 23.6816 127.393 20.8496 125.977 16.748L112.646-23.1934L146.875-47.8027C150.391-50.293 151.709-52.8809 150.83-55.6152C149.951-58.3008 147.363-59.668 143.018-59.6191L100.977-59.375L88.1836-99.5117C86.8164-103.613 84.8145-105.664 81.9824-105.664C79.1016-105.664 77.0996-103.613 75.7812-99.5117L62.9395-59.375L20.8984-59.6191C16.5527-59.668 14.0137-58.3008 13.1348-55.6152C12.207-52.8809 13.5742-50.293 17.041-47.8027L51.2695-23.1934L37.9395 16.748C36.5723 20.8496 37.1094 23.6816 39.3555 25.3906ZM46.9727 14.9414C46.8262 14.7949 46.875 14.6973 46.9727 14.3066L59.7656-23.0469C60.5469-25.293 60.1074-27.0996 58.1055-28.4668L25.7324-51.0742C25.3906-51.2695 25.2441-51.416 25.3418-51.6113C25.4395-51.8066 25.5859-51.8066 26.0254-51.8066L65.4785-51.2695C67.8223-51.2207 69.3359-52.1973 70.0684-54.4922L81.543-92.2363C81.6895-92.6758 81.7871-92.8223 81.9824-92.8223C82.1777-92.8223 82.2754-92.6758 82.373-92.2363L93.8477-54.4922C94.5801-52.1973 96.0938-51.2207 98.4375-51.2695L137.939-51.8066C138.33-51.8066 138.525-51.8066 138.574-51.6113C138.672-51.416 138.525-51.2695 138.184-51.0742L105.859-28.4668C103.809-27.0996 103.369-25.293 104.15-23.0469L116.943 14.3066C117.041 14.6973 117.139 14.7949 116.992 14.9414C116.846 15.1367 116.65 14.9902 116.309 14.7949L84.8633-9.0332C83.0078-10.4492 80.9082-10.4492 79.1016-9.0332L47.6074 14.7949C47.3145 14.9902 47.1191 15.1367 46.9727 14.9414Z"/>
  </g>
  <g id="Light-L" transform="matrix(1 0 0 1 1072.27 1556)">
   <path d="M38.9648 24.5605C40.8203 25.9277 43.1152 25.5859 46.0449 23.4863L80.8594-2.00195L115.625 23.4863C118.604 25.5859 120.898 25.9277 122.754 24.5605C124.561 23.1934 125.098 20.9473 123.926 17.4316L110.4-23.4863L145.41-48.7305C148.34-50.8301 149.316-52.9297 148.633-55.127C147.9-57.2754 145.898-58.4961 142.188-58.4473L99.1211-58.252L85.9863-99.3164C84.8145-102.832 83.1543-104.395 80.8594-104.395C78.5645-104.395 76.8555-102.832 75.7324-99.3164L62.5488-58.252L19.4824-58.4473C15.8203-58.4961 13.7695-57.2754 13.0859-55.127C12.3535-52.9297 13.3789-50.8301 16.3086-48.7305L51.3184-23.4863L37.793 17.4316C36.6211 20.9473 37.1094 23.1934 38.9648 24.5605ZM44.5312 16.8945C44.3359 16.748 44.4336 16.6016 44.5801 16.1133L57.7637-23.0469C58.3984-24.9023 58.0078-26.5625 56.25-27.7344L22.5586-51.5625C22.168-51.8066 21.9727-52.002 22.0703-52.1973C22.1191-52.4414 22.3633-52.4414 22.8516-52.4414L64.209-52.002C66.2109-52.002 67.4805-52.8809 68.1152-54.8828L80.3711-94.2871C80.5176-94.7266 80.6152-94.9707 80.8594-94.9707C81.0547-94.9707 81.2012-94.7266 81.2988-94.2871L93.5547-54.8828C94.1895-52.8809 95.5078-52.002 97.5098-52.002L138.867-52.4414C139.307-52.4414 139.551-52.4414 139.648-52.1973C139.697-52.002 139.551-51.8066 139.16-51.5625L105.469-27.7344C103.711-26.5625 103.271-24.9023 103.955-23.0469L117.139 16.1133C117.236 16.6016 117.334 16.748 117.188 16.8945C116.992 17.041 116.797 16.9434 116.406 16.6504L83.3496-8.05664C81.7383-9.27734 79.9805-9.27734 78.3691-8.05664L45.3125 16.6504C44.9219 16.9434 44.6777 17.041 44.5312 16.8945Z"/>
  </g>
  <g id="Thin-L" transform="matrix(1 0 0 1 777.052 1556)">
   <path d="M38.4277 23.4863C39.6973 24.4141 41.2598 24.3164 43.457 22.7539L79.3457-3.51562L115.283 22.7539C117.48 24.3164 119.043 24.4141 120.312 23.4863C121.582 22.5586 122.07 21.0938 121.191 18.3594L107.373-23.8281L143.408-49.9023C145.605-51.5137 146.143-53.0273 145.703-54.4922C145.215-55.957 143.896-56.9336 141.113-56.8848L96.6797-56.7871L83.0566-99.1211C82.1777-101.758 80.9082-102.686 79.3457-102.686C77.7832-102.686 76.5625-101.758 75.6836-99.1211L62.0605-56.7871L17.627-56.8848C14.7949-56.9336 13.5254-55.957 13.0371-54.4922C12.5488-53.0273 13.0859-51.5137 15.2832-49.9023L51.3672-23.8281L37.5488 18.3594C36.6699 21.0938 37.1582 22.5586 38.4277 23.4863ZM41.3086 19.4824C41.0645 19.2871 41.2109 19.0918 41.3574 18.5547L55.0781-22.998C55.6152-24.4629 55.1758-25.8301 53.8086-26.7578L18.3105-52.2461C17.8711-52.5391 17.627-52.7832 17.7246-52.9785C17.7734-53.2227 18.1152-53.2227 18.6523-53.2227L62.4512-53.0273C64.0137-53.0273 65.0391-53.7598 65.5762-55.3223L78.8086-96.9727C78.9551-97.5098 79.1504-97.8027 79.3457-97.8027C79.5898-97.8027 79.7363-97.5098 79.8828-96.9727L93.1641-55.3223C93.6523-53.7598 94.6777-53.0273 96.2891-53.0273L140.088-53.2227C140.625-53.2227 140.918-53.2227 141.016-52.9785C141.113-52.7832 140.869-52.5391 140.381-52.2461L104.932-26.7578C103.516-25.8301 103.125-24.4629 103.662-22.998L117.334 18.5547C117.48 19.0918 117.627 19.2871 117.432 19.4824C117.188 19.6289 116.943 19.4824 116.504 19.1406L81.3477-6.73828C80.0781-7.71484 78.6621-7.71484 77.3926-6.73828L42.2363 19.1406C41.748 19.4824 41.5527 19.6289 41.3086 19.4824Z"/>
  </g>
  <g id="Ultralight-L" transform="matrix(1 0 0 1 481.122 1556)">
   <path d="M38.1348 22.9492C39.1113 23.6328 40.332 23.6816 42.1387 22.3633L78.6133-4.29688L115.039 22.3633C116.895 23.6816 118.066 23.6328 119.043 22.9492C120.02 22.2168 120.508 21.1426 119.775 18.8477L105.811-24.0234L142.432-50.5371C144.238-51.8555 144.531-53.0762 144.189-54.1504C143.848-55.2734 142.92-56.1035 140.527-56.1035L95.4102-56.0547L81.543-98.9746C80.8105-101.172 79.7852-101.855 78.6133-101.855C77.3926-101.855 76.416-101.172 75.6836-98.9746L61.8164-56.0547L16.6504-56.1035C14.3066-56.1035 13.3301-55.2734 12.9883-54.1504C12.6953-53.0762 12.9395-51.8555 14.7949-50.5371L51.416-24.0234L37.4023 18.8477C36.6699 21.1426 37.1582 22.2168 38.1348 22.9492ZM39.6484 20.752C39.4043 20.6055 39.5508 20.3613 39.7461 19.7754L53.7109-22.9492C54.1504-24.2188 53.7598-25.4395 52.5391-26.2695L16.1621-52.5391C15.6738-52.8809 15.4297-53.1738 15.4785-53.418C15.5762-53.6621 15.918-53.6621 16.5039-53.6621L61.5723-53.5156C62.8906-53.5156 63.8184-54.248 64.2578-55.5664L78.0273-98.3398C78.1738-98.9258 78.3691-99.2676 78.6133-99.2676C78.8574-99.2676 79.0039-98.9258 79.1992-98.3398L92.9199-55.5664C93.4082-54.248 94.2871-53.5156 95.6055-53.5156L140.723-53.6621C141.309-53.6621 141.65-53.6621 141.699-53.418C141.797-53.1738 141.553-52.8809 141.016-52.5391L104.639-26.2695C103.467-25.4395 103.076-24.2188 103.516-22.9492L117.48 19.7754C117.627 20.3613 117.822 20.6055 117.529 20.752C117.285 20.9473 117.041 20.752 116.553 20.4102L80.3223-6.05469C79.1992-6.88477 78.0273-6.88477 76.8555-6.05469L40.6738 20.4102C40.1367 20.752 39.8926 20.9473 39.6484 20.752Z"/>
  </g>
  <g id="Black-M" transform="matrix(1 0 0 1 2864.85 1126)">
   <path d="M32.5195 14.6484C36.1816 17.4805 40.7227 16.6992 45.3613 13.2812L68.5547-3.75977L91.6992 13.2812C96.3867 16.6992 100.928 17.4805 104.639 14.6484C108.301 11.8652 109.033 7.27539 107.227 2.00195L98.0469-25.1465L121.387-41.8945C126.025-45.2148 128.174-49.3164 126.66-53.7109C125.146-58.1055 121.094-60.1562 115.43-60.1074L86.8164-59.8633L78.125-87.3047C76.3672-92.7246 73.1445-95.9473 68.5547-95.9473C63.9648-95.9473 60.791-92.7246 59.0332-87.3047L50.293-59.8633L21.6309-60.1074C16.0645-60.1562 11.9629-58.1055 10.4492-53.7598C8.88672-49.3164 11.084-45.2148 15.7227-41.8945L39.1113-25.1465L29.9316 2.00195C28.0762 7.27539 28.8574 11.8652 32.5195 14.6484ZM48.877-7.86133C48.8281-7.91016 48.7793-8.00781 48.8281-8.1543L55.8594-25.6348C57.5684-30.4688 57.7148-31.8359 52.9785-34.8633L37.0605-45.0195C36.9629-45.0684 36.8652-45.166 36.8652-45.2637C36.8652-45.3125 37.0117-45.3613 37.207-45.3613L55.957-44.0918C61.084-43.9941 62.5488-44.7266 63.7695-49.6582L68.3594-67.8711C68.457-68.0664 68.5059-68.1641 68.5547-68.1641C68.6523-68.1641 68.7012-68.0664 68.75-67.8711L73.3398-49.6582C74.6094-44.7266 76.0254-43.9941 81.2012-44.0918L100-45.3613C100.195-45.3613 100.342-45.3125 100.342-45.2637C100.293-45.166 100.244-45.1172 100.146-45.0195L84.1797-34.8145C79.4922-31.7383 79.541-30.4688 81.25-25.6348L88.3301-8.1543C88.3789-8.00781 88.3301-7.91016 88.2324-7.86133C88.1836-7.8125 88.1348-7.86133 87.9883-7.91016L73.4863-20.0195C69.2871-23.2422 67.8223-23.2422 63.6719-20.0195L49.1211-7.91016C49.0234-7.86133 48.9258-7.8125 48.877-7.86133Z"/>
  </g>
  <g id="Heavy-M" transform="matrix(1 0 0 1 2569.16 1126)">
   <path d="M32.0801 14.0625C35.4004 16.6016 39.4531 15.8691 43.7012 12.7441L67.5293-4.78516L91.3086 12.7441C95.6055 15.8691 99.6582 16.6016 102.979 14.0625C106.25 11.6211 106.934 7.51953 105.225 2.63672L95.8008-25.293L119.824-42.4805C124.072-45.5566 126.025-49.2188 124.658-53.125C123.34-57.0312 119.678-58.9355 114.453-58.8379L85.0586-58.5938L76.123-86.7676C74.5117-91.7969 71.6309-94.6777 67.5293-94.6777C63.4277-94.6777 60.5469-91.7969 58.9355-86.7676L50-58.5938L20.5566-58.8379C15.4297-58.9355 11.7676-57.0312 10.4004-53.1738C9.0332-49.2188 10.9863-45.5566 15.2344-42.4805L39.2578-25.293L29.834 2.63672C28.125 7.51953 28.8086 11.6211 32.0801 14.0625ZM46.2891-5.41992C46.1914-5.46875 46.1426-5.51758 46.2402-5.76172L53.9062-25.6836C55.3711-29.834 55.3711-31.2012 51.3672-33.7891L33.4473-45.5078C33.3008-45.6055 33.252-45.7031 33.252-45.8008C33.252-45.8984 33.3984-45.9473 33.5938-45.9473L54.9316-44.8242C59.3262-44.7266 60.6934-45.5078 61.8164-49.7559L67.334-70.3613C67.3828-70.5566 67.4316-70.6055 67.5293-70.6055C67.627-70.6055 67.6758-70.5566 67.7246-70.3613L73.2422-49.7559C74.3652-45.5078 75.7812-44.7266 80.1758-44.8242L101.514-45.9473C101.709-45.9473 101.855-45.8984 101.855-45.8008C101.855-45.7031 101.807-45.6543 101.66-45.5078L83.7402-33.7402C79.7363-31.1523 79.6875-29.834 81.1523-25.6836L88.8672-5.76172C88.916-5.51758 88.8672-5.46875 88.8184-5.41992C88.7207-5.32227 88.6719-5.41992 88.5254-5.46875L71.875-18.9453C68.3105-21.6797 66.748-21.6797 63.1836-18.9453L46.582-5.46875C46.4355-5.41992 46.3379-5.32227 46.2891-5.41992Z"/>
  </g>
  <g id="Bold-M" transform="matrix(1 0 0 1 2273.6 1126)">
   <path d="M31.6406 13.4277C34.4727 15.625 38.0371 14.9902 41.8457 12.1582L66.3574-5.85938L90.8691 12.1582C94.7266 14.9902 98.2422 15.625 101.123 13.4277C103.955 11.2793 104.541 7.71484 103.027 3.32031L93.3105-25.4395L118.066-43.1641C121.875-45.8984 123.584-49.0723 122.412-52.4902C121.289-55.8594 118.066-57.5195 113.379-57.4707L83.1055-57.2266L73.877-86.1816C72.4121-90.7227 69.9219-93.2617 66.3574-93.2617C62.8418-93.2617 60.3516-90.7227 58.8867-86.1816L49.6582-57.2266L19.3359-57.4707C14.6484-57.5195 11.4746-55.8594 10.3516-52.5391C9.13086-49.0723 10.8398-45.8984 14.6973-43.1641L39.4043-25.4395L29.7363 3.32031C28.2227 7.71484 28.8086 11.2793 31.6406 13.4277ZM43.3594-2.63672C43.2617-2.73438 43.2617-2.7832 43.3105-3.02734L51.709-25.7324C52.8809-29.1016 52.7832-30.5176 49.5117-32.6172L29.4434-46.0938C29.248-46.2402 29.1992-46.3379 29.1992-46.4355C29.248-46.5332 29.3457-46.5332 29.5898-46.5332L53.7598-45.6543C57.3242-45.5566 58.6914-46.3379 59.6191-49.8047L66.1621-73.0957C66.2109-73.291 66.2598-73.3887 66.3574-73.3887C66.4551-73.3887 66.5527-73.291 66.6016-73.0957L73.1445-49.8047C74.0723-46.3379 75.4395-45.5566 79.0527-45.6543L103.174-46.5332C103.418-46.5332 103.564-46.5332 103.564-46.4355C103.613-46.3379 103.516-46.2402 103.369-46.0938L83.2031-32.6172C80.0293-30.5176 79.8828-29.1016 81.0547-25.7324L89.4531-3.02734C89.502-2.7832 89.502-2.73438 89.4043-2.63672C89.3555-2.53906 89.2578-2.63672 89.0625-2.73438L70.0684-17.7246C67.1875-19.9707 65.5762-19.9707 62.6953-17.7246L43.7012-2.73438C43.5059-2.63672 43.4082-2.53906 43.3594-2.63672Z"/>
  </g>
  <g id="Semibold-M" transform="matrix(1 0 0 1 1977.69 1126)">
   <path d="M31.2988 12.9883C33.8867 14.9414 37.0117 14.3066 40.5762 11.7188L65.5762-6.64062L90.5762 11.7188C94.1406 14.3066 97.2656 14.9414 99.8535 12.9883C102.393 11.084 102.881 7.91016 101.514 3.80859L91.6016-25.5371L116.846-43.6523C120.361-46.1426 121.875-49.0234 120.85-52.0508C119.824-55.0781 116.992-56.543 112.646-56.4941L81.7383-56.25L72.3145-85.791C70.9961-89.9902 68.75-92.2852 65.5762-92.2852C62.4023-92.2852 60.2051-89.9902 58.8379-85.791L49.4141-56.25L18.5059-56.4941C14.1602-56.543 11.3281-55.0781 10.3027-52.0996C9.22852-49.0234 10.791-46.1426 14.3066-43.6523L39.5508-25.5371L29.6387 3.80859C28.2715 7.91016 28.7598 11.084 31.2988 12.9883ZM41.3086-0.78125C41.2598-0.878906 41.2598-0.927734 41.3086-1.17188L50.1465-25.7812C51.1719-28.5645 50.9766-30.0781 48.291-31.8359L26.6602-46.5332C26.4648-46.6309 26.3672-46.7285 26.416-46.875C26.4648-46.9727 26.5625-46.9727 26.8066-46.9727L52.9297-46.2402C55.9082-46.1426 57.2754-46.9238 58.1055-49.8535L65.332-74.9512C65.3809-75.1953 65.4785-75.293 65.5762-75.293C65.6738-75.293 65.7715-75.1953 65.8203-74.9512L73.0957-49.8535C73.877-46.9238 75.2441-46.1426 78.2227-46.2402L104.346-46.9727C104.59-46.9727 104.736-46.9727 104.785-46.875C104.785-46.7285 104.736-46.6797 104.541-46.5332L82.8613-31.7871C80.2246-30.0293 79.9805-28.5645 81.0059-25.7812L89.8438-1.17188C89.8926-0.927734 89.8926-0.878906 89.8438-0.78125C89.7461-0.634766 89.6484-0.732422 89.4531-0.830078L68.7988-16.8945C66.4062-18.7988 64.7461-18.7988 62.3535-16.8945L41.6992-0.830078C41.5039-0.732422 41.4062-0.634766 41.3086-0.78125Z"/>
  </g>
  <g id="Medium-M" transform="matrix(1 0 0 1 1681.59 1126)">
   <path d="M31.0547 12.6465C33.3984 14.4043 36.2793 13.8184 39.5996 11.4258L64.9902-7.22656L90.332 11.4258C93.6523 13.8184 96.5332 14.4043 98.877 12.6465C101.172 10.8887 101.66 8.00781 100.342 4.15039L90.332-25.6348L115.918-43.9941C119.238-46.3379 120.605-48.9746 119.678-51.709C118.75-54.4434 116.162-55.8105 112.061-55.7617L80.7129-55.5176L71.1426-85.498C69.873-89.4043 67.8711-91.5039 64.9902-91.5039C62.0605-91.5039 60.0586-89.4043 58.7891-85.498L49.2676-55.5176L17.8711-55.7617C13.7695-55.8105 11.1816-54.4434 10.2539-51.7578C9.32617-48.9746 10.7422-46.3379 14.0137-43.9941L39.5996-25.6348L29.5898 4.15039C28.2715 8.00781 28.7598 10.8887 31.0547 12.6465ZM39.7949 0.683594C39.6973 0.585938 39.6973 0.537109 39.7949 0.244141L49.0234-25.7812C49.8535-28.2227 49.6094-29.6875 47.3145-31.2012L24.5117-46.8262C24.3164-46.9727 24.2188-47.0703 24.3164-47.168C24.3652-47.3145 24.4629-47.3145 24.707-47.3145L52.3438-46.6797C54.8828-46.582 56.2012-47.4121 56.9336-49.9023L64.6973-76.3672C64.7949-76.6602 64.8438-76.7578 64.9902-76.7578C65.0879-76.7578 65.1855-76.6602 65.2344-76.3672L72.998-49.9023C73.7305-47.4121 75.0488-46.582 77.6367-46.6797L105.225-47.3145C105.518-47.3145 105.615-47.3145 105.664-47.168C105.713-47.0703 105.615-46.9727 105.42-46.8262L82.6172-31.2012C80.3711-29.6875 80.0781-28.2227 80.957-25.7812L90.1367 0.244141C90.2344 0.537109 90.2344 0.585938 90.1367 0.683594C90.0879 0.78125 89.9414 0.732422 89.7461 0.585938L67.8711-16.3086C65.8203-17.8711 64.1113-17.8711 62.0605-16.3086L40.1855 0.585938C39.9902 0.732422 39.8926 0.78125 39.7949 0.683594Z"/>
  </g>
  <g id="Regular-M" transform="matrix(1 0 0 1 1385.66 1126)">
   <path d="M30.7617 12.207C32.7637 13.7695 35.3027 13.2324 38.3301 11.0352L64.1602-7.95898L90.0391 11.0352C93.0664 13.2324 95.5566 13.7695 97.6074 12.207C99.6094 10.6934 100.049 8.20312 98.8281 4.63867L88.623-25.7324L114.697-44.4824C117.725-46.6309 118.945-48.877 118.164-51.3184C117.383-53.6621 115.088-54.834 111.328-54.7852L79.3457-54.5898L69.6289-85.1074C68.457-88.7207 66.6992-90.5273 64.1602-90.5273C61.6699-90.5273 59.9121-88.7207 58.7402-85.1074L49.0234-54.5898L17.041-54.7852C13.2812-54.834 10.9863-53.6621 10.2051-51.3184C9.375-48.877 10.6445-46.6309 13.6719-44.4824L39.7461-25.7324L29.541 4.63867C28.3203 8.20312 28.7598 10.6934 30.7617 12.207ZM37.793 2.53906C37.6953 2.44141 37.7441 2.39258 37.793 2.09961L47.5098-25.8301C48.1934-27.7344 47.8027-29.248 46.0938-30.4199L21.7773-47.2168C21.5332-47.3633 21.4844-47.4609 21.5332-47.6074C21.582-47.7539 21.6797-47.7539 21.9727-47.7539L51.5137-47.2168C53.5156-47.168 54.7852-47.998 55.4199-50L63.916-78.2715C63.9648-78.5645 64.0625-78.6621 64.1602-78.6621C64.3066-78.6621 64.4043-78.5645 64.4531-78.2715L72.9492-50C73.584-47.998 74.8535-47.168 76.8555-47.2168L106.396-47.7539C106.689-47.7539 106.787-47.7539 106.836-47.6074C106.885-47.4609 106.787-47.3633 106.592-47.2168L82.2754-30.4199C80.5664-29.248 80.1758-27.7344 80.8594-25.8301L90.5762 2.09961C90.625 2.39258 90.6738 2.44141 90.5762 2.53906C90.4785 2.68555 90.332 2.58789 90.1367 2.44141L66.6504-15.4785C65.0879-16.6992 63.2812-16.6992 61.7188-15.4785L38.2324 2.44141C38.0371 2.58789 37.8906 2.68555 37.793 2.53906Z"/>
  </g>
  <g id="Light-M" transform="matrix(1 0 0 1 1089.95 1126)">
   <path d="M30.3711 11.4746C32.0312 12.6953 34.0332 12.3535 36.5723 10.498L63.1836-8.98438L89.7949 10.498C92.2852 12.3535 94.3359 12.6953 95.9473 11.4746C97.6074 10.2539 97.998 8.25195 96.9727 5.27344L86.5723-25.9766L113.379-45.2637C115.918-47.0703 116.797-48.9258 116.162-50.8789C115.527-52.7832 113.721-53.7598 110.596-53.7598L77.6855-53.5645L67.627-84.9609C66.6504-87.9883 65.1855-89.4043 63.1836-89.4043C61.1328-89.4043 59.7168-87.9883 58.7402-84.9609L48.6816-53.5645L15.7715-53.7598C12.5977-53.7598 10.791-52.7832 10.1562-50.8789C9.52148-48.9258 10.4492-47.0703 12.9883-45.2637L39.7461-25.9766L29.3945 5.27344C28.3691 8.25195 28.7598 10.2539 30.3711 11.4746ZM35.5957 4.29688C35.498 4.15039 35.5469 4.10156 35.6445 3.75977L45.7031-25.7812C46.2402-27.3926 45.8984-28.7598 44.4336-29.7363L18.9453-47.6562C18.6523-47.8516 18.5059-47.9492 18.6035-48.1445C18.6523-48.291 18.7988-48.291 19.1406-48.291L50.3418-47.9004C52.0508-47.8516 53.1738-48.584 53.7109-50.293L62.8418-80.0781C62.9395-80.4199 63.0371-80.5664 63.1836-80.5664C63.3301-80.5664 63.4277-80.4199 63.5254-80.0781L72.6562-50.293C73.1934-48.584 74.3164-47.8516 76.0254-47.9004L107.227-48.291C107.568-48.291 107.715-48.291 107.764-48.1445C107.812-47.9492 107.715-47.8516 107.422-47.6562L81.9336-29.7363C80.4688-28.7598 80.0781-27.3926 80.6641-25.7812L90.7227 3.75977C90.8203 4.10156 90.8691 4.15039 90.7227 4.29688C90.625 4.44336 90.4785 4.3457 90.1855 4.15039L65.2832-14.5996C63.916-15.625 62.4023-15.625 61.084-14.5996L36.1816 4.15039C35.8887 4.3457 35.7422 4.44336 35.5957 4.29688Z"/>
  </g>
  <g id="Thin-M" transform="matrix(1 0 0 1 794.581 1126)">
   <path d="M29.9316 10.498C31.0059 11.3281 32.373 11.2305 34.2773 9.86328L61.8652-10.3027L89.4043 9.86328C91.3086 11.2305 92.6758 11.3281 93.7988 10.498C94.873 9.7168 95.2637 8.39844 94.5312 6.10352L83.8867-26.3184L111.621-46.3379C113.477-47.7051 113.965-49.0234 113.574-50.293C113.135-51.5625 111.963-52.3926 109.619-52.3438L75.4883-52.2949L64.9902-84.7656C64.2578-87.0117 63.2324-87.8906 61.8652-87.8906C60.498-87.8906 59.4238-87.0117 58.6914-84.7656L48.2422-52.2949L14.0625-52.3438C11.7188-52.3926 10.5469-51.5625 10.1562-50.293C9.7168-49.0234 10.2051-47.7051 12.1094-46.3379L39.8438-26.3184L29.1504 6.10352C28.418 8.39844 28.8086 9.7168 29.9316 10.498ZM32.7148 6.5918C32.5684 6.49414 32.666 6.29883 32.7637 5.9082L43.2617-25.7324C43.7012-27.002 43.4082-28.0762 42.2363-28.8574L15.1367-48.2422C14.7949-48.4863 14.6484-48.6328 14.6973-48.8281C14.7461-49.0234 14.9902-49.0234 15.3809-49.0234L48.7793-48.7793C50.0977-48.7793 50.9766-49.4141 51.416-50.7324L61.4258-82.4707C61.5723-82.9102 61.6699-83.1055 61.8652-83.1055C62.0117-83.1055 62.1582-82.9102 62.2559-82.4707L72.3145-50.7324C72.7051-49.4141 73.584-48.7793 74.9023-48.7793L108.301-49.0234C108.74-49.0234 108.936-49.0234 108.984-48.8281C109.082-48.6328 108.887-48.4863 108.545-48.2422L81.4453-28.8574C80.3223-28.0762 79.9805-27.002 80.4199-25.7324L90.918 5.9082C91.0156 6.29883 91.1133 6.49414 90.9668 6.5918C90.8203 6.73828 90.625 6.5918 90.2832 6.39648L63.4766-13.4277C62.4512-14.209 61.2793-14.209 60.2051-13.4277L33.3984 6.39648C33.0566 6.5918 32.9102 6.73828 32.7148 6.5918Z"/>
  </g>
  <g id="Ultralight-M" transform="matrix(1 0 0 1 498.554 1126)">
   <path d="M29.6875 10.0098C30.5176 10.5957 31.543 10.6445 33.0566 9.52148L61.1816-10.9863L89.2578 9.52148C90.7715 10.6445 91.7969 10.5957 92.6758 10.0098C93.5059 9.42383 93.8965 8.44727 93.2617 6.54297L82.4707-26.4648L110.693-46.875C112.207-47.998 112.5-49.0234 112.207-50C111.914-50.9766 111.084-51.6602 109.131-51.6602L74.3652-51.6113L63.6719-84.668C63.0371-86.5234 62.207-87.1094 61.1816-87.1094C60.1562-87.1094 59.2773-86.5234 58.6426-84.668L47.998-51.6113L13.2324-51.6602C11.2793-51.6602 10.4004-50.9766 10.1074-50C9.81445-49.0234 10.1074-47.998 11.6211-46.875L39.8438-26.4648L29.0527 6.54297C28.418 8.44727 28.8086 9.42383 29.6875 10.0098ZM31.25 7.76367C31.0547 7.66602 31.2012 7.4707 31.2988 7.03125L42.041-25.7324C42.4316-26.7578 42.0898-27.7344 41.1133-28.418L13.1836-48.584C12.8418-48.8281 12.6465-49.0234 12.6953-49.1699C12.7441-49.3652 12.9883-49.3652 13.4277-49.3652L47.998-49.2676C49.1211-49.2676 49.8535-49.8047 50.1953-50.9277L60.7422-83.7402C60.8398-84.1797 60.9863-84.4238 61.1816-84.4238C61.377-84.4238 61.4746-84.1797 61.6211-83.7402L72.1191-50.9277C72.4609-49.8047 73.2422-49.2676 74.3164-49.2676L108.887-49.3652C109.326-49.3652 109.57-49.3652 109.619-49.1699C109.717-49.0234 109.521-48.8281 109.131-48.584L81.2012-28.418C80.2246-27.7344 79.9316-26.7578 80.2734-25.7324L91.0156 7.03125C91.1621 7.4707 91.2598 7.66602 91.0645 7.76367C90.918 7.91016 90.7227 7.76367 90.332 7.51953L62.5977-12.8418C61.6699-13.5254 60.6934-13.5254 59.7656-12.8418L31.9824 7.51953C31.6406 7.76367 31.4453 7.91016 31.25 7.76367Z"/>
  </g>
  <g id="Black-S" transform="matrix(1 0 0 1 2879.74 696)">
   <path d="M25.4395 3.80859C28.3203 6.00586 31.8359 5.41992 35.4492 2.73438L53.6621-10.6445L71.8262 2.73438C75.4883 5.41992 79.0039 6.00586 81.8848 3.80859C84.7168 1.66016 85.3027-1.9043 83.8867-6.00586L76.6602-27.3438L95.0195-40.4785C98.6328-43.0664 100.293-46.2402 99.1211-49.6582C97.9492-53.0762 94.7754-54.6875 90.3809-54.6387L67.9199-54.4434L61.084-75.9766C59.7168-80.2246 57.2266-82.7148 53.6621-82.7148C50.0977-82.7148 47.6074-80.2246 46.2402-75.9766L39.4043-54.4434L16.8945-54.6387C12.5488-54.6875 9.375-53.0762 8.20312-49.707C6.98242-46.2402 8.69141-43.0664 12.3047-40.4785L30.6641-27.3438L23.4375-6.00586C22.0215-1.9043 22.6074 1.66016 25.4395 3.80859ZM38.1348-13.623C38.0859-13.6719 38.0371-13.7207 38.0859-13.8672L43.6523-27.7344C44.9707-31.4453 45.0684-32.5195 41.4062-34.8633L28.8086-42.9199C28.7109-42.9688 28.6621-43.0664 28.6621-43.1152C28.6621-43.1641 28.7598-43.2129 28.9062-43.2129L43.7988-42.2363C47.7539-42.1387 48.877-42.7246 49.8535-46.5332L53.5156-60.9863C53.5645-61.1328 53.6133-61.1816 53.6621-61.1816C53.7109-61.1816 53.7598-61.1328 53.8086-60.9863L57.4707-46.5332C58.4473-42.7246 59.5703-42.1387 63.5742-42.2363L78.4668-43.2129C78.6133-43.2129 78.7109-43.1641 78.7109-43.1152C78.7109-43.0664 78.6621-43.0176 78.5645-42.9199L65.918-34.8145C62.3047-32.4707 62.3535-31.4453 63.6719-27.7344L69.2383-13.8672C69.2871-13.7207 69.2383-13.6719 69.1895-13.623C69.1406-13.5742 69.0918-13.623 68.9941-13.6719L57.4707-23.2422C54.248-25.7324 53.0762-25.7324 49.8535-23.2422L38.3301-13.6719C38.2324-13.623 38.1836-13.5742 38.1348-13.623Z"/>
  </g>
  <g id="Heavy-S" transform="matrix(1 0 0 1 2583.71 696)">
   <path d="M25.1465 3.4668C27.7832 5.46875 31.0059 4.88281 34.375 2.39258L52.9785-11.2793L71.5332 2.39258C74.9512 4.88281 78.1738 5.46875 80.8105 3.4668C83.3984 1.51367 83.8867-1.75781 82.5684-5.61523L75.1953-27.4414L93.9453-40.8691C97.3145-43.2617 98.877-46.1426 97.8027-49.2676C96.7285-52.3926 93.8477-53.8574 89.7461-53.8086L66.748-53.6133L59.7656-75.5859C58.4961-79.5898 56.25-81.8848 52.9785-81.8848C49.7559-81.8848 47.4609-79.5898 46.1914-75.5859L39.209-53.6133L16.2109-53.8086C12.1094-53.8574 9.22852-52.3926 8.1543-49.3164C7.08008-46.1426 8.64258-43.2617 12.0117-40.8691L30.7617-27.4414L23.3887-5.61523C22.0703-1.75781 22.6074 1.51367 25.1465 3.4668ZM36.377-11.9141C36.3281-12.0117 36.2793-12.0117 36.3281-12.207L42.334-27.7832C43.5059-31.0059 43.5059-32.1289 40.332-34.1309L26.3672-43.2617C26.2695-43.3105 26.2207-43.4082 26.2207-43.457C26.2207-43.5547 26.3184-43.5547 26.4648-43.5547L43.1152-42.7246C46.5332-42.627 47.6562-43.2617 48.5352-46.5332L52.832-62.6465C52.8809-62.793 52.9297-62.8418 52.9785-62.8418C53.0273-62.8418 53.0762-62.793 53.125-62.6465L57.4219-46.5332C58.3008-43.2617 59.4238-42.627 62.8906-42.7246L79.541-43.5547C79.6875-43.5547 79.7852-43.5547 79.7852-43.457C79.7852-43.4082 79.7363-43.3594 79.6387-43.2617L65.625-34.082C62.5-32.0801 62.5-31.0059 63.623-27.7832L69.6289-12.207C69.6777-12.0117 69.6289-12.0117 69.5801-11.9141C69.5312-11.8652 69.4824-11.9141 69.3848-11.9629L56.3965-22.5098C53.6133-24.6582 52.3438-24.6582 49.5605-22.5098L36.6211-11.9629C36.4746-11.9141 36.4258-11.8652 36.377-11.9141Z"/>
  </g>
  <g id="Bold-S" transform="matrix(1 0 0 1 2287.76 696)">
   <path d="M24.8535 3.02734C27.1973 4.83398 30.0781 4.29688 33.1543 2.00195L52.2461-12.0117L71.2402 2.00195C74.3652 4.29688 77.2461 4.83398 79.5898 3.02734C81.8848 1.31836 82.3242-1.5625 81.1035-5.17578L73.5352-27.4902L92.7734-41.2598C95.8984-43.5059 97.2656-46.0938 96.3379-48.8281C95.4102-51.6113 92.8223-52.8809 88.9648-52.832L65.4785-52.6367L58.3008-75.1953C57.1289-78.8574 55.127-80.9082 52.2461-80.9082C49.3164-80.9082 47.3145-78.8574 46.1426-75.1953L39.0137-52.6367L15.4297-52.832C11.6699-52.8809 9.0332-51.6113 8.10547-48.877C7.12891-46.0938 8.54492-43.5059 11.6699-41.2598L30.9082-27.4902L23.3398-5.17578C22.1191-1.5625 22.5586 1.31836 24.8535 3.02734ZM34.4238-10.0586C34.375-10.1074 34.3262-10.1562 34.375-10.3027L40.8691-27.7832C41.8457-30.4688 41.748-31.6406 39.1602-33.3008L23.6328-43.6523C23.5352-43.75 23.4375-43.7988 23.4863-43.8965C23.4863-43.9453 23.584-43.9941 23.7793-43.9941L42.3828-43.2617C45.2148-43.2129 46.3379-43.7988 47.0703-46.582L52.0508-64.502C52.0996-64.6973 52.1484-64.7461 52.2461-64.7461C52.2949-64.7461 52.3438-64.6973 52.3926-64.502L57.373-46.582C58.1543-43.7988 59.2285-43.2129 62.1094-43.2617L80.7129-43.9941C80.9082-43.9941 80.957-43.9453 81.0059-43.8965C81.0059-43.7988 80.957-43.75 80.8594-43.6523L65.2832-33.3008C62.7441-31.6406 62.6465-30.4688 63.5742-27.7832L70.0684-10.3027C70.1172-10.1562 70.0684-10.1074 70.0195-10.0586C69.9707-9.96094 69.9219-10.0098 69.7754-10.1074L55.1758-21.7285C52.8809-23.4863 51.5625-23.4863 49.2676-21.7285L34.668-10.1074C34.5215-10.0098 34.4727-9.96094 34.4238-10.0586Z"/>
  </g>
  <g id="Semibold-S" transform="matrix(1 0 0 1 1991.56 696)">
   <path d="M24.6582 2.7832C26.8066 4.39453 29.3945 3.85742 32.3242 1.70898L51.709-12.5L71.0449 1.70898C73.9746 3.85742 76.6113 4.39453 78.7598 2.7832C80.8594 1.17188 81.25-1.46484 80.127-4.83398L72.4121-27.5879L91.9434-41.5527C94.873-43.6523 96.1914-45.9961 95.3125-48.5352C94.4824-51.0742 92.0898-52.2461 88.4766-52.1973L64.5508-52.002L57.2754-74.9023C56.1523-78.3691 54.3457-80.2734 51.709-80.2734C49.0723-80.2734 47.2168-78.3691 46.0938-74.9023L38.8672-52.002L14.8926-52.1973C11.3281-52.2461 8.93555-51.0742 8.05664-48.584C7.22656-45.9961 8.49609-43.6523 11.4258-41.5527L30.957-27.5879L23.291-4.83398C22.1191-1.46484 22.5586 1.17188 24.6582 2.7832ZM33.0566-8.74023C33.0078-8.83789 33.0078-8.83789 33.0566-9.0332L39.8926-27.832C40.6738-30.127 40.5273-31.3477 38.3301-32.7637L21.7773-43.9453C21.6309-44.043 21.582-44.0918 21.582-44.1895C21.6309-44.2383 21.7285-44.2871 21.875-44.2871L41.8457-43.6523C44.2871-43.5547 45.3613-44.2383 46.0449-46.582L51.5137-65.8203C51.5625-66.0156 51.6113-66.0645 51.709-66.0645C51.8066-66.0645 51.8555-66.0156 51.9043-65.8203L57.373-46.582C58.0078-44.2383 59.1309-43.5547 61.5723-43.6523L81.543-44.2871C81.7383-44.2871 81.7871-44.2383 81.8359-44.1895C81.8359-44.0918 81.7871-44.043 81.6406-43.9453L65.0391-32.7637C62.8906-31.2988 62.7441-30.127 63.5254-27.832L70.3613-9.0332C70.4102-8.83789 70.4102-8.83789 70.3613-8.74023C70.3125-8.64258 70.2148-8.69141 70.0684-8.78906L54.3457-21.1426C52.3926-22.6562 50.9766-22.6562 49.0723-21.1426L33.3496-8.78906C33.2031-8.69141 33.1055-8.64258 33.0566-8.74023Z"/>
  </g>
  <g id="Medium-S" transform="matrix(1 0 0 1 1695.26 696)">
   <path d="M24.4629 2.53906C26.4648 4.05273 28.9062 3.56445 31.7383 1.51367L51.3184-12.8906L70.8984 1.51367C73.6816 3.56445 76.123 4.05273 78.125 2.53906C80.0781 1.07422 80.4688-1.36719 79.3457-4.58984L71.582-27.6367L91.3574-41.7969C94.1406-43.75 95.3613-45.9473 94.5801-48.3398C93.75-50.6348 91.5527-51.7578 88.0859-51.709L63.8672-51.5137L56.543-74.6582C55.4688-77.9785 53.7598-79.7852 51.3184-79.7852C48.8281-79.7852 47.168-77.9785 46.0938-74.6582L38.7207-51.5137L14.502-51.709C11.084-51.7578 8.83789-50.6348 8.05664-48.3398C7.27539-45.9473 8.49609-43.75 11.2793-41.7969L31.0547-27.6367L23.291-4.58984C22.168-1.36719 22.5586 1.07422 24.4629 2.53906ZM32.0312-7.76367C31.9824-7.86133 31.9824-7.86133 32.0312-8.05664L39.1113-27.832C39.7949-29.834 39.5996-31.1035 37.7441-32.3242L20.3125-44.1406C20.166-44.2383 20.1172-44.2871 20.166-44.3848C20.2148-44.4824 20.2637-44.4824 20.459-44.4824L41.4551-43.9453C43.5547-43.8477 44.6777-44.5312 45.2637-46.6309L51.123-66.7969C51.1719-66.9922 51.2207-67.041 51.3184-67.041C51.416-67.041 51.4648-66.9922 51.5137-66.7969L57.3242-46.6309C57.959-44.5312 59.0332-43.8477 61.1816-43.9453L82.1289-44.4824C82.3242-44.4824 82.4219-44.4824 82.4707-44.3848C82.4707-44.2871 82.4219-44.2383 82.2754-44.1406L64.8926-32.3242C63.0371-31.1035 62.793-29.834 63.4766-27.832L70.6055-8.05664C70.6543-7.86133 70.6543-7.86133 70.6055-7.76367C70.5566-7.66602 70.459-7.71484 70.3125-7.8125L53.7109-20.752C52.0508-22.0215 50.5859-22.0215 48.9258-20.752L32.3242-7.8125C32.1777-7.71484 32.0801-7.66602 32.0312-7.76367Z"/>
  </g>
  <g id="Regular-S" transform="matrix(1 0 0 1 1399.06 696)">
   <path d="M24.2676 2.29492C26.0742 3.66211 28.2715 3.125 30.9082 1.2207L50.7812-13.3789L70.7031 1.2207C73.291 3.125 75.4883 3.66211 77.2949 2.29492C79.0527 0.976562 79.3945-1.26953 78.3203-4.29688L70.459-27.6855L90.5273-42.0898C93.1641-43.8965 94.2871-45.8984 93.5547-48.0469C92.8711-50.0977 90.8203-51.123 87.5977-51.0742L62.9883-50.8789L55.5176-74.4141C54.541-77.4902 53.0273-79.1016 50.7812-79.1016C48.584-79.1016 47.0703-77.4902 46.0449-74.4141L38.5742-50.8789L13.9648-51.0742C10.7422-51.123 8.74023-50.0977 8.00781-48.0469C7.32422-45.8984 8.44727-43.8965 11.0352-42.0898L31.1035-27.6855L23.2422-4.29688C22.168-1.26953 22.5098 0.976562 24.2676 2.29492ZM30.6641-6.44531C30.6152-6.54297 30.6152-6.5918 30.6641-6.78711L38.1348-27.8809C38.6719-29.4922 38.3789-30.7617 36.9141-31.7871L18.457-44.3848C18.3105-44.5312 18.2617-44.5801 18.3105-44.6777C18.3594-44.7754 18.4082-44.7754 18.6035-44.7754L40.9668-44.2871C42.6758-44.2383 43.75-44.9219 44.2871-46.6309L50.5859-68.0664C50.6348-68.2617 50.6836-68.3105 50.7812-68.3105C50.8789-68.3105 50.9277-68.2617 50.9766-68.0664L57.2754-46.6309C57.8125-44.9219 58.9355-44.2383 60.6445-44.2871L82.959-44.7754C83.1543-44.7754 83.2031-44.7754 83.252-44.6777C83.3008-44.5801 83.252-44.5312 83.1055-44.3848L64.6484-31.7871C63.1836-30.7617 62.8906-29.4922 63.4766-27.8809L70.8984-6.78711C70.9473-6.5918 70.9473-6.54297 70.8984-6.44531C70.8496-6.34766 70.752-6.44531 70.6055-6.54297L52.8809-20.166C51.5625-21.2402 50.0488-21.2402 48.6816-20.166L31.0059-6.54297C30.8594-6.44531 30.7617-6.34766 30.6641-6.44531Z"/>
  </g>
  <g id="Light-S" transform="matrix(1 0 0 1 1103.26 696)">
   <path d="M23.9258 1.61133C25.3906 2.73438 27.1484 2.39258 29.3457 0.78125L49.9023-14.3066L70.459 0.78125C72.6074 2.39258 74.3652 2.73438 75.8301 1.61133C77.2461 0.585938 77.5391-1.17188 76.709-3.75977L68.6035-27.8809L89.3555-42.7734C91.5039-44.3359 92.334-45.9473 91.7969-47.6562C91.2109-49.3164 89.6484-50.1465 86.9141-50.1465L61.5234-50L53.7598-74.2676C52.9297-76.8066 51.6602-78.125 49.9023-78.125C48.0957-78.125 46.875-76.8066 45.9961-74.2676L38.2812-50L12.8418-50.1465C10.1562-50.1465 8.54492-49.3164 7.95898-47.6562C7.42188-45.9473 8.25195-44.3359 10.4492-42.7734L31.1523-27.8809L23.0957-3.75977C22.2168-1.17188 22.5586 0.585938 23.9258 1.61133ZM28.7598-4.93164C28.6621-5.0293 28.7109-5.07812 28.7598-5.32227L36.4746-27.832C36.9629-29.1992 36.7188-30.3223 35.4492-31.2012L15.918-44.8242C15.7227-44.9219 15.625-45.0195 15.6738-45.1172C15.7227-45.2637 15.8203-45.2637 16.0645-45.2637L39.8926-44.873C41.3574-44.873 42.2852-45.459 42.7246-46.9238L49.6582-69.6777C49.707-69.9219 49.7559-70.0195 49.9023-70.0195C50-70.0195 50.0488-69.9219 50.1465-69.6777L57.0312-46.9238C57.4707-45.459 58.4473-44.873 59.8633-44.873L83.6914-45.2637C83.9355-45.2637 84.0332-45.2637 84.082-45.1172C84.1309-45.0195 84.0332-44.9219 83.8379-44.8242L64.3066-31.2012C63.0859-30.3223 62.793-29.1992 63.2812-27.832L70.9961-5.32227C71.0938-5.07812 71.0938-5.0293 71.0449-4.93164C70.9473-4.83398 70.8496-4.88281 70.6543-5.0293L51.6602-19.3848C50.5371-20.2637 49.2188-20.2637 48.0957-19.3848L29.1504-5.0293C28.9551-4.88281 28.8086-4.83398 28.7598-4.93164Z"/>
  </g>
  <g id="Thin-S" transform="matrix(1 0 0 1 807.741 696)">
   <path d="M23.4863 0.78125C24.4629 1.51367 25.6836 1.36719 27.2461 0.244141L48.6816-15.4785L70.1172 0.244141C71.6797 1.36719 72.9004 1.51367 73.877 0.78125C74.8535 0.0976562 75.1465-1.07422 74.5117-3.02734L66.2109-28.1738L87.7441-43.75C89.3555-44.873 89.7949-45.9961 89.4531-47.168C89.0625-48.291 88.0371-48.9258 86.0352-48.9258L59.5215-48.8281L51.416-74.0723C50.7812-75.9766 49.9023-76.7578 48.6816-76.7578C47.5098-76.7578 46.582-75.9766 45.9473-74.0723L37.8418-48.8281L11.3281-48.9258C9.32617-48.9258 8.30078-48.291 7.91016-47.168C7.56836-45.9961 8.05664-44.873 9.61914-43.75L31.1523-28.1738L22.8516-3.02734C22.2168-1.07422 22.5586 0.0976562 23.4863 0.78125ZM26.1719-2.88086C26.0254-2.97852 26.123-3.125 26.2207-3.41797L34.3262-27.832C34.7168-28.8574 34.4727-29.7852 33.4961-30.4199L12.5488-45.3125C12.3047-45.5078 12.1582-45.6055 12.207-45.752C12.2559-45.8984 12.4512-45.8984 12.7441-45.8984L38.5254-45.7031C39.5996-45.6543 40.332-46.1914 40.6738-47.2656L48.3887-71.7773C48.4863-72.1191 48.5352-72.2656 48.6816-72.2656C48.8281-72.2656 48.9258-72.1191 48.9746-71.7773L56.6895-47.2656C57.0312-46.1914 57.7637-45.6543 58.8867-45.7031L84.6191-45.8984C84.9609-45.8984 85.1074-45.8984 85.1562-45.752C85.2051-45.6055 85.0586-45.5078 84.8145-45.3125L63.8672-30.4199C62.9395-29.7852 62.6465-28.8574 63.0371-27.832L71.1914-3.41797C71.2402-3.125 71.3379-2.97852 71.1914-2.88086C71.0938-2.7832 70.9473-2.88086 70.7031-3.07617L50.0488-18.3594C49.1699-19.043 48.1934-19.043 47.3145-18.3594L26.6602-3.07617C26.416-2.88086 26.2695-2.7832 26.1719-2.88086Z"/>
  </g>
  <g id="Ultralight-S" transform="matrix(1 0 0 1 511.64 696)">
   <path d="M23.291 0.341797C24.0234 0.878906 24.9023 0.830078 26.2207-0.0976562L48.0957-16.0645L69.9707-0.0976562C71.2402 0.830078 72.1191 0.878906 72.8516 0.341797C73.6328-0.195312 73.9258-1.02539 73.3887-2.63672L64.9902-28.3203L86.9629-44.2383C88.2324-45.166 88.5254-46.0449 88.2324-46.875C87.9883-47.7539 87.2559-48.291 85.5957-48.291L58.4961-48.2422L50.1953-73.9746C49.707-75.5371 48.9746-76.0742 48.0957-76.0742C47.168-76.0742 46.4355-75.5371 45.9473-73.9746L37.6465-48.2422L10.5469-48.291C8.93555-48.291 8.1543-47.7539 7.91016-46.875C7.61719-46.0449 7.91016-45.166 9.22852-44.2383L31.2012-28.3203L22.7539-2.63672C22.2656-1.02539 22.5586-0.195312 23.291 0.341797ZM24.8535-1.85547C24.707-1.95312 24.8047-2.09961 24.9023-2.44141L33.252-27.7832C33.5449-28.6621 33.3008-29.4434 32.4707-30.0293L10.8398-45.6055C10.5469-45.8008 10.4004-45.9473 10.4492-46.0938C10.498-46.1914 10.6934-46.1914 11.0352-46.1914L37.793-46.0938C38.7207-46.0938 39.3066-46.5332 39.6484-47.4609L47.7539-72.9004C47.8516-73.2422 47.9492-73.4375 48.0957-73.4375C48.2422-73.4375 48.3398-73.2422 48.3887-72.9004L56.543-47.4609C56.8359-46.5332 57.4219-46.0938 58.3496-46.0938L85.1074-46.1914C85.4492-46.1914 85.6445-46.1914 85.6934-46.0938C85.7422-45.9473 85.5957-45.8008 85.3027-45.6055L63.6719-30.0293C62.8418-29.4434 62.5977-28.6621 62.8906-27.7832L71.2402-2.44141C71.3379-2.09961 71.4355-1.95312 71.2891-1.85547C71.1426-1.75781 70.9961-1.85547 70.752-2.05078L49.2676-17.8223C48.4863-18.4082 47.6562-18.4082 46.9238-17.8223L25.4395-2.05078C25.1465-1.85547 25-1.75781 24.8535-1.85547Z"/>
  </g>
 </g>
</svg>
