<?xml version="1.0" encoding="UTF-8"?>
<!--Generator: Apple Native CoreSVG 175-->
<!DOCTYPE svg
PUBLIC "-//W3C//DTD SVG 1.1//EN"
       "http://www.w3.org/Graphics/SVG/1.1/DTD/svg11.dtd">
<svg version="1.1" xmlns="http://www.w3.org/2000/svg" xmlns:xlink="http://www.w3.org/1999/xlink" width="3300" height="2200">
 <!--glyph: "uni100C4D.medium", point size: 100.0, font version: "17.1d1e1", template writer version: "65.1"-->
 <g id="Notes">
  <rect height="2200" id="artboard" style="fill:white;opacity:1" width="3300" x="0" y="0"/>
  <line style="fill:none;stroke:black;opacity:1;stroke-width:0.5;" x1="263" x2="3036" y1="292" y2="292"/>
  <text style="stroke:none;fill:black;font-family:sans-serif;font-size:13;font-weight:bold;" transform="matrix(1 0 0 1 263 322)">Weight/Scale Variations</text>
  <text style="stroke:none;fill:black;font-family:sans-serif;font-size:13;text-anchor:middle;" transform="matrix(1 0 0 1 559.711 322)">Ultralight</text>
  <text style="stroke:none;fill:black;font-family:sans-serif;font-size:13;text-anchor:middle;" transform="matrix(1 0 0 1 856.422 322)">Thin</text>
  <text style="stroke:none;fill:black;font-family:sans-serif;font-size:13;text-anchor:middle;" transform="matrix(1 0 0 1 1153.13 322)">Light</text>
  <text style="stroke:none;fill:black;font-family:sans-serif;font-size:13;text-anchor:middle;" transform="matrix(1 0 0 1 1449.84 322)">Regular</text>
  <text style="stroke:none;fill:black;font-family:sans-serif;font-size:13;text-anchor:middle;" transform="matrix(1 0 0 1 1746.56 322)">Medium</text>
  <text style="stroke:none;fill:black;font-family:sans-serif;font-size:13;text-anchor:middle;" transform="matrix(1 0 0 1 2043.27 322)">Semibold</text>
  <text style="stroke:none;fill:black;font-family:sans-serif;font-size:13;text-anchor:middle;" transform="matrix(1 0 0 1 2339.98 322)">Bold</text>
  <text style="stroke:none;fill:black;font-family:sans-serif;font-size:13;text-anchor:middle;" transform="matrix(1 0 0 1 2636.69 322)">Heavy</text>
  <text style="stroke:none;fill:black;font-family:sans-serif;font-size:13;text-anchor:middle;" transform="matrix(1 0 0 1 2933.4 322)">Black</text>
  <line style="fill:none;stroke:black;opacity:1;stroke-width:0.5;" x1="263" x2="3036" y1="1903" y2="1903"/>
  <g transform="matrix(1 0 0 1 263 1933)">
   <path d="M9.24805 0.830078Q10.8691 0.830078 12.2949 0.214844Q13.7207-0.400391 14.8096-1.49414Q15.8984-2.58789 16.5186-4.01367Q17.1387-5.43945 17.1387-7.05078Q17.1387-8.66211 16.5186-10.0879Q15.8984-11.5137 14.8047-12.6074Q13.7109-13.7012 12.2852-14.3164Q10.8594-14.9316 9.23828-14.9316Q7.62695-14.9316 6.20117-14.3164Q4.77539-13.7012 3.69141-12.6074Q2.60742-11.5137 1.9873-10.0879Q1.36719-8.66211 1.36719-7.05078Q1.36719-5.43945 1.9873-4.01367Q2.60742-2.58789 3.69629-1.49414Q4.78516-0.400391 6.21094 0.214844Q7.63672 0.830078 9.24805 0.830078ZM9.24805-0.654297Q7.91992-0.654297 6.7627-1.14746Q5.60547-1.64062 4.73145-2.51953Q3.85742-3.39844 3.36426-4.56055Q2.87109-5.72266 2.87109-7.05078Q2.87109-8.37891 3.35938-9.54102Q3.84766-10.7031 4.72168-11.582Q5.5957-12.4609 6.75293-12.9541Q7.91016-13.4473 9.23828-13.4473Q10.5762-13.4473 11.7334-12.9541Q12.8906-12.4609 13.7695-11.582Q14.6484-10.7031 15.1465-9.54102Q15.6445-8.37891 15.6445-7.05078Q15.6445-5.72266 15.1514-4.56055Q14.6582-3.39844 13.7842-2.51953Q12.9102-1.64062 11.748-1.14746Q10.5859-0.654297 9.24805-0.654297ZM5.6543-7.05078Q5.6543-6.72852 5.85938-6.52832Q6.06445-6.32812 6.40625-6.32812L8.51562-6.32812L8.51562-4.20898Q8.51562-3.88672 8.71094-3.67676Q8.90625-3.4668 9.23828-3.4668Q9.56055-3.4668 9.77051-3.67676Q9.98047-3.88672 9.98047-4.20898L9.98047-6.32812L12.0898-6.32812Q12.4219-6.32812 12.627-6.52832Q12.832-6.72852 12.832-7.05078Q12.832-7.38281 12.627-7.58789Q12.4219-7.79297 12.0898-7.79297L9.98047-7.79297L9.98047-9.90234Q9.98047-10.2344 9.77051-10.4443Q9.56055-10.6543 9.23828-10.6543Q8.90625-10.6543 8.71094-10.4443Q8.51562-10.2344 8.51562-9.90234L8.51562-7.79297L6.40625-7.79297Q6.06445-7.79297 5.85938-7.58789Q5.6543-7.38281 5.6543-7.05078Z"/>
  </g>
  <g transform="matrix(1 0 0 1 281.867 1933)">
   <path d="M11.709 2.91016Q13.75 2.91016 15.5518 2.12891Q17.3535 1.34766 18.7305-0.0292969Q20.1074-1.40625 20.8887-3.20801Q21.6699-5.00977 21.6699-7.05078Q21.6699-9.0918 20.8887-10.8936Q20.1074-12.6953 18.7305-14.0723Q17.3535-15.4492 15.5469-16.2305Q13.7402-17.0117 11.6992-17.0117Q9.6582-17.0117 7.85645-16.2305Q6.05469-15.4492 4.68262-14.0723Q3.31055-12.6953 2.5293-10.8936Q1.74805-9.0918 1.74805-7.05078Q1.74805-5.00977 2.5293-3.20801Q3.31055-1.40625 4.6875-0.0292969Q6.06445 1.34766 7.86621 2.12891Q9.66797 2.91016 11.709 2.91016ZM11.709 1.25Q9.98047 1.25 8.47656 0.605469Q6.97266-0.0390625 5.83496-1.17676Q4.69727-2.31445 4.05762-3.81836Q3.41797-5.32227 3.41797-7.05078Q3.41797-8.7793 4.05762-10.2832Q4.69727-11.7871 5.83008-12.9297Q6.96289-14.0723 8.4668-14.7119Q9.9707-15.3516 11.6992-15.3516Q13.4277-15.3516 14.9316-14.7119Q16.4355-14.0723 17.5781-12.9297Q18.7207-11.7871 19.3652-10.2832Q20.0098-8.7793 20.0098-7.05078Q20.0098-5.32227 19.3701-3.81836Q18.7305-2.31445 17.5928-1.17676Q16.4551-0.0390625 14.9463 0.605469Q13.4375 1.25 11.709 1.25ZM7.17773-7.05078Q7.17773-6.69922 7.41211-6.47461Q7.64648-6.25 8.01758-6.25L10.8887-6.25L10.8887-3.36914Q10.8887-2.99805 11.1133-2.76855Q11.3379-2.53906 11.6895-2.53906Q12.0605-2.53906 12.29-2.76855Q12.5195-2.99805 12.5195-3.36914L12.5195-6.25L15.4004-6.25Q15.7715-6.25 16.001-6.47461Q16.2305-6.69922 16.2305-7.05078Q16.2305-7.42188 16.001-7.65137Q15.7715-7.88086 15.4004-7.88086L12.5195-7.88086L12.5195-10.752Q12.5195-11.1328 12.29-11.3623Q12.0605-11.5918 11.6895-11.5918Q11.3379-11.5918 11.1133-11.3574Q10.8887-11.123 10.8887-10.752L10.8887-7.88086L8.01758-7.88086Q7.63672-7.88086 7.40723-7.65137Q7.17773-7.42188 7.17773-7.05078Z"/>
  </g>
  <g transform="matrix(1 0 0 1 305.646 1933)">
   <path d="M14.9707 5.66406Q17.0605 5.66406 18.96 5.01465Q20.8594 4.36523 22.4512 3.19336Q24.043 2.02148 25.2197 0.429688Q26.3965-1.16211 27.0459-3.06641Q27.6953-4.9707 27.6953-7.05078Q27.6953-9.14062 27.0459-11.04Q26.3965-12.9395 25.2197-14.5312Q24.043-16.123 22.4512-17.2998Q20.8594-18.4766 18.9551-19.126Q17.0508-19.7754 14.9609-19.7754Q12.8711-19.7754 10.9717-19.126Q9.07227-18.4766 7.48535-17.2998Q5.89844-16.123 4.72168-14.5312Q3.54492-12.9395 2.90039-11.04Q2.25586-9.14062 2.25586-7.05078Q2.25586-4.9707 2.90527-3.06641Q3.55469-1.16211 4.72656 0.429688Q5.89844 2.02148 7.49023 3.19336Q9.08203 4.36523 10.9814 5.01465Q12.8809 5.66406 14.9707 5.66406ZM14.9707 3.84766Q13.1641 3.84766 11.5283 3.2959Q9.89258 2.74414 8.53516 1.74805Q7.17773 0.751953 6.17676-0.610352Q5.17578-1.97266 4.62891-3.6084Q4.08203-5.24414 4.08203-7.05078Q4.08203-8.86719 4.62891-10.5029Q5.17578-12.1387 6.17188-13.501Q7.16797-14.8633 8.52539-15.8594Q9.88281-16.8555 11.5186-17.4023Q13.1543-17.9492 14.9609-17.9492Q16.7773-17.9492 18.4131-17.4023Q20.0488-16.8555 21.4111-15.8594Q22.7734-14.8633 23.7695-13.501Q24.7656-12.1387 25.3174-10.5029Q25.8691-8.86719 25.8691-7.05078Q25.8789-5.24414 25.332-3.6084Q24.7852-1.97266 23.7842-0.610352Q22.7832 0.751953 21.4209 1.74805Q20.0586 2.74414 18.4229 3.2959Q16.7871 3.84766 14.9707 3.84766ZM9.19922-7.05078Q9.19922-6.66992 9.45801-6.4209Q9.7168-6.17188 10.1172-6.17188L14.0625-6.17188L14.0625-2.2168Q14.0625-1.81641 14.3115-1.55762Q14.5605-1.29883 14.9512-1.29883Q15.3516-1.29883 15.6104-1.55273Q15.8691-1.80664 15.8691-2.2168L15.8691-6.17188L19.8242-6.17188Q20.2246-6.17188 20.4785-6.4209Q20.7324-6.66992 20.7324-7.05078Q20.7324-7.46094 20.4785-7.71484Q20.2246-7.96875 19.8242-7.96875L15.8691-7.96875L15.8691-11.9141Q15.8691-12.3242 15.6104-12.583Q15.3516-12.8418 14.9512-12.8418Q14.5605-12.8418 14.3115-12.583Q14.0625-12.3242 14.0625-11.9141L14.0625-7.96875L10.1172-7.96875Q9.70703-7.96875 9.45312-7.71484Q9.19922-7.46094 9.19922-7.05078Z"/>
  </g>
  <text style="stroke:none;fill:black;font-family:sans-serif;font-size:13;font-weight:bold;" transform="matrix(1 0 0 1 263 1953)">Design Variations</text>
  <text style="stroke:none;fill:black;font-family:sans-serif;font-size:13;" transform="matrix(1 0 0 1 263 1971)">Symbols are supported in up to nine weights and three scales.</text>
  <text style="stroke:none;fill:black;font-family:sans-serif;font-size:13;" transform="matrix(1 0 0 1 263 1989)">For optimal layout with text and other symbols, vertically align</text>
  <text style="stroke:none;fill:black;font-family:sans-serif;font-size:13;" transform="matrix(1 0 0 1 263 2007)">symbols with the adjacent text.</text>
  <line style="fill:none;stroke:#00AEEF;stroke-width:0.5;opacity:1.0;" x1="776" x2="776" y1="1919" y2="1933"/>
  <g transform="matrix(1 0 0 1 776 1933)">
   <path d="M3.31055 0.15625Q3.70117 0.15625 3.91602-0.00976562Q4.13086-0.175781 4.26758-0.585938L5.52734-4.0332L11.2891-4.0332L12.5488-0.585938Q12.6855-0.175781 12.9004-0.00976562Q13.1152 0.15625 13.4961 0.15625Q13.8867 0.15625 14.1162-0.0585938Q14.3457-0.273438 14.3457-0.644531Q14.3457-0.869141 14.2383-1.17188L9.6582-13.3691Q9.48242-13.8184 9.17969-14.043Q8.87695-14.2676 8.4082-14.2676Q7.5-14.2676 7.17773-13.3789L2.59766-1.16211Q2.49023-0.859375 2.49023-0.634766Q2.49023-0.263672 2.70996-0.0537109Q2.92969 0.15625 3.31055 0.15625ZM6.00586-5.51758L8.37891-12.0898L8.42773-12.0898L10.8008-5.51758Z"/>
  </g>
  <line style="fill:none;stroke:#00AEEF;stroke-width:0.5;opacity:1.0;" x1="793.197" x2="793.197" y1="1919" y2="1933"/>
  <text style="stroke:none;fill:black;font-family:sans-serif;font-size:13;font-weight:bold;" transform="matrix(1 0 0 1 776 1953)">Margins</text>
  <text style="stroke:none;fill:black;font-family:sans-serif;font-size:13;" transform="matrix(1 0 0 1 776 1971)">Leading and trailing margins on the left and right side of each symbol</text>
  <text style="stroke:none;fill:black;font-family:sans-serif;font-size:13;" transform="matrix(1 0 0 1 776 1989)">can be adjusted by modifying the x-location of the margin guidelines.</text>
  <text style="stroke:none;fill:black;font-family:sans-serif;font-size:13;" transform="matrix(1 0 0 1 776 2007)">Modifications are automatically applied proportionally to all</text>
  <text style="stroke:none;fill:black;font-family:sans-serif;font-size:13;" transform="matrix(1 0 0 1 776 2025)">scales and weights.</text>
  <g transform="matrix(1 0 0 1 1289 1933)">
   <path d="M2.8418 1.86523L4.54102 3.57422Q5.18555 4.22852 5.90332 4.17969Q6.62109 4.13086 7.31445 3.35938L18.0078-8.42773L17.041-9.4043L6.42578 2.27539Q6.16211 2.57812 5.89355 2.61719Q5.625 2.65625 5.27344 2.30469L4.10156 1.14258Q3.75 0.791016 3.79395 0.522461Q3.83789 0.253906 4.14062-0.0195312L15.6152-10.8203L14.6387-11.7871L3.04688-0.898438Q2.30469-0.214844 2.25098 0.498047Q2.19727 1.21094 2.8418 1.86523ZM9.25781-16.3281Q8.94531-16.0254 8.90625-15.6348Q8.86719-15.2441 9.04297-14.9512Q9.21875-14.6777 9.55566-14.541Q9.89258-14.4043 10.3809-14.5215Q11.4746-14.7754 12.5977-14.7314Q13.7207-14.6875 14.7949-13.9844L14.209-12.5293Q13.9551-11.9043 14.0674-11.4404Q14.1797-10.9766 14.5801-10.5664L16.875-8.25195Q17.2363-7.88086 17.5781-7.82227Q17.9199-7.76367 18.3398-7.8418L19.4043-8.03711L20.0684-7.36328L20.0293-6.80664Q20-6.43555 20.1221-6.12305Q20.2441-5.81055 20.6055-5.44922L21.3672-4.70703Q21.7285-4.3457 22.1533-4.33105Q22.5781-4.31641 22.9297-4.66797L25.8398-7.58789Q26.1914-7.93945 26.1816-8.35449Q26.1719-8.76953 25.8105-9.13086L25.0391-9.89258Q24.6875-10.2539 24.3799-10.3857Q24.0723-10.5176 23.7109-10.4883L23.1348-10.4395L22.4902-11.0742L22.7344-12.1973Q22.832-12.6172 22.6953-12.9834Q22.5586-13.3496 22.1191-13.7891L19.9219-15.9766Q18.6719-17.2168 17.2607-17.8369Q15.8496-18.457 14.4189-18.4814Q12.9883-18.5059 11.665-17.959Q10.3418-17.4121 9.25781-16.3281ZM10.752-15.957Q11.6602-16.6211 12.7002-16.9043Q13.7402-17.1875 14.8047-17.085Q15.8691-16.9824 16.8701-16.5137Q17.8711-16.0449 18.7012-15.2051L21.1328-12.793Q21.3086-12.6172 21.3525-12.4512Q21.3965-12.2852 21.3379-12.0312L21.0156-10.5469L22.5195-9.0625L23.5059-9.12109Q23.6914-9.13086 23.7891-9.09668Q23.8867-9.0625 24.0332-8.91602L24.6094-8.33984L22.168-5.89844L21.5918-6.47461Q21.4453-6.62109 21.4062-6.71875Q21.3672-6.81641 21.377-7.01172L21.4453-7.98828L19.9512-9.47266L18.4277-9.21875Q18.1836-9.16992 18.042-9.2041Q17.9004-9.23828 17.7148-9.41406L15.7129-11.416Q15.5176-11.5918 15.4932-11.7529Q15.4688-11.9141 15.5859-12.1875L16.4648-14.2773Q15.293-15.3711 13.8281-15.791Q12.3633-16.2109 10.8398-15.7617Q10.7227-15.7324 10.6885-15.8057Q10.6543-15.8789 10.752-15.957Z"/>
  </g>
  <text style="stroke:none;fill:black;font-family:sans-serif;font-size:13;font-weight:bold;" transform="matrix(1 0 0 1 1289 1953)">Exporting</text>
  <text style="stroke:none;fill:black;font-family:sans-serif;font-size:13;" transform="matrix(1 0 0 1 1289 1971)">Symbols should be outlined when exporting to ensure the</text>
  <text style="stroke:none;fill:black;font-family:sans-serif;font-size:13;" transform="matrix(1 0 0 1 1289 1989)">design is preserved when submitting to Xcode.</text>
  <text id="template-version" style="stroke:none;fill:black;font-family:sans-serif;font-size:13;text-anchor:end;" transform="matrix(1 0 0 1 3036 1933)">Template v.3.0</text>
  <text style="stroke:none;fill:black;font-family:sans-serif;font-size:13;text-anchor:end;" transform="matrix(1 0 0 1 3036 1951)">Requires Xcode 13 or greater</text>
  <text id="descriptive-name" style="stroke:none;fill:black;font-family:sans-serif;font-size:13;text-anchor:end;" transform="matrix(1 0 0 1 3036 1969)">Generated from arrow.uturn.backward</text>
  <text style="stroke:none;fill:black;font-family:sans-serif;font-size:13;text-anchor:end;" transform="matrix(1 0 0 1 3036 1987)">Typeset at 100 points</text>
  <text style="stroke:none;fill:black;font-family:sans-serif;font-size:13;" transform="matrix(1 0 0 1 263 726)">Small</text>
  <text style="stroke:none;fill:black;font-family:sans-serif;font-size:13;" transform="matrix(1 0 0 1 263 1156)">Medium</text>
  <text style="stroke:none;fill:black;font-family:sans-serif;font-size:13;" transform="matrix(1 0 0 1 263 1586)">Large</text>
 </g>
 <g id="Guides">
  <g id="H-reference" style="fill:#27AAE1;stroke:none;" transform="matrix(1 0 0 1 339 696)">
   <path d="M0.993347 0L3.6377 0L29.3282-67.1326L30.0301-67.1326L30.0301-70.459L28.1227-70.459ZM11.6882-24.4797L46.9818-24.4797L46.2311-26.7288L12.4382-26.7288ZM55.1193 0L57.7637 0L30.6381-70.459L29.4327-70.459L29.4327-67.1326Z"/>
  </g>
  <line id="Baseline-S" style="fill:none;stroke:#27AAE1;opacity:1;stroke-width:0.5;" x1="263" x2="3036" y1="696" y2="696"/>
  <line id="Capline-S" style="fill:none;stroke:#27AAE1;opacity:1;stroke-width:0.5;" x1="263" x2="3036" y1="625.541" y2="625.541"/>
  <g id="H-reference" style="fill:#27AAE1;stroke:none;" transform="matrix(1 0 0 1 339 1126)">
   <path d="M0.993347 0L3.6377 0L29.3282-67.1326L30.0301-67.1326L30.0301-70.459L28.1227-70.459ZM11.6882-24.4797L46.9818-24.4797L46.2311-26.7288L12.4382-26.7288ZM55.1193 0L57.7637 0L30.6381-70.459L29.4327-70.459L29.4327-67.1326Z"/>
  </g>
  <line id="Baseline-M" style="fill:none;stroke:#27AAE1;opacity:1;stroke-width:0.5;" x1="263" x2="3036" y1="1126" y2="1126"/>
  <line id="Capline-M" style="fill:none;stroke:#27AAE1;opacity:1;stroke-width:0.5;" x1="263" x2="3036" y1="1055.54" y2="1055.54"/>
  <g id="H-reference" style="fill:#27AAE1;stroke:none;" transform="matrix(1 0 0 1 339 1556)">
   <path d="M0.993347 0L3.6377 0L29.3282-67.1326L30.0301-67.1326L30.0301-70.459L28.1227-70.459ZM11.6882-24.4797L46.9818-24.4797L46.2311-26.7288L12.4382-26.7288ZM55.1193 0L57.7637 0L30.6381-70.459L29.4327-70.459L29.4327-67.1326Z"/>
  </g>
  <line id="Baseline-L" style="fill:none;stroke:#27AAE1;opacity:1;stroke-width:0.5;" x1="263" x2="3036" y1="1556" y2="1556"/>
  <line id="Capline-L" style="fill:none;stroke:#27AAE1;opacity:1;stroke-width:0.5;" x1="263" x2="3036" y1="1485.54" y2="1485.54"/>
  <line id="left-margin-Regular-M" style="fill:none;stroke:#00AEEF;stroke-width:0.5;opacity:1.0;" x1="1391.27" x2="1391.27" y1="1030.79" y2="1150.12"/>
  <line id="right-margin-Regular-M" style="fill:none;stroke:#00AEEF;stroke-width:0.5;opacity:1.0;" x1="1508.42" x2="1508.42" y1="1030.79" y2="1150.12"/>
 </g>
 <g id="Symbols">
  <g id="Black-L" transform="matrix(1 0 0 1 2854.3 1556)">
   <path d="M142.118-13.9853Q142.118-28.0939 136.215-38.7947Q130.313-49.4954 119.695-55.5197Q109.078-61.544 94.9166-61.544L64.3157-61.544L37.4208-60.2985L42.2172-54.2001L58.5158-67.2993L67.9503-76.4927Q69.5255-78.0666 70.576-79.9779Q71.6264-81.8891 71.6264-84.5465Q71.6264-89.0799 68.6609-92.1434Q65.6954-95.2068 60.7895-95.2068Q56.2184-95.2068 52.7125-91.7009L19.3393-58.5519Q16.084-55.338 16.084-50.2776Q16.084-45.2185 19.3393-41.9839L52.7125-8.89325Q56.2184-5.38733 60.7895-5.38733Q65.6954-5.38733 68.6609-8.45142Q71.6264-11.5155 71.6264-16.0684Q71.6264-18.7063 70.576-20.6565Q69.5255-22.6067 67.9503-24.1015L58.5158-33.2365L42.2172-46.3357L37.4208-40.2372L64.3157-38.993L93.4143-38.993Q101.578-38.993 107.557-35.8161Q113.535-32.6392 116.843-27.0318Q120.151-21.4244 120.151-14.1719Q120.151-6.9401 116.843-1.38734Q113.535 4.16543 107.557 7.28771Q101.578 10.41 93.4143 10.41L78.3731 10.41Q73.5062 10.41 70.2286 13.7083Q66.951 17.0066 66.951 21.6751Q66.951 26.3644 70.2292 29.6633Q73.5075 32.9623 78.3744 32.9623L95.2275 32.9623Q109.306 32.9623 119.851 27.2131Q130.395 21.4639 136.257 10.911Q142.118 0.35813 142.118-13.9853Z"/>
  </g>
  <g id="Heavy-L" transform="matrix(1 0 0 1 2558.45 1556)">
   <path d="M140.398-13.1677Q140.398-26.7583 134.659-37.0658Q128.921-47.3733 118.473-53.1754Q108.025-58.9775 93.8887-58.9775L60.1139-58.9775L35.0737-57.8437L38.9951-52.5503L55.0737-65.7099L66.6792-77.0475Q68.051-78.4133 68.9377-80.0798Q69.8244-81.7463 69.8244-84.0525Q69.8244-88.0489 67.2265-90.7286Q64.6286-93.4083 60.3287-93.4083Q56.3173-93.4083 53.2553-90.3463L18.9824-56.3827Q16.084-53.5438 16.084-49.1397Q16.084-44.7416 18.9824-41.8729L53.2553-7.95397Q56.3173-4.89192 60.3287-4.89192Q64.6286-4.89192 67.2265-7.57464Q69.8244-10.2574 69.8244-14.2775Q69.8244-16.56 68.9377-18.2607Q68.051-19.9614 66.6792-21.2527L55.0737-32.5458L38.9951-45.7053L35.0737-40.4119L60.1139-39.2841L92.9398-39.2841Q101.714-39.2841 108.01-35.9846Q114.307-32.6851 117.729-26.8486Q121.151-21.0122 121.151-13.4355Q121.151-5.8887 117.729-0.0522037Q114.307 5.78429 108.01 9.08385Q101.714 12.3834 92.9398 12.3834L77.8344 12.3834Q73.5553 12.3834 70.7076 15.2609Q67.8598 18.1384 67.8598 22.2153Q67.8598 26.3218 70.7106 29.2024Q73.5613 32.0829 77.8404 32.0829L94.3351 32.0829Q108.352 32.0829 118.696 26.5188Q129.04 20.9547 134.719 10.781Q140.398 0.607402 140.398-13.1677Z"/>
  </g>
  <g id="Bold-L" transform="matrix(1 0 0 1 2262.76 1556)">
   <path d="M138.349-12.3422Q138.349-25.29 132.819-35.1073Q127.289-44.9245 117.1-50.4479Q106.91-55.9713 92.9346-55.9713L54.8551-55.9713L32.1201-54.9883L35.0253-50.699L50.783-63.9376L65.0299-77.9042Q66.1511-79.0112 66.8432-80.3809Q67.5352-81.7506 67.5352-83.6265Q67.5352-86.9474 65.3917-89.1532Q63.2482-91.359 59.7008-91.359Q56.3877-91.359 53.874-88.8453L18.5257-53.8612Q16.084-51.4935 16.084-47.8955Q16.084-44.3118 18.5257-41.9071L53.874-6.95218Q56.3877-4.43846 59.7008-4.43846Q63.2482-4.43846 65.3917-6.65139Q67.5352-8.86431 67.5352-12.208Q67.5352-14.0611 66.8432-15.4568Q66.1511-16.8525 65.0299-17.8933L50.783-31.8307L35.0253-45.0693L32.1201-40.78L54.8551-39.8112L92.5557-39.8112Q101.998-39.8112 108.668-36.3587Q115.337-32.9062 118.909-26.7833Q122.481-20.6604 122.481-12.6752Q122.481-4.72694 118.909 1.44853Q115.337 7.624 108.668 11.1291Q101.998 14.6341 92.5557 14.6341L77.0389 14.6341Q73.498 14.6341 71.1786 16.9905Q68.8592 19.3469 68.8592 22.6957Q68.8592 26.0815 71.1857 28.445Q73.5122 30.8085 77.0531 30.8085L93.4894 30.8085Q107.317 30.8085 117.377 25.4759Q127.437 20.1433 132.893 10.4399Q138.349 0.736587 138.349-12.3422Z"/>
  </g>
  <g id="Semibold-L" transform="matrix(1 0 0 1 1966.75 1556)">
   <path d="M136.937-11.7732Q136.937-24.2779 131.551-33.7571Q126.165-43.2364 116.153-48.5676Q106.141-53.8988 92.2768-53.8988L51.2297-53.8988L30.0838-53.0198L32.2885-49.4227L47.8249-62.7158L63.8928-78.4947Q64.8414-79.4234 65.3992-80.5885Q65.957-81.7535 65.957-83.3328Q65.957-86.188 64.1268-88.0671Q62.2965-89.9462 59.268-89.9462Q56.4362-89.9462 54.3005-87.8105L18.2108-52.1229Q16.084-50.08 16.084-47.0378Q16.084-44.0154 18.2108-41.9306L54.3005-6.26155Q56.4362-4.12585 59.268-4.12585Q62.2965-4.12585 64.1268-6.0149Q65.957-7.90395 65.957-10.7813Q65.957-12.3384 65.3992-13.5238Q64.8414-14.7092 63.8928-15.5773L47.8249-31.3377L32.2885-44.6308L30.0838-41.0337L51.2297-40.1746L92.2909-40.1746Q102.194-40.1746 109.121-36.6166Q116.047-33.0586 119.723-26.7382Q123.399-20.4178 123.399-12.151Q123.399-3.92603 119.723 2.48313Q116.047 8.89228 109.121 12.539Q102.194 16.1858 92.2909 16.1858L76.4905 16.1858Q73.4585 16.1858 71.5033 18.1829Q69.5482 20.1801 69.5482 23.0269Q69.5482 25.9157 71.5133 27.9228Q73.4784 29.9299 76.5104 29.9299L92.9064 29.9299Q106.603 29.9299 116.468 24.7569Q126.333 19.5839 131.635 10.2048Q136.937 0.825646 136.937-11.7732Z"/>
  </g>
  <g id="Medium-L" transform="matrix(1 0 0 1 1670.58 1556)">
   <path d="M135.867-11.3417Q135.867-23.5104 130.589-32.7334Q125.312-41.9563 115.435-47.1419Q105.558-52.3274 91.778-52.3274L48.4808-52.3274L28.5399-51.5271L30.2133-48.455L45.582-61.7894L63.0307-78.9425Q63.8482-79.7359 64.3043-80.7459Q64.7604-81.7558 64.7604-83.1101Q64.7604-85.6122 63.1677-87.2436Q61.5749-88.875 58.9398-88.875Q56.473-88.875 54.6239-87.0259L17.972-50.8048Q16.084-49.0083 16.084-46.3874Q16.084-43.7907 17.972-41.9485L54.6239-5.73789Q56.473-3.88882 58.9398-3.88882Q61.5749-3.88882 63.1677-5.53229Q64.7604-7.17577 64.7604-9.69945Q64.7604-11.0322 64.3043-12.0582Q63.8482-13.0841 63.0307-13.8213L45.582-30.9639L30.2133-44.2983L28.5399-41.2261L48.4808-40.4501L92.0901-40.4501Q102.342-40.4501 109.464-36.8121Q116.586-33.1742 120.34-26.7041Q124.095-20.234 124.095-11.7535Q124.095-3.31875 120.34 3.2676Q116.586 9.85395 109.464 13.6081Q102.342 17.3623 92.0901 17.3623L76.0747 17.3623Q73.4285 17.3623 71.7495 19.087Q70.0706 20.8118 70.0706 23.2781Q70.0706 25.7901 71.7616 27.5269Q73.4527 29.2637 76.0988 29.2637L92.4643 29.2637Q106.062 29.2637 115.778 24.2118Q125.495 19.1598 130.681 10.0265Q135.867 0.893174 135.867-11.3417Z"/>
  </g>
  <g id="Regular-L" transform="matrix(1 0 0 1 1374.56 1556)">
   <path d="M134.47-10.7789Q134.47-22.5093 129.335-31.398Q124.199-40.2867 114.499-45.2822Q104.798-50.2777 91.1275-50.2777L44.8953-50.2777L26.526-49.5803L27.5065-47.1928L42.6565-60.581L61.9062-79.5266Q62.5529-80.1436 62.8762-80.9511Q63.1996-81.7587 63.1996-82.8197Q63.1996-84.8611 61.9166-86.1694Q60.6337-87.4777 58.5118-87.4777Q56.521-87.4777 55.0458-86.0025L17.6606-49.0856Q16.084-47.6104 16.084-45.5392Q16.084-43.4977 17.6606-41.9718L55.0458-5.05485Q56.521-3.57964 58.5118-3.57964Q60.6337-3.57964 61.9166-4.9028Q63.1996-6.22596 63.1996-8.2884Q63.1996-9.32841 62.8762-10.1464Q62.5529-10.9645 61.9062-11.5307L42.6565-30.4763L27.5065-43.8646L26.526-41.4771L44.8953-40.8095L91.8282-40.8095Q102.536-40.8095 109.912-37.0672Q117.288-33.325 121.145-26.6595Q125.002-19.9941 125.002-11.235Q125.002-2.52665 121.145 4.29083Q117.288 11.1083 109.912 15.0026Q102.536 18.8969 91.8282 18.8969L75.5323 18.8969Q73.3895 18.8969 72.0707 20.2663Q70.7519 21.6358 70.7519 23.6056Q70.7519 25.6262 72.0856 27.0105Q73.4192 28.3948 75.5621 28.3948L91.8877 28.3948Q105.356 28.3948 114.879 23.5007Q124.402 18.6066 129.436 9.79394Q134.47 0.981255 134.47-10.7789Z"/>
  </g>
  <g id="Light-L" transform="matrix(1 0 0 1 1078.29 1556)">
   <path d="M133.588-11.4151Q133.588-22.694 128.627-31.2236Q123.666-39.7532 114.458-44.5331Q105.25-49.3131 92.523-49.3131L40.914-49.3131L24.1865-48.8004L24.9003-47.1517L39.5166-60.6221L60.2849-81.2094Q60.7675-81.6417 61.0087-82.2851Q61.25-82.9285 61.25-83.7226Q61.25-85.2305 60.2749-86.2207Q59.2998-87.2109 57.7114-87.2109Q56.2337-87.2109 55.1278-86.1051L17.2501-48.4084Q16.084-47.3026 16.084-45.7444Q16.084-44.2365 17.2501-43.1005L55.1278-5.40372Q56.2337-4.29791 57.7114-4.29791Q59.2998-4.29791 60.2749-5.31324Q61.25-6.32857 61.25-7.81639Q61.25-8.63067 61.0087-9.26399Q60.7675-9.89732 60.2849-10.2994L39.5166-30.8868L24.9003-44.3571L24.1865-42.7084L40.914-42.246L92.8749-42.246Q103.48-42.246 110.979-38.3909Q118.479-34.5358 122.5-27.6548Q126.521-20.7739 126.521-11.6865Q126.521-2.62926 122.5 4.34213Q118.479 11.3135 110.979 15.2591Q103.48 19.2047 92.8749 19.2047L74.1573 19.2047Q72.5891 19.2047 71.609 20.215Q70.6288 21.2253 70.6288 22.7232Q70.6288 24.2512 71.6341 25.2867Q72.6394 26.3221 74.2076 26.3221L92.9754 26.3221Q105.581 26.3221 114.684 21.6024Q123.786 16.8828 128.687 8.39844Q133.588-0.0858876 133.588-11.4151Z"/>
  </g>
  <g id="Thin-L" transform="matrix(1 0 0 1 782.161 1556)">
   <path d="M132.421-12.2565Q132.421-22.9383 127.69-30.9929Q122.96-39.0475 114.403-43.5425Q105.847-48.0374 94.3686-48.0374L35.6485-48.0374L21.0923-47.769L21.4532-47.0975L35.3639-60.6764L58.1407-83.4351Q58.4061-83.6231 58.5388-84.0493Q58.6715-84.4755 58.6715-84.9169Q58.6715-85.7191 58.1035-86.2886Q57.5355-86.8581 56.6529-86.8581Q55.8537-86.8581 55.2364-86.2408L16.7073-47.5127Q16.084-46.8954 16.084-46.0158Q16.084-45.2136 16.7073-44.5933L55.2364-5.86513Q55.8537-5.24788 56.6529-5.24788Q57.5355-5.24788 58.1035-5.85608Q58.6715-6.46428 58.6715-7.19213Q58.6715-7.70784 58.5388-8.09689Q58.4061-8.48593 58.1407-8.67091L35.3639-31.4296L21.4532-45.0085L21.0923-44.3369L35.6485-44.1459L94.2591-44.1459Q104.729-44.1459 112.391-40.1415Q120.053-36.1371 124.291-28.9712Q128.529-21.8053 128.529-12.2836Q128.529-2.76497 124.291 4.40999Q120.053 11.5849 112.391 15.5984Q104.729 19.6118 94.2591 19.6118L72.3388 19.6118Q71.5306 19.6118 70.9983 20.1472Q70.466 20.6825 70.466 21.5561Q70.466 22.4327 71.037 23.0067Q71.608 23.5808 72.4162 23.5808L94.4139 23.5808Q105.88 23.5808 114.426 19.0918Q122.972 14.6029 127.696 6.55279Q132.421-1.49727 132.421-12.2565Z"/>
  </g>
  <g id="Ultralight-L" transform="matrix(1 0 0 1 485.748 1556)">
   <path d="M131.823-12.6874Q131.823-23.0634 127.211-30.8747Q122.599-38.686 114.376-43.035Q106.152-47.3841 95.314-47.3841L32.9515-47.3841L19.5075-47.2408L19.6877-47.0697L33.2369-60.7042L57.0425-84.575Q57.1966-84.6379 57.2737-84.9529Q57.3508-85.268 57.3508-85.5286Q57.3508-85.9693 56.9914-86.3234Q56.6319-86.6774 56.1107-86.6774Q55.659-86.6774 55.292-86.3104L16.4292-47.0539Q16.084-46.6869 16.084-46.1548Q16.084-45.714 16.4292-45.3579L55.292-6.10147Q55.659-5.73445 56.1107-5.73445Q56.6319-5.73445 56.9914-6.13412Q57.3508-6.53379 57.3508-6.87238Q57.3508-7.23517 57.2737-7.4991Q57.1966-7.76303 57.0425-7.83679L33.2369-31.7077L19.6877-45.3422L19.5075-45.1711L32.9515-45.1191L94.9681-45.1191Q105.368-45.1191 113.114-41.0382Q120.859-36.9574 125.208-29.6455Q129.558-22.3336 129.558-12.5895Q129.558-2.83448 125.208 4.44474Q120.859 11.724 113.114 15.7722Q105.368 19.8204 94.9681 19.8204L71.4074 19.8204Q70.9884 19.8204 70.6855 20.1124Q70.3825 20.4045 70.3825 20.9583Q70.3825 21.5013 70.7311 21.839Q71.0797 22.1767 71.4987 22.1767L95.1507 22.1767Q106.033 22.1767 114.294 17.8059Q122.555 13.4351 127.189 5.60746Q131.823-2.22017 131.823-12.6874Z"/>
  </g>
  <g id="Black-M" transform="matrix(1 0 0 1 2871.44 1126)">
   <path d="M111.464-19.5597Q111.464-30.8742 106.773-39.4538Q102.082-48.0335 93.7781-52.8625Q85.474-57.6915 74.6083-57.6915L52.8999-57.6915L30.6917-56.6556L35.1235-51.3391L47.8674-61.4469L53.5168-66.949Q54.8897-68.3222 55.8331-69.9911Q56.7765-71.6599 56.7765-73.9844Q56.7765-77.8858 54.2048-80.5459Q51.6331-83.206 47.3839-83.206Q43.4308-83.206 40.3832-80.1584L15.2341-55.0708Q12.4609-52.3087 12.4609-47.8937Q12.4609-43.4783 15.2341-40.7107L40.3832-15.6802Q43.4308-12.6326 47.3839-12.6326Q51.6331-12.6326 54.2048-15.2925Q56.7765-17.9525 56.7765-21.8598Q56.7765-24.1784 55.8331-25.8787Q54.8897-27.579 53.5168-28.8896L47.8674-34.3346L35.1235-44.4424L30.6917-39.1259L52.8999-38.0897L72.9217-38.0897Q78.7079-38.0897 83.0833-35.7185Q87.4587-33.3473 89.946-29.1707Q92.4332-24.9941 92.4332-19.6093Q92.4332-14.23 89.946-10.1511Q87.4587-6.07209 83.0833-3.79853Q78.7079-1.52498 72.9217-1.52498L60.9957-1.52498Q56.7977-1.52498 53.9348 1.34337Q51.072 4.21172 51.072 8.27315Q51.072 12.3401 53.9347 15.2083Q56.7974 18.0765 60.9953 18.0765L74.691 18.0765Q85.5346 18.0765 93.8195 13.4869Q102.104 8.89728 106.784 0.440098Q111.464-8.01708 111.464-19.5597Z"/>
  </g>
  <g id="Heavy-M" transform="matrix(1 0 0 1 2575.53 1126)">
   <path d="M109.864-18.7017Q109.864-29.5515 105.317-37.7798Q100.771-46.0081 92.5868-50.6399Q84.4026-55.2716 73.4748-55.2716L49.1596-55.2716L28.6131-54.3278L32.2141-49.7301L44.7922-59.8893L52.4237-67.3361Q53.613-68.5229 54.4039-69.9676Q55.1948-71.4124 55.1948-73.4181Q55.1948-76.8439 52.9541-79.1582Q50.7133-81.4724 47.0072-81.4724Q43.554-81.4724 40.9063-78.8247L14.9231-53.0128Q12.4609-50.5831 12.4609-46.7623Q12.4609-42.944 14.9231-40.4981L40.9063-14.7298Q43.554-12.082 47.0072-12.082Q50.7133-12.082 52.9541-14.3976Q55.1948-16.7131 55.1948-20.1526Q55.1948-22.1446 54.4039-23.618Q53.613-25.0914 52.4237-26.2184L44.7922-33.6216L32.2141-43.7807L28.6131-39.1831L49.1596-38.2418L72.3612-38.2418Q78.7535-38.2418 83.4284-35.7611Q88.1033-33.2804 90.6866-28.8998Q93.27-24.5191 93.27-18.8478Q93.27-13.1927 90.6866-8.85061Q88.1033-4.50847 83.4284-2.06635Q78.7535 0.375778 72.3612 0.375778L60.5959 0.375778Q56.9195 0.375778 54.4457 2.86588Q51.9718 5.35598 51.9718 8.88256Q51.9718 12.4254 54.4469 14.9167Q56.922 17.408 60.5983 17.408L73.7183 17.408Q84.5812 17.408 92.7086 12.9833Q100.836 8.55854 105.35 0.441791Q109.864-7.67496 109.864-18.7017Z"/>
  </g>
  <g id="Bold-M" transform="matrix(1 0 0 1 2279.71 1126)">
   <path d="M108.073-17.7419Q108.073-28.0718 103.689-35.9072Q99.3044-43.7425 91.2542-48.1535Q83.2041-52.5645 72.2067-52.5645L44.9754-52.5645L26.2878-51.7238L28.9596-47.9302L41.3522-58.1469L51.201-67.7692Q52.1847-68.7474 52.8051-69.9414Q53.4254-71.1355 53.4254-72.7847Q53.4254-75.6783 51.5549-77.6057Q49.6844-79.5332 46.5857-79.5332Q43.6919-79.5332 41.4914-77.3327L14.5752-50.7106Q12.4609-48.6528 12.4609-45.4968Q12.4609-42.3463 14.5752-40.2603L41.4914-13.6667Q43.6919-11.4662 46.5857-11.4662Q49.6844-11.4662 51.5549-13.3964Q53.4254-15.3266 53.4254-18.2429Q53.4254-19.8694 52.8051-21.0891Q52.1847-22.3087 51.201-23.2302L41.3522-32.8239L28.9596-43.0406L26.2878-39.247L44.9754-38.4118L71.7342-38.4118Q78.8045-38.4118 83.8144-35.8087Q88.8243-33.2057 91.5151-28.5967Q94.206-23.9878 94.206-17.996Q94.206-12.0324 91.5151-7.39587Q88.8243-2.75935 83.8144-0.12865Q78.8045 2.50205 71.7342 2.50205L60.1486 2.50205Q57.0558 2.50205 55.0171 4.56903Q52.9783 6.63601 52.9783 9.56428Q52.9783 12.5208 55.0198 14.5905Q57.0613 16.6603 60.1541 16.6603L72.6302 16.6603Q83.5147 16.6603 91.466 12.4199Q99.4173 8.17961 103.745 0.443684Q108.073-7.29224 108.073-17.7419Z"/>
  </g>
  <g id="Semibold-M" transform="matrix(1 0 0 1 1983.62 1126)">
   <path d="M106.839-17.0802Q106.839-27.0517 102.566-34.6162Q98.2932-42.1806 90.3355-46.4395Q82.3778-50.6983 71.3325-50.6983L42.0909-50.6983L24.6848-49.9286L26.7159-46.6894L38.9807-56.9458L50.358-68.0677Q51.2001-68.9022 51.7029-69.9234Q52.2056-70.9446 52.2056-72.348Q52.2056-74.8747 50.5903-76.5355Q48.975-78.1963 46.2952-78.1963Q43.7869-78.1963 41.8947-76.3042L14.3353-49.1234Q12.4609-47.3221 12.4609-44.6243Q12.4609-41.9342 14.3353-40.0963L41.8947-12.9337Q43.7869-11.0416 46.2952-11.0416Q48.975-11.0416 50.5903-12.7062Q52.2056-14.3708 52.2056-16.9264Q52.2056-18.301 51.7029-19.3457Q51.2001-20.3904 50.358-21.1702L38.9807-32.274L26.7159-42.5303L24.6848-39.2911L42.0909-38.5291L71.302-38.5291Q78.8397-38.5291 84.0805-35.8416Q89.3214-33.1541 92.0863-28.3878Q94.8513-23.6216 94.8513-17.4088Q94.8513-11.2324 92.0863-6.39298Q89.3214-1.55351 84.0805 1.20719Q78.8397 3.96788 71.302 3.96788L59.8403 3.96788Q57.1498 3.96788 55.411 5.74317Q53.6722 7.51845 53.6722 10.0343Q53.6722 12.5866 55.4148 14.3657Q57.1574 16.1448 59.8479 16.1448L71.8801 16.1448Q82.7794 16.1448 90.6093 12.0316Q98.4393 7.91838 102.639 0.444989Q106.839-7.0284 106.839-17.0802Z"/>
  </g>
  <g id="Medium-M" transform="matrix(1 0 0 1 1687.37 1126)">
   <path d="M105.903-16.5785Q105.903-26.2783 101.715-33.6373Q97.5265-40.9963 89.6389-45.1398Q81.7513-49.2833 70.6697-49.2833L39.9038-49.2833L23.4694-48.5675L25.0147-45.7486L37.1825-56.035L49.7189-68.2941Q50.4535-69.0196 50.8671-69.9097Q51.2807-70.7998 51.2807-72.0169Q51.2807-74.2654 49.8589-75.724Q48.4372-77.1826 46.0749-77.1826Q43.8589-77.1826 42.2006-75.5243L14.1535-47.92Q12.4609-46.313 12.4609-43.9628Q12.4609-41.6217 14.1535-39.972L42.2006-12.378Q43.8589-10.7196 46.0749-10.7196Q48.4372-10.7196 49.8589-12.1829Q51.2807-13.6461 51.2807-15.9281Q51.2807-17.1117 50.8671-18.0237Q50.4535-18.9358 49.7189-19.6081L37.1825-31.857L25.0147-42.1434L23.4694-39.3245L39.9038-38.618L70.9743-38.618Q78.8664-38.618 84.2823-35.8665Q89.6983-33.115 92.5194-28.2294Q95.3406-23.3439 95.3406-16.9635Q95.3406-10.6259 92.5194-5.63255Q89.6983-0.639192 84.2823 2.22007Q78.8664 5.07934 70.9743 5.07934L59.6065 5.07934Q57.221 5.07934 55.7097 6.63345Q54.1984 8.18756 54.1984 10.3906Q54.1984 12.6364 55.7143 14.1952Q57.2303 15.7539 59.6158 15.7539L71.3113 15.7539Q82.2219 15.7539 89.9598 11.7371Q97.6977 7.7203 101.8 0.445979Q105.903-6.82834 105.903-16.5785Z"/>
  </g>
  <g id="Regular-M" transform="matrix(1 0 0 1 1391.27 1126)">
   <path d="M104.682-15.9241Q104.682-25.2694 100.604-32.3605Q96.5265-39.4516 88.7303-43.4446Q80.9342-47.4376 69.8051-47.4376L37.051-47.4376L21.884-46.792L22.7957-44.5214L34.837-54.847L48.8852-68.5894Q49.4798-69.1726 49.7771-69.8918Q50.0743-70.611 50.0743-71.585Q50.0743-73.4707 48.905-74.6656Q47.7356-75.8604 45.7876-75.8604Q43.9529-75.8604 42.5995-74.507L13.9163-46.3503Q12.4609-44.9969 12.4609-43.0999Q12.4609-41.2142 13.9163-39.8098L42.5995-11.6531Q43.9529-10.2997 45.7876-10.2997Q47.7356-10.2997 48.905-11.5002Q50.0743-12.7008 50.0743-14.6261Q50.0743-15.5605 49.7771-16.2995Q49.4798-17.0385 48.8852-17.5707L34.837-31.3131L22.7957-41.6388L21.884-39.3681L37.051-38.7339L70.5468-38.7339Q78.9012-38.7339 84.5455-35.899Q90.1899-33.064 93.0843-28.0228Q95.9788-22.9816 95.9788-16.3827Q95.9788-9.83475 93.0843-4.64068Q90.1899 0.553394 84.5455 3.54123Q78.9012 6.52907 70.5468 6.52907L59.3016 6.52907Q57.314 6.52907 56.0993 7.79468Q54.8847 9.0603 54.8847 10.8554Q54.8847 12.7015 56.105 13.9728Q57.3253 15.2441 59.3129 15.2441L70.5695 15.2441Q81.4947 15.2441 89.1125 11.353Q96.7303 7.46194 100.706 0.44727Q104.682-6.5674 104.682-15.9241Z"/>
  </g>
  <g id="Light-M" transform="matrix(1 0 0 1 1094.95 1126)">
   <path d="M103.891-16.4944Q103.891-25.435 99.9697-32.2041Q96.0481-38.9732 88.6935-42.773Q81.3389-46.5728 71.0562-46.5728L33.4816-46.5728L19.7865-46.0929L20.459-44.4846L32.022-54.8838L47.4316-70.0981Q47.879-70.5158 48.1027-71.0878Q48.3264-71.6598 48.3264-72.3946Q48.3264-73.8019 47.4331-74.7116Q46.5397-75.6212 45.0701-75.6212Q43.6953-75.6212 42.6731-74.599L13.5483-45.7431Q12.4609-44.7209 12.4609-43.2839Q12.4609-41.8766 13.5483-40.8218L42.6731-11.9659Q43.6953-10.9437 45.0701-10.9437Q46.5397-10.9437 47.4331-11.8682Q48.3264-12.7928 48.3264-14.2029Q48.3264-14.9349 48.1027-15.5083Q47.879-16.0817 47.4316-16.4668L32.022-31.6811L20.459-42.0804L19.7865-40.4721L33.4816-40.0218L71.4851-40.0218Q79.7475-40.0218 85.5023-37.0857Q91.257-34.1495 94.2987-28.9152Q97.3403-23.6808 97.3403-16.7875Q97.3403-9.92675 94.2987-4.59468Q91.257 0.737384 85.5023 3.77122Q79.7475 6.80505 71.4851 6.80505L58.0689 6.80505Q56.5964 6.80505 55.6853 7.74869Q54.7743 8.69232 54.7743 10.0643Q54.7743 11.4688 55.7002 12.4273Q56.6262 13.3858 58.0986 13.3858L71.5446 13.3858Q81.6971 13.3858 88.9377 9.65109Q96.1784 5.91642 100.035-0.803862Q103.891-7.52414 103.891-16.4944Z"/>
  </g>
  <g id="Thin-M" transform="matrix(1 0 0 1 798.763 1126)">
   <path d="M102.845-17.2488Q102.845-25.654 99.1302-31.9973Q95.4154-38.3405 88.6449-41.8848Q81.8743-45.4291 72.7109-45.4291L28.7607-45.4291L17.0124-45.1682L17.3686-44.4359L28.2988-54.9325L45.5092-72.0935Q45.762-72.2922 45.8883-72.6695Q46.0147-73.0468 46.0147-73.4653Q46.0147-74.2399 45.4863-74.7724Q44.9579-75.3049 44.121-75.3049Q43.3546-75.3049 42.7704-74.7207L13.0616-44.9401Q12.4609-44.3559 12.4609-43.5272Q12.4609-42.7526 13.0616-42.1602L42.7704-12.3796Q43.3546-11.7954 44.121-11.7954Q44.9579-11.7954 45.4863-12.3549Q46.0147-12.9144 46.0147-13.6432Q46.0147-14.1075 45.8883-14.4619Q45.762-14.8163 45.5092-15.0068L28.2988-32.1678L17.3686-42.6644L17.0124-41.9321L28.7607-41.7252L72.7262-41.7252Q80.8669-41.7252 86.7676-38.6552Q92.6684-35.5853 95.9047-30.0954Q99.1411-24.6055 99.1411-17.3228Q99.1411-10.0484 95.9047-4.53385Q92.6684 0.980726 86.7676 4.07539Q80.8669 7.17006 72.7262 7.17006L56.4385 7.17006Q55.6474 7.17006 55.1378 7.68785Q54.6283 8.20564 54.6283 9.01789Q54.6283 9.83836 55.1649 10.3832Q55.7015 10.928 56.4925 10.928L72.8343 10.928Q81.9648 10.928 88.7066 7.40018Q95.4483 3.87235 99.1466-2.45859Q102.845-8.78952 102.845-17.2488Z"/>
  </g>
  <g id="Ultralight-M" transform="matrix(1 0 0 1 502.319 1126)">
   <path d="M102.309-17.6352Q102.309-25.7662 98.7002-31.8913Q95.0914-38.0165 88.6199-41.4299Q82.1485-44.8433 73.5585-44.8433L26.3427-44.8433L15.5915-44.6945L15.7857-44.411L26.3919-54.9574L44.5246-73.1156Q44.6776-73.202 44.7541-73.4796Q44.8306-73.7573 44.8306-74.0137Q44.8306-74.4643 44.4892-74.8036Q44.1478-75.1429 43.6349-75.1429Q43.1801-75.1429 42.8203-74.783L12.8123-44.5288Q12.4609-44.169 12.4609-43.6518Q12.4609-43.2013 12.8123-42.8457L42.8203-12.5915Q43.1801-12.2316 43.6349-12.2316Q44.1478-12.2316 44.4892-12.6042Q44.8306-12.9768 44.8306-13.3565Q44.8306-13.6838 44.7541-13.926Q44.6776-14.1682 44.5246-14.2589L26.3919-32.4171L15.7857-42.9635L15.5915-42.6799L26.3427-42.5977L73.3618-42.5977Q81.4402-42.5977 87.4158-39.4592Q93.3913-36.3206 96.7273-30.6999Q100.063-25.0791 100.063-17.597Q100.063-10.1107 96.7273-4.50269Q93.3913 1.10536 87.4158 4.23119Q81.4402 7.35702 73.3618 7.35702L55.6034 7.35702Q55.1613 7.35702 54.8574 7.65669Q54.5535 7.95636 54.5535 8.48194Q54.5535 9.00329 54.8907 9.33623Q55.2278 9.66917 55.6699 9.66917L73.4949 9.66917Q82.1019 9.66917 88.5882 6.24728Q95.0744 2.82539 98.6917-3.30613Q102.309-9.43764 102.309-17.6352Z"/>
  </g>
  <g id="Black-S" transform="matrix(1 0 0 1 2884.62 696)">
   <path d="M87.793-23.2422Q87.793-32.2266 84.082-39.0381Q80.3711-45.8496 73.8525-49.6826Q67.334-53.5156 58.8867-53.5156L42.3828-53.5156L24.5605-52.6855L28.2715-48.3398L38.2812-56.25L42.1875-60.0586Q43.3105-61.1816 44.0918-62.5488Q44.873-63.916 44.873-65.8203Q44.873-68.9941 42.7734-71.167Q40.6738-73.3398 37.207-73.3398Q33.9844-73.3398 31.4941-70.8496L12.0117-51.3672Q9.76562-49.1211 9.76562-45.5078Q9.76562-41.8945 12.0117-39.6484L31.4941-20.2148Q33.9844-17.7246 37.207-17.7246Q40.6738-17.7246 42.7734-19.8975Q44.873-22.0703 44.873-25.2441Q44.873-27.1484 44.0918-28.54Q43.3105-29.9316 42.1875-31.0059L38.2812-34.7656L28.2715-42.6758L24.5605-38.3301L42.3828-37.5L57.373-37.5Q61.7188-37.5 65.0635-35.6689Q68.4082-33.8379 70.3369-30.6152Q72.2656-27.3926 72.2656-23.2422Q72.2656-19.0918 70.3369-15.9668Q68.4082-12.8418 65.0635-11.1084Q61.7188-9.375 57.373-9.375L47.8516-9.375Q44.4336-9.375 42.0898-7.03125Q39.7461-4.6875 39.7461-1.36719Q39.7461 1.95312 42.0898 4.29688Q44.4336 6.64062 47.8516 6.64062L58.8867 6.64062Q67.334 6.64062 73.8525 3.00293Q80.3711-0.634766 84.082-7.34863Q87.793-14.0625 87.793-23.2422Z"/>
  </g>
  <g id="Heavy-S" transform="matrix(1 0 0 1 2588.54 696)">
   <path d="M86.5253-22.4355Q86.5253-31.0741 82.9181-37.6263Q79.3108-44.1786 72.8384-47.8675Q66.3659-51.5565 57.7573-51.5565L39.64-51.5565L23.0508-50.784L26.0818-46.9684L36.0109-54.9132L41.4384-60.1969Q42.4232-61.1816 43.0834-62.376Q43.7436-63.5703 43.7436-65.2326Q43.7436-68.0607 41.8918-69.9742Q40.04-71.8878 36.9765-71.8878Q34.1227-71.8878 31.9321-69.6972L11.7928-49.6846Q9.76562-47.6805 9.76562-44.5167Q9.76562-41.3529 11.7928-39.3373L31.9321-19.362Q34.1227-17.1714 36.9765-17.1714Q40.04-17.1714 41.8918-19.085Q43.7436-20.9985 43.7436-23.8382Q43.7436-25.4889 43.0834-26.7076Q42.4232-27.9264 41.4384-28.8623L36.0109-34.1087L26.0818-42.0535L23.0508-38.2379L39.64-37.4654L56.7738-37.4654Q61.6496-37.4654 65.2363-35.5537Q68.8231-33.642 70.8152-30.2695Q72.8073-26.897 72.8073-22.5392Q72.8073-18.1929 70.8152-14.8604Q68.8231-11.528 65.2363-9.65632Q61.6496-7.78462 56.7738-7.78462L47.6672-7.78462Q44.6295-7.78462 42.5796-5.72322Q40.5298-3.66182 40.5298-0.744866Q40.5298 2.18361 42.5796 4.24501Q44.6295 6.30642 47.6672 6.30642L57.9302 6.30642Q66.4927 6.30642 72.9248 2.78973Q79.3569-0.726961 82.9411-7.18729Q86.5253-13.6476 86.5253-22.4355Z"/>
  </g>
  <g id="Bold-S" transform="matrix(1 0 0 1 2292.54 696)">
   <path d="M85.1074-21.5332Q85.1074-29.7852 81.6162-36.0474Q78.125-42.3096 71.7041-45.8374Q65.2832-49.3652 56.4941-49.3652L36.5723-49.3652L21.3623-48.6572L23.6328-45.4346L33.4717-53.418L40.6006-60.3516Q41.4307-61.1816 41.9556-62.1826Q42.4805-63.1836 42.4805-64.5752Q42.4805-67.0166 40.9058-68.6401Q39.3311-70.2637 36.7188-70.2637Q34.2773-70.2637 32.4219-68.4082L11.5479-47.8027Q9.76562-46.0693 9.76562-43.4082Q9.76562-40.7471 11.5479-38.9893L32.4219-18.4082Q34.2773-16.5527 36.7188-16.5527Q39.3311-16.5527 40.9058-18.1763Q42.4805-19.7998 42.4805-22.2656Q42.4805-23.6328 41.9556-24.6582Q41.4307-25.6836 40.6006-26.4648L33.4717-33.374L23.6328-41.3574L21.3623-38.1348L36.5723-37.4268L56.1035-37.4268Q61.5723-37.4268 65.4297-35.4248Q69.2871-33.4229 71.3501-29.8828Q73.4131-26.3428 73.4131-21.7529Q73.4131-17.1875 71.3501-13.623Q69.2871-10.0586 65.4297-8.03223Q61.5723-6.00586 56.1035-6.00586L47.4609-6.00586Q44.8486-6.00586 43.1274-4.26025Q41.4062-2.51465 41.4062-0.0488281Q41.4062 2.44141 43.1274 4.18701Q44.8486 5.93262 47.4609 5.93262L56.8604 5.93262Q65.5518 5.93262 71.8872 2.55127Q78.2227-0.830078 81.665-7.00684Q85.1074-13.1836 85.1074-21.5332Z"/>
  </g>
  <g id="Semibold-S" transform="matrix(1 0 0 1 1996.32 696)">
   <path d="M84.1299-20.9111Q84.1299-28.8965 80.7187-34.9587Q77.3074-41.021 70.9221-44.4377Q64.5367-47.8545 55.6232-47.8545L34.4572-47.8545L20.1981-47.1909L21.9443-44.3771L31.721-52.3871L40.0229-60.4582Q40.7464-61.1816 41.178-62.0493Q41.6096-62.917 41.6096-64.122Q41.6096-66.2968 40.2259-67.7204Q38.8423-69.1439 36.541-69.1439Q34.384-69.1439 32.7596-67.5195L11.379-46.5053Q9.76562-44.9585 9.76562-42.6439Q9.76562-40.3294 11.379-38.7493L32.7596-17.7506Q34.384-16.1262 36.541-16.1262Q38.8423-16.1262 40.2259-17.5498Q41.6096-18.9733 41.6096-21.1814Q41.6096-22.3531 41.178-23.2452Q40.7464-24.1373 40.0229-24.8119L31.721-32.8675L21.9443-40.8775L20.1981-38.0637L34.4572-37.4001L55.6414-37.4001Q61.5189-37.4001 65.563-35.3359Q69.607-33.2718 71.7189-29.6162Q73.8308-25.9606 73.8308-21.2108Q73.8308-16.4943 71.7189-12.7699Q69.607-9.04551 65.563-6.9125Q61.5189-4.77949 55.6414-4.77949L47.3188-4.77949Q44.9997-4.77949 43.5051-3.25161Q42.0105-1.72373 42.0105 0.431055Q42.0105 2.61914 43.5051 4.14702Q44.9997 5.6749 47.3188 5.6749L56.1228 5.6749Q64.903 5.6749 71.1718 2.38687Q77.4406-0.901172 80.7853-6.88242Q84.1299-12.8637 84.1299-20.9111Z"/>
  </g>
  <g id="Medium-S" transform="matrix(1 0 0 1 1699.98 696)">
   <path d="M83.3887-20.4395Q83.3887-28.2227 80.0381-34.1333Q76.6875-40.0439 70.3291-43.3765Q63.9707-46.709 54.9629-46.709L32.8535-46.709L19.3154-46.0791L20.6641-43.5752L30.3936-51.6055L39.585-60.5391Q40.2275-61.1816 40.5884-61.9482Q40.9492-62.7148 40.9492-63.7783Q40.9492-65.751 39.7104-67.0229Q38.4717-68.2949 36.4062-68.2949Q34.4648-68.2949 33.0156-66.8457L11.251-45.5215Q9.76562-44.1162 9.76562-42.0645Q9.76562-40.0127 11.251-38.5674L33.0156-17.252Q34.4648-15.8027 36.4062-15.8027Q38.4717-15.8027 39.7104-17.0747Q40.9492-18.3467 40.9492-20.3594Q40.9492-21.3828 40.5884-22.1738Q40.2275-22.9648 39.585-23.5586L30.3936-32.4834L20.6641-40.5137L19.3154-38.0098L32.8535-37.3799L55.291-37.3799Q61.4785-37.3799 65.6641-35.2686Q69.8496-33.1572 71.9985-29.4141Q74.1475-25.6709 74.1475-20.7998Q74.1475-15.9688 71.9985-12.123Q69.8496-8.27734 65.6641-6.06348Q61.4785-3.84961 55.291-3.84961L47.2109-3.84961Q45.1143-3.84961 43.7915-2.48682Q42.4688-1.12402 42.4688 0.794922Q42.4688 2.75391 43.7915 4.1167Q45.1143 5.47949 47.2109 5.47949L55.5635 5.47949Q64.4111 5.47949 70.6294 2.26221Q76.8477-0.955078 80.1182-6.78809Q83.3887-12.6211 83.3887-20.4395Z"/>
  </g>
  <g id="Regular-S" transform="matrix(1 0 0 1 1403.75 696)">
   <path d="M82.4219-19.8242Q82.4219-27.3438 79.1504-33.0566Q75.8789-38.7695 69.5557-41.9922Q63.2324-45.2148 54.1016-45.2148L30.7617-45.2148L18.1641-44.6289L18.9941-42.5293L28.6621-50.5859L39.0137-60.6445Q39.5508-61.1816 39.8193-61.8164Q40.0879-62.4512 40.0879-63.3301Q40.0879-65.0391 39.0381-66.1133Q37.9883-67.1875 36.2305-67.1875Q34.5703-67.1875 33.3496-65.9668L11.084-44.2383Q9.76562-43.0176 9.76562-41.3086Q9.76562-39.5996 11.084-38.3301L33.3496-16.6016Q34.5703-15.3809 36.2305-15.3809Q37.9883-15.3809 39.0381-16.4551Q40.0879-17.5293 40.0879-19.2871Q40.0879-20.1172 39.8193-20.7764Q39.5508-21.4355 39.0137-21.9238L28.6621-31.9824L18.9941-40.0391L18.1641-37.9395L30.7617-37.3535L54.834-37.3535Q61.4258-37.3535 65.7959-35.1807Q70.166-33.0078 72.3633-29.1504Q74.5605-25.293 74.5605-20.2637Q74.5605-15.2832 72.3633-11.2793Q70.166-7.27539 65.7959-4.95605Q61.4258-2.63672 54.834-2.63672L47.0703-2.63672Q45.2637-2.63672 44.165-1.48926Q43.0664-0.341797 43.0664 1.26953Q43.0664 2.92969 44.165 4.07715Q45.2637 5.22461 47.0703 5.22461L54.834 5.22461Q63.7695 5.22461 69.9219 2.09961Q76.0742-1.02539 79.248-6.66504Q82.4219-12.3047 82.4219-19.8242Z"/>
  </g>
  <g id="Light-S" transform="matrix(1 0 0 1 1107.39 696)">
   <path d="M81.722-20.3288Q81.722-27.4902 78.5889-32.9183Q75.4557-38.3464 69.5231-41.3981Q63.5905-44.4499 55.2083-44.4499L27.6042-44.4499L16.3086-44.0104L16.9271-42.4967L26.1719-50.6185L37.7279-61.9792Q38.1348-62.3698 38.3382-62.8743Q38.5417-63.3789 38.5417-64.0462Q38.5417-65.332 37.736-66.154Q36.9303-66.9759 35.5957-66.9759Q34.3424-66.9759 33.4147-66.0482L10.7585-43.7012Q9.76562-42.7734 9.76562-41.4714Q9.76562-40.1855 10.7585-39.2253L33.4147-16.8783Q34.3424-15.9505 35.5957-15.9505Q36.9303-15.9505 37.736-16.7806Q38.5417-17.6107 38.5417-18.9128Q38.5417-19.5638 38.3382-20.0765Q38.1348-20.5892 37.7279-20.9473L26.1719-32.3079L16.9271-40.4297L16.3086-38.916L27.6042-38.4928L55.6641-38.4928Q62.1745-38.4928 66.6423-36.2305Q71.11-33.9681 73.4375-29.9398Q75.765-25.9115 75.765-20.6217Q75.765-15.3646 73.4375-11.2386Q71.11-7.11263 66.6423-4.7526Q62.1745-2.39258 55.6641-2.39258L45.9798-2.39258Q44.6289-2.39258 43.7988-1.52995Q42.9688-0.667318 42.9688 0.569661Q42.9688 1.83919 43.807 2.70996Q44.6452 3.58073 45.9961 3.58073L55.6966 3.58073Q63.9486 3.58073 69.7673 0.594076Q75.5859-2.39258 78.654-7.77181Q81.722-13.151 81.722-20.3288Z"/>
  </g>
  <g id="Thin-S" transform="matrix(1 0 0 1 811.137 696)">
   <path d="M80.7964-20.9961Q80.7964-27.684 77.8462-32.7353Q74.896-37.7867 69.4801-40.6124Q64.0641-43.4381 56.6721-43.4381L23.428-43.4381L13.8546-43.1924L14.1932-42.4537L22.8783-50.6615L36.0273-63.7443Q36.262-63.9412 36.3793-64.2736Q36.4967-64.6059 36.4967-64.9934Q36.4967-65.7195 36.0139-66.2078Q35.5311-66.6961 34.7562-66.6961Q34.0411-66.6961 33.5008-66.1558L10.3279-42.9908Q9.76562-42.4505 9.76562-41.6866Q9.76562-40.9605 10.3279-40.4092L33.5008-17.2442Q34.0411-16.7039 34.7562-16.7039Q35.5311-16.7039 36.0139-17.2111Q36.4967-17.7183 36.4967-18.4177Q36.4967-18.8319 36.3793-19.1509Q36.262-19.4698 36.0273-19.6557L22.8783-32.7385L14.1932-40.9463L13.8546-40.2076L23.428-39.9997L56.7619-39.9997Q63.1647-39.9997 67.7616-37.6189Q72.3586-35.2382 74.8582-30.9838Q77.3579-26.7295 77.3579-21.0953Q77.3579-15.4722 74.8582-11.1848Q72.3586-6.89737 67.7616-4.48352Q63.1647-2.06968 56.7619-2.06968L44.5376-2.06968Q43.7894-2.06968 43.3145-1.58376Q42.8396-1.09785 42.8396-0.355973Q42.8396 0.396925 43.3334 0.901745Q43.8272 1.40657 44.5754 1.40657L56.8375 1.40657Q64.1854 1.40657 69.5628-1.39711Q74.9401-4.20079 77.8683-9.2356Q80.7964-14.2704 80.7964-20.9961Z"/>
  </g>
  <g id="Ultralight-S" transform="matrix(1 0 0 1 514.662 696)">
   <path d="M80.3223-21.3379Q80.3223-27.7832 77.4658-32.6416Q74.6094-37.5 69.458-40.21Q64.3066-42.9199 57.4219-42.9199L21.2891-42.9199L12.5977-42.7734L12.793-42.4316L21.1914-50.6836L35.1562-64.6484Q35.3027-64.7461 35.376-64.9902Q35.4492-65.2344 35.4492-65.4785Q35.4492-65.918 35.1318-66.2354Q34.8145-66.5527 34.3262-66.5527Q33.8867-66.5527 33.5449-66.2109L10.1074-42.627Q9.76562-42.2852 9.76562-41.7969Q9.76562-41.3574 10.1074-41.0156L33.5449-17.4316Q33.8867-17.0898 34.3262-17.0898Q34.8145-17.0898 35.1318-17.4316Q35.4492-17.7734 35.4492-18.1641Q35.4492-18.457 35.376-18.6768Q35.3027-18.8965 35.1562-18.9941L21.1914-32.959L12.793-41.2109L12.5977-40.8691L21.2891-40.7715L57.3242-40.7715Q63.6719-40.7715 68.335-38.3301Q72.998-35.8887 75.5859-31.5186Q78.1738-27.1484 78.1738-21.3379Q78.1738-15.5273 75.5859-11.1572Q72.998-6.78711 68.335-4.3457Q63.6719-1.9043 57.3242-1.9043L43.7988-1.9043Q43.3594-1.9043 43.0664-1.61133Q42.7734-1.31836 42.7734-0.830078Q42.7734-0.341797 43.0908-0.0244141Q43.4082 0.292969 43.8477 0.292969L57.4219 0.292969Q64.3066 0.292969 69.458-2.41699Q74.6094-5.12695 77.4658-9.98535Q80.3223-14.8438 80.3223-21.3379Z"/>
  </g>
 </g>
</svg>
