<?xml version="1.0" encoding="UTF-8"?>
<!--Generator: Apple Native CoreSVG 175.5-->
<!DOCTYPE svg
PUBLIC "-//W3C//DTD SVG 1.1//EN"
       "http://www.w3.org/Graphics/SVG/1.1/DTD/svg11.dtd">
<svg version="1.1" xmlns="http://www.w3.org/2000/svg" xmlns:xlink="http://www.w3.org/1999/xlink" width="3300" height="2200">
 <!--glyph: "uni100927.medium", point size: 100.0, font version: "18.0d10e1", template writer version: "90"-->
 <g id="Notes">
  <rect height="2200" id="artboard" style="fill:white;opacity:1" width="3300" x="0" y="0"/>
  <line style="fill:none;stroke:black;opacity:1;stroke-width:0.5;" x1="263" x2="3036" y1="292" y2="292"/>
  <text style="stroke:none;fill:black;font-family:sans-serif;font-size:13;font-weight:bold;" transform="matrix(1 0 0 1 263 322)">Weight/Scale Variations</text>
  <text style="stroke:none;fill:black;font-family:sans-serif;font-size:13;text-anchor:middle;" transform="matrix(1 0 0 1 559.711 322)">Ultralight</text>
  <text style="stroke:none;fill:black;font-family:sans-serif;font-size:13;text-anchor:middle;" transform="matrix(1 0 0 1 856.422 322)">Thin</text>
  <text style="stroke:none;fill:black;font-family:sans-serif;font-size:13;text-anchor:middle;" transform="matrix(1 0 0 1 1153.13 322)">Light</text>
  <text style="stroke:none;fill:black;font-family:sans-serif;font-size:13;text-anchor:middle;" transform="matrix(1 0 0 1 1449.84 322)">Regular</text>
  <text style="stroke:none;fill:black;font-family:sans-serif;font-size:13;text-anchor:middle;" transform="matrix(1 0 0 1 1746.56 322)">Medium</text>
  <text style="stroke:none;fill:black;font-family:sans-serif;font-size:13;text-anchor:middle;" transform="matrix(1 0 0 1 2043.27 322)">Semibold</text>
  <text style="stroke:none;fill:black;font-family:sans-serif;font-size:13;text-anchor:middle;" transform="matrix(1 0 0 1 2339.98 322)">Bold</text>
  <text style="stroke:none;fill:black;font-family:sans-serif;font-size:13;text-anchor:middle;" transform="matrix(1 0 0 1 2636.69 322)">Heavy</text>
  <text style="stroke:none;fill:black;font-family:sans-serif;font-size:13;text-anchor:middle;" transform="matrix(1 0 0 1 2933.4 322)">Black</text>
  <line style="fill:none;stroke:black;opacity:1;stroke-width:0.5;" x1="263" x2="3036" y1="1903" y2="1903"/>
  <g transform="matrix(1 0 0 1 263 1933)">
   <path d="M9.24805 0.830078C13.5547 0.830078 17.1387-2.74414 17.1387-7.05078C17.1387-11.3574 13.5449-14.9316 9.23828-14.9316C4.94141-14.9316 1.36719-11.3574 1.36719-7.05078C1.36719-2.74414 4.95117 0.830078 9.24805 0.830078ZM9.24805-0.654297C5.70312-0.654297 2.87109-3.49609 2.87109-7.05078C2.87109-10.6055 5.69336-13.4473 9.23828-13.4473C12.793-13.4473 15.6445-10.6055 15.6445-7.05078C15.6445-3.49609 12.8027-0.654297 9.24805-0.654297ZM5.6543-7.05078C5.6543-6.62109 5.95703-6.32812 6.40625-6.32812L8.50586-6.32812L8.50586-4.20898C8.50586-3.76953 8.79883-3.4668 9.22852-3.4668C9.67773-3.4668 9.9707-3.76953 9.9707-4.20898L9.9707-6.32812L12.0898-6.32812C12.5293-6.32812 12.832-6.62109 12.832-7.05078C12.832-7.49023 12.5293-7.79297 12.0898-7.79297L9.9707-7.79297L9.9707-9.90234C9.9707-10.3516 9.67773-10.6543 9.22852-10.6543C8.79883-10.6543 8.50586-10.3516 8.50586-9.90234L8.50586-7.79297L6.40625-7.79297C5.95703-7.79297 5.6543-7.49023 5.6543-7.05078Z"/>
  </g>
  <g transform="matrix(1 0 0 1 281.867 1933)">
   <path d="M11.709 2.91016C17.1582 2.91016 21.6699-1.61133 21.6699-7.05078C21.6699-12.5 17.1484-17.0117 11.6992-17.0117C6.25977-17.0117 1.74805-12.5 1.74805-7.05078C1.74805-1.61133 6.26953 2.91016 11.709 2.91016ZM11.709 1.25C7.09961 1.25 3.41797-2.44141 3.41797-7.05078C3.41797-11.6602 7.08984-15.3516 11.6992-15.3516C16.3086-15.3516 20.0098-11.6602 20.0098-7.05078C20.0098-2.44141 16.3184 1.25 11.709 1.25ZM7.17773-7.05078C7.17773-6.57227 7.50977-6.25 8.00781-6.25L10.8789-6.25L10.8789-3.36914C10.8789-2.88086 11.2109-2.53906 11.6895-2.53906C12.1777-2.53906 12.5195-2.87109 12.5195-3.36914L12.5195-6.25L15.4004-6.25C15.8887-6.25 16.2305-6.57227 16.2305-7.05078C16.2305-7.53906 15.8887-7.88086 15.4004-7.88086L12.5195-7.88086L12.5195-10.752C12.5195-11.25 12.1777-11.5918 11.6895-11.5918C11.2109-11.5918 10.8789-11.25 10.8789-10.752L10.8789-7.88086L8.00781-7.88086C7.50977-7.88086 7.17773-7.53906 7.17773-7.05078Z"/>
  </g>
  <g transform="matrix(1 0 0 1 305.646 1933)">
   <path d="M14.9707 5.66406C21.9336 5.66406 27.6953-0.0976562 27.6953-7.05078C27.6953-14.0137 21.9238-19.7754 14.9609-19.7754C8.00781-19.7754 2.25586-14.0137 2.25586-7.05078C2.25586-0.0976562 8.01758 5.66406 14.9707 5.66406ZM14.9707 3.84766C8.93555 3.84766 4.08203-1.01562 4.08203-7.05078C4.08203-13.0957 8.92578-17.9492 14.9609-17.9492C21.0059-17.9492 25.8691-13.0957 25.8691-7.05078C25.8691-1.01562 21.0156 3.84766 14.9707 3.84766ZM9.19922-7.05078C9.19922-6.5332 9.57031-6.17188 10.1172-6.17188L14.0625-6.17188L14.0625-2.2168C14.0625-1.67969 14.4336-1.29883 14.9512-1.29883C15.4883-1.29883 15.8594-1.66992 15.8594-2.2168L15.8594-6.17188L19.8145-6.17188C20.3516-6.17188 20.7324-6.5332 20.7324-7.05078C20.7324-7.59766 20.3613-7.96875 19.8145-7.96875L15.8594-7.96875L15.8594-11.9141C15.8594-12.4609 15.4883-12.8418 14.9512-12.8418C14.4336-12.8418 14.0625-12.4609 14.0625-11.9141L14.0625-7.96875L10.1172-7.96875C9.57031-7.96875 9.19922-7.59766 9.19922-7.05078Z"/>
  </g>
  <text style="stroke:none;fill:black;font-family:sans-serif;font-size:13;font-weight:bold;" transform="matrix(1 0 0 1 263 1953)">Design Variations</text>
  <text style="stroke:none;fill:black;font-family:sans-serif;font-size:13;" transform="matrix(1 0 0 1 263 1971)">Symbols are supported in up to nine weights and three scales.</text>
  <text style="stroke:none;fill:black;font-family:sans-serif;font-size:13;" transform="matrix(1 0 0 1 263 1989)">For optimal layout with text and other symbols, vertically align</text>
  <text style="stroke:none;fill:black;font-family:sans-serif;font-size:13;" transform="matrix(1 0 0 1 263 2007)">symbols with the adjacent text.</text>
  <line style="fill:none;stroke:#00AEEF;stroke-width:0.5;opacity:1.0;" x1="776" x2="776" y1="1919" y2="1933"/>
  <g transform="matrix(1 0 0 1 776 1933)">
   <path d="M3.31055 0.15625C3.82812 0.15625 4.08203-0.0390625 4.26758-0.585938L5.52734-4.0332L11.2891-4.0332L12.5488-0.585938C12.7344-0.0390625 12.9883 0.15625 13.4961 0.15625C14.0137 0.15625 14.3457-0.15625 14.3457-0.644531C14.3457-0.810547 14.3164-0.966797 14.2383-1.17188L9.6582-13.3691C9.43359-13.9648 9.0332-14.2676 8.4082-14.2676C7.80273-14.2676 7.39258-13.9746 7.17773-13.3789L2.59766-1.16211C2.51953-0.957031 2.49023-0.800781 2.49023-0.634766C2.49023-0.146484 2.80273 0.15625 3.31055 0.15625ZM6.00586-5.51758L8.37891-12.0898L8.42773-12.0898L10.8008-5.51758Z"/>
  </g>
  <line style="fill:none;stroke:#00AEEF;stroke-width:0.5;opacity:1.0;" x1="793.197" x2="793.197" y1="1919" y2="1933"/>
  <text style="stroke:none;fill:black;font-family:sans-serif;font-size:13;font-weight:bold;" transform="matrix(1 0 0 1 776 1953)">Margins</text>
  <text style="stroke:none;fill:black;font-family:sans-serif;font-size:13;" transform="matrix(1 0 0 1 776 1971)">Leading and trailing margins on the left and right side of each symbol</text>
  <text style="stroke:none;fill:black;font-family:sans-serif;font-size:13;" transform="matrix(1 0 0 1 776 1989)">can be adjusted by modifying the x-location of the margin guidelines.</text>
  <text style="stroke:none;fill:black;font-family:sans-serif;font-size:13;" transform="matrix(1 0 0 1 776 2007)">Modifications are automatically applied proportionally to all</text>
  <text style="stroke:none;fill:black;font-family:sans-serif;font-size:13;" transform="matrix(1 0 0 1 776 2025)">scales and weights.</text>
  <g transform="matrix(1 0 0 1 1289 1933)">
   <path d="M2.8418 1.86523L4.54102 3.57422C5.40039 4.44336 6.38672 4.38477 7.31445 3.35938L18.0078-8.42773L17.041-9.4043L6.42578 2.27539C6.07422 2.67578 5.74219 2.77344 5.27344 2.30469L4.10156 1.14258C3.63281 0.683594 3.74023 0.341797 4.14062-0.0195312L15.6152-10.8203L14.6387-11.7871L3.04688-0.898438C2.06055 0.0195312 1.98242 0.996094 2.8418 1.86523ZM9.25781-16.3281C8.83789-15.918 8.80859-15.3418 9.04297-14.9512C9.27734-14.5898 9.73633-14.3555 10.3809-14.5215C11.8457-14.8633 13.3691-14.9219 14.7949-13.9844L14.209-12.5293C13.8672-11.6992 14.043-11.1133 14.5801-10.5664L16.875-8.25195C17.3633-7.76367 17.7734-7.74414 18.3398-7.8418L19.4043-8.03711L20.0684-7.36328L20.0293-6.80664C19.9902-6.30859 20.1172-5.92773 20.6055-5.44922L21.3672-4.70703C21.8457-4.22852 22.4609-4.19922 22.9297-4.66797L25.8398-7.58789C26.3086-8.05664 26.2891-8.65234 25.8105-9.13086L25.0391-9.89258C24.5605-10.3711 24.1895-10.5273 23.7109-10.4883L23.1348-10.4395L22.4902-11.0742L22.7344-12.1973C22.8613-12.7637 22.7051-13.2031 22.1191-13.7891L19.9219-15.9766C16.582-19.2969 12.1484-19.2188 9.25781-16.3281ZM10.752-15.957C13.1836-17.7344 16.4746-17.4316 18.7012-15.2051L21.1328-12.793C21.3672-12.5586 21.4062-12.373 21.3379-12.0312L21.0156-10.5469L22.5195-9.0625L23.5059-9.12109C23.7598-9.13086 23.8379-9.11133 24.0332-8.91602L24.6094-8.33984L22.168-5.89844L21.5918-6.47461C21.3965-6.66992 21.3672-6.74805 21.377-7.01172L21.4453-7.98828L19.9512-9.47266L18.4277-9.21875C18.1055-9.15039 17.959-9.17969 17.7148-9.41406L15.7129-11.416C15.459-11.6504 15.4297-11.8164 15.5859-12.1875L16.4648-14.2773C14.9023-15.7324 12.8711-16.3574 10.8398-15.7617C10.6836-15.7227 10.625-15.8496 10.752-15.957Z"/>
  </g>
  <text style="stroke:none;fill:black;font-family:sans-serif;font-size:13;font-weight:bold;" transform="matrix(1 0 0 1 1289 1953)">Exporting</text>
  <text style="stroke:none;fill:black;font-family:sans-serif;font-size:13;" transform="matrix(1 0 0 1 1289 1971)">Symbols should be outlined when exporting to ensure the</text>
  <text style="stroke:none;fill:black;font-family:sans-serif;font-size:13;" transform="matrix(1 0 0 1 1289 1989)">design is preserved when submitting to Xcode.</text>
  <text id="template-version" style="stroke:none;fill:black;font-family:sans-serif;font-size:13;text-anchor:end;" transform="matrix(1 0 0 1 3036 1933)">Template v.4.0</text>
  <text style="stroke:none;fill:black;font-family:sans-serif;font-size:13;text-anchor:end;" transform="matrix(1 0 0 1 3036 1951)">Requires Xcode 14 or greater</text>
  <text id="descriptive-name" style="stroke:none;fill:black;font-family:sans-serif;font-size:13;text-anchor:end;" transform="matrix(1 0 0 1 3036 1969)">Generated from doc.zipper</text>
  <text style="stroke:none;fill:black;font-family:sans-serif;font-size:13;text-anchor:end;" transform="matrix(1 0 0 1 3036 1987)">Typeset at 100 points</text>
  <text style="stroke:none;fill:black;font-family:sans-serif;font-size:13;" transform="matrix(1 0 0 1 263 726)">Small</text>
  <text style="stroke:none;fill:black;font-family:sans-serif;font-size:13;" transform="matrix(1 0 0 1 263 1156)">Medium</text>
  <text style="stroke:none;fill:black;font-family:sans-serif;font-size:13;" transform="matrix(1 0 0 1 263 1586)">Large</text>
 </g>
 <g id="Guides">
  <g id="H-reference" style="fill:#27AAE1;stroke:none;" transform="matrix(1 0 0 1 339 696)">
   <path d="M0.993654 0L3.63775 0L29.3281-67.1323L30.0303-67.1323L30.0303-70.459L28.1226-70.459ZM11.6885-24.4799L46.9815-24.4799L46.2315-26.7285L12.4385-26.7285ZM55.1196 0L57.7637 0L30.6382-70.459L29.4326-70.459L29.4326-67.1323Z"/>
  </g>
  <line id="Baseline-S" style="fill:none;stroke:#27AAE1;opacity:1;stroke-width:0.5;" x1="263" x2="3036" y1="696" y2="696"/>
  <line id="Capline-S" style="fill:none;stroke:#27AAE1;opacity:1;stroke-width:0.5;" x1="263" x2="3036" y1="625.541" y2="625.541"/>
  <g id="H-reference" style="fill:#27AAE1;stroke:none;" transform="matrix(1 0 0 1 339 1126)">
   <path d="M0.993654 0L3.63775 0L29.3281-67.1323L30.0303-67.1323L30.0303-70.459L28.1226-70.459ZM11.6885-24.4799L46.9815-24.4799L46.2315-26.7285L12.4385-26.7285ZM55.1196 0L57.7637 0L30.6382-70.459L29.4326-70.459L29.4326-67.1323Z"/>
  </g>
  <line id="Baseline-M" style="fill:none;stroke:#27AAE1;opacity:1;stroke-width:0.5;" x1="263" x2="3036" y1="1126" y2="1126"/>
  <line id="Capline-M" style="fill:none;stroke:#27AAE1;opacity:1;stroke-width:0.5;" x1="263" x2="3036" y1="1055.54" y2="1055.54"/>
  <g id="H-reference" style="fill:#27AAE1;stroke:none;" transform="matrix(1 0 0 1 339 1556)">
   <path d="M0.993654 0L3.63775 0L29.3281-67.1323L30.0303-67.1323L30.0303-70.459L28.1226-70.459ZM11.6885-24.4799L46.9815-24.4799L46.2315-26.7285L12.4385-26.7285ZM55.1196 0L57.7637 0L30.6382-70.459L29.4326-70.459L29.4326-67.1323Z"/>
  </g>
  <line id="Baseline-L" style="fill:none;stroke:#27AAE1;opacity:1;stroke-width:0.5;" x1="263" x2="3036" y1="1556" y2="1556"/>
  <line id="Capline-L" style="fill:none;stroke:#27AAE1;opacity:1;stroke-width:0.5;" x1="263" x2="3036" y1="1485.54" y2="1485.54"/>
  <line id="left-margin-Regular-M" style="fill:none;stroke:#00AEEF;stroke-width:0.5;opacity:1.0;" x1="1396.32" x2="1396.32" y1="1030.79" y2="1150.12"/>
  <line id="right-margin-Regular-M" style="fill:none;stroke:#00AEEF;stroke-width:0.5;opacity:1.0;" x1="1503.37" x2="1503.37" y1="1030.79" y2="1150.12"/>
 </g>
 <g id="Symbols">
  <g id="Black-L" transform="matrix(1 0 0 1 2859.72 1556)">
   <path d="M16.084 11.4202C16.084 26.5843 24.6707 35.1919 39.7724 35.1919L107.573 35.1919C122.676 35.1919 131.282 26.5843 131.282 11.4202L131.282-81.838C131.282-96.9813 122.676-105.61 107.573-105.61L39.7724-105.61C24.6707-105.61 16.084-96.9813 16.084-81.838ZM36.065 8.68947L36.065-79.1073C36.065-83.4232 37.9952-85.6286 42.628-85.6286L104.738-85.6286C109.35-85.6286 111.282-83.4232 111.282-79.1073L111.282 8.68947C111.282 13.0054 109.35 15.2108 104.738 15.2108L42.628 15.2108C37.9952 15.2108 36.065 13.0054 36.065 8.68947ZM67.7469 24.527L79.6192 24.527L79.6192-58.8724L67.7469-58.8724ZM73.6831-56.2298C85.1103-56.2298 92.2091-62.9742 92.2091-73.9845C92.2091-75.9241 91.9691-78.0711 91.5098-80.0924L85.4122-106.26C84.562-109.957 81.5373-112.309 77.6236-112.309L69.7425-112.309C65.83-112.309 62.8041-109.957 61.9331-106.26L55.8564-80.0924C55.397-78.0711 55.157-75.9241 55.157-73.9845C55.157-62.9742 62.2559-56.2298 73.6831-56.2298ZM73.6831-67.6691C70.023-67.6691 67.1803-70.5118 67.1803-74.1718C67.1803-77.8259 70.029-80.6746 73.6831-80.6746C77.3163-80.6746 80.187-77.8259 80.187-74.1718C80.187-70.4534 77.4223-67.6691 73.6831-67.6691ZM73.6831-43.1809L88.1062-43.1809C90.9269-43.1809 93.1103-45.3851 93.1103-48.2618C93.1103-51.0021 90.9269-53.2063 88.1062-53.2063L73.6831-53.2063ZM59.2599-35.9275L73.6831-35.9275L73.6831-46.0101L59.2599-46.0101C56.4392-46.0101 54.2558-43.8071 54.2558-41.0668C54.2558-38.1888 56.4392-35.9275 59.2599-35.9275ZM73.6831-27.5619L88.1062-27.5619C90.9269-27.5619 93.1103-29.8245 93.1103-32.644C93.1103-35.4415 90.9269-37.6248 88.1062-37.6248L73.6831-37.6248ZM59.2599-20.3668L73.6831-20.3668L73.6831-30.3702L59.2599-30.3702C56.4392-30.3702 54.2558-28.2464 54.2558-25.4477C54.2558-22.6294 56.4392-20.3668 59.2599-20.3668ZM73.6831-12.0036L88.1062-12.0036C90.9269-12.0036 93.1103-14.2066 93.1103-17.0845C93.1103-19.8236 90.9269-22.007 88.1062-22.007L73.6831-22.007ZM59.2599-4.74776L73.6831-4.74776L73.6831-14.8107L59.2599-14.8107C56.4392-14.8107 54.2558-12.6274 54.2558-9.82867C54.2558-7.01033 56.4392-4.74776 59.2599-4.74776ZM73.6831 3.61543L88.1062 3.61543C90.9269 3.61543 93.1103 1.35406 93.1103-1.46547C93.1103-4.26299 90.9269-6.44634 88.1062-6.44634L73.6831-6.44634ZM59.2599 11.397L73.6831 11.397L73.6831 1.39239L59.2599 1.39239C56.4392 1.39239 54.2558 3.57574 54.2558 6.31605C54.2558 9.19279 56.4392 11.397 59.2599 11.397Z"/>
  </g>
  <g id="Heavy-L" transform="matrix(1 0 0 1 2564.15 1556)">
   <path d="M16.084 11.7397C16.084 26.3825 24.1584 34.4871 38.7107 34.4871L106.333 34.4871C120.891 34.4871 128.99 26.3825 128.99 11.7397L128.99-82.1674C128.99-96.78 120.891-104.915 106.333-104.915L38.7107-104.915C24.1584-104.915 16.084-96.78 16.084-82.1674ZM33.5844 9.61542L33.5844-80.0431C33.5844-84.8809 35.8791-87.4144 41.0161-87.4144L104.058-87.4144C109.165-87.4144 111.465-84.8809 111.465-80.0431L111.465 9.61542C111.465 14.4531 109.165 16.9867 104.058 16.9867L41.0161 16.9867C35.8791 16.9867 33.5844 14.4531 33.5844 9.61542ZM67.1414 25.3123L77.9328 25.3123L77.9328-59.6529L67.1414-59.6529ZM72.5371-57.0787C83.4662-57.0787 90.2143-63.5131 90.2143-74.038C90.2143-75.9187 89.9787-77.9486 89.5376-79.9153L83.493-105.967C82.7294-109.291 79.9954-111.406 76.4777-111.406L68.5965-111.406C65.0845-111.406 62.3448-109.291 61.551-105.967L55.5367-79.9153C55.0955-77.9486 54.8599-75.9187 54.8599-74.038C54.8599-63.5131 61.608-57.0787 72.5371-57.0787ZM72.5371-67.6866C68.7926-67.6866 65.914-70.5652 65.914-74.3097C65.914-78.0261 68.8207-80.9327 72.5371-80.9327C76.2234-80.9327 79.1658-78.0261 79.1658-74.3097C79.1658-70.5205 76.3564-67.6866 72.5371-67.6866ZM72.5371-43.7102L87.0905-43.7102C89.7446-43.7102 91.7834-45.7792 91.7834-48.4667C91.7834-51.0404 89.7446-53.1094 87.0905-53.1094L72.5371-53.1094ZM57.9837-36.1292L72.5371-36.1292L72.5371-45.5674L57.9837-45.5674C55.3296-45.5674 53.2908-43.504 53.2908-40.9303C53.2908-38.2372 55.3296-36.1292 57.9837-36.1292ZM72.5371-27.689L87.0905-27.689C89.7446-27.689 91.7834-29.8027 91.7834-32.4511C91.7834-35.0638 89.7446-37.1027 87.0905-37.1027L72.5371-37.1027ZM57.9837-20.1526L72.5371-20.1526L72.5371-29.516L57.9837-29.516C55.3296-29.516 53.2908-27.5274 53.2908-24.9091C53.2908-22.2662 55.3296-20.1526 57.9837-20.1526ZM72.5371-11.7237L87.0905-11.7237C89.7446-11.7237 91.7834-13.7871 91.7834-16.4802C91.7834-19.0482 89.7446-21.0871 87.0905-21.0871L72.5371-21.0871ZM57.9837-4.13137L72.5371-4.13137L72.5371-13.545L57.9837-13.545C55.3296-13.545 53.2908-11.5062 53.2908-8.88787C53.2908-6.24499 55.3296-4.13137 57.9837-4.13137ZM72.5371 4.29754L87.0905 4.29754C89.7446 4.29754 91.7834 2.18953 91.7834-0.45896C91.7834-3.07166 89.7446-5.11047 87.0905-5.11047L72.5371-5.11047ZM57.9837 12.2914L72.5371 12.2914L72.5371 2.92245L57.9837 2.92245C55.3296 2.92245 53.2908 4.96126 53.2908 7.53495C53.2908 10.2225 55.3296 12.2914 57.9837 12.2914Z"/>
  </g>
  <g id="Bold-L" transform="matrix(1 0 0 1 2268.83 1556)">
   <path d="M16.084 12.1987C16.084 26.1514 23.5506 33.656 37.3893 33.656L104.864 33.656C118.716 33.656 126.207 26.1514 126.207 12.1987L126.207-82.6268C126.207-96.5415 118.716-104.084 104.864-104.084L37.3893-104.084C23.5506-104.084 16.084-96.5415 16.084-82.6268ZM30.5257 10.7529L30.5257-81.181C30.5257-86.7015 33.2738-89.6423 39.063-89.6423L103.228-89.6423C108.979-89.6423 111.74-86.7015 111.74-81.181L111.74 10.7529C111.74 16.2734 108.979 19.2142 103.228 19.2142L39.063 19.2142C33.2738 19.2142 30.5257 16.2734 30.5257 10.7529ZM66.4481 26.2657L75.8428 26.2657L75.8428-60.6732L66.4481-60.6732ZM71.1454-58.1835C81.4076-58.1835 87.7178-64.2338 87.7178-74.122C87.7178-75.9259 87.4898-77.7876 87.0717-79.6851L81.1186-105.547C80.4625-108.401 78.1045-110.217 75.086-110.217L67.2049-110.217C64.1996-110.217 61.8284-108.401 61.1343-105.547L55.2192-79.6851C54.8011-77.7876 54.5731-75.9259 54.5731-74.122C54.5731-64.2338 60.8833-58.1835 71.1454-58.1835ZM71.1454-67.65C67.2637-67.65 64.3316-70.5821 64.3316-74.4639C64.3316-78.2795 67.3298-81.2777 71.1454-81.2777C74.9231-81.2777 77.9725-78.2795 77.9725-74.4639C77.9725-70.5529 75.0944-67.65 71.1454-67.65ZM71.1454-44.5647L85.89-44.5647C88.3068-44.5647 90.1465-46.4423 90.1465-48.8619C90.1465-51.1984 88.3068-53.076 85.89-53.076L71.1454-53.076ZM56.4009-36.5689L71.1454-36.5689L71.1454-45.0962L56.4009-45.0962C53.9841-45.0962 52.1444-43.2318 52.1444-40.8954C52.1444-38.4625 53.9841-36.5689 56.4009-36.5689ZM71.1454-27.9919L85.89-27.9919C88.3068-27.9919 90.1465-29.8987 90.1465-32.3024C90.1465-34.6548 88.3068-36.4944 85.89-36.4944L71.1454-36.4944ZM56.4009-20.0253L71.1454-20.0253L71.1454-28.4855L56.4009-28.4855C53.9841-28.4855 52.1444-26.6882 52.1444-24.3226C52.1444-21.9322 53.9841-20.0253 56.4009-20.0253ZM71.1454-11.4747L85.89-11.4747C88.3068-11.4747 90.1465-13.3392 90.1465-15.772C90.1465-18.0952 88.3068-19.9349 85.89-19.9349L71.1454-19.9349ZM56.4009-3.45255L71.1454-3.45255L71.1454-11.9551L56.4009-11.9551C53.9841-11.9551 52.1444-10.1154 52.1444-7.7498C52.1444-5.35939 53.9841-3.45255 56.4009-3.45255ZM71.1454 5.09805L85.89 5.09805C88.3068 5.09805 90.1465 3.20444 90.1465 0.800802C90.1465-1.55162 88.3068-3.39127 85.89-3.39127L71.1454-3.39127ZM56.4009 13.3831L71.1454 13.3831L71.1454 4.90973L56.4009 4.90973C53.9841 4.90973 52.1444 6.74938 52.1444 9.08583C52.1444 11.5054 53.9841 13.3831 56.4009 13.3831Z"/>
  </g>
  <g id="Semibold-L" transform="matrix(1 0 0 1 1973.08 1556)">
   <path d="M16.084 12.5152C16.084 25.9921 23.1315 33.083 36.4783 33.083L103.85 33.083C117.216 33.083 124.288 25.9921 124.288 12.5152L124.288-82.9435C124.288-96.377 117.216-103.511 103.85-103.511L36.4783-103.511C23.1315-103.511 16.084-96.377 16.084-82.9435ZM28.4171 11.5371L28.4171-81.9655C28.4171-87.9566 31.4776-91.1782 37.7165-91.1782L102.656-91.1782C108.851-91.1782 111.93-87.9566 111.93-81.9655L111.93 11.5371C111.93 17.5283 108.851 20.7498 102.656 20.7498L37.7165 20.7498C31.4776 20.7498 28.4171 17.5283 28.4171 11.5371ZM65.9702 26.923L74.4019 26.923L74.4019-61.3766L65.9702-61.3766ZM70.186-58.9452C79.9884-58.9452 85.9968-64.7306 85.9968-74.1799C85.9968-75.9309 85.774-77.6765 85.3718-79.5265L79.4817-105.256C78.8998-107.788 76.801-109.398 74.1266-109.398L66.2455-109.398C63.5896-109.398 61.4723-107.788 60.8471-105.256L55.0003-79.5265C54.5981-77.6765 54.3753-75.9309 54.3753-74.1799C54.3753-64.7306 60.3837-58.9452 70.186-58.9452ZM70.186-67.6248C66.2096-67.6248 63.2406-70.5937 63.2406-74.5702C63.2406-78.4542 66.302-81.5155 70.186-81.5155C74.0267-81.5155 77.1499-78.4542 77.1499-74.5702C77.1499-70.5751 74.2244-67.6248 70.186-67.6248ZM70.186-45.1537L85.0624-45.1537C87.3157-45.1537 89.018-46.8994 89.018-49.1343C89.018-51.3072 87.3157-53.053 85.0624-53.053L70.186-53.053ZM55.3097-36.8721L70.186-36.8721L70.186-44.7715L55.3097-44.7715C53.0564-44.7715 51.3541-43.0442 51.3541-40.8713C51.3541-38.6179 53.0564-36.8721 55.3097-36.8721ZM70.186-28.2006L85.0624-28.2006C87.3157-28.2006 89.018-29.9649 89.018-32.1998C89.018-34.3728 87.3157-36.0751 85.0624-36.0751L70.186-36.0751ZM55.3097-19.9376L70.186-19.9376L70.186-27.775L55.3097-27.775C53.0564-27.775 51.3541-26.1097 51.3541-23.9183C51.3541-21.7019 53.0564-19.9376 55.3097-19.9376ZM70.186-11.3031L85.0624-11.3031C87.3157-11.3031 89.018-13.0304 89.018-15.2838C89.018-17.4382 87.3157-19.1405 85.0624-19.1405L70.186-19.1405ZM55.3097-2.98457L70.186-2.98457L70.186-10.859L55.3097-10.859C53.0564-10.859 51.3541-9.15668 51.3541-6.96522C51.3541-4.74887 53.0564-2.98457 55.3097-2.98457ZM70.186 5.64992L85.0624 5.64992C87.3157 5.64992 89.018 3.9041 89.018 1.66927C89.018-0.503708 87.3157-2.20607 85.0624-2.20607L70.186-2.20607ZM55.3097 14.1356L70.186 14.1356L70.186 6.27975L55.3097 6.27975C53.0564 6.27975 51.3541 7.9821 51.3541 10.155C51.3541 12.3899 53.0564 14.1356 55.3097 14.1356Z"/>
  </g>
  <g id="Medium-L" transform="matrix(1 0 0 1 1677.1 1556)">
   <path d="M16.084 12.7552C16.084 25.8713 22.8138 32.6485 35.7875 32.6485L103.082 32.6485C116.078 32.6485 122.833 25.8713 122.833 12.7552L122.833-83.1837C122.833-96.2524 116.078-103.077 103.082-103.077L35.7875-103.077C22.8138-103.077 16.084-96.2524 16.084-83.1837ZM26.8183 12.1317L26.8183-82.5603C26.8183-88.9083 30.1158-92.3427 36.6956-92.3427L102.222-92.3427C108.754-92.3427 112.074-88.9083 112.074-82.5603L112.074 12.1317C112.074 18.4798 108.754 21.9142 102.222 21.9142L36.6956 21.9142C30.1158 21.9142 26.8183 18.4798 26.8183 12.1317ZM65.6078 27.4213L73.3094 27.4213L73.3094-61.91L65.6078-61.91ZM69.4586-59.5227C78.9123-59.5227 84.6918-65.1073 84.6918-74.2238C84.6918-75.9347 84.473-77.5923 84.0828-79.4061L78.2405-105.036C77.7148-107.323 75.8126-108.777 73.3992-108.777L65.518-108.777C63.1271-108.777 61.2024-107.323 60.6293-105.036L54.8343-79.4061C54.4442-77.5923 54.2254-75.9347 54.2254-74.2238C54.2254-65.1073 60.0049-59.5227 69.4586-59.5227ZM69.4586-67.6056C65.4104-67.6056 62.4135-70.6025 62.4135-74.6508C62.4135-78.5866 65.5227-81.6959 69.4586-81.6959C73.347-81.6959 76.5262-78.5866 76.5262-74.6508C76.5262-70.592 73.5648-67.6056 69.4586-67.6056ZM69.4586-45.6003L84.4348-45.6003C86.5641-45.6003 88.1624-47.246 88.1624-49.3409C88.1624-51.3898 86.5641-53.0355 84.4348-53.0355L69.4586-53.0355ZM54.4823-37.102L69.4586-37.102L69.4586-44.5252L54.4823-44.5252C52.353-44.5252 50.7548-42.9019 50.7548-40.8531C50.7548-38.7357 52.353-37.102 54.4823-37.102ZM69.4586-28.3589L84.4348-28.3589C86.5641-28.3589 88.1624-30.0152 88.1624-32.122C88.1624-34.1589 86.5641-35.7572 84.4348-35.7572L69.4586-35.7572ZM54.4823-19.8711L69.4586-19.8711L69.4586-27.2364L54.4823-27.2364C52.353-27.2364 50.7548-25.6711 50.7548-23.6117C50.7548-21.5273 52.353-19.8711 54.4823-19.8711ZM69.4586-11.173L84.4348-11.173C86.5641-11.173 88.1624-12.7962 88.1624-14.9136C88.1624-16.94 86.5641-18.5383 84.4348-18.5383L69.4586-18.5383ZM54.4823-2.62973L69.4586-2.62973L69.4586-10.028L54.4823-10.028C52.353-10.028 50.7548-8.42971 50.7548-6.37031C50.7548-4.28594 52.353-2.62973 54.4823-2.62973ZM69.4586 6.06837L84.4348 6.06837C86.5641 6.06837 88.1624 4.43462 88.1624 2.32779C88.1624 0.290859 86.5641-1.30739 84.4348-1.30739L69.4586-1.30739ZM54.4823 14.7063L69.4586 14.7063L69.4586 7.31855L54.4823 7.31855C52.353 7.31855 50.7548 8.9168 50.7548 10.9657C50.7548 13.0606 52.353 14.7063 54.4823 14.7063Z"/>
  </g>
  <g id="Regular-L" transform="matrix(1 0 0 1 1381.33 1556)">
   <path d="M16.084 13.0682C16.084 25.7137 22.3993 32.0818 34.8866 32.0818L102.08 32.0818C114.595 32.0818 120.935 25.7137 120.935 13.0682L120.935-83.4969C120.935-96.0897 114.595-102.511 102.08-102.511L34.8866-102.511C22.3993-102.511 16.084-96.0897 16.084-83.4969ZM24.7328 12.9073L24.7328-83.3361C24.7328-90.1496 28.3394-93.8617 35.364-93.8617L101.655-93.8617C108.627-93.8617 112.262-90.1496 112.262-83.3361L112.262 12.9073C112.262 19.7209 108.627 23.4329 101.655 23.4329L35.364 23.4329C28.3394 23.4329 24.7328 19.7209 24.7328 12.9073ZM65.135 28.0714L71.8844 28.0714L71.8844-62.6056L65.135-62.6056ZM68.5097-60.276C77.5087-60.276 82.9896-65.5986 82.9896-74.281C82.9896-75.9396 82.776-77.4825 82.4016-79.2492L76.6215-104.75C76.1692-106.717 74.5234-107.966 72.4503-107.966L64.5692-107.966C62.5237-107.966 60.8502-106.717 60.3451-104.75L54.6179-79.2492C54.2434-77.4825 54.0298-75.9396 54.0298-74.281C54.0298-65.5986 59.5107-60.276 68.5097-60.276ZM68.5097-67.5807C64.3679-67.5807 61.3345-70.6141 61.3345-74.7559C61.3345-78.7594 64.5062-81.9311 68.5097-81.9311C72.4605-81.9311 75.7126-78.7594 75.7126-74.7559C75.7126-70.6141 72.7043-67.5807 68.5097-67.5807ZM68.5097-46.1829L83.6163-46.1829C85.5839-46.1829 87.0463-47.6981 87.0463-49.6103C87.0463-51.4975 85.5839-53.0127 83.6163-53.0127L68.5097-53.0127ZM53.4031-37.4018L68.5097-37.4018L68.5097-44.204L53.4031-44.204C51.4356-44.204 49.9731-42.7164 49.9731-40.8293C49.9731-38.8894 51.4356-37.4018 53.4031-37.4018ZM68.5097-28.5654L83.6163-28.5654C85.5839-28.5654 87.0463-30.0807 87.0463-32.0205C87.0463-33.88 85.5839-35.3425 83.6163-35.3425L68.5097-35.3425ZM53.4031-19.7844L68.5097-19.7844L68.5097-26.5337L53.4031-26.5337C51.4356-26.5337 49.9731-25.0989 49.9731-23.2118C49.9731-21.2996 51.4356-19.7844 53.4031-19.7844ZM68.5097-11.0033L83.6163-11.0033C85.5839-11.0033 87.0463-12.4909 87.0463-14.4307C87.0463-16.2902 85.5839-17.7527 83.6163-17.7527L68.5097-17.7527ZM53.4031-2.1669L68.5097-2.1669L68.5097-8.94394L53.4031-8.94394C51.4356-8.94394 49.9731-7.48148 49.9731-5.59436C49.9731-3.68213 51.4356-2.1669 53.4031-2.1669ZM68.5097 6.61417L83.6163 6.61417C85.5839 6.61417 87.0463 5.1266 87.0463 3.18672C87.0463 1.32725 85.5839-0.135214 83.6163-0.135214L68.5097-0.135214ZM53.4031 15.4506L68.5097 15.4506L68.5097 8.67351L53.4031 8.67351C51.4356 8.67351 49.9731 10.136 49.9731 12.0231C49.9731 13.9353 51.4356 15.4506 53.4031 15.4506Z"/>
  </g>
  <g id="Light-L" transform="matrix(1 0 0 1 1085.41 1556)">
   <path d="M16.084 13.7934C16.084 25.6755 22.1512 31.7764 33.9323 31.7764L101.488 31.7764C113.316 31.7764 119.37 25.6755 119.37 13.7934L119.37-84.1458C119.37-95.9943 113.316-102.129 101.488-102.129L33.9323-102.129C22.1512-102.129 16.084-95.9943 16.084-84.1458ZM22.7098 13.6326L22.7098-83.985C22.7098-91.5047 26.6408-95.503 34.2952-95.503L101.159-95.503C108.78-95.503 112.758-91.5047 112.758-83.985L112.758 13.6326C112.758 21.1523 108.78 25.1506 101.159 25.1506L34.2952 25.1506C26.6408 25.1506 22.7098 21.1523 22.7098 13.6326ZM65.0205 28.6058L70.4339 28.6058L70.4339-63.6553L65.0205-63.6553ZM67.7272-61.3829C75.9437-61.3829 81.1002-66.4384 81.1002-74.4528C81.1002-76.0351 80.9057-77.3107 80.5503-79.0202L74.9993-104.082C74.6233-105.687 73.3401-106.687 71.6678-106.687L63.7867-106.687C62.1611-106.687 60.8311-105.687 60.4215-104.082L54.9042-79.0202C54.5488-77.3107 54.3543-76.0351 54.3543-74.4528C54.3543-66.4384 59.5107-61.3829 67.7272-61.3829ZM67.7272-67.1799C63.28-67.1799 60.1512-70.3087 60.1512-74.7559C60.1512-78.9694 63.5138-82.3319 67.7272-82.3319C71.907-82.3319 75.35-78.9694 75.35-74.7559C75.35-70.3087 72.2081-67.1799 67.7272-67.1799ZM67.7272-48.0532L83.1583-48.0532C84.7632-48.0532 85.9585-49.2822 85.9585-50.7936C85.9585-52.3181 84.7632-53.5471 83.1583-53.5471L67.7272-53.5471ZM52.2962-38.9286L67.7272-38.9286L67.7272-44.3757L52.2962-44.3757C50.6913-44.3757 49.496-43.1935 49.496-41.669C49.496-40.1108 50.6913-38.9286 52.2962-38.9286ZM67.7272-29.7105L83.1583-29.7105C84.7632-29.7105 85.9585-30.9395 85.9585-32.4977C85.9585-33.9754 84.7632-35.1707 83.1583-35.1707L67.7272-35.1707ZM52.2962-20.5859L67.7272-20.5859L67.7272-25.9994L52.2962-25.9994C50.6913-25.9994 49.496-24.8508 49.496-23.3263C49.496-21.8149 50.6913-20.5859 52.2962-20.5859ZM67.7272-11.4613L83.1583-11.4613C84.7632-11.4613 85.9585-12.6435 85.9585-14.2017C85.9585-15.6795 84.7632-16.8747 83.1583-16.8747L67.7272-16.8747ZM52.2962-2.24324L67.7272-2.24324L67.7272-7.7034L52.2962-7.7034C50.6913-7.7034 49.496-6.50813 49.496-4.98363C49.496-3.47219 50.6913-2.24324 52.2962-2.24324ZM67.7272 6.88136L83.1583 6.88136C84.7632 6.88136 85.9585 5.69916 85.9585 4.14098C85.9585 2.66322 84.7632 1.46795 83.1583 1.46795L67.7272 1.46795ZM52.2962 16.0995L67.7272 16.0995L67.7272 10.6393L52.2962 10.6393C50.6913 10.6393 49.496 11.8346 49.496 13.3591C49.496 14.8705 50.6913 16.0995 52.2962 16.0995Z"/>
  </g>
  <g id="Thin-L" transform="matrix(1 0 0 1 789.73 1556)">
   <path d="M16.084 14.7526C16.084 25.6251 21.823 31.3726 32.6702 31.3726L100.706 31.3726C111.625 31.3726 117.301 25.6251 117.301 14.7526L117.301-85.0041C117.301-95.8681 111.625-101.624 100.706-101.624L32.6702-101.624C21.823-101.624 16.084-95.8681 16.084-85.0041ZM20.0342 14.5918L20.0342-84.8432C20.0342-93.2969 24.3943-97.6738 32.8817-97.6738L100.503-97.6738C108.982-97.6738 113.414-93.2969 113.414-84.8432L113.414 14.5918C113.414 23.0454 108.982 27.4224 100.503 27.4224L32.8817 27.4224C24.3943 27.4224 20.0342 23.0454 20.0342 14.5918ZM64.8691 29.3125L68.5156 29.3125L68.5156-65.0436L64.8691-65.0436ZM66.6923-62.847C73.8739-62.847 78.6012-67.549 78.6012-74.68C78.6012-76.1613 78.432-77.0836 78.1019-78.7173L72.8537-103.198C72.5787-104.323 71.7751-104.996 70.6329-104.996L62.7517-104.996C61.6815-104.996 60.8059-104.323 60.5225-103.198L55.2828-78.7173C54.9527-77.0836 54.7834-76.1613 54.7834-74.68C54.7834-67.549 59.5107-62.847 66.6923-62.847ZM66.6923-66.6498C61.8413-66.6498 58.5862-69.9048 58.5862-74.7559C58.5862-79.247 62.2012-82.862 66.6923-82.862C71.175-82.862 74.8704-79.247 74.8704-74.7559C74.8704-69.9048 71.5518-66.6498 66.6923-66.6498ZM66.6923-50.5269L82.5525-50.5269C83.6778-50.5269 84.5197-51.3773 84.5197-52.3586C84.5197-53.4035 83.6778-54.2539 82.5525-54.2539L66.6923-54.2539ZM50.8322-40.948L66.6923-40.948L66.6923-44.6029L50.8322-44.6029C49.7068-44.6029 48.865-43.8246 48.865-42.7797C48.865-41.7263 49.7068-40.948 50.8322-40.948ZM66.6923-31.2251L82.5525-31.2251C83.6778-31.2251 84.5197-32.0754 84.5197-33.1287C84.5197-34.1016 83.6778-34.9435 82.5525-34.9435L66.6923-34.9435ZM50.8322-21.6461L66.6923-21.6461L66.6923-25.2926L50.8322-25.2926C49.7068-25.2926 48.865-24.5227 48.865-23.4778C48.865-22.4964 49.7068-21.6461 50.8322-21.6461ZM66.6923-12.0671L82.5525-12.0671C83.6778-12.0671 84.5197-12.8455 84.5197-13.8988C84.5197-14.8717 83.6778-15.7136 82.5525-15.7136L66.6923-15.7136ZM50.8322-2.34421L66.6923-2.34421L66.6923-6.06268L50.8322-6.06268C49.7068-6.06268 48.865-5.2208 48.865-4.17589C48.865-3.19453 49.7068-2.34421 50.8322-2.34421ZM66.6923 7.23475L82.5525 7.23475C83.6778 7.23475 84.5197 6.45641 84.5197 5.40307C84.5197 4.43015 83.6778 3.58826 82.5525 3.58826L66.6923 3.58826ZM50.8322 16.9577L66.6923 16.9577L66.6923 13.2392L50.8322 13.2392C49.7068 13.2392 48.865 14.0811 48.865 15.126C48.865 16.1074 49.7068 16.9577 50.8322 16.9577Z"/>
  </g>
  <g id="Ultralight-L" transform="matrix(1 0 0 1 493.549 1556)">
   <path d="M16.084 15.2439C16.084 25.5992 21.655 31.1657 32.0238 31.1657L100.305 31.1657C110.759 31.1657 116.24 25.5992 116.24 15.2439L116.24-85.4436C116.24-95.8034 110.759-101.365 100.305-101.365L32.0238-101.365C21.655-101.365 16.084-95.8034 16.084-85.4436ZM18.6637 15.083L18.6637-85.2828C18.6637-94.2148 23.2436-98.7857 32.1576-98.7857L100.167-98.7857C109.085-98.7857 113.75-94.2148 113.75-85.2828L113.75 15.083C113.75 24.015 109.085 28.5859 100.167 28.5859L32.1576 28.5859C23.2436 28.5859 18.6637 24.015 18.6637 15.083ZM64.7915 29.6745L67.533 29.6745L67.533-65.7547L64.7915-65.7547ZM66.1622-63.5968C72.8137-63.5968 77.3213-68.1179 77.3213-74.7963C77.3213-76.2259 77.165-76.9672 76.8478-78.5621L71.7548-102.746C71.5315-103.625 70.9735-104.13 70.1028-104.13L62.2217-104.13C61.4359-104.13 60.793-103.625 60.5742-102.746L55.4767-78.5621C55.1595-76.9672 55.0032-76.2259 55.0032-74.7963C55.0032-68.1179 59.5107-63.5968 66.1622-63.5968ZM66.1622-66.3783C61.1043-66.3783 57.7846-69.698 57.7846-74.7559C57.7846-79.3892 61.5289-83.1335 66.1622-83.1335C70.8001-83.1335 74.6247-79.3892 74.6247-74.7559C74.6247-69.698 71.2157-66.3783 66.1622-66.3783ZM66.1622-51.794L82.2422-51.794C83.1219-51.794 83.7827-52.4503 83.7827-53.1602C83.7827-53.9595 83.1219-54.6159 82.2422-54.6159L66.1622-54.6159ZM50.0823-41.9823L66.1622-41.9823L66.1622-44.7193L50.0823-44.7193C49.2026-44.7193 48.5417-44.1478 48.5417-43.3485C48.5417-42.5538 49.2026-41.9823 50.0823-41.9823ZM66.1622-32.0008L82.2422-32.0008C83.1219-32.0008 83.7827-32.6572 83.7827-33.4519C83.7827-34.1663 83.1219-34.8272 82.2422-34.8272L66.1622-34.8272ZM50.0823-22.1891L66.1622-22.1891L66.1622-24.9306L50.0823-24.9306C49.2026-24.9306 48.5417-24.3546 48.5417-23.5553C48.5417-22.8455 49.2026-22.1891 50.0823-22.1891ZM66.1622-12.3774L82.2422-12.3774C83.1219-12.3774 83.7827-12.9489 83.7827-13.7437C83.7827-14.458 83.1219-15.1189 82.2422-15.1189L66.1622-15.1189ZM50.0823-2.39592L66.1622-2.39592L66.1622-5.22231L50.0823-5.22231C49.2026-5.22231 48.5417-4.56143 48.5417-3.76217C48.5417-3.05232 49.2026-2.39592 50.0823-2.39592ZM66.1622 7.41575L82.2422 7.41575C83.1219 7.41575 83.7827 6.84427 83.7827 6.04951C83.7827 5.33516 83.1219 4.67428 82.2422 4.67428L66.1622 4.67428ZM50.0823 17.3973L66.1622 17.3973L66.1622 14.5709L50.0823 14.5709C49.2026 14.5709 48.5417 15.2317 48.5417 16.031C48.5417 16.7409 49.2026 17.3973 50.0823 17.3973Z"/>
  </g>
  <g id="Black-M" transform="matrix(1 0 0 1 2875.44 1126)">
   <path d="M12.4609 0.735696C12.4609 12.8285 19.5201 19.8932 31.5964 19.8932L84.3265 19.8932C96.4026 19.8932 103.467 12.8285 103.467 0.735696L103.467-71.1439C103.467-83.2313 96.4026-90.3014 84.3265-90.3014L31.5964-90.3014C19.5201-90.3014 12.4609-83.2313 12.4609-71.1439ZM29.7989-1.90115L29.7989-68.5071C29.7989-71.498 31.0249-72.9634 34.2662-72.9634L81.6622-72.9634C84.898-72.9634 86.1238-71.498 86.1238-68.5071L86.1238-1.90115C86.1238 1.08981 84.898 2.55522 81.6622 2.55522L34.2662 2.55522C31.0249 2.55522 29.7989 1.08981 29.7989-1.90115ZM52.9912 10.4639L62.9373 10.4639L62.9373-53.0181L52.9912-53.0181ZM57.9642-50.9197C67.1394-50.9197 72.8967-56.3751 72.8967-65.2319C72.8967-66.775 72.7095-68.5026 72.3406-70.1078L67.6021-90.4204C66.8793-93.5563 64.3353-95.5483 61.0171-95.5483L54.9113-95.5483C51.5929-95.5483 49.0491-93.5563 48.3209-90.4204L43.5878-70.1078C43.2189-68.5026 43.0317-66.775 43.0317-65.2319C43.0317-56.3751 48.789-50.9197 57.9642-50.9197ZM57.9642-60.2924C55.1598-60.2924 52.9754-62.4769 52.9754-65.2813C52.9754-68.0871 55.1584-70.2701 57.9642-70.2701C60.7645-70.2701 62.9528-68.0871 62.9528-65.2813C62.9528-62.4198 60.8312-60.2924 57.9642-60.2924ZM57.9642-41.1883L69.0705-41.1883C71.3499-41.1883 73.1294-42.9733 73.1294-45.3104C73.1294-47.5275 71.3499-49.3125 69.0705-49.3125L57.9642-49.3125ZM46.858-35.8038L57.9642-35.8038L57.9642-43.9854L46.858-43.9854C44.5786-43.9854 42.799-42.2001 42.799-39.983C42.799-37.6462 44.5786-35.8038 46.858-35.8038ZM57.9642-29.3349L69.0705-29.3349C71.3499-29.3349 73.1294-31.1771 73.1294-33.4568C73.1294-35.7312 71.3499-37.5108 69.0705-37.5108L57.9642-37.5108ZM46.858-24.0075L57.9642-24.0075L57.9642-32.1265L46.858-32.1265C44.5786-32.1265 42.799-30.4038 42.799-28.1296C42.799-25.8496 44.5786-24.0075 46.858-24.0075ZM57.9642-17.5381L69.0705-17.5381C71.3499-17.5381 73.1294-19.3234 73.1294-21.6602C73.1294-23.8776 71.3499-25.6571 69.0705-25.6571L57.9642-25.6571ZM46.858-12.1541L57.9642-12.1541L57.9642-20.33L46.858-20.33C44.5786-20.33 42.799-18.5504 42.799-16.2762C42.799-13.9962 44.5786-12.1541 46.858-12.1541ZM57.9642-5.68472L69.0705-5.68472C71.3499-5.68472 73.1294-7.52714 73.1294-9.80683C73.1294-12.0813 71.3499-13.8609 69.0705-13.8609L57.9642-13.8609ZM46.858 0.21313L57.9642 0.21313L57.9642-7.90562L46.858-7.90562C44.5786-7.90562 42.799-6.12607 42.799-3.90897C42.799-1.57191 44.5786 0.21313 46.858 0.21313Z"/>
  </g>
  <g id="Heavy-M" transform="matrix(1 0 0 1 2579.77 1126)">
   <path d="M12.4609 0.981078C12.4609 12.6348 19.0422 19.2324 30.6466 19.2324L83.1692 19.2324C94.776 19.2324 101.371 12.6348 101.371 0.981078L101.371-71.406C101.371-83.0433 94.776-89.6574 83.1692-89.6574L30.6466-89.6574C19.0422-89.6574 12.4609-83.0433 12.4609-71.406ZM27.5605-1.06288L27.5605-69.3621C27.5605-72.798 29.113-74.5578 32.7891-74.5578L81.0432-74.5578C84.7029-74.5578 86.2576-72.798 86.2576-69.3621L86.2576-1.06288C86.2576 2.37302 84.7029 4.13281 81.0432 4.13281L32.7891 4.13281C29.113 4.13281 27.5605 2.37302 27.5605-1.06288ZM52.4099 11.1822L61.4224 11.1822L61.4224-53.6843L52.4099-53.6843ZM56.9161-51.6475C65.6766-51.6475 71.1209-56.8244 71.1209-65.2683C71.1209-66.7608 70.9363-68.3988 70.5834-69.9558L65.8756-90.1962C65.2304-93.0005 62.9371-94.7841 59.9691-94.7841L53.8632-94.7841C50.8975-94.7841 48.6019-93.0005 47.9403-90.1962L43.2489-69.9558C42.896-68.3988 42.7114-66.7608 42.7114-65.2683C42.7114-56.8244 48.1557-51.6475 56.9161-51.6475ZM56.9161-60.3465C54.0574-60.3465 51.8467-62.5573 51.8467-65.416C51.8467-68.2634 54.0687-70.4855 56.9161-70.4855C59.7471-70.4855 61.9879-68.2634 61.9879-65.416C61.9879-62.5136 59.835-60.3465 56.9161-60.3465ZM56.9161-41.5332L68.1198-41.5332C70.2697-41.5332 71.9326-43.2125 71.9326-45.4016C71.9326-47.4892 70.2697-49.1685 68.1198-49.1685L56.9161-49.1685ZM45.7125-35.8601L56.9161-35.8601L56.9161-43.5368L45.7125-43.5368C43.5626-43.5368 41.8996-41.8597 41.8996-39.7721C41.8996-37.5807 43.5626-35.8601 45.7125-35.8601ZM56.9161-29.3536L68.1198-29.3536C70.2697-29.3536 71.9326-31.0765 71.9326-33.2242C71.9326-35.3533 70.2697-37.0162 68.1198-37.0162L56.9161-37.0162ZM45.7125-23.7241L56.9161-23.7241L56.9161-31.3408L45.7125-31.3408C43.5626-31.3408 41.8996-29.7238 41.8996-27.5925C41.8996-25.447 43.5626-23.7241 45.7125-23.7241ZM56.9161-17.2222L68.1198-17.2222C70.2697-17.2222 71.9326-18.8992 71.9326-21.0905C71.9326-23.1759 70.2697-24.8388 68.1198-24.8388L56.9161-24.8388ZM45.7125-11.5445L56.9161-11.5445L56.9161-19.2071L45.7125-19.2071C43.5626-19.2071 41.8996-17.5441 41.8996-15.4129C41.8996-13.2674 43.5626-11.5445 45.7125-11.5445ZM56.9161-5.04257L68.1198-5.04257C70.2697-5.04257 71.9326-6.76323 71.9326-8.91093C71.9326-11.0399 70.2697-12.7028 68.1198-12.7028L56.9161-12.7028ZM45.7125 1.0277L56.9161 1.0277L56.9161-6.59124L45.7125-6.59124C43.5626-6.59124 41.8996-4.92833 41.8996-2.84066C41.8996-0.651615 43.5626 1.0277 45.7125 1.0277Z"/>
  </g>
  <g id="Bold-M" transform="matrix(1 0 0 1 2284.23 1126)">
   <path d="M12.4609 1.25557C12.4609 12.418 18.5076 18.4933 29.5842 18.4933L81.8747 18.4933C92.9564 18.4933 99.0265 12.418 99.0265 1.25557L99.0265-71.6992C99.0265-82.8331 92.9564-88.9369 81.8747-88.9369L29.5842-88.9369C18.5076-88.9369 12.4609-82.8331 12.4609-71.6992ZM25.0566-0.125156L25.0566-70.3185C25.0566-74.2521 26.9743-76.3412 31.1366-76.3412L80.3509-76.3412C84.4846-76.3412 86.4073-74.2521 86.4073-70.3185L86.4073-0.125156C86.4073 3.80849 84.4846 5.89757 80.3509 5.89757L31.1366 5.89757C26.9743 5.89757 25.0566 3.80849 25.0566-0.125156ZM51.7596 11.9858L59.7279 11.9858L59.7279-54.4294L51.7596-54.4294ZM55.7437-52.4615C64.0402-52.4615 69.1345-57.3271 69.1345-65.3092C69.1345-66.745 68.9527-68.2826 68.6178-69.7859L63.9442-89.9453C63.3859-92.3788 61.373-93.9292 58.7967-93.9292L52.6908-93.9292C50.1196-93.9292 48.1016-92.3788 47.5146-89.9453L42.8697-69.7859C42.5348-68.2826 42.353-66.745 42.353-65.3092C42.353-57.3271 47.4472-52.4615 55.7437-52.4615ZM55.7437-60.4071C52.8241-60.4071 50.584-62.6472 50.584-65.5668C50.584-68.4607 52.8498-70.7265 55.7437-70.7265C58.6091-70.7265 60.9086-68.4607 60.9086-65.5668C60.9086-62.6186 58.7205-60.4071 55.7437-60.4071ZM55.7437-41.919L67.0563-41.919C69.0615-41.919 70.5939-43.4801 70.5939-45.5035C70.5939-47.4464 69.0615-49.0075 67.0563-49.0075L55.7437-49.0075ZM44.4312-35.9231L55.7437-35.9231L55.7437-43.0349L44.4312-43.0349C42.426-43.0349 40.8936-41.479 40.8936-39.5361C40.8936-37.5075 42.426-35.9231 44.4312-35.9231ZM55.7437-29.3745L67.0563-29.3745C69.0615-29.3745 70.5939-30.9641 70.5939-32.9641C70.5939-34.9304 69.0615-36.4628 67.0563-36.4628L55.7437-36.4628ZM44.4312-23.4071L55.7437-23.4071L55.7437-30.4618L44.4312-30.4618C42.426-30.4618 40.8936-28.963 40.8936-26.9916C40.8936-24.9967 42.426-23.4071 44.4312-23.4071ZM55.7437-16.8688L67.0563-16.8688C69.0615-16.8688 70.5939-18.4247 70.5939-20.4533C70.5939-22.391 69.0615-23.9234 67.0563-23.9234L55.7437-23.9234ZM44.4312-10.8626L55.7437-10.8626L55.7437-17.9509L44.4312-17.9509C42.426-17.9509 40.8936-16.4185 40.8936-14.4471C40.8936-12.4522 42.426-10.8626 44.4312-10.8626ZM55.7437-4.32422L67.0563-4.32422C69.0615-4.32422 70.5939-5.90868 70.5939-7.90873C70.5939-9.87503 69.0615-11.4074 67.0563-11.4074L55.7437-11.4074ZM44.4312 1.93891L55.7437 1.93891L55.7437-5.12091L44.4312-5.12091C42.426-5.12091 40.8936-3.58849 40.8936-1.6456C40.8936 0.377868 42.426 1.93891 44.4312 1.93891Z"/>
  </g>
  <g id="Semibold-M" transform="matrix(1 0 0 1 1988.33 1126)">
   <path d="M12.4609 1.44481C12.4609 12.2686 18.139 17.9837 28.8517 17.9837L80.9823 17.9837C91.702 17.9837 97.41 12.2686 97.41 1.44481L97.41-71.9014C97.41-82.6881 91.702-88.4403 80.9823-88.4403L28.8517-88.4403C18.139-88.4403 12.4609-82.6881 12.4609-71.9014ZM23.3305 0.521307L23.3305-70.9779C23.3305-75.2546 25.4999-77.5707 29.9974-77.5707L79.8735-77.5707C84.3341-77.5707 86.5106-75.2546 86.5106-70.9779L86.5106 0.521307C86.5106 4.79809 84.3341 7.11419 79.8735 7.11419L29.9974 7.11419C25.4999 7.11419 23.3305 4.79809 23.3305 0.521307ZM51.3114 12.5398L58.5596 12.5398L58.5596-54.9432L51.3114-54.9432ZM54.9355-53.0227C62.9121-53.0227 67.765-57.6737 67.765-65.3373C67.765-66.734 67.5852-68.2025 67.2626-69.6687L62.6128-89.7724C62.1143-91.9501 60.2947-93.3399 57.9884-93.3399L51.8826-93.3399C49.5834-93.3399 47.7567-91.9501 47.2212-89.7724L42.6083-69.6687C42.2858-68.2025 42.1059-66.734 42.1059-65.3373C42.1059-57.6737 46.9588-53.0227 54.9355-53.0227ZM54.9355-60.4488C51.9739-60.4488 49.7136-62.7091 49.7136-65.6707C49.7136-68.5967 52.0095-70.8926 54.9355-70.8926C57.8245-70.8926 60.1645-68.5967 60.1645-65.6707C60.1645-62.691 57.9522-60.4488 54.9355-60.4488ZM54.9355-42.185L66.3231-42.185C68.2285-42.185 69.671-43.6645 69.671-45.5738C69.671-47.4169 68.2285-48.8964 66.3231-48.8964L54.9355-48.8964ZM43.5479-35.9665L54.9355-35.9665L54.9355-42.689L43.5479-42.689C41.6425-42.689 40.2-41.2166 40.2-39.3735C40.2-37.4571 41.6425-35.9665 43.5479-35.9665ZM54.9355-29.3889L66.3231-29.3889C68.2285-29.3889 69.671-30.8865 69.671-32.7848C69.671-34.6389 68.2285-36.0814 66.3231-36.0814L54.9355-36.0814ZM43.5479-23.1886L54.9355-23.1886L54.9355-29.8558L43.5479-29.8558C41.6425-29.8558 40.2-28.4386 40.2-26.5774C40.2-24.6862 41.6425-23.1886 43.5479-23.1886ZM54.9355-16.6251L66.3231-16.6251C68.2285-16.6251 69.671-18.0975 69.671-20.0139C69.671-21.8499 68.2285-23.2924 66.3231-23.2924L54.9355-23.2924ZM43.5479-10.3924L54.9355-10.3924L54.9355-17.085L43.5479-17.085C41.6425-17.085 40.2-15.6425 40.2-13.7813C40.2-11.8901 41.6425-10.3924 43.5479-10.3924ZM54.9355-3.82899L66.3231-3.82899C68.2285-3.82899 69.671-5.31955 69.671-7.21782C69.671-9.07194 68.2285-10.5144 66.3231-10.5144L54.9355-10.5144ZM43.5479 2.5671L54.9355 2.5671L54.9355-4.10727L43.5479-4.10727C41.6425-4.10727 40.2-2.6648 40.2-0.821733C40.2 1.08759 41.6425 2.5671 43.5479 2.5671Z"/>
  </g>
  <g id="Medium-M" transform="matrix(1 0 0 1 1692.23 1126)">
   <path d="M12.4609 1.5883C12.4609 12.1553 17.8596 17.5974 28.2963 17.5974L80.3056 17.5974C90.7509 17.5974 96.1843 12.1553 96.1843 1.5883L96.1843-72.0546C96.1843-82.5782 90.7509-88.0637 80.3056-88.0637L28.2963-88.0637C17.8596-88.0637 12.4609-82.5782 12.4609-72.0546ZM22.0216 1.01148L22.0216-71.4778C22.0216-76.0148 24.3819-78.503 29.1337-78.503L79.5116-78.503C84.22-78.503 86.5888-76.0148 86.5888-71.4778L86.5888 1.01148C86.5888 5.54844 84.22 8.03668 79.5116 8.03668L29.1337 8.03668C24.3819 8.03668 22.0216 5.54844 22.0216 1.01148ZM50.9714 12.9599L57.6738 12.9599L57.6738-55.3327L50.9714-55.3327ZM54.3226-53.4482C62.0568-53.4482 66.7266-57.9364 66.7266-65.3586C66.7266-66.7258 66.5483-68.1418 66.2351-69.5798L61.6032-89.6413C61.1501-91.6251 59.4771-92.893 57.3756-92.893L51.2697-92.893C49.1768-92.893 47.4952-91.6251 46.9987-89.6413L42.4101-69.5798C42.0969-68.1418 41.9186-66.7258 41.9186-65.3586C41.9186-57.9364 46.5885-53.4482 54.3226-53.4482ZM54.3226-60.4804C51.3293-60.4804 49.0536-62.7561 49.0536-65.7495C49.0536-68.6998 51.3723-71.0185 54.3226-71.0185C57.2296-71.0185 59.6003-68.6998 59.6003-65.7495C59.6003-62.7458 57.3697-60.4804 54.3226-60.4804ZM54.3226-42.3867L65.7672-42.3867C67.5969-42.3867 68.9711-43.8044 68.9711-45.6271C68.9711-47.3945 67.5969-48.8122 65.7672-48.8122L54.3226-48.8122ZM42.8781-35.9995L54.3226-35.9995L54.3226-42.4267L42.8781-42.4267C41.0484-42.4267 39.6741-41.0176 39.6741-39.2502C39.6741-37.4188 41.0484-35.9995 42.8781-35.9995ZM54.3226-29.3998L65.7672-29.3998C67.5969-29.3998 68.9711-30.8277 68.9711-32.6488C68.9711-34.4179 67.5969-35.7922 65.7672-35.7922L54.3226-35.7922ZM42.8781-23.0229L54.3226-23.0229L54.3226-29.3964L42.8781-29.3964C41.0484-29.3964 39.6741-28.041 39.6741-26.2633C39.6741-24.4508 41.0484-23.0229 42.8781-23.0229ZM54.3226-16.4404L65.7672-16.4404C67.5969-16.4404 68.9711-17.8495 68.9711-19.6808C68.9711-21.4396 67.5969-22.8139 65.7672-22.8139L54.3226-22.8139ZM42.8781-10.036L54.3226-10.036L54.3226-16.4283L42.8781-16.4283C41.0484-16.4283 39.6741-15.0541 39.6741-13.2764C39.6741-11.4639 41.0484-10.036 42.8781-10.036ZM54.3226-3.45349L65.7672-3.45349C67.5969-3.45349 68.9711-4.87286 68.9711-6.69395C68.9711-8.46301 67.5969-9.83727 65.7672-9.83727L54.3226-9.83727ZM42.8781 3.04341L54.3226 3.04341L54.3226-3.33869L42.8781-3.33869C41.0484-3.33869 39.6741-1.96443 39.6741-0.197042C39.6741 1.62573 41.0484 3.04341 42.8781 3.04341Z"/>
  </g>
  <g id="Regular-M" transform="matrix(1 0 0 1 1396.32 1126)">
   <path d="M12.4609 1.77545C12.4609 12.0075 17.4951 17.0934 27.5719 17.0934L79.4229 17.0934C89.5103 17.0934 94.5856 12.0075 94.5856 1.77545L94.5856-72.2545C94.5856-82.4348 89.5103-87.5725 79.4229-87.5725L27.5719-87.5725C17.4951-87.5725 12.4609-82.4348 12.4609-72.2545ZM20.3144 1.65084L20.3144-72.1299C20.3144-77.0063 22.9237-79.719 28.007-79.719L79.0395-79.719C84.0711-79.719 86.6909-77.0063 86.6909-72.1299L86.6909 1.65084C86.6909 6.52717 84.0711 9.23993 79.0395 9.23993L28.007 9.23993C22.9237 9.23993 20.3144 6.52717 20.3144 1.65084ZM50.5281 13.5078L56.5184 13.5078L56.5184-55.8408L50.5281-55.8408ZM53.5233-54.0033C60.9411-54.0033 65.3722-58.2792 65.3722-65.3865C65.3722-66.715 65.1959-68.0626 64.8949-69.4639L60.2864-89.4703C59.8924-91.2012 58.4107-92.3102 56.5762-92.3102L50.4703-92.3102C48.6464-92.3102 47.1541-91.2012 46.7084-89.4703L42.1516-69.4639C41.8507-68.0626 41.6743-66.715 41.6743-65.3865C41.6743-58.2792 46.1055-54.0033 53.5233-54.0033ZM53.5233-60.5217C50.4884-60.5217 48.1927-62.8174 48.1927-65.8522C48.1927-68.8343 50.5412-71.1828 53.5233-71.1828C56.4536-71.1828 58.8644-68.8343 58.8644-65.8522C58.8644-62.8174 56.6099-60.5217 53.5233-60.5217ZM53.5233-42.6497L65.0421-42.6497C66.7731-42.6497 68.0584-43.9868 68.0584-45.6966C68.0584-47.3653 66.7731-48.7024 65.0421-48.7024L53.5233-48.7024ZM42.0044-36.0424L53.5233-36.0424L53.5233-42.0845L42.0044-42.0845C40.2735-42.0845 38.9882-40.758 38.9882-39.0893C38.9882-37.3689 40.2735-36.0424 42.0044-36.0424ZM53.5233-29.414L65.0421-29.414C66.7731-29.414 68.0584-30.7511 68.0584-32.4715C68.0584-34.1296 66.7731-35.4149 65.0421-35.4149L53.5233-35.4149ZM42.0044-22.8067L53.5233-22.8067L53.5233-28.7971L42.0044-28.7971C40.2735-28.7971 38.9882-27.5223 38.9882-25.8536C38.9882-24.1438 40.2735-22.8067 42.0044-22.8067ZM53.5233-16.1994L65.0421-16.1994C66.7731-16.1994 68.0584-17.5259 68.0584-19.2463C68.0584-20.9045 66.7731-22.1897 65.0421-22.1897L53.5233-22.1897ZM42.0044-9.57101L53.5233-9.57101L53.5233-15.5719L42.0044-15.5719C40.2735-15.5719 38.9882-14.2866 38.9882-12.6179C38.9882-10.9081 40.2735-9.57101 42.0044-9.57101ZM53.5233-2.96371L65.0421-2.96371C66.7731-2.96371 68.0584-4.29021 68.0584-6.01063C68.0584-7.66875 66.7731-8.95404 65.0421-8.95404L53.5233-8.95404ZM42.0044 3.66469L53.5233 3.66469L53.5233-2.33619L42.0044-2.33619C40.2735-2.33619 38.9882-1.0509 38.9882 0.617772C38.9882 2.32765 40.2735 3.66469 42.0044 3.66469Z"/>
  </g>
  <g id="Light-M" transform="matrix(1 0 0 1 1100.31 1126)">
   <path d="M12.4609 2.42567C12.4609 11.9733 17.2726 16.8196 26.7163 16.8196L78.8925 16.8196C88.3638 16.8196 93.1825 11.9733 93.1825 2.42567L93.1825-72.8363C93.1825-82.3493 88.3638-87.2303 78.8925-87.2303L26.7163-87.2303C17.2726-87.2303 12.4609-82.3493 12.4609-72.8363ZM18.5006 2.30106L18.5006-72.7117C18.5006-78.2211 21.4008-81.1906 27.0488-81.1906L78.5947-81.1906C84.208-81.1906 87.1358-78.2211 87.1358-72.7117L87.1358 2.30106C87.1358 7.81049 84.208 10.7799 78.5947 10.7799L27.0488 10.7799C21.4008 10.7799 18.5006 7.81049 18.5006 2.30106ZM50.4254 13.9869L55.218 13.9869L55.218-56.7819L50.4254-56.7819ZM52.8217-54.9957C59.538-54.9957 63.6783-59.0321 63.6783-65.5405C63.6783-66.8005 63.519-67.9086 63.2351-69.2586L58.8319-88.8714C58.5065-90.2772 57.3498-91.1637 55.8746-91.1637L49.7688-91.1637C48.3213-91.1637 47.137-90.2772 46.7769-88.8714L42.4083-69.2586C42.1244-67.9086 41.9652-66.8005 41.9652-65.5405C41.9652-59.0321 46.1055-54.9957 52.8217-54.9957ZM52.8217-60.1624C49.5131-60.1624 47.1318-62.5436 47.1318-65.8522C47.1318-69.0225 49.6514-71.5421 52.8217-71.5421C55.9574-71.5421 58.5393-69.0225 58.5393-65.8522C58.5393-62.5436 56.165-60.1624 52.8217-60.1624ZM52.8217-44.3266L64.6314-44.3266C66.0373-44.3266 67.083-45.407 67.083-46.7575C67.083-48.1011 66.0373-49.1815 64.6314-49.1815L52.8217-49.1815ZM41.012-37.4113L52.8217-37.4113L52.8217-42.2385L41.012-42.2385C39.6061-42.2385 38.5604-41.1858 38.5604-39.8422C38.5604-38.464 39.6061-37.4113 41.012-37.4113ZM52.8217-30.4407L64.6314-30.4407C66.0373-30.4407 67.083-31.5211 67.083-32.8993C67.083-34.2152 66.0373-35.2609 64.6314-35.2609L52.8217-35.2609ZM41.012-23.5254L52.8217-23.5254L52.8217-28.3179L41.012-28.3179C39.6061-28.3179 38.5604-27.2999 38.5604-25.9563C38.5604-24.6058 39.6061-23.5254 41.012-23.5254ZM52.8217-16.6101L64.6314-16.6101C66.0373-16.6101 67.083-17.6628 67.083-19.041C67.083-20.3569 66.0373-21.4026 64.6314-21.4026L52.8217-21.4026ZM41.012-9.63946L52.8217-9.63946L52.8217-14.4597L41.012-14.4597C39.6061-14.4597 38.5604-13.4139 38.5604-12.0704C38.5604-10.7198 39.6061-9.63946 41.012-9.63946ZM52.8217-2.72416L64.6314-2.72416C66.0373-2.72416 67.083-3.77688 67.083-5.15508C67.083-6.47099 66.0373-7.51673 64.6314-7.51673L52.8217-7.51673ZM41.012 4.24646L52.8217 4.24646L52.8217-0.573766L41.012-0.573766C39.6061-0.573766 38.5604 0.471974 38.5604 1.81554C38.5604 3.16608 39.6061 4.24646 41.012 4.24646Z"/>
  </g>
  <g id="Thin-M" transform="matrix(1 0 0 1 804.528 1126)">
   <path d="M12.4609 3.28563C12.4609 11.928 16.9784 16.4575 25.5848 16.4575L78.1909 16.4575C86.8476 16.4575 91.3268 11.928 91.3268 3.28563L91.3268-73.6057C91.3268-82.2361 86.8476-86.7776 78.1909-86.7776L25.5848-86.7776C16.9784-86.7776 12.4609-82.2361 12.4609-73.6057ZM16.1018 3.16102L16.1018-73.4811C16.1018-79.8279 19.3867-83.1368 25.7815-83.1368L78.0063-83.1368C84.3891-83.1368 87.7242-79.8279 87.7242-73.4811L87.7242 3.16102C87.7242 9.50778 84.3891 12.8167 78.0063 12.8167L25.7815 12.8167C19.3867 12.8167 16.1018 9.50778 16.1018 3.16102ZM50.2897 14.6206L53.4981 14.6206L53.4981-58.0265L50.2897-58.0265ZM51.8939-56.3083C57.6823-56.3083 61.4378-60.0278 61.4378-65.7441C61.4378-66.9137 61.3012-67.7049 61.04-68.987L56.9083-88.0793C56.6734-89.0552 55.9467-89.6475 54.9468-89.6475L48.8409-89.6475C47.8913-89.6475 47.1144-89.0552 46.8674-88.0793L42.7477-68.987C42.4865-67.7049 42.3499-66.9137 42.3499-65.7441C42.3499-60.0278 46.1055-56.3083 51.8939-56.3083ZM51.8939-59.6871C48.2232-59.6871 45.7287-62.1815 45.7287-65.8522C45.7287-69.2715 48.4746-72.0174 51.8939-72.0174C55.3011-72.0174 58.1093-69.2715 58.1093-65.8522C58.1093-62.1815 55.5766-59.6871 51.8939-59.6871ZM51.8939-46.5444L64.0883-46.5444C65.0642-46.5444 65.7931-47.2853 65.7931-48.1606C65.7931-49.0742 65.0642-49.8151 64.0883-49.8151L51.8939-49.8151ZM39.6994-39.2217L51.8939-39.2217L51.8939-42.4422L39.6994-42.4422C38.7236-42.4422 37.9946-41.7516 37.9946-40.838C37.9946-39.9124 38.7236-39.2217 39.6994-39.2217ZM51.8939-31.7985L64.0883-31.7985C65.0642-31.7985 65.7931-32.5394 65.7931-33.465C65.7931-34.3283 65.0642-35.0572 64.0883-35.0572L51.8939-35.0572ZM39.6994-24.4759L51.8939-24.4759L51.8939-27.6843L39.6994-27.6843C38.7236-27.6843 37.9946-27.0057 37.9946-26.0921C37.9946-25.2168 38.7236-24.4759 39.6994-24.4759ZM51.8939-17.1532L64.0883-17.1532C65.0642-17.1532 65.7931-17.8438 65.7931-18.7694C65.7931-19.6327 65.0642-20.3616 64.0883-20.3616L51.8939-20.3616ZM39.6994-9.72998L51.8939-9.72998L51.8939-12.9887L39.6994-12.9887C38.7236-12.9887 37.9946-12.2598 37.9946-11.3462C37.9946-10.4709 38.7236-9.72998 39.6994-9.72998ZM51.8939-2.40733L64.0883-2.40733C65.0642-2.40733 65.7931-3.09796 65.7931-4.02355C65.7931-4.88684 65.0642-5.61576 64.0883-5.61576L51.8939-5.61576ZM39.6994 5.0159L51.8939 5.0159L51.8939 1.75719L39.6994 1.75719C38.7236 1.75719 37.9946 2.4861 37.9946 3.39968C37.9946 4.27498 38.7236 5.0159 39.6994 5.0159Z"/>
  </g>
  <g id="Ultralight-M" transform="matrix(1 0 0 1 508.292 1126)">
   <path d="M12.4609 3.7261C12.4609 11.9048 16.8277 16.2721 25.0052 16.2721L77.8316 16.2721C86.071 16.2721 90.3763 11.9048 90.3763 3.7261L90.3763-73.9999C90.3763-82.1782 86.071-86.5458 77.8316-86.5458L25.0052-86.5458C16.8277-86.5458 12.4609-82.1782 12.4609-73.9999ZM14.8731 3.60149L14.8731-73.8752C14.8731-80.6509 18.355-84.1336 25.1324-84.1336L77.7049-84.1336C84.4818-84.1336 88.0256-80.6509 88.0256-73.8752L88.0256 3.60149C88.0256 10.3771 84.4818 13.8599 77.7049 13.8599L25.1324 13.8599C18.355 13.8599 14.8731 10.3771 14.8731 3.60149ZM50.2201 14.9452L52.6171 14.9452L52.6171-58.6641L50.2201-58.6641ZM51.4186-56.9806C56.7318-56.9806 60.2903-60.5378 60.2903-65.8485C60.2903-66.9716 60.1653-67.6006 59.9156-68.8479L55.9231-87.6736C55.7345-88.4293 55.228-88.8709 54.4716-88.8709L48.3657-88.8709C47.6711-88.8709 47.1028-88.4293 46.9137-87.6736L42.9216-68.8479C42.672-67.6006 42.5469-66.9716 42.5469-65.8485C42.5469-60.5378 46.1055-56.9806 51.4186-56.9806ZM51.4186-59.4437C47.5625-59.4437 45.0101-61.9961 45.0101-65.8522C45.0101-69.399 47.8719-72.2608 51.4186-72.2608C54.9649-72.2608 57.8891-69.399 57.8891-65.8522C57.8891-61.9961 55.2752-59.4437 51.4186-59.4437ZM51.4186-47.6803L63.8101-47.6803C64.5658-47.6803 65.1324-48.2474 65.1324-48.8793C65.1324-49.5726 64.5658-50.1397 63.8101-50.1397L51.4186-50.1397ZM39.0271-40.149L51.4186-40.149L51.4186-42.5465L39.0271-42.5465C38.2715-42.5465 37.7049-42.0413 37.7049-41.348C37.7049-40.6542 38.2715-40.149 39.0271-40.149ZM51.4186-32.494L63.8101-32.494C64.5658-32.494 65.1324-33.061 65.1324-33.7548C65.1324-34.3863 64.5658-34.9529 63.8101-34.9529L51.4186-34.9529ZM39.0271-24.9627L51.4186-24.9627L51.4186-27.3597L39.0271-27.3597C38.2715-27.3597 37.7049-26.855 37.7049-26.1616C37.7049-25.5298 38.2715-24.9627 39.0271-24.9627ZM51.4186-17.4314L63.8101-17.4314C64.5658-17.4314 65.1324-17.9366 65.1324-18.6303C65.1324-19.2618 64.5658-19.8284 63.8101-19.8284L51.4186-19.8284ZM39.0271-9.77634L51.4186-9.77634L51.4186-12.2353L39.0271-12.2353C38.2715-12.2353 37.7049-11.6686 37.7049-10.9753C37.7049-10.3434 38.2715-9.77634 39.0271-9.77634ZM51.4186-2.24505L63.8101-2.24505C64.5658-2.24505 65.1324-2.75022 65.1324-3.44399C65.1324-4.07545 64.5658-4.64209 63.8101-4.64209L51.4186-4.64209ZM39.0271 5.41001L51.4186 5.41001L51.4186 2.95109L39.0271 2.95109C38.2715 2.95109 37.7049 3.51772 37.7049 4.21107C37.7049 4.84295 38.2715 5.41001 39.0271 5.41001Z"/>
  </g>
  <g id="Black-S" transform="matrix(1 0 0 1 2887.7 696)">
   <path d="M9.76562-7.08008C9.76562 2.49023 15.4297 8.1543 25 8.1543L66.4062 8.1543C75.9766 8.1543 81.6406 2.49023 81.6406-7.08008L81.6406-63.3301C81.6406-72.9004 75.9766-78.5645 66.4062-78.5645L25-78.5645C15.4297-78.5645 9.76562-72.9004 9.76562-63.3301ZM23.9258-9.32617L23.9258-61.084C23.9258-63.3301 24.8047-64.4043 27.2461-64.4043L64.1602-64.4043C66.6016-64.4043 67.4805-63.3301 67.4805-61.084L67.4805-9.32617C67.4805-7.08008 66.6016-6.00586 64.1602-6.00586L27.2461-6.00586C24.8047-6.00586 23.9258-7.08008 23.9258-9.32617ZM41.6992 0.390625L49.707 0.390625L49.707-49.0234L41.6992-49.0234ZM45.7031-47.3633C52.9785-47.3633 57.5684-51.709 57.5684-58.7402C57.5684-59.9609 57.4219-61.3281 57.1289-62.5977L53.418-78.5156C52.832-81.0547 50.7812-82.666 48.0957-82.666L43.3105-82.666C40.625-82.666 38.5742-81.0547 37.9883-78.5156L34.2773-62.5977C33.9844-61.3281 33.8379-59.9609 33.8379-58.7402C33.8379-51.709 38.4277-47.3633 45.7031-47.3633ZM45.7031-54.834C43.5059-54.834 41.7969-56.543 41.7969-58.7402C41.7969-60.9375 43.5059-62.6465 45.7031-62.6465C47.9004-62.6465 49.6094-60.9375 49.6094-58.7402C49.6094-56.4941 47.9492-54.834 45.7031-54.834ZM45.7031-39.8926L54.3945-39.8926C56.2012-39.8926 57.6172-41.3086 57.6172-43.1641C57.6172-44.9219 56.2012-46.3379 54.3945-46.3379L45.7031-46.3379ZM37.0117-35.7422L45.7031-35.7422L45.7031-42.2363L37.0117-42.2363C35.2051-42.2363 33.7891-40.8203 33.7891-39.0625C33.7891-37.207 35.2051-35.7422 37.0117-35.7422ZM45.7031-30.6641L54.3945-30.6641C56.2012-30.6641 57.6172-32.1289 57.6172-33.9355C57.6172-35.7422 56.2012-37.1582 54.3945-37.1582L45.7031-37.1582ZM37.0117-26.5625L45.7031-26.5625L45.7031-33.0078L37.0117-33.0078C35.2051-33.0078 33.7891-31.6406 33.7891-29.834C33.7891-28.0273 35.2051-26.5625 37.0117-26.5625ZM45.7031-21.4844L54.3945-21.4844C56.2012-21.4844 57.6172-22.9004 57.6172-24.7559C57.6172-26.5137 56.2012-27.9297 54.3945-27.9297L45.7031-27.9297ZM37.0117-17.334L45.7031-17.334L45.7031-23.8281L37.0117-23.8281C35.2051-23.8281 33.7891-22.4121 33.7891-20.6055C33.7891-18.7988 35.2051-17.334 37.0117-17.334ZM45.7031-12.2559L54.3945-12.2559C56.2012-12.2559 57.6172-13.7207 57.6172-15.5273C57.6172-17.334 56.2012-18.75 54.3945-18.75L45.7031-18.75ZM37.0117-7.66602L45.7031-7.66602L45.7031-14.1113L37.0117-14.1113C35.2051-14.1113 33.7891-12.6953 33.7891-10.9375C33.7891-9.08203 35.2051-7.66602 37.0117-7.66602Z"/>
  </g>
  <g id="Heavy-S" transform="matrix(1 0 0 1 2591.79 696)">
   <path d="M9.76562-6.95331C9.76562 2.32889 15.0494 7.62417 24.297 7.62417L65.4843 7.62417C74.7319 7.62417 80.0272 2.32889 80.0272-6.95331L80.0272-63.4799C80.0272-72.7506 74.7319-78.0574 65.4843-78.0574L24.297-78.0574C15.0494-78.0574 9.76562-72.7506 9.76562-63.4799ZM22.2432-8.69233L22.2432-61.7409C22.2432-64.2866 23.3641-65.5798 26.1052-65.5798L63.6877-65.5798C66.4172-65.5798 67.5381-64.2866 67.5381-61.7409L67.5381-8.69233C67.5381-6.1466 66.4172-4.85341 63.6877-4.85341L26.1052-4.85341C23.3641-4.85341 22.2432-6.1466 22.2432-8.69233ZM41.2152 0.943799L48.5776 0.943799L48.5776-49.4729L41.2152-49.4729ZM44.8964-47.8588C51.9067-47.8588 56.2661-51.9971 56.2661-58.7518C56.2661-59.9379 56.1196-61.259 55.8382-62.4939L52.1272-78.4004C51.5989-80.6974 49.721-82.1589 47.289-82.1589L42.5038-82.1589C40.0718-82.1589 38.1939-80.6974 37.6541-78.4004L33.9547-62.4939C33.6732-61.259 33.5267-59.9379 33.5267-58.7518C33.5267-51.9971 37.8861-47.8588 44.8964-47.8588ZM44.8964-54.9262C42.6876-54.9262 40.9671-56.6467 40.9671-58.8555C40.9671-61.0643 42.6876-62.7848 44.8964-62.7848C47.0937-62.7848 48.8257-61.0643 48.8257-58.8555C48.8257-56.6094 47.154-54.9262 44.8964-54.9262ZM44.8964-39.9732L53.6339-39.9732C55.3714-39.9732 56.7183-41.3316 56.7183-43.1064C56.7183-44.7951 55.3714-46.1535 53.6339-46.1535L44.8964-46.1535ZM36.1589-35.6154L44.8964-35.6154L44.8964-41.833L36.1589-41.833C34.4214-41.833 33.0745-40.4746 33.0745-38.7859C33.0745-37.0111 34.4214-35.6154 36.1589-35.6154ZM44.8964-30.5488L53.6339-30.5488C55.3714-30.5488 56.7183-31.9445 56.7183-33.682C56.7183-35.408 55.3714-36.7548 53.6339-36.7548L44.8964-36.7548ZM36.1589-26.2283L44.8964-26.2283L44.8964-32.397L36.1589-32.397C34.4214-32.397 33.0745-31.0875 33.0745-29.3615C33.0745-27.624 34.4214-26.2283 36.1589-26.2283ZM44.8964-21.1617L53.6339-21.1617C55.3714-21.1617 56.7183-22.5201 56.7183-24.2949C56.7183-25.9835 55.3714-27.3304 53.6339-27.3304L44.8964-27.3304ZM36.1589-16.8039L44.8964-16.8039L44.8964-23.0099L36.1589-23.0099C34.4214-23.0099 33.0745-21.663 33.0745-19.937C33.0745-18.1996 34.4214-16.8039 36.1589-16.8039ZM44.8964-11.7373L53.6339-11.7373C55.3714-11.7373 56.7183-13.133 56.7183-14.8704C56.7183-16.5964 55.3714-17.9433 53.6339-17.9433L44.8964-17.9433ZM36.1589-7.04369L44.8964-7.04369L44.8964-13.2124L36.1589-13.2124C34.4214-13.2124 33.0745-11.8656 33.0745-10.1769C33.0745-8.40209 34.4214-7.04369 36.1589-7.04369Z"/>
  </g>
  <g id="Bold-S" transform="matrix(1 0 0 1 2295.98 696)">
   <path d="M9.76562-6.81152C9.76562 2.14844 14.624 7.03125 23.5107 7.03125L64.4531 7.03125C73.3398 7.03125 78.2227 2.14844 78.2227-6.81152L78.2227-63.6475C78.2227-72.583 73.3398-77.4902 64.4531-77.4902L23.5107-77.4902C14.624-77.4902 9.76562-72.583 9.76562-63.6475ZM20.3613-7.9834L20.3613-62.4756C20.3613-65.3564 21.7529-66.8945 24.8291-66.8945L63.1592-66.8945C66.2109-66.8945 67.6025-65.3564 67.6025-62.4756L67.6025-7.9834C67.6025-5.10254 66.2109-3.56445 63.1592-3.56445L24.8291-3.56445C21.7529-3.56445 20.3613-5.10254 20.3613-7.9834ZM40.6738 1.5625L47.3145 1.5625L47.3145-49.9756L40.6738-49.9756ZM43.9941-48.4131C50.708-48.4131 54.8096-52.3193 54.8096-58.7646C54.8096-59.9121 54.6631-61.1816 54.3945-62.3779L50.6836-78.2715C50.2197-80.2979 48.5352-81.5918 46.3867-81.5918L41.6016-81.5918C39.4531-81.5918 37.7686-80.2979 37.2803-78.2715L33.5938-62.3779C33.3252-61.1816 33.1787-59.9121 33.1787-58.7646C33.1787-52.3193 37.2803-48.4131 43.9941-48.4131ZM43.9941-55.0293C41.7725-55.0293 40.0391-56.7627 40.0391-58.9844C40.0391-61.2061 41.7725-62.9395 43.9941-62.9395C46.1914-62.9395 47.9492-61.2061 47.9492-58.9844C47.9492-56.7383 46.2646-55.0293 43.9941-55.0293ZM43.9941-40.0635L52.7832-40.0635C54.4434-40.0635 55.7129-41.3574 55.7129-43.042C55.7129-44.6533 54.4434-45.9473 52.7832-45.9473L43.9941-45.9473ZM35.2051-35.4736L43.9941-35.4736L43.9941-41.3818L35.2051-41.3818C33.5449-41.3818 32.2754-40.0879 32.2754-38.4766C32.2754-36.792 33.5449-35.4736 35.2051-35.4736ZM43.9941-30.4199L52.7832-30.4199C54.4434-30.4199 55.7129-31.7383 55.7129-33.3984C55.7129-35.0342 54.4434-36.3037 52.7832-36.3037L43.9941-36.3037ZM35.2051-25.8545L43.9941-25.8545L43.9941-31.7139L35.2051-31.7139C33.5449-31.7139 32.2754-30.4688 32.2754-28.833C32.2754-27.1729 33.5449-25.8545 35.2051-25.8545ZM43.9941-20.8008L52.7832-20.8008C54.4434-20.8008 55.7129-22.0947 55.7129-23.7793C55.7129-25.3906 54.4434-26.6602 52.7832-26.6602L43.9941-26.6602ZM35.2051-16.2109L43.9941-16.2109L43.9941-22.0947L35.2051-22.0947C33.5449-22.0947 32.2754-20.8252 32.2754-19.1895C32.2754-17.5293 33.5449-16.2109 35.2051-16.2109ZM43.9941-11.1572L52.7832-11.1572C54.4434-11.1572 55.7129-12.4756 55.7129-14.1357C55.7129-15.7715 54.4434-17.041 52.7832-17.041L43.9941-17.041ZM35.2051-6.34766L43.9941-6.34766L43.9941-12.207L35.2051-12.207C33.5449-12.207 32.2754-10.9375 32.2754-9.32617C32.2754-7.6416 33.5449-6.34766 35.2051-6.34766Z"/>
  </g>
  <g id="Semibold-S" transform="matrix(1 0 0 1 1999.89 696)">
   <path d="M9.76562-6.71377C9.76562 2.02402 14.3308 6.62246 22.9687 6.62246L63.7422 6.62246C72.3801 6.62246 76.9785 2.02402 76.9785-6.71377L76.9785-63.763C76.9785-72.4675 72.3801-77.0992 63.7422-77.0992L22.9687-77.0992C14.3308-77.0992 9.76562-72.4675 9.76562-63.763ZM19.0639-7.49463L19.0639-62.9821C19.0639-66.094 20.6421-67.801 23.9493-67.801L62.7948-67.801C66.0687-67.801 67.647-66.094 67.647-62.9821L67.647-7.49463C67.647-4.38271 66.0687-2.67578 62.7948-2.67578L23.9493-2.67578C20.6421-2.67578 19.0639-4.38271 19.0639-7.49463ZM40.3006 1.98906L46.4436 1.98906L46.4436-50.3222L40.3006-50.3222ZM43.3721-48.7952C49.8815-48.7952 53.8054-52.5415 53.8054-58.7735C53.8054-59.8943 53.6589-61.1283 53.3992-62.2979L49.6883-78.1826C49.2688-80.0224 47.7176-81.2008 45.7646-81.2008L40.9795-81.2008C39.0266-81.2008 37.4753-80.0224 37.0226-78.1826L33.3449-62.2979C33.0853-61.1283 32.9388-59.8943 32.9388-58.7735C32.9388-52.5415 36.8626-48.7952 43.3721-48.7952ZM43.3721-55.1004C41.1415-55.1004 39.3992-56.8427 39.3992-59.0732C39.3992-61.3038 41.1415-63.0461 43.3721-63.0461C45.5693-63.0461 47.3449-61.3038 47.3449-59.0732C47.3449-56.8271 45.6515-55.1004 43.3721-55.1004ZM43.3721-40.1257L52.1967-40.1257C53.8035-40.1257 55.0197-41.3752 55.0197-42.9976C55.0197-44.5556 53.8035-45.8051 52.1967-45.8051L43.3721-45.8051ZM34.5475-35.3759L43.3721-35.3759L43.3721-41.0708L34.5475-41.0708C32.9406-41.0708 31.7244-39.8213 31.7244-38.2633C31.7244-36.6409 32.9406-35.3759 34.5475-35.3759ZM43.3721-30.3311L52.1967-30.3311C53.8035-30.3311 55.0197-31.5961 55.0197-33.2029C55.0197-34.7765 53.8035-35.9927 52.1967-35.9927L43.3721-35.9927ZM34.5475-25.5968L43.3721-25.5968L43.3721-31.2429L34.5475-31.2429C32.9406-31.2429 31.7244-30.0422 31.7244-28.4687C31.7244-26.8618 32.9406-25.5968 34.5475-25.5968ZM43.3721-20.552L52.1967-20.552C53.8035-20.552 55.0197-21.8015 55.0197-23.4238C55.0197-24.9818 53.8035-26.198 52.1967-26.198L43.3721-26.198ZM34.5475-15.8021L43.3721-15.8021L43.3721-21.4638L34.5475-21.4638C32.9406-21.4638 31.7244-20.2476 31.7244-18.674C31.7244-17.0672 32.9406-15.8021 34.5475-15.8021ZM43.3721-10.7573L52.1967-10.7573C53.8035-10.7573 55.0197-12.0224 55.0197-13.6292C55.0197-15.2027 53.8035-16.4189 52.1967-16.4189L43.3721-16.4189ZM34.5475-5.86777L43.3721-5.86777L43.3721-11.5139L34.5475-11.5139C32.9406-11.5139 31.7244-10.2977 31.7244-8.73965C31.7244-7.11729 32.9406-5.86777 34.5475-5.86777Z"/>
  </g>
  <g id="Medium-S" transform="matrix(1 0 0 1 1703.66 696)">
   <path d="M9.76562-6.63965C9.76562 1.92969 14.1084 6.3125 22.5576 6.3125L63.2031 6.3125C71.6523 6.3125 76.0352 1.92969 76.0352-6.63965L76.0352-63.8506C76.0352-72.3799 71.6523-76.8027 63.2031-76.8027L22.5576-76.8027C14.1084-76.8027 9.76562-72.3799 9.76562-63.8506ZM18.0801-7.12402L18.0801-63.3662C18.0801-66.6533 19.7998-68.4883 23.2822-68.4883L62.5186-68.4883C65.9609-68.4883 67.6807-66.6533 67.6807-63.3662L67.6807-7.12402C67.6807-3.83691 65.9609-2.00195 62.5186-2.00195L23.2822-2.00195C19.7998-2.00195 18.0801-3.83691 18.0801-7.12402ZM40.0176 2.3125L45.7832 2.3125L45.7832-50.585L40.0176-50.585ZM42.9004-49.085C49.2549-49.085 53.0439-52.71 53.0439-58.7803C53.0439-59.8809 52.8975-61.0879 52.6445-62.2373L48.9336-78.1152C48.5479-79.8135 47.0977-80.9043 45.293-80.9043L40.5078-80.9043C38.7031-80.9043 37.2529-79.8135 36.8271-78.1152L33.1562-62.2373C32.9033-61.0879 32.7568-59.8809 32.7568-58.7803C32.7568-52.71 36.5459-49.085 42.9004-49.085ZM42.9004-55.1543C40.6631-55.1543 38.9141-56.9033 38.9141-59.1406C38.9141-61.3779 40.6631-63.127 42.9004-63.127C45.0977-63.127 46.8867-61.3779 46.8867-59.1406C46.8867-56.8945 45.1865-55.1543 42.9004-55.1543ZM42.9004-40.1729L51.752-40.1729C53.3184-40.1729 54.4941-41.3887 54.4941-42.9639C54.4941-44.4814 53.3184-45.6973 51.752-45.6973L42.9004-45.6973ZM34.0488-35.3018L42.9004-35.3018L42.9004-40.835L34.0488-40.835C32.4824-40.835 31.3066-39.6191 31.3066-38.1016C31.3066-36.5264 32.4824-35.3018 34.0488-35.3018ZM42.9004-30.2637L51.752-30.2637C53.3184-30.2637 54.4941-31.4883 54.4941-33.0547C54.4941-34.5811 53.3184-35.7568 51.752-35.7568L42.9004-35.7568ZM34.0488-25.4014L42.9004-25.4014L42.9004-30.8857L34.0488-30.8857C32.4824-30.8857 31.3066-29.7188 31.3066-28.1924C31.3066-26.626 32.4824-25.4014 34.0488-25.4014ZM42.9004-20.3633L51.752-20.3633C53.3184-20.3633 54.4941-21.5791 54.4941-23.1543C54.4941-24.6719 53.3184-25.8477 51.752-25.8477L42.9004-25.8477ZM34.0488-15.4922L42.9004-15.4922L42.9004-20.9854L34.0488-20.9854C32.4824-20.9854 31.3066-19.8096 31.3066-18.2832C31.3066-16.7168 32.4824-15.4922 34.0488-15.4922ZM42.9004-10.4541L51.752-10.4541C53.3184-10.4541 54.4941-11.6787 54.4941-13.2451C54.4941-14.7715 53.3184-15.9473 51.752-15.9473L42.9004-15.9473ZM34.0488-5.50391L42.9004-5.50391L42.9004-10.9883L34.0488-10.9883C32.4824-10.9883 31.3066-9.8125 31.3066-8.29492C31.3066-6.71973 32.4824-5.50391 34.0488-5.50391Z"/>
  </g>
  <g id="Regular-S" transform="matrix(1 0 0 1 1407.56 696)">
   <path d="M9.76562-6.54297C9.76562 1.80664 13.8184 5.9082 22.0215 5.9082L62.5 5.9082C70.7031 5.9082 74.8047 1.80664 74.8047-6.54297L74.8047-63.9648C74.8047-72.2656 70.7031-76.416 62.5-76.416L22.0215-76.416C13.8184-76.416 9.76562-72.2656 9.76562-63.9648ZM16.7969-6.64062L16.7969-63.8672C16.7969-67.3828 18.7012-69.3848 22.4121-69.3848L62.1582-69.3848C65.8203-69.3848 67.7246-67.3828 67.7246-63.8672L67.7246-6.64062C67.7246-3.125 65.8203-1.12305 62.1582-1.12305L22.4121-1.12305C18.7012-1.12305 16.7969-3.125 16.7969-6.64062ZM39.6484 2.73438L44.9219 2.73438L44.9219-50.9277L39.6484-50.9277ZM42.2852-49.4629C48.4375-49.4629 52.0508-52.9297 52.0508-58.7891C52.0508-59.8633 51.9043-61.0352 51.6602-62.1582L47.9492-78.0273C47.6074-79.541 46.2891-80.5176 44.6777-80.5176L39.8926-80.5176C38.2812-80.5176 36.9629-79.541 36.5723-78.0273L32.9102-62.1582C32.666-61.0352 32.5195-59.8633 32.5195-58.7891C32.5195-52.9297 36.1328-49.4629 42.2852-49.4629ZM42.2852-55.2246C40.0391-55.2246 38.2812-56.9824 38.2812-59.2285C38.2812-61.4746 40.0391-63.2324 42.2852-63.2324C44.4824-63.2324 46.2891-61.4746 46.2891-59.2285C46.2891-56.9824 44.5801-55.2246 42.2852-55.2246ZM42.2852-40.2344L51.1719-40.2344C52.6855-40.2344 53.8086-41.4062 53.8086-42.9199C53.8086-44.3848 52.6855-45.5566 51.1719-45.5566L42.2852-45.5566ZM33.3984-35.2051L42.2852-35.2051L42.2852-40.5273L33.3984-40.5273C31.8848-40.5273 30.7617-39.3555 30.7617-37.8906C30.7617-36.377 31.8848-35.2051 33.3984-35.2051ZM42.2852-30.1758L51.1719-30.1758C52.6855-30.1758 53.8086-31.3477 53.8086-32.8613C53.8086-34.3262 52.6855-35.4492 51.1719-35.4492L42.2852-35.4492ZM33.3984-25.1465L42.2852-25.1465L42.2852-30.4199L33.3984-30.4199C31.8848-30.4199 30.7617-29.2969 30.7617-27.832C30.7617-26.3184 31.8848-25.1465 33.3984-25.1465ZM42.2852-20.1172L51.1719-20.1172C52.6855-20.1172 53.8086-21.2891 53.8086-22.8027C53.8086-24.2676 52.6855-25.3906 51.1719-25.3906L42.2852-25.3906ZM33.3984-15.0879L42.2852-15.0879L42.2852-20.3613L33.3984-20.3613C31.8848-20.3613 30.7617-19.2383 30.7617-17.7734C30.7617-16.2598 31.8848-15.0879 33.3984-15.0879ZM42.2852-10.0586L51.1719-10.0586C52.6855-10.0586 53.8086-11.2305 53.8086-12.7441C53.8086-14.209 52.6855-15.332 51.1719-15.332L42.2852-15.332ZM33.3984-5.0293L42.2852-5.0293L42.2852-10.3027L33.3984-10.3027C31.8848-10.3027 30.7617-9.17969 30.7617-7.71484C30.7617-6.20117 31.8848-5.0293 33.3984-5.0293Z"/>
  </g>
  <g id="Light-S" transform="matrix(1 0 0 1 1111.47 696)">
   <path d="M9.76562-5.96778C9.76562 1.77637 13.6216 5.66602 21.2647 5.66602L62.0308 5.66602C69.689 5.66602 73.5635 1.77637 73.5635-5.96778L73.5635-64.4795C73.5635-72.1899 69.689-76.1133 62.0308-76.1133L21.2647-76.1133C13.6216-76.1133 9.76562-72.1899 9.76562-64.4795ZM15.1924-6.06543L15.1924-64.3818C15.1924-68.4575 17.354-70.6865 21.5645-70.6865L61.7647-70.6865C65.9414-70.6865 68.1182-68.4575 68.1182-64.3818L68.1182-6.06543C68.1182-1.98976 65.9414 0.239247 61.7647 0.239247L21.5645 0.239247C17.354 0.239247 15.1924-1.98976 15.1924-6.06543ZM39.5576 3.1582L43.7715 3.1582L43.7715-51.7602L39.5576-51.7602ZM41.6646-50.3408C47.1963-50.3408 50.5523-53.5957 50.5523-58.9253C50.5523-59.939 50.4209-60.8989 50.1919-61.9766L46.6626-77.4976C46.3814-78.7236 45.3506-79.5034 44.0571-79.5034L39.272-79.5034C37.9937-79.5034 36.9478-78.7236 36.6328-77.4976L33.1372-61.9766C32.9082-60.8989 32.7769-59.939 32.7769-58.9253C32.7769-53.5957 36.1328-50.3408 41.6646-50.3408ZM41.6646-54.9067C39.1763-54.9067 37.3428-56.7402 37.3428-59.2285C37.3428-61.6411 39.252-63.5503 41.6646-63.5503C44.0435-63.5503 46.0015-61.6411 46.0015-59.2285C46.0015-56.7402 44.1865-54.9067 41.6646-54.9067ZM41.6646-41.7178L50.8086-41.7178C52.0347-41.7178 52.9458-42.6626 52.9458-43.8584C52.9458-45.0356 52.0347-45.9805 50.8086-45.9805L41.6646-45.9805ZM32.5205-36.416L41.6646-36.416L41.6646-40.6636L32.5205-40.6636C31.2944-40.6636 30.3833-39.7339 30.3833-38.5566C30.3833-37.3457 31.2944-36.416 32.5205-36.416ZM41.6646-31.084L50.8086-31.084C52.0347-31.084 52.9458-32.0288 52.9458-33.2397C52.9458-34.4019 52.0347-35.313 50.8086-35.313L41.6646-35.313ZM32.5205-25.7822L41.6646-25.7822L41.6646-29.9961L32.5205-29.9961C31.2944-29.9961 30.3833-29.1001 30.3833-27.9229C30.3833-26.727 31.2944-25.7822 32.5205-25.7822ZM41.6646-20.4805L50.8086-20.4805C52.0347-20.4805 52.9458-21.4102 52.9458-22.6211C52.9458-23.7832 52.0347-24.6943 50.8086-24.6943L41.6646-24.6943ZM32.5205-15.1484L41.6646-15.1484L41.6646-19.3774L32.5205-19.3774C31.2944-19.3774 30.3833-18.4663 30.3833-17.2891C30.3833-16.0933 31.2944-15.1484 32.5205-15.1484ZM41.6646-9.84668L50.8086-9.84668C52.0347-9.84668 52.9458-10.7764 52.9458-11.9873C52.9458-13.1494 52.0347-14.0606 50.8086-14.0606L41.6646-14.0606ZM32.5205-4.51465L41.6646-4.51465L41.6646-8.74366L32.5205-8.74366C31.2944-8.74366 30.3833-7.83253 30.3833-6.65528C30.3833-5.45948 31.2944-4.51465 32.5205-4.51465Z"/>
  </g>
  <g id="Thin-S" transform="matrix(1 0 0 1 815.578 696)">
   <path d="M9.76562-5.20704C9.76562 1.73633 13.3613 5.34571 20.2637 5.34571L61.4102 5.34571C68.3477 5.34571 71.9219 1.73633 71.9219-5.20704L71.9219-65.1601C71.9219-72.0898 68.3477-75.7129 61.4102-75.7129L20.2637-75.7129C13.3613-75.7129 9.76562-72.0898 9.76562-65.1601ZM13.0703-5.3047L13.0703-65.0625C13.0703-69.8789 15.5723-72.4082 20.4434-72.4082L61.2441-72.4082C66.1016-72.4082 68.6387-69.8789 68.6387-65.0625L68.6387-5.3047C68.6387-0.488302 66.1016 2.04099 61.2441 2.04099L20.4434 2.04099C15.5723 2.04099 13.0703-0.488302 13.0703-5.3047ZM39.4375 3.71874L42.25 3.71874L42.25-52.8613L39.4375-52.8613ZM40.8438-51.5019C45.5547-51.5019 48.5703-54.4766 48.5703-59.1055C48.5703-60.0391 48.459-60.7188 48.25-61.7363L44.961-76.7969C44.7598-77.6426 44.1094-78.1621 43.2363-78.1621L38.4512-78.1621C37.6133-78.1621 36.9277-77.6426 36.7129-76.7969L33.4375-61.7363C33.2285-60.7188 33.1172-60.0391 33.1172-59.1055C33.1172-54.4766 36.1328-51.5019 40.8438-51.5019ZM40.8438-54.4863C38.0352-54.4863 36.1016-56.4199 36.1016-59.2285C36.1016-61.8613 38.211-63.9707 40.8438-63.9707C43.4629-63.9707 45.6211-61.8613 45.6211-59.2285C45.6211-56.4199 43.666-54.4863 40.8438-54.4863ZM40.8438-43.6797L50.3281-43.6797C51.1738-43.6797 51.8047-44.3242 51.8047-45.0996C51.8047-45.8965 51.1738-46.541 50.3281-46.541L40.8438-46.541ZM31.3594-38.0176L40.8438-38.0176L40.8438-40.8437L31.3594-40.8437C30.5137-40.8437 29.8828-40.2344 29.8828-39.4375C29.8828-38.6269 30.5137-38.0176 31.3594-38.0176ZM40.8438-32.2851L50.3281-32.2851C51.1738-32.2851 51.8047-32.9297 51.8047-33.7402C51.8047-34.502 51.1738-35.1328 50.3281-35.1328L40.8438-35.1328ZM31.3594-26.623L40.8438-26.623L40.8438-29.4356L31.3594-29.4356C30.5137-29.4356 29.8828-28.8398 29.8828-28.043C29.8828-27.2676 30.5137-26.623 31.3594-26.623ZM40.8438-20.9609L50.3281-20.9609C51.1738-20.9609 51.8047-21.5703 51.8047-22.3809C51.8047-23.1426 51.1738-23.7735 50.3281-23.7735L40.8438-23.7735ZM31.3594-15.2285L40.8438-15.2285L40.8438-18.0762L31.3594-18.0762C30.5137-18.0762 29.8828-17.4453 29.8828-16.6484C29.8828-15.873 30.5137-15.2285 31.3594-15.2285ZM40.8438-9.56641L50.3281-9.56641C51.1738-9.56641 51.8047-10.1758 51.8047-10.9863C51.8047-11.7481 51.1738-12.3789 50.3281-12.3789L40.8438-12.3789ZM31.3594-3.83399L40.8438-3.83399L40.8438-6.68167L31.3594-6.68167C30.5137-6.68167 29.8828-6.05081 29.8828-5.25393C29.8828-4.47853 30.5137-3.83399 31.3594-3.83399Z"/>
  </g>
  <g id="Ultralight-S" transform="matrix(1 0 0 1 519.288 696)">
   <path d="M9.76562-4.8174C9.76562 1.71582 13.228 5.18165 19.751 5.18165L61.0923 5.18165C67.6607 5.18165 71.0811 1.71582 71.0811-4.8174L71.0811-65.5088C71.0811-72.0386 67.6607-75.5078 61.0923-75.5078L19.751-75.5078C13.228-75.5078 9.76562-72.0386 9.76562-65.5088ZM11.9834-4.91505L11.9834-65.4111C11.9834-70.6069 14.6597-73.29 19.8692-73.29L60.9775-73.29C66.1836-73.29 68.9053-70.6069 68.9053-65.4111L68.9053-4.91505C68.9053 0.280735 66.1836 2.96384 60.9775 2.96384L19.8692 2.96384C14.6597 2.96384 11.9834 0.280735 11.9834-4.91505ZM39.376 4.00585L41.4707 4.00585L41.4707-53.4253L39.376-53.4253ZM40.4234-52.0967C44.7139-52.0967 47.5552-54.9277 47.5552-59.1978C47.5552-60.0903 47.4541-60.6265 47.2554-61.6133L44.0894-76.438C43.9292-77.0889 43.4737-77.4751 42.8159-77.4751L38.0308-77.4751C37.4185-77.4751 36.9175-77.0889 36.7539-76.438L33.5913-61.6133C33.3926-60.6265 33.2915-60.0903 33.2915-59.1978C33.2915-54.9277 36.1328-52.0967 40.4234-52.0967ZM40.4234-54.271C37.4507-54.271 35.4658-56.2559 35.4658-59.2285C35.4658-61.9741 37.6778-64.186 40.4234-64.186C43.1655-64.186 45.4263-61.9741 45.4263-59.2285C45.4263-56.2559 43.3994-54.271 40.4234-54.271ZM40.4234-44.6845L50.082-44.6845C50.7329-44.6845 51.2202-45.1753 51.2202-45.7353C51.2202-46.3374 50.7329-46.8281 50.082-46.8281L40.4234-46.8281ZM30.7647-38.8379L40.4234-38.8379L40.4234-40.936L30.7647-40.936C30.1138-40.936 29.6265-40.4907 29.6265-39.8887C29.6265-39.2832 30.1138-38.8379 30.7647-38.8379ZM40.4234-32.9004L50.082-32.9004C50.7329-32.9004 51.2202-33.3911 51.2202-33.9966C51.2202-34.5532 50.7329-35.0405 50.082-35.0405L40.4234-35.0405ZM30.7647-27.0537L40.4234-27.0537L40.4234-29.1484L30.7647-29.1484C30.1138-29.1484 29.6265-28.7065 29.6265-28.1045C29.6265-27.5444 30.1138-27.0537 30.7647-27.0537ZM40.4234-21.207L50.082-21.207C50.7329-21.207 51.2202-21.6523 51.2202-22.2578C51.2202-22.8145 50.7329-23.3018 50.082-23.3018L40.4234-23.3018ZM30.7647-15.2695L40.4234-15.2695L40.4234-17.4097L30.7647-17.4097C30.1138-17.4097 29.6265-16.9224 29.6265-16.3203C29.6265-15.7603 30.1138-15.2695 30.7647-15.2695ZM40.4234-9.42286L50.082-9.42286C50.7329-9.42286 51.2202-9.86817 51.2202-10.4737C51.2202-11.0303 50.7329-11.5176 50.082-11.5176L40.4234-11.5176ZM30.7647-3.48536L40.4234-3.48536L40.4234-5.62553L30.7647-5.62553C30.1138-5.62553 29.6265-5.13822 29.6265-4.53616C29.6265-3.97609 30.1138-3.48536 30.7647-3.48536Z"/>
  </g>
 </g>
</svg>
