<?xml version="1.0" encoding="UTF-8"?>
<!--Generator: Apple Native CoreSVG 175-->
<!DOCTYPE svg
PUBLIC "-//W3C//DTD SVG 1.1//EN"
       "http://www.w3.org/Graphics/SVG/1.1/DTD/svg11.dtd">
<svg version="1.1" xmlns="http://www.w3.org/2000/svg" xmlns:xlink="http://www.w3.org/1999/xlink" width="3300" height="2200">
 <!--glyph: "uni10090D.medium", point size: 100.0, font version: "17.3d3e1", template writer version: "65.1"-->
 <g id="Notes">
  <rect height="2200" id="artboard" style="fill:white;opacity:1" width="3300" x="0" y="0"/>
  <line style="fill:none;stroke:black;opacity:1;stroke-width:0.5;" x1="263" x2="3036" y1="292" y2="292"/>
  <text style="stroke:none;fill:black;font-family:sans-serif;font-size:13;font-weight:bold;" transform="matrix(1 0 0 1 263 322)">Weight/Scale Variations</text>
  <text style="stroke:none;fill:black;font-family:sans-serif;font-size:13;text-anchor:middle;" transform="matrix(1 0 0 1 559.711 322)">Ultralight</text>
  <text style="stroke:none;fill:black;font-family:sans-serif;font-size:13;text-anchor:middle;" transform="matrix(1 0 0 1 856.422 322)">Thin</text>
  <text style="stroke:none;fill:black;font-family:sans-serif;font-size:13;text-anchor:middle;" transform="matrix(1 0 0 1 1153.13 322)">Light</text>
  <text style="stroke:none;fill:black;font-family:sans-serif;font-size:13;text-anchor:middle;" transform="matrix(1 0 0 1 1449.84 322)">Regular</text>
  <text style="stroke:none;fill:black;font-family:sans-serif;font-size:13;text-anchor:middle;" transform="matrix(1 0 0 1 1746.56 322)">Medium</text>
  <text style="stroke:none;fill:black;font-family:sans-serif;font-size:13;text-anchor:middle;" transform="matrix(1 0 0 1 2043.27 322)">Semibold</text>
  <text style="stroke:none;fill:black;font-family:sans-serif;font-size:13;text-anchor:middle;" transform="matrix(1 0 0 1 2339.98 322)">Bold</text>
  <text style="stroke:none;fill:black;font-family:sans-serif;font-size:13;text-anchor:middle;" transform="matrix(1 0 0 1 2636.69 322)">Heavy</text>
  <text style="stroke:none;fill:black;font-family:sans-serif;font-size:13;text-anchor:middle;" transform="matrix(1 0 0 1 2933.4 322)">Black</text>
  <line style="fill:none;stroke:black;opacity:1;stroke-width:0.5;" x1="263" x2="3036" y1="1903" y2="1903"/>
  <g transform="matrix(1 0 0 1 263 1933)">
   <path d="M9.24805 0.830078Q10.8691 0.830078 12.2949 0.214844Q13.7207-0.400391 14.8096-1.49414Q15.8984-2.58789 16.5186-4.01367Q17.1387-5.43945 17.1387-7.05078Q17.1387-8.66211 16.5186-10.0879Q15.8984-11.5137 14.8047-12.6074Q13.7109-13.7012 12.2852-14.3164Q10.8594-14.9316 9.23828-14.9316Q7.62695-14.9316 6.20117-14.3164Q4.77539-13.7012 3.69141-12.6074Q2.60742-11.5137 1.9873-10.0879Q1.36719-8.66211 1.36719-7.05078Q1.36719-5.43945 1.9873-4.01367Q2.60742-2.58789 3.69629-1.49414Q4.78516-0.400391 6.21094 0.214844Q7.63672 0.830078 9.24805 0.830078ZM9.24805-0.654297Q7.91992-0.654297 6.7627-1.14746Q5.60547-1.64062 4.73145-2.51953Q3.85742-3.39844 3.36426-4.56055Q2.87109-5.72266 2.87109-7.05078Q2.87109-8.37891 3.35938-9.54102Q3.84766-10.7031 4.72168-11.582Q5.5957-12.4609 6.75293-12.9541Q7.91016-13.4473 9.23828-13.4473Q10.5762-13.4473 11.7334-12.9541Q12.8906-12.4609 13.7695-11.582Q14.6484-10.7031 15.1465-9.54102Q15.6445-8.37891 15.6445-7.05078Q15.6445-5.72266 15.1514-4.56055Q14.6582-3.39844 13.7842-2.51953Q12.9102-1.64062 11.748-1.14746Q10.5859-0.654297 9.24805-0.654297ZM5.6543-7.05078Q5.6543-6.72852 5.85938-6.52832Q6.06445-6.32812 6.40625-6.32812L8.51562-6.32812L8.51562-4.20898Q8.51562-3.88672 8.71094-3.67676Q8.90625-3.4668 9.23828-3.4668Q9.56055-3.4668 9.77051-3.67676Q9.98047-3.88672 9.98047-4.20898L9.98047-6.32812L12.0898-6.32812Q12.4219-6.32812 12.627-6.52832Q12.832-6.72852 12.832-7.05078Q12.832-7.38281 12.627-7.58789Q12.4219-7.79297 12.0898-7.79297L9.98047-7.79297L9.98047-9.90234Q9.98047-10.2344 9.77051-10.4443Q9.56055-10.6543 9.23828-10.6543Q8.90625-10.6543 8.71094-10.4443Q8.51562-10.2344 8.51562-9.90234L8.51562-7.79297L6.40625-7.79297Q6.06445-7.79297 5.85938-7.58789Q5.6543-7.38281 5.6543-7.05078Z"/>
  </g>
  <g transform="matrix(1 0 0 1 281.867 1933)">
   <path d="M11.709 2.91016Q13.75 2.91016 15.5518 2.12891Q17.3535 1.34766 18.7305-0.0292969Q20.1074-1.40625 20.8887-3.20801Q21.6699-5.00977 21.6699-7.05078Q21.6699-9.0918 20.8887-10.8936Q20.1074-12.6953 18.7305-14.0723Q17.3535-15.4492 15.5469-16.2305Q13.7402-17.0117 11.6992-17.0117Q9.6582-17.0117 7.85645-16.2305Q6.05469-15.4492 4.68262-14.0723Q3.31055-12.6953 2.5293-10.8936Q1.74805-9.0918 1.74805-7.05078Q1.74805-5.00977 2.5293-3.20801Q3.31055-1.40625 4.6875-0.0292969Q6.06445 1.34766 7.86621 2.12891Q9.66797 2.91016 11.709 2.91016ZM11.709 1.25Q9.98047 1.25 8.47656 0.605469Q6.97266-0.0390625 5.83496-1.17676Q4.69727-2.31445 4.05762-3.81836Q3.41797-5.32227 3.41797-7.05078Q3.41797-8.7793 4.05762-10.2832Q4.69727-11.7871 5.83008-12.9297Q6.96289-14.0723 8.4668-14.7119Q9.9707-15.3516 11.6992-15.3516Q13.4277-15.3516 14.9316-14.7119Q16.4355-14.0723 17.5781-12.9297Q18.7207-11.7871 19.3652-10.2832Q20.0098-8.7793 20.0098-7.05078Q20.0098-5.32227 19.3701-3.81836Q18.7305-2.31445 17.5928-1.17676Q16.4551-0.0390625 14.9463 0.605469Q13.4375 1.25 11.709 1.25ZM7.17773-7.05078Q7.17773-6.69922 7.41211-6.47461Q7.64648-6.25 8.01758-6.25L10.8887-6.25L10.8887-3.36914Q10.8887-2.99805 11.1133-2.76855Q11.3379-2.53906 11.6895-2.53906Q12.0605-2.53906 12.29-2.76855Q12.5195-2.99805 12.5195-3.36914L12.5195-6.25L15.4004-6.25Q15.7715-6.25 16.001-6.47461Q16.2305-6.69922 16.2305-7.05078Q16.2305-7.42188 16.001-7.65137Q15.7715-7.88086 15.4004-7.88086L12.5195-7.88086L12.5195-10.752Q12.5195-11.1328 12.29-11.3623Q12.0605-11.5918 11.6895-11.5918Q11.3379-11.5918 11.1133-11.3574Q10.8887-11.123 10.8887-10.752L10.8887-7.88086L8.01758-7.88086Q7.63672-7.88086 7.40723-7.65137Q7.17773-7.42188 7.17773-7.05078Z"/>
  </g>
  <g transform="matrix(1 0 0 1 305.646 1933)">
   <path d="M14.9707 5.66406Q17.0605 5.66406 18.96 5.01465Q20.8594 4.36523 22.4512 3.19336Q24.043 2.02148 25.2197 0.429688Q26.3965-1.16211 27.0459-3.06641Q27.6953-4.9707 27.6953-7.05078Q27.6953-9.14062 27.0459-11.04Q26.3965-12.9395 25.2197-14.5312Q24.043-16.123 22.4512-17.2998Q20.8594-18.4766 18.9551-19.126Q17.0508-19.7754 14.9609-19.7754Q12.8711-19.7754 10.9717-19.126Q9.07227-18.4766 7.48535-17.2998Q5.89844-16.123 4.72168-14.5312Q3.54492-12.9395 2.90039-11.04Q2.25586-9.14062 2.25586-7.05078Q2.25586-4.9707 2.90527-3.06641Q3.55469-1.16211 4.72656 0.429688Q5.89844 2.02148 7.49023 3.19336Q9.08203 4.36523 10.9814 5.01465Q12.8809 5.66406 14.9707 5.66406ZM14.9707 3.84766Q13.1641 3.84766 11.5283 3.2959Q9.89258 2.74414 8.53516 1.74805Q7.17773 0.751953 6.17676-0.610352Q5.17578-1.97266 4.62891-3.6084Q4.08203-5.24414 4.08203-7.05078Q4.08203-8.86719 4.62891-10.5029Q5.17578-12.1387 6.17188-13.501Q7.16797-14.8633 8.52539-15.8594Q9.88281-16.8555 11.5186-17.4023Q13.1543-17.9492 14.9609-17.9492Q16.7773-17.9492 18.4131-17.4023Q20.0488-16.8555 21.4111-15.8594Q22.7734-14.8633 23.7695-13.501Q24.7656-12.1387 25.3174-10.5029Q25.8691-8.86719 25.8691-7.05078Q25.8789-5.24414 25.332-3.6084Q24.7852-1.97266 23.7842-0.610352Q22.7832 0.751953 21.4209 1.74805Q20.0586 2.74414 18.4229 3.2959Q16.7871 3.84766 14.9707 3.84766ZM9.19922-7.05078Q9.19922-6.66992 9.45801-6.4209Q9.7168-6.17188 10.1172-6.17188L14.0625-6.17188L14.0625-2.2168Q14.0625-1.81641 14.3115-1.55762Q14.5605-1.29883 14.9512-1.29883Q15.3516-1.29883 15.6104-1.55273Q15.8691-1.80664 15.8691-2.2168L15.8691-6.17188L19.8242-6.17188Q20.2246-6.17188 20.4785-6.4209Q20.7324-6.66992 20.7324-7.05078Q20.7324-7.46094 20.4785-7.71484Q20.2246-7.96875 19.8242-7.96875L15.8691-7.96875L15.8691-11.9141Q15.8691-12.3242 15.6104-12.583Q15.3516-12.8418 14.9512-12.8418Q14.5605-12.8418 14.3115-12.583Q14.0625-12.3242 14.0625-11.9141L14.0625-7.96875L10.1172-7.96875Q9.70703-7.96875 9.45312-7.71484Q9.19922-7.46094 9.19922-7.05078Z"/>
  </g>
  <text style="stroke:none;fill:black;font-family:sans-serif;font-size:13;font-weight:bold;" transform="matrix(1 0 0 1 263 1953)">Design Variations</text>
  <text style="stroke:none;fill:black;font-family:sans-serif;font-size:13;" transform="matrix(1 0 0 1 263 1971)">Symbols are supported in up to nine weights and three scales.</text>
  <text style="stroke:none;fill:black;font-family:sans-serif;font-size:13;" transform="matrix(1 0 0 1 263 1989)">For optimal layout with text and other symbols, vertically align</text>
  <text style="stroke:none;fill:black;font-family:sans-serif;font-size:13;" transform="matrix(1 0 0 1 263 2007)">symbols with the adjacent text.</text>
  <line style="fill:none;stroke:#00AEEF;stroke-width:0.5;opacity:1.0;" x1="776" x2="776" y1="1919" y2="1933"/>
  <g transform="matrix(1 0 0 1 776 1933)">
   <path d="M3.31055 0.15625Q3.70117 0.15625 3.91602-0.00976562Q4.13086-0.175781 4.26758-0.585938L5.52734-4.0332L11.2891-4.0332L12.5488-0.585938Q12.6855-0.175781 12.9004-0.00976562Q13.1152 0.15625 13.4961 0.15625Q13.8867 0.15625 14.1162-0.0585938Q14.3457-0.273438 14.3457-0.644531Q14.3457-0.869141 14.2383-1.17188L9.6582-13.3691Q9.48242-13.8184 9.17969-14.043Q8.87695-14.2676 8.4082-14.2676Q7.5-14.2676 7.17773-13.3789L2.59766-1.16211Q2.49023-0.859375 2.49023-0.634766Q2.49023-0.263672 2.70996-0.0537109Q2.92969 0.15625 3.31055 0.15625ZM6.00586-5.51758L8.37891-12.0898L8.42773-12.0898L10.8008-5.51758Z"/>
  </g>
  <line style="fill:none;stroke:#00AEEF;stroke-width:0.5;opacity:1.0;" x1="793.197" x2="793.197" y1="1919" y2="1933"/>
  <text style="stroke:none;fill:black;font-family:sans-serif;font-size:13;font-weight:bold;" transform="matrix(1 0 0 1 776 1953)">Margins</text>
  <text style="stroke:none;fill:black;font-family:sans-serif;font-size:13;" transform="matrix(1 0 0 1 776 1971)">Leading and trailing margins on the left and right side of each symbol</text>
  <text style="stroke:none;fill:black;font-family:sans-serif;font-size:13;" transform="matrix(1 0 0 1 776 1989)">can be adjusted by modifying the x-location of the margin guidelines.</text>
  <text style="stroke:none;fill:black;font-family:sans-serif;font-size:13;" transform="matrix(1 0 0 1 776 2007)">Modifications are automatically applied proportionally to all</text>
  <text style="stroke:none;fill:black;font-family:sans-serif;font-size:13;" transform="matrix(1 0 0 1 776 2025)">scales and weights.</text>
  <g transform="matrix(1 0 0 1 1289 1933)">
   <path d="M2.8418 1.86523L4.54102 3.57422Q5.18555 4.22852 5.90332 4.17969Q6.62109 4.13086 7.31445 3.35938L18.0078-8.42773L17.041-9.4043L6.42578 2.27539Q6.16211 2.57812 5.89355 2.61719Q5.625 2.65625 5.27344 2.30469L4.10156 1.14258Q3.75 0.791016 3.79395 0.522461Q3.83789 0.253906 4.14062-0.0195312L15.6152-10.8203L14.6387-11.7871L3.04688-0.898438Q2.30469-0.214844 2.25098 0.498047Q2.19727 1.21094 2.8418 1.86523ZM9.25781-16.3281Q8.94531-16.0254 8.90625-15.6348Q8.86719-15.2441 9.04297-14.9512Q9.21875-14.6777 9.55566-14.541Q9.89258-14.4043 10.3809-14.5215Q11.4746-14.7754 12.5977-14.7314Q13.7207-14.6875 14.7949-13.9844L14.209-12.5293Q13.9551-11.9043 14.0674-11.4404Q14.1797-10.9766 14.5801-10.5664L16.875-8.25195Q17.2363-7.88086 17.5781-7.82227Q17.9199-7.76367 18.3398-7.8418L19.4043-8.03711L20.0684-7.36328L20.0293-6.80664Q20-6.43555 20.1221-6.12305Q20.2441-5.81055 20.6055-5.44922L21.3672-4.70703Q21.7285-4.3457 22.1533-4.33105Q22.5781-4.31641 22.9297-4.66797L25.8398-7.58789Q26.1914-7.93945 26.1816-8.35449Q26.1719-8.76953 25.8105-9.13086L25.0391-9.89258Q24.6875-10.2539 24.3799-10.3857Q24.0723-10.5176 23.7109-10.4883L23.1348-10.4395L22.4902-11.0742L22.7344-12.1973Q22.832-12.6172 22.6953-12.9834Q22.5586-13.3496 22.1191-13.7891L19.9219-15.9766Q18.6719-17.2168 17.2607-17.8369Q15.8496-18.457 14.4189-18.4814Q12.9883-18.5059 11.665-17.959Q10.3418-17.4121 9.25781-16.3281ZM10.752-15.957Q11.6602-16.6211 12.7002-16.9043Q13.7402-17.1875 14.8047-17.085Q15.8691-16.9824 16.8701-16.5137Q17.8711-16.0449 18.7012-15.2051L21.1328-12.793Q21.3086-12.6172 21.3525-12.4512Q21.3965-12.2852 21.3379-12.0312L21.0156-10.5469L22.5195-9.0625L23.5059-9.12109Q23.6914-9.13086 23.7891-9.09668Q23.8867-9.0625 24.0332-8.91602L24.6094-8.33984L22.168-5.89844L21.5918-6.47461Q21.4453-6.62109 21.4062-6.71875Q21.3672-6.81641 21.377-7.01172L21.4453-7.98828L19.9512-9.47266L18.4277-9.21875Q18.1836-9.16992 18.042-9.2041Q17.9004-9.23828 17.7148-9.41406L15.7129-11.416Q15.5176-11.5918 15.4932-11.7529Q15.4688-11.9141 15.5859-12.1875L16.4648-14.2773Q15.293-15.3711 13.8281-15.791Q12.3633-16.2109 10.8398-15.7617Q10.7227-15.7324 10.6885-15.8057Q10.6543-15.8789 10.752-15.957Z"/>
  </g>
  <text style="stroke:none;fill:black;font-family:sans-serif;font-size:13;font-weight:bold;" transform="matrix(1 0 0 1 1289 1953)">Exporting</text>
  <text style="stroke:none;fill:black;font-family:sans-serif;font-size:13;" transform="matrix(1 0 0 1 1289 1971)">Symbols should be outlined when exporting to ensure the</text>
  <text style="stroke:none;fill:black;font-family:sans-serif;font-size:13;" transform="matrix(1 0 0 1 1289 1989)">design is preserved when submitting to Xcode.</text>
  <text id="template-version" style="stroke:none;fill:black;font-family:sans-serif;font-size:13;text-anchor:end;" transform="matrix(1 0 0 1 3036 1933)">Template v.3.0</text>
  <text style="stroke:none;fill:black;font-family:sans-serif;font-size:13;text-anchor:end;" transform="matrix(1 0 0 1 3036 1951)">Requires Xcode 13 or greater</text>
  <text id="descriptive-name" style="stroke:none;fill:black;font-family:sans-serif;font-size:13;text-anchor:end;" transform="matrix(1 0 0 1 3036 1969)">Generated from a.magnify</text>
  <text style="stroke:none;fill:black;font-family:sans-serif;font-size:13;text-anchor:end;" transform="matrix(1 0 0 1 3036 1987)">Typeset at 100 points</text>
  <text style="stroke:none;fill:black;font-family:sans-serif;font-size:13;" transform="matrix(1 0 0 1 263 726)">Small</text>
  <text style="stroke:none;fill:black;font-family:sans-serif;font-size:13;" transform="matrix(1 0 0 1 263 1156)">Medium</text>
  <text style="stroke:none;fill:black;font-family:sans-serif;font-size:13;" transform="matrix(1 0 0 1 263 1586)">Large</text>
 </g>
 <g id="Guides">
  <g id="H-reference" style="fill:#27AAE1;stroke:none;" transform="matrix(1 0 0 1 339 696)">
   <path d="M0.993347 0L3.6377 0L29.3282-67.1326L30.0301-67.1326L30.0301-70.459L28.1227-70.459ZM11.6882-24.4797L46.9818-24.4797L46.2311-26.7288L12.4382-26.7288ZM55.1193 0L57.7637 0L30.6381-70.459L29.4327-70.459L29.4327-67.1326Z"/>
  </g>
  <line id="Baseline-S" style="fill:none;stroke:#27AAE1;opacity:1;stroke-width:0.5;" x1="263" x2="3036" y1="696" y2="696"/>
  <line id="Capline-S" style="fill:none;stroke:#27AAE1;opacity:1;stroke-width:0.5;" x1="263" x2="3036" y1="625.541" y2="625.541"/>
  <g id="H-reference" style="fill:#27AAE1;stroke:none;" transform="matrix(1 0 0 1 339 1126)">
   <path d="M0.993347 0L3.6377 0L29.3282-67.1326L30.0301-67.1326L30.0301-70.459L28.1227-70.459ZM11.6882-24.4797L46.9818-24.4797L46.2311-26.7288L12.4382-26.7288ZM55.1193 0L57.7637 0L30.6381-70.459L29.4327-70.459L29.4327-67.1326Z"/>
  </g>
  <line id="Baseline-M" style="fill:none;stroke:#27AAE1;opacity:1;stroke-width:0.5;" x1="263" x2="3036" y1="1126" y2="1126"/>
  <line id="Capline-M" style="fill:none;stroke:#27AAE1;opacity:1;stroke-width:0.5;" x1="263" x2="3036" y1="1055.54" y2="1055.54"/>
  <g id="H-reference" style="fill:#27AAE1;stroke:none;" transform="matrix(1 0 0 1 339 1556)">
   <path d="M0.993347 0L3.6377 0L29.3282-67.1326L30.0301-67.1326L30.0301-70.459L28.1227-70.459ZM11.6882-24.4797L46.9818-24.4797L46.2311-26.7288L12.4382-26.7288ZM55.1193 0L57.7637 0L30.6381-70.459L29.4327-70.459L29.4327-67.1326Z"/>
  </g>
  <line id="Baseline-L" style="fill:none;stroke:#27AAE1;opacity:1;stroke-width:0.5;" x1="263" x2="3036" y1="1556" y2="1556"/>
  <line id="Capline-L" style="fill:none;stroke:#27AAE1;opacity:1;stroke-width:0.5;" x1="263" x2="3036" y1="1485.54" y2="1485.54"/>
  <line id="left-margin-Regular-M" style="fill:none;stroke:#00AEEF;stroke-width:0.5;opacity:1.0;" x1="1380.47" x2="1380.47" y1="1030.79" y2="1150.12"/>
  <line id="right-margin-Regular-M" style="fill:none;stroke:#00AEEF;stroke-width:0.5;opacity:1.0;" x1="1519.22" x2="1519.22" y1="1030.79" y2="1150.12"/>
 </g>
 <g id="Symbols">
  <g id="Black-L" transform="matrix(1 0 0 1 2840.1 1556)">
   <path d="M110.554 29.5249Q123.809 29.5249 135.531 24.4313Q147.253 19.3376 156.217 10.3835Q165.181 1.42926 170.264-10.2926Q175.348-22.0145 175.348-35.2697Q175.348-48.5249 170.254-60.2468Q165.16-71.9687 156.206-80.9223Q147.251-89.8759 135.49-94.9701Q123.728-100.064 110.473-100.064Q97.2179-100.064 85.4967-94.9707Q73.7754-89.877 64.8504-80.9229Q55.9254-71.9687 50.8422-60.2468Q45.7589-48.5249 45.7589-35.2697Q45.7589-22.0145 50.8526-10.2926Q55.9462 1.42926 64.9004 10.3835Q73.8546 19.3376 85.5759 24.4313Q97.2971 29.5249 110.554 29.5249ZM110.554 9.58033Q101.196 9.58033 93.0604 6.12422Q84.9253 2.66812 78.8108-3.45687Q72.6962-9.58186 69.2401-17.7468Q65.784-25.9117 65.784-35.2697Q65.784-44.6277 69.2109-52.7926Q72.6378-60.9575 78.7809-67.0825Q84.9241-73.2075 93.0196-76.6636Q101.115-80.1197 110.473-80.1197Q119.831-80.1197 127.966-76.6636Q136.101-73.2075 142.256-67.0533Q148.411-60.8991 151.907-52.7634Q155.404-44.6277 155.404-35.2697Q155.404-25.9117 151.977-17.7766Q148.55-9.64145 142.396-3.48667Q136.241 2.66812 128.077 6.12422Q119.912 9.58033 110.554 9.58033ZM71.2152 4.63896L63.3047-6.9011Q57.4422-2.46305 49.8341-2.46305Q43.4421-2.46305 39.6427-5.31319Q35.8434-8.16333 35.8434-12.9154Q35.8434-17.637 39.6982-20.4719Q43.5529-23.3069 51.012-23.7602L58.6144-24.2559L54.2123-40.804L49.0687-40.229Q33.5126-39.2836 24.7983-32.0809Q16.084-24.8782 16.084-12.9094Q16.084-4.62699 19.9595 1.69371Q23.835 8.01442 30.7345 11.5152Q37.6339 15.0161 46.7849 15.0161Q53.6228 15.0161 60.0763 12.2723Q66.5298 9.52845 71.2152 4.63896ZM63.0619-58.0683L73.5439-73.3654Q66.0494-77.2234 55.2563-77.2234Q44.2401-77.2234 35.1619-72.6336Q26.0837-68.0437 22.1727-60.3844Q21.2017-58.6508 20.6748-56.7875Q20.1478-54.9243 20.1478-53.2371Q20.1478-49.3062 22.6924-46.7422Q25.237-44.1783 29.1239-44.1783Q34.6771-44.1783 37.3569-49.0273Q40.3262-54.5267 44.5152-56.9374Q48.7043-59.3481 54.9394-59.3481Q59.143-59.3481 63.0619-58.0683ZM109.659 23.3197L131.233 23.1028L131.233-53.2299Q131.233-68.667 121.498-78.4456Q111.762-88.2243 94.7505-90.0949Q93.5766-90.2366 92.364-90.3149Q91.1515-90.3931 89.8615-90.4676L66.0435-65.9502Q72.9001-67.8393 76.7829-68.7292Q80.6658-69.6191 83.0553-69.8688Q85.4449-70.1184 87.6286-70.1184Q97.7343-70.1184 103.221-65.2622Q108.708-60.406 108.708-51.5055L108.708-44.9231L80.2347-43.3707Q65.2283-42.5193 55.2284-36.7486L59.7166-9.57627Q63.272-15.3917 66.7389-18.5539Q70.2059-21.7162 74.071-23.0709Q77.9362-24.4256 82.5753-24.6912L108.708-26.324L108.708-20.0148Q108.708-12.0965 104.003-5.96106Q99.2982 0.174425 91.4781 2.9604Q83.658 5.74637 74.1874 3.74014L94.1179 21.6031Q100.75 19.1457 105.837 15.3085Q110.924 11.4714 113.182 7.52127L109.659 7.52127Z"/>
  </g>
  <g id="Heavy-L" transform="matrix(1 0 0 1 2544.35 1556)">
   <path d="M109.589 28.5603Q122.644 28.5603 134.193 23.5416Q145.742 18.523 154.574 9.70312Q163.406 0.883215 168.413-10.6657Q173.419-22.2147 173.419-35.2697Q173.419-48.3247 168.398-59.8737Q163.376-71.4226 154.556-80.2397Q145.736-89.0569 134.15-94.0783Q122.564-99.0997 109.508-99.0997Q96.4535-99.0997 84.9074-94.081Q73.3612-89.0624 64.5636-80.2425Q55.766-71.4226 50.7625-59.8737Q45.7589-48.3247 45.7589-35.2697Q45.7589-22.2147 50.7776-10.6657Q55.7962 0.883215 64.6161 9.70312Q73.436 18.523 84.9822 23.5416Q96.5283 28.5603 109.589 28.5603ZM109.589 11.0688Q99.9205 11.0688 91.516 7.49849Q83.1115 3.9282 76.7914-2.40689Q70.4714-8.74197 66.9012-17.1716Q63.3309-25.6012 63.3309-35.2697Q63.3309-44.9382 66.8789-53.3678Q70.4268-61.7974 76.7663-68.1325Q83.1058-74.4676 91.4729-78.0379Q99.84-81.6082 109.508-81.6082Q119.177-81.6082 127.582-78.0379Q135.986-74.4676 142.346-68.1102Q148.706-61.7528 152.317-53.3455Q155.927-44.9382 155.927-35.2697Q155.927-25.6012 152.379-17.1967Q148.832-8.79216 142.474-2.43198Q136.117 3.9282 127.687 7.49849Q119.257 11.0688 109.589 11.0688ZM69.4744 4.52531L62.4943-5.66521Q56.5269-1.37418 48.8606-1.37418Q42.0285-1.37418 37.9004-4.53048Q33.7723-7.68678 33.7723-12.9242Q33.7723-18.0866 37.931-21.2053Q42.0897-24.3239 50.0683-24.8313L56.912-25.2813L53.154-39.9404L48.2652-39.4156Q33.0112-38.4752 24.5476-31.4963Q16.084-24.5175 16.084-12.8961Q16.084-4.85974 19.8611 1.26024Q23.6382 7.38021 30.3614 10.7691Q37.0847 14.1579 45.998 14.1579Q52.5746 14.1579 58.7507 11.6083Q64.9268 9.05857 69.4744 4.52531ZM62.0297-59.3077L71.4124-72.9827Q64.3194-76.4145 54.3408-76.4145Q43.4105-76.4145 34.562-71.8432Q25.7135-67.272 21.9658-59.6893Q21.0671-58.0466 20.5719-56.2885Q20.0766-54.5303 20.0766-52.9706Q20.0766-49.4395 22.3394-47.1667Q24.6021-44.894 28.0616-44.894Q33.0505-44.894 35.4215-49.2781Q38.4216-55.2282 42.9137-57.8682Q47.4059-60.5081 54.0415-60.5081Q58.1775-60.5081 62.0297-59.3077ZM109.926 22.5366L129.366 22.3424L129.366-52.9368Q129.366-68.0504 119.965-77.6348Q110.563-87.2191 94.0803-89.0863Q92.7425-89.2516 91.3585-89.3354Q89.9744-89.4191 88.524-89.4715L67.2991-67.6642Q72.9786-69.2402 76.4193-70.0149Q79.86-70.7896 82.2049-71.023Q84.5498-71.2564 86.8064-71.2564Q97.4052-71.2564 103.217-66.0295Q109.028-60.8025 109.028-51.31L109.028-44.0842L79.5245-42.4149Q64.623-41.5514 54.8574-35.8256L58.8708-11.8179Q62.0706-16.9441 65.4828-19.8511Q68.8949-22.758 72.8864-24.0871Q76.8779-25.4162 81.7073-25.7044L109.028-27.4543L109.028-19.8773Q109.028-12.0109 104.544-5.82214Q100.059 0.36661 92.5453 3.46473Q85.0312 6.56286 75.86 5.23326L93.4202 20.8258Q100.018 18.365 105.066 14.4574Q110.114 10.5497 112.422 6.28122L109.926 6.28122Z"/>
  </g>
  <g id="Bold-L" transform="matrix(1 0 0 1 2248.86 1556)">
   <path d="M108.368 27.3393Q121.17 27.3393 132.5 22.4166Q143.83 17.494 152.493 8.84302Q161.157 0.192066 166.067-11.138Q170.977-22.4681 170.977-35.2697Q170.977-48.0713 166.048-59.4014Q161.118-70.7315 152.468-79.3759Q143.817-88.0203 132.453-92.9495Q121.089-97.8787 108.287-97.8787Q95.4859-97.8787 84.1625-92.956Q72.8391-88.0334 64.2027-79.3824Q55.5663-70.7315 50.6626-59.4014Q45.7589-48.0713 45.7589-35.2697Q45.7589-22.4681 50.6816-11.138Q55.6042 0.192066 64.2552 8.84302Q72.9061 17.494 84.2297 22.4166Q95.5532 27.3393 108.368 27.3393ZM108.368 12.8757Q98.3228 12.8757 89.5915 9.16696Q80.8602 5.45822 74.2903-1.13063Q67.7204-7.71947 64.0118-16.4719Q60.3031-25.2244 60.3031-35.2697Q60.3031-45.315 63.9972-54.0675Q67.6912-62.8199 74.269-69.4088Q80.8469-75.9976 89.5446-79.7064Q98.2424-83.4151 108.287-83.4151Q118.333-83.4151 127.064-79.7064Q135.795-75.9976 142.406-69.3942Q149.016-62.7907 152.764-54.0529Q156.513-45.315 156.513-35.2697Q156.513-25.2244 152.819-16.4931Q149.125-7.76178 142.522-1.15178Q135.918 5.45822 127.166 9.16696Q118.413 12.8757 108.368 12.8757ZM67.4495 4.37943L61.6144-4.14351Q55.4494 0.0526631 47.6244 0.0526631Q40.2169 0.0526631 35.6555-3.50635Q31.0941-7.06537 31.0941-12.9394Q31.0941-18.6698 35.6517-22.1567Q40.2093-25.6437 48.9003-26.2276L54.8363-26.6237L51.8551-38.9021L47.2888-38.4388Q32.3889-37.4985 24.2364-30.7889Q16.084-24.0792 16.084-12.8732Q16.084-5.14421 19.7456 0.729819Q23.4073 6.60385 29.9227 9.85809Q36.4382 13.1123 45.0668 13.1123Q51.3432 13.1123 57.1996 10.7972Q63.056 8.48209 67.4495 4.37943ZM60.8509-60.919L68.8139-72.5064Q62.2129-75.4453 53.1962-75.4453Q42.3138-75.4453 33.7571-70.8561Q25.2004-66.2669 21.6675-58.7244Q20.8683-57.1968 20.4152-55.5656Q19.9621-53.9344 19.9621-52.5359Q19.9621-49.5189 21.8642-47.6148Q23.7662-45.7106 26.6806-45.7106Q30.9553-45.7106 32.9272-49.5185Q35.9136-56.104 40.8157-59.0767Q45.7178-62.0493 52.9275-62.0493Q57.0386-62.0493 60.8509-60.919ZM110.36 21.6205L127.023 21.4569L127.023-52.4563Q127.023-67.3045 117.948-76.6916Q108.872-86.0787 92.9076-87.8562Q91.3625-88.0374 89.7746-88.1139Q88.1867-88.1904 86.5514-88.2046L68.5458-69.785Q72.9219-71.0215 75.8841-71.6727Q78.8462-72.3238 81.1559-72.5417Q83.4656-72.7596 85.8143-72.7596Q97.0799-72.7596 103.317-67.0269Q109.554-61.2942 109.554-50.9897L109.554-43.0469L78.7005-41.2093Q63.721-40.308 54.2175-34.5094L57.6544-14.4727Q60.4832-18.828 63.8634-21.4533Q67.2437-24.0787 71.4113-25.3844Q75.579-26.6902 80.6613-27.0091L109.554-28.9274L109.554-19.6486Q109.554-11.8214 105.313-5.54496Q101.072 0.731484 93.8931 4.2176Q86.7146 7.70372 77.8676 7.1819L92.5595 19.9696Q99.2235 17.4863 104.299 13.4195Q109.375 9.35275 111.738 4.61032L110.36 4.61032Z"/>
  </g>
  <g id="Semibold-L" transform="matrix(1 0 0 1 1952.99 1556)">
   <path d="M107.526 26.4975Q120.153 26.4975 131.333 21.641Q142.512 16.7846 151.059 8.25008Q159.606-0.284408 164.45-11.4636Q169.294-22.6429 169.294-35.2697Q169.294-47.8966 164.428-59.0758Q159.562-70.255 151.028-78.7803Q142.493-87.3056 131.283-92.1713Q120.073-97.0369 107.446-97.0369Q94.8189-97.0369 83.649-92.1804Q72.4791-87.324 63.9539-78.7895Q55.4287-70.255 50.5938-59.0758Q45.7589-47.8966 45.7589-35.2697Q45.7589-22.6429 50.6154-11.4636Q55.4719-0.284408 64.0064 8.25008Q72.5409 16.7846 83.7109 21.641Q94.881 26.4975 107.526 26.4975ZM107.526 14.1214Q97.2214 14.1214 88.2648 10.3172Q79.3082 6.513 72.5661-0.250779Q65.8239-7.01456 62.0198-15.9896Q58.2158-24.9646 58.2158-35.2697Q58.2158-45.5748 62.0105-54.5498Q65.8053-63.5248 72.5474-70.2886Q79.2896-77.0524 88.2153-80.8566Q97.141-84.6608 107.446-84.6608Q117.751-84.6608 126.707-80.8566Q135.664-77.0524 142.446-70.2793Q149.229-63.5063 153.073-54.5405Q156.917-45.5748 156.917-35.2697Q156.917-24.9646 153.123-16.008Q149.328-7.05145 142.555-0.269226Q135.782 6.513 126.806 10.3172Q117.831 14.1214 107.526 14.1214ZM66.0535 4.27886L61.0079-3.09446Q54.7067 1.03632 46.7722 1.03632Q38.968 1.03632 34.1079-2.80032Q29.2478-6.63697 29.2478-12.9499Q29.2478-19.0718 34.0803-22.8127Q38.9129-26.5535 48.0951-27.1901L53.4054-27.5492L50.9597-38.1863L46.6156-37.7654Q31.9598-36.8253 24.0219-30.3012Q16.084-23.7771 16.084-12.8574Q16.084-5.34032 19.666 0.364153Q23.2481 6.06862 29.6203 9.23006Q35.9925 12.3915 44.4249 12.3915Q50.4942 12.3915 56.1303 10.2381Q61.7663 8.08466 66.0535 4.27886ZM60.0382-62.0299L67.0225-72.1781Q60.7607-74.7772 52.4072-74.7772Q41.5577-74.7772 33.2022-70.1756Q24.8467-65.574 21.4618-58.0592Q20.7313-56.611 20.3073-55.0672Q19.8832-53.5235 19.8832-52.2362Q19.8832-49.5737 21.5366-47.9236Q23.1899-46.2736 25.7285-46.2736Q29.5108-46.2736 31.2077-49.6842Q34.1846-56.7078 39.3694-59.9098Q44.5541-63.1118 52.1594-63.1118Q56.2534-63.1118 60.0382-62.0299ZM110.66 20.989L125.408 20.8465L125.408-52.1251Q125.408-66.7903 116.557-76.0414Q107.705-85.2924 92.0992-87.0082Q90.4111-87.2003 88.6827-87.2718Q86.9542-87.3433 85.1915-87.3312L69.4052-71.247Q72.8828-72.2495 75.5151-72.8155Q78.1473-73.3815 80.4327-73.5887Q82.7182-73.7959 85.1304-73.7959Q96.8556-73.7959 103.386-67.7146Q109.917-61.6332 109.917-50.7689L109.917-42.3317L78.1325-40.3781Q63.0991-39.4508 53.7764-33.6019L56.8158-16.3029Q59.3888-20.1267 62.7471-22.5579Q66.1053-24.9892 70.3944-26.2788Q74.6835-27.5685 79.9402-27.9086L109.917-29.9429L109.917-19.4909Q109.917-11.6908 105.843-5.35388Q101.769 0.983026 94.8222 4.73662Q87.8751 8.49022 79.2516 8.52528L91.9661 19.3793Q98.6755 16.8805 103.771 12.7041Q108.866 8.52758 111.267 3.45842L110.66 3.45842Z"/>
  </g>
  <g id="Medium-L" transform="matrix(1 0 0 1 1656.92 1556)">
   <path d="M106.888 25.8593Q119.383 25.8593 130.447 21.053Q141.512 16.2467 149.971 7.80048Q158.43-0.645691 163.223-11.7105Q168.017-22.7753 168.017-35.2697Q168.017-47.7641 163.2-58.8289Q158.382-69.8937 149.936-78.3288Q141.49-86.7638 130.396-91.5812Q119.302-96.3987 106.807-96.3987Q94.3131-96.3987 83.2596-91.5924Q72.2061-86.7861 63.7652-78.3399Q55.3243-69.8937 50.5416-58.8289Q45.7589-47.7641 45.7589-35.2697Q45.7589-22.7753 50.5652-11.7105Q55.3716-0.645691 63.8177 7.80048Q72.2639 16.2467 83.3176 21.053Q94.3713 25.8593 106.888 25.8593ZM106.888 15.0659Q96.3862 15.0659 87.2588 11.1894Q78.1314 7.31278 71.2586 0.416357Q64.3859-6.48007 60.5095-15.6239Q56.6331-24.7677 56.6331-35.2697Q56.6331-45.7717 60.5042-54.9155Q64.3753-64.0593 71.2421-70.9558Q78.1088-77.8522 87.2073-81.7288Q96.3058-85.6053 106.807-85.6053Q117.31-85.6053 126.437-81.7288Q135.564-77.8522 142.477-70.9505Q149.39-64.0488 153.307-54.9103Q157.224-45.7717 157.224-35.2697Q157.224-24.7677 153.352-15.6403Q149.481-6.51285 142.58 0.399967Q135.678 7.31278 126.534 11.1894Q117.39 15.0659 106.888 15.0659ZM64.995 4.2026L60.548-2.29902Q54.1434 1.78217 46.126 1.78217Q38.021 1.78217 32.9344-2.26498Q27.8478-6.31214 27.8478-12.9579Q27.8478-19.3767 32.8889-23.31Q37.93-27.2434 47.4846-27.92L52.3204-28.251L50.2807-37.6435L46.1052-37.2548Q31.6345-36.3147 23.8592-29.9314Q16.084-23.548 16.084-12.8454Q16.084-5.48902 19.6057 0.0868897Q23.1274 5.6628 29.391 8.75387Q35.6546 11.8449 43.9382 11.8449Q49.8505 11.8449 55.3195 9.81413Q60.7884 7.78332 64.995 4.2026ZM59.422-62.8721L65.6642-71.9291Q59.6596-74.2706 51.8089-74.2706Q40.9844-74.2706 32.7815-69.6596Q24.5785-65.0486 21.3058-57.5548Q20.6274-56.1668 20.2254-54.6894Q19.8234-53.212 19.8234-52.009Q19.8234-49.6152 21.2881-48.1578Q22.7529-46.7005 25.0066-46.7005Q28.4155-46.7005 29.9039-49.8098Q32.8736-57.1656 38.2727-60.5415Q43.6717-63.9175 51.5771-63.9175Q55.6581-63.9175 59.422-62.8721ZM110.887 20.5101L124.184 20.3837L124.184-51.8739Q124.184-66.4004 115.502-75.5483Q106.821-84.6963 91.4862-86.3652Q89.6897-86.5655 87.8547-86.6333Q86.0198-86.701 84.1604-86.669L70.0569-72.3556Q72.8532-73.1807 75.2353-73.6821Q77.6173-74.1835 79.8844-74.3826Q82.1515-74.5816 84.6119-74.5816Q96.6856-74.5816 103.439-68.2359Q110.192-61.8903 110.192-50.6014L110.192-41.7895L77.7018-39.7479Q62.6276-38.8008 53.4419-32.9139L56.1799-17.6906Q58.559-21.1114 61.9006-23.3955Q65.2422-25.6795 69.6234-26.957Q74.0046-28.2345 79.3935-28.5906L110.192-30.7129L110.192-19.3713Q110.192-11.5917 106.245-5.20899Q102.298 1.17376 95.5267 5.13017Q88.755 9.08658 80.301 9.54388L91.5161 18.9318Q98.26 16.4212 103.37 12.1615Q108.481 7.9019 110.909 2.58499L110.887 2.58499Z"/>
  </g>
  <g id="Regular-L" transform="matrix(1 0 0 1 1361.04 1556)">
   <path d="M106.055 25.0268Q118.377 25.0268 129.293 20.2859Q140.209 15.545 148.552 7.21405Q156.896-1.11693 161.624-12.0325Q166.352-22.9481 166.352-35.2697Q166.352-47.5913 161.598-58.5069Q156.843-69.4225 148.512-77.7397Q140.181-86.057 129.239-90.8116Q118.297-95.5662 105.975-95.5662Q93.6534-95.5662 82.7518-90.8253Q71.8501-86.0844 63.5191-77.7535Q55.1881-69.4225 50.4735-58.5069Q45.7589-47.5913 45.7589-35.2697Q45.7589-22.9481 50.4998-12.0325Q55.2407-1.11693 63.5717 7.21405Q71.9026 15.545 82.8045 20.2859Q93.7064 25.0268 106.055 25.0268ZM106.055 16.2979Q95.2969 16.2979 85.9467 12.3269Q76.5965 8.35597 69.5533 1.28653Q62.5102-5.7829 58.5394-15.1468Q54.5687-24.5108 54.5687-35.2697Q54.5687-46.0286 58.5394-55.3926Q62.5102-64.7565 69.5394-71.8259Q76.5686-78.8954 85.8926-82.8664Q95.2165-86.8373 105.975-86.8373Q116.734-86.8373 126.084-82.8664Q135.434-78.8954 142.518-71.8259Q149.601-64.7565 153.612-55.3926Q157.623-46.0286 157.623-35.2697Q157.623-24.5108 153.652-15.1605Q149.682-5.81032 142.612 1.27283Q135.543 8.35597 126.179 12.3269Q116.814 16.2979 106.055 16.2979ZM63.6143 4.10313L59.9481-1.26149Q53.4088 2.75502 45.2831 2.75502Q36.7859 2.75502 31.4038-1.56671Q26.0218-5.88845 26.0218-12.9683Q26.0218-19.7744 31.3348-23.9588Q36.6479-28.1432 46.6882-28.872L50.9051-29.1663L49.3951-36.9356L45.4394-36.5888Q31.2102-35.6489 23.6471-29.449Q16.084-23.2492 16.084-12.8298Q16.084-5.68297 19.527-0.274758Q22.9699 5.13346 29.0919 8.13274Q35.2138 11.132 43.3033 11.132Q49.0108 11.132 54.2619 9.26114Q59.5129 7.39026 63.6143 4.10313ZM58.6183-63.9708L63.8924-71.6044Q58.2234-73.6098 51.0286-73.6098Q40.2367-73.6098 32.2327-68.9865Q24.2287-64.3633 21.1024-56.8969Q20.4919-55.5874 20.1186-54.1965Q19.7453-52.8056 19.7453-51.7127Q19.7453-49.6693 20.9641-48.4633Q22.1829-47.2573 24.065-47.2573Q26.9869-47.2573 28.2032-49.9737Q31.1636-57.7627 36.8422-61.3655Q42.5208-64.9683 50.8175-64.9683Q54.8815-64.9683 58.6183-63.9708ZM111.184 19.8855L122.587 19.78L122.587-51.5463Q122.587-65.8918 114.127-74.9053Q105.668-83.9187 90.6866-85.5265Q88.7488-85.7376 86.7748-85.8004Q84.8008-85.8633 82.8155-85.8052L70.9069-73.8016Q72.8146-74.3952 74.8703-74.8124Q76.9261-75.2296 79.1692-75.418Q81.4123-75.6065 83.9355-75.6065Q96.4637-75.6065 103.507-68.916Q110.551-62.2255 110.551-50.383L110.551-41.0822L77.14-38.9259Q62.0126-37.9531 53.0056-32.0164L55.3505-19.5007Q57.4766-22.3959 60.7965-24.4879Q64.1164-26.58 68.6177-27.8416Q73.1189-29.1032 78.6803-29.4801L110.551-31.7173L110.551-19.2153Q110.551-11.4625 106.77-5.02001Q102.988 1.42253 96.4456 5.64349Q89.9028 9.86444 81.6698 10.8725L90.9292 18.348Q97.718 15.8221 102.848 11.4539Q107.977 7.0858 110.442 1.44575L111.184 1.44575Z"/>
  </g>
  <g id="Light-L" transform="matrix(1 0 0 1 1065.34 1556)">
   <path d="M105.044 24.0151Q117.156 24.0151 127.89 19.3602Q138.625 14.7052 146.816 6.50781Q155.006-1.68962 159.668-12.4239Q164.329-23.1582 164.329-35.2697Q164.329-47.3812 159.651-58.1155Q154.972-68.8498 146.775-77.024Q138.577-85.1983 127.827-89.8764Q117.076-94.5545 104.963-94.5545Q92.8518-94.5545 82.1411-89.8996Q71.4304-85.2446 63.2329-77.0472Q55.0355-68.8498 50.3972-58.1155Q45.7589-47.3812 45.7589-35.2697Q45.7589-23.1582 50.4139-12.4239Q55.0688-1.68962 63.2662 6.50781Q71.4637 14.7052 82.1748 19.3602Q92.8859 24.0151 105.044 24.0151ZM105.044 17.3096Q94.0756 17.3096 84.544 13.2621Q75.0125 9.21469 67.8261 2.0117Q60.6398-5.19129 56.5927-14.746Q52.5457-24.3007 52.5457-35.2697Q52.5457-46.2387 56.5927-55.7934Q60.6398-65.3481 67.8026-72.5511Q74.9653-79.7541 84.4802-83.8015Q93.9951-87.849 104.963-87.849Q115.932-87.849 125.464-83.8015Q134.995-79.7541 142.222-72.5511Q149.449-65.3481 153.536-55.7934Q157.623-46.2387 157.623-35.2697Q157.623-24.3007 153.576-14.7692Q149.529-5.23763 142.326 1.98853Q135.123 9.21469 125.568 13.2621Q116.013 17.3096 105.044 17.3096ZM63.0609 3.96942L60.1388-0.269065Q53.0272 4.24383 44.2333 4.24383Q35.1444 4.24383 29.2949-0.507425Q23.4453-5.25868 23.4453-13.0064Q23.4453-20.347 29.1783-24.894Q34.9112-29.4409 45.8866-30.2842L49.6838-30.5595L48.5745-36.4203L44.886-36.1116Q30.7712-35.1336 23.4276-29.0673Q16.084-23.001 16.084-12.7724Q16.084-5.85484 19.4888-0.599262Q22.8936 4.65632 28.9392 7.58875Q34.9849 10.5212 42.9407 10.5212Q48.5911 10.5212 53.7753 8.77439Q58.9595 7.0276 63.0609 3.96942ZM58.4465-65.574L62.3655-71.2609Q57.002-73.1519 50.1699-73.1519Q39.0342-73.1519 31.2784-68.2518Q23.5226-63.3516 20.6252-55.5611Q20.1485-54.3468 19.8228-53.0227Q19.4971-51.6987 19.4971-50.7395Q19.4971-49.173 20.3916-48.2724Q21.2861-47.3718 22.691-47.3718Q25.021-47.3718 25.8557-49.6874Q28.4727-58.4117 34.6569-62.5583Q40.8412-66.7049 50.0351-66.7049Q54.4618-66.7049 58.4465-65.574ZM112.157 19.5992L120.774 19.5318L120.774-50.4583Q120.774-65.491 111.971-74.6476Q103.168-83.8042 87.6712-84.8012Q85.5614-84.936 83.5017-84.9034Q81.442-84.8708 79.4184-84.7172L69.7807-75.2519Q71.784-75.9221 73.9542-76.3775Q76.1244-76.8328 78.4726-77.0404Q80.8207-77.248 83.4202-77.248Q96.769-77.248 104.261-69.9084Q111.753-62.5689 111.753-49.6577L111.753-40.3761L76.93-37.9527Q60.4093-36.808 51.4023-29.9934L53.423-20.5506Q55.74-23.4457 59.2697-25.5663Q62.7994-27.6869 67.5489-28.9866Q72.2984-30.2864 78.1458-30.7015L111.753-33.2061L111.753-18.6808Q111.753-10.7946 107.943-4.15167Q104.133 2.49128 97.5431 6.98896Q90.9526 11.4866 82.6433 12.8574L90.3565 18.4436Q97.8899 15.7839 103.535 10.8432Q109.18 5.90258 111.626-0.577272L112.157-0.577272Z"/>
  </g>
  <g id="Thin-L" transform="matrix(1 0 0 1 769.966 1556)">
   <path d="M103.706 22.6771Q115.541 22.6771 126.035 18.1358Q136.53 13.5945 144.519 5.57374Q152.508-2.44705 157.081-12.9415Q161.654-23.4359 161.654-35.2697Q161.654-47.1035 157.076-57.5979Q152.499-68.0924 144.478-76.0775Q136.457-84.0626 125.959-88.6395Q115.46-93.2165 103.625-93.2165Q91.7916-93.2165 81.3334-88.6752Q70.8752-84.1339 62.8544-76.1131Q54.8336-68.0924 50.2963-57.5979Q45.7589-47.1035 45.7589-35.2697Q45.7589-23.4359 50.3002-12.9415Q54.8415-2.44705 62.8623 5.57374Q70.8831 13.5945 81.3418 18.1358Q91.8006 22.6771 103.706 22.6771ZM103.706 18.6476Q92.4602 18.6476 82.6888 14.499Q72.9174 10.3504 65.5417 2.97078Q58.166-4.40884 54.018-14.2159Q49.8701-24.0229 49.8701-35.2697Q49.8701-46.5165 54.018-56.3235Q58.166-66.1306 65.5055-73.5102Q72.8449-80.8898 82.6123-85.0384Q92.3798-89.187 103.625-89.187Q114.872-89.187 124.643-85.0384Q134.415-80.8898 141.831-73.5102Q149.247-66.1306 153.435-56.3235Q157.623-46.5165 157.623-35.2697Q157.623-24.0229 153.475-14.2516Q149.327-4.4802 141.947 2.93511Q134.568 10.3504 124.76 14.499Q114.952 18.6476 103.706 18.6476ZM62.3289 3.79257L60.3912 1.0435Q52.5226 6.21289 42.8448 6.21289Q32.9735 6.21289 26.5056 0.893566Q20.0377-4.42576 20.0377-13.0569Q20.0377-21.1045 26.326-26.1308Q32.6143-31.1572 44.8263-32.1519L48.0684-32.4022L47.4892-35.7388L44.154-35.4806Q30.1906-34.4521 23.1373-28.5624Q16.084-22.6727 16.084-12.6965Q16.084-6.08216 19.4383-1.02844Q22.7927 4.02527 28.7374 6.86927Q34.6821 9.71328 42.461 9.71328Q48.036 9.71328 53.1317 8.13061Q58.2275 6.54795 62.3289 3.79257ZM58.2191-67.6945L60.3459-70.8067Q55.3866-72.5463 49.0341-72.5463Q37.4439-72.5463 30.0163-67.2799Q22.5887-62.0136 19.9942-53.7943Q19.6943-52.706 19.4316-51.4704Q19.1689-50.2347 19.1689-49.4524Q19.1689-48.5165 19.6344-48.0198Q20.0999-47.5232 20.8737-47.5232Q22.4209-47.5232 22.7509-49.3086Q24.9137-59.2701 31.7668-64.136Q38.6198-69.0018 49.0003-69.0018Q53.9066-69.0018 58.2191-67.6945ZM113.445 19.2205L118.376 19.2035L118.376-49.0194Q118.376-64.9609 109.118-74.3068Q99.8609-83.6528 83.683-83.8419Q81.346-83.8758 79.1728-83.717Q76.9996-83.5583 74.9256-83.2783L68.2913-77.1701Q70.421-77.9417 72.7426-78.4475Q75.0642-78.9533 77.5512-79.1861Q80.0382-79.4189 82.7386-79.4189Q97.1727-79.4189 105.258-71.221Q113.343-63.0231 113.343-48.6984L113.343-39.4423L76.6522-36.6656Q58.2889-35.2936 49.2818-27.3178L50.8738-21.939Q53.4431-24.8342 57.2504-26.9925Q61.0577-29.1508 66.1354-30.5011Q71.2131-31.8513 77.4388-32.3169L113.343-35.1752L113.343-17.9738Q113.343-9.91123 109.496-3.00323Q105.648 3.90478 98.9945 8.76845Q92.3411 13.6321 83.9309 15.4825L89.5991 18.57Q98.1172 15.7334 104.444 10.0356Q110.77 4.33768 113.19-3.25287L113.445-3.25287Z"/>
  </g>
  <g id="Ultralight-L" transform="matrix(1 0 0 1 473.94 1556)">
   <path d="M103.02 21.9918Q114.713 21.9918 125.085 17.5087Q135.457 13.0256 143.342 5.09532Q151.228-2.835 155.756-13.2066Q160.283-23.5782 160.283-35.2697Q160.283-46.9612 155.757-57.3328Q151.232-67.7044 143.301-75.5926Q135.371-83.4809 125.002-88.006Q114.633-92.5312 102.94-92.5312Q91.2485-92.5312 80.9197-88.0481Q70.5909-83.565 62.6606-75.6347Q54.7302-67.7044 50.2446-57.3328Q45.7589-46.9612 45.7589-35.2697Q45.7589-23.5782 50.242-13.2066Q54.7251-2.835 62.6554 5.09532Q70.5857 13.0256 80.9152 17.5087Q91.2448 21.9918 103.02 21.9918ZM103.02 19.3329Q91.6328 19.3329 81.7386 15.1325Q71.8444 10.9321 64.3717 3.46202Q56.899-4.00807 52.6993-13.9444Q48.4996-23.8807 48.4996-35.2697Q48.4996-46.6587 52.6993-56.595Q56.899-66.5313 64.3289-74.0014Q71.7588-81.4715 81.6556-85.6719Q91.5524-89.8723 102.94-89.8723Q114.329-89.8723 124.223-85.6719Q134.117-81.4715 141.63-74.0014Q149.143-66.5313 153.383-56.595Q157.623-46.6587 157.623-35.2697Q157.623-23.8807 153.423-13.9865Q149.224-4.09224 141.754 3.41994Q134.283 10.9321 124.346 15.1325Q114.409 19.3329 103.02 19.3329ZM61.954 3.70199L60.5204 1.71579Q52.2641 7.22144 42.1336 7.22144Q31.8616 7.22144 25.077 1.61115Q18.2924-3.99914 18.2924-13.0827Q18.2924-21.4924 24.8651-26.7643Q31.4379-32.0363 44.2833-33.1085L47.241-33.346L46.9334-35.3897L43.7791-35.1574Q29.8932-34.103 22.9886-28.3038Q16.084-22.5046 16.084-12.6576Q16.084-6.19859 19.4125-1.24827Q22.741 3.70205 28.634 6.50076Q34.527 9.29948 42.2153 9.29948Q47.7516 9.29948 52.8021 7.80088Q57.8526 6.30227 61.954 3.70199ZM58.1027-68.7806L59.3116-70.5741Q54.5592-72.2361 48.4524-72.2361Q36.6293-72.2361 29.3699-66.7822Q22.1104-61.3282 19.671-52.8894Q19.4617-51.8655 19.2312-50.6752Q19.0008-49.4849 19.0008-48.7931Q19.0008-48.1802 19.2465-47.8905Q19.4923-47.6007 19.9429-47.6007Q21.0891-47.6007 21.1607-49.1147Q23.0908-59.7097 30.2864-64.944Q37.482-70.1783 48.4703-70.1783Q53.6223-70.1783 58.1027-68.7806ZM114.104 19.0265L117.148 19.0354L117.148-48.2824Q117.148-64.6893 107.657-74.1323Q98.1672-83.5753 81.6403-83.3506Q79.1868-83.3327 76.9555-83.1093Q74.7242-82.886 72.6244-82.5412L67.5284-78.1526Q69.7228-78.9761 72.122-79.5077Q74.5212-80.0394 77.0793-80.2851Q79.6374-80.5308 82.3896-80.5308Q97.3795-80.5308 105.769-71.8933Q114.158-63.2558 114.158-48.2071L114.158-38.964L76.5099-36.0063Q57.2028-34.5179 48.1957-25.9474L49.5681-22.6502Q52.2666-25.5453 56.2161-27.723Q60.1656-29.9007 65.4114-31.2768Q70.6573-32.6528 77.0767-33.1443L114.158-36.1837L114.158-17.6117Q114.158-9.45877 110.291-2.415Q106.424 4.62877 99.7379 9.6799Q93.0523 14.731 84.5903 16.8271L89.2112 18.6347Q98.2336 15.7076 104.909 9.62187Q111.585 3.53614 113.992-4.62331L114.104-4.62331Z"/>
  </g>
  <g id="Black-M" transform="matrix(1 0 0 1 2860.42 1126)">
   <path d="M86.3425 15.6305Q96.7555 15.6305 105.961 11.6314Q115.166 7.63228 122.204 0.597779Q129.241-6.43672 133.237-15.6422Q137.234-24.8476 137.234-35.2606Q137.234-45.6737 133.235-54.8791Q129.236-64.0846 122.201-71.1192Q115.167-78.1538 105.93-82.1528Q96.6932-86.1518 86.2802-86.1518Q75.8672-86.1518 66.6616-82.1527Q57.456-78.1536 50.45-71.1191Q43.4441-64.0846 39.4477-54.8791Q35.4514-45.6737 35.4514-35.2606Q35.4514-24.8476 39.4505-15.6422Q43.4496-6.43672 50.4841 0.597779Q57.5186 7.63228 66.7242 11.6314Q75.9297 15.6305 86.3425 15.6305ZM86.3425-1.6556Q79.3308-1.6556 73.2352-4.24541Q67.1395-6.83523 62.5594-11.418Q57.9794-16.0009 55.3895-22.1249Q52.7997-28.249 52.7997-35.2606Q52.7997-42.2723 55.361-48.3964Q57.9223-54.5204 62.531-59.1032Q67.1398-63.6861 73.2041-66.2759Q79.2685-68.8657 86.2802-68.8657Q93.2918-68.8657 99.3875-66.2759Q105.483-63.6861 110.094-59.0747Q114.706-54.4633 117.327-48.3678Q119.948-42.2723 119.948-35.2606Q119.948-28.249 117.386-22.1533Q114.825-16.0577 110.214-11.4465Q105.602-6.83523 99.4782-4.24541Q93.3541-1.6556 86.3425-1.6556ZM56.5945-4.26218L49.7672-14.21Q45.2379-10.578 39.303-10.578Q34.649-10.578 31.9246-12.5812Q29.2003-14.5844 29.2003-17.9394Q29.2003-21.2911 31.9824-23.2927Q34.7646-25.2943 40.2235-25.6145L46.7086-26.0353L42.7989-40.2206L38.6311-39.7373Q26.335-38.9954 19.3979-33.2408Q12.4609-27.4863 12.4609-17.9408Q12.4609-11.3437 15.5429-6.29496Q18.6248-1.24621 24.1112 1.55319Q29.5975 4.35258 36.8733 4.35258Q42.3879 4.35258 47.6169 2.07682Q52.846-0.198951 56.5945-4.26218ZM49.7205-52.0757L58.6025-65.0574Q52.4925-68.3971 43.4798-68.3971Q34.8247-68.3971 27.6277-64.7877Q20.4306-61.1782 17.2913-55.1344Q16.495-53.726 16.066-52.2013Q15.6369-50.6765 15.6369-49.278Q15.6369-45.9536 17.8066-43.7582Q19.9763-41.5629 23.2903-41.5629Q27.9974-41.5629 30.2873-45.665Q32.5147-49.6648 35.5682-51.4092Q38.6216-53.1536 43.2294-53.1536Q46.5935-53.1536 49.7205-52.0757ZM84.8602 10.7652L103.03 10.5829L103.03-49.2797Q103.03-61.6105 95.1544-69.3728Q87.2785-77.1351 73.5747-78.5047Q72.7827-78.5837 71.979-78.6267Q71.1753-78.6697 70.3087-78.7334L49.9349-57.7535Q56.2716-59.4965 59.6753-60.2902Q63.0791-61.0839 64.9829-61.2938Q66.8868-61.5038 68.5264-61.5038Q76.0431-61.5038 80.0761-57.9722Q84.1091-54.4406 84.1091-47.9088L84.1091-43.3647L62.7432-42.2264Q50.8382-41.554 42.8894-36.9256L46.7307-13.5706Q49.8166-18.6684 52.5782-21.3416Q55.3397-24.0147 58.2592-25.0915Q61.1788-26.1682 64.6482-26.3598L84.1091-27.5604L84.1091-23.4878Q84.1091-17.2905 80.2703-12.5557Q76.4315-7.82096 70.1034-5.89333Q63.7754-3.96569 56.1705-6.05239L73.4391 9.48214Q78.7081 7.5631 82.7527 4.57325Q86.7973 1.5834 88.5006-1.31703L84.8602-1.31703Z"/>
  </g>
  <g id="Heavy-M" transform="matrix(1 0 0 1 2564.56 1126)">
   <path d="M85.4928 14.7808Q95.7295 14.7808 104.783 10.8471Q113.836 6.91341 120.758-0.00213878Q127.681-6.91769 131.608-15.9708Q135.534-25.024 135.534-35.2606Q135.534-45.4973 131.599-54.5504Q127.665-63.6036 120.749-70.518Q113.833-77.4324 104.75-81.3673Q95.6672-85.3021 85.4305-85.3021Q75.1938-85.3021 66.1418-81.3684Q57.0898-77.4347 50.1961-70.5192Q43.3023-63.6036 39.3769-54.5504Q35.4514-45.4973 35.4514-35.2606Q35.4514-25.024 39.385-15.9708Q43.3187-6.91769 50.2343-0.00213878Q57.1498 6.91341 66.2019 10.8471Q75.2539 14.7808 85.4928 14.7808ZM85.4928-0.293863Q78.197-0.293863 71.8547-2.98825Q65.5124-5.68263 60.7448-10.4585Q55.9771-15.2344 53.2827-21.5996Q50.5883-27.9648 50.5883-35.2606Q50.5883-42.5565 53.2609-48.9217Q55.9335-55.2869 60.7218-60.0628Q65.5102-64.8387 71.8224-67.533Q78.1347-70.2274 85.4305-70.2274Q92.7263-70.2274 99.0686-67.533Q105.411-64.8387 110.21-60.041Q115.009-55.2433 117.734-48.8999Q120.46-42.5565 120.46-35.2606Q120.46-27.9648 117.787-21.6225Q115.114-15.2803 110.317-10.4815Q105.519-5.68263 99.1538-2.98825Q92.7886-0.293863 85.4928-0.293863ZM54.9438-4.36094L48.9573-13.0934Q44.3783-9.65095 38.4482-9.65095Q33.4184-9.65095 30.4159-11.9138Q27.4133-14.1767 27.4133-17.9445Q27.4133-21.6777 30.4538-23.9233Q33.4943-26.1688 39.375-26.5313L45.1571-26.9092L41.8401-39.424L37.8967-38.9861Q25.8854-38.2526 19.1732-32.7046Q12.4609-27.1566 12.4609-17.9331Q12.4609-11.5554 15.4502-6.68878Q18.4394-1.82217 23.7606 0.873944Q29.0818 3.57006 36.1376 3.57006Q41.4019 3.57006 46.366 1.47262Q51.3301-0.624829 54.9438-4.36094ZM48.7273-53.1394L56.6597-64.715Q50.9141-67.6486 42.6641-67.6486Q34.1247-67.6486 27.1293-64.0829Q20.1339-60.5171 17.1331-54.5782Q16.3951-53.2499 15.9927-51.8217Q15.5902-50.3935 15.5902-49.1072Q15.5902-46.1296 17.5143-44.1908Q19.4384-42.252 22.3786-42.252Q26.5887-42.252 28.6118-45.9365Q30.9011-50.2908 34.2042-52.2091Q37.5072-54.1273 42.4239-54.1273Q45.6884-54.1273 48.7273-53.1394ZM85.031 10.0261L101.373 9.86242L101.373-49.0935Q101.373-61.0447 93.8549-68.6039Q86.3372-76.1631 73.1976-77.5855Q72.2614-77.6948 71.298-77.752Q70.3346-77.8091 69.3146-77.86L51.2663-59.2953Q56.4435-60.7252 59.4044-61.4027Q62.3653-62.0802 64.2159-62.2725Q66.0664-62.4648 67.7701-62.4648Q75.6932-62.4648 80.0019-58.6307Q84.3106-54.7965 84.3106-47.7847L84.3106-42.6099L62.0682-41.3818Q50.3943-40.7134 42.6746-36.2099L46.0817-15.6651Q48.8024-20.0891 51.491-22.5101Q54.1796-24.9311 57.1998-25.9793Q60.2199-27.0274 63.8489-27.2376L84.3106-28.528L84.3106-23.4027Q84.3106-17.2684 80.6903-12.5001Q77.0699-7.73168 71.0455-5.52443Q65.021-3.31718 57.7158-4.77587L72.8099 8.71341Q77.9766 6.8034 81.9352 3.79749Q85.8939 0.791573 87.6485-2.34264L85.031-2.34264Z"/>
  </g>
  <g id="Bold-M" transform="matrix(1 0 0 1 2268.8 1126)">
   <path d="M84.5423 13.8303Q94.5817 13.8303 103.465 9.96976Q112.347 6.10925 119.142-0.673233Q125.936-7.45572 129.785-16.3385Q133.633-25.2213 133.633-35.2606Q133.633-45.3 129.77-54.1828Q125.907-63.0656 119.125-69.8455Q112.342-76.6254 103.431-80.4885Q94.5194-84.3516 84.48-84.3516Q74.4406-84.3516 65.5604-80.491Q56.6802-76.6305 49.912-69.8481Q43.1438-63.0656 39.2976-54.1828Q35.4514-45.3 35.4514-35.2606Q35.4514-25.2213 39.3119-16.3385Q43.1724-7.45572 49.9549-0.673233Q56.7374 6.10925 65.6176 9.96976Q74.4978 13.8303 84.5423 13.8303ZM84.5423 1.22943Q76.9287 1.22943 70.3105-1.58193Q63.6923-4.39329 58.7148-9.38514Q53.7372-14.377 50.9259-21.012Q48.1146-27.647 48.1146-35.2606Q48.1146-42.8743 50.9116-49.5093Q53.7087-56.1443 58.6979-61.1362Q63.6872-66.128 70.2768-68.9394Q76.8664-71.7507 84.48-71.7507Q92.0937-71.7507 98.7118-68.9394Q105.33-66.128 110.339-61.1219Q115.347-56.1158 118.19-49.495Q121.032-42.8743 121.032-35.2606Q121.032-27.647 118.235-21.0288Q115.438-14.4106 110.432-9.40196Q105.426-4.39329 98.791-1.58193Q92.156 1.22943 84.5423 1.22943ZM53.0973-4.47142L48.0514-11.8443Q43.4167-8.61386 37.492-8.61386Q32.0419-8.61386 28.7281-11.1672Q25.4143-13.7205 25.4143-17.9502Q25.4143-22.1102 28.7439-24.6287Q32.0734-27.1471 38.4258-27.5569L43.4215-27.8867L40.7675-38.5328L37.0752-38.1459Q25.3825-37.4217 18.9217-32.1047Q12.4609-26.7878 12.4609-17.9245Q12.4609-11.7922 15.3465-7.12932Q18.232-2.46647 23.3684 0.114114Q28.5048 2.6947 35.3145 2.6947Q40.2989 2.6947 44.9666 0.796731Q49.6343-1.10124 53.0973-4.47142ZM47.6163-54.3293L54.4864-64.3319Q49.1483-66.8112 41.7516-66.8112Q33.3415-66.8112 26.5717-63.2944Q19.802-59.7777 16.9561-53.9559Q16.2833-52.7173 15.9106-51.3971Q15.538-50.0769 15.538-48.9161Q15.538-46.3265 17.1873-44.6747Q18.8367-43.0228 21.3587-43.0228Q25.0128-43.0228 26.7376-46.2403Q29.096-50.991 32.6783-53.1038Q36.2607-55.2166 41.5229-55.2166Q44.6759-55.2166 47.6163-54.3293ZM85.2221 9.19937L99.5183 9.05648L99.5183-48.8853Q99.5183-60.4119 92.4012-67.7438Q85.2842-75.0757 72.7759-76.5574Q71.6782-76.7004 70.5361-76.7734Q69.3941-76.8464 68.2025-76.883L52.7556-61.02Q56.6357-62.0996 59.1013-62.6472Q61.5669-63.1947 63.3578-63.3673Q65.1487-63.5399 66.9242-63.5399Q75.3018-63.5399 79.9189-59.3673Q84.5361-55.1947 84.5361-47.6459L84.5361-41.7655L61.3132-40.4371Q49.8978-39.773 42.4343-35.4093L45.3557-18.0081Q47.6679-21.6784 50.2749-23.8173Q52.8819-25.9562 56.0146-26.9724Q59.1473-27.9886 62.9548-28.2195L84.5361-29.6103L84.5361-23.3075Q84.5361-17.2437 81.1601-12.4378Q77.7842-7.63181 72.0993-5.11176Q66.4143-2.59172 59.4444-3.3479L72.1061 7.85347Q77.1582 5.95357 81.0207 2.92968Q84.8833-0.0942006 86.6953-3.48993L85.2221-3.48993Z"/>
  </g>
  <g id="Semibold-M" transform="matrix(1 0 0 1 1972.74 1126)">
   <path d="M83.887 13.175Q93.7905 13.175 102.556 9.36493Q111.321 5.55487 118.027-1.13588Q124.733-7.82663 128.528-16.592Q132.323-25.3573 132.323-35.2606Q132.323-45.164 128.509-53.9293Q124.695-62.6947 118.005-69.3819Q111.314-76.0691 102.521-79.8827Q93.7282-83.6963 83.8247-83.6963Q73.9213-83.6963 65.1596-79.8862Q56.3978-76.0762 49.7162-69.3854Q43.0345-62.6947 39.2429-53.9293Q35.4514-45.164 35.4514-35.2606Q35.4514-25.3573 39.2614-16.592Q43.0715-7.82663 49.7622-1.13588Q56.453 5.55487 65.2148 9.36493Q73.9766 13.175 83.887 13.175ZM83.887 2.27958Q76.0543 2.27958 69.2459-0.612418Q62.4376-3.50442 57.3153-8.64516Q52.1931-13.7859 49.3011-20.6069Q46.4092-27.4278 46.4092-35.2606Q46.4092-43.0935 49.2921-49.9144Q52.1749-56.7354 57.3027-61.8761Q62.4304-67.0169 69.2112-69.9089Q75.992-72.8009 83.8247-72.8009Q91.6575-72.8009 98.4659-69.9089Q105.274-67.0169 110.428-61.8671Q115.581-56.7172 118.504-49.9054Q121.427-43.0935 121.427-35.2606Q121.427-27.4278 118.544-20.6195Q115.662-13.8111 110.512-8.65776Q105.362-3.50442 98.5409-0.612418Q91.7198 2.27958 83.887 2.27958ZM51.8243-4.54758L47.4268-10.9832Q42.7538-7.8989 36.8328-7.8989Q31.093-7.8989 27.5646-10.6525Q24.0362-13.4061 24.0362-17.9541Q24.0362-22.4084 27.565-25.115Q31.0938-27.8215 37.7714-28.264L42.225-28.5606L40.028-37.9184L36.5088-37.5666Q25.0358-36.8489 18.7483-31.6912Q12.4609-26.5335 12.4609-17.9186Q12.4609-11.9554 15.275-7.43302Q18.0891-2.91064 23.0981-0.409708Q28.1071 2.09123 34.747 2.09123Q39.5385 2.09123 44.0019 0.33078Q48.4652-1.42967 51.8243-4.54758ZM46.8503-55.1496L52.9881-64.0678Q47.931-66.2339 41.1225-66.2339Q32.8016-66.2339 26.1874-62.7509Q19.5731-59.2679 16.834-53.5269Q16.2063-52.3501 15.8541-51.1044Q15.5019-49.8586 15.5019-48.7844Q15.5019-46.4623 16.9619-45.0083Q18.4219-43.5542 20.6556-43.5542Q23.9264-43.5542 25.4455-46.4497Q27.8515-51.4737 31.6264-53.7206Q35.4013-55.9676 40.9017-55.9676Q43.9778-55.9676 46.8503-55.1496ZM85.3539 8.62943L98.2398 8.50087L98.2398-48.7417Q98.2398-59.9756 91.3991-67.1508Q84.5583-74.3261 72.4851-75.8485Q71.2761-76.0149 70.0109-76.0988Q68.7457-76.1827 67.4359-76.2095L53.7823-62.209Q56.7682-63.0471 58.8923-63.5051Q61.0164-63.9631 62.7662-64.122Q64.516-64.281 66.341-64.281Q75.032-64.281 79.8617-59.8751Q84.6915-55.4691 84.6915-47.5501L84.6915-41.1833L60.7927-39.7858Q49.5555-39.1248 42.2687-34.8574L44.8552-19.6233Q46.8858-22.7741 49.4365-24.7185Q51.9873-26.6628 55.1976-27.657Q58.4079-28.6512 62.3385-28.8964L84.6915-30.3564L84.6915-23.2419Q84.6915-17.2266 81.484-12.3948Q78.2766-7.56296 72.8257-4.82727Q67.3749-2.09159 60.6361-2.36347L71.6208 7.26063Q76.594 5.3677 80.3903 2.33143Q84.1866-0.704848 86.0382-4.28087L85.3539-4.28087Z"/>
  </g>
  <g id="Medium-M" transform="matrix(1 0 0 1 1676.53 1126)">
   <path d="M83.3902 12.6781Q93.1905 12.6781 101.867 8.90632Q110.543 5.13451 117.182-1.48668Q123.82-8.10787 127.575-16.7841Q131.329-25.4604 131.329-35.2606Q131.329-45.0609 127.553-53.7371Q123.777-62.4134 117.156-69.0303Q110.534-75.6473 101.831-79.4234Q93.1282-83.1994 83.3278-83.1994Q73.5276-83.1994 64.8557-79.4276Q56.1837-75.6558 49.5677-69.0346Q42.9516-62.4134 39.2015-53.7371Q35.4514-45.0609 35.4514-35.2606Q35.4514-25.4604 39.2232-16.7841Q42.995-8.10787 49.6162-1.48668Q56.2374 5.13451 64.9094 8.90632Q73.5814 12.6781 83.3902 12.6781ZM83.3902 3.07585Q75.3913 3.07585 68.4387 0.122704Q61.4862-2.83044 56.2542-8.08408Q51.0223-13.3377 48.0692-20.2997Q45.1161-27.2617 45.1161-35.2606Q45.1161-43.2596 48.064-50.2216Q51.012-57.1836 56.2447-62.4372Q61.4775-67.6908 68.4032-70.644Q75.329-73.5971 83.3278-73.5971Q91.3268-73.5971 98.2794-70.644Q105.232-67.6908 110.495-62.4321Q115.758-57.1733 118.742-50.2165Q121.727-43.2596 121.727-35.2606Q121.727-27.2617 118.779-20.3091Q115.831-13.3565 110.572-8.09348Q105.313-2.83044 98.3512 0.122704Q91.3891 3.07585 83.3902 3.07585ZM50.8591-4.60533L46.9533-10.3302Q42.2511-7.35679 36.3329-7.35679Q30.3735-7.35679 26.6824-10.2622Q22.9913-13.1676 22.9913-17.9571Q22.9913-22.6345 26.6712-25.4837Q30.3511-28.3329 37.2753-28.8001L41.3177-29.0716L39.4673-37.4525L36.0794-37.1274Q24.7729-36.4146 18.6169-31.3776Q12.4609-26.3407 12.4609-17.9141Q12.4609-12.0792 15.2208-7.66331Q17.9807-3.24743 22.8931-0.806892Q27.8055 1.63365 34.3168 1.63365Q38.962 1.63365 43.2704-0.0225234Q47.5788-1.6787 50.8591-4.60533ZM46.2695-55.7716L51.8521-63.8675Q47.008-65.7962 40.6455-65.7962Q32.3922-65.7962 25.8959-62.3388Q19.3996-58.8813 16.7415-53.2017Q16.1479-52.0717 15.8112-50.8824Q15.4746-49.6931 15.4746-48.6845Q15.4746-46.5652 16.791-45.2612Q18.1074-43.9572 20.1225-43.9572Q23.1027-43.9572 24.4658-46.6085Q26.9079-51.8397 30.8288-54.1884Q34.7497-56.537 40.4307-56.537Q43.4485-56.537 46.2695-55.7716ZM85.4538 8.19727L97.2705 8.07958L97.2705-48.6328Q97.2705-59.6448 90.6392-66.7012Q84.0078-73.7577 72.2647-75.3111Q70.9713-75.4951 69.6127-75.5873Q68.2541-75.6795 66.8546-75.6988L54.5608-63.1105Q56.8687-63.7656 58.7339-64.1556Q60.5991-64.5457 62.3177-64.6943Q64.0363-64.8429 65.8988-64.8429Q74.8274-64.8429 79.8184-60.2601Q84.8093-55.6773 84.8093-47.4776L84.8093-40.7419L60.3981-39.292Q49.2959-38.6332 42.1431-34.4389L44.4757-20.848Q46.2927-23.6049 48.8008-25.4018Q51.3089-27.1987 54.5781-28.1761Q57.8472-29.1536 61.8711-29.4097L84.8093-30.9221L84.8093-23.1921Q84.8093-17.2137 81.7296-12.3622Q78.65-7.51075 73.3766-4.61156Q68.1032-1.71237 61.5397-1.61703L71.2529 6.81112Q76.1663 4.92347 79.9123 1.8778Q83.6583-1.16787 85.54-4.88059L85.4538-4.88059Z"/>
  </g>
  <g id="Regular-M" transform="matrix(1 0 0 1 1380.47 1126)">
   <path d="M82.7421 12.0301Q92.408 12.0301 100.968 8.30814Q109.528 4.58622 116.079-1.94425Q122.63-8.47471 126.332-17.0348Q130.033-25.5949 130.033-35.2606Q130.033-44.9264 126.306-53.4865Q122.578-62.0466 116.048-68.5718Q109.518-75.097 100.932-78.8242Q92.3457-82.5514 82.6798-82.5514Q73.0141-82.5514 64.4593-78.8294Q55.9045-75.1075 49.374-68.577Q42.8435-62.0466 39.1475-53.4865Q35.4514-44.9264 35.4514-35.2606Q35.4514-25.5949 39.1733-17.0348Q42.8952-8.47471 49.4257-1.94425Q55.9561 4.58622 64.511 8.30814Q73.0659 12.0301 82.7421 12.0301ZM82.7421 4.11446Q74.5265 4.11446 67.3859 1.08156Q60.2452-1.95134 54.8701-7.35223Q49.4951-12.7531 46.4623-19.899Q43.4295-27.0449 43.4295-35.2606Q43.4295-43.4764 46.4623-50.6223Q49.4951-57.7682 54.8648-63.1691Q60.2345-68.5699 67.3494-71.6028Q74.4642-74.6358 82.6798-74.6358Q90.8955-74.6358 98.0362-71.6028Q105.177-68.5699 110.583-63.1691Q115.989-57.7682 119.053-50.6223Q122.117-43.4764 122.117-35.2606Q122.117-27.0449 119.084-19.9042Q116.052-12.7636 110.651-7.35746Q105.25-1.95134 98.1038 1.08156Q90.9578 4.11446 82.7421 4.11446ZM49.6001-4.68066L46.3356-9.47859Q41.5955-6.64969 35.6809-6.64969Q29.4349-6.64969 25.5317-9.75316Q21.6284-12.8566 21.6284-17.961Q21.6284-22.9294 25.5053-25.9647Q29.3823-28.9999 36.6281-29.4994L40.1343-29.7381L38.736-36.8449L35.5192-36.5545Q24.43-35.848 18.4455-30.9686Q12.4609-26.0893 12.4609-17.9082Q12.4609-12.2406 15.1501-7.96367Q17.8393-3.68673 22.6257-1.32496Q27.4121 1.03681 33.7556 1.03681Q38.2099 1.03681 42.3162-0.483354Q46.4225-2.00352 49.6001-4.68066ZM45.512-56.5829L50.3703-63.6063Q45.8041-65.2253 40.0233-65.2253Q31.8583-65.2253 25.5158-61.8012Q19.1733-58.3771 16.6208-52.7774Q16.0717-51.7086 15.7553-50.5929Q15.439-49.4772 15.439-48.5543Q15.439-46.6995 16.5681-45.5911Q17.6971-44.4827 19.4271-44.4827Q22.0282-44.4827 23.1879-46.8156Q25.6772-52.3171 29.7885-54.7984Q33.8998-57.2797 39.8163-57.2797Q42.7582-57.2797 45.512-56.5829ZM85.5841 7.63359L96.0061 7.53008L96.0061-48.4908Q96.0061-59.2133 89.648-66.1148Q83.2899-73.0163 71.9771-74.6101Q70.5737-74.8171 69.0932-74.9201Q67.6128-75.0231 66.0964-75.0326L55.5763-64.2865Q56.9998-64.7027 58.5272-65.0041Q60.0547-65.3056 61.7327-65.4407Q63.4106-65.5759 65.322-65.5759Q74.5606-65.5759 79.7618-60.7623Q84.963-55.9487 84.963-47.3829L84.963-40.1662L59.8833-38.6478Q48.9574-37.9921 41.9793-33.893L43.9807-22.4455Q45.5192-24.6885 47.9717-26.293Q50.4241-27.8976 53.77-28.8532Q57.1159-29.8089 61.2615-30.0792L84.963-31.6601L84.963-23.1272Q84.963-17.1969 82.05-12.3198Q79.1369-7.44265 74.0951-4.3302Q69.0532-1.21774 62.7183-0.64342L70.773 6.2248Q75.6083 4.34404 79.2888 1.28612Q82.9693-1.7718 84.8901-5.66283L85.5841-5.66283Z"/>
  </g>
  <g id="Light-M" transform="matrix(1 0 0 1 1084.66 1126)">
   <path d="M81.8351 11.1231Q91.313 11.1231 99.7105 7.47818Q108.108 3.8333 114.522-2.57743Q120.936-8.98816 124.578-17.3857Q128.219-25.7832 128.219-35.2606Q128.219-44.7381 124.56-53.1356Q120.902-61.5331 114.491-67.9301Q108.08-74.3272 99.6654-77.9858Q91.2506-81.6443 81.7728-81.6443Q72.2953-81.6443 63.9117-77.9995Q55.5282-74.3546 49.1174-67.9439Q42.7067-61.5331 39.079-53.1356Q35.4514-44.7381 35.4514-35.2606Q35.4514-25.7832 39.0962-17.3857Q42.7411-8.98816 49.1519-2.57743Q55.5626 3.8333 63.9464 7.47818Q72.3302 11.1231 81.8351 11.1231ZM81.8351 5.02148Q73.4315 5.02148 66.1283 1.92001Q58.825-1.18146 53.3216-6.70208Q47.8182-12.2227 44.717-19.5397Q41.6157-26.8566 41.6157-35.2606Q41.6157-43.6647 44.717-50.9816Q47.8182-58.2986 53.3077-63.8192Q58.7971-69.3398 66.0832-72.4413Q73.3692-75.5428 81.7728-75.5428Q90.1768-75.5428 97.48-72.4413Q104.783-69.3398 110.318-63.8192Q115.852-58.2986 118.985-50.9816Q122.117-43.6647 122.117-35.2606Q122.117-26.8566 119.016-19.5534Q115.915-12.2501 110.394-6.71579Q104.873-1.18146 97.5563 1.92001Q90.2391 5.02148 81.8351 5.02148ZM49.1039-4.80054L46.5066-8.58883Q41.2534-5.3149 34.7397-5.3149Q27.9633-5.3149 23.6409-8.80345Q19.3184-12.292 19.3184-17.9952Q19.3184-23.4428 23.5719-26.8031Q27.8253-30.1634 35.9094-30.7654L39.0393-30.9872L38.0003-36.3829L35.023-36.1267Q24.0364-35.386 18.2487-30.6264Q12.4609-25.8667 12.4609-17.8568Q12.4609-12.3947 15.1159-8.25461Q17.7708-4.1145 22.4888-1.81267Q27.2068 0.489154 33.4304 0.489154Q37.8336 0.489154 41.88-0.919755Q45.9263-2.32866 49.1039-4.80054ZM45.3579-58.0204L49.0013-63.2984Q44.709-64.8147 39.2534-64.8147Q30.7802-64.8147 24.6602-61.1424Q18.5403-57.4701 16.193-51.5798Q15.7638-50.5963 15.4901-49.5406Q15.2165-48.4848 15.2165-47.6818Q15.2165-46.2545 16.0548-45.4199Q16.8931-44.5854 18.1952-44.5854Q20.2656-44.5854 21.0833-46.5589Q23.2646-52.899 27.8293-55.8679Q32.3939-58.8367 39.1148-58.8367Q42.3819-58.8367 45.3579-58.0204ZM86.4569 7.37687L94.3807 7.30757L94.3807-47.5154Q94.3807-58.8539 87.7145-65.8838Q81.0484-72.9137 69.2736-73.9598Q67.7161-74.0984 66.1588-74.1159Q64.6014-74.1334 63.0508-74.0572L54.5666-65.5868Q56.0758-66.0717 57.7059-66.4073Q59.336-66.743 61.1081-66.8953Q62.8802-67.0475 64.86-67.0475Q74.8342-67.0475 80.4377-61.6521Q86.0411-56.2566 86.0411-46.7326L86.0411-39.5332L59.695-37.7753Q47.52-36.9655 40.5419-32.0793L42.2526-23.3867Q43.9622-25.6297 46.6028-27.2598Q49.2434-28.89 52.8118-29.8799Q56.3802-30.8697 60.7823-31.1743L86.0411-32.9949L86.0411-22.648Q86.0411-16.598 83.1023-11.5412Q80.1635-6.48447 75.079-3.12391Q69.9945 0.236643 63.5911 1.13611L70.2596 6.31047Q75.7624 4.30983 79.9049 0.738605Q84.0473-2.83262 85.9509-7.47657L86.4569-7.47657Z"/>
  </g>
  <g id="Thin-M" transform="matrix(1 0 0 1 789.151 1126)">
   <path d="M80.6355 9.92346Q89.8647 9.92346 98.0472 6.38048Q106.23 2.8375 112.463-3.41487Q118.696-9.66723 122.258-17.8498Q125.82-26.0323 125.82-35.2606Q125.82-44.489 122.252-52.6715Q118.684-60.8541 112.431-67.0815Q106.179-73.3089 97.9907-76.8768Q89.8024-80.4447 80.5732-80.4447Q71.3448-80.4447 63.1876-76.9018Q55.0304-73.3588 48.7781-67.1064Q42.5257-60.8541 38.9885-52.6715Q35.4514-44.489 35.4514-35.2606Q35.4514-26.0323 38.9943-17.8498Q42.5373-9.66723 48.7897-3.41487Q55.0421 2.8375 63.1996 6.38048Q71.3572 9.92346 80.6355 9.92346ZM80.6355 6.22107Q71.9832 6.22107 64.465 3.02892Q56.9467-0.163229 51.2735-5.84221Q45.6004-11.5212 42.4086-19.0644Q39.2169-26.6076 39.2169-35.2606Q39.2169-43.9137 42.4086-51.4569Q45.6004-59.0001 51.2482-64.6791Q56.896-70.3581 64.4085-73.5502Q71.9209-76.7424 80.5732-76.7424Q89.2262-76.7424 96.7445-73.5502Q104.263-70.3581 109.967-64.6791Q115.671-59.0001 118.894-51.4569Q122.117-43.9137 122.117-35.2606Q122.117-26.6076 118.925-19.0893Q115.734-11.571 110.055-5.86714Q104.376-0.163229 96.8321 3.02892Q89.2885 6.22107 80.6355 6.22107ZM48.4476-4.95909L46.7328-7.41205Q40.8009-3.54953 33.4949-3.54953Q26.017-3.54953 21.1402-7.54739Q16.2634-11.5453 16.2634-18.0405Q16.2634-24.1219 21.0147-27.912Q25.766-31.7021 34.9588-32.4399L37.5911-32.6393L37.0274-35.7719L34.3668-35.5609Q23.5159-34.775 17.9884-30.1737Q12.4609-25.5725 12.4609-17.7887Q12.4609-12.5985 15.0706-8.63939Q17.6803-4.68027 22.3079-2.45772Q26.9354-0.235167 33.0004-0.235167Q37.3359-0.235167 41.303-1.49693Q45.2701-2.7587 48.4476-4.95909ZM45.1541-59.9215L47.1907-62.8912Q43.2608-64.2718 38.2352-64.2718Q29.3544-64.2718 23.5287-60.2712Q17.703-56.2705 15.6272-49.9957Q15.3566-49.1252 15.1394-48.1488Q14.9222-47.1723 14.9222-46.5278Q14.9222-45.6659 15.3759-45.1935Q15.8296-44.7211 16.566-44.7211Q17.9345-44.7211 18.2997-46.2194Q20.0738-53.6685 25.2381-57.2823Q30.4023-60.896 38.1871-60.896Q41.8842-60.896 45.1541-59.9215ZM87.6112 7.03733L92.2309 7.01327L92.2309-46.2253Q92.2309-58.3786 85.1573-65.5783Q78.0838-72.7779 65.698-73.0997Q63.9367-73.1478 62.2776-73.0522Q60.6186-72.9566 59.0227-72.7671L53.2313-67.3065Q54.8538-67.8823 56.6196-68.2632Q58.3854-68.6441 60.2821-68.819Q62.1787-68.9939 64.249-68.9939Q75.1962-68.9939 81.3316-62.8289Q87.4669-56.6639 87.4669-45.8726L87.4669-38.6959L59.446-36.6213Q45.6189-35.6077 38.6407-29.6805L39.9671-24.6316Q41.9029-26.8746 44.7924-28.5385Q47.6818-30.2025 51.5445-31.2376Q55.4072-32.2727 60.1485-32.6225L87.4669-34.7602L87.4669-22.0142Q87.4669-15.806 84.4941-10.5116Q81.5213-5.21719 76.3803-1.5285Q71.2393 2.16018 64.7454 3.48968L69.5805 6.42378Q75.9662 4.26458 80.7197 0.0144738Q85.4732-4.23564 87.3539-9.87539L87.6112-9.87539Z"/>
  </g>
  <g id="Ultralight-M" transform="matrix(1 0 0 1 493.054 1126)">
   <path d="M80.021 9.30903Q89.1229 9.30903 97.1953 5.81824Q105.268 2.32745 111.408-3.8438Q117.549-10.0151 121.07-18.0874Q124.592-26.1598 124.592-35.2606Q124.592-44.3615 121.07-52.4338Q117.548-60.5062 111.377-66.6468Q105.205-72.7874 97.1329-76.3089Q89.0606-79.8303 79.9587-79.8303Q70.8579-79.8303 62.8167-76.3395Q54.7755-72.8487 48.6043-66.6775Q42.433-60.5062 38.9422-52.4338Q35.4514-44.3615 35.4514-35.2606Q35.4514-26.1598 38.9422-18.0874Q42.4329-10.0151 48.6042-3.8438Q54.7754 2.32745 62.8172 5.81824Q70.8589 9.30903 80.021 9.30903ZM80.021 6.8355Q71.2415 6.8355 63.6131 3.5969Q55.9847 0.358305 50.2245-5.40179Q44.4644-11.1619 41.2263-18.821Q37.9882-26.48 37.9882-35.2606Q37.9882-44.0413 41.2263-51.7003Q44.4644-59.3594 50.1933-65.1195Q55.9223-70.8796 63.5507-74.1182Q71.1791-77.3568 79.9587-77.3568Q88.7394-77.3568 96.3678-74.1182Q103.996-70.8796 109.787-65.1195Q115.579-59.3594 118.848-51.7003Q122.117-44.0413 122.117-35.2606Q122.117-26.48 118.879-18.8516Q115.641-11.2232 109.881-5.43246Q104.121 0.358305 96.4613 3.5969Q88.8017 6.8355 80.021 6.8355ZM48.1115-5.0403L46.8487-6.8093Q40.5692-2.64532 32.8573-2.64532Q25.02-2.64532 19.8593-6.90404Q14.6986-11.1628 14.6986-18.0637Q14.6986-24.4697 19.7049-28.48Q24.7112-32.4903 34.472-33.2976L36.8493-33.4855L36.529-35.4589L34.0306-35.2712Q23.2493-34.4621 17.8551-29.9419Q12.4609-25.4217 12.4609-17.7538Q12.4609-12.7029 15.0475-8.83648Q17.634-4.97006 22.2152-2.78811Q26.7963-0.606161 32.7801-0.606161Q37.081-0.606161 41.0075-1.79256Q44.934-2.97895 48.1115-5.0403ZM45.0497-60.8952L46.2633-62.6826Q42.519-63.9937 37.7137-63.9937Q28.6241-63.9937 22.9491-59.8249Q17.2742-55.6561 15.3375-49.1844Q15.148-48.3717 14.9597-47.4359Q14.7714-46.5 14.7714-45.9367Q14.7714-45.3644 15.0281-45.0775Q15.2849-44.7906 15.7315-44.7906Q16.7405-44.7906 16.8739-46.0455Q18.4395-54.0627 23.9109-58.0067Q29.3822-61.9508 37.7119-61.9508Q41.6292-61.9508 45.0497-60.8952ZM88.2025 6.86342L91.1298 6.86254L91.1298-45.5645Q91.1298-58.1352 83.8476-65.4218Q76.5653-72.7084 63.8666-72.6592Q62.0009-72.6609 60.2898-72.5074Q58.5786-72.3538 56.9596-72.1063L52.5473-68.1873Q54.2279-68.8097 56.0632-69.2138Q57.8985-69.6179 59.859-69.8043Q61.8194-69.9908 63.936-69.9908Q75.3816-69.9908 81.7894-63.4316Q88.1972-56.8724 88.1972-45.432L88.1972-38.2671L59.3184-36.0303Q44.6451-34.9122 37.667-28.4518L38.7965-25.2692Q40.8482-27.5122 43.8651-29.1935Q46.882-30.8748 50.8954-31.9331Q54.9089-32.9914 59.8238-33.3643L88.1972-35.6644L88.1972-21.6895Q88.1972-15.4004 85.207-9.98423Q82.2168-4.5681 77.0468-0.711344Q71.8769 3.14541 65.3367 4.69517L69.2327 6.48181Q76.0706 4.24141 81.137-0.356423Q86.2035-4.95426 88.0725-11.104L88.2025-11.104Z"/>
  </g>
  <g id="Black-S" transform="matrix(1 0 0 1 2876 696)">
   <path d="M67.8711 4.83398Q76.0742 4.83398 83.3252 1.68457Q90.5762-1.46484 96.1182-7.00684Q101.66-12.5488 104.81-19.7998Q107.959-27.0508 107.959-35.2539Q107.959-43.457 104.81-50.708Q101.66-57.959 96.1182-63.501Q90.5762-69.043 83.3008-72.1924Q76.0254-75.3418 67.8223-75.3418Q59.6191-75.3418 52.3682-72.1924Q45.1172-69.043 39.5996-63.501Q34.082-57.959 30.9326-50.708Q27.7832-43.457 27.7832-35.2539Q27.7832-27.0508 30.9326-19.7998Q34.082-12.5488 39.624-7.00684Q45.166-1.46484 52.417 1.68457Q59.668 4.83398 67.8711 4.83398ZM67.8711-9.27734Q62.4512-9.27734 57.7393-11.2793Q53.0273-13.2812 49.4873-16.8213Q45.9473-20.3613 43.9453-25.0977Q41.9434-29.834 41.9434-35.2539Q41.9434-40.6738 43.9209-45.4102Q45.8984-50.1465 49.4629-53.6865Q53.0273-57.2266 57.7148-59.2285Q62.4023-61.2305 67.8223-61.2305Q73.2422-61.2305 77.9541-59.2285Q82.666-57.2266 86.2305-53.6621Q89.7949-50.0977 91.8213-45.3857Q93.8477-40.6738 93.8477-35.2539Q93.8477-29.834 91.8701-25.1221Q89.8926-20.4102 86.3281-16.8457Q82.7637-13.2812 78.0273-11.2793Q73.291-9.27734 67.8711-9.27734ZM44.8242-10.9375L39.2578-19.043Q35.6934-16.1133 31.0059-16.1133Q27.4414-16.1133 25.3662-17.627Q23.291-19.1406 23.291-21.6797Q23.291-24.2188 25.415-25.7324Q27.5391-27.2461 31.7383-27.4902L37.0117-27.832L33.7891-39.3555L30.4688-38.9648Q20.752-38.3789 15.2588-33.8135Q9.76562-29.248 9.76562-21.6797Q9.76562-16.4551 12.207-12.4512Q14.6484-8.44727 18.9941-6.22559Q23.3398-4.00391 29.1016-4.00391Q33.4961-4.00391 37.6709-5.83496Q41.8457-7.66602 44.8242-10.9375ZM39.2578-48.1934L46.4355-58.6914Q41.5527-61.4258 34.2773-61.4258Q27.4414-61.4258 21.7529-58.5693Q16.0645-55.7129 13.5742-50.9277Q12.9395-49.8047 12.5977-48.584Q12.2559-47.3633 12.2559-46.2402Q12.2559-43.5547 14.0137-41.7725Q15.7715-39.9902 18.457-39.9902Q22.2656-39.9902 24.1211-43.3105Q25.8301-46.3867 28.1738-47.7295Q30.5176-49.0723 34.082-49.0723Q36.7676-49.0723 39.2578-48.1934ZM66.5039 1.02539L81.1523 0.878906L81.1523-46.2402Q81.1523-56.0547 74.8535-62.207Q68.5547-68.3594 57.6172-69.3848Q57.0312-69.4336 56.4453-69.458Q55.8594-69.4824 55.2246-69.5312L38.6719-52.4902Q43.9941-53.9551 46.8018-54.6143Q49.6094-55.2734 51.123-55.4443Q52.6367-55.6152 53.9062-55.6152Q59.7168-55.6152 62.8174-52.9053Q65.918-50.1953 65.918-45.166L65.918-41.7969L49.3652-40.918Q39.8926-40.3809 33.5938-36.6699L36.7188-17.6758Q39.2578-21.875 41.4551-24.0479Q43.6523-26.2207 45.9229-27.0752Q48.1934-27.9297 50.8789-28.0762L65.918-29.0039L65.918-26.0254Q65.918-21.1426 62.8418-17.4316Q59.7656-13.7207 54.7119-12.2803Q49.6582-10.8398 43.6035-12.6465L57.7148 0.0488281Q61.9141-1.46484 65.1367-3.83301Q68.3594-6.20117 69.6777-8.44727L66.5039-8.44727Z"/>
  </g>
  <g id="Heavy-S" transform="matrix(1 0 0 1 2579.9 696)">
   <path d="M67.2603 4.22319Q75.3367 4.22319 82.4781 1.11987Q89.6196-1.98344 95.081-7.439Q100.542-12.8946 103.64-20.0361Q106.737-27.1776 106.737-35.2539Q106.737-43.3303 103.634-50.4718Q100.531-57.6133 95.0752-63.0688Q89.6196-68.5244 82.4537-71.6277Q75.2878-74.731 67.2115-74.731Q59.1351-74.731 51.9936-71.6277Q44.8521-68.5244 39.4152-63.0688Q33.9783-57.6133 30.8808-50.4718Q27.7832-43.3303 27.7832-35.2539Q27.7832-27.1776 30.8865-20.0361Q33.9898-12.8946 39.4454-7.439Q44.901-1.98344 52.0424 1.11987Q59.1839 4.22319 67.2603 4.22319ZM67.2603-8.22862Q61.6214-8.22862 56.7193-10.3112Q51.8173-12.3939 48.1332-16.0837Q44.4491-19.7736 42.3665-24.6943Q40.2838-29.615 40.2838-35.2539Q40.2838-40.8928 42.3478-45.8135Q44.4118-50.7342 48.1145-54.4241Q51.8173-58.1139 56.6949-60.1966Q61.5726-62.2792 67.2115-62.2792Q72.8504-62.2792 77.7524-60.1966Q82.6545-58.1139 86.363-54.4054Q90.0715-50.6969 92.1785-45.7949Q94.2856-40.8928 94.2856-35.2539Q94.2856-29.615 92.2216-24.713Q90.1576-19.8109 86.4491-16.1024Q82.7406-12.3939 77.8199-10.3112Q72.8992-8.22862 67.2603-8.22862ZM43.4759-11.0066L38.5433-18.2017Q35.0019-15.491 30.3951-15.491Q26.5771-15.491 24.3175-17.1775Q22.0579-18.864 22.0579-21.6797Q22.0579-24.4838 24.3548-26.1646Q26.6517-27.8454 31.1044-28.1126L35.8247-28.4198L33.063-38.7331L29.9041-38.3771Q20.4177-37.8027 15.0917-33.3986Q9.76562-28.9945 9.76562-21.6797Q9.76562-16.6164 12.1321-12.7508Q14.4986-8.8852 18.7118-6.74419Q22.925-4.60318 28.5138-4.60318Q32.7009-4.60318 36.6567-6.29594Q40.6126-7.9887 43.4759-11.0066ZM38.4281-48.9194L44.9489-58.4379Q40.3427-60.838 33.6781-60.838Q26.9804-60.838 21.436-58.0507Q15.8916-55.2634 13.4935-50.605Q12.8934-49.5396 12.5688-48.3938Q12.2443-47.248 12.2443-46.2057Q12.2443-43.7621 13.8293-42.1643Q15.4142-40.5665 17.8347-40.5665Q21.286-40.5665 22.9571-43.5756Q24.7583-46.8477 27.2576-48.2769Q29.757-49.7061 33.4828-49.7061Q36.0415-49.7061 38.4281-48.9194ZM66.5385 0.426118L79.9423 0.291159L79.9423-46.2057Q79.9423-55.6168 73.9892-61.5789Q68.0361-67.5411 57.6402-68.6818Q56.9506-68.7652 56.2379-68.8126Q55.5252-68.8601 54.7636-68.9089L39.9396-53.6427Q44.2592-54.8309 46.675-55.3864Q49.0908-55.9419 50.5468-56.0955Q52.0029-56.2491 53.3185-56.2491Q59.3826-56.2491 62.6676-53.3547Q65.9525-50.4604 65.9525-45.143L65.9525-41.2322L48.8121-40.3072Q39.6967-39.7931 33.5938-36.2896L36.3845-19.3468Q38.5894-22.9698 40.7002-24.9237Q42.8111-26.8776 45.1392-27.7033Q47.4673-28.529 50.2566-28.687L65.9525-29.6608L65.9525-26.0139Q65.9525-21.2002 63.0665-17.4835Q60.1805-13.7668 55.3919-12.1189Q50.6032-10.4711 44.8136-11.7821L57.2423-0.619591Q61.2687-2.11021 64.3588-4.42652Q67.4489-6.74282 68.8134-9.09264L66.5385-9.09264Z"/>
  </g>
  <g id="Bold-S" transform="matrix(1 0 0 1 2283.87 696)">
   <path d="M66.5771 3.54004Q74.5117 3.54004 81.5308 0.488281Q88.5498-2.56348 93.9209-7.92236Q99.292-13.2812 102.332-20.3003Q105.371-27.3193 105.371-35.2539Q105.371-43.1885 102.319-50.2075Q99.2676-57.2266 93.9087-62.5854Q88.5498-67.9443 81.5063-70.9961Q74.4629-74.0479 66.5283-74.0479Q58.5938-74.0479 51.5747-70.9961Q44.5557-67.9443 39.209-62.5854Q33.8623-57.2266 30.8228-50.2075Q27.7832-43.1885 27.7832-35.2539Q27.7832-27.3193 30.835-20.3003Q33.8867-13.2812 39.2456-7.92236Q44.6045-2.56348 51.6235 0.488281Q58.6426 3.54004 66.5771 3.54004ZM66.5771-7.05566Q60.6934-7.05566 55.5786-9.22852Q50.4639-11.4014 46.6187-15.2588Q42.7734-19.1162 40.6006-24.2432Q38.4277-29.3701 38.4277-35.2539Q38.4277-41.1377 40.5884-46.2646Q42.749-51.3916 46.6064-55.249Q50.4639-59.1064 55.5542-61.2793Q60.6445-63.4521 66.5283-63.4521Q72.4121-63.4521 77.5269-61.2793Q82.6416-59.1064 86.5112-55.2368Q90.3809-51.3672 92.5781-46.2524Q94.7754-41.1377 94.7754-35.2539Q94.7754-29.3701 92.6147-24.2554Q90.4541-19.1406 86.5845-15.271Q82.7148-11.4014 77.5879-9.22852Q72.4609-7.05566 66.5771-7.05566ZM41.9678-11.084L37.7441-17.2607Q34.2285-14.7949 29.7119-14.7949Q25.6104-14.7949 23.1445-16.6748Q20.6787-18.5547 20.6787-21.6797Q20.6787-24.7803 23.1689-26.6479Q25.6592-28.5156 30.3955-28.8086L34.4971-29.0771L32.251-38.0371L29.2725-37.7197Q20.0439-37.1582 14.9048-32.9346Q9.76562-28.7109 9.76562-21.6797Q9.76562-16.7969 12.0483-13.0859Q14.3311-9.375 18.396-7.32422Q22.4609-5.27344 27.8564-5.27344Q31.8115-5.27344 35.5225-6.81152Q39.2334-8.34961 41.9678-11.084ZM37.5-49.7314L43.2861-58.1543Q38.9893-60.1807 33.0078-60.1807Q26.4648-60.1807 21.0815-57.4707Q15.6982-54.7607 13.4033-50.2441Q12.8418-49.2432 12.5366-48.1812Q12.2314-47.1191 12.2314-46.167Q12.2314-43.9941 13.623-42.6025Q15.0146-41.2109 17.1387-41.2109Q20.1904-41.2109 21.6553-43.8721Q23.5596-47.3633 26.2329-48.8892Q28.9062-50.415 32.8125-50.415Q35.2295-50.415 37.5-49.7314ZM66.5771-0.244141L78.5889-0.366211L78.5889-46.167Q78.5889-55.127 73.0225-60.8765Q67.4561-66.626 57.666-67.8955Q56.8604-68.0176 56.0059-68.0908Q55.1514-68.1641 54.248-68.2129L41.3574-54.9316Q44.5557-55.8105 46.5332-56.25Q48.5107-56.6895 49.9023-56.8237Q51.2939-56.958 52.6611-56.958Q59.0088-56.958 62.5-53.8574Q65.9912-50.7568 65.9912-45.1172L65.9912-40.6006L48.1934-39.624Q39.4775-39.1357 33.5938-35.8643L36.0107-21.2158Q37.8418-24.1943 39.856-25.9033Q41.8701-27.6123 44.2627-28.4058Q46.6553-29.1992 49.5605-29.3701L65.9912-30.3955L65.9912-26.001Q65.9912-21.2646 63.3179-17.5415Q60.6445-13.8184 56.1523-11.9385Q51.6602-10.0586 46.167-10.8154L56.7139-1.36719Q60.5469-2.83203 63.4888-5.09033Q66.4307-7.34863 67.8467-9.81445L66.5771-9.81445Z"/>
  </g>
  <g id="Semibold-S" transform="matrix(1 0 0 1 1987.63 696)">
   <path d="M66.1062 3.06904Q73.943 3.06904 80.8776 0.052832Q87.8122-2.96338 93.1211-8.25562Q98.43-13.5479 101.43-20.4825Q104.429-27.4171 104.429-35.2539Q104.429-43.0907 101.413-50.0253Q98.3967-56.96 93.1044-62.2522Q87.8122-67.5444 80.8532-70.5606Q73.8941-73.5769 66.0573-73.5769Q58.2205-73.5769 51.2859-70.5606Q44.3513-67.5444 39.0668-62.2522Q33.7823-56.96 30.7828-50.0253Q27.7832-43.0907 27.7832-35.2539Q27.7832-27.4171 30.7994-20.4825Q33.8156-13.5479 39.1079-8.25562Q44.4001-2.96338 51.3347 0.052832Q58.2693 3.06904 66.1062 3.06904ZM66.1062-6.24697Q60.0535-6.24697 54.7921-8.48203Q49.5308-10.7171 45.5745-14.69Q41.6182-18.663 39.3831-23.9321Q37.148-29.2013 37.148-35.2539Q37.148-41.3065 39.3753-46.5757Q41.6026-51.8448 45.5667-55.8178Q49.5308-59.7907 54.7677-62.0258Q60.0047-64.2608 66.0573-64.2608Q72.11-64.2608 77.3713-62.0258Q82.6327-59.7907 86.6134-55.81Q90.5941-51.8293 92.8536-46.5679Q95.1131-41.3065 95.1131-35.2539Q95.1131-29.2013 92.8858-23.9399Q90.6585-18.6785 86.6778-14.6978Q82.6971-10.7171 77.4279-8.48203Q72.1588-6.24697 66.1062-6.24697ZM40.928-11.1373L37.1932-16.612Q33.6953-14.315 29.2409-14.315Q24.9438-14.315 22.3358-16.3282Q19.7278-18.3414 19.7278-21.6797Q19.7278-24.9847 22.3514-26.9812Q24.9749-28.9777 29.9067-29.2885L33.5817-29.5304L31.6911-37.5572L28.837-37.2665Q19.7862-36.7139 14.7759-32.6146Q9.76562-28.5154 9.76562-21.6797Q9.76562-16.9213 11.9906-13.317Q14.2155-9.7127 18.1783-7.72412Q22.141-5.73555 27.4032-5.73555Q31.1983-5.73555 34.7404-7.16699Q38.2825-8.59844 40.928-11.1373ZM36.8602-50.2913L42.1397-57.9588Q38.0562-59.7274 32.5457-59.7274Q26.1094-59.7274 20.8372-57.0708Q15.5649-54.4142 13.3411-49.9953Q12.8063-49.0388 12.5144-48.0345Q12.2226-47.0303 12.2226-46.1403Q12.2226-44.1541 13.4809-42.9047Q14.7392-41.6553 16.6588-41.6553Q19.4351-41.6553 20.7577-44.0765Q22.7331-47.7188 25.5264-49.3113Q28.3197-50.9038 32.3504-50.9038Q34.6696-50.9038 36.8602-50.2913ZM66.6038-0.70625L77.6558-0.819434L77.6558-46.1403Q77.6558-54.7893 72.356-60.3921Q67.0562-65.995 57.6838-67.3534Q56.7981-67.5021 55.8459-67.5932Q54.8937-67.6842 53.8926-67.733L42.335-55.8203Q44.7601-56.4859 46.4354-56.8454Q48.1108-57.2049 49.458-57.3258Q50.8052-57.4468 52.2079-57.4468Q58.7511-57.4468 62.3845-54.204Q66.0179-50.9612 66.0179-45.0994L66.0179-40.1651L47.7668-39.153Q39.3265-38.6825 33.5938-35.571L35.753-22.5044Q37.3264-25.0386 39.2739-26.5787Q41.2214-28.1188 43.6584-28.8901Q46.0954-29.6613 49.0807-29.8411L66.0179-30.9021L66.0179-25.9921Q66.0179-21.3091 63.4912-17.5815Q60.9645-13.8539 56.6767-11.8141Q52.3889-9.77422 47.1001-10.1489L56.3495-1.88262Q60.0492-3.32969 62.8889-5.548Q65.7286-7.76631 67.1802-10.3121L66.6038-10.3121Z"/>
  </g>
  <g id="Medium-S" transform="matrix(1 0 0 1 1691.28 696)">
   <path d="M65.749 2.71191Q73.5117 2.71191 80.3823-0.277344Q87.2529-3.2666 92.5146-8.5083Q97.7764-13.75 100.746-20.6206Q103.715-27.4912 103.715-35.2539Q103.715-43.0166 100.726-49.8872Q97.7363-56.7578 92.4946-61.9995Q87.2529-67.2412 80.3579-70.2305Q73.4629-73.2197 65.7002-73.2197Q57.9375-73.2197 51.0669-70.2305Q44.1963-67.2412 38.959-61.9995Q33.7217-56.7578 30.7524-49.8872Q27.7832-43.0166 27.7832-35.2539Q27.7832-27.4912 30.7725-20.6206Q33.7617-13.75 39.0034-8.5083Q44.2451-3.2666 51.1157-0.277344Q57.9863 2.71191 65.749 2.71191ZM65.749-5.63379Q59.5684-5.63379 54.1958-7.91602Q48.8232-10.1982 44.7827-14.2588Q40.7422-18.3193 38.46-23.6963Q36.1777-29.0732 36.1777-35.2539Q36.1777-41.4346 38.4556-46.8115Q40.7334-52.1885 44.7783-56.249Q48.8232-60.3096 54.1714-62.5918Q59.5195-64.874 65.7002-64.874Q71.8809-64.874 77.2534-62.5918Q82.626-60.3096 86.6909-56.2446Q90.7559-52.1797 93.0625-46.8071Q95.3691-41.4346 95.3691-35.2539Q95.3691-29.0732 93.0913-23.7007Q90.8135-18.3281 86.7485-14.2632Q82.6836-10.1982 77.3066-7.91602Q71.9297-5.63379 65.749-5.63379ZM40.1396-11.1777L36.7754-16.1201Q33.291-13.9512 28.8838-13.9512Q24.4385-13.9512 21.7227-16.0654Q19.0068-18.1797 19.0068-21.6797Q19.0068-25.1396 21.7314-27.2339Q24.4561-29.3281 29.5361-29.6523L32.8877-29.874L31.2666-37.1934L28.5068-36.9229Q19.5908-36.377 14.6782-32.3721Q9.76562-28.3672 9.76562-21.6797Q9.76562-17.0156 11.9468-13.4922Q14.1279-9.96875 18.0132-8.02734Q21.8984-6.08594 27.0596-6.08594Q30.7334-6.08594 34.1475-7.43652Q37.5615-8.78711 40.1396-11.1777ZM36.375-50.7158L41.2705-57.8105Q37.3486-59.3838 32.1953-59.3838Q25.8398-59.3838 20.6519-56.7676Q15.4639-54.1514 13.2939-49.8066Q12.7793-48.8838 12.4976-47.9233Q12.2158-46.9629 12.2158-46.1201Q12.2158-44.2754 13.373-43.1338Q14.5303-41.9922 16.2949-41.9922Q18.8623-41.9922 20.0771-44.2314Q22.1064-47.9883 24.9907-49.6313Q27.875-51.2744 32-51.2744Q34.2451-51.2744 36.375-50.7158ZM66.624-1.05664L76.9482-1.16309L76.9482-46.1201Q76.9482-54.5332 71.8506-60.0249Q66.7529-65.5166 57.6973-66.9424Q56.751-67.1113 55.7246-67.2158Q54.6982-67.3203 53.623-67.3691L43.0762-56.4941Q44.915-56.998 46.3613-57.2969Q47.8076-57.5957 49.1211-57.7065Q50.4346-57.8174 51.8643-57.8174Q58.5557-57.8174 62.2969-54.4668Q66.0381-51.1162 66.0381-45.0859L66.0381-39.835L47.4434-38.7959Q39.2119-38.3389 33.5938-35.3486L35.5576-23.4814Q36.9355-25.6787 38.8325-27.0908Q40.7295-28.5029 43.2002-29.2573Q45.6709-30.0117 48.7168-30.1982L66.0381-31.2861L66.0381-25.9854Q66.0381-21.3428 63.6226-17.6118Q61.207-13.8809 57.0742-11.7197Q52.9414-9.55859 47.8076-9.64355L56.0732-2.27344Q59.6719-3.70703 62.4341-5.89502Q65.1963-8.08301 66.6748-10.6895L66.624-10.6895Z"/>
  </g>
  <g id="Regular-S" transform="matrix(1 0 0 1 1395.03 696)">
   <path d="M65.2832 2.24609Q72.9492 2.24609 79.7363-0.708008Q86.5234-3.66211 91.7236-8.83789Q96.9238-14.0137 99.8535-20.8008Q102.783-27.5879 102.783-35.2539Q102.783-42.9199 99.8291-49.707Q96.875-56.4941 91.6992-61.6699Q86.5234-66.8457 79.7119-69.7998Q72.9004-72.7539 65.2344-72.7539Q57.5684-72.7539 50.7812-69.7998Q43.9941-66.8457 38.8184-61.6699Q33.6426-56.4941 30.7129-49.707Q27.7832-42.9199 27.7832-35.2539Q27.7832-27.5879 30.7373-20.8008Q33.6914-14.0137 38.8672-8.83789Q44.043-3.66211 50.8301-0.708008Q57.6172 2.24609 65.2832 2.24609ZM65.2832-4.83398Q58.9355-4.83398 53.418-7.17773Q47.9004-9.52148 43.75-13.6963Q39.5996-17.8711 37.2559-23.3887Q34.9121-28.9062 34.9121-35.2539Q34.9121-41.6016 37.2559-47.1191Q39.5996-52.6367 43.75-56.8115Q47.9004-60.9863 53.3936-63.3301Q58.8867-65.6738 65.2344-65.6738Q71.582-65.6738 77.0996-63.3301Q82.6172-60.9863 86.792-56.8115Q90.9668-52.6367 93.335-47.1191Q95.7031-41.6016 95.7031-35.2539Q95.7031-28.9062 93.3594-23.3887Q91.0156-17.8711 86.8408-13.6963Q82.666-9.52148 77.1484-7.17773Q71.6309-4.83398 65.2832-4.83398ZM39.1113-11.2305L36.2305-15.4785Q32.7637-13.4766 28.418-13.4766Q23.7793-13.4766 20.9229-15.7227Q18.0664-17.9688 18.0664-21.6797Q18.0664-25.3418 20.9229-27.5635Q23.7793-29.7852 29.0527-30.127L31.9824-30.3223L30.7129-36.7188L28.0762-36.4746Q19.3359-35.9375 14.5508-32.0557Q9.76562-28.1738 9.76562-21.6797Q9.76562-17.1387 11.8896-13.7207Q14.0137-10.3027 17.7979-8.42285Q21.582-6.54297 26.6113-6.54297Q30.127-6.54297 33.374-7.78809Q36.6211-9.0332 39.1113-11.2305ZM35.7422-51.2695L40.1367-57.6172Q36.4258-58.9355 31.7383-58.9355Q25.4883-58.9355 20.4102-56.3721Q15.332-53.8086 13.2324-49.5605Q12.7441-48.6816 12.4756-47.7783Q12.207-46.875 12.207-46.0938Q12.207-44.4336 13.2324-43.4326Q14.2578-42.4316 15.8203-42.4316Q18.1152-42.4316 19.1895-44.4336Q21.2891-48.3398 24.292-50.0488Q27.2949-51.7578 31.543-51.7578Q33.6914-51.7578 35.7422-51.2695ZM66.6504-1.51367L76.0254-1.61133L76.0254-46.0938Q76.0254-54.1992 71.1914-59.5459Q66.3574-64.8926 57.7148-66.4062Q56.6895-66.6016 55.5664-66.7236Q54.4434-66.8457 53.2715-66.8945L44.043-57.373Q45.1172-57.666 46.2646-57.8857Q47.4121-58.1055 48.6816-58.2031Q49.9512-58.3008 51.416-58.3008Q58.3008-58.3008 62.1826-54.8096Q66.0645-51.3184 66.0645-45.0684L66.0645-39.4043L47.0215-38.3301Q39.0625-37.8906 33.5938-35.0586L35.3027-24.7559Q36.4258-26.5137 38.2568-27.7588Q40.0879-29.0039 42.6025-29.7363Q45.1172-30.4688 48.2422-30.6641L66.0645-31.7871L66.0645-25.9766Q66.0645-21.3867 63.7939-17.6514Q61.5234-13.916 57.5928-11.5967Q53.6621-9.27734 48.7305-8.98438L55.7129-2.7832Q59.1797-4.19922 61.8408-6.34766Q64.502-8.49609 66.0156-11.1816L66.6504-11.1816Z"/>
  </g>
  <g id="Light-S" transform="matrix(1 0 0 1 1099.13 696)">
   <path d="M64.4808 1.44374Q71.9805 1.44374 78.6238-1.44221Q85.2671-4.32816 90.3463-9.39802Q95.4254-14.4679 98.3021-21.1112Q101.179-27.7545 101.179-35.2539Q101.179-42.7533 98.2852-49.3966Q95.3916-56.0399 90.3217-61.1023Q85.2519-66.1647 78.5918-69.0581Q71.9317-71.9515 64.432-71.9515Q56.9326-71.9515 50.2969-69.0656Q43.6612-66.1797 38.5914-61.1098Q33.5215-56.0399 30.6524-49.3966Q27.7832-42.7533 27.7832-35.2539Q27.7832-27.7545 30.6691-21.1112Q33.5551-14.4679 38.625-9.39802Q43.6948-4.32816 50.3306-1.44221Q56.9664 1.44374 64.4808 1.44374ZM64.4808-4.03163Q57.9669-4.03163 52.3055-6.43603Q46.6441-8.84043 42.3801-13.1212Q38.1162-17.4019 35.7119-23.0708Q33.3076-28.7397 33.3076-35.2539Q33.3076-41.7681 35.7119-47.437Q38.1162-53.1059 42.3725-57.3867Q46.6288-61.6674 52.2734-64.0718Q57.918-66.4762 64.432-66.4762Q70.9462-66.4762 76.6076-64.0718Q82.269-61.6674 86.5574-57.3867Q90.8457-53.1059 93.2744-47.437Q95.7031-41.7681 95.7031-35.2539Q95.7031-28.7397 93.2988-23.0783Q90.8946-17.4169 86.6138-13.1287Q82.3331-8.84043 76.6641-6.43603Q70.9951-4.03163 64.4808-4.03163ZM38.6724-11.3365L36.3818-14.6914Q32.461-12.2958 27.5853-12.2958Q22.4775-12.2958 19.2502-14.8825Q16.023-17.4693 16.023-21.71Q16.023-25.796 19.2125-28.3052Q22.4019-30.8144 28.417-31.2469L31.0137-31.4273L30.0621-36.3101L27.6372-36.0962Q18.9878-35.5288 14.3767-31.7529Q9.76562-27.977 9.76562-21.6342Q9.76562-17.275 11.8594-13.9781Q13.9531-10.6812 17.6768-8.85429Q21.4005-7.02744 26.3237-7.02744Q29.7941-7.02744 32.9881-8.17413Q36.1821-9.32083 38.6724-11.3365ZM35.6059-52.5411L38.9257-57.3448Q35.4571-58.5724 31.0572-58.5724Q24.5346-58.5724 19.6533-55.7893Q14.772-53.0062 12.854-48.5011Q12.4718-47.6977 12.241-46.8474Q12.0102-45.9971 12.0102-45.3219Q12.0102-44.0399 12.7783-43.2812Q13.5465-42.5224 14.7306-42.5224Q16.556-42.5224 17.3276-44.2065Q19.1549-48.8546 22.5588-50.9949Q25.9628-53.1352 30.9224-53.1352Q33.3585-53.1352 35.6059-52.5411ZM67.4225-1.74077L74.5875-1.80817L74.5875-45.2309Q74.5875-53.8813 69.481-59.3416Q64.3745-64.8018 55.3233-65.831Q54.1616-65.9658 52.9705-66.0122Q51.7794-66.0586 50.5773-66.0316L43.1498-58.5233Q44.2998-58.8771 45.5381-59.127Q46.7763-59.377 48.1291-59.4898Q49.482-59.6026 51.0073-59.6026Q58.5429-59.6026 62.7805-55.5967Q67.0181-51.5907 67.0181-44.4931L67.0181-38.8443L46.8549-37.5582Q37.7909-36.9825 32.3222-33.4541L33.7741-25.5885Q35.0484-27.3463 37.0459-28.614Q39.0434-29.8818 41.7549-30.6445Q44.4664-31.4072 47.8182-31.6327L67.0181-32.9679L67.0181-25.5526Q67.0181-20.857 64.7249-16.9627Q62.4316-13.0684 58.4632-10.5296Q54.4947-7.99077 49.5026-7.41018L55.2587-2.70742Q59.316-4.22948 62.3858-6.832Q65.4556-9.43451 66.954-12.7861L67.4225-12.7861Z"/>
  </g>
  <g id="Thin-S" transform="matrix(1 0 0 1 803.476 696)">
   <path d="M63.4197 0.382553Q70.6994 0.382553 77.1525-2.41325Q83.6056-5.20906 88.5246-10.1388Q93.4436-15.0686 96.2502-21.5217Q99.0567-27.9748 99.0567-35.2539Q99.0567-42.533 96.2432-48.9861Q93.4297-55.4392 88.4999-60.3516Q83.5701-65.2639 77.1103-68.0771Q70.6506-70.8904 63.3708-70.8904Q56.0917-70.8904 49.6563-68.0946Q43.221-65.2988 38.2912-60.369Q33.3614-55.4392 30.5723-48.9861Q27.7832-42.533 27.7832-35.2539Q27.7832-27.9748 30.579-21.5217Q33.3748-15.0686 38.3046-10.1388Q43.2344-5.20906 49.67-2.41325Q56.1057 0.382553 63.4197 0.382553ZM63.4197-2.97044Q56.6857-2.97044 50.8341-5.45507Q44.9825-7.93969 40.5684-12.3605Q36.1543-16.7813 33.6699-22.6503Q31.1856-28.5194 31.1856-35.2539Q31.1856-41.9884 33.6699-47.8575Q36.1543-53.7265 40.5507-58.1473Q44.9471-62.5681 50.792-65.0527Q56.6369-67.5374 63.3708-67.5374Q70.1054-67.5374 75.957-65.0527Q81.8086-62.5681 86.2471-58.1473Q90.6856-53.7265 93.1944-47.8575Q95.7031-41.9884 95.7031-35.2539Q95.7031-28.5194 93.2188-22.6678Q90.7345-16.8162 86.3137-12.3779Q81.8928-7.93969 76.0235-5.45507Q70.1542-2.97044 63.4197-2.97044ZM38.0918-11.4768L36.5819-13.6504Q32.0608-10.7341 26.4841-10.7341Q20.7557-10.7341 17.0381-13.7714Q13.3204-16.8087 13.3204-21.75Q13.3204-26.3967 16.9503-29.2861Q20.5803-32.1756 27.5761-32.7282L29.7326-32.8887L29.2014-35.7696L27.0567-35.5957Q18.5273-34.9883 14.1465-31.3525Q9.76562-27.7167 9.76562-21.574Q9.76562-17.4553 11.8194-14.3185Q13.8731-11.1816 17.5167-9.42491Q21.1603-7.66818 25.9433-7.66818Q29.3538-7.66818 32.4777-8.68471Q35.6016-9.70124 38.0918-11.4768ZM35.4256-54.2228L37.324-56.9846Q34.1759-58.0921 30.1565-58.0921Q23.2733-58.0921 18.6523-55.0186Q14.0314-51.9451 12.3535-47.0998Q12.1115-46.3964 11.9307-45.6162Q11.7499-44.836 11.7499-44.3011Q11.7499-43.5192 12.1778-43.0809Q12.6057-42.6425 13.2893-42.6425Q14.4939-42.6425 14.8652-43.9061Q16.3322-49.5353 20.2666-52.2461Q24.201-54.9568 30.1018-54.9568Q32.9182-54.9568 35.4256-54.2228ZM68.4436-2.04113L72.6858-2.0685L72.6858-44.0896Q72.6858-53.4609 67.2189-59.0713Q61.752-64.6817 52.1603-65.0702Q50.8183-65.1249 49.5372-65.0713Q48.2562-65.0176 47.014-64.8904L41.9686-60.0446Q43.2188-60.4788 44.5771-60.7688Q45.9355-61.0588 47.3984-61.1916Q48.8614-61.3244 50.4668-61.3244Q58.8631-61.3244 63.5713-56.6377Q68.2794-51.951 68.2794-43.7323L68.2794-38.1037L46.6346-36.5374Q36.1092-35.7814 30.6404-31.3321L31.7523-26.6897Q33.2268-28.4475 35.4444-29.7452Q37.662-31.0429 40.6339-31.8456Q43.6057-32.6483 47.2576-32.9139L68.2794-34.5296L68.2794-24.9919Q68.2794-20.1564 65.9561-16.0519Q63.6327-11.9473 59.6143-9.11826Q55.5959-6.28918 50.5237-5.32817L54.658-2.60719Q59.4963-4.26951 63.1066-7.47257Q66.7169-10.6756 68.1952-14.9081L68.4436-14.9081Z"/>
  </g>
  <g id="Ultralight-S" transform="matrix(1 0 0 1 507.308 696)">
   <path d="M62.8761-0.16098Q70.0432-0.16098 76.3988-2.91061Q82.7545-5.66025 87.5916-10.5183Q92.4286-15.3763 95.1992-21.7319Q97.9698-28.0876 97.9698-35.2539Q97.9698-42.4202 95.1973-48.7759Q92.4248-55.1315 87.5668-59.967Q82.7087-64.8026 76.3515-67.5747Q69.9944-70.3468 62.8273-70.3468Q55.661-70.3468 49.3282-67.5972Q42.9955-64.8476 38.1374-59.9895Q33.2794-55.1315 30.5313-48.7759Q27.7832-42.4202 27.7832-35.2539Q27.7832-28.0876 30.5328-21.7319Q33.2825-15.3763 38.1405-10.5183Q42.9985-5.66025 49.3317-2.91061Q55.6648-0.16098 62.8761-0.16098ZM62.8761-2.42691Q56.0295-2.42691 50.0805-4.95262Q44.1315-7.47833 39.6404-11.9709Q35.1494-16.4635 32.6241-22.435Q30.0987-28.4065 30.0987-35.2539Q30.0987-42.1013 32.6241-48.0728Q35.1494-54.0443 39.6175-58.5369Q44.0857-63.0295 50.0332-65.5552Q55.9807-68.0809 62.8273-68.0809Q69.6747-68.0809 75.6237-65.5552Q81.5727-63.0295 86.0882-58.5369Q90.6036-54.0443 93.1534-48.0728Q95.7031-42.1013 95.7031-35.2539Q95.7031-28.4065 93.1778-22.4575Q90.6525-16.5085 86.1599-11.9934Q81.6673-7.47833 75.6954-4.95262Q69.7235-2.42691 62.8761-2.42691ZM37.7945-11.5486L36.6844-13.1172Q31.8558-9.93423 25.9201-9.93423Q19.8738-9.93423 15.905-13.2023Q11.9362-16.4703 11.9362-21.7705Q11.9362-26.7044 15.7917-29.7886Q19.6472-32.8728 27.1454-33.4869L29.0764-33.6372L28.7605-35.4927L26.7593-35.3394Q18.2915-34.7115 14.0285-31.1474Q9.76562-27.5833 9.76562-21.5431Q9.76562-17.5476 11.7989-14.4928Q13.8321-11.438 17.4347-9.71718Q21.0373-7.99637 25.7484-7.99637Q29.1283-7.99637 32.2163-8.94623Q35.3043-9.89609 37.7945-11.5486ZM35.3333-55.0842L36.5036-56.8001Q33.5197-57.8461 29.6951-57.8461Q22.6273-57.8461 18.1396-54.6238Q13.652-51.4015 12.0972-46.3821Q11.927-45.7298 11.7718-44.9856Q11.6165-44.2413 11.6165-43.7782Q11.6165-43.2526 11.8702-42.9783Q12.1239-42.704 12.5511-42.704Q13.4377-42.704 13.604-43.7523Q14.8865-49.884 19.0926-52.887Q23.2986-55.8899 29.6814-55.8899Q32.6927-55.8899 35.3333-55.0842ZM68.9667-2.19498L71.7117-2.20184L71.7117-43.5051Q71.7117-53.2455 66.0603-58.9329Q60.4088-64.6202 50.5402-64.6805Q49.1058-64.6942 47.7787-64.5893Q46.4516-64.4844 45.1889-64.3059L41.3635-60.8238Q42.6651-61.2991 44.0849-61.6096Q45.5048-61.9202 47.0242-62.0632Q48.5435-62.2063 50.19-62.2063Q59.0271-62.2063 63.9763-57.1709Q68.9255-52.1355 68.9255-43.3426L68.9255-37.7243L46.5218-36.0146Q35.2478-35.1662 29.7791-30.2452L30.7167-27.2537Q32.2937-29.0115 34.6241-30.3246Q36.9545-31.6376 40.0597-32.4608Q43.1648-33.284 46.9704-33.5701L68.9255-35.3294L68.9255-24.7047Q68.9255-19.7975 66.5867-15.5853Q64.2479-11.3731 60.2039-8.39539Q56.16-5.41763 51.0468-4.26178L54.3503-2.55585Q59.5886-4.29001 63.4758-7.80067Q67.363-11.3113 68.8309-15.995L68.9667-15.995Z"/>
  </g>
 </g>
</svg>
